<svg version="1.1" viewBox="0.0 0.0 720.0 446.0" fill="none" stroke="none" stroke-linecap="square" stroke-miterlimit="10" width="720" height="446" xmlns:xlink="http://www.w3.org/1999/xlink" xmlns="http://www.w3.org/2000/svg"><path fill="#ffffff" d="M0 0L720.0 0L720.0 446.0L0 446.0L0 0Z" fill-rule="nonzero"/><path fill="#ffb4ff" d="M360.0 22.3C415.40964 22.3 468.35394 45.207603 506.2889 85.59531L360.0 223.0Z" fill-rule="nonzero"/><path fill="#ffb4ff" d="M506.2889 85.59531C558.0633 140.71727 574.45746 220.26256 548.6977 291.36423L360.0 223.0Z" fill-rule="nonzero"/><path fill="#ffb4ff" d="M548.6977 291.36423C542.2898 309.05115 533.42706 325.74933 522.3697 340.9685L360.0 223.0Z" fill-rule="nonzero"/><path fill="#f0ff9b" d="M522.3697 340.9685C484.6074 392.94385 424.2451 423.7 360.0 423.7L360.0 223.0Z" fill-rule="nonzero"/><path fill="#f0ff9b" d="M360.0 423.7C249.15645 423.7 159.3 333.84354 159.3 223.0C159.3 112.15645 249.15645 22.3 360.0 22.3L360.0 223.0Z" fill-rule="nonzero"/><path stroke="#000000" stroke-width="1.0" stroke-linejoin="round" stroke-linecap="round" d="M360.0 223.0L360.0 22.3C415.40964 22.3 468.35394 45.207603 506.2889 85.59531" fill-rule="nonzero"/><path stroke="#000000" stroke-width="1.0" stroke-linejoin="round" stroke-linecap="round" d="M360.0 223.0L506.2889 85.59531C558.0633 140.71727 574.45746 220.26256 548.6977 291.36423" fill-rule="nonzero"/><path stroke="#000000" stroke-width="1.0" stroke-linejoin="round" stroke-linecap="round" d="M360.0 223.0L548.6977 291.36423C542.2898 309.05115 533.42706 325.74933 522.3697 340.9685" fill-rule="nonzero"/><path stroke="#000000" stroke-width="1.0" stroke-linejoin="round" stroke-linecap="round" d="M360.0 223.0L522.3697 340.9685C484.6074 392.94385 424.2451 423.7 360.0 423.7" fill-rule="nonzero"/><path stroke="#000000" stroke-width="1.0" stroke-linejoin="round" stroke-linecap="round" d="M360.0 223.0L360.0 423.7C249.15645 423.7 159.3 333.84354 159.3 223.0C159.3 112.15645 249.15645 22.3 360.0 22.3" fill-rule="nonzero"/><path fill="#232832" d="M23.175 209.90625L26.33125 209.90625Q27.409374 209.90625 27.971874 210.07812Q28.721874 210.29688 29.253124 210.875Q29.8 211.4375 30.08125 212.26562Q30.3625 213.07812 30.3625 214.28125Q30.3625 215.34375 30.1125 216.10938Q29.784374 217.04688 29.190624 217.625Q28.7375 218.07812 27.971874 218.3125Q27.39375 218.5 26.425 218.5L23.175 218.5L23.175 209.90625ZM24.909374 211.35938L24.909374 217.04688L26.190624 217.04688Q26.925 217.04688 27.253124 216.96875Q27.675 216.85938 27.940624 216.60938Q28.221874 216.35938 28.39375 215.78125Q28.58125 215.20312 28.58125 214.20312Q28.58125 213.21875 28.39375 212.6875Q28.221874 212.14062 27.909374 211.84375Q27.596874 211.54688 27.1125 211.4375Q26.7375 211.35938 25.675 211.35938L24.909374 211.35938ZM38.925 218.5L37.034374 218.5L36.284374 216.54688L32.846874 216.54688L32.14375 218.5L30.3 218.5L33.64375 209.90625L35.4875 209.90625L38.925 218.5ZM35.721874 215.09375L34.55 211.90625L33.378124 215.09375L35.721874 215.09375ZM38.815624 214.25Q38.815624 212.9375 39.221874 212.04688Q39.503124 211.39062 40.003124 210.875Q40.51875 210.35938 41.128124 210.10938Q41.925 209.76562 42.971874 209.76562Q44.878124 209.76562 46.01875 210.95312Q47.159374 212.125 47.159374 214.21875Q47.159374 216.29688 46.01875 217.46875Q44.89375 218.64062 43.003124 218.64062Q41.08125 218.64062 39.940624 217.48438Q38.815624 216.3125 38.815624 214.25ZM40.6125 214.20312Q40.6125 215.65625 41.284374 216.40625Q41.95625 217.15625 42.9875 217.15625Q44.034374 217.15625 44.690624 216.42188Q45.3625 215.67188 45.3625 214.17188Q45.3625 212.70312 44.70625 211.98438Q44.065624 211.25 42.9875 211.25Q41.925 211.25 41.26875 211.98438Q40.6125 212.71875 40.6125 214.20312ZM50.971874 216.20312L50.971874 214.5625L54.20625 214.5625L54.20625 216.20312L50.971874 216.20312ZM63.675 215.34375L65.34688 215.875Q64.97188 217.28125 64.06563 217.96875Q63.159374 218.64062 61.784374 218.64062Q60.065624 218.64062 58.95625 217.48438Q57.8625 216.3125 57.8625 214.28125Q57.8625 212.14062 58.971874 210.95312Q60.08125 209.76562 61.89375 209.76562Q63.471874 209.76562 64.45625 210.6875Q65.03438 211.25 65.33125 212.28125L63.6125 212.6875Q63.45625 212.01562 62.971874 211.64062Q62.4875 211.25 61.8 211.25Q60.846874 211.25 60.253124 211.9375Q59.659374 212.60938 59.659374 214.15625Q59.659374 215.78125 60.2375 216.46875Q60.83125 217.15625 61.76875 217.15625Q62.45625 217.15625 62.95625 216.71875Q63.45625 216.28125 63.675 215.34375ZM65.78438 215.29688Q65.78438 214.48438 66.19063 213.71875Q66.59688 212.9375 67.33125 212.54688Q68.06563 212.14062 68.9875 212.14062Q70.39375 212.14062 71.3 213.0625Q72.20625 213.96875 72.20625 215.375Q72.20625 216.78125 71.28438 217.71875Q70.37813 218.64062 69.00313 218.64062Q68.14375 218.64062 67.3625 218.25Q66.59688 217.85938 66.19063 217.125Q65.78438 216.375 65.78438 215.29688ZM67.47188 215.39062Q67.47188 216.3125 67.90938 216.8125Q68.34688 217.29688 68.9875 217.29688Q69.64375 217.29688 70.06563 216.8125Q70.50313 216.3125 70.50313 215.375Q70.50313 214.46875 70.06563 213.98438Q69.64375 213.48438 68.9875 213.48438Q68.34688 213.48438 67.90938 213.98438Q67.47188 214.46875 67.47188 215.39062ZM73.03438 212.28125L74.55 212.28125L74.55 213.125Q75.37813 212.14062 76.50313 212.14062Q77.09688 212.14062 77.53438 212.39062Q77.97188 212.625 78.25313 213.125Q78.65938 212.625 79.12813 212.39062Q79.6125 212.14062 80.15938 212.14062Q80.83125 212.14062 81.3 212.42188Q81.78438 212.6875 82.01875 213.23438Q82.19063 213.625 82.19063 214.51562L82.19063 218.5L80.55 218.5L80.55 214.9375Q80.55 214.01562 80.37813 213.75Q80.14375 213.39062 79.675 213.39062Q79.33125 213.39062 79.01875 213.60938Q78.72188 213.8125 78.58125 214.21875Q78.44063 214.625 78.44063 215.51562L78.44063 218.5L76.8 218.5L76.8 215.09375Q76.8 214.1875 76.70625 213.92188Q76.62813 213.65625 76.44063 213.53125Q76.25313 213.39062 75.94063 213.39062Q75.56563 213.39062 75.25313 213.60938Q74.95625 213.8125 74.81563 214.20312Q74.69063 214.57812 74.69063 215.46875L74.69063 218.5L73.03438 218.5L73.03438 212.28125ZM84.03438 212.28125L85.55 212.28125L85.55 213.125Q86.37813 212.14062 87.50313 212.14062Q88.09688 212.14062 88.53438 212.39062Q88.97188 212.625 89.25313 213.125Q89.65938 212.625 90.12813 212.39062Q90.6125 212.14062 91.15938 212.14062Q91.83125 212.14062 92.3 212.42188Q92.78438 212.6875 93.01875 213.23438Q93.19063 213.625 93.19063 214.51562L93.19063 218.5L91.55 218.5L91.55 214.9375Q91.55 214.01562 91.37813 213.75Q91.14375 213.39062 90.675 213.39062Q90.33125 213.39062 90.01875 213.60938Q89.72188 213.8125 89.58125 214.21875Q89.44063 214.625 89.44063 215.51562L89.44063 218.5L87.8 218.5L87.8 215.09375Q87.8 214.1875 87.70625 213.92188Q87.62813 213.65625 87.44063 213.53125Q87.25313 213.39062 86.94063 213.39062Q86.56563 213.39062 86.25313 213.60938Q85.95625 213.8125 85.81563 214.20312Q85.69063 214.57812 85.69063 215.46875L85.69063 218.5L84.03438 218.5L84.03438 212.28125ZM99.25313 218.5L99.25313 217.5625Q98.925 218.0625 98.3625 218.35938Q97.81563 218.64062 97.19063 218.64062Q96.56563 218.64062 96.06563 218.375Q95.56563 218.09375 95.34688 217.59375Q95.12813 217.09375 95.12813 216.21875L95.12813 212.28125L96.76875 212.28125L96.76875 215.14062Q96.76875 216.45312 96.8625 216.75Q96.95625 217.04688 97.19063 217.21875Q97.44063 217.39062 97.8 217.39062Q98.22188 217.39062 98.55 217.15625Q98.89375 216.92188 99.01875 216.57812Q99.14375 216.23438 99.14375 214.90625L99.14375 212.28125L100.78438 212.28125L100.78438 218.5L99.25313 218.5ZM107.81563 218.5L106.175 218.5L106.175 215.32812Q106.175 214.3125 106.06563 214.01562Q105.97188 213.71875 105.72188 213.5625Q105.4875 213.39062 105.15938 213.39062Q104.72188 213.39062 104.37813 213.625Q104.05 213.85938 103.925 214.25Q103.8 214.64062 103.8 215.6875L103.8 218.5L102.14375 218.5L102.14375 212.28125L103.675 212.28125L103.675 213.1875Q104.4875 212.14062 105.7375 212.14062Q106.26875 212.14062 106.72188 212.34375Q107.175 212.53125 107.40938 212.84375Q107.64375 213.14062 107.72188 213.53125Q107.81563 213.90625 107.81563 214.625L107.81563 218.5ZM109.15938 211.4375L109.15938 209.90625L110.81563 209.90625L110.81563 211.4375L109.15938 211.4375ZM109.15938 218.5L109.15938 212.28125L110.81563 212.28125L110.81563 218.5L109.15938 218.5ZM115.01875 212.28125L115.01875 213.59375L113.89375 213.59375L113.89375 216.09375Q113.89375 216.85938 113.925 216.98438Q113.95625 217.10938 114.06563 217.20312Q114.19063 217.28125 114.34688 217.28125Q114.58125 217.28125 115.00313 217.10938L115.14375 218.39062Q114.58125 218.64062 113.84688 218.64062Q113.40938 218.64062 113.05 218.5Q112.69063 218.34375 112.51875 218.10938Q112.3625 217.85938 112.28438 217.46875Q112.2375 217.17188 112.2375 216.29688L112.2375 213.59375L111.4875 213.59375L111.4875 212.28125L112.2375 212.28125L112.2375 211.04688L113.89375 210.07812L113.89375 212.28125L115.01875 212.28125ZM115.37813 212.28125L117.12813 212.28125L118.62813 216.6875L120.08125 212.28125L121.78438 212.28125L119.58125 218.26562L119.19063 219.34375Q118.97188 219.89062 118.76875 220.17188Q118.58125 220.46875 118.31563 220.64062Q118.06563 220.82812 117.69063 220.92188Q117.33125 221.03125 116.8625 221.03125Q116.37813 221.03125 115.925 220.92188L115.78438 219.64062Q116.175 219.71875 116.47188 219.71875Q117.05 219.71875 117.31563 219.375Q117.59688 219.04688 117.75313 218.51562L115.37813 212.28125Z" fill-rule="nonzero"/><path fill="#9e9e9e" d="M22.83125 233.29688L24.471874 233.125Q24.55 233.67188 24.89375 234.0Q25.2375 234.32812 25.690624 234.32812Q26.20625 234.32812 26.565624 233.90625Q26.925 233.48438 26.925 232.64062Q26.925 231.85938 26.565624 231.46875Q26.20625 231.0625 25.64375 231.0625Q24.925 231.0625 24.3625 231.6875L23.034374 231.5L23.878124 227.03125L28.2375 227.03125L28.2375 228.5625L25.128124 228.5625L24.8625 230.03125Q25.425 229.75 25.9875 229.75Q27.08125 229.75 27.846874 230.54688Q28.6125 231.34375 28.6125 232.60938Q28.6125 233.67188 28.003124 234.51562Q27.159374 235.64062 25.675 235.64062Q24.4875 235.64062 23.7375 235.01562Q22.9875 234.375 22.83125 233.29688ZM32.596874 226.875Q33.846874 226.875 34.55 227.76562Q35.378124 228.8125 35.378124 231.26562Q35.378124 233.70312 34.534374 234.76562Q33.846874 235.64062 32.596874 235.64062Q31.346874 235.64062 30.565624 234.6875Q29.8 233.71875 29.8 231.25Q29.8 228.8125 30.64375 227.75Q31.346874 226.875 32.596874 226.875ZM32.596874 228.23438Q32.3 228.23438 32.065624 228.4375Q31.83125 228.625 31.690624 229.10938Q31.534374 229.75 31.534374 231.26562Q31.534374 232.78125 31.675 233.34375Q31.83125 233.90625 32.065624 234.09375Q32.3 234.28125 32.596874 234.28125Q32.89375 234.28125 33.128124 234.09375Q33.3625 233.90625 33.4875 233.40625Q33.659374 232.78125 33.659374 231.26562Q33.659374 229.75 33.503124 229.1875Q33.3625 228.625 33.128124 228.4375Q32.89375 228.23438 32.596874 228.23438ZM37.159374 235.5L37.159374 233.85938L38.815624 233.85938L38.815624 235.5L37.159374 235.5ZM42.596874 226.875Q43.846874 226.875 44.55 227.76562Q45.378124 228.8125 45.378124 231.26562Q45.378124 233.70312 44.534374 234.76562Q43.846874 235.64062 42.596874 235.64062Q41.346874 235.64062 40.565624 234.6875Q39.8 233.71875 39.8 231.25Q39.8 228.8125 40.64375 227.75Q41.346874 226.875 42.596874 226.875ZM42.596874 228.23438Q42.3 228.23438 42.065624 228.4375Q41.83125 228.625 41.690624 229.10938Q41.534374 229.75 41.534374 231.26562Q41.534374 232.78125 41.675 233.34375Q41.83125 233.90625 42.065624 234.09375Q42.3 234.28125 42.596874 234.28125Q42.89375 234.28125 43.128124 234.09375Q43.3625 233.90625 43.4875 233.40625Q43.659374 232.78125 43.659374 231.26562Q43.659374 229.75 43.503124 229.1875Q43.3625 228.625 43.128124 228.4375Q42.89375 228.23438 42.596874 228.23438ZM46.815624 229.03125Q46.815624 227.875 47.315624 227.32812Q47.83125 226.76562 48.70625 226.76562Q49.596874 226.76562 50.096874 227.32812Q50.6125 227.875 50.6125 229.03125Q50.6125 230.1875 50.096874 230.75Q49.596874 231.29688 48.7375 231.29688Q47.83125 231.29688 47.315624 230.75Q46.815624 230.1875 46.815624 229.03125ZM48.1125 229.01562Q48.1125 229.85938 48.3 230.14062Q48.440624 230.35938 48.70625 230.35938Q48.971874 230.35938 49.1125 230.14062Q49.3 229.85938 49.3 229.01562Q49.3 228.1875 49.1125 227.90625Q48.971874 227.6875 48.70625 227.6875Q48.440624 227.6875 48.3 227.89062Q48.1125 228.1875 48.1125 229.01562ZM49.95625 235.82812L48.7375 235.82812L53.315624 226.76562L54.503124 226.76562L49.95625 235.82812ZM52.6125 233.57812Q52.6125 232.42188 53.1125 231.85938Q53.628124 231.29688 54.503124 231.29688Q55.39375 231.29688 55.89375 231.85938Q56.409374 232.42188 56.409374 233.57812Q56.409374 234.73438 55.89375 235.29688Q55.39375 235.84375 54.534374 235.84375Q53.628124 235.84375 53.1125 235.29688Q52.6125 234.73438 52.6125 233.57812ZM53.89375 233.5625Q53.89375 234.40625 54.096874 234.6875Q54.2375 234.90625 54.503124 234.90625Q54.76875 234.90625 54.909374 234.6875Q55.096874 234.40625 55.096874 233.5625Q55.096874 232.73438 54.909374 232.4375Q54.76875 232.23438 54.503124 232.23438Q54.2375 232.23438 54.096874 232.4375Q53.89375 232.73438 53.89375 233.5625Z" fill-rule="nonzero"/><path stroke="#757575" stroke-width="1.0" stroke-linecap="butt" d="M22.3 223.0L153.3 223.0L169.335 223.0" fill-rule="nonzero"/><path fill="#9e9e9e" d="M171.335 223.0C171.335 221.89543 170.43958 221.0 169.335 221.0C168.23042 221.0 167.335 221.89543 167.335 223.0C167.335 224.10457 168.23042 225.0 169.335 225.0C170.43958 225.0 171.335 224.10457 171.335 223.0" fill-rule="nonzero"/><path fill="#232832" d="M590.59064 43.51215L590.59064 34.9184L596.48126 34.9184L596.48126 36.371525L592.325 36.371525L592.325 38.402775L595.90314 38.402775L595.90314 39.8559L592.325 39.8559L592.325 43.51215L590.59064 43.51215ZM598.5125 43.51215L598.5125 36.371525L595.96564 36.371525L595.96564 34.9184L602.77814 34.9184L602.77814 36.371525L600.2469 36.371525L600.2469 43.51215L598.5125 43.51215ZM603.6219 43.51215L603.6219 34.996525L605.35626 34.996525L605.35626 42.059025L609.66876 42.059025L609.66876 43.51215L603.6219 43.51215ZM613.6219 43.51215L613.6219 34.996525L615.35626 34.996525L615.35626 42.059025L619.66876 42.059025L619.66876 43.51215L613.6219 43.51215ZM621.79376 39.184025L620.29376 38.9184Q620.54376 38.01215 621.15314 37.590275Q621.77814 37.152775 622.9969 37.152775Q624.09064 37.152775 624.6219 37.4184Q625.16876 37.6684 625.3875 38.07465Q625.60626 38.465275 625.60626 39.5434L625.59064 41.465275Q625.59064 42.2934 625.66876 42.684025Q625.7469 43.059025 625.96564 43.51215L624.34064 43.51215Q624.27814 43.340275 624.1844 43.027775Q624.1375 42.871525 624.1219 42.82465Q623.7 43.246525 623.21564 43.44965Q622.7469 43.652775 622.2 43.652775Q621.23126 43.652775 620.66876 43.13715Q620.1219 42.6059 620.1219 41.809025Q620.1219 41.277775 620.3719 40.871525Q620.6375 40.465275 621.09064 40.246525Q621.54376 40.01215 622.40314 39.8559Q623.54376 39.63715 623.9969 39.44965L623.9969 39.2934Q623.9969 38.809025 623.7625 38.6059Q623.52814 38.402775 622.8719 38.402775Q622.4344 38.402775 622.1844 38.57465Q621.95 38.746525 621.79376 39.184025ZM623.9969 40.527775Q623.6844 40.621525 622.9969 40.777775Q622.3094 40.9184 622.09064 41.059025Q621.77814 41.2934 621.77814 41.63715Q621.77814 41.9809 622.02814 42.246525Q622.29376 42.496525 622.6844 42.496525Q623.1375 42.496525 623.54376 42.19965Q623.84064 41.9809 623.9344 41.652775Q623.9969 41.44965 623.9969 40.8559L623.9969 40.527775ZM627.4969 43.51215L627.4969 34.9184L629.1375 34.9184L629.1375 38.01215Q629.90314 37.152775 630.95 37.152775Q632.075 37.152775 632.825 37.9809Q633.575 38.7934 633.575 40.340275Q633.575 41.934025 632.8094 42.7934Q632.04376 43.652775 630.96564 43.652775Q630.4344 43.652775 629.91876 43.38715Q629.40314 43.121525 629.02814 42.590275L629.02814 43.51215L627.4969 43.51215ZM629.1219 40.26215Q629.1219 41.2309 629.4344 41.69965Q629.85626 42.3559 630.575 42.3559Q631.10626 42.3559 631.4969 41.88715Q631.8875 41.4184 631.8875 40.4184Q631.8875 39.3559 631.4969 38.88715Q631.10626 38.402775 630.4969 38.402775Q629.91876 38.402775 629.5125 38.871525Q629.1219 39.32465 629.1219 40.26215ZM633.98126 41.7309L635.6375 41.4809Q635.7469 41.965275 636.0594 42.215275Q636.3875 42.465275 636.96564 42.465275Q637.60626 42.465275 637.91876 42.2309Q638.1375 42.059025 638.1375 41.7934Q638.1375 41.6059 638.02814 41.4809Q637.90314 41.3559 637.48126 41.26215Q635.48126 40.82465 634.95 40.465275Q634.21564 39.94965 634.21564 39.059025Q634.21564 38.246525 634.84064 37.69965Q635.48126 37.152775 636.825 37.152775Q638.10626 37.152775 638.73126 37.57465Q639.35626 37.9809 639.59064 38.7934L638.02814 39.07465Q637.9344 38.715275 637.65314 38.527775Q637.3719 38.32465 636.85626 38.32465Q636.21564 38.32465 635.9344 38.51215Q635.7469 38.63715 635.7469 38.840275Q635.7469 39.027775 635.90314 39.152775Q636.1219 39.309025 637.4344 39.6059Q638.7625 39.902775 639.27814 40.340275Q639.79376 40.777775 639.79376 41.559025Q639.79376 42.4184 639.075 43.0434Q638.3719 43.652775 636.96564 43.652775Q635.7 43.652775 634.95 43.13715Q634.21564 42.621525 633.98126 41.7309ZM644.3719 41.215275L644.3719 39.57465L647.60626 39.57465L647.60626 41.215275L644.3719 41.215275ZM651.575 43.51215L651.575 34.9184L655.23126 34.9184Q656.60626 34.9184 657.23126 35.152775Q657.85626 35.38715 658.23126 35.9809Q658.60626 36.57465 658.60626 37.32465Q658.60626 38.2934 658.02814 38.934025Q657.46564 39.559025 656.34064 39.715275Q656.90314 40.0434 657.2625 40.44965Q657.6375 40.840275 658.2469 41.840275L659.3094 43.51215L657.23126 43.51215L655.98126 41.63715Q655.3094 40.63715 655.0594 40.38715Q654.8094 40.121525 654.52814 40.027775Q654.2625 39.9184 653.66876 39.9184L653.3094 39.9184L653.3094 43.51215L651.575 43.51215ZM653.3094 38.559025L654.59064 38.559025Q655.84064 38.559025 656.15314 38.44965Q656.46564 38.340275 656.6375 38.090275Q656.825 37.82465 656.825 37.434025Q656.825 37.01215 656.59064 36.746525Q656.35626 36.4809 655.9344 36.402775Q655.71564 36.371525 654.66876 36.371525L653.3094 36.371525L653.3094 38.559025ZM663.16876 41.527775L664.8094 41.809025Q664.4969 42.715275 663.8094 43.184025Q663.1219 43.652775 662.10626 43.652775Q660.48126 43.652775 659.7 42.590275Q659.075 41.746525 659.075 40.44965Q659.075 38.902775 659.8875 38.027775Q660.7 37.152775 661.9344 37.152775Q663.325 37.152775 664.1219 38.07465Q664.9344 38.9809 664.8875 40.871525L660.7625 40.871525Q660.79376 41.6059 661.16876 42.01215Q661.54376 42.4184 662.1219 42.4184Q662.4969 42.4184 662.7625 42.215275Q663.02814 41.996525 663.16876 41.527775ZM663.2625 39.871525Q663.2469 39.152775 662.8875 38.777775Q662.54376 38.402775 662.02814 38.402775Q661.4969 38.402775 661.1375 38.7934Q660.79376 39.19965 660.79376 39.871525L663.2625 39.871525ZM665.98126 41.7309L667.6375 41.4809Q667.7469 41.965275 668.0594 42.215275Q668.3875 42.465275 668.96564 42.465275Q669.60626 42.465275 669.91876 42.2309Q670.1375 42.059025 670.1375 41.7934Q670.1375 41.6059 670.02814 41.4809Q669.90314 41.3559 669.48126 41.26215Q667.48126 40.82465 666.95 40.465275Q666.21564 39.94965 666.21564 39.059025Q666.21564 38.246525 666.84064 37.69965Q667.48126 37.152775 668.825 37.152775Q670.10626 37.152775 670.73126 37.57465Q671.35626 37.9809 671.59064 38.7934L670.02814 39.07465Q669.9344 38.715275 669.65314 38.527775Q669.3719 38.32465 668.85626 38.32465Q668.21564 38.32465 667.9344 38.51215Q667.7469 38.63715 667.7469 38.840275Q667.7469 39.027775 667.90314 39.152775Q668.1219 39.309025 669.4344 39.6059Q670.7625 39.902775 671.27814 40.340275Q671.79376 40.777775 671.79376 41.559025Q671.79376 42.4184 671.075 43.0434Q670.3719 43.652775 668.96564 43.652775Q667.7 43.652775 666.95 43.13715Q666.21564 42.621525 665.98126 41.7309ZM677.16876 41.527775L678.8094 41.809025Q678.4969 42.715275 677.8094 43.184025Q677.1219 43.652775 676.10626 43.652775Q674.48126 43.652775 673.7 42.590275Q673.075 41.746525 673.075 40.44965Q673.075 38.902775 673.8875 38.027775Q674.7 37.152775 675.9344 37.152775Q677.325 37.152775 678.1219 38.07465Q678.9344 38.9809 678.8875 40.871525L674.7625 40.871525Q674.79376 41.6059 675.16876 42.01215Q675.54376 42.4184 676.1219 42.4184Q676.4969 42.4184 676.7625 42.215275Q677.02814 41.996525 677.16876 41.527775ZM677.2625 39.871525Q677.2469 39.152775 676.8875 38.777775Q676.54376 38.402775 676.02814 38.402775Q675.4969 38.402775 675.1375 38.7934Q674.79376 39.19965 674.79376 39.871525L677.2625 39.871525ZM682.1375 43.51215L680.4969 43.51215L680.4969 37.2934L682.02814 37.2934L682.02814 38.1684Q682.41876 37.5434 682.73126 37.3559Q683.04376 37.152775 683.4344 37.152775Q683.9969 37.152775 684.52814 37.465275L684.0125 38.88715Q683.59064 38.621525 683.2469 38.621525Q682.8875 38.621525 682.65314 38.82465Q682.41876 39.01215 682.27814 39.51215Q682.1375 39.996525 682.1375 41.590275L682.1375 43.51215ZM687.27814 43.51215L684.7625 37.2934L686.4969 37.2934L687.66876 40.465275L688.0125 41.527775Q688.1375 41.121525 688.16876 40.996525Q688.2625 40.7309 688.35626 40.465275L689.52814 37.2934L691.23126 37.2934L688.7625 43.51215L687.27814 43.51215ZM695.16876 41.527775L696.8094 41.809025Q696.4969 42.715275 695.8094 43.184025Q695.1219 43.652775 694.10626 43.652775Q692.48126 43.652775 691.7 42.590275Q691.075 41.746525 691.075 40.44965Q691.075 38.902775 691.8875 38.027775Q692.7 37.152775 693.9344 37.152775Q695.325 37.152775 696.1219 38.07465Q696.9344 38.9809 696.8875 40.871525L692.7625 40.871525Q692.79376 41.6059 693.16876 42.01215Q693.54376 42.4184 694.1219 42.4184Q694.4969 42.4184 694.7625 42.215275Q695.02814 41.996525 695.16876 41.527775ZM695.2625 39.871525Q695.2469 39.152775 694.8875 38.777775Q694.54376 38.402775 694.02814 38.402775Q693.4969 38.402775 693.1375 38.7934Q692.79376 39.19965 692.79376 39.871525L695.2625 39.871525Z" fill-rule="nonzero"/><path fill="#9e9e9e" d="M669.41876 60.51215L667.77814 60.51215L667.77814 54.309025Q666.8719 55.152775 665.65314 55.559025L665.65314 54.059025Q666.29376 53.8559 667.04376 53.26215Q667.8094 52.6684 668.09064 51.88715L669.41876 51.88715L669.41876 60.51215ZM672.15314 58.2309L673.7469 58.0434Q673.825 58.652775 674.15314 58.9809Q674.4969 59.2934 674.96564 59.2934Q675.48126 59.2934 675.825 58.902775Q676.16876 58.51215 676.16876 57.8559Q676.16876 57.246525 675.825 56.88715Q675.4969 56.51215 675.02814 56.51215Q674.7 56.51215 674.2625 56.63715L674.45 55.2934Q675.1219 55.309025 675.46564 55.01215Q675.825 54.69965 675.825 54.184025Q675.825 53.76215 675.5594 53.51215Q675.3094 53.246525 674.8719 53.246525Q674.45 53.246525 674.15314 53.5434Q673.85626 53.82465 673.79376 54.38715L672.27814 54.13715Q672.4344 53.3559 672.7469 52.88715Q673.075 52.4184 673.6375 52.152775Q674.21564 51.88715 674.91876 51.88715Q676.1375 51.88715 676.8719 52.652775Q677.46564 53.2934 677.46564 54.090275Q677.46564 55.215275 676.23126 55.88715Q676.98126 56.059025 677.41876 56.6059Q677.85626 57.152775 677.85626 57.934025Q677.85626 59.059025 677.02814 59.8559Q676.2 60.652775 674.98126 60.652775Q673.8094 60.652775 673.04376 59.9809Q672.27814 59.309025 672.15314 58.2309ZM679.5594 60.51215L679.5594 58.871525L681.21564 58.871525L681.21564 60.51215L679.5594 60.51215ZM684.9969 51.88715Q686.2469 51.88715 686.95 52.777775Q687.77814 53.82465 687.77814 56.277775Q687.77814 58.715275 686.9344 59.777775Q686.2469 60.652775 684.9969 60.652775Q683.7469 60.652775 682.96564 59.69965Q682.2 58.7309 682.2 56.26215Q682.2 53.82465 683.04376 52.76215Q683.7469 51.88715 684.9969 51.88715ZM684.9969 53.246525Q684.7 53.246525 684.46564 53.44965Q684.23126 53.63715 684.09064 54.121525Q683.9344 54.76215 683.9344 56.277775Q683.9344 57.7934 684.075 58.3559Q684.23126 58.9184 684.46564 59.1059Q684.7 59.2934 684.9969 59.2934Q685.29376 59.2934 685.52814 59.1059Q685.7625 58.9184 685.8875 58.4184Q686.0594 57.7934 686.0594 56.277775Q686.0594 54.76215 685.90314 54.19965Q685.7625 53.63715 685.52814 53.44965Q685.29376 53.246525 684.9969 53.246525ZM689.21564 54.0434Q689.21564 52.88715 689.71564 52.340275Q690.23126 51.777775 691.10626 51.777775Q691.9969 51.777775 692.4969 52.340275Q693.0125 52.88715 693.0125 54.0434Q693.0125 55.19965 692.4969 55.76215Q691.9969 56.309025 691.1375 56.309025Q690.23126 56.309025 689.71564 55.76215Q689.21564 55.19965 689.21564 54.0434ZM690.5125 54.027775Q690.5125 54.871525 690.7 55.152775Q690.84064 55.371525 691.10626 55.371525Q691.3719 55.371525 691.5125 55.152775Q691.7 54.871525 691.7 54.027775Q691.7 53.19965 691.5125 52.9184Q691.3719 52.69965 691.10626 52.69965Q690.84064 52.69965 690.7 52.902775Q690.5125 53.19965 690.5125 54.027775ZM692.35626 60.840275L691.1375 60.840275L695.71564 51.777775L696.90314 51.777775L692.35626 60.840275ZM695.0125 58.590275Q695.0125 57.434025 695.5125 56.871525Q696.02814 56.309025 696.90314 56.309025Q697.79376 56.309025 698.29376 56.871525Q698.8094 57.434025 698.8094 58.590275Q698.8094 59.746525 698.29376 60.309025Q697.79376 60.8559 696.9344 60.8559Q696.02814 60.8559 695.5125 60.309025Q695.0125 59.746525 695.0125 58.590275ZM696.29376 58.57465Q696.29376 59.4184 696.4969 59.69965Q696.6375 59.9184 696.90314 59.9184Q697.16876 59.9184 697.3094 59.69965Q697.4969 59.4184 697.4969 58.57465Q697.4969 57.746525 697.3094 57.44965Q697.16876 57.246525 696.90314 57.246525Q696.6375 57.246525 696.4969 57.44965Q696.29376 57.746525 696.29376 58.57465Z" fill-rule="nonzero"/><path stroke="#757575" stroke-width="1.0" stroke-linecap="butt" d="M697.7 48.01215L566.7 48.01215L435.7126 48.01215" fill-rule="nonzero"/><path fill="#9e9e9e" d="M437.7126 48.01215C437.7126 46.90758 436.81714 46.01215 435.7126 46.01215C434.608 46.01215 433.7126 46.90758 433.7126 48.01215C433.7126 49.116722 434.608 50.01215 435.7126 50.01215C436.81714 50.01215 437.7126 49.116722 437.7126 48.01215" fill-rule="nonzero"/><path fill="#232832" d="M605.59064 180.013L605.59064 171.41925L611.48126 171.41925L611.48126 172.87238L607.325 172.87238L607.325 174.90363L610.90314 174.90363L610.90314 176.35675L607.325 176.35675L607.325 180.013L605.59064 180.013ZM613.5125 180.013L613.5125 172.87238L610.96564 172.87238L610.96564 171.41925L617.77814 171.41925L617.77814 172.87238L615.2469 172.87238L615.2469 180.013L613.5125 180.013ZM618.6219 180.013L618.6219 171.49738L620.35626 171.49738L620.35626 178.55988L624.66876 178.55988L624.66876 180.013L618.6219 180.013ZM628.6219 180.013L628.6219 171.49738L630.35626 171.49738L630.35626 178.55988L634.66876 178.55988L634.66876 180.013L628.6219 180.013ZM636.79376 175.68488L635.29376 175.41925Q635.54376 174.513 636.15314 174.09113Q636.77814 173.65363 637.9969 173.65363Q639.09064 173.65363 639.6219 173.91925Q640.16876 174.16925 640.3875 174.5755Q640.60626 174.96613 640.60626 176.04425L640.59064 177.96613Q640.59064 178.79425 640.66876 179.18488Q640.7469 179.55988 640.96564 180.013L639.34064 180.013Q639.27814 179.84113 639.1844 179.52863Q639.1375 179.37238 639.1219 179.3255Q638.7 179.74738 638.21564 179.9505Q637.7469 180.15363 637.2 180.15363Q636.23126 180.15363 635.66876 179.638Q635.1219 179.10675 635.1219 178.30988Q635.1219 177.77863 635.3719 177.37238Q635.6375 176.96613 636.09064 176.74738Q636.54376 176.513 637.40314 176.35675Q638.54376 176.138 638.9969 175.9505L638.9969 175.79425Q638.9969 175.30988 638.7625 175.10675Q638.52814 174.90363 637.8719 174.90363Q637.4344 174.90363 637.1844 175.0755Q636.95 175.24738 636.79376 175.68488ZM638.9969 177.02863Q638.6844 177.12238 637.9969 177.27863Q637.3094 177.41925 637.09064 177.55988Q636.77814 177.79425 636.77814 178.138Q636.77814 178.48175 637.02814 178.74738Q637.29376 178.99738 637.6844 178.99738Q638.1375 178.99738 638.54376 178.7005Q638.84064 178.48175 638.9344 178.15363Q638.9969 177.9505 638.9969 177.35675L638.9969 177.02863ZM642.4969 180.013L642.4969 171.41925L644.1375 171.41925L644.1375 174.513Q644.90314 173.65363 645.95 173.65363Q647.075 173.65363 647.825 174.48175Q648.575 175.29425 648.575 176.84113Q648.575 178.43488 647.8094 179.29425Q647.04376 180.15363 645.96564 180.15363Q645.4344 180.15363 644.91876 179.888Q644.40314 179.62238 644.02814 179.09113L644.02814 180.013L642.4969 180.013ZM644.1219 176.763Q644.1219 177.73175 644.4344 178.2005Q644.85626 178.85675 645.575 178.85675Q646.10626 178.85675 646.4969 178.388Q646.8875 177.91925 646.8875 176.91925Q646.8875 175.85675 646.4969 175.388Q646.10626 174.90363 645.4969 174.90363Q644.91876 174.90363 644.5125 175.37238Q644.1219 175.8255 644.1219 176.763ZM648.98126 178.23175L650.6375 177.98175Q650.7469 178.46613 651.0594 178.71613Q651.3875 178.96613 651.96564 178.96613Q652.60626 178.96613 652.91876 178.73175Q653.1375 178.55988 653.1375 178.29425Q653.1375 178.10675 653.02814 177.98175Q652.90314 177.85675 652.48126 177.763Q650.48126 177.3255 649.95 176.96613Q649.21564 176.4505 649.21564 175.55988Q649.21564 174.74738 649.84064 174.2005Q650.48126 173.65363 651.825 173.65363Q653.10626 173.65363 653.73126 174.0755Q654.35626 174.48175 654.59064 175.29425L653.02814 175.5755Q652.9344 175.21613 652.65314 175.02863Q652.3719 174.8255 651.85626 174.8255Q651.21564 174.8255 650.9344 175.013Q650.7469 175.138 650.7469 175.34113Q650.7469 175.52863 650.90314 175.65363Q651.1219 175.80988 652.4344 176.10675Q653.7625 176.40363 654.27814 176.84113Q654.79376 177.27863 654.79376 178.05988Q654.79376 178.91925 654.075 179.54425Q653.3719 180.15363 651.96564 180.15363Q650.7 180.15363 649.95 179.638Q649.21564 179.12238 648.98126 178.23175ZM659.3719 177.71613L659.3719 176.0755L662.60626 176.0755L662.60626 177.71613L659.3719 177.71613ZM668.5125 180.013L668.5125 172.87238L665.96564 172.87238L665.96564 171.41925L672.77814 171.41925L672.77814 172.87238L670.2469 172.87238L670.2469 180.013L668.5125 180.013ZM677.16876 178.02863L678.8094 178.30988Q678.4969 179.21613 677.8094 179.68488Q677.1219 180.15363 676.10626 180.15363Q674.48126 180.15363 673.7 179.09113Q673.075 178.24738 673.075 176.9505Q673.075 175.40363 673.8875 174.52863Q674.7 173.65363 675.9344 173.65363Q677.325 173.65363 678.1219 174.5755Q678.9344 175.48175 678.8875 177.37238L674.7625 177.37238Q674.79376 178.10675 675.16876 178.513Q675.54376 178.91925 676.1219 178.91925Q676.4969 178.91925 676.7625 178.71613Q677.02814 178.49738 677.16876 178.02863ZM677.2625 176.37238Q677.2469 175.65363 676.8875 175.27863Q676.54376 174.90363 676.02814 174.90363Q675.4969 174.90363 675.1375 175.29425Q674.79376 175.7005 674.79376 176.37238L677.2625 176.37238ZM681.79376 175.68488L680.29376 175.41925Q680.54376 174.513 681.15314 174.09113Q681.77814 173.65363 682.9969 173.65363Q684.09064 173.65363 684.6219 173.91925Q685.16876 174.16925 685.3875 174.5755Q685.60626 174.96613 685.60626 176.04425L685.59064 177.96613Q685.59064 178.79425 685.66876 179.18488Q685.7469 179.55988 685.96564 180.013L684.34064 180.013Q684.27814 179.84113 684.1844 179.52863Q684.1375 179.37238 684.1219 179.3255Q683.7 179.74738 683.21564 179.9505Q682.7469 180.15363 682.2 180.15363Q681.23126 180.15363 680.66876 179.638Q680.1219 179.10675 680.1219 178.30988Q680.1219 177.77863 680.3719 177.37238Q680.6375 176.96613 681.09064 176.74738Q681.54376 176.513 682.40314 176.35675Q683.54376 176.138 683.9969 175.9505L683.9969 175.79425Q683.9969 175.30988 683.7625 175.10675Q683.52814 174.90363 682.8719 174.90363Q682.4344 174.90363 682.1844 175.0755Q681.95 175.24738 681.79376 175.68488ZM683.9969 177.02863Q683.6844 177.12238 682.9969 177.27863Q682.3094 177.41925 682.09064 177.55988Q681.77814 177.79425 681.77814 178.138Q681.77814 178.48175 682.02814 178.74738Q682.29376 178.99738 682.6844 178.99738Q683.1375 178.99738 683.54376 178.7005Q683.84064 178.48175 683.9344 178.15363Q683.9969 177.9505 683.9969 177.35675L683.9969 177.02863ZM687.4344 173.79425L688.95 173.79425L688.95 174.638Q689.77814 173.65363 690.90314 173.65363Q691.4969 173.65363 691.9344 173.90363Q692.3719 174.138 692.65314 174.638Q693.0594 174.138 693.52814 173.90363Q694.0125 173.65363 694.5594 173.65363Q695.23126 173.65363 695.7 173.93488Q696.1844 174.2005 696.41876 174.74738Q696.59064 175.138 696.59064 176.02863L696.59064 180.013L694.95 180.013L694.95 176.4505Q694.95 175.52863 694.77814 175.263Q694.54376 174.90363 694.075 174.90363Q693.73126 174.90363 693.41876 175.12238Q693.1219 175.3255 692.98126 175.73175Q692.84064 176.138 692.84064 177.02863L692.84064 180.013L691.2 180.013L691.2 176.60675Q691.2 175.7005 691.10626 175.43488Q691.02814 175.16925 690.84064 175.04425Q690.65314 174.90363 690.34064 174.90363Q689.96564 174.90363 689.65314 175.12238Q689.35626 175.3255 689.21564 175.71613Q689.09064 176.09113 689.09064 176.98175L689.09064 180.013L687.4344 180.013L687.4344 173.79425Z" fill-rule="nonzero"/><path fill="#9e9e9e" d="M669.41876 197.013L667.77814 197.013L667.77814 190.80988Q666.8719 191.65363 665.65314 192.05988L665.65314 190.55988Q666.29376 190.35675 667.04376 189.763Q667.8094 189.16925 668.09064 188.388L669.41876 188.388L669.41876 197.013ZM672.21564 190.0755L672.21564 188.54425L677.84064 188.54425L677.84064 189.73175Q677.1375 190.41925 676.41876 191.7005Q675.7 192.98175 675.325 194.43488Q674.95 195.87238 674.95 197.013L673.3719 197.013Q673.40314 195.23175 674.09064 193.388Q674.79376 191.52863 675.95 190.0755L672.21564 190.0755ZM679.5594 197.013L679.5594 195.37238L681.21564 195.37238L681.21564 197.013L679.5594 197.013ZM682.23126 194.80988L683.8719 194.638Q683.95 195.18488 684.29376 195.513Q684.6375 195.84113 685.09064 195.84113Q685.60626 195.84113 685.96564 195.41925Q686.325 194.99738 686.325 194.15363Q686.325 193.37238 685.96564 192.98175Q685.60626 192.5755 685.04376 192.5755Q684.325 192.5755 683.7625 193.2005L682.4344 193.013L683.27814 188.54425L687.6375 188.54425L687.6375 190.0755L684.52814 190.0755L684.2625 191.54425Q684.825 191.263 685.3875 191.263Q686.48126 191.263 687.2469 192.05988Q688.0125 192.85675 688.0125 194.12238Q688.0125 195.18488 687.40314 196.02863Q686.5594 197.15363 685.075 197.15363Q683.8875 197.15363 683.1375 196.52863Q682.3875 195.888 682.23126 194.80988ZM689.21564 190.54425Q689.21564 189.388 689.71564 188.84113Q690.23126 188.27863 691.10626 188.27863Q691.9969 188.27863 692.4969 188.84113Q693.0125 189.388 693.0125 190.54425Q693.0125 191.7005 692.4969 192.263Q691.9969 192.80988 691.1375 192.80988Q690.23126 192.80988 689.71564 192.263Q689.21564 191.7005 689.21564 190.54425ZM690.5125 190.52863Q690.5125 191.37238 690.7 191.65363Q690.84064 191.87238 691.10626 191.87238Q691.3719 191.87238 691.5125 191.65363Q691.7 191.37238 691.7 190.52863Q691.7 189.7005 691.5125 189.41925Q691.3719 189.2005 691.10626 189.2005Q690.84064 189.2005 690.7 189.40363Q690.5125 189.7005 690.5125 190.52863ZM692.35626 197.34113L691.1375 197.34113L695.71564 188.27863L696.90314 188.27863L692.35626 197.34113ZM695.0125 195.09113Q695.0125 193.93488 695.5125 193.37238Q696.02814 192.80988 696.90314 192.80988Q697.79376 192.80988 698.29376 193.37238Q698.8094 193.93488 698.8094 195.09113Q698.8094 196.24738 698.29376 196.80988Q697.79376 197.35675 696.9344 197.35675Q696.02814 197.35675 695.5125 196.80988Q695.0125 196.24738 695.0125 195.09113ZM696.29376 195.0755Q696.29376 195.91925 696.4969 196.2005Q696.6375 196.41925 696.90314 196.41925Q697.16876 196.41925 697.3094 196.2005Q697.4969 195.91925 697.4969 195.0755Q697.4969 194.24738 697.3094 193.9505Q697.16876 193.74738 696.90314 193.74738Q696.6375 193.74738 696.4969 193.9505Q696.29376 194.24738 696.29376 195.0755Z" fill-rule="nonzero"/><path stroke="#757575" stroke-width="1.0" stroke-linecap="butt" d="M697.7 184.513L566.7 184.513L546.7402 184.513" fill-rule="nonzero"/><path fill="#9e9e9e" d="M548.7402 184.513C548.7402 183.40843 547.8447 182.513 546.7402 182.513C545.6356 182.513 544.7402 183.40843 544.7402 184.513C544.7402 185.61758 545.6356 186.513 546.7402 186.513C547.8447 186.513 548.7402 185.61758 548.7402 184.513" fill-rule="nonzero"/><path fill="#232832" d="M584.59064 307.88718L584.59064 299.29343L590.48126 299.29343L590.48126 300.74655L586.325 300.74655L586.325 302.7778L589.90314 302.7778L589.90314 304.23093L586.325 304.23093L586.325 307.88718L584.59064 307.88718ZM592.5125 307.88718L592.5125 300.74655L589.96564 300.74655L589.96564 299.29343L596.77814 299.29343L596.77814 300.74655L594.2469 300.74655L594.2469 307.88718L592.5125 307.88718ZM597.6219 307.88718L597.6219 299.37155L599.35626 299.37155L599.35626 306.43405L603.66876 306.43405L603.66876 307.88718L597.6219 307.88718ZM607.6219 307.88718L607.6219 299.37155L609.35626 299.37155L609.35626 306.43405L613.66876 306.43405L613.66876 307.88718L607.6219 307.88718ZM615.79376 303.55905L614.29376 303.29343Q614.54376 302.38718 615.15314 301.9653Q615.77814 301.5278 616.9969 301.5278Q618.09064 301.5278 618.6219 301.79343Q619.16876 302.04343 619.3875 302.44968Q619.60626 302.8403 619.60626 303.91843L619.59064 305.8403Q619.59064 306.66843 619.66876 307.05905Q619.7469 307.43405 619.96564 307.88718L618.34064 307.88718Q618.27814 307.7153 618.1844 307.4028Q618.1375 307.24655 618.1219 307.19968Q617.7 307.62155 617.21564 307.82468Q616.7469 308.0278 616.2 308.0278Q615.23126 308.0278 614.66876 307.51218Q614.1219 306.98093 614.1219 306.18405Q614.1219 305.6528 614.3719 305.24655Q614.6375 304.8403 615.09064 304.62155Q615.54376 304.38718 616.40314 304.23093Q617.54376 304.01218 617.9969 303.82468L617.9969 303.66843Q617.9969 303.18405 617.7625 302.98093Q617.52814 302.7778 616.8719 302.7778Q616.4344 302.7778 616.1844 302.94968Q615.95 303.12155 615.79376 303.55905ZM617.9969 304.9028Q617.6844 304.99655 616.9969 305.1528Q616.3094 305.29343 616.09064 305.43405Q615.77814 305.66843 615.77814 306.01218Q615.77814 306.35593 616.02814 306.62155Q616.29376 306.87155 616.6844 306.87155Q617.1375 306.87155 617.54376 306.57468Q617.84064 306.35593 617.9344 306.0278Q617.9969 305.82468 617.9969 305.23093L617.9969 304.9028ZM621.4969 307.88718L621.4969 299.29343L623.1375 299.29343L623.1375 302.38718Q623.90314 301.5278 624.95 301.5278Q626.075 301.5278 626.825 302.35593Q627.575 303.16843 627.575 304.7153Q627.575 306.30905 626.8094 307.16843Q626.04376 308.0278 624.96564 308.0278Q624.4344 308.0278 623.91876 307.76218Q623.40314 307.49655 623.02814 306.9653L623.02814 307.88718L621.4969 307.88718ZM623.1219 304.63718Q623.1219 305.60593 623.4344 306.07468Q623.85626 306.73093 624.575 306.73093Q625.10626 306.73093 625.4969 306.26218Q625.8875 305.79343 625.8875 304.79343Q625.8875 303.73093 625.4969 303.26218Q625.10626 302.7778 624.4969 302.7778Q623.91876 302.7778 623.5125 303.24655Q623.1219 303.69968 623.1219 304.63718ZM627.98126 306.10593L629.6375 305.85593Q629.7469 306.3403 630.0594 306.5903Q630.3875 306.8403 630.96564 306.8403Q631.60626 306.8403 631.91876 306.60593Q632.1375 306.43405 632.1375 306.16843Q632.1375 305.98093 632.02814 305.85593Q631.90314 305.73093 631.48126 305.63718Q629.48126 305.19968 628.95 304.8403Q628.21564 304.32468 628.21564 303.43405Q628.21564 302.62155 628.84064 302.07468Q629.48126 301.5278 630.825 301.5278Q632.10626 301.5278 632.73126 301.94968Q633.35626 302.35593 633.59064 303.16843L632.02814 303.44968Q631.9344 303.0903 631.65314 302.9028Q631.3719 302.69968 630.85626 302.69968Q630.21564 302.69968 629.9344 302.88718Q629.7469 303.01218 629.7469 303.2153Q629.7469 303.4028 629.90314 303.5278Q630.1219 303.68405 631.4344 303.98093Q632.7625 304.2778 633.27814 304.7153Q633.79376 305.1528 633.79376 305.93405Q633.79376 306.79343 633.075 307.41843Q632.3719 308.0278 630.96564 308.0278Q629.7 308.0278 628.95 307.51218Q628.21564 306.99655 627.98126 306.10593ZM638.3719 305.5903L638.3719 303.94968L641.60626 303.94968L641.60626 305.5903L638.3719 305.5903ZM645.52814 307.88718L645.52814 299.29343L647.2625 299.29343L647.2625 307.88718L645.52814 307.88718ZM654.21564 307.88718L652.575 307.88718L652.575 304.7153Q652.575 303.69968 652.46564 303.4028Q652.3719 303.10593 652.1219 302.94968Q651.8875 302.7778 651.5594 302.7778Q651.1219 302.7778 650.77814 303.01218Q650.45 303.24655 650.325 303.63718Q650.2 304.0278 650.2 305.07468L650.2 307.88718L648.54376 307.88718L648.54376 301.66843L650.075 301.66843L650.075 302.57468Q650.8875 301.5278 652.1375 301.5278Q652.66876 301.5278 653.1219 301.73093Q653.575 301.91843 653.8094 302.23093Q654.04376 302.5278 654.1219 302.91843Q654.21564 303.29343 654.21564 304.01218L654.21564 307.88718ZM657.27814 307.88718L654.7625 301.66843L656.4969 301.66843L657.66876 304.8403L658.0125 305.9028Q658.1375 305.49655 658.16876 305.37155Q658.2625 305.10593 658.35626 304.8403L659.52814 301.66843L661.23126 301.66843L658.7625 307.88718L657.27814 307.88718ZM665.16876 305.9028L666.8094 306.18405Q666.4969 307.0903 665.8094 307.55905Q665.1219 308.0278 664.10626 308.0278Q662.48126 308.0278 661.7 306.9653Q661.075 306.12155 661.075 304.82468Q661.075 303.2778 661.8875 302.4028Q662.7 301.5278 663.9344 301.5278Q665.325 301.5278 666.1219 302.44968Q666.9344 303.35593 666.8875 305.24655L662.7625 305.24655Q662.79376 305.98093 663.16876 306.38718Q663.54376 306.79343 664.1219 306.79343Q664.4969 306.79343 664.7625 306.5903Q665.02814 306.37155 665.16876 305.9028ZM665.2625 304.24655Q665.2469 303.5278 664.8875 303.1528Q664.54376 302.7778 664.02814 302.7778Q663.4969 302.7778 663.1375 303.16843Q662.79376 303.57468 662.79376 304.24655L665.2625 304.24655ZM667.98126 306.10593L669.6375 305.85593Q669.7469 306.3403 670.0594 306.5903Q670.3875 306.8403 670.96564 306.8403Q671.60626 306.8403 671.91876 306.60593Q672.1375 306.43405 672.1375 306.16843Q672.1375 305.98093 672.02814 305.85593Q671.90314 305.73093 671.48126 305.63718Q669.48126 305.19968 668.95 304.8403Q668.21564 304.32468 668.21564 303.43405Q668.21564 302.62155 668.84064 302.07468Q669.48126 301.5278 670.825 301.5278Q672.10626 301.5278 672.73126 301.94968Q673.35626 302.35593 673.59064 303.16843L672.02814 303.44968Q671.9344 303.0903 671.65314 302.9028Q671.3719 302.69968 670.85626 302.69968Q670.21564 302.69968 669.9344 302.88718Q669.7469 303.01218 669.7469 303.2153Q669.7469 303.4028 669.90314 303.5278Q670.1219 303.68405 671.4344 303.98093Q672.7625 304.2778 673.27814 304.7153Q673.79376 305.1528 673.79376 305.93405Q673.79376 306.79343 673.075 307.41843Q672.3719 308.0278 670.96564 308.0278Q669.7 308.0278 668.95 307.51218Q668.21564 306.99655 667.98126 306.10593ZM678.41876 301.66843L678.41876 302.98093L677.29376 302.98093L677.29376 305.48093Q677.29376 306.24655 677.325 306.37155Q677.35626 306.49655 677.46564 306.5903Q677.59064 306.66843 677.7469 306.66843Q677.98126 306.66843 678.40314 306.49655L678.54376 307.7778Q677.98126 308.0278 677.2469 308.0278Q676.8094 308.0278 676.45 307.88718Q676.09064 307.73093 675.91876 307.49655Q675.7625 307.24655 675.6844 306.85593Q675.6375 306.55905 675.6375 305.68405L675.6375 302.98093L674.8875 302.98093L674.8875 301.66843L675.6375 301.66843L675.6375 300.43405L677.29376 299.4653L677.29376 301.66843L678.41876 301.66843ZM679.1844 304.68405Q679.1844 303.87155 679.59064 303.10593Q679.9969 302.32468 680.73126 301.93405Q681.46564 301.5278 682.3875 301.5278Q683.79376 301.5278 684.7 302.44968Q685.60626 303.35593 685.60626 304.76218Q685.60626 306.16843 684.6844 307.10593Q683.77814 308.0278 682.40314 308.0278Q681.54376 308.0278 680.7625 307.63718Q679.9969 307.24655 679.59064 306.51218Q679.1844 305.76218 679.1844 304.68405ZM680.8719 304.7778Q680.8719 305.69968 681.3094 306.19968Q681.7469 306.68405 682.3875 306.68405Q683.04376 306.68405 683.46564 306.19968Q683.90314 305.69968 683.90314 304.76218Q683.90314 303.85593 683.46564 303.37155Q683.04376 302.87155 682.3875 302.87155Q681.7469 302.87155 681.3094 303.37155Q680.8719 303.85593 680.8719 304.7778ZM688.1375 307.88718L686.4969 307.88718L686.4969 301.66843L688.02814 301.66843L688.02814 302.54343Q688.41876 301.91843 688.73126 301.73093Q689.04376 301.5278 689.4344 301.5278Q689.9969 301.5278 690.52814 301.8403L690.0125 303.26218Q689.59064 302.99655 689.2469 302.99655Q688.8875 302.99655 688.65314 303.19968Q688.41876 303.38718 688.27814 303.88718Q688.1375 304.37155 688.1375 305.9653L688.1375 307.88718ZM690.98126 306.10593L692.6375 305.85593Q692.7469 306.3403 693.0594 306.5903Q693.3875 306.8403 693.96564 306.8403Q694.60626 306.8403 694.91876 306.60593Q695.1375 306.43405 695.1375 306.16843Q695.1375 305.98093 695.02814 305.85593Q694.90314 305.73093 694.48126 305.63718Q692.48126 305.19968 691.95 304.8403Q691.21564 304.32468 691.21564 303.43405Q691.21564 302.62155 691.84064 302.07468Q692.48126 301.5278 693.825 301.5278Q695.10626 301.5278 695.73126 301.94968Q696.35626 302.35593 696.59064 303.16843L695.02814 303.44968Q694.9344 303.0903 694.65314 302.9028Q694.3719 302.69968 693.85626 302.69968Q693.21564 302.69968 692.9344 302.88718Q692.7469 303.01218 692.7469 303.2153Q692.7469 303.4028 692.90314 303.5278Q693.1219 303.68405 694.4344 303.98093Q695.7625 304.2778 696.27814 304.7153Q696.79376 305.1528 696.79376 305.93405Q696.79376 306.79343 696.075 307.41843Q695.3719 308.0278 693.96564 308.0278Q692.7 308.0278 691.95 307.51218Q691.21564 306.99655 690.98126 306.10593Z" fill-rule="nonzero"/><path fill="#9e9e9e" d="M675.4344 324.88718L675.4344 323.1528L671.91876 323.1528L671.91876 321.7153L675.65314 316.26218L677.02814 316.26218L677.02814 321.7153L678.10626 321.7153L678.10626 323.1528L677.02814 323.1528L677.02814 324.88718L675.4344 324.88718ZM675.4344 321.7153L675.4344 318.7778L673.46564 321.7153L675.4344 321.7153ZM679.5594 324.88718L679.5594 323.24655L681.21564 323.24655L681.21564 324.88718L679.5594 324.88718ZM682.23126 322.68405L683.8719 322.51218Q683.95 323.05905 684.29376 323.38718Q684.6375 323.7153 685.09064 323.7153Q685.60626 323.7153 685.96564 323.29343Q686.325 322.87155 686.325 322.0278Q686.325 321.24655 685.96564 320.85593Q685.60626 320.44968 685.04376 320.44968Q684.325 320.44968 683.7625 321.07468L682.4344 320.88718L683.27814 316.41843L687.6375 316.41843L687.6375 317.94968L684.52814 317.94968L684.2625 319.41843Q684.825 319.13718 685.3875 319.13718Q686.48126 319.13718 687.2469 319.93405Q688.0125 320.73093 688.0125 321.99655Q688.0125 323.05905 687.40314 323.9028Q686.5594 325.0278 685.075 325.0278Q683.8875 325.0278 683.1375 324.4028Q682.3875 323.76218 682.23126 322.68405ZM689.21564 318.41843Q689.21564 317.26218 689.71564 316.7153Q690.23126 316.1528 691.10626 316.1528Q691.9969 316.1528 692.4969 316.7153Q693.0125 317.26218 693.0125 318.41843Q693.0125 319.57468 692.4969 320.13718Q691.9969 320.68405 691.1375 320.68405Q690.23126 320.68405 689.71564 320.13718Q689.21564 319.57468 689.21564 318.41843ZM690.5125 318.4028Q690.5125 319.24655 690.7 319.5278Q690.84064 319.74655 691.10626 319.74655Q691.3719 319.74655 691.5125 319.5278Q691.7 319.24655 691.7 318.4028Q691.7 317.57468 691.5125 317.29343Q691.3719 317.07468 691.10626 317.07468Q690.84064 317.07468 690.7 317.2778Q690.5125 317.57468 690.5125 318.4028ZM692.35626 325.2153L691.1375 325.2153L695.71564 316.1528L696.90314 316.1528L692.35626 325.2153ZM695.0125 322.9653Q695.0125 321.80905 695.5125 321.24655Q696.02814 320.68405 696.90314 320.68405Q697.79376 320.68405 698.29376 321.24655Q698.8094 321.80905 698.8094 322.9653Q698.8094 324.12155 698.29376 324.68405Q697.79376 325.23093 696.9344 325.23093Q696.02814 325.23093 695.5125 324.68405Q695.0125 324.12155 695.0125 322.9653ZM696.29376 322.94968Q696.29376 323.79343 696.4969 324.07468Q696.6375 324.29343 696.90314 324.29343Q697.16876 324.29343 697.3094 324.07468Q697.4969 323.79343 697.4969 322.94968Q697.4969 322.12155 697.3094 321.82468Q697.16876 321.62155 696.90314 321.62155Q696.6375 321.62155 696.4969 321.82468Q696.29376 322.12155 696.29376 322.94968Z" fill-rule="nonzero"/><path stroke="#757575" stroke-width="1.0" stroke-linecap="butt" d="M697.7 312.38718L566.7 312.38718L528.4134 312.38718" fill-rule="nonzero"/><path fill="#9e9e9e" d="M530.4134 312.38718C530.4134 311.28262 529.51794 310.38718 528.4134 310.38718C527.30884 310.38718 526.4134 311.28262 526.4134 312.38718C526.4134 313.49176 527.30884 314.38718 528.4134 314.38718C529.51794 314.38718 530.4134 313.49176 530.4134 312.38718" fill-rule="nonzero"/><path fill="#232832" d="M602.575 379.79L605.73126 379.79Q606.8094 379.79 607.3719 379.96188Q608.1219 380.18063 608.65314 380.75876Q609.2 381.32126 609.48126 382.14938Q609.7625 382.96188 609.7625 384.165Q609.7625 385.2275 609.5125 385.99313Q609.1844 386.93063 608.59064 387.50876Q608.1375 387.96188 607.3719 388.19626Q606.79376 388.38376 605.825 388.38376L602.575 388.38376L602.575 379.79ZM604.3094 381.24313L604.3094 386.93063L605.59064 386.93063Q606.325 386.93063 606.65314 386.8525Q607.075 386.74313 607.34064 386.49313Q607.6219 386.24313 607.79376 385.665Q607.98126 385.08688 607.98126 384.08688Q607.98126 383.1025 607.79376 382.57126Q607.6219 382.02438 607.3094 381.7275Q606.9969 381.43063 606.5125 381.32126Q606.1375 381.24313 605.075 381.24313L604.3094 381.24313ZM618.325 388.38376L616.4344 388.38376L615.6844 386.43063L612.2469 386.43063L611.54376 388.38376L609.7 388.38376L613.04376 379.79L614.8875 379.79L618.325 388.38376ZM615.1219 384.9775L613.95 381.79L612.77814 384.9775L615.1219 384.9775ZM618.21564 384.13376Q618.21564 382.82126 618.6219 381.93063Q618.90314 381.27438 619.40314 380.75876Q619.91876 380.24313 620.52814 379.99313Q621.325 379.64938 622.3719 379.64938Q624.27814 379.64938 625.41876 380.83688Q626.5594 382.00876 626.5594 384.1025Q626.5594 386.18063 625.41876 387.3525Q624.29376 388.52438 622.40314 388.52438Q620.48126 388.52438 619.34064 387.36813Q618.21564 386.19626 618.21564 384.13376ZM620.0125 384.08688Q620.0125 385.54 620.6844 386.29Q621.35626 387.04 622.3875 387.04Q623.4344 387.04 624.09064 386.30563Q624.7625 385.55563 624.7625 384.05563Q624.7625 382.58688 624.10626 381.86813Q623.46564 381.13376 622.3875 381.13376Q621.325 381.13376 620.66876 381.86813Q620.0125 382.6025 620.0125 384.08688ZM630.3719 386.08688L630.3719 384.44626L633.60626 384.44626L633.60626 386.08688L630.3719 386.08688ZM641.575 385.2275L641.575 383.77438L645.3094 383.77438L645.3094 387.19626Q644.7625 387.7275 643.73126 388.13376Q642.7 388.52438 641.6375 388.52438Q640.29376 388.52438 639.27814 387.96188Q638.27814 387.39938 637.77814 386.3525Q637.27814 385.29 637.27814 384.05563Q637.27814 382.71188 637.84064 381.68063Q638.40314 380.63376 639.48126 380.07126Q640.3094 379.64938 641.54376 379.64938Q643.1375 379.64938 644.02814 380.32126Q644.9344 380.99313 645.2 382.165L643.48126 382.49313Q643.29376 381.86813 642.79376 381.50876Q642.29376 381.13376 641.54376 381.13376Q640.40314 381.13376 639.73126 381.8525Q639.0594 382.57126 639.0594 383.99313Q639.0594 385.52438 639.73126 386.29Q640.41876 387.04 641.52814 387.04Q642.075 387.04 642.6219 386.83688Q643.16876 386.61813 643.5594 386.32126L643.5594 385.2275L641.575 385.2275ZM644.77814 382.165L646.52814 382.165L648.02814 386.57126L649.48126 382.165L651.1844 382.165L648.98126 388.14938L648.59064 389.2275Q648.3719 389.77438 648.16876 390.05563Q647.98126 390.3525 647.71564 390.52438Q647.46564 390.71188 647.09064 390.80563Q646.73126 390.915 646.2625 390.915Q645.77814 390.915 645.325 390.80563L645.1844 389.52438Q645.575 389.6025 645.8719 389.6025Q646.45 389.6025 646.71564 389.25876Q646.9969 388.93063 647.15314 388.39938L644.77814 382.165ZM653.1375 388.38376L651.4969 388.38376L651.4969 382.165L653.02814 382.165L653.02814 383.04Q653.41876 382.415 653.73126 382.2275Q654.04376 382.02438 654.4344 382.02438Q654.9969 382.02438 655.52814 382.33688L655.0125 383.75876Q654.59064 383.49313 654.2469 383.49313Q653.8875 383.49313 653.65314 383.69626Q653.41876 383.88376 653.27814 384.38376Q653.1375 384.86813 653.1375 386.46188L653.1375 388.38376ZM656.1844 385.18063Q656.1844 384.36813 656.59064 383.6025Q656.9969 382.82126 657.73126 382.43063Q658.46564 382.02438 659.3875 382.02438Q660.79376 382.02438 661.7 382.94626Q662.60626 383.8525 662.60626 385.25876Q662.60626 386.665 661.6844 387.6025Q660.77814 388.52438 659.40314 388.52438Q658.54376 388.52438 657.7625 388.13376Q656.9969 387.74313 656.59064 387.00876Q656.1844 386.25876 656.1844 385.18063ZM657.8719 385.27438Q657.8719 386.19626 658.3094 386.69626Q658.7469 387.18063 659.3875 387.18063Q660.04376 387.18063 660.46564 386.69626Q660.90314 386.19626 660.90314 385.25876Q660.90314 384.3525 660.46564 383.86813Q660.04376 383.36813 659.3875 383.36813Q658.7469 383.36813 658.3094 383.86813Q657.8719 384.3525 657.8719 385.27438ZM662.98126 386.6025L664.6375 386.3525Q664.7469 386.83688 665.0594 387.08688Q665.3875 387.33688 665.96564 387.33688Q666.60626 387.33688 666.91876 387.1025Q667.1375 386.93063 667.1375 386.665Q667.1375 386.4775 667.02814 386.3525Q666.90314 386.2275 666.48126 386.13376Q664.48126 385.69626 663.95 385.33688Q663.21564 384.82126 663.21564 383.93063Q663.21564 383.11813 663.84064 382.57126Q664.48126 382.02438 665.825 382.02438Q667.10626 382.02438 667.73126 382.44626Q668.35626 382.8525 668.59064 383.665L667.02814 383.94626Q666.9344 383.58688 666.65314 383.39938Q666.3719 383.19626 665.85626 383.19626Q665.21564 383.19626 664.9344 383.38376Q664.7469 383.50876 664.7469 383.71188Q664.7469 383.89938 664.90314 384.02438Q665.1219 384.18063 666.4344 384.4775Q667.7625 384.77438 668.27814 385.21188Q668.79376 385.64938 668.79376 386.43063Q668.79376 387.29 668.075 387.915Q667.3719 388.52438 665.96564 388.52438Q664.7 388.52438 663.95 388.00876Q663.21564 387.49313 662.98126 386.6025ZM675.98126 383.99313L674.3719 384.29Q674.27814 383.80563 673.98126 383.57126Q673.7 383.32126 673.2469 383.32126Q672.6219 383.32126 672.2469 383.74313Q671.8875 384.165 671.8875 385.165Q671.8875 386.27438 672.2625 386.7275Q672.6375 387.18063 673.2625 387.18063Q673.73126 387.18063 674.02814 386.915Q674.325 386.64938 674.45 385.99313L676.075 386.27438Q675.825 387.38376 675.10626 387.96188Q674.3875 388.52438 673.1844 388.52438Q671.825 388.52438 671.0125 387.665Q670.2 386.80563 670.2 385.27438Q670.2 383.74313 671.0125 382.88376Q671.825 382.02438 673.21564 382.02438Q674.35626 382.02438 675.02814 382.50876Q675.7 382.99313 675.98126 383.99313ZM677.1844 385.18063Q677.1844 384.36813 677.59064 383.6025Q677.9969 382.82126 678.73126 382.43063Q679.46564 382.02438 680.3875 382.02438Q681.79376 382.02438 682.7 382.94626Q683.60626 383.8525 683.60626 385.25876Q683.60626 386.665 682.6844 387.6025Q681.77814 388.52438 680.40314 388.52438Q679.54376 388.52438 678.7625 388.13376Q677.9969 387.74313 677.59064 387.00876Q677.1844 386.25876 677.1844 385.18063ZM678.8719 385.27438Q678.8719 386.19626 679.3094 386.69626Q679.7469 387.18063 680.3875 387.18063Q681.04376 387.18063 681.46564 386.69626Q681.90314 386.19626 681.90314 385.25876Q681.90314 384.3525 681.46564 383.86813Q681.04376 383.36813 680.3875 383.36813Q679.7469 383.36813 679.3094 383.86813Q678.8719 384.3525 678.8719 385.27438ZM684.5125 382.165L686.04376 382.165L686.04376 383.07126Q686.35626 382.6025 686.85626 382.32126Q687.3719 382.02438 687.9969 382.02438Q689.075 382.02438 689.825 382.86813Q690.59064 383.71188 690.59064 385.24313Q690.59064 386.79 689.825 387.665Q689.0594 388.52438 687.98126 388.52438Q687.46564 388.52438 687.04376 388.32126Q686.6219 388.11813 686.16876 387.61813L686.16876 390.75876L684.5125 390.75876L684.5125 382.165ZM686.1375 385.165Q686.1375 386.21188 686.5594 386.71188Q686.98126 387.21188 687.575 387.21188Q688.15314 387.21188 688.52814 386.75876Q688.90314 386.29 688.90314 385.24313Q688.90314 384.27438 688.5125 383.80563Q688.1219 383.32126 687.54376 383.32126Q686.9344 383.32126 686.52814 383.79Q686.1375 384.25876 686.1375 385.165ZM695.16876 386.39938L696.8094 386.68063Q696.4969 387.58688 695.8094 388.05563Q695.1219 388.52438 694.10626 388.52438Q692.48126 388.52438 691.7 387.46188Q691.075 386.61813 691.075 385.32126Q691.075 383.77438 691.8875 382.89938Q692.7 382.02438 693.9344 382.02438Q695.325 382.02438 696.1219 382.94626Q696.9344 383.8525 696.8875 385.74313L692.7625 385.74313Q692.79376 386.4775 693.16876 386.88376Q693.54376 387.29 694.1219 387.29Q694.4969 387.29 694.7625 387.08688Q695.02814 386.86813 695.16876 386.39938ZM695.2625 384.74313Q695.2469 384.02438 694.8875 383.64938Q694.54376 383.27438 694.02814 383.27438Q693.4969 383.27438 693.1375 383.665Q692.79376 384.07126 692.79376 384.74313L695.2625 384.74313Z" fill-rule="nonzero"/><path fill="#9e9e9e" d="M669.41876 405.38376L667.77814 405.38376L667.77814 399.18063Q666.8719 400.02438 665.65314 400.43063L665.65314 398.93063Q666.29376 398.7275 667.04376 398.13376Q667.8094 397.54 668.09064 396.75876L669.41876 396.75876L669.41876 405.38376ZM672.23126 403.18063L673.8719 403.00876Q673.95 403.55563 674.29376 403.88376Q674.6375 404.21188 675.09064 404.21188Q675.60626 404.21188 675.96564 403.79Q676.325 403.36813 676.325 402.52438Q676.325 401.74313 675.96564 401.3525Q675.60626 400.94626 675.04376 400.94626Q674.325 400.94626 673.7625 401.57126L672.4344 401.38376L673.27814 396.915L677.6375 396.915L677.6375 398.44626L674.52814 398.44626L674.2625 399.915Q674.825 399.63376 675.3875 399.63376Q676.48126 399.63376 677.2469 400.43063Q678.0125 401.2275 678.0125 402.49313Q678.0125 403.55563 677.40314 404.39938Q676.5594 405.52438 675.075 405.52438Q673.8875 405.52438 673.1375 404.89938Q672.3875 404.25876 672.23126 403.18063ZM679.5594 405.38376L679.5594 403.74313L681.21564 403.74313L681.21564 405.38376L679.5594 405.38376ZM684.9969 396.75876Q686.2469 396.75876 686.95 397.64938Q687.77814 398.69626 687.77814 401.14938Q687.77814 403.58688 686.9344 404.64938Q686.2469 405.52438 684.9969 405.52438Q683.7469 405.52438 682.96564 404.57126Q682.2 403.6025 682.2 401.13376Q682.2 398.69626 683.04376 397.63376Q683.7469 396.75876 684.9969 396.75876ZM684.9969 398.11813Q684.7 398.11813 684.46564 398.32126Q684.23126 398.50876 684.09064 398.99313Q683.9344 399.63376 683.9344 401.14938Q683.9344 402.665 684.075 403.2275Q684.23126 403.79 684.46564 403.9775Q684.7 404.165 684.9969 404.165Q685.29376 404.165 685.52814 403.9775Q685.7625 403.79 685.8875 403.29Q686.0594 402.665 686.0594 401.14938Q686.0594 399.63376 685.90314 399.07126Q685.7625 398.50876 685.52814 398.32126Q685.29376 398.11813 684.9969 398.11813ZM689.21564 398.915Q689.21564 397.75876 689.71564 397.21188Q690.23126 396.64938 691.10626 396.64938Q691.9969 396.64938 692.4969 397.21188Q693.0125 397.75876 693.0125 398.915Q693.0125 400.07126 692.4969 400.63376Q691.9969 401.18063 691.1375 401.18063Q690.23126 401.18063 689.71564 400.63376Q689.21564 400.07126 689.21564 398.915ZM690.5125 398.89938Q690.5125 399.74313 690.7 400.02438Q690.84064 400.24313 691.10626 400.24313Q691.3719 400.24313 691.5125 400.02438Q691.7 399.74313 691.7 398.89938Q691.7 398.07126 691.5125 397.79Q691.3719 397.57126 691.10626 397.57126Q690.84064 397.57126 690.7 397.77438Q690.5125 398.07126 690.5125 398.89938ZM692.35626 405.71188L691.1375 405.71188L695.71564 396.64938L696.90314 396.64938L692.35626 405.71188ZM695.0125 403.46188Q695.0125 402.30563 695.5125 401.74313Q696.02814 401.18063 696.90314 401.18063Q697.79376 401.18063 698.29376 401.74313Q698.8094 402.30563 698.8094 403.46188Q698.8094 404.61813 698.29376 405.18063Q697.79376 405.7275 696.9344 405.7275Q696.02814 405.7275 695.5125 405.18063Q695.0125 404.61813 695.0125 403.46188ZM696.29376 403.44626Q696.29376 404.29 696.4969 404.57126Q696.6375 404.79 696.90314 404.79Q697.16876 404.79 697.3094 404.57126Q697.4969 404.29 697.4969 403.44626Q697.4969 402.61813 697.3094 402.32126Q697.16876 402.11813 696.90314 402.11813Q696.6375 402.11813 696.4969 402.32126Q696.29376 402.61813 696.29376 403.44626Z" fill-rule="nonzero"/><path stroke="#757575" stroke-width="1.0" stroke-linecap="butt" d="M697.7 392.88376L566.7 392.88376L446.5601 392.88376" fill-rule="nonzero"/><path fill="#9e9e9e" d="M448.5601 392.88376C448.5601 391.77917 447.66467 390.88376 446.5601 390.88376C445.45554 390.88376 444.5601 391.77917 444.5601 392.88376C444.5601 393.98834 445.45554 394.88376 446.5601 394.88376C447.66467 394.88376 448.5601 393.98834 448.5601 392.88376" fill-rule="nonzero"/></svg>