<svg version="1.1" viewBox="0.0 0.0 805.0 569.0" fill="none" stroke="none" stroke-linecap="square" stroke-miterlimit="10" width="805" height="569" xmlns:xlink="http://www.w3.org/1999/xlink" xmlns="http://www.w3.org/2000/svg"><path fill="#ffffff" fill-opacity="0.0" d="M0 0L805.0 0L805.0 569.0L0 569.0L0 0Z" fill-rule="nonzero"/><path fill="#47a8bd" d="M402.5 28.45C474.40543 28.45 541.7971 63.50021 583.084 122.371155C624.3708 181.2421 634.3694 256.54276 609.8763 324.14807L402.5 249.01666Z" fill-rule="nonzero"/><path fill="#f5e663" d="M609.8763 324.14807C602.8341 343.58575 593.09406 361.93683 580.9422 378.6625L402.5 249.01666Z" fill-rule="nonzero"/><path fill="#ffad69" d="M580.9422 378.6625C539.4419 435.78275 473.1045 469.58334 402.5 469.58334L402.5 249.01666Z" fill-rule="nonzero"/><path fill="#9c3848" d="M402.5 469.58334C280.6844 469.58334 181.93333 370.83228 181.93333 249.01666C181.93333 127.20106 280.6844 28.45 402.5 28.45L402.5 249.01666Z" fill-rule="nonzero"/><path fill="#000000" d="M507.2892 158.77063L509.4142 158.52063Q509.50797 159.33313 509.94547 159.77063Q510.3986 160.1925 511.0392 160.1925Q511.7111 160.1925 512.1798 159.67688Q512.64856 159.16125 512.64856 158.28625Q512.64856 157.45813 512.19543 156.97375Q511.75797 156.48938 511.11734 156.48938Q510.69547 156.48938 510.1017 156.64563L510.3517 154.86438Q511.24234 154.88 511.7111 154.47375Q512.1798 154.0675 512.1798 153.38Q512.1798 152.80188 511.8361 152.45813Q511.49234 152.11438 510.9142 152.11438Q510.3517 152.11438 509.94547 152.505Q509.55484 152.89563 509.4767 153.64563L507.44547 153.30188Q507.6642 152.27063 508.0861 151.64563Q508.50797 151.02063 509.2736 150.67688Q510.0392 150.3175 510.9767 150.3175Q512.6017 150.3175 513.57043 151.34875Q514.38293 152.1925 514.38293 153.255Q514.38293 154.755 512.7267 155.66125Q513.71106 155.86438 514.3048 156.59875Q514.89856 157.33313 514.89856 158.38Q514.89856 159.88 513.7892 160.95813Q512.69543 162.02063 511.05484 162.02063Q509.49234 162.02063 508.4611 161.13Q507.44547 160.22375 507.2892 158.77063ZM520.07043 150.3175Q521.7423 150.3175 522.6798 151.505Q523.7892 152.91125 523.7892 156.16125Q523.7892 159.41125 522.6642 160.83313Q521.7423 162.02063 520.07043 162.02063Q518.39856 162.02063 517.3673 160.73938Q516.3517 159.4425 516.3517 156.14563Q516.3517 152.91125 517.4767 151.48938Q518.4142 150.3175 520.07043 150.3175ZM520.07043 152.13Q519.6798 152.13 519.3673 152.39563Q519.0548 152.64563 518.88293 153.30188Q518.64856 154.14563 518.64856 156.16125Q518.64856 158.17688 518.8517 158.9425Q519.0548 159.6925 519.3673 159.9425Q519.6798 160.1925 520.07043 160.1925Q520.4767 160.1925 520.7892 159.9425Q521.1017 159.67688 521.27356 159.02063Q521.4923 158.17688 521.4923 156.16125Q521.4923 154.14563 521.2892 153.39563Q521.08606 152.64563 520.77356 152.39563Q520.4767 152.13 520.07043 152.13ZM525.83606 161.8175L525.83606 159.61438L528.02356 159.61438L528.02356 161.8175L525.83606 161.8175ZM529.39856 158.86438L531.58606 158.64563Q531.6798 159.38 532.13293 159.8175Q532.6017 160.255 533.19543 160.255Q533.88293 160.255 534.3517 159.6925Q534.83606 159.13 534.83606 158.005Q534.83606 156.95813 534.3673 156.42688Q533.89856 155.89563 533.13293 155.89563Q532.19543 155.89563 531.44543 156.73938L529.6642 156.47375L530.7892 150.52063L536.58606 150.52063L536.58606 152.5675L532.44543 152.5675L532.1017 154.52063Q532.83606 154.14563 533.6017 154.14563Q535.07043 154.14563 536.08606 155.20813Q537.1017 156.27063 537.1017 157.97375Q537.1017 159.38 536.27356 160.48938Q535.1642 162.02063 533.1798 162.02063Q531.58606 162.02063 530.58606 161.16125Q529.58606 160.30188 529.39856 158.86438ZM538.2892 158.77063L540.4142 158.52063Q540.50793 159.33313 540.94543 159.77063Q541.39856 160.1925 542.0392 160.1925Q542.71106 160.1925 543.1798 159.67688Q543.64856 159.16125 543.64856 158.28625Q543.64856 157.45813 543.19543 156.97375Q542.75793 156.48938 542.1173 156.48938Q541.69543 156.48938 541.1017 156.64563L541.3517 154.86438Q542.2423 154.88 542.71106 154.47375Q543.1798 154.0675 543.1798 153.38Q543.1798 152.80188 542.83606 152.45813Q542.4923 152.11438 541.9142 152.11438Q541.3517 152.11438 540.94543 152.505Q540.5548 152.89563 540.4767 153.64563L538.44543 153.30188Q538.6642 152.27063 539.08606 151.64563Q539.50793 151.02063 540.27356 150.67688Q541.0392 150.3175 541.9767 150.3175Q543.6017 150.3175 544.57043 151.34875Q545.38293 152.1925 545.38293 153.255Q545.38293 154.755 543.7267 155.66125Q544.71106 155.86438 545.3048 156.59875Q545.89856 157.33313 545.89856 158.38Q545.89856 159.88 544.7892 160.95813Q543.69543 162.02063 542.0548 162.02063Q540.4923 162.02063 539.46106 161.13Q538.44543 160.22375 538.2892 158.77063ZM547.38293 153.1925Q547.38293 151.64563 548.0548 150.91125Q548.7267 150.16125 549.88293 150.16125Q551.08606 150.16125 551.75793 150.91125Q552.4298 151.64563 552.4298 153.1925Q552.4298 154.72375 551.75793 155.47375Q551.08606 156.20813 549.9298 156.20813Q548.7267 156.20813 548.0548 155.47375Q547.38293 154.73938 547.38293 153.1925ZM549.08606 153.17688Q549.08606 154.28625 549.3517 154.67688Q549.5392 154.95813 549.88293 154.95813Q550.2423 154.95813 550.4298 154.67688Q550.6798 154.28625 550.6798 153.17688Q550.6798 152.05188 550.4298 151.67688Q550.2423 151.39563 549.88293 151.39563Q549.5392 151.39563 549.3517 151.67688Q549.08606 152.05188 549.08606 153.17688ZM551.5548 162.255L549.9298 162.255L556.0392 150.16125L557.6173 150.16125L551.5548 162.255ZM555.1017 159.23938Q555.1017 157.70813 555.77356 156.97375Q556.46106 156.22375 557.63293 156.22375Q558.8048 156.22375 559.4767 156.97375Q560.1642 157.70813 560.1642 159.23938Q560.1642 160.78625 559.4767 161.53625Q558.8048 162.28625 557.64856 162.28625Q556.46106 162.28625 555.77356 161.53625Q555.1017 160.78625 555.1017 159.23938ZM556.82043 159.23938Q556.82043 160.34875 557.07043 160.72375Q557.27356 161.02063 557.6173 161.02063Q557.96106 161.02063 558.14856 160.73938Q558.4142 160.34875 558.4142 159.23938Q558.4142 158.11438 558.1642 157.73938Q557.96106 157.45813 557.6173 157.45813Q557.25793 157.45813 557.07043 157.73938Q556.82043 158.11438 556.82043 159.23938Z" fill-rule="nonzero"/><path fill="#000000" d="M530.1132 332.07608L530.1132 329.76358L525.4257 329.76358L525.4257 327.8417L530.3945 320.57608L532.2382 320.57608L532.2382 327.8417L533.6601 327.8417L533.6601 329.76358L532.2382 329.76358L532.2382 332.07608L530.1132 332.07608ZM530.1132 327.8417L530.1132 323.91983L527.4882 327.8417L530.1132 327.8417ZM535.2851 332.07608L535.2851 329.87296L537.4726 329.87296L537.4726 332.07608L535.2851 332.07608ZM543.1132 332.07608L543.1132 329.76358L538.4257 329.76358L538.4257 327.8417L543.3945 320.57608L545.2382 320.57608L545.2382 327.8417L546.6601 327.8417L546.6601 329.76358L545.2382 329.76358L545.2382 332.07608L543.1132 332.07608ZM543.1132 327.8417L543.1132 323.91983L540.4882 327.8417L543.1132 327.8417ZM547.81635 322.81046L547.81635 320.7792L555.31635 320.7792L555.31635 322.37296Q554.3945 323.2792 553.4257 324.99796Q552.4726 326.70108 551.957 328.63858Q551.457 330.56046 551.4726 332.07608L549.3476 332.07608Q549.4101 329.70108 550.332 327.23233Q551.25385 324.76358 552.8007 322.81046L547.81635 322.81046ZM556.832 323.45108Q556.832 321.9042 557.50385 321.16983Q558.1757 320.41983 559.332 320.41983Q560.5351 320.41983 561.207 321.16983Q561.87885 321.9042 561.87885 323.45108Q561.87885 324.98233 561.207 325.73233Q560.5351 326.4667 559.37885 326.4667Q558.1757 326.4667 557.50385 325.73233Q556.832 324.99796 556.832 323.45108ZM558.5351 323.43546Q558.5351 324.54483 558.8007 324.93546Q558.9882 325.2167 559.332 325.2167Q559.69135 325.2167 559.87885 324.93546Q560.12885 324.54483 560.12885 323.43546Q560.12885 322.31046 559.87885 321.93546Q559.69135 321.6542 559.332 321.6542Q558.9882 321.6542 558.8007 321.93546Q558.5351 322.31046 558.5351 323.43546ZM561.00385 332.51358L559.37885 332.51358L565.4882 320.41983L567.06635 320.41983L561.00385 332.51358ZM564.5507 329.49796Q564.5507 327.9667 565.2226 327.23233Q565.9101 326.48233 567.082 326.48233Q568.25385 326.48233 568.9257 327.23233Q569.6132 327.9667 569.6132 329.49796Q569.6132 331.04483 568.9257 331.79483Q568.25385 332.54483 567.0976 332.54483Q565.9101 332.54483 565.2226 331.79483Q564.5507 331.04483 564.5507 329.49796ZM566.2695 329.49796Q566.2695 330.60733 566.5195 330.98233Q566.7226 331.2792 567.06635 331.2792Q567.4101 331.2792 567.5976 330.99796Q567.8632 330.60733 567.8632 329.49796Q567.8632 328.37296 567.6132 327.99796Q567.4101 327.7167 567.06635 327.7167Q566.707 327.7167 566.5195 327.99796Q566.2695 328.37296 566.2695 329.49796Z" fill-rule="nonzero"/><path fill="#000000" d="M456.9023 403.88202L454.7148 403.88202L454.7148 395.60077Q453.5117 396.72577 451.87106 397.27264L451.87106 395.27264Q452.73044 394.9914 453.73044 394.21014Q454.74606 393.4289 455.12106 392.38202L456.9023 392.38202L456.9023 403.88202ZM460.3242 400.9289L462.5117 400.71014Q462.60544 401.44452 463.05856 401.88202Q463.5273 402.31952 464.12106 402.31952Q464.80856 402.31952 465.2773 401.75702Q465.7617 401.19452 465.7617 400.06952Q465.7617 399.02264 465.29294 398.4914Q464.8242 397.96014 464.05856 397.96014Q463.12106 397.96014 462.37106 398.8039L460.5898 398.53827L461.7148 392.58514L467.5117 392.58514L467.5117 394.63202L463.37106 394.63202L463.0273 396.58514Q463.7617 396.21014 464.5273 396.21014Q465.99606 396.21014 467.0117 397.27264Q468.0273 398.33514 468.0273 400.03827Q468.0273 401.44452 467.1992 402.5539Q466.0898 404.08514 464.10544 404.08514Q462.5117 404.08514 461.5117 403.22577Q460.5117 402.3664 460.3242 400.9289ZM469.7617 403.88202L469.7617 401.6789L471.9492 401.6789L471.9492 403.88202L469.7617 403.88202ZM476.99606 392.38202Q478.66794 392.38202 479.60544 393.56952Q480.7148 394.97577 480.7148 398.22577Q480.7148 401.47577 479.5898 402.89764Q478.66794 404.08514 476.99606 404.08514Q475.3242 404.08514 474.29294 402.8039Q473.2773 401.50702 473.2773 398.21014Q473.2773 394.97577 474.4023 393.5539Q475.3398 392.38202 476.99606 392.38202ZM476.99606 394.19452Q476.60544 394.19452 476.29294 394.46014Q475.98044 394.71014 475.80856 395.3664Q475.5742 396.21014 475.5742 398.22577Q475.5742 400.2414 475.7773 401.00702Q475.98044 401.75702 476.29294 402.00702Q476.60544 402.25702 476.99606 402.25702Q477.4023 402.25702 477.7148 402.00702Q478.0273 401.7414 478.1992 401.08514Q478.41794 400.2414 478.41794 398.22577Q478.41794 396.21014 478.2148 395.46014Q478.0117 394.71014 477.6992 394.46014Q477.4023 394.19452 476.99606 394.19452ZM485.99606 392.38202Q487.66794 392.38202 488.60544 393.56952Q489.7148 394.97577 489.7148 398.22577Q489.7148 401.47577 488.5898 402.89764Q487.66794 404.08514 485.99606 404.08514Q484.3242 404.08514 483.29294 402.8039Q482.2773 401.50702 482.2773 398.21014Q482.2773 394.97577 483.4023 393.5539Q484.3398 392.38202 485.99606 392.38202ZM485.99606 394.19452Q485.60544 394.19452 485.29294 394.46014Q484.98044 394.71014 484.80856 395.3664Q484.5742 396.21014 484.5742 398.22577Q484.5742 400.2414 484.7773 401.00702Q484.98044 401.75702 485.29294 402.00702Q485.60544 402.25702 485.99606 402.25702Q486.4023 402.25702 486.7148 402.00702Q487.0273 401.7414 487.1992 401.08514Q487.41794 400.2414 487.41794 398.22577Q487.41794 396.21014 487.2148 395.46014Q487.0117 394.71014 486.6992 394.46014Q486.4023 394.19452 485.99606 394.19452ZM491.30856 395.25702Q491.30856 393.71014 491.98044 392.97577Q492.6523 392.22577 493.80856 392.22577Q495.0117 392.22577 495.68356 392.97577Q496.35544 393.71014 496.35544 395.25702Q496.35544 396.78827 495.68356 397.53827Q495.0117 398.27264 493.85544 398.27264Q492.6523 398.27264 491.98044 397.53827Q491.30856 396.8039 491.30856 395.25702ZM493.0117 395.2414Q493.0117 396.35077 493.2773 396.7414Q493.4648 397.02264 493.80856 397.02264Q494.16794 397.02264 494.35544 396.7414Q494.60544 396.35077 494.60544 395.2414Q494.60544 394.1164 494.35544 393.7414Q494.16794 393.46014 493.80856 393.46014Q493.4648 393.46014 493.2773 393.7414Q493.0117 394.1164 493.0117 395.2414ZM495.48044 404.31952L493.85544 404.31952L499.9648 392.22577L501.54294 392.22577L495.48044 404.31952ZM499.0273 401.3039Q499.0273 399.77264 499.6992 399.03827Q500.3867 398.28827 501.55856 398.28827Q502.73044 398.28827 503.4023 399.03827Q504.0898 399.77264 504.0898 401.3039Q504.0898 402.85077 503.4023 403.60077Q502.73044 404.35077 501.5742 404.35077Q500.3867 404.35077 499.6992 403.60077Q499.0273 402.85077 499.0273 401.3039ZM500.74606 401.3039Q500.74606 402.41327 500.99606 402.78827Q501.1992 403.08514 501.54294 403.08514Q501.8867 403.08514 502.0742 402.8039Q502.3398 402.41327 502.3398 401.3039Q502.3398 400.1789 502.0898 399.8039Q501.8867 399.52264 501.54294 399.52264Q501.18356 399.52264 500.99606 399.8039Q500.74606 400.1789 500.74606 401.3039Z" fill-rule="nonzero"/><path fill="#000000" d="M206.97784 251.56354L209.16534 251.34479Q209.2591 252.07916 209.71222 252.51666Q210.18097 252.95416 210.77472 252.95416Q211.46222 252.95416 211.93097 252.39166Q212.41534 251.82916 212.41534 250.70416Q212.41534 249.65729 211.9466 249.12604Q211.47784 248.59479 210.71222 248.59479Q209.77472 248.59479 209.02472 249.43854L207.24347 249.17291L208.36847 243.21979L214.16534 243.21979L214.16534 245.26666L210.02472 245.26666L209.68097 247.21979Q210.41534 246.84479 211.18097 246.84479Q212.64972 246.84479 213.66534 247.90729Q214.68097 248.96979 214.68097 250.67291Q214.68097 252.07916 213.85284 253.18854Q212.74347 254.71979 210.7591 254.71979Q209.16534 254.71979 208.16534 253.86041Q207.16534 253.00104 206.97784 251.56354ZM219.64972 243.01666Q221.3216 243.01666 222.2591 244.20416Q223.36847 245.61041 223.36847 248.86041Q223.36847 252.11041 222.24347 253.53229Q221.3216 254.71979 219.64972 254.71979Q217.97784 254.71979 216.9466 253.43854Q215.93097 252.14166 215.93097 248.84479Q215.93097 245.61041 217.05597 244.18854Q217.99347 243.01666 219.64972 243.01666ZM219.64972 244.82916Q219.2591 244.82916 218.9466 245.09479Q218.6341 245.34479 218.46222 246.00104Q218.22784 246.84479 218.22784 248.86041Q218.22784 250.87604 218.43097 251.64166Q218.6341 252.39166 218.9466 252.64166Q219.2591 252.89166 219.64972 252.89166Q220.05597 252.89166 220.36847 252.64166Q220.68097 252.37604 220.85284 251.71979Q221.0716 250.87604 221.0716 248.86041Q221.0716 246.84479 220.86847 246.09479Q220.66534 245.34479 220.35284 245.09479Q220.05597 244.82916 219.64972 244.82916ZM225.41534 254.51666L225.41534 252.31354L227.60284 252.31354L227.60284 254.51666L225.41534 254.51666ZM232.64972 243.01666Q234.3216 243.01666 235.2591 244.20416Q236.36847 245.61041 236.36847 248.86041Q236.36847 252.11041 235.24347 253.53229Q234.3216 254.71979 232.64972 254.71979Q230.97784 254.71979 229.9466 253.43854Q228.93097 252.14166 228.93097 248.84479Q228.93097 245.61041 230.05597 244.18854Q230.99347 243.01666 232.64972 243.01666ZM232.64972 244.82916Q232.2591 244.82916 231.9466 245.09479Q231.6341 245.34479 231.46222 246.00104Q231.22784 246.84479 231.22784 248.86041Q231.22784 250.87604 231.43097 251.64166Q231.6341 252.39166 231.9466 252.64166Q232.2591 252.89166 232.64972 252.89166Q233.05597 252.89166 233.36847 252.64166Q233.68097 252.37604 233.85284 251.71979Q234.0716 250.87604 234.0716 248.86041Q234.0716 246.84479 233.86847 246.09479Q233.66534 245.34479 233.35284 245.09479Q233.05597 244.82916 232.64972 244.82916ZM241.64972 243.01666Q243.3216 243.01666 244.2591 244.20416Q245.36847 245.61041 245.36847 248.86041Q245.36847 252.11041 244.24347 253.53229Q243.3216 254.71979 241.64972 254.71979Q239.97784 254.71979 238.9466 253.43854Q237.93097 252.14166 237.93097 248.84479Q237.93097 245.61041 239.05597 244.18854Q239.99347 243.01666 241.64972 243.01666ZM241.64972 244.82916Q241.2591 244.82916 240.9466 245.09479Q240.6341 245.34479 240.46222 246.00104Q240.22784 246.84479 240.22784 248.86041Q240.22784 250.87604 240.43097 251.64166Q240.6341 252.39166 240.9466 252.64166Q241.2591 252.89166 241.64972 252.89166Q242.05597 252.89166 242.36847 252.64166Q242.68097 252.37604 242.85284 251.71979Q243.0716 250.87604 243.0716 248.86041Q243.0716 246.84479 242.86847 246.09479Q242.66534 245.34479 242.35284 245.09479Q242.05597 244.82916 241.64972 244.82916ZM246.96222 245.89166Q246.96222 244.34479 247.6341 243.61041Q248.30597 242.86041 249.46222 242.86041Q250.66534 242.86041 251.33722 243.61041Q252.0091 244.34479 252.0091 245.89166Q252.0091 247.42291 251.33722 248.17291Q250.66534 248.90729 249.5091 248.90729Q248.30597 248.90729 247.6341 248.17291Q246.96222 247.43854 246.96222 245.89166ZM248.66534 245.87604Q248.66534 246.98541 248.93097 247.37604Q249.11847 247.65729 249.46222 247.65729Q249.8216 247.65729 250.0091 247.37604Q250.2591 246.98541 250.2591 245.87604Q250.2591 244.75104 250.0091 244.37604Q249.8216 244.09479 249.46222 244.09479Q249.11847 244.09479 248.93097 244.37604Q248.66534 244.75104 248.66534 245.87604ZM251.1341 254.95416L249.5091 254.95416L255.61847 242.86041L257.1966 242.86041L251.1341 254.95416ZM254.68097 251.93854Q254.68097 250.40729 255.35284 249.67291Q256.04034 248.92291 257.21222 248.92291Q258.3841 248.92291 259.05597 249.67291Q259.74347 250.40729 259.74347 251.93854Q259.74347 253.48541 259.05597 254.23541Q258.3841 254.98541 257.22784 254.98541Q256.04034 254.98541 255.35284 254.23541Q254.68097 253.48541 254.68097 251.93854ZM256.39972 251.93854Q256.39972 253.04791 256.64972 253.42291Q256.85284 253.71979 257.1966 253.71979Q257.54034 253.71979 257.72784 253.43854Q257.99347 253.04791 257.99347 251.93854Q257.99347 250.81354 257.74347 250.43854Q257.54034 250.15729 257.1966 250.15729Q256.83722 250.15729 256.64972 250.43854Q256.39972 250.81354 256.39972 251.93854Z" fill-rule="nonzero"/><path stroke="#000000" stroke-width="1.0" stroke-linejoin="round" stroke-linecap="round" d="M402.5 249.01666L402.5 28.45C474.40543 28.45 541.7971 63.50021 583.084 122.371155C624.3708 181.2421 634.3694 256.54276 609.8763 324.14807" fill-rule="nonzero"/><path stroke="#000000" stroke-width="1.0" stroke-linejoin="round" stroke-linecap="round" d="M402.5 249.01666L609.8763 324.14807C602.8341 343.58575 593.09406 361.93683 580.9422 378.6625" fill-rule="nonzero"/><path stroke="#000000" stroke-width="1.0" stroke-linejoin="round" stroke-linecap="round" d="M402.5 249.01666L580.9422 378.6625C539.4419 435.78275 473.1045 469.58334 402.5 469.58334" fill-rule="nonzero"/><path stroke="#000000" stroke-width="1.0" stroke-linejoin="round" stroke-linecap="round" d="M402.5 249.01666L402.5 469.58334C280.6844 469.58334 181.93333 370.83228 181.93333 249.01666C181.93333 127.20106 280.6844 28.45 402.5 28.45" fill-rule="nonzero"/><path fill="#47a8bd" d="M158.0 500.55C158.0 503.8637 155.3137 506.55 152.0 506.55C148.6863 506.55 146.0 503.8637 146.0 500.55C146.0 497.2363 148.6863 494.55 152.0 494.55C155.3137 494.55 158.0 497.2363 158.0 500.55Z" fill-rule="nonzero"/><path fill="#232832" d="M167.46875 507.55L167.46875 493.2375L177.29688 493.2375L177.29688 495.65936L170.35938 495.65936L170.35938 499.05L176.34375 499.05L176.34375 501.47186L170.35938 501.47186L170.35938 507.55L167.46875 507.55ZM182.67188 507.55L182.67188 495.65936L178.4375 495.65936L178.4375 493.2375L189.8125 493.2375L189.8125 495.65936L185.5625 495.65936L185.5625 507.55L182.67188 507.55ZM192.53125 507.55L192.53125 493.34686L195.42188 493.34686L195.42188 505.14374L202.60938 505.14374L202.60938 507.55L192.53125 507.55ZM210.53125 507.55L210.53125 493.34686L213.42188 493.34686L213.42188 505.14374L220.60938 505.14374L220.60938 507.55L210.53125 507.55ZM224.48438 500.34686L222.0 499.89374Q222.42188 498.39374 223.4375 497.675Q224.46875 496.9406 226.48438 496.9406Q228.32812 496.9406 229.21875 497.3781Q230.125 497.8156 230.48438 498.4875Q230.85938 499.14374 230.85938 500.9406L230.82812 504.14374Q230.82812 505.5031 230.95312 506.15936Q231.09375 506.8 231.45312 507.55L228.73438 507.55Q228.625 507.26874 228.46875 506.7375Q228.40625 506.4875 228.375 506.40936Q227.67188 507.09686 226.85938 507.4406Q226.0625 507.78436 225.15625 507.78436Q223.5625 507.78436 222.64062 506.925Q221.71875 506.05 221.71875 504.72186Q221.71875 503.83124 222.125 503.14374Q222.54688 502.45624 223.29688 502.09686Q224.0625 501.72186 225.5 501.45624Q227.42188 501.09686 228.15625 500.78436L228.15625 500.5031Q228.15625 499.72186 227.76562 499.39374Q227.375 499.05 226.29688 499.05Q225.5625 499.05 225.14062 499.33124Q224.73438 499.6125 224.48438 500.34686ZM228.15625 502.5656Q227.625 502.7375 226.48438 502.9875Q225.34375 503.2375 225.0 503.47186Q224.45312 503.84686 224.45312 504.4406Q224.45312 505.0031 224.875 505.425Q225.3125 505.84686 225.98438 505.84686Q226.71875 505.84686 227.39062 505.3625Q227.89062 504.9875 228.04688 504.45624Q228.15625 504.09686 228.15625 503.1125L228.15625 502.5656ZM233.3125 507.55L233.3125 493.2375L236.0625 493.2375L236.0625 498.39374Q237.32812 496.9406 239.07812 496.9406Q240.96875 496.9406 242.20312 498.3156Q243.45312 499.6906 243.45312 502.2531Q243.45312 504.90936 242.1875 506.34686Q240.92188 507.78436 239.10938 507.78436Q238.21875 507.78436 237.35938 507.34686Q236.5 506.89374 235.875 506.01874L235.875 507.55L233.3125 507.55ZM236.04688 502.14374Q236.04688 503.7531 236.54688 504.51874Q237.26562 505.6125 238.45312 505.6125Q239.35938 505.6125 240.0 504.84686Q240.64062 504.0656 240.64062 502.39374Q240.64062 500.6125 239.98438 499.83124Q239.34375 499.05 238.34375 499.05Q237.35938 499.05 236.70312 499.8156Q236.04688 500.58124 236.04688 502.14374ZM244.46875 504.59686L247.21875 504.175Q247.40625 504.97186 247.9375 505.39374Q248.46875 505.8 249.4375 505.8Q250.5 505.8 251.04688 505.40936Q251.40625 505.14374 251.40625 504.675Q251.40625 504.3625 251.20312 504.15936Q251.0 503.97186 250.29688 503.8Q246.96875 503.0656 246.07812 502.45624Q244.84375 501.6281 244.84375 500.1281Q244.84375 498.78436 245.90625 497.8625Q246.98438 496.9406 249.21875 496.9406Q251.34375 496.9406 252.375 497.64374Q253.42188 498.33124 253.8125 499.6906L251.21875 500.15936Q251.04688 499.5656 250.57812 499.2375Q250.125 498.90936 249.26562 498.90936Q248.1875 498.90936 247.71875 499.22186Q247.40625 499.4406 247.40625 499.76874Q247.40625 500.0656 247.67188 500.26874Q248.04688 500.55 250.23438 501.05Q252.42188 501.55 253.29688 502.26874Q254.15625 503.0031 254.15625 504.3Q254.15625 505.7375 252.96875 506.76874Q251.78125 507.78436 249.4375 507.78436Q247.32812 507.78436 246.07812 506.925Q244.84375 506.0656 244.46875 504.59686ZM262.125 503.7375L262.125 500.9875L267.51562 500.9875L267.51562 503.7375L262.125 503.7375ZM277.67188 507.55L277.67188 495.65936L273.4375 495.65936L273.4375 493.2375L284.8125 493.2375L284.8125 495.65936L280.5625 495.65936L280.5625 507.55L277.67188 507.55ZM293.4375 504.2531L296.17188 504.70624Q295.65625 506.20624 294.51562 507.0031Q293.375 507.78436 291.67188 507.78436Q288.95312 507.78436 287.65625 506.01874Q286.64062 504.59686 286.64062 502.4406Q286.64062 499.8625 287.98438 498.40936Q289.32812 496.9406 291.39062 496.9406Q293.70312 496.9406 295.03125 498.47186Q296.375 500.0031 296.32812 503.15936L289.45312 503.15936Q289.48438 504.3781 290.10938 505.0656Q290.75 505.7375 291.6875 505.7375Q292.34375 505.7375 292.78125 505.39374Q293.21875 505.03436 293.4375 504.2531ZM293.59375 501.47186Q293.5625 500.28436 292.96875 499.675Q292.39062 499.05 291.5625 499.05Q290.65625 499.05 290.07812 499.6906Q289.48438 500.34686 289.5 501.47186L293.59375 501.47186ZM300.48438 500.34686L298.0 499.89374Q298.42188 498.39374 299.4375 497.675Q300.46875 496.9406 302.48438 496.9406Q304.32812 496.9406 305.21875 497.3781Q306.125 497.8156 306.48438 498.4875Q306.85938 499.14374 306.85938 500.9406L306.82812 504.14374Q306.82812 505.5031 306.95312 506.15936Q307.09375 506.8 307.45312 507.55L304.73438 507.55Q304.625 507.26874 304.46875 506.7375Q304.40625 506.4875 304.375 506.40936Q303.67188 507.09686 302.85938 507.4406Q302.0625 507.78436 301.15625 507.78436Q299.5625 507.78436 298.64062 506.925Q297.71875 506.05 297.71875 504.72186Q297.71875 503.83124 298.125 503.14374Q298.54688 502.45624 299.29688 502.09686Q300.0625 501.72186 301.5 501.45624Q303.42188 501.09686 304.15625 500.78436L304.15625 500.5031Q304.15625 499.72186 303.76562 499.39374Q303.375 499.05 302.29688 499.05Q301.5625 499.05 301.14062 499.33124Q300.73438 499.6125 300.48438 500.34686ZM304.15625 502.5656Q303.625 502.7375 302.48438 502.9875Q301.34375 503.2375 301.0 503.47186Q300.45312 503.84686 300.45312 504.4406Q300.45312 505.0031 300.875 505.425Q301.3125 505.84686 301.98438 505.84686Q302.71875 505.84686 303.39062 505.3625Q303.89062 504.9875 304.04688 504.45624Q304.15625 504.09686 304.15625 503.1125L304.15625 502.5656ZM309.23438 497.175L311.76562 497.175L311.76562 498.59686Q313.125 496.9406 315.0 496.9406Q315.98438 496.9406 316.71875 497.3625Q317.45312 497.76874 317.92188 498.59686Q318.60938 497.76874 319.39062 497.3625Q320.1875 496.9406 321.09375 496.9406Q322.23438 496.9406 323.01562 497.40936Q323.8125 497.8781 324.20312 498.76874Q324.48438 499.4406 324.48438 500.925L324.48438 507.55L321.73438 507.55L321.73438 501.6281Q321.73438 500.08124 321.45312 499.6281Q321.07812 499.05 320.28125 499.05Q319.70312 499.05 319.1875 499.40936Q318.6875 499.7531 318.46875 500.425Q318.25 501.09686 318.25 502.5656L318.25 507.55L315.5 507.55L315.5 501.8625Q315.5 500.34686 315.34375 499.90936Q315.20312 499.47186 314.89062 499.26874Q314.59375 499.05 314.0625 499.05Q313.4375 499.05 312.92188 499.39374Q312.42188 499.72186 312.1875 500.3781Q311.96875 501.01874 311.96875 502.5031L311.96875 507.55L309.23438 507.55L309.23438 497.175ZM345.125 505.8L343.46875 507.925Q342.23438 507.33124 341.125 506.28436Q340.25 507.0656 339.26562 507.4406Q338.29688 507.8 336.95312 507.8Q334.26562 507.8 332.92188 506.3Q331.875 505.14374 331.875 503.6281Q331.875 502.2531 332.6875 501.15936Q333.51562 500.05 335.15625 499.2375Q334.42188 498.3625 334.04688 497.58124Q333.67188 496.8 333.67188 496.09686Q333.67188 494.8 334.70312 493.89374Q335.75 492.9875 337.6875 492.9875Q339.53125 492.9875 340.57812 493.9406Q341.625 494.8781 341.625 496.2531Q341.625 497.1125 341.10938 497.89374Q340.59375 498.675 339.01562 499.675L341.01562 502.3Q341.35938 501.675 341.60938 500.65936L344.09375 501.2375Q343.71875 502.55 343.4375 503.15936Q343.17188 503.76874 342.85938 504.175Q343.32812 504.6125 344.04688 505.1281Q344.78125 505.6281 345.125 505.8ZM337.65625 498.01874L338.39062 497.45624Q339.21875 496.8156 339.21875 496.1906Q339.21875 495.65936 338.8125 495.3Q338.42188 494.925 337.75 494.925Q337.09375 494.925 336.71875 495.2531Q336.35938 495.58124 336.35938 496.0031Q336.35938 496.51874 336.98438 497.2375L337.65625 498.01874ZM336.57812 501.0031Q335.625 501.47186 335.15625 502.14374Q334.6875 502.8156 334.6875 503.51874Q334.6875 504.40936 335.26562 504.97186Q335.85938 505.53436 336.82812 505.53436Q337.46875 505.53436 338.0625 505.28436Q338.67188 505.03436 339.375 504.4406L336.57812 501.0031ZM352.46875 507.55L352.46875 493.2375L358.54688 493.2375Q360.84375 493.2375 361.875 493.6281Q362.92188 494.0031 363.54688 494.9875Q364.17188 495.97186 364.17188 497.2531Q364.17188 498.8625 363.21875 499.90936Q362.28125 500.95624 360.39062 501.2375Q361.32812 501.78436 361.9375 502.4406Q362.54688 503.08124 363.59375 504.7531L365.34375 507.55L361.875 507.55L359.79688 504.4406Q358.67188 502.76874 358.26562 502.33124Q357.85938 501.89374 357.39062 501.7375Q356.9375 501.5656 355.9375 501.5656L355.35938 501.5656L355.35938 507.55L352.46875 507.55ZM355.35938 499.28436L357.5 499.28436Q359.57812 499.28436 360.09375 499.1125Q360.60938 498.9406 360.90625 498.51874Q361.20312 498.08124 361.20312 497.425Q361.20312 496.70624 360.8125 496.26874Q360.42188 495.8156 359.71875 495.70624Q359.375 495.65936 357.60938 495.65936L355.35938 495.65936L355.35938 499.28436ZM372.4375 504.2531L375.17188 504.70624Q374.65625 506.20624 373.51562 507.0031Q372.375 507.78436 370.67188 507.78436Q367.95312 507.78436 366.65625 506.01874Q365.64062 504.59686 365.64062 502.4406Q365.64062 499.8625 366.98438 498.40936Q368.32812 496.9406 370.39062 496.9406Q372.70312 496.9406 374.03125 498.47186Q375.375 500.0031 375.32812 503.15936L368.45312 503.15936Q368.48438 504.3781 369.10938 505.0656Q369.75 505.7375 370.6875 505.7375Q371.34375 505.7375 371.78125 505.39374Q372.21875 505.03436 372.4375 504.2531ZM372.59375 501.47186Q372.5625 500.28436 371.96875 499.675Q371.39062 499.05 370.5625 499.05Q369.65625 499.05 369.07812 499.6906Q368.48438 500.34686 368.5 501.47186L372.59375 501.47186ZM376.46875 504.59686L379.21875 504.175Q379.40625 504.97186 379.9375 505.39374Q380.46875 505.8 381.4375 505.8Q382.5 505.8 383.04688 505.40936Q383.40625 505.14374 383.40625 504.675Q383.40625 504.3625 383.20312 504.15936Q383.0 503.97186 382.29688 503.8Q378.96875 503.0656 378.07812 502.45624Q376.84375 501.6281 376.84375 500.1281Q376.84375 498.78436 377.90625 497.8625Q378.98438 496.9406 381.21875 496.9406Q383.34375 496.9406 384.375 497.64374Q385.42188 498.33124 385.8125 499.6906L383.21875 500.15936Q383.04688 499.5656 382.57812 499.2375Q382.125 498.90936 381.26562 498.90936Q380.1875 498.90936 379.71875 499.22186Q379.40625 499.4406 379.40625 499.76874Q379.40625 500.0656 379.67188 500.26874Q380.04688 500.55 382.23438 501.05Q384.42188 501.55 385.29688 502.26874Q386.15625 503.0031 386.15625 504.3Q386.15625 505.7375 384.96875 506.76874Q383.78125 507.78436 381.4375 507.78436Q379.32812 507.78436 378.07812 506.925Q376.84375 506.0656 376.46875 504.59686ZM394.4375 504.2531L397.17188 504.70624Q396.65625 506.20624 395.51562 507.0031Q394.375 507.78436 392.67188 507.78436Q389.95312 507.78436 388.65625 506.01874Q387.64062 504.59686 387.64062 502.4406Q387.64062 499.8625 388.98438 498.40936Q390.32812 496.9406 392.39062 496.9406Q394.70312 496.9406 396.03125 498.47186Q397.375 500.0031 397.32812 503.15936L390.45312 503.15936Q390.48438 504.3781 391.10938 505.0656Q391.75 505.7375 392.6875 505.7375Q393.34375 505.7375 393.78125 505.39374Q394.21875 505.03436 394.4375 504.2531ZM394.59375 501.47186Q394.5625 500.28436 393.96875 499.675Q393.39062 499.05 392.5625 499.05Q391.65625 499.05 391.07812 499.6906Q390.48438 500.34686 390.5 501.47186L394.59375 501.47186ZM402.0625 507.55L399.3125 507.55L399.3125 497.175L401.875 497.175L401.875 498.65936Q402.51562 497.6125 403.03125 497.28436Q403.5625 496.9406 404.23438 496.9406Q405.17188 496.9406 406.03125 497.45624L405.1875 499.84686Q404.5 499.40936 403.90625 499.40936Q403.32812 499.40936 402.92188 499.72186Q402.51562 500.03436 402.28125 500.8781Q402.0625 501.70624 402.0625 504.34686L402.0625 507.55ZM410.28125 507.55L406.10938 497.175L408.98438 497.175L410.9375 502.47186L411.51562 504.2375Q411.73438 503.5656 411.79688 503.34686Q411.92188 502.90936 412.07812 502.47186L414.0625 497.175L416.875 497.175L412.76562 507.55L410.28125 507.55ZM424.4375 504.2531L427.17188 504.70624Q426.65625 506.20624 425.51562 507.0031Q424.375 507.78436 422.67188 507.78436Q419.95312 507.78436 418.65625 506.01874Q417.64062 504.59686 417.64062 502.4406Q417.64062 499.8625 418.98438 498.40936Q420.32812 496.9406 422.39062 496.9406Q424.70312 496.9406 426.03125 498.47186Q427.375 500.0031 427.32812 503.15936L420.45312 503.15936Q420.48438 504.3781 421.10938 505.0656Q421.75 505.7375 422.6875 505.7375Q423.34375 505.7375 423.78125 505.39374Q424.21875 505.03436 424.4375 504.2531ZM424.59375 501.47186Q424.5625 500.28436 423.96875 499.675Q423.39062 499.05 422.5625 499.05Q421.65625 499.05 421.07812 499.6906Q420.48438 500.34686 420.5 501.47186L424.59375 501.47186Z" fill-rule="nonzero"/><path fill="#f5e663" d="M456.0 500.55C456.0 503.8637 453.31372 506.55 450.0 506.55C446.68628 506.55 444.0 503.8637 444.0 500.55C444.0 497.2363 446.68628 494.55 450.0 494.55C453.31372 494.55 456.0 497.2363 456.0 500.55Z" fill-rule="nonzero"/><path fill="#232832" d="M465.46875 507.55L465.46875 493.2375L475.29688 493.2375L475.29688 495.65936L468.35938 495.65936L468.35938 499.05L474.34375 499.05L474.34375 501.47186L468.35938 501.47186L468.35938 507.55L465.46875 507.55ZM480.67188 507.55L480.67188 495.65936L476.4375 495.65936L476.4375 493.2375L487.8125 493.2375L487.8125 495.65936L483.5625 495.65936L483.5625 507.55L480.67188 507.55ZM490.53125 507.55L490.53125 493.34686L493.42188 493.34686L493.42188 505.14374L500.60938 505.14374L500.60938 507.55L490.53125 507.55ZM508.53125 507.55L508.53125 493.34686L511.42188 493.34686L511.42188 505.14374L518.6094 505.14374L518.6094 507.55L508.53125 507.55ZM522.4844 500.34686L520.0 499.89374Q520.4219 498.39374 521.4375 497.675Q522.46875 496.9406 524.4844 496.9406Q526.3281 496.9406 527.21875 497.3781Q528.125 497.8156 528.4844 498.4875Q528.8594 499.14374 528.8594 500.9406L528.8281 504.14374Q528.8281 505.5031 528.9531 506.15936Q529.09375 506.8 529.4531 507.55L526.7344 507.55Q526.625 507.26874 526.46875 506.7375Q526.40625 506.4875 526.375 506.40936Q525.6719 507.09686 524.8594 507.4406Q524.0625 507.78436 523.15625 507.78436Q521.5625 507.78436 520.6406 506.925Q519.71875 506.05 519.71875 504.72186Q519.71875 503.83124 520.125 503.14374Q520.5469 502.45624 521.2969 502.09686Q522.0625 501.72186 523.5 501.45624Q525.4219 501.09686 526.15625 500.78436L526.15625 500.5031Q526.15625 499.72186 525.7656 499.39374Q525.375 499.05 524.2969 499.05Q523.5625 499.05 523.1406 499.33124Q522.7344 499.6125 522.4844 500.34686ZM526.15625 502.5656Q525.625 502.7375 524.4844 502.9875Q523.34375 503.2375 523.0 503.47186Q522.4531 503.84686 522.4531 504.4406Q522.4531 505.0031 522.875 505.425Q523.3125 505.84686 523.9844 505.84686Q524.71875 505.84686 525.3906 505.3625Q525.8906 504.9875 526.0469 504.45624Q526.15625 504.09686 526.15625 503.1125L526.15625 502.5656ZM531.3125 507.55L531.3125 493.2375L534.0625 493.2375L534.0625 498.39374Q535.3281 496.9406 537.0781 496.9406Q538.96875 496.9406 540.2031 498.3156Q541.4531 499.6906 541.4531 502.2531Q541.4531 504.90936 540.1875 506.34686Q538.9219 507.78436 537.1094 507.78436Q536.21875 507.78436 535.3594 507.34686Q534.5 506.89374 533.875 506.01874L533.875 507.55L531.3125 507.55ZM534.0469 502.14374Q534.0469 503.7531 534.5469 504.51874Q535.2656 505.6125 536.4531 505.6125Q537.3594 505.6125 538.0 504.84686Q538.6406 504.0656 538.6406 502.39374Q538.6406 500.6125 537.9844 499.83124Q537.34375 499.05 536.34375 499.05Q535.3594 499.05 534.7031 499.8156Q534.0469 500.58124 534.0469 502.14374ZM542.46875 504.59686L545.21875 504.175Q545.40625 504.97186 545.9375 505.39374Q546.46875 505.8 547.4375 505.8Q548.5 505.8 549.0469 505.40936Q549.40625 505.14374 549.40625 504.675Q549.40625 504.3625 549.2031 504.15936Q549.0 503.97186 548.2969 503.8Q544.96875 503.0656 544.0781 502.45624Q542.84375 501.6281 542.84375 500.1281Q542.84375 498.78436 543.90625 497.8625Q544.9844 496.9406 547.21875 496.9406Q549.34375 496.9406 550.375 497.64374Q551.4219 498.33124 551.8125 499.6906L549.21875 500.15936Q549.0469 499.5656 548.5781 499.2375Q548.125 498.90936 547.2656 498.90936Q546.1875 498.90936 545.71875 499.22186Q545.40625 499.4406 545.40625 499.76874Q545.40625 500.0656 545.6719 500.26874Q546.0469 500.55 548.2344 501.05Q550.4219 501.55 551.2969 502.26874Q552.15625 503.0031 552.15625 504.3Q552.15625 505.7375 550.96875 506.76874Q549.78125 507.78436 547.4375 507.78436Q545.3281 507.78436 544.0781 506.925Q542.84375 506.0656 542.46875 504.59686ZM560.125 503.7375L560.125 500.9875L565.5156 500.9875L565.5156 503.7375L560.125 503.7375ZM572.375 507.55L572.375 493.2375L575.2656 493.2375L575.2656 507.55L572.375 507.55ZM586.875 507.55L584.125 507.55L584.125 502.2531Q584.125 500.58124 583.9531 500.09686Q583.78125 499.59686 583.375 499.33124Q582.9844 499.05 582.4219 499.05Q581.71875 499.05 581.1406 499.4406Q580.5781 499.83124 580.3594 500.47186Q580.15625 501.1125 580.15625 502.84686L580.15625 507.55L577.4219 507.55L577.4219 497.175L579.96875 497.175L579.96875 498.70624Q581.3281 496.9406 583.3906 496.9406Q584.2969 496.9406 585.0469 497.26874Q585.7969 497.59686 586.1719 498.1125Q586.5625 498.6125 586.71875 499.26874Q586.875 499.90936 586.875 501.09686L586.875 507.55ZM592.28125 507.55L588.1094 497.175L590.9844 497.175L592.9375 502.47186L593.5156 504.2375Q593.7344 503.5656 593.7969 503.34686Q593.9219 502.90936 594.0781 502.47186L596.0625 497.175L598.875 497.175L594.7656 507.55L592.28125 507.55ZM606.4375 504.2531L609.1719 504.70624Q608.65625 506.20624 607.5156 507.0031Q606.375 507.78436 604.6719 507.78436Q601.9531 507.78436 600.65625 506.01874Q599.6406 504.59686 599.6406 502.4406Q599.6406 499.8625 600.9844 498.40936Q602.3281 496.9406 604.3906 496.9406Q606.7031 496.9406 608.03125 498.47186Q609.375 500.0031 609.3281 503.15936L602.4531 503.15936Q602.4844 504.3781 603.1094 505.0656Q603.75 505.7375 604.6875 505.7375Q605.34375 505.7375 605.78125 505.39374Q606.21875 505.03436 606.4375 504.2531ZM606.59375 501.47186Q606.5625 500.28436 605.96875 499.675Q605.3906 499.05 604.5625 499.05Q603.65625 499.05 603.0781 499.6906Q602.4844 500.34686 602.5 501.47186L606.59375 501.47186ZM610.46875 504.59686L613.21875 504.175Q613.40625 504.97186 613.9375 505.39374Q614.46875 505.8 615.4375 505.8Q616.5 505.8 617.0469 505.40936Q617.40625 505.14374 617.40625 504.675Q617.40625 504.3625 617.2031 504.15936Q617.0 503.97186 616.2969 503.8Q612.96875 503.0656 612.0781 502.45624Q610.84375 501.6281 610.84375 500.1281Q610.84375 498.78436 611.90625 497.8625Q612.9844 496.9406 615.21875 496.9406Q617.34375 496.9406 618.375 497.64374Q619.4219 498.33124 619.8125 499.6906L617.21875 500.15936Q617.0469 499.5656 616.5781 499.2375Q616.125 498.90936 615.2656 498.90936Q614.1875 498.90936 613.71875 499.22186Q613.40625 499.4406 613.40625 499.76874Q613.40625 500.0656 613.6719 500.26874Q614.0469 500.55 616.2344 501.05Q618.4219 501.55 619.2969 502.26874Q620.15625 503.0031 620.15625 504.3Q620.15625 505.7375 618.96875 506.76874Q617.78125 507.78436 615.4375 507.78436Q613.3281 507.78436 612.0781 506.925Q610.84375 506.0656 610.46875 504.59686ZM627.1875 497.175L627.1875 499.3625L625.3125 499.3625L625.3125 503.55Q625.3125 504.8156 625.3594 505.03436Q625.4219 505.2375 625.6094 505.3781Q625.8125 505.5031 626.0781 505.5031Q626.4531 505.5031 627.1875 505.2375L627.4219 507.3781Q626.4531 507.78436 625.25 507.78436Q624.5 507.78436 623.90625 507.53436Q623.3125 507.28436 623.03125 506.89374Q622.7656 506.4875 622.65625 505.8156Q622.5625 505.34686 622.5625 503.89374L622.5625 499.3625L621.2969 499.3625L621.2969 497.175L622.5625 497.175L622.5625 495.1125L625.3125 493.51874L625.3125 497.175L627.1875 497.175ZM628.7969 502.22186Q628.7969 500.84686 629.46875 499.5656Q630.15625 498.28436 631.3906 497.6125Q632.625 496.9406 634.1406 496.9406Q636.5 496.9406 638.0 498.47186Q639.5 500.0031 639.5 502.33124Q639.5 504.6906 637.9844 506.2375Q636.46875 507.78436 634.15625 507.78436Q632.7344 507.78436 631.4375 507.14374Q630.15625 506.4875 629.46875 505.2531Q628.7969 504.0031 628.7969 502.22186ZM631.6094 502.3625Q631.6094 503.90936 632.34375 504.7375Q633.0781 505.55 634.15625 505.55Q635.2344 505.55 635.9531 504.7375Q636.6875 503.90936 636.6875 502.34686Q636.6875 500.8156 635.9531 500.0031Q635.2344 499.175 634.15625 499.175Q633.0781 499.175 632.34375 500.0031Q631.6094 500.8156 631.6094 502.3625ZM644.0625 507.55L641.3125 507.55L641.3125 497.175L643.875 497.175L643.875 498.65936Q644.5156 497.6125 645.03125 497.28436Q645.5625 496.9406 646.2344 496.9406Q647.1719 496.9406 648.03125 497.45624L647.1875 499.84686Q646.5 499.40936 645.90625 499.40936Q645.3281 499.40936 644.9219 499.72186Q644.5156 500.03436 644.28125 500.8781Q644.0625 501.70624 644.0625 504.34686L644.0625 507.55ZM648.46875 504.59686L651.21875 504.175Q651.40625 504.97186 651.9375 505.39374Q652.46875 505.8 653.4375 505.8Q654.5 505.8 655.0469 505.40936Q655.40625 505.14374 655.40625 504.675Q655.40625 504.3625 655.2031 504.15936Q655.0 503.97186 654.2969 503.8Q650.96875 503.0656 650.0781 502.45624Q648.84375 501.6281 648.84375 500.1281Q648.84375 498.78436 649.90625 497.8625Q650.9844 496.9406 653.21875 496.9406Q655.34375 496.9406 656.375 497.64374Q657.4219 498.33124 657.8125 499.6906L655.21875 500.15936Q655.0469 499.5656 654.5781 499.2375Q654.125 498.90936 653.2656 498.90936Q652.1875 498.90936 651.71875 499.22186Q651.40625 499.4406 651.40625 499.76874Q651.40625 500.0656 651.6719 500.26874Q652.0469 500.55 654.2344 501.05Q656.4219 501.55 657.2969 502.26874Q658.15625 503.0031 658.15625 504.3Q658.15625 505.7375 656.96875 506.76874Q655.78125 507.78436 653.4375 507.78436Q651.3281 507.78436 650.0781 506.925Q648.84375 506.0656 648.46875 504.59686Z" fill-rule="nonzero"/><path fill="#ffad69" d="M40.45 528.55C40.45 531.8637 37.76371 534.55 34.45 534.55C31.136292 534.55 28.45 531.8637 28.45 528.55C28.45 525.23627 31.136292 522.55 34.45 522.55C37.76371 522.55 40.45 525.23627 40.45 528.55Z" fill-rule="nonzero"/><path fill="#232832" d="M49.903126 521.2375L55.184376 521.2375Q56.965626 521.2375 57.903126 521.5031Q59.16875 521.8781 60.059376 522.83124Q60.965626 523.76874 61.434376 525.14374Q61.903126 526.51874 61.903126 528.53436Q61.903126 530.3 61.465626 531.58124Q60.91875 533.14374 59.91875 534.09686Q59.16875 534.83124 57.8875 535.2531Q56.934376 535.55 55.340626 535.55L49.903126 535.55L49.903126 521.2375ZM52.79375 523.65936L52.79375 533.14374L54.95 533.14374Q56.153126 533.14374 56.7 533.0031Q57.403126 532.83124 57.85625 532.40936Q58.325 531.9875 58.60625 531.03436Q58.903126 530.0656 58.903126 528.39374Q58.903126 526.7375 58.60625 525.84686Q58.325 524.95624 57.79375 524.47186Q57.2625 523.97186 56.465626 523.78436Q55.85625 523.65936 54.090626 523.65936L52.79375 523.65936ZM76.80937 535.55L73.66875 535.55L72.41875 532.3L66.7 532.3L65.5125 535.55L62.45 535.55L68.02812 521.2375L71.09062 521.2375L76.80937 535.55ZM71.49687 529.8781L69.52812 524.5656L67.59062 529.8781L71.49687 529.8781ZM76.325 528.47186Q76.325 526.28436 76.98125 524.8Q77.46562 523.70624 78.30937 522.84686Q79.15312 521.97186 80.15312 521.55Q81.49687 520.9875 83.24687 520.9875Q86.40312 520.9875 88.29375 522.95624Q90.2 524.90936 90.2 528.40936Q90.2 531.8781 88.30937 533.84686Q86.43437 535.8 83.27812 535.8Q80.09062 535.8 78.2 533.84686Q76.325 531.89374 76.325 528.47186ZM79.29375 528.3781Q79.29375 530.8156 80.41875 532.0656Q81.54375 533.3156 83.27812 533.3156Q84.99687 533.3156 86.10625 532.08124Q87.21562 530.83124 87.21562 528.34686Q87.21562 525.8781 86.1375 524.675Q85.05937 523.45624 83.27812 523.45624Q81.48125 523.45624 80.3875 524.6906Q79.29375 525.90936 79.29375 528.3781ZM98.575 531.7375L98.575 528.9875L103.96562 528.9875L103.96562 531.7375L98.575 531.7375ZM117.55937 530.28436L117.55937 527.8781L123.79375 527.8781L123.79375 533.58124Q122.8875 534.45624 121.15312 535.1281Q119.43437 535.8 117.66875 535.8Q115.43437 535.8 113.7625 534.8625Q112.09062 533.90936 111.24687 532.15936Q110.40312 530.40936 110.40312 528.34686Q110.40312 526.1125 111.34062 524.3781Q112.27812 522.6281 114.09062 521.70624Q115.46562 520.9875 117.5125 520.9875Q120.18437 520.9875 121.68437 522.1125Q123.18437 523.22186 123.60625 525.1906L120.74687 525.7375Q120.43437 524.675 119.59062 524.0656Q118.7625 523.45624 117.5125 523.45624Q115.62187 523.45624 114.49687 524.65936Q113.3875 525.8625 113.3875 528.22186Q113.3875 530.76874 114.5125 532.05Q115.65312 533.3156 117.48125 533.3156Q118.40312 533.3156 119.30937 532.97186Q120.21562 532.6125 120.87187 532.09686L120.87187 530.28436L117.55937 530.28436ZM125.59062 525.175L128.5125 525.175L130.98125 532.53436L133.40312 525.175L136.24687 525.175L132.59062 535.15936L131.93437 536.97186Q131.575 537.8781 131.24687 538.34686Q130.91875 538.83124 130.49687 539.1281Q130.075 539.425 129.45 539.58124Q128.825 539.7531 128.04375 539.7531Q127.2625 539.7531 126.49687 539.59686L126.24687 537.4406Q126.90312 537.5656 127.41875 537.5656Q128.37187 537.5656 128.825 537.0031Q129.29375 536.45624 129.52812 535.58124L125.59062 525.175ZM140.5125 535.55L137.7625 535.55L137.7625 525.175L140.325 525.175L140.325 526.65936Q140.96562 525.6125 141.48125 525.28436Q142.0125 524.9406 142.68437 524.9406Q143.62187 524.9406 144.48125 525.45624L143.6375 527.84686Q142.95 527.40936 142.35625 527.40936Q141.77812 527.40936 141.37187 527.72186Q140.96562 528.03436 140.73125 528.8781Q140.5125 529.70624 140.5125 532.34686L140.5125 535.55ZM145.24687 530.22186Q145.24687 528.84686 145.91875 527.5656Q146.60625 526.28436 147.84062 525.6125Q149.075 524.9406 150.59062 524.9406Q152.95 524.9406 154.45 526.47186Q155.95 528.0031 155.95 530.33124Q155.95 532.6906 154.43437 534.2375Q152.91875 535.78436 150.60625 535.78436Q149.18437 535.78436 147.8875 535.14374Q146.60625 534.4875 145.91875 533.2531Q145.24687 532.0031 145.24687 530.22186ZM148.05937 530.3625Q148.05937 531.90936 148.79375 532.7375Q149.52812 533.55 150.60625 533.55Q151.68437 533.55 152.40312 532.7375Q153.1375 531.90936 153.1375 530.34686Q153.1375 528.8156 152.40312 528.0031Q151.68437 527.175 150.60625 527.175Q149.52812 527.175 148.79375 528.0031Q148.05937 528.8156 148.05937 530.3625ZM156.91875 532.59686L159.66875 532.175Q159.85625 532.97186 160.3875 533.39374Q160.91875 533.8 161.8875 533.8Q162.95 533.8 163.49687 533.40936Q163.85625 533.14374 163.85625 532.675Q163.85625 532.3625 163.65312 532.15936Q163.45 531.97186 162.74687 531.8Q159.41875 531.0656 158.52812 530.45624Q157.29375 529.6281 157.29375 528.1281Q157.29375 526.78436 158.35625 525.8625Q159.43437 524.9406 161.66875 524.9406Q163.79375 524.9406 164.825 525.64374Q165.87187 526.33124 166.2625 527.6906L163.66875 528.15936Q163.49687 527.5656 163.02812 527.2375Q162.575 526.90936 161.71562 526.90936Q160.6375 526.90936 160.16875 527.22186Q159.85625 527.4406 159.85625 527.76874Q159.85625 528.0656 160.12187 528.26874Q160.49687 528.55 162.68437 529.05Q164.87187 529.55 165.74687 530.26874Q166.60625 531.0031 166.60625 532.3Q166.60625 533.7375 165.41875 534.76874Q164.23125 535.78436 161.8875 535.78436Q159.77812 535.78436 158.52812 534.925Q157.29375 534.0656 156.91875 532.59686ZM177.93437 528.2375L175.23125 528.7375Q175.09062 527.925 174.60625 527.51874Q174.12187 527.09686 173.35625 527.09686Q172.325 527.09686 171.71562 527.8156Q171.10625 528.51874 171.10625 530.175Q171.10625 532.01874 171.71562 532.78436Q172.34062 533.55 173.3875 533.55Q174.16875 533.55 174.66875 533.1125Q175.16875 532.65936 175.37187 531.58124L178.05937 532.03436Q177.65312 533.89374 176.45 534.84686Q175.2625 535.78436 173.2625 535.78436Q170.98125 535.78436 169.62187 534.34686Q168.27812 532.90936 168.27812 530.3781Q168.27812 527.8 169.6375 526.3781Q170.99687 524.9406 173.30937 524.9406Q175.2 524.9406 176.30937 525.76874Q177.43437 526.58124 177.93437 528.2375ZM179.24687 530.22186Q179.24687 528.84686 179.91875 527.5656Q180.60625 526.28436 181.84062 525.6125Q183.075 524.9406 184.59062 524.9406Q186.95 524.9406 188.45 526.47186Q189.95 528.0031 189.95 530.33124Q189.95 532.6906 188.43437 534.2375Q186.91875 535.78436 184.60625 535.78436Q183.18437 535.78436 181.8875 535.14374Q180.60625 534.4875 179.91875 533.2531Q179.24687 532.0031 179.24687 530.22186ZM182.05937 530.3625Q182.05937 531.90936 182.79375 532.7375Q183.52812 533.55 184.60625 533.55Q185.68437 533.55 186.40312 532.7375Q187.1375 531.90936 187.1375 530.34686Q187.1375 528.8156 186.40312 528.0031Q185.68437 527.175 184.60625 527.175Q183.52812 527.175 182.79375 528.0031Q182.05937 528.8156 182.05937 530.3625ZM191.80937 525.175L194.37187 525.175L194.37187 526.70624Q194.87187 525.925 195.71562 525.4406Q196.55937 524.9406 197.60625 524.9406Q199.40312 524.9406 200.65312 526.3625Q201.91875 527.76874 201.91875 530.3Q201.91875 532.90936 200.65312 534.34686Q199.3875 535.78436 197.575 535.78436Q196.71562 535.78436 196.0125 535.4406Q195.325 535.09686 194.55937 534.26874L194.55937 539.5031L191.80937 539.5031L191.80937 525.175ZM194.52812 530.1906Q194.52812 531.9406 195.21562 532.78436Q195.90312 533.6125 196.90312 533.6125Q197.85625 533.6125 198.49687 532.84686Q199.1375 532.0656 199.1375 530.33124Q199.1375 528.6906 198.48125 527.90936Q197.825 527.1125 196.85625 527.1125Q195.85625 527.1125 195.18437 527.89374Q194.52812 528.65936 194.52812 530.1906ZM209.8875 532.2531L212.62187 532.70624Q212.10625 534.20624 210.96562 535.0031Q209.825 535.78436 208.12187 535.78436Q205.40312 535.78436 204.10625 534.01874Q203.09062 532.59686 203.09062 530.4406Q203.09062 527.8625 204.43437 526.40936Q205.77812 524.9406 207.84062 524.9406Q210.15312 524.9406 211.48125 526.47186Q212.825 528.0031 212.77812 531.15936L205.90312 531.15936Q205.93437 532.3781 206.55937 533.0656Q207.2 533.7375 208.1375 533.7375Q208.79375 533.7375 209.23125 533.39374Q209.66875 533.03436 209.8875 532.2531ZM210.04375 529.47186Q210.0125 528.28436 209.41875 527.675Q208.84062 527.05 208.0125 527.05Q207.10625 527.05 206.52812 527.6906Q205.93437 528.34686 205.95 529.47186L210.04375 529.47186ZM220.91875 535.55L220.91875 521.2375L230.74687 521.2375L230.74687 523.65936L223.80937 523.65936L223.80937 527.05L229.79375 527.05L229.79375 529.47186L223.80937 529.47186L223.80937 535.55L220.91875 535.55ZM232.24687 530.22186Q232.24687 528.84686 232.91875 527.5656Q233.60625 526.28436 234.84062 525.6125Q236.075 524.9406 237.59062 524.9406Q239.95 524.9406 241.45 526.47186Q242.95 528.0031 242.95 530.33124Q242.95 532.6906 241.43437 534.2375Q239.91875 535.78436 237.60625 535.78436Q236.18437 535.78436 234.8875 535.14374Q233.60625 534.4875 232.91875 533.2531Q232.24687 532.0031 232.24687 530.22186ZM235.05937 530.3625Q235.05937 531.90936 235.79375 532.7375Q236.52812 533.55 237.60625 533.55Q238.68437 533.55 239.40312 532.7375Q240.1375 531.90936 240.1375 530.34686Q240.1375 528.8156 239.40312 528.0031Q238.68437 527.175 237.60625 527.175Q236.52812 527.175 235.79375 528.0031Q235.05937 528.8156 235.05937 530.3625ZM251.71562 535.55L251.71562 534.0031Q251.15312 534.83124 250.21562 535.3156Q249.29375 535.78436 248.27812 535.78436Q247.23125 535.78436 246.40312 535.33124Q245.575 534.8625 245.2 534.03436Q244.825 533.20624 244.825 531.7375L244.825 525.175L247.575 525.175L247.575 529.9406Q247.575 532.1281 247.71562 532.6281Q247.87187 533.1125 248.2625 533.40936Q248.66875 533.6906 249.29375 533.6906Q249.99687 533.6906 250.54375 533.3156Q251.10625 532.925 251.30937 532.3625Q251.5125 531.78436 251.5125 529.55L251.5125 525.175L254.2625 525.175L254.2625 535.55L251.71562 535.55ZM266.325 535.55L263.575 535.55L263.575 530.2531Q263.575 528.58124 263.40314 528.09686Q263.23126 527.59686 262.825 527.33124Q262.4344 527.05 261.8719 527.05Q261.16876 527.05 260.59064 527.4406Q260.02814 527.83124 259.8094 528.47186Q259.60626 529.1125 259.60626 530.84686L259.60626 535.55L256.8719 535.55L256.8719 525.175L259.41876 525.175L259.41876 526.70624Q260.77814 524.9406 262.84064 524.9406Q263.7469 524.9406 264.4969 525.26874Q265.2469 525.59686 265.6219 526.1125Q266.0125 526.6125 266.16876 527.26874Q266.325 527.90936 266.325 529.09686L266.325 535.55ZM278.40314 535.55L275.85626 535.55L275.85626 534.01874Q275.21564 534.90936 274.34064 535.34686Q273.48126 535.78436 272.60626 535.78436Q270.825 535.78436 269.54376 534.34686Q268.27814 532.90936 268.27814 530.33124Q268.27814 527.6906 269.5125 526.3156Q270.7469 524.9406 272.65314 524.9406Q274.3875 524.9406 275.65314 526.39374L275.65314 521.2375L278.40314 521.2375L278.40314 535.55ZM271.075 530.14374Q271.075 531.8 271.52814 532.53436Q272.2 533.6125 273.3875 533.6125Q274.34064 533.6125 274.9969 532.8156Q275.66876 532.0031 275.66876 530.40936Q275.66876 528.6125 275.0125 527.83124Q274.3719 527.05 273.3719 527.05Q272.3875 527.05 271.73126 527.83124Q271.075 528.59686 271.075 530.14374ZM282.9344 528.34686L280.45 527.89374Q280.8719 526.39374 281.8875 525.675Q282.91876 524.9406 284.9344 524.9406Q286.77814 524.9406 287.66876 525.3781Q288.575 525.8156 288.9344 526.4875Q289.3094 527.14374 289.3094 528.9406L289.27814 532.14374Q289.27814 533.5031 289.40314 534.15936Q289.54376 534.8 289.90314 535.55L287.1844 535.55Q287.075 535.26874 286.91876 534.7375Q286.85626 534.4875 286.825 534.40936Q286.1219 535.09686 285.3094 535.4406Q284.5125 535.78436 283.60626 535.78436Q282.0125 535.78436 281.09064 534.925Q280.16876 534.05 280.16876 532.72186Q280.16876 531.83124 280.575 531.14374Q280.9969 530.45624 281.7469 530.09686Q282.5125 529.72186 283.95 529.45624Q285.8719 529.09686 286.60626 528.78436L286.60626 528.5031Q286.60626 527.72186 286.21564 527.39374Q285.825 527.05 284.7469 527.05Q284.0125 527.05 283.59064 527.33124Q283.1844 527.6125 282.9344 528.34686ZM286.60626 530.5656Q286.075 530.7375 284.9344 530.9875Q283.79376 531.2375 283.45 531.47186Q282.90314 531.84686 282.90314 532.4406Q282.90314 533.0031 283.325 533.425Q283.7625 533.84686 284.4344 533.84686Q285.16876 533.84686 285.84064 533.3625Q286.34064 532.9875 286.4969 532.45624Q286.60626 532.09686 286.60626 531.1125L286.60626 530.5656ZM296.6375 525.175L296.6375 527.3625L294.7625 527.3625L294.7625 531.55Q294.7625 532.8156 294.8094 533.03436Q294.8719 533.2375 295.0594 533.3781Q295.2625 533.5031 295.52814 533.5031Q295.90314 533.5031 296.6375 533.2375L296.8719 535.3781Q295.90314 535.78436 294.7 535.78436Q293.95 535.78436 293.35626 535.53436Q292.7625 535.28436 292.48126 534.89374Q292.21564 534.4875 292.10626 533.8156Q292.0125 533.34686 292.0125 531.89374L292.0125 527.3625L290.7469 527.3625L290.7469 525.175L292.0125 525.175L292.0125 523.1125L294.7625 521.51874L294.7625 525.175L296.6375 525.175ZM298.8875 523.76874L298.8875 521.2375L301.6375 521.2375L301.6375 523.76874L298.8875 523.76874ZM298.8875 535.55L298.8875 525.175L301.6375 525.175L301.6375 535.55L298.8875 535.55ZM303.2469 530.22186Q303.2469 528.84686 303.91876 527.5656Q304.60626 526.28436 305.84064 525.6125Q307.075 524.9406 308.59064 524.9406Q310.95 524.9406 312.45 526.47186Q313.95 528.0031 313.95 530.33124Q313.95 532.6906 312.4344 534.2375Q310.91876 535.78436 308.60626 535.78436Q307.1844 535.78436 305.8875 535.14374Q304.60626 534.4875 303.91876 533.2531Q303.2469 532.0031 303.2469 530.22186ZM306.0594 530.3625Q306.0594 531.90936 306.79376 532.7375Q307.52814 533.55 308.60626 533.55Q309.6844 533.55 310.40314 532.7375Q311.1375 531.90936 311.1375 530.34686Q311.1375 528.8156 310.40314 528.0031Q309.6844 527.175 308.60626 527.175Q307.52814 527.175 306.79376 528.0031Q306.0594 528.8156 306.0594 530.3625ZM325.325 535.55L322.575 535.55L322.575 530.2531Q322.575 528.58124 322.40314 528.09686Q322.23126 527.59686 321.825 527.33124Q321.4344 527.05 320.8719 527.05Q320.16876 527.05 319.59064 527.4406Q319.02814 527.83124 318.8094 528.47186Q318.60626 529.1125 318.60626 530.84686L318.60626 535.55L315.8719 535.55L315.8719 525.175L318.41876 525.175L318.41876 526.70624Q319.77814 524.9406 321.84064 524.9406Q322.7469 524.9406 323.4969 525.26874Q324.2469 525.59686 324.6219 526.1125Q325.0125 526.6125 325.16876 527.26874Q325.325 527.90936 325.325 529.09686L325.325 535.55Z" fill-rule="nonzero"/><path fill="#9c3848" d="M354.45 528.55C354.45 531.8637 351.7637 534.55 348.45 534.55C345.1363 534.55 342.45 531.8637 342.45 528.55C342.45 525.23627 345.1363 522.55 348.45 522.55C351.7637 522.55 354.45 525.23627 354.45 528.55Z" fill-rule="nonzero"/><path fill="#232832" d="M363.90314 521.2375L369.1844 521.2375Q370.96564 521.2375 371.90314 521.5031Q373.16876 521.8781 374.0594 522.83124Q374.96564 523.76874 375.4344 525.14374Q375.90314 526.51874 375.90314 528.53436Q375.90314 530.3 375.46564 531.58124Q374.91876 533.14374 373.91876 534.09686Q373.16876 534.83124 371.8875 535.2531Q370.9344 535.55 369.34064 535.55L363.90314 535.55L363.90314 521.2375ZM366.79376 523.65936L366.79376 533.14374L368.95 533.14374Q370.15314 533.14374 370.7 533.0031Q371.40314 532.83124 371.85626 532.40936Q372.325 531.9875 372.60626 531.03436Q372.90314 530.0656 372.90314 528.39374Q372.90314 526.7375 372.60626 525.84686Q372.325 524.95624 371.79376 524.47186Q371.2625 523.97186 370.46564 523.78436Q369.85626 523.65936 368.09064 523.65936L366.79376 523.65936ZM390.8094 535.55L387.66876 535.55L386.41876 532.3L380.7 532.3L379.5125 535.55L376.45 535.55L382.02814 521.2375L385.09064 521.2375L390.8094 535.55ZM385.4969 529.8781L383.52814 524.5656L381.59064 529.8781L385.4969 529.8781ZM390.325 528.47186Q390.325 526.28436 390.98126 524.8Q391.46564 523.70624 392.3094 522.84686Q393.15314 521.97186 394.15314 521.55Q395.4969 520.9875 397.2469 520.9875Q400.40314 520.9875 402.29376 522.95624Q404.2 524.90936 404.2 528.40936Q404.2 531.8781 402.3094 533.84686Q400.4344 535.8 397.27814 535.8Q394.09064 535.8 392.2 533.84686Q390.325 531.89374 390.325 528.47186ZM393.29376 528.3781Q393.29376 530.8156 394.41876 532.0656Q395.54376 533.3156 397.27814 533.3156Q398.9969 533.3156 400.10626 532.08124Q401.21564 530.83124 401.21564 528.34686Q401.21564 525.8781 400.1375 524.675Q399.0594 523.45624 397.27814 523.45624Q395.48126 523.45624 394.3875 524.6906Q393.29376 525.90936 393.29376 528.3781ZM412.575 531.7375L412.575 528.9875L417.96564 528.9875L417.96564 531.7375L412.575 531.7375ZM434.0594 530.28436L436.8719 531.175Q436.23126 533.51874 434.73126 534.65936Q433.23126 535.8 430.91876 535.8Q428.075 535.8 426.23126 533.84686Q424.40314 531.89374 424.40314 528.51874Q424.40314 524.9406 426.2469 522.97186Q428.09064 520.9875 431.09064 520.9875Q433.73126 520.9875 435.3719 522.53436Q436.34064 523.45624 436.825 525.175L433.96564 525.8625Q433.71564 524.7531 432.90314 524.1125Q432.10626 523.45624 430.95 523.45624Q429.35626 523.45624 428.35626 524.59686Q427.3719 525.7375 427.3719 528.3Q427.3719 531.01874 428.34064 532.175Q429.325 533.3156 430.8875 533.3156Q432.04376 533.3156 432.8719 532.59686Q433.7 531.8625 434.0594 530.28436ZM438.2469 530.22186Q438.2469 528.84686 438.91876 527.5656Q439.60626 526.28436 440.84064 525.6125Q442.075 524.9406 443.59064 524.9406Q445.95 524.9406 447.45 526.47186Q448.95 528.0031 448.95 530.33124Q448.95 532.6906 447.4344 534.2375Q445.91876 535.78436 443.60626 535.78436Q442.1844 535.78436 440.8875 535.14374Q439.60626 534.4875 438.91876 533.2531Q438.2469 532.0031 438.2469 530.22186ZM441.0594 530.3625Q441.0594 531.90936 441.79376 532.7375Q442.52814 533.55 443.60626 533.55Q444.6844 533.55 445.40314 532.7375Q446.1375 531.90936 446.1375 530.34686Q446.1375 528.8156 445.40314 528.0031Q444.6844 527.175 443.60626 527.175Q442.52814 527.175 441.79376 528.0031Q441.0594 528.8156 441.0594 530.3625ZM450.6844 525.175L453.21564 525.175L453.21564 526.59686Q454.575 524.9406 456.45 524.9406Q457.4344 524.9406 458.16876 525.3625Q458.90314 525.76874 459.3719 526.59686Q460.0594 525.76874 460.84064 525.3625Q461.6375 524.9406 462.54376 524.9406Q463.6844 524.9406 464.46564 525.40936Q465.2625 525.8781 465.65314 526.76874Q465.9344 527.4406 465.9344 528.925L465.9344 535.55L463.1844 535.55L463.1844 529.6281Q463.1844 528.08124 462.90314 527.6281Q462.52814 527.05 461.73126 527.05Q461.15314 527.05 460.6375 527.40936Q460.1375 527.7531 459.91876 528.425Q459.7 529.09686 459.7 530.5656L459.7 535.55L456.95 535.55L456.95 529.8625Q456.95 528.34686 456.79376 527.90936Q456.65314 527.47186 456.34064 527.26874Q456.04376 527.05 455.5125 527.05Q454.8875 527.05 454.3719 527.39374Q453.8719 527.72186 453.6375 528.3781Q453.41876 529.01874 453.41876 530.5031L453.41876 535.55L450.6844 535.55L450.6844 525.175ZM467.6844 525.175L470.21564 525.175L470.21564 526.59686Q471.575 524.9406 473.45 524.9406Q474.4344 524.9406 475.16876 525.3625Q475.90314 525.76874 476.3719 526.59686Q477.0594 525.76874 477.84064 525.3625Q478.6375 524.9406 479.54376 524.9406Q480.6844 524.9406 481.46564 525.40936Q482.2625 525.8781 482.65314 526.76874Q482.9344 527.4406 482.9344 528.925L482.9344 535.55L480.1844 535.55L480.1844 529.6281Q480.1844 528.08124 479.90314 527.6281Q479.52814 527.05 478.73126 527.05Q478.15314 527.05 477.6375 527.40936Q477.1375 527.7531 476.91876 528.425Q476.7 529.09686 476.7 530.5656L476.7 535.55L473.95 535.55L473.95 529.8625Q473.95 528.34686 473.79376 527.90936Q473.65314 527.47186 473.34064 527.26874Q473.04376 527.05 472.5125 527.05Q471.8875 527.05 471.3719 527.39374Q470.8719 527.72186 470.6375 528.3781Q470.41876 529.01874 470.41876 530.5031L470.41876 535.55L467.6844 535.55L467.6844 525.175ZM491.71564 535.55L491.71564 534.0031Q491.15314 534.83124 490.21564 535.3156Q489.29376 535.78436 488.27814 535.78436Q487.23126 535.78436 486.40314 535.33124Q485.575 534.8625 485.2 534.03436Q484.825 533.20624 484.825 531.7375L484.825 525.175L487.575 525.175L487.575 529.9406Q487.575 532.1281 487.71564 532.6281Q487.8719 533.1125 488.2625 533.40936Q488.66876 533.6906 489.29376 533.6906Q489.9969 533.6906 490.54376 533.3156Q491.10626 532.925 491.3094 532.3625Q491.5125 531.78436 491.5125 529.55L491.5125 525.175L494.2625 525.175L494.2625 535.55L491.71564 535.55ZM506.325 535.55L503.575 535.55L503.575 530.2531Q503.575 528.58124 503.40314 528.09686Q503.23126 527.59686 502.825 527.33124Q502.4344 527.05 501.8719 527.05Q501.16876 527.05 500.59064 527.4406Q500.02814 527.83124 499.8094 528.47186Q499.60626 529.1125 499.60626 530.84686L499.60626 535.55L496.8719 535.55L496.8719 525.175L499.41876 525.175L499.41876 526.70624Q500.77814 524.9406 502.84064 524.9406Q503.7469 524.9406 504.4969 525.26874Q505.2469 525.59686 505.6219 526.1125Q506.0125 526.6125 506.16876 527.26874Q506.325 527.90936 506.325 529.09686L506.325 535.55ZM508.8875 523.76874L508.8875 521.2375L511.6375 521.2375L511.6375 523.76874L508.8875 523.76874ZM508.8875 535.55L508.8875 525.175L511.6375 525.175L511.6375 535.55L508.8875 535.55ZM518.6375 525.175L518.6375 527.3625L516.7625 527.3625L516.7625 531.55Q516.7625 532.8156 516.8094 533.03436Q516.8719 533.2375 517.0594 533.3781Q517.2625 533.5031 517.52814 533.5031Q517.90314 533.5031 518.6375 533.2375L518.8719 535.3781Q517.90314 535.78436 516.7 535.78436Q515.95 535.78436 515.35626 535.53436Q514.7625 535.28436 514.48126 534.89374Q514.21564 534.4875 514.10626 533.8156Q514.0125 533.34686 514.0125 531.89374L514.0125 527.3625L512.7469 527.3625L512.7469 525.175L514.0125 525.175L514.0125 523.1125L516.7625 521.51874L516.7625 525.175L518.6375 525.175ZM519.59064 525.175L522.5125 525.175L524.98126 532.53436L527.40314 525.175L530.2469 525.175L526.59064 535.15936L525.9344 536.97186Q525.575 537.8781 525.2469 538.34686Q524.91876 538.83124 524.4969 539.1281Q524.075 539.425 523.45 539.58124Q522.825 539.7531 522.04376 539.7531Q521.2625 539.7531 520.4969 539.59686L520.2469 537.4406Q520.90314 537.5656 521.41876 537.5656Q522.3719 537.5656 522.825 537.0031Q523.29376 536.45624 523.52814 535.58124L519.59064 525.175ZM542.4344 539.7531L540.5594 539.7531Q539.0594 537.5031 538.27814 535.08124Q537.4969 532.64374 537.4969 530.3625Q537.4969 527.53436 538.46564 525.01874Q539.3094 522.83124 540.59064 520.9875L542.46564 520.9875Q541.1219 523.9406 540.6219 526.01874Q540.1219 528.09686 540.1219 530.425Q540.1219 532.01874 540.41876 533.70624Q540.71564 535.3781 541.23126 536.89374Q541.575 537.89374 542.4344 539.7531ZM546.9344 528.34686L544.45 527.89374Q544.8719 526.39374 545.8875 525.675Q546.91876 524.9406 548.9344 524.9406Q550.77814 524.9406 551.66876 525.3781Q552.575 525.8156 552.9344 526.4875Q553.3094 527.14374 553.3094 528.9406L553.27814 532.14374Q553.27814 533.5031 553.40314 534.15936Q553.54376 534.8 553.90314 535.55L551.1844 535.55Q551.075 535.26874 550.91876 534.7375Q550.85626 534.4875 550.825 534.40936Q550.1219 535.09686 549.3094 535.4406Q548.5125 535.78436 547.60626 535.78436Q546.0125 535.78436 545.09064 534.925Q544.16876 534.05 544.16876 532.72186Q544.16876 531.83124 544.575 531.14374Q544.9969 530.45624 545.7469 530.09686Q546.5125 529.72186 547.95 529.45624Q549.8719 529.09686 550.60626 528.78436L550.60626 528.5031Q550.60626 527.72186 550.21564 527.39374Q549.825 527.05 548.7469 527.05Q548.0125 527.05 547.59064 527.33124Q547.1844 527.6125 546.9344 528.34686ZM550.60626 530.5656Q550.075 530.7375 548.9344 530.9875Q547.79376 531.2375 547.45 531.47186Q546.90314 531.84686 546.90314 532.4406Q546.90314 533.0031 547.325 533.425Q547.7625 533.84686 548.4344 533.84686Q549.16876 533.84686 549.84064 533.3625Q550.34064 532.9875 550.4969 532.45624Q550.60626 532.09686 550.60626 531.1125L550.60626 530.5656ZM555.8875 523.76874L555.8875 521.2375L558.6375 521.2375L558.6375 523.76874L555.8875 523.76874ZM555.8875 535.55L555.8875 525.175L558.6375 525.175L558.6375 535.55L555.8875 535.55ZM563.5125 535.55L560.7625 535.55L560.7625 525.175L563.325 525.175L563.325 526.65936Q563.96564 525.6125 564.48126 525.28436Q565.0125 524.9406 565.6844 524.9406Q566.6219 524.9406 567.48126 525.45624L566.6375 527.84686Q565.95 527.40936 565.35626 527.40936Q564.77814 527.40936 564.3719 527.72186Q563.96564 528.03436 563.73126 528.8781Q563.5125 529.70624 563.5125 532.34686L563.5125 535.55ZM578.40314 535.55L575.85626 535.55L575.85626 534.01874Q575.21564 534.90936 574.34064 535.34686Q573.48126 535.78436 572.60626 535.78436Q570.825 535.78436 569.54376 534.34686Q568.27814 532.90936 568.27814 530.33124Q568.27814 527.6906 569.5125 526.3156Q570.7469 524.9406 572.65314 524.9406Q574.3875 524.9406 575.65314 526.39374L575.65314 521.2375L578.40314 521.2375L578.40314 535.55ZM571.075 530.14374Q571.075 531.8 571.52814 532.53436Q572.2 533.6125 573.3875 533.6125Q574.34064 533.6125 574.9969 532.8156Q575.66876 532.0031 575.66876 530.40936Q575.66876 528.6125 575.0125 527.83124Q574.3719 527.05 573.3719 527.05Q572.3875 527.05 571.73126 527.83124Q571.075 528.59686 571.075 530.14374ZM583.5125 535.55L580.7625 535.55L580.7625 525.175L583.325 525.175L583.325 526.65936Q583.96564 525.6125 584.48126 525.28436Q585.0125 524.9406 585.6844 524.9406Q586.6219 524.9406 587.48126 525.45624L586.6375 527.84686Q585.95 527.40936 585.35626 527.40936Q584.77814 527.40936 584.3719 527.72186Q583.96564 528.03436 583.73126 528.8781Q583.5125 529.70624 583.5125 532.34686L583.5125 535.55ZM588.2469 530.22186Q588.2469 528.84686 588.91876 527.5656Q589.60626 526.28436 590.84064 525.6125Q592.075 524.9406 593.59064 524.9406Q595.95 524.9406 597.45 526.47186Q598.95 528.0031 598.95 530.33124Q598.95 532.6906 597.4344 534.2375Q595.91876 535.78436 593.60626 535.78436Q592.1844 535.78436 590.8875 535.14374Q589.60626 534.4875 588.91876 533.2531Q588.2469 532.0031 588.2469 530.22186ZM591.0594 530.3625Q591.0594 531.90936 591.79376 532.7375Q592.52814 533.55 593.60626 533.55Q594.6844 533.55 595.40314 532.7375Q596.1375 531.90936 596.1375 530.34686Q596.1375 528.8156 595.40314 528.0031Q594.6844 527.175 593.60626 527.175Q592.52814 527.175 591.79376 528.0031Q591.0594 528.8156 591.0594 530.3625ZM600.8094 525.175L603.3719 525.175L603.3719 526.70624Q603.8719 525.925 604.71564 525.4406Q605.5594 524.9406 606.60626 524.9406Q608.40314 524.9406 609.65314 526.3625Q610.91876 527.76874 610.91876 530.3Q610.91876 532.90936 609.65314 534.34686Q608.3875 535.78436 606.575 535.78436Q605.71564 535.78436 605.0125 535.4406Q604.325 535.09686 603.5594 534.26874L603.5594 539.5031L600.8094 539.5031L600.8094 525.175ZM603.52814 530.1906Q603.52814 531.9406 604.21564 532.78436Q604.90314 533.6125 605.90314 533.6125Q606.85626 533.6125 607.4969 532.84686Q608.1375 532.0656 608.1375 530.33124Q608.1375 528.6906 607.48126 527.90936Q606.825 527.1125 605.85626 527.1125Q604.85626 527.1125 604.1844 527.89374Q603.52814 528.65936 603.52814 530.1906ZM631.575 533.8L629.91876 535.925Q628.6844 535.33124 627.575 534.28436Q626.7 535.0656 625.71564 535.4406Q624.7469 535.8 623.40314 535.8Q620.71564 535.8 619.3719 534.3Q618.325 533.14374 618.325 531.6281Q618.325 530.2531 619.1375 529.15936Q619.96564 528.05 621.60626 527.2375Q620.8719 526.3625 620.4969 525.58124Q620.1219 524.8 620.1219 524.09686Q620.1219 522.8 621.15314 521.89374Q622.2 520.9875 624.1375 520.9875Q625.98126 520.9875 627.02814 521.9406Q628.075 522.8781 628.075 524.2531Q628.075 525.1125 627.5594 525.89374Q627.04376 526.675 625.46564 527.675L627.46564 530.3Q627.8094 529.675 628.0594 528.65936L630.54376 529.2375Q630.16876 530.55 629.8875 531.15936Q629.6219 531.76874 629.3094 532.175Q629.77814 532.6125 630.4969 533.1281Q631.23126 533.6281 631.575 533.8ZM624.10626 526.01874L624.84064 525.45624Q625.66876 524.8156 625.66876 524.1906Q625.66876 523.65936 625.2625 523.3Q624.8719 522.925 624.2 522.925Q623.54376 522.925 623.16876 523.2531Q622.8094 523.58124 622.8094 524.0031Q622.8094 524.51874 623.4344 525.2375L624.10626 526.01874ZM623.02814 529.0031Q622.075 529.47186 621.60626 530.14374Q621.1375 530.8156 621.1375 531.51874Q621.1375 532.40936 621.71564 532.97186Q622.3094 533.53436 623.27814 533.53436Q623.91876 533.53436 624.5125 533.28436Q625.1219 533.03436 625.825 532.4406L623.02814 529.0031ZM643.6375 525.175L643.6375 527.3625L641.7625 527.3625L641.7625 531.55Q641.7625 532.8156 641.8094 533.03436Q641.8719 533.2375 642.0594 533.3781Q642.2625 533.5031 642.52814 533.5031Q642.90314 533.5031 643.6375 533.2375L643.8719 535.3781Q642.90314 535.78436 641.7 535.78436Q640.95 535.78436 640.35626 535.53436Q639.7625 535.28436 639.48126 534.89374Q639.21564 534.4875 639.10626 533.8156Q639.0125 533.34686 639.0125 531.89374L639.0125 527.3625L637.7469 527.3625L637.7469 525.175L639.0125 525.175L639.0125 523.1125L641.7625 521.51874L641.7625 525.175L643.6375 525.175ZM648.5125 535.55L645.7625 535.55L645.7625 525.175L648.325 525.175L648.325 526.65936Q648.96564 525.6125 649.48126 525.28436Q650.0125 524.9406 650.6844 524.9406Q651.6219 524.9406 652.48126 525.45624L651.6375 527.84686Q650.95 527.40936 650.35626 527.40936Q649.77814 527.40936 649.3719 527.72186Q648.96564 528.03436 648.73126 528.8781Q648.5125 529.70624 648.5125 532.34686L648.5125 535.55ZM659.8875 532.2531L662.6219 532.70624Q662.10626 534.20624 660.96564 535.0031Q659.825 535.78436 658.1219 535.78436Q655.40314 535.78436 654.10626 534.01874Q653.09064 532.59686 653.09064 530.4406Q653.09064 527.8625 654.4344 526.40936Q655.77814 524.9406 657.84064 524.9406Q660.15314 524.9406 661.48126 526.47186Q662.825 528.0031 662.77814 531.15936L655.90314 531.15936Q655.9344 532.3781 656.5594 533.0656Q657.2 533.7375 658.1375 533.7375Q658.79376 533.7375 659.23126 533.39374Q659.66876 533.03436 659.8875 532.2531ZM660.04376 529.47186Q660.0125 528.28436 659.41876 527.675Q658.84064 527.05 658.0125 527.05Q657.10626 527.05 656.52814 527.6906Q655.9344 528.34686 655.95 529.47186L660.04376 529.47186ZM666.9344 528.34686L664.45 527.89374Q664.8719 526.39374 665.8875 525.675Q666.91876 524.9406 668.9344 524.9406Q670.77814 524.9406 671.66876 525.3781Q672.575 525.8156 672.9344 526.4875Q673.3094 527.14374 673.3094 528.9406L673.27814 532.14374Q673.27814 533.5031 673.40314 534.15936Q673.54376 534.8 673.90314 535.55L671.1844 535.55Q671.075 535.26874 670.91876 534.7375Q670.85626 534.4875 670.825 534.40936Q670.1219 535.09686 669.3094 535.4406Q668.5125 535.78436 667.60626 535.78436Q666.0125 535.78436 665.09064 534.925Q664.16876 534.05 664.16876 532.72186Q664.16876 531.83124 664.575 531.14374Q664.9969 530.45624 665.7469 530.09686Q666.5125 529.72186 667.95 529.45624Q669.8719 529.09686 670.60626 528.78436L670.60626 528.5031Q670.60626 527.72186 670.21564 527.39374Q669.825 527.05 668.7469 527.05Q668.0125 527.05 667.59064 527.33124Q667.1844 527.6125 666.9344 528.34686ZM670.60626 530.5656Q670.075 530.7375 668.9344 530.9875Q667.79376 531.2375 667.45 531.47186Q666.90314 531.84686 666.90314 532.4406Q666.90314 533.0031 667.325 533.425Q667.7625 533.84686 668.4344 533.84686Q669.16876 533.84686 669.84064 533.3625Q670.34064 532.9875 670.4969 532.45624Q670.60626 532.09686 670.60626 531.1125L670.60626 530.5656ZM674.91876 532.59686L677.66876 532.175Q677.85626 532.97186 678.3875 533.39374Q678.91876 533.8 679.8875 533.8Q680.95 533.8 681.4969 533.40936Q681.85626 533.14374 681.85626 532.675Q681.85626 532.3625 681.65314 532.15936Q681.45 531.97186 680.7469 531.8Q677.41876 531.0656 676.52814 530.45624Q675.29376 529.6281 675.29376 528.1281Q675.29376 526.78436 676.35626 525.8625Q677.4344 524.9406 679.66876 524.9406Q681.79376 524.9406 682.825 525.64374Q683.8719 526.33124 684.2625 527.6906L681.66876 528.15936Q681.4969 527.5656 681.02814 527.2375Q680.575 526.90936 679.71564 526.90936Q678.6375 526.90936 678.16876 527.22186Q677.85626 527.4406 677.85626 527.76874Q677.85626 528.0656 678.1219 528.26874Q678.4969 528.55 680.6844 529.05Q682.8719 529.55 683.7469 530.26874Q684.60626 531.0031 684.60626 532.3Q684.60626 533.7375 683.41876 534.76874Q682.23126 535.78436 679.8875 535.78436Q677.77814 535.78436 676.52814 534.925Q675.29376 534.0656 674.91876 532.59686ZM693.71564 535.55L693.71564 534.0031Q693.15314 534.83124 692.21564 535.3156Q691.29376 535.78436 690.27814 535.78436Q689.23126 535.78436 688.40314 535.33124Q687.575 534.8625 687.2 534.03436Q686.825 533.20624 686.825 531.7375L686.825 525.175L689.575 525.175L689.575 529.9406Q689.575 532.1281 689.71564 532.6281Q689.8719 533.1125 690.2625 533.40936Q690.66876 533.6906 691.29376 533.6906Q691.9969 533.6906 692.54376 533.3156Q693.10626 532.925 693.3094 532.3625Q693.5125 531.78436 693.5125 529.55L693.5125 525.175L696.2625 525.175L696.2625 535.55L693.71564 535.55ZM701.5125 535.55L698.7625 535.55L698.7625 525.175L701.325 525.175L701.325 526.65936Q701.96564 525.6125 702.48126 525.28436Q703.0125 524.9406 703.6844 524.9406Q704.6219 524.9406 705.48126 525.45624L704.6375 527.84686Q703.95 527.40936 703.35626 527.40936Q702.77814 527.40936 702.3719 527.72186Q701.96564 528.03436 701.73126 528.8781Q701.5125 529.70624 701.5125 532.34686L701.5125 535.55ZM705.59064 525.175L708.5125 525.175L710.98126 532.53436L713.40314 525.175L716.2469 525.175L712.59064 535.15936L711.9344 536.97186Q711.575 537.8781 711.2469 538.34686Q710.91876 538.83124 710.4969 539.1281Q710.075 539.425 709.45 539.58124Q708.825 539.7531 708.04376 539.7531Q707.2625 539.7531 706.4969 539.59686L706.2469 537.4406Q706.90314 537.5656 707.41876 537.5656Q708.3719 537.5656 708.825 537.0031Q709.29376 536.45624 709.52814 535.58124L705.59064 525.175ZM717.1219 539.7531Q717.9344 538.01874 718.2625 537.08124Q718.60626 536.15936 718.8875 534.95624Q719.16876 533.7375 719.29376 532.65936Q719.4344 531.5656 719.4344 530.425Q719.4344 528.09686 718.9344 526.01874Q718.45 523.9406 717.10626 520.9875L718.96564 520.9875Q720.45 523.08124 721.2625 525.4406Q722.075 527.8 722.075 530.22186Q722.075 532.2531 721.4344 534.59686Q720.7 537.20624 719.0125 539.7531L717.1219 539.7531Z" fill-rule="nonzero"/></svg>