<svg version="1.1" viewBox="0.0 0.0 1039.0 569.0" fill="none" stroke="none" stroke-linecap="square" stroke-miterlimit="10" width="1039" height="569" xmlns:xlink="http://www.w3.org/1999/xlink" xmlns="http://www.w3.org/2000/svg"><path fill="#ffffff" fill-opacity="0.0" d="M0 0L1039.0 0L1039.0 569.0L0 569.0L0 0Z" fill-rule="nonzero"/><path fill="#47a8bd" d="M519.5 28.45C602.9731 28.45 681.20636 69.13886 729.13513 137.48058C777.06396 205.8223 788.671 293.23682 760.2377 371.71805L519.5 284.5Z" fill-rule="nonzero"/><path fill="#f5e663" d="M760.2377 371.71805C752.06256 394.28275 740.7556 415.58603 726.6488 435.0024L519.5 284.5Z" fill-rule="nonzero"/><path fill="#ffad69" d="M726.6488 435.0024C678.4722 501.3118 601.4629 540.55 519.5 540.55L519.5 284.5Z" fill-rule="nonzero"/><path fill="#9c3848" d="M519.5 540.55C378.0875 540.55 263.45 425.9125 263.45 284.5C263.45 143.0875 378.0875 28.45 519.5 28.45L519.5 284.5Z" fill-rule="nonzero"/><path stroke="#000000" stroke-width="1.0" stroke-linejoin="round" stroke-linecap="round" d="M519.5 284.5L519.5 28.45C602.9731 28.45 681.20636 69.13886 729.13513 137.48058C777.06396 205.8223 788.671 293.23682 760.2377 371.71805" fill-rule="nonzero"/><path stroke="#000000" stroke-width="1.0" stroke-linejoin="round" stroke-linecap="round" d="M519.5 284.5L760.2377 371.71805C752.06256 394.28275 740.7556 415.58603 726.6488 435.0024" fill-rule="nonzero"/><path stroke="#000000" stroke-width="1.0" stroke-linejoin="round" stroke-linecap="round" d="M519.5 284.5L726.6488 435.0024C678.4722 501.3118 601.4629 540.55 519.5 540.55" fill-rule="nonzero"/><path stroke="#000000" stroke-width="1.0" stroke-linejoin="round" stroke-linecap="round" d="M519.5 284.5L519.5 540.55C378.0875 540.55 263.45 425.9125 263.45 284.5C263.45 143.0875 378.0875 28.45 519.5 28.45" fill-rule="nonzero"/><path fill="#232832" d="M29.325 271.40625L32.48125 271.40625Q33.559376 271.40625 34.121876 271.57812Q34.871876 271.79688 35.403126 272.375Q35.95 272.9375 36.23125 273.76562Q36.5125 274.57812 36.5125 275.78125Q36.5125 276.84375 36.2625 277.60938Q35.934376 278.54688 35.340626 279.125Q34.8875 279.57812 34.121876 279.8125Q33.54375 280.0 32.575 280.0L29.325 280.0L29.325 271.40625ZM31.059376 272.85938L31.059376 278.54688L32.340626 278.54688Q33.075 278.54688 33.403126 278.46875Q33.825 278.35938 34.090626 278.10938Q34.371876 277.85938 34.54375 277.28125Q34.73125 276.70312 34.73125 275.70312Q34.73125 274.71875 34.54375 274.1875Q34.371876 273.64062 34.059376 273.34375Q33.746876 273.04688 33.2625 272.9375Q32.8875 272.85938 31.825 272.85938L31.059376 272.85938ZM45.075 280.0L43.184376 280.0L42.434376 278.04688L38.996876 278.04688L38.29375 280.0L36.45 280.0L39.79375 271.40625L41.6375 271.40625L45.075 280.0ZM41.871876 276.59375L40.7 273.40625L39.528126 276.59375L41.871876 276.59375ZM44.965626 275.75Q44.965626 274.4375 45.371876 273.54688Q45.653126 272.89062 46.153126 272.375Q46.66875 271.85938 47.278126 271.60938Q48.075 271.26562 49.121876 271.26562Q51.028126 271.26562 52.16875 272.45312Q53.309376 273.625 53.309376 275.71875Q53.309376 277.79688 52.16875 278.96875Q51.04375 280.14062 49.153126 280.14062Q47.23125 280.14062 46.090626 278.98438Q44.965626 277.8125 44.965626 275.75ZM46.7625 275.70312Q46.7625 277.15625 47.434376 277.90625Q48.10625 278.65625 49.1375 278.65625Q50.184376 278.65625 50.840626 277.92188Q51.5125 277.17188 51.5125 275.67188Q51.5125 274.20312 50.85625 273.48438Q50.215626 272.75 49.1375 272.75Q48.075 272.75 47.41875 273.48438Q46.7625 274.21875 46.7625 275.70312ZM57.121876 277.70312L57.121876 276.0625L60.35625 276.0625L60.35625 277.70312L57.121876 277.70312ZM69.825 276.84375L71.49687 277.375Q71.12187 278.78125 70.21562 279.46875Q69.30937 280.14062 67.93437 280.14062Q66.21562 280.14062 65.10625 278.98438Q64.0125 277.8125 64.0125 275.78125Q64.0125 273.64062 65.12187 272.45312Q66.23125 271.26562 68.04375 271.26562Q69.62187 271.26562 70.60625 272.1875Q71.18437 272.75 71.48125 273.78125L69.7625 274.1875Q69.60625 273.51562 69.12187 273.14062Q68.6375 272.75 67.95 272.75Q66.99687 272.75 66.40312 273.4375Q65.80937 274.10938 65.80937 275.65625Q65.80937 277.28125 66.3875 277.96875Q66.98125 278.65625 67.91875 278.65625Q68.60625 278.65625 69.10625 278.21875Q69.60625 277.78125 69.825 276.84375ZM71.93437 276.79688Q71.93437 275.98438 72.34062 275.21875Q72.74687 274.4375 73.48125 274.04688Q74.21562 273.64062 75.1375 273.64062Q76.54375 273.64062 77.45 274.5625Q78.35625 275.46875 78.35625 276.875Q78.35625 278.28125 77.43437 279.21875Q76.52812 280.14062 75.15312 280.14062Q74.29375 280.14062 73.5125 279.75Q72.74687 279.35938 72.34062 278.625Q71.93437 277.875 71.93437 276.79688ZM73.62187 276.89062Q73.62187 277.8125 74.05937 278.3125Q74.49687 278.79688 75.1375 278.79688Q75.79375 278.79688 76.21562 278.3125Q76.65312 277.8125 76.65312 276.875Q76.65312 275.96875 76.21562 275.48438Q75.79375 274.98438 75.1375 274.98438Q74.49687 274.98438 74.05937 275.48438Q73.62187 275.96875 73.62187 276.89062ZM79.18437 273.78125L80.7 273.78125L80.7 274.625Q81.52812 273.64062 82.65312 273.64062Q83.24687 273.64062 83.68437 273.89062Q84.12187 274.125 84.40312 274.625Q84.80937 274.125 85.27812 273.89062Q85.7625 273.64062 86.30937 273.64062Q86.98125 273.64062 87.45 273.92188Q87.93437 274.1875 88.16875 274.73438Q88.34062 275.125 88.34062 276.01562L88.34062 280.0L86.7 280.0L86.7 276.4375Q86.7 275.51562 86.52812 275.25Q86.29375 274.89062 85.825 274.89062Q85.48125 274.89062 85.16875 275.10938Q84.87187 275.3125 84.73125 275.71875Q84.59062 276.125 84.59062 277.01562L84.59062 280.0L82.95 280.0L82.95 276.59375Q82.95 275.6875 82.85625 275.42188Q82.77812 275.15625 82.59062 275.03125Q82.40312 274.89062 82.09062 274.89062Q81.71562 274.89062 81.40312 275.10938Q81.10625 275.3125 80.96562 275.70312Q80.84062 276.07812 80.84062 276.96875L80.84062 280.0L79.18437 280.0L79.18437 273.78125ZM90.18437 273.78125L91.7 273.78125L91.7 274.625Q92.52812 273.64062 93.65312 273.64062Q94.24687 273.64062 94.68437 273.89062Q95.12187 274.125 95.40312 274.625Q95.80937 274.125 96.27812 273.89062Q96.7625 273.64062 97.30937 273.64062Q97.98125 273.64062 98.45 273.92188Q98.93437 274.1875 99.16875 274.73438Q99.34062 275.125 99.34062 276.01562L99.34062 280.0L97.7 280.0L97.7 276.4375Q97.7 275.51562 97.52812 275.25Q97.29375 274.89062 96.825 274.89062Q96.48125 274.89062 96.16875 275.10938Q95.87187 275.3125 95.73125 275.71875Q95.59062 276.125 95.59062 277.01562L95.59062 280.0L93.95 280.0L93.95 276.59375Q93.95 275.6875 93.85625 275.42188Q93.77812 275.15625 93.59062 275.03125Q93.40312 274.89062 93.09062 274.89062Q92.71562 274.89062 92.40312 275.10938Q92.10625 275.3125 91.96562 275.70312Q91.84062 276.07812 91.84062 276.96875L91.84062 280.0L90.18437 280.0L90.18437 273.78125ZM105.40312 280.0L105.40312 279.0625Q105.075 279.5625 104.5125 279.85938Q103.96562 280.14062 103.34062 280.14062Q102.71562 280.14062 102.21562 279.875Q101.71562 279.59375 101.49687 279.09375Q101.27812 278.59375 101.27812 277.71875L101.27812 273.78125L102.91875 273.78125L102.91875 276.64062Q102.91875 277.95312 103.0125 278.25Q103.10625 278.54688 103.34062 278.71875Q103.59062 278.89062 103.95 278.89062Q104.37187 278.89062 104.7 278.65625Q105.04375 278.42188 105.16875 278.07812Q105.29375 277.73438 105.29375 276.40625L105.29375 273.78125L106.93437 273.78125L106.93437 280.0L105.40312 280.0ZM113.96562 280.0L112.325 280.0L112.325 276.82812Q112.325 275.8125 112.21562 275.51562Q112.12187 275.21875 111.87187 275.0625Q111.6375 274.89062 111.30937 274.89062Q110.87187 274.89062 110.52812 275.125Q110.2 275.35938 110.075 275.75Q109.95 276.14062 109.95 277.1875L109.95 280.0L108.29375 280.0L108.29375 273.78125L109.825 273.78125L109.825 274.6875Q110.6375 273.64062 111.8875 273.64062Q112.41875 273.64062 112.87187 273.84375Q113.325 274.03125 113.55937 274.34375Q113.79375 274.64062 113.87187 275.03125Q113.96562 275.40625 113.96562 276.125L113.96562 280.0ZM115.30937 272.9375L115.30937 271.40625L116.96562 271.40625L116.96562 272.9375L115.30937 272.9375ZM115.30937 280.0L115.30937 273.78125L116.96562 273.78125L116.96562 280.0L115.30937 280.0ZM121.16875 273.78125L121.16875 275.09375L120.04375 275.09375L120.04375 277.59375Q120.04375 278.35938 120.075 278.48438Q120.10625 278.60938 120.21562 278.70312Q120.34062 278.78125 120.49687 278.78125Q120.73125 278.78125 121.15312 278.60938L121.29375 279.89062Q120.73125 280.14062 119.99687 280.14062Q119.55937 280.14062 119.2 280.0Q118.84062 279.84375 118.66875 279.60938Q118.5125 279.35938 118.43437 278.96875Q118.3875 278.67188 118.3875 277.79688L118.3875 275.09375L117.6375 275.09375L117.6375 273.78125L118.3875 273.78125L118.3875 272.54688L120.04375 271.57812L120.04375 273.78125L121.16875 273.78125ZM121.52812 273.78125L123.27812 273.78125L124.77812 278.1875L126.23125 273.78125L127.93437 273.78125L125.73125 279.76562L125.34062 280.84375Q125.12187 281.39062 124.91875 281.67188Q124.73125 281.96875 124.46562 282.14062Q124.21562 282.32812 123.84062 282.42188Q123.48125 282.53125 123.0125 282.53125Q122.52812 282.53125 122.075 282.42188L121.93437 281.14062Q122.325 281.21875 122.62187 281.21875Q123.2 281.21875 123.46562 280.875Q123.74687 280.54688 123.90312 280.01562L121.52812 273.78125ZM134.04375 282.53125L132.91875 282.53125Q132.0125 281.17188 131.54375 279.71875Q131.075 278.25 131.075 276.89062Q131.075 275.1875 131.65312 273.6875Q132.16875 272.375 132.93437 271.26562L134.05937 271.26562Q133.2625 273.03125 132.95 274.28125Q132.65312 275.53125 132.65312 276.92188Q132.65312 277.89062 132.825 278.90625Q133.0125 279.90625 133.325 280.8125Q133.52812 281.40625 134.04375 282.53125ZM136.54375 275.67188L135.04375 275.40625Q135.29375 274.5 135.90312 274.07812Q136.52812 273.64062 137.74687 273.64062Q138.84062 273.64062 139.37187 273.90625Q139.91875 274.15625 140.1375 274.5625Q140.35625 274.95312 140.35625 276.03125L140.34062 277.95312Q140.34062 278.78125 140.41875 279.17188Q140.49687 279.54688 140.71562 280.0L139.09062 280.0Q139.02812 279.82812 138.93437 279.51562Q138.8875 279.35938 138.87187 279.3125Q138.45 279.73438 137.96562 279.9375Q137.49687 280.14062 136.95 280.14062Q135.98125 280.14062 135.41875 279.625Q134.87187 279.09375 134.87187 278.29688Q134.87187 277.76562 135.12187 277.35938Q135.3875 276.95312 135.84062 276.73438Q136.29375 276.5 137.15312 276.34375Q138.29375 276.125 138.74687 275.9375L138.74687 275.78125Q138.74687 275.29688 138.5125 275.09375Q138.27812 274.89062 137.62187 274.89062Q137.18437 274.89062 136.93437 275.0625Q136.7 275.23438 136.54375 275.67188ZM138.74687 277.01562Q138.43437 277.10938 137.74687 277.26562Q137.05937 277.40625 136.84062 277.54688Q136.52812 277.78125 136.52812 278.125Q136.52812 278.46875 136.77812 278.73438Q137.04375 278.98438 137.43437 278.98438Q137.8875 278.98438 138.29375 278.6875Q138.59062 278.46875 138.68437 278.14062Q138.74687 277.9375 138.74687 277.34375L138.74687 277.01562ZM142.30937 272.9375L142.30937 271.40625L143.96562 271.40625L143.96562 272.9375L142.30937 272.9375ZM142.30937 280.0L142.30937 273.78125L143.96562 273.78125L143.96562 280.0L142.30937 280.0ZM151.0125 280.0L149.49687 280.0L149.49687 279.07812Q149.10625 279.625 148.59062 279.89062Q148.075 280.14062 147.54375 280.14062Q146.46562 280.14062 145.7 279.28125Q144.95 278.40625 144.95 276.85938Q144.95 275.28125 145.68437 274.46875Q146.43437 273.64062 147.575 273.64062Q148.60625 273.64062 149.37187 274.5L149.37187 271.40625L151.0125 271.40625L151.0125 280.0ZM146.62187 276.75Q146.62187 277.75 146.90312 278.1875Q147.29375 278.84375 148.0125 278.84375Q148.575 278.84375 148.96562 278.35938Q149.37187 277.875 149.37187 276.90625Q149.37187 275.84375 148.98125 275.375Q148.60625 274.89062 147.99687 274.89062Q147.41875 274.89062 147.0125 275.35938Q146.62187 275.82812 146.62187 276.75ZM153.8875 280.0L152.24687 280.0L152.24687 273.78125L153.77812 273.78125L153.77812 274.65625Q154.16875 274.03125 154.48125 273.84375Q154.79375 273.64062 155.18437 273.64062Q155.74687 273.64062 156.27812 273.95312L155.7625 275.375Q155.34062 275.10938 154.99687 275.10938Q154.6375 275.10938 154.40312 275.3125Q154.16875 275.5 154.02812 276.0Q153.8875 276.48438 153.8875 278.07812L153.8875 280.0ZM156.93437 276.79688Q156.93437 275.98438 157.34062 275.21875Q157.74687 274.4375 158.48125 274.04688Q159.21562 273.64062 160.1375 273.64062Q161.54375 273.64062 162.45 274.5625Q163.35625 275.46875 163.35625 276.875Q163.35625 278.28125 162.43437 279.21875Q161.52812 280.14062 160.15312 280.14062Q159.29375 280.14062 158.5125 279.75Q157.74687 279.35938 157.34062 278.625Q156.93437 277.875 156.93437 276.79688ZM158.62187 276.89062Q158.62187 277.8125 159.05937 278.3125Q159.49687 278.79688 160.1375 278.79688Q160.79375 278.79688 161.21562 278.3125Q161.65312 277.8125 161.65312 276.875Q161.65312 275.96875 161.21562 275.48438Q160.79375 274.98438 160.1375 274.98438Q159.49687 274.98438 159.05937 275.48438Q158.62187 275.96875 158.62187 276.89062ZM164.2625 273.78125L165.79375 273.78125L165.79375 274.6875Q166.10625 274.21875 166.60625 273.9375Q167.12187 273.64062 167.74687 273.64062Q168.825 273.64062 169.575 274.48438Q170.34062 275.32812 170.34062 276.85938Q170.34062 278.40625 169.575 279.28125Q168.80937 280.14062 167.73125 280.14062Q167.21562 280.14062 166.79375 279.9375Q166.37187 279.73438 165.91875 279.23438L165.91875 282.375L164.2625 282.375L164.2625 273.78125ZM165.8875 276.78125Q165.8875 277.82812 166.30937 278.32812Q166.73125 278.82812 167.325 278.82812Q167.90312 278.82812 168.27812 278.375Q168.65312 277.90625 168.65312 276.85938Q168.65312 275.89062 168.2625 275.42188Q167.87187 274.9375 167.29375 274.9375Q166.68437 274.9375 166.27812 275.40625Q165.8875 275.875 165.8875 276.78125ZM181.91875 278.95312L180.93437 280.21875Q180.2 279.85938 179.52812 279.23438Q178.99687 279.70312 178.40312 279.9375Q177.825 280.15625 177.0125 280.15625Q175.41875 280.15625 174.60625 279.25Q173.98125 278.54688 173.98125 277.64062Q173.98125 276.8125 174.46562 276.15625Q174.96562 275.5 175.93437 275.01562Q175.49687 274.48438 175.27812 274.01562Q175.05937 273.54688 175.05937 273.125Q175.05937 272.34375 175.68437 271.8125Q176.30937 271.26562 177.46562 271.26562Q178.575 271.26562 179.2 271.84375Q179.825 272.40625 179.825 273.21875Q179.825 273.73438 179.5125 274.20312Q179.2 274.67188 178.2625 275.26562L179.45 276.84375Q179.66875 276.46875 179.825 275.875L181.30937 276.20312Q181.09062 277.0 180.91875 277.375Q180.7625 277.73438 180.575 277.98438Q180.84062 278.23438 181.27812 278.54688Q181.71562 278.84375 181.91875 278.95312ZM177.43437 274.28125L177.8875 273.9375Q178.37187 273.5625 178.37187 273.1875Q178.37187 272.875 178.1375 272.65625Q177.90312 272.42188 177.49687 272.42188Q177.10625 272.42188 176.8875 272.625Q176.66875 272.8125 176.66875 273.07812Q176.66875 273.375 177.04375 273.8125L177.43437 274.28125ZM176.79375 276.0625Q176.23125 276.35938 175.95 276.76562Q175.66875 277.15625 175.66875 277.57812Q175.66875 278.125 176.0125 278.46875Q176.35625 278.79688 176.95 278.79688Q177.34062 278.79688 177.68437 278.64062Q178.04375 278.48438 178.46562 278.14062L176.79375 276.0625ZM189.16875 273.78125L189.16875 275.09375L188.04375 275.09375L188.04375 277.59375Q188.04375 278.35938 188.075 278.48438Q188.10625 278.60938 188.21562 278.70312Q188.34062 278.78125 188.49687 278.78125Q188.73125 278.78125 189.15312 278.60938L189.29375 279.89062Q188.73125 280.14062 187.99687 280.14062Q187.55937 280.14062 187.2 280.0Q186.84062 279.84375 186.66875 279.60938Q186.5125 279.35938 186.43437 278.96875Q186.3875 278.67188 186.3875 277.79688L186.3875 275.09375L185.6375 275.09375L185.6375 273.78125L186.3875 273.78125L186.3875 272.54688L188.04375 271.57812L188.04375 273.78125L189.16875 273.78125ZM191.8875 280.0L190.24687 280.0L190.24687 273.78125L191.77812 273.78125L191.77812 274.65625Q192.16875 274.03125 192.48125 273.84375Q192.79375 273.64062 193.18437 273.64062Q193.74687 273.64062 194.27812 273.95312L193.7625 275.375Q193.34062 275.10938 192.99687 275.10938Q192.6375 275.10938 192.40312 275.3125Q192.16875 275.5 192.02812 276.0Q191.8875 276.48438 191.8875 278.07812L191.8875 280.0ZM198.91875 278.01562L200.55937 278.29688Q200.24687 279.20312 199.55937 279.67188Q198.87187 280.14062 197.85625 280.14062Q196.23125 280.14062 195.45 279.07812Q194.825 278.23438 194.825 276.9375Q194.825 275.39062 195.6375 274.51562Q196.45 273.64062 197.68437 273.64062Q199.075 273.64062 199.87187 274.5625Q200.68437 275.46875 200.6375 277.35938L196.5125 277.35938Q196.54375 278.09375 196.91875 278.5Q197.29375 278.90625 197.87187 278.90625Q198.24687 278.90625 198.5125 278.70312Q198.77812 278.48438 198.91875 278.01562ZM199.0125 276.35938Q198.99687 275.64062 198.6375 275.26562Q198.29375 274.89062 197.77812 274.89062Q197.24687 274.89062 196.8875 275.28125Q196.54375 275.6875 196.54375 276.35938L199.0125 276.35938ZM203.54375 275.67188L202.04375 275.40625Q202.29375 274.5 202.90312 274.07812Q203.52812 273.64062 204.74687 273.64062Q205.84062 273.64062 206.37187 273.90625Q206.91875 274.15625 207.1375 274.5625Q207.35625 274.95312 207.35625 276.03125L207.34062 277.95312Q207.34062 278.78125 207.41875 279.17188Q207.49687 279.54688 207.71562 280.0L206.09062 280.0Q206.02812 279.82812 205.93437 279.51562Q205.8875 279.35938 205.87187 279.3125Q205.45 279.73438 204.96562 279.9375Q204.49687 280.14062 203.95 280.14062Q202.98125 280.14062 202.41875 279.625Q201.87187 279.09375 201.87187 278.29688Q201.87187 277.76562 202.12187 277.35938Q202.3875 276.95312 202.84062 276.73438Q203.29375 276.5 204.15312 276.34375Q205.29375 276.125 205.74687 275.9375L205.74687 275.78125Q205.74687 275.29688 205.5125 275.09375Q205.27812 274.89062 204.62187 274.89062Q204.18437 274.89062 203.93437 275.0625Q203.7 275.23438 203.54375 275.67188ZM205.74687 277.01562Q205.43437 277.10938 204.74687 277.26562Q204.05937 277.40625 203.84062 277.54688Q203.52812 277.78125 203.52812 278.125Q203.52812 278.46875 203.77812 278.73438Q204.04375 278.98438 204.43437 278.98438Q204.8875 278.98438 205.29375 278.6875Q205.59062 278.46875 205.68437 278.14062Q205.74687 277.9375 205.74687 277.34375L205.74687 277.01562ZM208.73125 278.21875L210.3875 277.96875Q210.49687 278.45312 210.80937 278.70312Q211.1375 278.95312 211.71562 278.95312Q212.35625 278.95312 212.66875 278.71875Q212.8875 278.54688 212.8875 278.28125Q212.8875 278.09375 212.77812 277.96875Q212.65312 277.84375 212.23125 277.75Q210.23125 277.3125 209.7 276.95312Q208.96562 276.4375 208.96562 275.54688Q208.96562 274.73438 209.59062 274.1875Q210.23125 273.64062 211.575 273.64062Q212.85625 273.64062 213.48125 274.0625Q214.10625 274.46875 214.34062 275.28125L212.77812 275.5625Q212.68437 275.20312 212.40312 275.01562Q212.12187 274.8125 211.60625 274.8125Q210.96562 274.8125 210.68437 275.0Q210.49687 275.125 210.49687 275.32812Q210.49687 275.51562 210.65312 275.64062Q210.87187 275.79688 212.18437 276.09375Q213.5125 276.39062 214.02812 276.82812Q214.54375 277.26562 214.54375 278.04688Q214.54375 278.90625 213.825 279.53125Q213.12187 280.14062 211.71562 280.14062Q210.45 280.14062 209.7 279.625Q208.96562 279.10938 208.73125 278.21875ZM220.40312 280.0L220.40312 279.0625Q220.075 279.5625 219.5125 279.85938Q218.96562 280.14062 218.34062 280.14062Q217.71562 280.14062 217.21562 279.875Q216.71562 279.59375 216.49687 279.09375Q216.27812 278.59375 216.27812 277.71875L216.27812 273.78125L217.91875 273.78125L217.91875 276.64062Q217.91875 277.95312 218.0125 278.25Q218.10625 278.54688 218.34062 278.71875Q218.59062 278.89062 218.95 278.89062Q219.37187 278.89062 219.7 278.65625Q220.04375 278.42188 220.16875 278.07812Q220.29375 277.73438 220.29375 276.40625L220.29375 273.78125L221.93437 273.78125L221.93437 280.0L220.40312 280.0ZM224.8875 280.0L223.24687 280.0L223.24687 273.78125L224.77812 273.78125L224.77812 274.65625Q225.16875 274.03125 225.48125 273.84375Q225.79375 273.64062 226.18437 273.64062Q226.74687 273.64062 227.27812 273.95312L226.7625 275.375Q226.34062 275.10938 225.99687 275.10938Q225.6375 275.10938 225.40312 275.3125Q225.16875 275.5 225.02812 276.0Q224.8875 276.48438 224.8875 278.07812L224.8875 280.0ZM227.52812 273.78125L229.27812 273.78125L230.77812 278.1875L232.23125 273.78125L233.93437 273.78125L231.73125 279.76562L231.34062 280.84375Q231.12187 281.39062 230.91875 281.67188Q230.73125 281.96875 230.46562 282.14062Q230.21562 282.32812 229.84062 282.42188Q229.48125 282.53125 229.0125 282.53125Q228.52812 282.53125 228.075 282.42188L227.93437 281.14062Q228.325 281.21875 228.62187 281.21875Q229.2 281.21875 229.46562 280.875Q229.74687 280.54688 229.90312 280.01562L227.52812 273.78125ZM233.85625 282.53125Q234.34062 281.48438 234.54375 280.92188Q234.74687 280.375 234.90312 279.65625Q235.075 278.92188 235.15312 278.26562Q235.24687 277.60938 235.24687 276.92188Q235.24687 275.53125 234.95 274.28125Q234.65312 273.03125 233.84062 271.26562L234.96562 271.26562Q235.84062 272.51562 236.325 273.9375Q236.825 275.34375 236.825 276.79688Q236.825 278.03125 236.43437 279.42188Q235.99687 281.0 234.99687 282.53125L233.85625 282.53125Z" fill-rule="nonzero"/><path fill="#9e9e9e" d="M28.98125 294.79688L30.621876 294.625Q30.7 295.17188 31.04375 295.5Q31.3875 295.82812 31.840626 295.82812Q32.35625 295.82812 32.715626 295.40625Q33.075 294.98438 33.075 294.14062Q33.075 293.35938 32.715626 292.96875Q32.35625 292.5625 31.79375 292.5625Q31.075 292.5625 30.5125 293.1875L29.184376 293.0L30.028126 288.53125L34.3875 288.53125L34.3875 290.0625L31.278126 290.0625L31.0125 291.53125Q31.575 291.25 32.1375 291.25Q33.23125 291.25 33.996876 292.04688Q34.7625 292.84375 34.7625 294.10938Q34.7625 295.17188 34.153126 296.01562Q33.309376 297.14062 31.825 297.14062Q30.6375 297.14062 29.8875 296.51562Q29.1375 295.875 28.98125 294.79688ZM38.746876 288.375Q39.996876 288.375 40.7 289.26562Q41.528126 290.3125 41.528126 292.76562Q41.528126 295.20312 40.684376 296.26562Q39.996876 297.14062 38.746876 297.14062Q37.496876 297.14062 36.715626 296.1875Q35.95 295.21875 35.95 292.75Q35.95 290.3125 36.79375 289.25Q37.496876 288.375 38.746876 288.375ZM38.746876 289.73438Q38.45 289.73438 38.215626 289.9375Q37.98125 290.125 37.840626 290.60938Q37.684376 291.25 37.684376 292.76562Q37.684376 294.28125 37.825 294.84375Q37.98125 295.40625 38.215626 295.59375Q38.45 295.78125 38.746876 295.78125Q39.04375 295.78125 39.278126 295.59375Q39.5125 295.40625 39.6375 294.90625Q39.809376 294.28125 39.809376 292.76562Q39.809376 291.25 39.653126 290.6875Q39.5125 290.125 39.278126 289.9375Q39.04375 289.73438 38.746876 289.73438ZM43.309376 297.0L43.309376 295.35938L44.965626 295.35938L44.965626 297.0L43.309376 297.0ZM48.746876 288.375Q49.996876 288.375 50.7 289.26562Q51.528126 290.3125 51.528126 292.76562Q51.528126 295.20312 50.684376 296.26562Q49.996876 297.14062 48.746876 297.14062Q47.496876 297.14062 46.715626 296.1875Q45.95 295.21875 45.95 292.75Q45.95 290.3125 46.79375 289.25Q47.496876 288.375 48.746876 288.375ZM48.746876 289.73438Q48.45 289.73438 48.215626 289.9375Q47.98125 290.125 47.840626 290.60938Q47.684376 291.25 47.684376 292.76562Q47.684376 294.28125 47.825 294.84375Q47.98125 295.40625 48.215626 295.59375Q48.45 295.78125 48.746876 295.78125Q49.04375 295.78125 49.278126 295.59375Q49.5125 295.40625 49.6375 294.90625Q49.809376 294.28125 49.809376 292.76562Q49.809376 291.25 49.653126 290.6875Q49.5125 290.125 49.278126 289.9375Q49.04375 289.73438 48.746876 289.73438ZM52.965626 290.53125Q52.965626 289.375 53.465626 288.82812Q53.98125 288.26562 54.85625 288.26562Q55.746876 288.26562 56.246876 288.82812Q56.7625 289.375 56.7625 290.53125Q56.7625 291.6875 56.246876 292.25Q55.746876 292.79688 54.8875 292.79688Q53.98125 292.79688 53.465626 292.25Q52.965626 291.6875 52.965626 290.53125ZM54.2625 290.51562Q54.2625 291.35938 54.45 291.64062Q54.590626 291.85938 54.85625 291.85938Q55.121876 291.85938 55.2625 291.64062Q55.45 291.35938 55.45 290.51562Q55.45 289.6875 55.2625 289.40625Q55.121876 289.1875 54.85625 289.1875Q54.590626 289.1875 54.45 289.39062Q54.2625 289.6875 54.2625 290.51562ZM56.10625 297.32812L54.8875 297.32812L59.465626 288.26562L60.653126 288.26562L56.10625 297.32812ZM58.7625 295.07812Q58.7625 293.92188 59.2625 293.35938Q59.778126 292.79688 60.653126 292.79688Q61.54375 292.79688 62.04375 293.35938Q62.559376 293.92188 62.559376 295.07812Q62.559376 296.23438 62.04375 296.79688Q61.54375 297.34375 60.684376 297.34375Q59.778126 297.34375 59.2625 296.79688Q58.7625 296.23438 58.7625 295.07812ZM60.04375 295.0625Q60.04375 295.90625 60.246876 296.1875Q60.3875 296.40625 60.653126 296.40625Q60.91875 296.40625 61.059376 296.1875Q61.246876 295.90625 61.246876 295.0625Q61.246876 294.23438 61.059376 293.9375Q60.91875 293.73438 60.653126 293.73438Q60.3875 293.73438 60.246876 293.9375Q60.04375 294.23438 60.04375 295.0625Z" fill-rule="nonzero"/><path stroke="#757575" stroke-width="1.0" stroke-linecap="butt" d="M28.45 284.5L257.45 284.5L276.2525 284.5" fill-rule="nonzero"/><path fill="#9e9e9e" d="M278.2525 284.5C278.2525 283.39542 277.35706 282.5 276.2525 282.5C275.14792 282.5 274.2525 283.39542 274.2525 284.5C274.2525 285.60458 275.14792 286.5 276.2525 286.5C277.35706 286.5 278.2525 285.60458 278.2525 284.5" fill-rule="nonzero"/><path fill="#232832" d="M856.4406 140.33154L856.4406 131.7378L862.33124 131.7378L862.33124 133.19092L858.175 133.19092L858.175 135.22217L861.7531 135.22217L861.7531 136.6753L858.175 136.6753L858.175 140.33154L856.4406 140.33154ZM864.3625 140.33154L864.3625 133.19092L861.8156 133.19092L861.8156 131.7378L868.6281 131.7378L868.6281 133.19092L866.09686 133.19092L866.09686 140.33154L864.3625 140.33154ZM869.47186 140.33154L869.47186 131.81592L871.20624 131.81592L871.20624 138.87842L875.51874 138.87842L875.51874 140.33154L869.47186 140.33154ZM879.47186 140.33154L879.47186 131.81592L881.20624 131.81592L881.20624 138.87842L885.51874 138.87842L885.51874 140.33154L879.47186 140.33154ZM887.64374 136.00342L886.14374 135.7378Q886.39374 134.83154 887.0031 134.40967Q887.6281 133.97217 888.84686 133.97217Q889.9406 133.97217 890.47186 134.2378Q891.01874 134.4878 891.2375 134.89404Q891.45624 135.28467 891.45624 136.3628L891.4406 138.28467Q891.4406 139.1128 891.51874 139.50342Q891.59686 139.87842 891.8156 140.33154L890.1906 140.33154Q890.1281 140.15967 890.03436 139.84717Q889.9875 139.69092 889.97186 139.64404Q889.55 140.06592 889.0656 140.26904Q888.59686 140.47217 888.05 140.47217Q887.08124 140.47217 886.51874 139.95654Q885.97186 139.4253 885.97186 138.62842Q885.97186 138.09717 886.22186 137.69092Q886.4875 137.28467 886.9406 137.06592Q887.39374 136.83154 888.2531 136.6753Q889.39374 136.45654 889.84686 136.26904L889.84686 136.1128Q889.84686 135.62842 889.6125 135.4253Q889.3781 135.22217 888.72186 135.22217Q888.28436 135.22217 888.03436 135.39404Q887.8 135.56592 887.64374 136.00342ZM889.84686 137.34717Q889.53436 137.44092 888.84686 137.59717Q888.15936 137.7378 887.9406 137.87842Q887.6281 138.1128 887.6281 138.45654Q887.6281 138.8003 887.8781 139.06592Q888.14374 139.31592 888.53436 139.31592Q888.9875 139.31592 889.39374 139.01904Q889.6906 138.8003 889.78436 138.47217Q889.84686 138.26904 889.84686 137.6753L889.84686 137.34717ZM893.34686 140.33154L893.34686 131.7378L894.9875 131.7378L894.9875 134.83154Q895.7531 133.97217 896.8 133.97217Q897.925 133.97217 898.675 134.8003Q899.425 135.6128 899.425 137.15967Q899.425 138.75342 898.65936 139.6128Q897.89374 140.47217 896.8156 140.47217Q896.28436 140.47217 895.76874 140.20654Q895.2531 139.94092 894.8781 139.40967L894.8781 140.33154L893.34686 140.33154ZM894.97186 137.08154Q894.97186 138.0503 895.28436 138.51904Q895.70624 139.1753 896.425 139.1753Q896.95624 139.1753 897.34686 138.70654Q897.7375 138.2378 897.7375 137.2378Q897.7375 136.1753 897.34686 135.70654Q896.95624 135.22217 896.34686 135.22217Q895.76874 135.22217 895.3625 135.69092Q894.97186 136.14404 894.97186 137.08154ZM899.83124 138.5503L901.4875 138.3003Q901.59686 138.78467 901.90936 139.03467Q902.2375 139.28467 902.8156 139.28467Q903.45624 139.28467 903.76874 139.0503Q903.9875 138.87842 903.9875 138.6128Q903.9875 138.4253 903.8781 138.3003Q903.7531 138.1753 903.33124 138.08154Q901.33124 137.64404 900.8 137.28467Q900.0656 136.76904 900.0656 135.87842Q900.0656 135.06592 900.6906 134.51904Q901.33124 133.97217 902.675 133.97217Q903.95624 133.97217 904.58124 134.39404Q905.20624 134.8003 905.4406 135.6128L903.8781 135.89404Q903.78436 135.53467 903.5031 135.34717Q903.22186 135.14404 902.70624 135.14404Q902.0656 135.14404 901.78436 135.33154Q901.59686 135.45654 901.59686 135.65967Q901.59686 135.84717 901.7531 135.97217Q901.97186 136.12842 903.28436 136.4253Q904.6125 136.72217 905.1281 137.15967Q905.64374 137.59717 905.64374 138.37842Q905.64374 139.2378 904.925 139.8628Q904.22186 140.47217 902.8156 140.47217Q901.55 140.47217 900.8 139.95654Q900.0656 139.44092 899.83124 138.5503ZM910.22186 138.03467L910.22186 136.39404L913.45624 136.39404L913.45624 138.03467L910.22186 138.03467ZM919.3625 140.33154L919.3625 133.19092L916.8156 133.19092L916.8156 131.7378L923.6281 131.7378L923.6281 133.19092L921.09686 133.19092L921.09686 140.33154L919.3625 140.33154ZM928.01874 138.34717L929.65936 138.62842Q929.34686 139.53467 928.65936 140.00342Q927.97186 140.47217 926.95624 140.47217Q925.33124 140.47217 924.55 139.40967Q923.925 138.56592 923.925 137.26904Q923.925 135.72217 924.7375 134.84717Q925.55 133.97217 926.78436 133.97217Q928.175 133.97217 928.97186 134.89404Q929.78436 135.8003 929.7375 137.69092L925.6125 137.69092Q925.64374 138.4253 926.01874 138.83154Q926.39374 139.2378 926.97186 139.2378Q927.34686 139.2378 927.6125 139.03467Q927.8781 138.81592 928.01874 138.34717ZM928.1125 136.69092Q928.09686 135.97217 927.7375 135.59717Q927.39374 135.22217 926.8781 135.22217Q926.34686 135.22217 925.9875 135.6128Q925.64374 136.01904 925.64374 136.69092L928.1125 136.69092ZM932.64374 136.00342L931.14374 135.7378Q931.39374 134.83154 932.0031 134.40967Q932.6281 133.97217 933.84686 133.97217Q934.9406 133.97217 935.47186 134.2378Q936.01874 134.4878 936.2375 134.89404Q936.45624 135.28467 936.45624 136.3628L936.4406 138.28467Q936.4406 139.1128 936.51874 139.50342Q936.59686 139.87842 936.8156 140.33154L935.1906 140.33154Q935.1281 140.15967 935.03436 139.84717Q934.9875 139.69092 934.97186 139.64404Q934.55 140.06592 934.0656 140.26904Q933.59686 140.47217 933.05 140.47217Q932.08124 140.47217 931.51874 139.95654Q930.97186 139.4253 930.97186 138.62842Q930.97186 138.09717 931.22186 137.69092Q931.4875 137.28467 931.9406 137.06592Q932.39374 136.83154 933.2531 136.6753Q934.39374 136.45654 934.84686 136.26904L934.84686 136.1128Q934.84686 135.62842 934.6125 135.4253Q934.3781 135.22217 933.72186 135.22217Q933.28436 135.22217 933.03436 135.39404Q932.8 135.56592 932.64374 136.00342ZM934.84686 137.34717Q934.53436 137.44092 933.84686 137.59717Q933.15936 137.7378 932.9406 137.87842Q932.6281 138.1128 932.6281 138.45654Q932.6281 138.8003 932.8781 139.06592Q933.14374 139.31592 933.53436 139.31592Q933.9875 139.31592 934.39374 139.01904Q934.6906 138.8003 934.78436 138.47217Q934.84686 138.26904 934.84686 137.6753L934.84686 137.34717ZM938.28436 134.1128L939.8 134.1128L939.8 134.95654Q940.6281 133.97217 941.7531 133.97217Q942.34686 133.97217 942.78436 134.22217Q943.22186 134.45654 943.5031 134.95654Q943.90936 134.45654 944.3781 134.22217Q944.8625 133.97217 945.40936 133.97217Q946.08124 133.97217 946.55 134.25342Q947.03436 134.51904 947.26874 135.06592Q947.4406 135.45654 947.4406 136.34717L947.4406 140.33154L945.8 140.33154L945.8 136.76904Q945.8 135.84717 945.6281 135.58154Q945.39374 135.22217 944.925 135.22217Q944.58124 135.22217 944.26874 135.44092Q943.97186 135.64404 943.83124 136.0503Q943.6906 136.45654 943.6906 137.34717L943.6906 140.33154L942.05 140.33154L942.05 136.9253Q942.05 136.01904 941.95624 135.75342Q941.8781 135.4878 941.6906 135.3628Q941.5031 135.22217 941.1906 135.22217Q940.8156 135.22217 940.5031 135.44092Q940.20624 135.64404 940.0656 136.03467Q939.9406 136.40967 939.9406 137.3003L939.9406 140.33154L938.28436 140.33154L938.28436 134.1128ZM960.01874 139.28467L959.03436 140.5503Q958.3 140.19092 957.6281 139.56592Q957.09686 140.03467 956.5031 140.26904Q955.925 140.4878 955.1125 140.4878Q953.51874 140.4878 952.70624 139.58154Q952.08124 138.87842 952.08124 137.97217Q952.08124 137.14404 952.5656 136.4878Q953.0656 135.83154 954.03436 135.34717Q953.59686 134.81592 953.3781 134.34717Q953.15936 133.87842 953.15936 133.45654Q953.15936 132.6753 953.78436 132.14404Q954.40936 131.59717 955.5656 131.59717Q956.675 131.59717 957.3 132.1753Q957.925 132.7378 957.925 133.5503Q957.925 134.06592 957.6125 134.53467Q957.3 135.00342 956.3625 135.59717L957.55 137.1753Q957.76874 136.8003 957.925 136.20654L959.40936 136.53467Q959.1906 137.33154 959.01874 137.70654Q958.8625 138.06592 958.675 138.31592Q958.9406 138.56592 959.3781 138.87842Q959.8156 139.1753 960.01874 139.28467ZM955.53436 134.6128L955.9875 134.26904Q956.47186 133.89404 956.47186 133.51904Q956.47186 133.20654 956.2375 132.9878Q956.0031 132.75342 955.59686 132.75342Q955.20624 132.75342 954.9875 132.95654Q954.76874 133.14404 954.76874 133.40967Q954.76874 133.70654 955.14374 134.14404L955.53436 134.6128ZM954.89374 136.39404Q954.33124 136.69092 954.05 137.09717Q953.76874 137.4878 953.76874 137.90967Q953.76874 138.45654 954.1125 138.8003Q954.45624 139.12842 955.05 139.12842Q955.4406 139.12842 955.78436 138.97217Q956.14374 138.81592 956.5656 138.47217L954.89374 136.39404ZM964.425 140.33154L964.425 131.7378L968.08124 131.7378Q969.45624 131.7378 970.08124 131.97217Q970.70624 132.20654 971.08124 132.8003Q971.45624 133.39404 971.45624 134.14404Q971.45624 135.1128 970.8781 135.75342Q970.3156 136.37842 969.1906 136.53467Q969.7531 136.8628 970.1125 137.26904Q970.4875 137.65967 971.09686 138.65967L972.15936 140.33154L970.08124 140.33154L968.83124 138.45654Q968.15936 137.45654 967.90936 137.20654Q967.65936 136.94092 967.3781 136.84717Q967.1125 136.7378 966.51874 136.7378L966.15936 136.7378L966.15936 140.33154L964.425 140.33154ZM966.15936 135.37842L967.4406 135.37842Q968.6906 135.37842 969.0031 135.26904Q969.3156 135.15967 969.4875 134.90967Q969.675 134.64404 969.675 134.25342Q969.675 133.83154 969.4406 133.56592Q969.20624 133.3003 968.78436 133.22217Q968.5656 133.19092 967.51874 133.19092L966.15936 133.19092L966.15936 135.37842ZM976.01874 138.34717L977.65936 138.62842Q977.34686 139.53467 976.65936 140.00342Q975.97186 140.47217 974.95624 140.47217Q973.33124 140.47217 972.55 139.40967Q971.925 138.56592 971.925 137.26904Q971.925 135.72217 972.7375 134.84717Q973.55 133.97217 974.78436 133.97217Q976.175 133.97217 976.97186 134.89404Q977.78436 135.8003 977.7375 137.69092L973.6125 137.69092Q973.64374 138.4253 974.01874 138.83154Q974.39374 139.2378 974.97186 139.2378Q975.34686 139.2378 975.6125 139.03467Q975.8781 138.81592 976.01874 138.34717ZM976.1125 136.69092Q976.09686 135.97217 975.7375 135.59717Q975.39374 135.22217 974.8781 135.22217Q974.34686 135.22217 973.9875 135.6128Q973.64374 136.01904 973.64374 136.69092L976.1125 136.69092ZM978.83124 138.5503L980.4875 138.3003Q980.59686 138.78467 980.90936 139.03467Q981.2375 139.28467 981.8156 139.28467Q982.45624 139.28467 982.76874 139.0503Q982.9875 138.87842 982.9875 138.6128Q982.9875 138.4253 982.8781 138.3003Q982.7531 138.1753 982.33124 138.08154Q980.33124 137.64404 979.8 137.28467Q979.0656 136.76904 979.0656 135.87842Q979.0656 135.06592 979.6906 134.51904Q980.33124 133.97217 981.675 133.97217Q982.95624 133.97217 983.58124 134.39404Q984.20624 134.8003 984.4406 135.6128L982.8781 135.89404Q982.78436 135.53467 982.5031 135.34717Q982.22186 135.14404 981.70624 135.14404Q981.0656 135.14404 980.78436 135.33154Q980.59686 135.45654 980.59686 135.65967Q980.59686 135.84717 980.7531 135.97217Q980.97186 136.12842 982.28436 136.4253Q983.6125 136.72217 984.1281 137.15967Q984.64374 137.59717 984.64374 138.37842Q984.64374 139.2378 983.925 139.8628Q983.22186 140.47217 981.8156 140.47217Q980.55 140.47217 979.8 139.95654Q979.0656 139.44092 978.83124 138.5503ZM990.01874 138.34717L991.65936 138.62842Q991.34686 139.53467 990.65936 140.00342Q989.97186 140.47217 988.95624 140.47217Q987.33124 140.47217 986.55 139.40967Q985.925 138.56592 985.925 137.26904Q985.925 135.72217 986.7375 134.84717Q987.55 133.97217 988.78436 133.97217Q990.175 133.97217 990.97186 134.89404Q991.78436 135.8003 991.7375 137.69092L987.6125 137.69092Q987.64374 138.4253 988.01874 138.83154Q988.39374 139.2378 988.97186 139.2378Q989.34686 139.2378 989.6125 139.03467Q989.8781 138.81592 990.01874 138.34717ZM990.1125 136.69092Q990.09686 135.97217 989.7375 135.59717Q989.39374 135.22217 988.8781 135.22217Q988.34686 135.22217 987.9875 135.6128Q987.64374 136.01904 987.64374 136.69092L990.1125 136.69092ZM994.9875 140.33154L993.34686 140.33154L993.34686 134.1128L994.8781 134.1128L994.8781 134.9878Q995.26874 134.3628 995.58124 134.1753Q995.89374 133.97217 996.28436 133.97217Q996.84686 133.97217 997.3781 134.28467L996.8625 135.70654Q996.4406 135.44092 996.09686 135.44092Q995.7375 135.44092 995.5031 135.64404Q995.26874 135.83154 995.1281 136.33154Q994.9875 136.81592 994.9875 138.40967L994.9875 140.33154ZM1000.1281 140.33154L997.6125 134.1128L999.34686 134.1128L1000.51874 137.28467L1000.8625 138.34717Q1000.9875 137.94092 1001.01874 137.81592Q1001.1125 137.5503 1001.20624 137.28467L1002.3781 134.1128L1004.08124 134.1128L1001.6125 140.33154L1000.1281 140.33154ZM1008.01874 138.34717L1009.65936 138.62842Q1009.34686 139.53467 1008.65936 140.00342Q1007.97186 140.47217 1006.95624 140.47217Q1005.33124 140.47217 1004.55 139.40967Q1003.925 138.56592 1003.925 137.26904Q1003.925 135.72217 1004.7375 134.84717Q1005.55 133.97217 1006.78436 133.97217Q1008.175 133.97217 1008.97186 134.89404Q1009.78436 135.8003 1009.7375 137.69092L1005.6125 137.69092Q1005.64374 138.4253 1006.01874 138.83154Q1006.39374 139.2378 1006.97186 139.2378Q1007.34686 139.2378 1007.6125 139.03467Q1007.8781 138.81592 1008.01874 138.34717ZM1008.1125 136.69092Q1008.09686 135.97217 1007.7375 135.59717Q1007.39374 135.22217 1006.8781 135.22217Q1006.34686 135.22217 1005.9875 135.6128Q1005.64374 136.01904 1005.64374 136.69092L1008.1125 136.69092Z" fill-rule="nonzero"/><path fill="#9e9e9e" d="M978.0031 155.0503L979.59686 154.8628Q979.675 155.47217 980.0031 155.8003Q980.34686 156.1128 980.8156 156.1128Q981.33124 156.1128 981.675 155.72217Q982.01874 155.33154 982.01874 154.6753Q982.01874 154.06592 981.675 153.70654Q981.34686 153.33154 980.8781 153.33154Q980.55 153.33154 980.1125 153.45654L980.3 152.1128Q980.97186 152.12842 981.3156 151.83154Q981.675 151.51904 981.675 151.00342Q981.675 150.58154 981.40936 150.33154Q981.15936 150.06592 980.72186 150.06592Q980.3 150.06592 980.0031 150.3628Q979.70624 150.64404 979.64374 151.20654L978.1281 150.95654Q978.28436 150.1753 978.59686 149.70654Q978.925 149.2378 979.4875 148.97217Q980.0656 148.70654 980.76874 148.70654Q981.9875 148.70654 982.72186 149.47217Q983.3156 150.1128 983.3156 150.90967Q983.3156 152.03467 982.08124 152.70654Q982.83124 152.87842 983.26874 153.4253Q983.70624 153.97217 983.70624 154.75342Q983.70624 155.87842 982.8781 156.6753Q982.05 157.47217 980.83124 157.47217Q979.65936 157.47217 978.89374 156.8003Q978.1281 156.12842 978.0031 155.0503ZM987.84686 148.70654Q989.09686 148.70654 989.8 149.59717Q990.6281 150.64404 990.6281 153.09717Q990.6281 155.53467 989.78436 156.59717Q989.09686 157.47217 987.84686 157.47217Q986.59686 157.47217 985.8156 156.51904Q985.05 155.5503 985.05 153.08154Q985.05 150.64404 985.89374 149.58154Q986.59686 148.70654 987.84686 148.70654ZM987.84686 150.06592Q987.55 150.06592 987.3156 150.26904Q987.08124 150.45654 986.9406 150.94092Q986.78436 151.58154 986.78436 153.09717Q986.78436 154.6128 986.925 155.1753Q987.08124 155.7378 987.3156 155.9253Q987.55 156.1128 987.84686 156.1128Q988.14374 156.1128 988.3781 155.9253Q988.6125 155.7378 988.7375 155.2378Q988.90936 154.6128 988.90936 153.09717Q988.90936 151.58154 988.7531 151.01904Q988.6125 150.45654 988.3781 150.26904Q988.14374 150.06592 987.84686 150.06592ZM992.40936 157.33154L992.40936 155.69092L994.0656 155.69092L994.0656 157.33154L992.40936 157.33154ZM995.08124 155.12842L996.72186 154.95654Q996.8 155.50342 997.14374 155.83154Q997.4875 156.15967 997.9406 156.15967Q998.45624 156.15967 998.8156 155.7378Q999.175 155.31592 999.175 154.47217Q999.175 153.69092 998.8156 153.3003Q998.45624 152.89404 997.89374 152.89404Q997.175 152.89404 996.6125 153.51904L995.28436 153.33154L996.1281 148.8628L1000.4875 148.8628L1000.4875 150.39404L997.3781 150.39404L997.1125 151.8628Q997.675 151.58154 998.2375 151.58154Q999.33124 151.58154 1000.09686 152.37842Q1000.8625 153.1753 1000.8625 154.44092Q1000.8625 155.50342 1000.2531 156.34717Q999.40936 157.47217 997.925 157.47217Q996.7375 157.47217 995.9875 156.84717Q995.2375 156.20654 995.08124 155.12842ZM1002.0656 150.8628Q1002.0656 149.70654 1002.5656 149.15967Q1003.08124 148.59717 1003.95624 148.59717Q1004.84686 148.59717 1005.34686 149.15967Q1005.8625 149.70654 1005.8625 150.8628Q1005.8625 152.01904 1005.34686 152.58154Q1004.84686 153.12842 1003.9875 153.12842Q1003.08124 153.12842 1002.5656 152.58154Q1002.0656 152.01904 1002.0656 150.8628ZM1003.3625 150.84717Q1003.3625 151.69092 1003.55 151.97217Q1003.6906 152.19092 1003.95624 152.19092Q1004.22186 152.19092 1004.3625 151.97217Q1004.55 151.69092 1004.55 150.84717Q1004.55 150.01904 1004.3625 149.7378Q1004.22186 149.51904 1003.95624 149.51904Q1003.6906 149.51904 1003.55 149.72217Q1003.3625 150.01904 1003.3625 150.84717ZM1005.20624 157.65967L1003.9875 157.65967L1008.5656 148.59717L1009.7531 148.59717L1005.20624 157.65967ZM1007.8625 155.40967Q1007.8625 154.25342 1008.3625 153.69092Q1008.8781 153.12842 1009.7531 153.12842Q1010.64374 153.12842 1011.14374 153.69092Q1011.65936 154.25342 1011.65936 155.40967Q1011.65936 156.56592 1011.14374 157.12842Q1010.64374 157.6753 1009.78436 157.6753Q1008.8781 157.6753 1008.3625 157.12842Q1007.8625 156.56592 1007.8625 155.40967ZM1009.14374 155.39404Q1009.14374 156.2378 1009.34686 156.51904Q1009.4875 156.7378 1009.7531 156.7378Q1010.01874 156.7378 1010.15936 156.51904Q1010.34686 156.2378 1010.34686 155.39404Q1010.34686 154.56592 1010.15936 154.26904Q1010.01874 154.06592 1009.7531 154.06592Q1009.4875 154.06592 1009.34686 154.26904Q1009.14374 154.56592 1009.14374 155.39404Z" fill-rule="nonzero"/><path stroke="#757575" stroke-width="1.0" stroke-linecap="butt" d="M1010.55 144.83154L781.55 144.83154L718.6534 144.83154" fill-rule="nonzero"/><path fill="#9e9e9e" d="M720.6534 144.83154C720.6534 143.72697 719.75793 142.83154 718.6534 142.83154C717.5488 142.83154 716.6534 143.72697 716.6534 144.83154C716.6534 145.93613 717.5488 146.83154 718.6534 146.83154C719.75793 146.83154 720.6534 145.93613 720.6534 144.83154" fill-rule="nonzero"/><path fill="#232832" d="M897.4406 394.03882L897.4406 385.44507L903.33124 385.44507L903.33124 386.8982L899.175 386.8982L899.175 388.92944L902.7531 388.92944L902.7531 390.38257L899.175 390.38257L899.175 394.03882L897.4406 394.03882ZM905.3625 394.03882L905.3625 386.8982L902.8156 386.8982L902.8156 385.44507L909.6281 385.44507L909.6281 386.8982L907.09686 386.8982L907.09686 394.03882L905.3625 394.03882ZM910.47186 394.03882L910.47186 385.5232L912.20624 385.5232L912.20624 392.5857L916.51874 392.5857L916.51874 394.03882L910.47186 394.03882ZM920.47186 394.03882L920.47186 385.5232L922.20624 385.5232L922.20624 392.5857L926.51874 392.5857L926.51874 394.03882L920.47186 394.03882ZM928.64374 389.7107L927.14374 389.44507Q927.39374 388.53882 928.0031 388.11694Q928.6281 387.67944 929.84686 387.67944Q930.9406 387.67944 931.47186 387.94507Q932.01874 388.19507 932.2375 388.60132Q932.45624 388.99194 932.45624 390.07007L932.4406 391.99194Q932.4406 392.82007 932.51874 393.2107Q932.59686 393.5857 932.8156 394.03882L931.1906 394.03882Q931.1281 393.86694 931.03436 393.55444Q930.9875 393.3982 930.97186 393.35132Q930.55 393.7732 930.0656 393.97632Q929.59686 394.17944 929.05 394.17944Q928.08124 394.17944 927.51874 393.66382Q926.97186 393.13257 926.97186 392.3357Q926.97186 391.80444 927.22186 391.3982Q927.4875 390.99194 927.9406 390.7732Q928.39374 390.53882 929.2531 390.38257Q930.39374 390.16382 930.84686 389.97632L930.84686 389.82007Q930.84686 389.3357 930.6125 389.13257Q930.3781 388.92944 929.72186 388.92944Q929.28436 388.92944 929.03436 389.10132Q928.8 389.2732 928.64374 389.7107ZM930.84686 391.05444Q930.53436 391.1482 929.84686 391.30444Q929.15936 391.44507 928.9406 391.5857Q928.6281 391.82007 928.6281 392.16382Q928.6281 392.50757 928.8781 392.7732Q929.14374 393.0232 929.53436 393.0232Q929.9875 393.0232 930.39374 392.72632Q930.6906 392.50757 930.78436 392.17944Q930.84686 391.97632 930.84686 391.38257L930.84686 391.05444ZM934.34686 394.03882L934.34686 385.44507L935.9875 385.44507L935.9875 388.53882Q936.7531 387.67944 937.8 387.67944Q938.925 387.67944 939.675 388.50757Q940.425 389.32007 940.425 390.86694Q940.425 392.4607 939.65936 393.32007Q938.89374 394.17944 937.8156 394.17944Q937.28436 394.17944 936.76874 393.91382Q936.2531 393.6482 935.8781 393.11694L935.8781 394.03882L934.34686 394.03882ZM935.97186 390.78882Q935.97186 391.75757 936.28436 392.22632Q936.70624 392.88257 937.425 392.88257Q937.95624 392.88257 938.34686 392.41382Q938.7375 391.94507 938.7375 390.94507Q938.7375 389.88257 938.34686 389.41382Q937.95624 388.92944 937.34686 388.92944Q936.76874 388.92944 936.3625 389.3982Q935.97186 389.85132 935.97186 390.78882ZM940.83124 392.25757L942.4875 392.00757Q942.59686 392.49194 942.90936 392.74194Q943.2375 392.99194 943.8156 392.99194Q944.45624 392.99194 944.76874 392.75757Q944.9875 392.5857 944.9875 392.32007Q944.9875 392.13257 944.8781 392.00757Q944.7531 391.88257 944.33124 391.78882Q942.33124 391.35132 941.8 390.99194Q941.0656 390.47632 941.0656 389.5857Q941.0656 388.7732 941.6906 388.22632Q942.33124 387.67944 943.675 387.67944Q944.95624 387.67944 945.58124 388.10132Q946.20624 388.50757 946.4406 389.32007L944.8781 389.60132Q944.78436 389.24194 944.5031 389.05444Q944.22186 388.85132 943.70624 388.85132Q943.0656 388.85132 942.78436 389.03882Q942.59686 389.16382 942.59686 389.36694Q942.59686 389.55444 942.7531 389.67944Q942.97186 389.8357 944.28436 390.13257Q945.6125 390.42944 946.1281 390.86694Q946.64374 391.30444 946.64374 392.0857Q946.64374 392.94507 945.925 393.57007Q945.22186 394.17944 943.8156 394.17944Q942.55 394.17944 941.8 393.66382Q941.0656 393.1482 940.83124 392.25757ZM951.22186 391.74194L951.22186 390.10132L954.45624 390.10132L954.45624 391.74194L951.22186 391.74194ZM958.3781 394.03882L958.3781 385.44507L960.1125 385.44507L960.1125 394.03882L958.3781 394.03882ZM967.0656 394.03882L965.425 394.03882L965.425 390.86694Q965.425 389.85132 965.3156 389.55444Q965.22186 389.25757 964.97186 389.10132Q964.7375 388.92944 964.40936 388.92944Q963.97186 388.92944 963.6281 389.16382Q963.3 389.3982 963.175 389.78882Q963.05 390.17944 963.05 391.22632L963.05 394.03882L961.39374 394.03882L961.39374 387.82007L962.925 387.82007L962.925 388.72632Q963.7375 387.67944 964.9875 387.67944Q965.51874 387.67944 965.97186 387.88257Q966.425 388.07007 966.65936 388.38257Q966.89374 388.67944 966.97186 389.07007Q967.0656 389.44507 967.0656 390.16382L967.0656 394.03882ZM970.1281 394.03882L967.6125 387.82007L969.34686 387.82007L970.51874 390.99194L970.8625 392.05444Q970.9875 391.6482 971.01874 391.5232Q971.1125 391.25757 971.20624 390.99194L972.3781 387.82007L974.08124 387.82007L971.6125 394.03882L970.1281 394.03882ZM978.01874 392.05444L979.65936 392.3357Q979.34686 393.24194 978.65936 393.7107Q977.97186 394.17944 976.95624 394.17944Q975.33124 394.17944 974.55 393.11694Q973.925 392.2732 973.925 390.97632Q973.925 389.42944 974.7375 388.55444Q975.55 387.67944 976.78436 387.67944Q978.175 387.67944 978.97186 388.60132Q979.78436 389.50757 979.7375 391.3982L975.6125 391.3982Q975.64374 392.13257 976.01874 392.53882Q976.39374 392.94507 976.97186 392.94507Q977.34686 392.94507 977.6125 392.74194Q977.8781 392.5232 978.01874 392.05444ZM978.1125 390.3982Q978.09686 389.67944 977.7375 389.30444Q977.39374 388.92944 976.8781 388.92944Q976.34686 388.92944 975.9875 389.32007Q975.64374 389.72632 975.64374 390.3982L978.1125 390.3982ZM980.83124 392.25757L982.4875 392.00757Q982.59686 392.49194 982.90936 392.74194Q983.2375 392.99194 983.8156 392.99194Q984.45624 392.99194 984.76874 392.75757Q984.9875 392.5857 984.9875 392.32007Q984.9875 392.13257 984.8781 392.00757Q984.7531 391.88257 984.33124 391.78882Q982.33124 391.35132 981.8 390.99194Q981.0656 390.47632 981.0656 389.5857Q981.0656 388.7732 981.6906 388.22632Q982.33124 387.67944 983.675 387.67944Q984.95624 387.67944 985.58124 388.10132Q986.20624 388.50757 986.4406 389.32007L984.8781 389.60132Q984.78436 389.24194 984.5031 389.05444Q984.22186 388.85132 983.70624 388.85132Q983.0656 388.85132 982.78436 389.03882Q982.59686 389.16382 982.59686 389.36694Q982.59686 389.55444 982.7531 389.67944Q982.97186 389.8357 984.28436 390.13257Q985.6125 390.42944 986.1281 390.86694Q986.64374 391.30444 986.64374 392.0857Q986.64374 392.94507 985.925 393.57007Q985.22186 394.17944 983.8156 394.17944Q982.55 394.17944 981.8 393.66382Q981.0656 393.1482 980.83124 392.25757ZM991.26874 387.82007L991.26874 389.13257L990.14374 389.13257L990.14374 391.63257Q990.14374 392.3982 990.175 392.5232Q990.20624 392.6482 990.3156 392.74194Q990.4406 392.82007 990.59686 392.82007Q990.83124 392.82007 991.2531 392.6482L991.39374 393.92944Q990.83124 394.17944 990.09686 394.17944Q989.65936 394.17944 989.3 394.03882Q988.9406 393.88257 988.76874 393.6482Q988.6125 393.3982 988.53436 393.00757Q988.4875 392.7107 988.4875 391.8357L988.4875 389.13257L987.7375 389.13257L987.7375 387.82007L988.4875 387.82007L988.4875 386.5857L990.14374 385.61694L990.14374 387.82007L991.26874 387.82007ZM992.03436 390.8357Q992.03436 390.0232 992.4406 389.25757Q992.84686 388.47632 993.58124 388.0857Q994.3156 387.67944 995.2375 387.67944Q996.64374 387.67944 997.55 388.60132Q998.45624 389.50757 998.45624 390.91382Q998.45624 392.32007 997.53436 393.25757Q996.6281 394.17944 995.2531 394.17944Q994.39374 394.17944 993.6125 393.78882Q992.84686 393.3982 992.4406 392.66382Q992.03436 391.91382 992.03436 390.8357ZM993.72186 390.92944Q993.72186 391.85132 994.15936 392.35132Q994.59686 392.8357 995.2375 392.8357Q995.89374 392.8357 996.3156 392.35132Q996.7531 391.85132 996.7531 390.91382Q996.7531 390.00757 996.3156 389.5232Q995.89374 389.0232 995.2375 389.0232Q994.59686 389.0232 994.15936 389.5232Q993.72186 390.00757 993.72186 390.92944ZM1000.9875 394.03882L999.34686 394.03882L999.34686 387.82007L1000.8781 387.82007L1000.8781 388.69507Q1001.26874 388.07007 1001.58124 387.88257Q1001.89374 387.67944 1002.28436 387.67944Q1002.84686 387.67944 1003.3781 387.99194L1002.8625 389.41382Q1002.4406 389.1482 1002.09686 389.1482Q1001.7375 389.1482 1001.5031 389.35132Q1001.26874 389.53882 1001.1281 390.03882Q1000.9875 390.5232 1000.9875 392.11694L1000.9875 394.03882ZM1003.83124 392.25757L1005.4875 392.00757Q1005.59686 392.49194 1005.90936 392.74194Q1006.2375 392.99194 1006.8156 392.99194Q1007.45624 392.99194 1007.76874 392.75757Q1007.9875 392.5857 1007.9875 392.32007Q1007.9875 392.13257 1007.8781 392.00757Q1007.7531 391.88257 1007.33124 391.78882Q1005.33124 391.35132 1004.8 390.99194Q1004.0656 390.47632 1004.0656 389.5857Q1004.0656 388.7732 1004.6906 388.22632Q1005.33124 387.67944 1006.675 387.67944Q1007.95624 387.67944 1008.58124 388.10132Q1009.20624 388.50757 1009.4406 389.32007L1007.8781 389.60132Q1007.78436 389.24194 1007.5031 389.05444Q1007.22186 388.85132 1006.70624 388.85132Q1006.0656 388.85132 1005.78436 389.03882Q1005.59686 389.16382 1005.59686 389.36694Q1005.59686 389.55444 1005.7531 389.67944Q1005.97186 389.8357 1007.28436 390.13257Q1008.6125 390.42944 1009.1281 390.86694Q1009.64374 391.30444 1009.64374 392.0857Q1009.64374 392.94507 1008.925 393.57007Q1008.22186 394.17944 1006.8156 394.17944Q1005.55 394.17944 1004.8 393.66382Q1004.0656 393.1482 1003.83124 392.25757Z" fill-rule="nonzero"/><path fill="#9e9e9e" d="M988.28436 411.03882L988.28436 409.30444L984.76874 409.30444L984.76874 407.86694L988.5031 402.41382L989.8781 402.41382L989.8781 407.86694L990.95624 407.86694L990.95624 409.30444L989.8781 409.30444L989.8781 411.03882L988.28436 411.03882ZM988.28436 407.86694L988.28436 404.92944L986.3156 407.86694L988.28436 407.86694ZM992.40936 411.03882L992.40936 409.3982L994.0656 409.3982L994.0656 411.03882L992.40936 411.03882ZM995.08124 408.8357L996.72186 408.66382Q996.8 409.2107 997.14374 409.53882Q997.4875 409.86694 997.9406 409.86694Q998.45624 409.86694 998.8156 409.44507Q999.175 409.0232 999.175 408.17944Q999.175 407.3982 998.8156 407.00757Q998.45624 406.60132 997.89374 406.60132Q997.175 406.60132 996.6125 407.22632L995.28436 407.03882L996.1281 402.57007L1000.4875 402.57007L1000.4875 404.10132L997.3781 404.10132L997.1125 405.57007Q997.675 405.28882 998.2375 405.28882Q999.33124 405.28882 1000.09686 406.0857Q1000.8625 406.88257 1000.8625 408.1482Q1000.8625 409.2107 1000.2531 410.05444Q999.40936 411.17944 997.925 411.17944Q996.7375 411.17944 995.9875 410.55444Q995.2375 409.91382 995.08124 408.8357ZM1002.0656 404.57007Q1002.0656 403.41382 1002.5656 402.86694Q1003.08124 402.30444 1003.95624 402.30444Q1004.84686 402.30444 1005.34686 402.86694Q1005.8625 403.41382 1005.8625 404.57007Q1005.8625 405.72632 1005.34686 406.28882Q1004.84686 406.8357 1003.9875 406.8357Q1003.08124 406.8357 1002.5656 406.28882Q1002.0656 405.72632 1002.0656 404.57007ZM1003.3625 404.55444Q1003.3625 405.3982 1003.55 405.67944Q1003.6906 405.8982 1003.95624 405.8982Q1004.22186 405.8982 1004.3625 405.67944Q1004.55 405.3982 1004.55 404.55444Q1004.55 403.72632 1004.3625 403.44507Q1004.22186 403.22632 1003.95624 403.22632Q1003.6906 403.22632 1003.55 403.42944Q1003.3625 403.72632 1003.3625 404.55444ZM1005.20624 411.36694L1003.9875 411.36694L1008.5656 402.30444L1009.7531 402.30444L1005.20624 411.36694ZM1007.8625 409.11694Q1007.8625 407.9607 1008.3625 407.3982Q1008.8781 406.8357 1009.7531 406.8357Q1010.64374 406.8357 1011.14374 407.3982Q1011.65936 407.9607 1011.65936 409.11694Q1011.65936 410.2732 1011.14374 410.8357Q1010.64374 411.38257 1009.78436 411.38257Q1008.8781 411.38257 1008.3625 410.8357Q1007.8625 410.2732 1007.8625 409.11694ZM1009.14374 409.10132Q1009.14374 409.94507 1009.34686 410.22632Q1009.4875 410.44507 1009.7531 410.44507Q1010.01874 410.44507 1010.15936 410.22632Q1010.34686 409.94507 1010.34686 409.10132Q1010.34686 408.2732 1010.15936 407.97632Q1010.01874 407.7732 1009.7531 407.7732Q1009.4875 407.7732 1009.34686 407.97632Q1009.14374 408.2732 1009.14374 409.10132Z" fill-rule="nonzero"/><path stroke="#757575" stroke-width="1.0" stroke-linecap="butt" d="M1010.55 398.53882L781.55 398.53882L734.35925 398.53882" fill-rule="nonzero"/><path fill="#9e9e9e" d="M736.35925 398.53882C736.35925 397.43423 735.4638 396.53882 734.35925 396.53882C733.2547 396.53882 732.35925 397.43423 732.35925 398.53882C732.35925 399.64337 733.2547 400.53882 734.35925 400.53882C735.4638 400.53882 736.35925 399.64337 736.35925 398.53882" fill-rule="nonzero"/><path fill="#232832" d="M850.425 488.14136L853.58124 488.14136Q854.65936 488.14136 855.22186 488.31323Q855.97186 488.53198 856.5031 489.1101Q857.05 489.6726 857.33124 490.50073Q857.6125 491.31323 857.6125 492.51636Q857.6125 493.57886 857.3625 494.34448Q857.03436 495.28198 856.4406 495.8601Q855.9875 496.31323 855.22186 496.5476Q854.64374 496.7351 853.675 496.7351L850.425 496.7351L850.425 488.14136ZM852.15936 489.59448L852.15936 495.28198L853.4406 495.28198Q854.175 495.28198 854.5031 495.20386Q854.925 495.09448 855.1906 494.84448Q855.47186 494.59448 855.64374 494.01636Q855.83124 493.43823 855.83124 492.43823Q855.83124 491.45386 855.64374 490.9226Q855.47186 490.37573 855.15936 490.07886Q854.84686 489.78198 854.3625 489.6726Q853.9875 489.59448 852.925 489.59448L852.15936 489.59448ZM866.175 496.7351L864.28436 496.7351L863.53436 494.78198L860.09686 494.78198L859.39374 496.7351L857.55 496.7351L860.89374 488.14136L862.7375 488.14136L866.175 496.7351ZM862.97186 493.32886L861.8 490.14136L860.6281 493.32886L862.97186 493.32886ZM866.0656 492.4851Q866.0656 491.1726 866.47186 490.28198Q866.7531 489.62573 867.2531 489.1101Q867.76874 488.59448 868.3781 488.34448Q869.175 488.00073 870.22186 488.00073Q872.1281 488.00073 873.26874 489.18823Q874.40936 490.3601 874.40936 492.45386Q874.40936 494.53198 873.26874 495.70386Q872.14374 496.87573 870.2531 496.87573Q868.33124 496.87573 867.1906 495.71948Q866.0656 494.5476 866.0656 492.4851ZM867.8625 492.43823Q867.8625 493.89136 868.53436 494.64136Q869.20624 495.39136 870.2375 495.39136Q871.28436 495.39136 871.9406 494.65698Q872.6125 493.90698 872.6125 492.40698Q872.6125 490.93823 871.95624 490.21948Q871.3156 489.4851 870.2375 489.4851Q869.175 489.4851 868.51874 490.21948Q867.8625 490.95386 867.8625 492.43823ZM878.22186 494.43823L878.22186 492.7976L881.45624 492.7976L881.45624 494.43823L878.22186 494.43823ZM889.425 493.57886L889.425 492.12573L893.15936 492.12573L893.15936 495.5476Q892.6125 496.07886 891.58124 496.4851Q890.55 496.87573 889.4875 496.87573Q888.14374 496.87573 887.1281 496.31323Q886.1281 495.75073 885.6281 494.70386Q885.1281 493.64136 885.1281 492.40698Q885.1281 491.06323 885.6906 490.03198Q886.2531 488.9851 887.33124 488.4226Q888.15936 488.00073 889.39374 488.00073Q890.9875 488.00073 891.8781 488.6726Q892.78436 489.34448 893.05 490.51636L891.33124 490.84448Q891.14374 490.21948 890.64374 489.8601Q890.14374 489.4851 889.39374 489.4851Q888.2531 489.4851 887.58124 490.20386Q886.90936 490.9226 886.90936 492.34448Q886.90936 493.87573 887.58124 494.64136Q888.26874 495.39136 889.3781 495.39136Q889.925 495.39136 890.47186 495.18823Q891.01874 494.96948 891.40936 494.6726L891.40936 493.57886L889.425 493.57886ZM892.6281 490.51636L894.3781 490.51636L895.8781 494.9226L897.33124 490.51636L899.03436 490.51636L896.83124 496.50073L896.4406 497.57886Q896.22186 498.12573 896.01874 498.40698Q895.83124 498.70386 895.5656 498.87573Q895.3156 499.06323 894.9406 499.15698Q894.58124 499.26636 894.1125 499.26636Q893.6281 499.26636 893.175 499.15698L893.03436 497.87573Q893.425 497.95386 893.72186 497.95386Q894.3 497.95386 894.5656 497.6101Q894.84686 497.28198 895.0031 496.75073L892.6281 490.51636ZM900.9875 496.7351L899.34686 496.7351L899.34686 490.51636L900.8781 490.51636L900.8781 491.39136Q901.26874 490.76636 901.58124 490.57886Q901.89374 490.37573 902.28436 490.37573Q902.84686 490.37573 903.3781 490.68823L902.8625 492.1101Q902.4406 491.84448 902.09686 491.84448Q901.7375 491.84448 901.5031 492.0476Q901.26874 492.2351 901.1281 492.7351Q900.9875 493.21948 900.9875 494.81323L900.9875 496.7351ZM904.03436 493.53198Q904.03436 492.71948 904.4406 491.95386Q904.84686 491.1726 905.58124 490.78198Q906.3156 490.37573 907.2375 490.37573Q908.64374 490.37573 909.55 491.2976Q910.45624 492.20386 910.45624 493.6101Q910.45624 495.01636 909.53436 495.95386Q908.6281 496.87573 907.2531 496.87573Q906.39374 496.87573 905.6125 496.4851Q904.84686 496.09448 904.4406 495.3601Q904.03436 494.6101 904.03436 493.53198ZM905.72186 493.62573Q905.72186 494.5476 906.15936 495.0476Q906.59686 495.53198 907.2375 495.53198Q907.89374 495.53198 908.3156 495.0476Q908.7531 494.5476 908.7531 493.6101Q908.7531 492.70386 908.3156 492.21948Q907.89374 491.71948 907.2375 491.71948Q906.59686 491.71948 906.15936 492.21948Q905.72186 492.70386 905.72186 493.62573ZM910.83124 494.95386L912.4875 494.70386Q912.59686 495.18823 912.90936 495.43823Q913.2375 495.68823 913.8156 495.68823Q914.45624 495.68823 914.76874 495.45386Q914.9875 495.28198 914.9875 495.01636Q914.9875 494.82886 914.8781 494.70386Q914.7531 494.57886 914.33124 494.4851Q912.33124 494.0476 911.8 493.68823Q911.0656 493.1726 911.0656 492.28198Q911.0656 491.46948 911.6906 490.9226Q912.33124 490.37573 913.675 490.37573Q914.95624 490.37573 915.58124 490.7976Q916.20624 491.20386 916.4406 492.01636L914.8781 492.2976Q914.78436 491.93823 914.5031 491.75073Q914.22186 491.5476 913.70624 491.5476Q913.0656 491.5476 912.78436 491.7351Q912.59686 491.8601 912.59686 492.06323Q912.59686 492.25073 912.7531 492.37573Q912.97186 492.53198 914.28436 492.82886Q915.6125 493.12573 916.1281 493.56323Q916.64374 494.00073 916.64374 494.78198Q916.64374 495.64136 915.925 496.26636Q915.22186 496.87573 913.8156 496.87573Q912.55 496.87573 911.8 496.3601Q911.0656 495.84448 910.83124 494.95386ZM923.83124 492.34448L922.22186 492.64136Q922.1281 492.15698 921.83124 491.9226Q921.55 491.6726 921.09686 491.6726Q920.47186 491.6726 920.09686 492.09448Q919.7375 492.51636 919.7375 493.51636Q919.7375 494.62573 920.1125 495.07886Q920.4875 495.53198 921.1125 495.53198Q921.58124 495.53198 921.8781 495.26636Q922.175 495.00073 922.3 494.34448L923.925 494.62573Q923.675 495.7351 922.95624 496.31323Q922.2375 496.87573 921.03436 496.87573Q919.675 496.87573 918.8625 496.01636Q918.05 495.15698 918.05 493.62573Q918.05 492.09448 918.8625 491.2351Q919.675 490.37573 921.0656 490.37573Q922.20624 490.37573 922.8781 490.8601Q923.55 491.34448 923.83124 492.34448ZM925.03436 493.53198Q925.03436 492.71948 925.4406 491.95386Q925.84686 491.1726 926.58124 490.78198Q927.3156 490.37573 928.2375 490.37573Q929.64374 490.37573 930.55 491.2976Q931.45624 492.20386 931.45624 493.6101Q931.45624 495.01636 930.53436 495.95386Q929.6281 496.87573 928.2531 496.87573Q927.39374 496.87573 926.6125 496.4851Q925.84686 496.09448 925.4406 495.3601Q925.03436 494.6101 925.03436 493.53198ZM926.72186 493.62573Q926.72186 494.5476 927.15936 495.0476Q927.59686 495.53198 928.2375 495.53198Q928.89374 495.53198 929.3156 495.0476Q929.7531 494.5476 929.7531 493.6101Q929.7531 492.70386 929.3156 492.21948Q928.89374 491.71948 928.2375 491.71948Q927.59686 491.71948 927.15936 492.21948Q926.72186 492.70386 926.72186 493.62573ZM932.3625 490.51636L933.89374 490.51636L933.89374 491.4226Q934.20624 490.95386 934.70624 490.6726Q935.22186 490.37573 935.84686 490.37573Q936.925 490.37573 937.675 491.21948Q938.4406 492.06323 938.4406 493.59448Q938.4406 495.14136 937.675 496.01636Q936.90936 496.87573 935.83124 496.87573Q935.3156 496.87573 934.89374 496.6726Q934.47186 496.46948 934.01874 495.96948L934.01874 499.1101L932.3625 499.1101L932.3625 490.51636ZM933.9875 493.51636Q933.9875 494.56323 934.40936 495.06323Q934.83124 495.56323 935.425 495.56323Q936.0031 495.56323 936.3781 495.1101Q936.7531 494.64136 936.7531 493.59448Q936.7531 492.62573 936.3625 492.15698Q935.97186 491.6726 935.39374 491.6726Q934.78436 491.6726 934.3781 492.14136Q933.9875 492.6101 933.9875 493.51636ZM943.01874 494.75073L944.65936 495.03198Q944.34686 495.93823 943.65936 496.40698Q942.97186 496.87573 941.95624 496.87573Q940.33124 496.87573 939.55 495.81323Q938.925 494.96948 938.925 493.6726Q938.925 492.12573 939.7375 491.25073Q940.55 490.37573 941.78436 490.37573Q943.175 490.37573 943.97186 491.2976Q944.78436 492.20386 944.7375 494.09448L940.6125 494.09448Q940.64374 494.82886 941.01874 495.2351Q941.39374 495.64136 941.97186 495.64136Q942.34686 495.64136 942.6125 495.43823Q942.8781 495.21948 943.01874 494.75073ZM943.1125 493.09448Q943.09686 492.37573 942.7375 492.00073Q942.39374 491.62573 941.8781 491.62573Q941.34686 491.62573 940.9875 492.01636Q940.64374 492.4226 940.64374 493.09448L943.1125 493.09448ZM949.4406 496.7351L949.4406 488.14136L955.33124 488.14136L955.33124 489.59448L951.175 489.59448L951.175 491.62573L954.7531 491.62573L954.7531 493.07886L951.175 493.07886L951.175 496.7351L949.4406 496.7351ZM955.03436 493.53198Q955.03436 492.71948 955.4406 491.95386Q955.84686 491.1726 956.58124 490.78198Q957.3156 490.37573 958.2375 490.37573Q959.64374 490.37573 960.55 491.2976Q961.45624 492.20386 961.45624 493.6101Q961.45624 495.01636 960.53436 495.95386Q959.6281 496.87573 958.2531 496.87573Q957.39374 496.87573 956.6125 496.4851Q955.84686 496.09448 955.4406 495.3601Q955.03436 494.6101 955.03436 493.53198ZM956.72186 493.62573Q956.72186 494.5476 957.15936 495.0476Q957.59686 495.53198 958.2375 495.53198Q958.89374 495.53198 959.3156 495.0476Q959.7531 494.5476 959.7531 493.6101Q959.7531 492.70386 959.3156 492.21948Q958.89374 491.71948 958.2375 491.71948Q957.59686 491.71948 957.15936 492.21948Q956.72186 492.70386 956.72186 493.62573ZM966.5031 496.7351L966.5031 495.7976Q966.175 496.2976 965.6125 496.59448Q965.0656 496.87573 964.4406 496.87573Q963.8156 496.87573 963.3156 496.6101Q962.8156 496.32886 962.59686 495.82886Q962.3781 495.32886 962.3781 494.45386L962.3781 490.51636L964.01874 490.51636L964.01874 493.37573Q964.01874 494.68823 964.1125 494.9851Q964.20624 495.28198 964.4406 495.45386Q964.6906 495.62573 965.05 495.62573Q965.47186 495.62573 965.8 495.39136Q966.14374 495.15698 966.26874 494.81323Q966.39374 494.46948 966.39374 493.14136L966.39374 490.51636L968.03436 490.51636L968.03436 496.7351L966.5031 496.7351ZM975.0656 496.7351L973.425 496.7351L973.425 493.56323Q973.425 492.5476 973.3156 492.25073Q973.22186 491.95386 972.97186 491.7976Q972.7375 491.62573 972.40936 491.62573Q971.97186 491.62573 971.6281 491.8601Q971.3 492.09448 971.175 492.4851Q971.05 492.87573 971.05 493.9226L971.05 496.7351L969.39374 496.7351L969.39374 490.51636L970.925 490.51636L970.925 491.4226Q971.7375 490.37573 972.9875 490.37573Q973.51874 490.37573 973.97186 490.57886Q974.425 490.76636 974.65936 491.07886Q974.89374 491.37573 974.97186 491.76636Q975.0656 492.14136 975.0656 492.8601L975.0656 496.7351ZM982.1125 496.7351L980.59686 496.7351L980.59686 495.81323Q980.20624 496.3601 979.6906 496.62573Q979.175 496.87573 978.64374 496.87573Q977.5656 496.87573 976.8 496.01636Q976.05 495.14136 976.05 493.59448Q976.05 492.01636 976.78436 491.20386Q977.53436 490.37573 978.675 490.37573Q979.70624 490.37573 980.47186 491.2351L980.47186 488.14136L982.1125 488.14136L982.1125 496.7351ZM977.72186 493.4851Q977.72186 494.4851 978.0031 494.9226Q978.39374 495.57886 979.1125 495.57886Q979.675 495.57886 980.0656 495.09448Q980.47186 494.6101 980.47186 493.64136Q980.47186 492.57886 980.08124 492.1101Q979.70624 491.62573 979.09686 491.62573Q978.51874 491.62573 978.1125 492.09448Q977.72186 492.56323 977.72186 493.4851ZM984.64374 492.40698L983.14374 492.14136Q983.39374 491.2351 984.0031 490.81323Q984.6281 490.37573 985.84686 490.37573Q986.9406 490.37573 987.47186 490.64136Q988.01874 490.89136 988.2375 491.2976Q988.45624 491.68823 988.45624 492.76636L988.4406 494.68823Q988.4406 495.51636 988.51874 495.90698Q988.59686 496.28198 988.8156 496.7351L987.1906 496.7351Q987.1281 496.56323 987.03436 496.25073Q986.9875 496.09448 986.97186 496.0476Q986.55 496.46948 986.0656 496.6726Q985.59686 496.87573 985.05 496.87573Q984.08124 496.87573 983.51874 496.3601Q982.97186 495.82886 982.97186 495.03198Q982.97186 494.50073 983.22186 494.09448Q983.4875 493.68823 983.9406 493.46948Q984.39374 493.2351 985.2531 493.07886Q986.39374 492.8601 986.84686 492.6726L986.84686 492.51636Q986.84686 492.03198 986.6125 491.82886Q986.3781 491.62573 985.72186 491.62573Q985.28436 491.62573 985.03436 491.7976Q984.8 491.96948 984.64374 492.40698ZM986.84686 493.75073Q986.53436 493.84448 985.84686 494.00073Q985.15936 494.14136 984.9406 494.28198Q984.6281 494.51636 984.6281 494.8601Q984.6281 495.20386 984.8781 495.46948Q985.14374 495.71948 985.53436 495.71948Q985.9875 495.71948 986.39374 495.4226Q986.6906 495.20386 986.78436 494.87573Q986.84686 494.6726 986.84686 494.07886L986.84686 493.75073ZM993.26874 490.51636L993.26874 491.82886L992.14374 491.82886L992.14374 494.32886Q992.14374 495.09448 992.175 495.21948Q992.20624 495.34448 992.3156 495.43823Q992.4406 495.51636 992.59686 495.51636Q992.83124 495.51636 993.2531 495.34448L993.39374 496.62573Q992.83124 496.87573 992.09686 496.87573Q991.65936 496.87573 991.3 496.7351Q990.9406 496.57886 990.76874 496.34448Q990.6125 496.09448 990.53436 495.70386Q990.4875 495.40698 990.4875 494.53198L990.4875 491.82886L989.7375 491.82886L989.7375 490.51636L990.4875 490.51636L990.4875 489.28198L992.14374 488.31323L992.14374 490.51636L993.26874 490.51636ZM994.40936 489.6726L994.40936 488.14136L996.0656 488.14136L996.0656 489.6726L994.40936 489.6726ZM994.40936 496.7351L994.40936 490.51636L996.0656 490.51636L996.0656 496.7351L994.40936 496.7351ZM997.03436 493.53198Q997.03436 492.71948 997.4406 491.95386Q997.84686 491.1726 998.58124 490.78198Q999.3156 490.37573 1000.2375 490.37573Q1001.64374 490.37573 1002.55 491.2976Q1003.45624 492.20386 1003.45624 493.6101Q1003.45624 495.01636 1002.53436 495.95386Q1001.6281 496.87573 1000.2531 496.87573Q999.39374 496.87573 998.6125 496.4851Q997.84686 496.09448 997.4406 495.3601Q997.03436 494.6101 997.03436 493.53198ZM998.72186 493.62573Q998.72186 494.5476 999.15936 495.0476Q999.59686 495.53198 1000.2375 495.53198Q1000.89374 495.53198 1001.3156 495.0476Q1001.7531 494.5476 1001.7531 493.6101Q1001.7531 492.70386 1001.3156 492.21948Q1000.89374 491.71948 1000.2375 491.71948Q999.59686 491.71948 999.15936 492.21948Q998.72186 492.70386 998.72186 493.62573ZM1010.0656 496.7351L1008.425 496.7351L1008.425 493.56323Q1008.425 492.5476 1008.3156 492.25073Q1008.22186 491.95386 1007.97186 491.7976Q1007.7375 491.62573 1007.40936 491.62573Q1006.97186 491.62573 1006.6281 491.8601Q1006.3 492.09448 1006.175 492.4851Q1006.05 492.87573 1006.05 493.9226L1006.05 496.7351L1004.39374 496.7351L1004.39374 490.51636L1005.925 490.51636L1005.925 491.4226Q1006.7375 490.37573 1007.9875 490.37573Q1008.51874 490.37573 1008.97186 490.57886Q1009.425 490.76636 1009.65936 491.07886Q1009.89374 491.37573 1009.97186 491.76636Q1010.0656 492.14136 1010.0656 492.8601L1010.0656 496.7351Z" fill-rule="nonzero"/><path fill="#9e9e9e" d="M982.26874 513.7351L980.6281 513.7351L980.6281 507.53198Q979.72186 508.37573 978.5031 508.78198L978.5031 507.28198Q979.14374 507.07886 979.89374 506.4851Q980.65936 505.89136 980.9406 505.1101L982.26874 505.1101L982.26874 513.7351ZM985.08124 511.53198L986.72186 511.3601Q986.8 511.90698 987.14374 512.2351Q987.4875 512.56323 987.9406 512.56323Q988.45624 512.56323 988.8156 512.14136Q989.175 511.71948 989.175 510.87573Q989.175 510.09448 988.8156 509.70386Q988.45624 509.2976 987.89374 509.2976Q987.175 509.2976 986.6125 509.9226L985.28436 509.7351L986.1281 505.26636L990.4875 505.26636L990.4875 506.7976L987.3781 506.7976L987.1125 508.26636Q987.675 507.9851 988.2375 507.9851Q989.33124 507.9851 990.09686 508.78198Q990.8625 509.57886 990.8625 510.84448Q990.8625 511.90698 990.2531 512.75073Q989.40936 513.87573 987.925 513.87573Q986.7375 513.87573 985.9875 513.25073Q985.2375 512.6101 985.08124 511.53198ZM992.40936 513.7351L992.40936 512.0945L994.0656 512.0945L994.0656 513.7351L992.40936 513.7351ZM997.84686 505.1101Q999.09686 505.1101 999.8 506.00073Q1000.6281 507.0476 1000.6281 509.50073Q1000.6281 511.93823 999.78436 513.00073Q999.09686 513.87573 997.84686 513.87573Q996.59686 513.87573 995.8156 512.9226Q995.05 511.95386 995.05 509.4851Q995.05 507.0476 995.89374 505.9851Q996.59686 505.1101 997.84686 505.1101ZM997.84686 506.46948Q997.55 506.46948 997.3156 506.6726Q997.08124 506.8601 996.9406 507.34448Q996.78436 507.9851 996.78436 509.50073Q996.78436 511.01636 996.925 511.57886Q997.08124 512.14136 997.3156 512.32886Q997.55 512.51636 997.84686 512.51636Q998.14374 512.51636 998.3781 512.32886Q998.6125 512.14136 998.7375 511.64136Q998.90936 511.01636 998.90936 509.50073Q998.90936 507.9851 998.7531 507.4226Q998.6125 506.8601 998.3781 506.6726Q998.14374 506.46948 997.84686 506.46948ZM1002.0656 507.26636Q1002.0656 506.1101 1002.5656 505.56323Q1003.08124 505.00073 1003.95624 505.00073Q1004.84686 505.00073 1005.34686 505.56323Q1005.8625 506.1101 1005.8625 507.26636Q1005.8625 508.4226 1005.34686 508.9851Q1004.84686 509.53198 1003.9875 509.53198Q1003.08124 509.53198 1002.5656 508.9851Q1002.0656 508.4226 1002.0656 507.26636ZM1003.3625 507.25073Q1003.3625 508.09448 1003.55 508.37573Q1003.6906 508.59448 1003.95624 508.59448Q1004.22186 508.59448 1004.3625 508.37573Q1004.55 508.09448 1004.55 507.25073Q1004.55 506.4226 1004.3625 506.14136Q1004.22186 505.9226 1003.95624 505.9226Q1003.6906 505.9226 1003.55 506.12573Q1003.3625 506.4226 1003.3625 507.25073ZM1005.20624 514.06323L1003.9875 514.06323L1008.5656 505.00073L1009.7531 505.00073L1005.20624 514.06323ZM1007.8625 511.81323Q1007.8625 510.65698 1008.3625 510.09448Q1008.8781 509.53198 1009.7531 509.53198Q1010.64374 509.53198 1011.14374 510.09448Q1011.65936 510.65698 1011.65936 511.81323Q1011.65936 512.9695 1011.14374 513.532Q1010.64374 514.07886 1009.78436 514.07886Q1008.8781 514.07886 1008.3625 513.532Q1007.8625 512.9695 1007.8625 511.81323ZM1009.14374 511.7976Q1009.14374 512.64136 1009.34686 512.9226Q1009.4875 513.14136 1009.7531 513.14136Q1010.01874 513.14136 1010.15936 512.9226Q1010.34686 512.64136 1010.34686 511.7976Q1010.34686 510.96948 1010.15936 510.6726Q1010.01874 510.46948 1009.7531 510.46948Q1009.4875 510.46948 1009.34686 510.6726Q1009.14374 510.96948 1009.14374 511.7976Z" fill-rule="nonzero"/><path stroke="#757575" stroke-width="1.0" stroke-linecap="butt" d="M1010.55 501.2351L781.55 501.2351L629.93207 501.2351" fill-rule="nonzero"/><path fill="#9e9e9e" d="M631.93207 501.2351C631.93207 500.13055 631.0366 499.2351 629.93207 499.2351C628.8275 499.2351 627.93207 500.13055 627.93207 501.2351C627.93207 502.3397 628.8275 503.2351 629.93207 503.2351C631.0366 503.2351 631.93207 502.3397 631.93207 501.2351" fill-rule="nonzero"/></svg>