<svg version="1.1" viewBox="0.0 0.0 815.0 446.0" fill="none" stroke="none" stroke-linecap="square" stroke-miterlimit="10" width="815" height="446" xmlns:xlink="http://www.w3.org/1999/xlink" xmlns="http://www.w3.org/2000/svg"><path fill="#ffffff" d="M0 0L815.0 0L815.0 446.0L0 446.0L0 0Z" fill-rule="nonzero"/><path fill="#ffb4ff" d="M407.5 22.3C462.90964 22.3 515.85394 45.207603 553.7889 85.59531L407.5 223.0Z" fill-rule="nonzero"/><path fill="#ffb4ff" d="M553.7889 85.59531C605.5633 140.71727 621.95746 220.26256 596.1977 291.36423L407.5 223.0Z" fill-rule="nonzero"/><path fill="#ffb4ff" d="M596.1977 291.36423C589.7898 309.05115 580.92706 325.74933 569.8697 340.9685L407.5 223.0Z" fill-rule="nonzero"/><path fill="#f0ff9b" d="M569.8697 340.9685C532.1074 392.94385 471.7451 423.7 407.5 423.7L407.5 223.0Z" fill-rule="nonzero"/><path fill="#f0ff9b" d="M407.5 423.7C296.65646 423.7 206.8 333.84354 206.8 223.0C206.8 112.15645 296.65646 22.3 407.5 22.3L407.5 223.0Z" fill-rule="nonzero"/><path stroke="#000000" stroke-width="1.0" stroke-linejoin="round" stroke-linecap="round" d="M407.5 223.0L407.5 22.3C462.90964 22.3 515.85394 45.207603 553.7889 85.59531" fill-rule="nonzero"/><path stroke="#000000" stroke-width="1.0" stroke-linejoin="round" stroke-linecap="round" d="M407.5 223.0L553.7889 85.59531C605.5633 140.71727 621.95746 220.26256 596.1977 291.36423" fill-rule="nonzero"/><path stroke="#000000" stroke-width="1.0" stroke-linejoin="round" stroke-linecap="round" d="M407.5 223.0L596.1977 291.36423C589.7898 309.05115 580.92706 325.74933 569.8697 340.9685" fill-rule="nonzero"/><path stroke="#000000" stroke-width="1.0" stroke-linejoin="round" stroke-linecap="round" d="M407.5 223.0L569.8697 340.9685C532.1074 392.94385 471.7451 423.7 407.5 423.7" fill-rule="nonzero"/><path stroke="#000000" stroke-width="1.0" stroke-linejoin="round" stroke-linecap="round" d="M407.5 223.0L407.5 423.7C296.65646 423.7 206.8 333.84354 206.8 223.0C206.8 112.15645 296.65646 22.3 407.5 22.3" fill-rule="nonzero"/><path fill="#232832" d="M23.175 209.90625L26.33125 209.90625Q27.409374 209.90625 27.971874 210.07812Q28.721874 210.29688 29.253124 210.875Q29.8 211.4375 30.08125 212.26562Q30.3625 213.07812 30.3625 214.28125Q30.3625 215.34375 30.1125 216.10938Q29.784374 217.04688 29.190624 217.625Q28.7375 218.07812 27.971874 218.3125Q27.39375 218.5 26.425 218.5L23.175 218.5L23.175 209.90625ZM24.909374 211.35938L24.909374 217.04688L26.190624 217.04688Q26.925 217.04688 27.253124 216.96875Q27.675 216.85938 27.940624 216.60938Q28.221874 216.35938 28.39375 215.78125Q28.58125 215.20312 28.58125 214.20312Q28.58125 213.21875 28.39375 212.6875Q28.221874 212.14062 27.909374 211.84375Q27.596874 211.54688 27.1125 211.4375Q26.7375 211.35938 25.675 211.35938L24.909374 211.35938ZM38.925 218.5L37.034374 218.5L36.284374 216.54688L32.846874 216.54688L32.14375 218.5L30.3 218.5L33.64375 209.90625L35.4875 209.90625L38.925 218.5ZM35.721874 215.09375L34.55 211.90625L33.378124 215.09375L35.721874 215.09375ZM38.815624 214.25Q38.815624 212.9375 39.221874 212.04688Q39.503124 211.39062 40.003124 210.875Q40.51875 210.35938 41.128124 210.10938Q41.925 209.76562 42.971874 209.76562Q44.878124 209.76562 46.01875 210.95312Q47.159374 212.125 47.159374 214.21875Q47.159374 216.29688 46.01875 217.46875Q44.89375 218.64062 43.003124 218.64062Q41.08125 218.64062 39.940624 217.48438Q38.815624 216.3125 38.815624 214.25ZM40.6125 214.20312Q40.6125 215.65625 41.284374 216.40625Q41.95625 217.15625 42.9875 217.15625Q44.034374 217.15625 44.690624 216.42188Q45.3625 215.67188 45.3625 214.17188Q45.3625 212.70312 44.70625 211.98438Q44.065624 211.25 42.9875 211.25Q41.925 211.25 41.26875 211.98438Q40.6125 212.71875 40.6125 214.20312ZM50.971874 216.20312L50.971874 214.5625L54.20625 214.5625L54.20625 216.20312L50.971874 216.20312ZM63.675 215.34375L65.34688 215.875Q64.97188 217.28125 64.06563 217.96875Q63.159374 218.64062 61.784374 218.64062Q60.065624 218.64062 58.95625 217.48438Q57.8625 216.3125 57.8625 214.28125Q57.8625 212.14062 58.971874 210.95312Q60.08125 209.76562 61.89375 209.76562Q63.471874 209.76562 64.45625 210.6875Q65.03438 211.25 65.33125 212.28125L63.6125 212.6875Q63.45625 212.01562 62.971874 211.64062Q62.4875 211.25 61.8 211.25Q60.846874 211.25 60.253124 211.9375Q59.659374 212.60938 59.659374 214.15625Q59.659374 215.78125 60.2375 216.46875Q60.83125 217.15625 61.76875 217.15625Q62.45625 217.15625 62.95625 216.71875Q63.45625 216.28125 63.675 215.34375ZM65.78438 215.29688Q65.78438 214.48438 66.19063 213.71875Q66.59688 212.9375 67.33125 212.54688Q68.06563 212.14062 68.9875 212.14062Q70.39375 212.14062 71.3 213.0625Q72.20625 213.96875 72.20625 215.375Q72.20625 216.78125 71.28438 217.71875Q70.37813 218.64062 69.00313 218.64062Q68.14375 218.64062 67.3625 218.25Q66.59688 217.85938 66.19063 217.125Q65.78438 216.375 65.78438 215.29688ZM67.47188 215.39062Q67.47188 216.3125 67.90938 216.8125Q68.34688 217.29688 68.9875 217.29688Q69.64375 217.29688 70.06563 216.8125Q70.50313 216.3125 70.50313 215.375Q70.50313 214.46875 70.06563 213.98438Q69.64375 213.48438 68.9875 213.48438Q68.34688 213.48438 67.90938 213.98438Q67.47188 214.46875 67.47188 215.39062ZM73.03438 212.28125L74.55 212.28125L74.55 213.125Q75.37813 212.14062 76.50313 212.14062Q77.09688 212.14062 77.53438 212.39062Q77.97188 212.625 78.25313 213.125Q78.65938 212.625 79.12813 212.39062Q79.6125 212.14062 80.15938 212.14062Q80.83125 212.14062 81.3 212.42188Q81.78438 212.6875 82.01875 213.23438Q82.19063 213.625 82.19063 214.51562L82.19063 218.5L80.55 218.5L80.55 214.9375Q80.55 214.01562 80.37813 213.75Q80.14375 213.39062 79.675 213.39062Q79.33125 213.39062 79.01875 213.60938Q78.72188 213.8125 78.58125 214.21875Q78.44063 214.625 78.44063 215.51562L78.44063 218.5L76.8 218.5L76.8 215.09375Q76.8 214.1875 76.70625 213.92188Q76.62813 213.65625 76.44063 213.53125Q76.25313 213.39062 75.94063 213.39062Q75.56563 213.39062 75.25313 213.60938Q74.95625 213.8125 74.81563 214.20312Q74.69063 214.57812 74.69063 215.46875L74.69063 218.5L73.03438 218.5L73.03438 212.28125ZM84.03438 212.28125L85.55 212.28125L85.55 213.125Q86.37813 212.14062 87.50313 212.14062Q88.09688 212.14062 88.53438 212.39062Q88.97188 212.625 89.25313 213.125Q89.65938 212.625 90.12813 212.39062Q90.6125 212.14062 91.15938 212.14062Q91.83125 212.14062 92.3 212.42188Q92.78438 212.6875 93.01875 213.23438Q93.19063 213.625 93.19063 214.51562L93.19063 218.5L91.55 218.5L91.55 214.9375Q91.55 214.01562 91.37813 213.75Q91.14375 213.39062 90.675 213.39062Q90.33125 213.39062 90.01875 213.60938Q89.72188 213.8125 89.58125 214.21875Q89.44063 214.625 89.44063 215.51562L89.44063 218.5L87.8 218.5L87.8 215.09375Q87.8 214.1875 87.70625 213.92188Q87.62813 213.65625 87.44063 213.53125Q87.25313 213.39062 86.94063 213.39062Q86.56563 213.39062 86.25313 213.60938Q85.95625 213.8125 85.81563 214.20312Q85.69063 214.57812 85.69063 215.46875L85.69063 218.5L84.03438 218.5L84.03438 212.28125ZM99.25313 218.5L99.25313 217.5625Q98.925 218.0625 98.3625 218.35938Q97.81563 218.64062 97.19063 218.64062Q96.56563 218.64062 96.06563 218.375Q95.56563 218.09375 95.34688 217.59375Q95.12813 217.09375 95.12813 216.21875L95.12813 212.28125L96.76875 212.28125L96.76875 215.14062Q96.76875 216.45312 96.8625 216.75Q96.95625 217.04688 97.19063 217.21875Q97.44063 217.39062 97.8 217.39062Q98.22188 217.39062 98.55 217.15625Q98.89375 216.92188 99.01875 216.57812Q99.14375 216.23438 99.14375 214.90625L99.14375 212.28125L100.78438 212.28125L100.78438 218.5L99.25313 218.5ZM107.81563 218.5L106.175 218.5L106.175 215.32812Q106.175 214.3125 106.06563 214.01562Q105.97188 213.71875 105.72188 213.5625Q105.4875 213.39062 105.15938 213.39062Q104.72188 213.39062 104.37813 213.625Q104.05 213.85938 103.925 214.25Q103.8 214.64062 103.8 215.6875L103.8 218.5L102.14375 218.5L102.14375 212.28125L103.675 212.28125L103.675 213.1875Q104.4875 212.14062 105.7375 212.14062Q106.26875 212.14062 106.72188 212.34375Q107.175 212.53125 107.40938 212.84375Q107.64375 213.14062 107.72188 213.53125Q107.81563 213.90625 107.81563 214.625L107.81563 218.5ZM109.15938 211.4375L109.15938 209.90625L110.81563 209.90625L110.81563 211.4375L109.15938 211.4375ZM109.15938 218.5L109.15938 212.28125L110.81563 212.28125L110.81563 218.5L109.15938 218.5ZM115.01875 212.28125L115.01875 213.59375L113.89375 213.59375L113.89375 216.09375Q113.89375 216.85938 113.925 216.98438Q113.95625 217.10938 114.06563 217.20312Q114.19063 217.28125 114.34688 217.28125Q114.58125 217.28125 115.00313 217.10938L115.14375 218.39062Q114.58125 218.64062 113.84688 218.64062Q113.40938 218.64062 113.05 218.5Q112.69063 218.34375 112.51875 218.10938Q112.3625 217.85938 112.28438 217.46875Q112.2375 217.17188 112.2375 216.29688L112.2375 213.59375L111.4875 213.59375L111.4875 212.28125L112.2375 212.28125L112.2375 211.04688L113.89375 210.07812L113.89375 212.28125L115.01875 212.28125ZM115.37813 212.28125L117.12813 212.28125L118.62813 216.6875L120.08125 212.28125L121.78438 212.28125L119.58125 218.26562L119.19063 219.34375Q118.97188 219.89062 118.76875 220.17188Q118.58125 220.46875 118.31563 220.64062Q118.06563 220.82812 117.69063 220.92188Q117.33125 221.03125 116.8625 221.03125Q116.37813 221.03125 115.925 220.92188L115.78438 219.64062Q116.175 219.71875 116.47188 219.71875Q117.05 219.71875 117.31563 219.375Q117.59688 219.04688 117.75313 218.51562L115.37813 212.28125Z" fill-rule="nonzero"/><path fill="#9e9e9e" d="M22.83125 233.29688L24.471874 233.125Q24.55 233.67188 24.89375 234.0Q25.2375 234.32812 25.690624 234.32812Q26.20625 234.32812 26.565624 233.90625Q26.925 233.48438 26.925 232.64062Q26.925 231.85938 26.565624 231.46875Q26.20625 231.0625 25.64375 231.0625Q24.925 231.0625 24.3625 231.6875L23.034374 231.5L23.878124 227.03125L28.2375 227.03125L28.2375 228.5625L25.128124 228.5625L24.8625 230.03125Q25.425 229.75 25.9875 229.75Q27.08125 229.75 27.846874 230.54688Q28.6125 231.34375 28.6125 232.60938Q28.6125 233.67188 28.003124 234.51562Q27.159374 235.64062 25.675 235.64062Q24.4875 235.64062 23.7375 235.01562Q22.9875 234.375 22.83125 233.29688ZM32.596874 226.875Q33.846874 226.875 34.55 227.76562Q35.378124 228.8125 35.378124 231.26562Q35.378124 233.70312 34.534374 234.76562Q33.846874 235.64062 32.596874 235.64062Q31.346874 235.64062 30.565624 234.6875Q29.8 233.71875 29.8 231.25Q29.8 228.8125 30.64375 227.75Q31.346874 226.875 32.596874 226.875ZM32.596874 228.23438Q32.3 228.23438 32.065624 228.4375Q31.83125 228.625 31.690624 229.10938Q31.534374 229.75 31.534374 231.26562Q31.534374 232.78125 31.675 233.34375Q31.83125 233.90625 32.065624 234.09375Q32.3 234.28125 32.596874 234.28125Q32.89375 234.28125 33.128124 234.09375Q33.3625 233.90625 33.4875 233.40625Q33.659374 232.78125 33.659374 231.26562Q33.659374 229.75 33.503124 229.1875Q33.3625 228.625 33.128124 228.4375Q32.89375 228.23438 32.596874 228.23438ZM37.159374 235.5L37.159374 233.85938L38.815624 233.85938L38.815624 235.5L37.159374 235.5ZM42.596874 226.875Q43.846874 226.875 44.55 227.76562Q45.378124 228.8125 45.378124 231.26562Q45.378124 233.70312 44.534374 234.76562Q43.846874 235.64062 42.596874 235.64062Q41.346874 235.64062 40.565624 234.6875Q39.8 233.71875 39.8 231.25Q39.8 228.8125 40.64375 227.75Q41.346874 226.875 42.596874 226.875ZM42.596874 228.23438Q42.3 228.23438 42.065624 228.4375Q41.83125 228.625 41.690624 229.10938Q41.534374 229.75 41.534374 231.26562Q41.534374 232.78125 41.675 233.34375Q41.83125 233.90625 42.065624 234.09375Q42.3 234.28125 42.596874 234.28125Q42.89375 234.28125 43.128124 234.09375Q43.3625 233.90625 43.4875 233.40625Q43.659374 232.78125 43.659374 231.26562Q43.659374 229.75 43.503124 229.1875Q43.3625 228.625 43.128124 228.4375Q42.89375 228.23438 42.596874 228.23438ZM46.815624 229.03125Q46.815624 227.875 47.315624 227.32812Q47.83125 226.76562 48.70625 226.76562Q49.596874 226.76562 50.096874 227.32812Q50.6125 227.875 50.6125 229.03125Q50.6125 230.1875 50.096874 230.75Q49.596874 231.29688 48.7375 231.29688Q47.83125 231.29688 47.315624 230.75Q46.815624 230.1875 46.815624 229.03125ZM48.1125 229.01562Q48.1125 229.85938 48.3 230.14062Q48.440624 230.35938 48.70625 230.35938Q48.971874 230.35938 49.1125 230.14062Q49.3 229.85938 49.3 229.01562Q49.3 228.1875 49.1125 227.90625Q48.971874 227.6875 48.70625 227.6875Q48.440624 227.6875 48.3 227.89062Q48.1125 228.1875 48.1125 229.01562ZM49.95625 235.82812L48.7375 235.82812L53.315624 226.76562L54.503124 226.76562L49.95625 235.82812ZM52.6125 233.57812Q52.6125 232.42188 53.1125 231.85938Q53.628124 231.29688 54.503124 231.29688Q55.39375 231.29688 55.89375 231.85938Q56.409374 232.42188 56.409374 233.57812Q56.409374 234.73438 55.89375 235.29688Q55.39375 235.84375 54.534374 235.84375Q53.628124 235.84375 53.1125 235.29688Q52.6125 234.73438 52.6125 233.57812ZM53.89375 233.5625Q53.89375 234.40625 54.096874 234.6875Q54.2375 234.90625 54.503124 234.90625Q54.76875 234.90625 54.909374 234.6875Q55.096874 234.40625 55.096874 233.5625Q55.096874 232.73438 54.909374 232.4375Q54.76875 232.23438 54.503124 232.23438Q54.2375 232.23438 54.096874 232.4375Q53.89375 232.73438 53.89375 233.5625Z" fill-rule="nonzero"/><path stroke="#757575" stroke-width="1.0" stroke-linecap="butt" d="M22.3 223.0L200.8 223.0L216.835 223.0" fill-rule="nonzero"/><path fill="#9e9e9e" d="M218.835 223.0C218.835 221.89543 217.93958 221.0 216.835 221.0C215.73042 221.0 214.835 221.89543 214.835 223.0C214.835 224.10457 215.73042 225.0 216.835 225.0C217.93958 225.0 218.835 224.10457 218.835 223.0" fill-rule="nonzero"/><path fill="#232832" d="M685.59064 43.51215L685.59064 34.9184L691.48126 34.9184L691.48126 36.371525L687.325 36.371525L687.325 38.402775L690.90314 38.402775L690.90314 39.8559L687.325 39.8559L687.325 43.51215L685.59064 43.51215ZM693.5125 43.51215L693.5125 36.371525L690.96564 36.371525L690.96564 34.9184L697.77814 34.9184L697.77814 36.371525L695.2469 36.371525L695.2469 43.51215L693.5125 43.51215ZM698.6219 43.51215L698.6219 34.996525L700.35626 34.996525L700.35626 42.059025L704.66876 42.059025L704.66876 43.51215L698.6219 43.51215ZM708.6219 43.51215L708.6219 34.996525L710.35626 34.996525L710.35626 42.059025L714.66876 42.059025L714.66876 43.51215L708.6219 43.51215ZM716.79376 39.184025L715.29376 38.9184Q715.54376 38.01215 716.15314 37.590275Q716.77814 37.152775 717.9969 37.152775Q719.09064 37.152775 719.6219 37.4184Q720.16876 37.6684 720.3875 38.07465Q720.60626 38.465275 720.60626 39.5434L720.59064 41.465275Q720.59064 42.2934 720.66876 42.684025Q720.7469 43.059025 720.96564 43.51215L719.34064 43.51215Q719.27814 43.340275 719.1844 43.027775Q719.1375 42.871525 719.1219 42.82465Q718.7 43.246525 718.21564 43.44965Q717.7469 43.652775 717.2 43.652775Q716.23126 43.652775 715.66876 43.13715Q715.1219 42.6059 715.1219 41.809025Q715.1219 41.277775 715.3719 40.871525Q715.6375 40.465275 716.09064 40.246525Q716.54376 40.01215 717.40314 39.8559Q718.54376 39.63715 718.9969 39.44965L718.9969 39.2934Q718.9969 38.809025 718.7625 38.6059Q718.52814 38.402775 717.8719 38.402775Q717.4344 38.402775 717.1844 38.57465Q716.95 38.746525 716.79376 39.184025ZM718.9969 40.527775Q718.6844 40.621525 717.9969 40.777775Q717.3094 40.9184 717.09064 41.059025Q716.77814 41.2934 716.77814 41.63715Q716.77814 41.9809 717.02814 42.246525Q717.29376 42.496525 717.6844 42.496525Q718.1375 42.496525 718.54376 42.19965Q718.84064 41.9809 718.9344 41.652775Q718.9969 41.44965 718.9969 40.8559L718.9969 40.527775ZM722.4969 43.51215L722.4969 34.9184L724.1375 34.9184L724.1375 38.01215Q724.90314 37.152775 725.95 37.152775Q727.075 37.152775 727.825 37.9809Q728.575 38.7934 728.575 40.340275Q728.575 41.934025 727.8094 42.7934Q727.04376 43.652775 725.96564 43.652775Q725.4344 43.652775 724.91876 43.38715Q724.40314 43.121525 724.02814 42.590275L724.02814 43.51215L722.4969 43.51215ZM724.1219 40.26215Q724.1219 41.2309 724.4344 41.69965Q724.85626 42.3559 725.575 42.3559Q726.10626 42.3559 726.4969 41.88715Q726.8875 41.4184 726.8875 40.4184Q726.8875 39.3559 726.4969 38.88715Q726.10626 38.402775 725.4969 38.402775Q724.91876 38.402775 724.5125 38.871525Q724.1219 39.32465 724.1219 40.26215ZM728.98126 41.7309L730.6375 41.4809Q730.7469 41.965275 731.0594 42.215275Q731.3875 42.465275 731.96564 42.465275Q732.60626 42.465275 732.91876 42.2309Q733.1375 42.059025 733.1375 41.7934Q733.1375 41.6059 733.02814 41.4809Q732.90314 41.3559 732.48126 41.26215Q730.48126 40.82465 729.95 40.465275Q729.21564 39.94965 729.21564 39.059025Q729.21564 38.246525 729.84064 37.69965Q730.48126 37.152775 731.825 37.152775Q733.10626 37.152775 733.73126 37.57465Q734.35626 37.9809 734.59064 38.7934L733.02814 39.07465Q732.9344 38.715275 732.65314 38.527775Q732.3719 38.32465 731.85626 38.32465Q731.21564 38.32465 730.9344 38.51215Q730.7469 38.63715 730.7469 38.840275Q730.7469 39.027775 730.90314 39.152775Q731.1219 39.309025 732.4344 39.6059Q733.7625 39.902775 734.27814 40.340275Q734.79376 40.777775 734.79376 41.559025Q734.79376 42.4184 734.075 43.0434Q733.3719 43.652775 731.96564 43.652775Q730.7 43.652775 729.95 43.13715Q729.21564 42.621525 728.98126 41.7309ZM739.3719 41.215275L739.3719 39.57465L742.60626 39.57465L742.60626 41.215275L739.3719 41.215275ZM746.575 43.51215L746.575 34.9184L750.23126 34.9184Q751.60626 34.9184 752.23126 35.152775Q752.85626 35.38715 753.23126 35.9809Q753.60626 36.57465 753.60626 37.32465Q753.60626 38.2934 753.02814 38.934025Q752.46564 39.559025 751.34064 39.715275Q751.90314 40.0434 752.2625 40.44965Q752.6375 40.840275 753.2469 41.840275L754.3094 43.51215L752.23126 43.51215L750.98126 41.63715Q750.3094 40.63715 750.0594 40.38715Q749.8094 40.121525 749.52814 40.027775Q749.2625 39.9184 748.66876 39.9184L748.3094 39.9184L748.3094 43.51215L746.575 43.51215ZM748.3094 38.559025L749.59064 38.559025Q750.84064 38.559025 751.15314 38.44965Q751.46564 38.340275 751.6375 38.090275Q751.825 37.82465 751.825 37.434025Q751.825 37.01215 751.59064 36.746525Q751.35626 36.4809 750.9344 36.402775Q750.71564 36.371525 749.66876 36.371525L748.3094 36.371525L748.3094 38.559025ZM758.16876 41.527775L759.8094 41.809025Q759.4969 42.715275 758.8094 43.184025Q758.1219 43.652775 757.10626 43.652775Q755.48126 43.652775 754.7 42.590275Q754.075 41.746525 754.075 40.44965Q754.075 38.902775 754.8875 38.027775Q755.7 37.152775 756.9344 37.152775Q758.325 37.152775 759.1219 38.07465Q759.9344 38.9809 759.8875 40.871525L755.7625 40.871525Q755.79376 41.6059 756.16876 42.01215Q756.54376 42.4184 757.1219 42.4184Q757.4969 42.4184 757.7625 42.215275Q758.02814 41.996525 758.16876 41.527775ZM758.2625 39.871525Q758.2469 39.152775 757.8875 38.777775Q757.54376 38.402775 757.02814 38.402775Q756.4969 38.402775 756.1375 38.7934Q755.79376 39.19965 755.79376 39.871525L758.2625 39.871525ZM760.98126 41.7309L762.6375 41.4809Q762.7469 41.965275 763.0594 42.215275Q763.3875 42.465275 763.96564 42.465275Q764.60626 42.465275 764.91876 42.2309Q765.1375 42.059025 765.1375 41.7934Q765.1375 41.6059 765.02814 41.4809Q764.90314 41.3559 764.48126 41.26215Q762.48126 40.82465 761.95 40.465275Q761.21564 39.94965 761.21564 39.059025Q761.21564 38.246525 761.84064 37.69965Q762.48126 37.152775 763.825 37.152775Q765.10626 37.152775 765.73126 37.57465Q766.35626 37.9809 766.59064 38.7934L765.02814 39.07465Q764.9344 38.715275 764.65314 38.527775Q764.3719 38.32465 763.85626 38.32465Q763.21564 38.32465 762.9344 38.51215Q762.7469 38.63715 762.7469 38.840275Q762.7469 39.027775 762.90314 39.152775Q763.1219 39.309025 764.4344 39.6059Q765.7625 39.902775 766.27814 40.340275Q766.79376 40.777775 766.79376 41.559025Q766.79376 42.4184 766.075 43.0434Q765.3719 43.652775 763.96564 43.652775Q762.7 43.652775 761.95 43.13715Q761.21564 42.621525 760.98126 41.7309ZM772.16876 41.527775L773.8094 41.809025Q773.4969 42.715275 772.8094 43.184025Q772.1219 43.652775 771.10626 43.652775Q769.48126 43.652775 768.7 42.590275Q768.075 41.746525 768.075 40.44965Q768.075 38.902775 768.8875 38.027775Q769.7 37.152775 770.9344 37.152775Q772.325 37.152775 773.1219 38.07465Q773.9344 38.9809 773.8875 40.871525L769.7625 40.871525Q769.79376 41.6059 770.16876 42.01215Q770.54376 42.4184 771.1219 42.4184Q771.4969 42.4184 771.7625 42.215275Q772.02814 41.996525 772.16876 41.527775ZM772.2625 39.871525Q772.2469 39.152775 771.8875 38.777775Q771.54376 38.402775 771.02814 38.402775Q770.4969 38.402775 770.1375 38.7934Q769.79376 39.19965 769.79376 39.871525L772.2625 39.871525ZM777.1375 43.51215L775.4969 43.51215L775.4969 37.2934L777.02814 37.2934L777.02814 38.1684Q777.41876 37.5434 777.73126 37.3559Q778.04376 37.152775 778.4344 37.152775Q778.9969 37.152775 779.52814 37.465275L779.0125 38.88715Q778.59064 38.621525 778.2469 38.621525Q777.8875 38.621525 777.65314 38.82465Q777.41876 39.01215 777.27814 39.51215Q777.1375 39.996525 777.1375 41.590275L777.1375 43.51215ZM782.27814 43.51215L779.7625 37.2934L781.4969 37.2934L782.66876 40.465275L783.0125 41.527775Q783.1375 41.121525 783.16876 40.996525Q783.2625 40.7309 783.35626 40.465275L784.52814 37.2934L786.23126 37.2934L783.7625 43.51215L782.27814 43.51215ZM790.16876 41.527775L791.8094 41.809025Q791.4969 42.715275 790.8094 43.184025Q790.1219 43.652775 789.10626 43.652775Q787.48126 43.652775 786.7 42.590275Q786.075 41.746525 786.075 40.44965Q786.075 38.902775 786.8875 38.027775Q787.7 37.152775 788.9344 37.152775Q790.325 37.152775 791.1219 38.07465Q791.9344 38.9809 791.8875 40.871525L787.7625 40.871525Q787.79376 41.6059 788.16876 42.01215Q788.54376 42.4184 789.1219 42.4184Q789.4969 42.4184 789.7625 42.215275Q790.02814 41.996525 790.16876 41.527775ZM790.2625 39.871525Q790.2469 39.152775 789.8875 38.777775Q789.54376 38.402775 789.02814 38.402775Q788.4969 38.402775 788.1375 38.7934Q787.79376 39.19965 787.79376 39.871525L790.2625 39.871525Z" fill-rule="nonzero"/><path fill="#9e9e9e" d="M764.41876 60.51215L762.77814 60.51215L762.77814 54.309025Q761.8719 55.152775 760.65314 55.559025L760.65314 54.059025Q761.29376 53.8559 762.04376 53.26215Q762.8094 52.6684 763.09064 51.88715L764.41876 51.88715L764.41876 60.51215ZM767.15314 58.2309L768.7469 58.0434Q768.825 58.652775 769.15314 58.9809Q769.4969 59.2934 769.96564 59.2934Q770.48126 59.2934 770.825 58.902775Q771.16876 58.51215 771.16876 57.8559Q771.16876 57.246525 770.825 56.88715Q770.4969 56.51215 770.02814 56.51215Q769.7 56.51215 769.2625 56.63715L769.45 55.2934Q770.1219 55.309025 770.46564 55.01215Q770.825 54.69965 770.825 54.184025Q770.825 53.76215 770.5594 53.51215Q770.3094 53.246525 769.8719 53.246525Q769.45 53.246525 769.15314 53.5434Q768.85626 53.82465 768.79376 54.38715L767.27814 54.13715Q767.4344 53.3559 767.7469 52.88715Q768.075 52.4184 768.6375 52.152775Q769.21564 51.88715 769.91876 51.88715Q771.1375 51.88715 771.8719 52.652775Q772.46564 53.2934 772.46564 54.090275Q772.46564 55.215275 771.23126 55.88715Q771.98126 56.059025 772.41876 56.6059Q772.85626 57.152775 772.85626 57.934025Q772.85626 59.059025 772.02814 59.8559Q771.2 60.652775 769.98126 60.652775Q768.8094 60.652775 768.04376 59.9809Q767.27814 59.309025 767.15314 58.2309ZM774.5594 60.51215L774.5594 58.871525L776.21564 58.871525L776.21564 60.51215L774.5594 60.51215ZM779.9969 51.88715Q781.2469 51.88715 781.95 52.777775Q782.77814 53.82465 782.77814 56.277775Q782.77814 58.715275 781.9344 59.777775Q781.2469 60.652775 779.9969 60.652775Q778.7469 60.652775 777.96564 59.69965Q777.2 58.7309 777.2 56.26215Q777.2 53.82465 778.04376 52.76215Q778.7469 51.88715 779.9969 51.88715ZM779.9969 53.246525Q779.7 53.246525 779.46564 53.44965Q779.23126 53.63715 779.09064 54.121525Q778.9344 54.76215 778.9344 56.277775Q778.9344 57.7934 779.075 58.3559Q779.23126 58.9184 779.46564 59.1059Q779.7 59.2934 779.9969 59.2934Q780.29376 59.2934 780.52814 59.1059Q780.7625 58.9184 780.8875 58.4184Q781.0594 57.7934 781.0594 56.277775Q781.0594 54.76215 780.90314 54.19965Q780.7625 53.63715 780.52814 53.44965Q780.29376 53.246525 779.9969 53.246525ZM784.21564 54.0434Q784.21564 52.88715 784.71564 52.340275Q785.23126 51.777775 786.10626 51.777775Q786.9969 51.777775 787.4969 52.340275Q788.0125 52.88715 788.0125 54.0434Q788.0125 55.19965 787.4969 55.76215Q786.9969 56.309025 786.1375 56.309025Q785.23126 56.309025 784.71564 55.76215Q784.21564 55.19965 784.21564 54.0434ZM785.5125 54.027775Q785.5125 54.871525 785.7 55.152775Q785.84064 55.371525 786.10626 55.371525Q786.3719 55.371525 786.5125 55.152775Q786.7 54.871525 786.7 54.027775Q786.7 53.19965 786.5125 52.9184Q786.3719 52.69965 786.10626 52.69965Q785.84064 52.69965 785.7 52.902775Q785.5125 53.19965 785.5125 54.027775ZM787.35626 60.840275L786.1375 60.840275L790.71564 51.777775L791.90314 51.777775L787.35626 60.840275ZM790.0125 58.590275Q790.0125 57.434025 790.5125 56.871525Q791.02814 56.309025 791.90314 56.309025Q792.79376 56.309025 793.29376 56.871525Q793.8094 57.434025 793.8094 58.590275Q793.8094 59.746525 793.29376 60.309025Q792.79376 60.8559 791.9344 60.8559Q791.02814 60.8559 790.5125 60.309025Q790.0125 59.746525 790.0125 58.590275ZM791.29376 58.57465Q791.29376 59.4184 791.4969 59.69965Q791.6375 59.9184 791.90314 59.9184Q792.16876 59.9184 792.3094 59.69965Q792.4969 59.4184 792.4969 58.57465Q792.4969 57.746525 792.3094 57.44965Q792.16876 57.246525 791.90314 57.246525Q791.6375 57.246525 791.4969 57.44965Q791.29376 57.746525 791.29376 58.57465Z" fill-rule="nonzero"/><path stroke="#757575" stroke-width="1.0" stroke-linecap="butt" d="M792.7 48.01215L614.2 48.01215L483.2126 48.01215" fill-rule="nonzero"/><path fill="#9e9e9e" d="M485.2126 48.01215C485.2126 46.90758 484.31714 46.01215 483.2126 46.01215C482.108 46.01215 481.2126 46.90758 481.2126 48.01215C481.2126 49.116722 482.108 50.01215 483.2126 50.01215C484.31714 50.01215 485.2126 49.116722 485.2126 48.01215" fill-rule="nonzero"/><path fill="#232832" d="M700.59064 180.013L700.59064 171.41925L706.48126 171.41925L706.48126 172.87238L702.325 172.87238L702.325 174.90363L705.90314 174.90363L705.90314 176.35675L702.325 176.35675L702.325 180.013L700.59064 180.013ZM708.5125 180.013L708.5125 172.87238L705.96564 172.87238L705.96564 171.41925L712.77814 171.41925L712.77814 172.87238L710.2469 172.87238L710.2469 180.013L708.5125 180.013ZM713.6219 180.013L713.6219 171.49738L715.35626 171.49738L715.35626 178.55988L719.66876 178.55988L719.66876 180.013L713.6219 180.013ZM723.6219 180.013L723.6219 171.49738L725.35626 171.49738L725.35626 178.55988L729.66876 178.55988L729.66876 180.013L723.6219 180.013ZM731.79376 175.68488L730.29376 175.41925Q730.54376 174.513 731.15314 174.09113Q731.77814 173.65363 732.9969 173.65363Q734.09064 173.65363 734.6219 173.91925Q735.16876 174.16925 735.3875 174.5755Q735.60626 174.96613 735.60626 176.04425L735.59064 177.96613Q735.59064 178.79425 735.66876 179.18488Q735.7469 179.55988 735.96564 180.013L734.34064 180.013Q734.27814 179.84113 734.1844 179.52863Q734.1375 179.37238 734.1219 179.3255Q733.7 179.74738 733.21564 179.9505Q732.7469 180.15363 732.2 180.15363Q731.23126 180.15363 730.66876 179.638Q730.1219 179.10675 730.1219 178.30988Q730.1219 177.77863 730.3719 177.37238Q730.6375 176.96613 731.09064 176.74738Q731.54376 176.513 732.40314 176.35675Q733.54376 176.138 733.9969 175.9505L733.9969 175.79425Q733.9969 175.30988 733.7625 175.10675Q733.52814 174.90363 732.8719 174.90363Q732.4344 174.90363 732.1844 175.0755Q731.95 175.24738 731.79376 175.68488ZM733.9969 177.02863Q733.6844 177.12238 732.9969 177.27863Q732.3094 177.41925 732.09064 177.55988Q731.77814 177.79425 731.77814 178.138Q731.77814 178.48175 732.02814 178.74738Q732.29376 178.99738 732.6844 178.99738Q733.1375 178.99738 733.54376 178.7005Q733.84064 178.48175 733.9344 178.15363Q733.9969 177.9505 733.9969 177.35675L733.9969 177.02863ZM737.4969 180.013L737.4969 171.41925L739.1375 171.41925L739.1375 174.513Q739.90314 173.65363 740.95 173.65363Q742.075 173.65363 742.825 174.48175Q743.575 175.29425 743.575 176.84113Q743.575 178.43488 742.8094 179.29425Q742.04376 180.15363 740.96564 180.15363Q740.4344 180.15363 739.91876 179.888Q739.40314 179.62238 739.02814 179.09113L739.02814 180.013L737.4969 180.013ZM739.1219 176.763Q739.1219 177.73175 739.4344 178.2005Q739.85626 178.85675 740.575 178.85675Q741.10626 178.85675 741.4969 178.388Q741.8875 177.91925 741.8875 176.91925Q741.8875 175.85675 741.4969 175.388Q741.10626 174.90363 740.4969 174.90363Q739.91876 174.90363 739.5125 175.37238Q739.1219 175.8255 739.1219 176.763ZM743.98126 178.23175L745.6375 177.98175Q745.7469 178.46613 746.0594 178.71613Q746.3875 178.96613 746.96564 178.96613Q747.60626 178.96613 747.91876 178.73175Q748.1375 178.55988 748.1375 178.29425Q748.1375 178.10675 748.02814 177.98175Q747.90314 177.85675 747.48126 177.763Q745.48126 177.3255 744.95 176.96613Q744.21564 176.4505 744.21564 175.55988Q744.21564 174.74738 744.84064 174.2005Q745.48126 173.65363 746.825 173.65363Q748.10626 173.65363 748.73126 174.0755Q749.35626 174.48175 749.59064 175.29425L748.02814 175.5755Q747.9344 175.21613 747.65314 175.02863Q747.3719 174.8255 746.85626 174.8255Q746.21564 174.8255 745.9344 175.013Q745.7469 175.138 745.7469 175.34113Q745.7469 175.52863 745.90314 175.65363Q746.1219 175.80988 747.4344 176.10675Q748.7625 176.40363 749.27814 176.84113Q749.79376 177.27863 749.79376 178.05988Q749.79376 178.91925 749.075 179.54425Q748.3719 180.15363 746.96564 180.15363Q745.7 180.15363 744.95 179.638Q744.21564 179.12238 743.98126 178.23175ZM754.3719 177.71613L754.3719 176.0755L757.60626 176.0755L757.60626 177.71613L754.3719 177.71613ZM763.5125 180.013L763.5125 172.87238L760.96564 172.87238L760.96564 171.41925L767.77814 171.41925L767.77814 172.87238L765.2469 172.87238L765.2469 180.013L763.5125 180.013ZM772.16876 178.02863L773.8094 178.30988Q773.4969 179.21613 772.8094 179.68488Q772.1219 180.15363 771.10626 180.15363Q769.48126 180.15363 768.7 179.09113Q768.075 178.24738 768.075 176.9505Q768.075 175.40363 768.8875 174.52863Q769.7 173.65363 770.9344 173.65363Q772.325 173.65363 773.1219 174.5755Q773.9344 175.48175 773.8875 177.37238L769.7625 177.37238Q769.79376 178.10675 770.16876 178.513Q770.54376 178.91925 771.1219 178.91925Q771.4969 178.91925 771.7625 178.71613Q772.02814 178.49738 772.16876 178.02863ZM772.2625 176.37238Q772.2469 175.65363 771.8875 175.27863Q771.54376 174.90363 771.02814 174.90363Q770.4969 174.90363 770.1375 175.29425Q769.79376 175.7005 769.79376 176.37238L772.2625 176.37238ZM776.79376 175.68488L775.29376 175.41925Q775.54376 174.513 776.15314 174.09113Q776.77814 173.65363 777.9969 173.65363Q779.09064 173.65363 779.6219 173.91925Q780.16876 174.16925 780.3875 174.5755Q780.60626 174.96613 780.60626 176.04425L780.59064 177.96613Q780.59064 178.79425 780.66876 179.18488Q780.7469 179.55988 780.96564 180.013L779.34064 180.013Q779.27814 179.84113 779.1844 179.52863Q779.1375 179.37238 779.1219 179.3255Q778.7 179.74738 778.21564 179.9505Q777.7469 180.15363 777.2 180.15363Q776.23126 180.15363 775.66876 179.638Q775.1219 179.10675 775.1219 178.30988Q775.1219 177.77863 775.3719 177.37238Q775.6375 176.96613 776.09064 176.74738Q776.54376 176.513 777.40314 176.35675Q778.54376 176.138 778.9969 175.9505L778.9969 175.79425Q778.9969 175.30988 778.7625 175.10675Q778.52814 174.90363 777.8719 174.90363Q777.4344 174.90363 777.1844 175.0755Q776.95 175.24738 776.79376 175.68488ZM778.9969 177.02863Q778.6844 177.12238 777.9969 177.27863Q777.3094 177.41925 777.09064 177.55988Q776.77814 177.79425 776.77814 178.138Q776.77814 178.48175 777.02814 178.74738Q777.29376 178.99738 777.6844 178.99738Q778.1375 178.99738 778.54376 178.7005Q778.84064 178.48175 778.9344 178.15363Q778.9969 177.9505 778.9969 177.35675L778.9969 177.02863ZM782.4344 173.79425L783.95 173.79425L783.95 174.638Q784.77814 173.65363 785.90314 173.65363Q786.4969 173.65363 786.9344 173.90363Q787.3719 174.138 787.65314 174.638Q788.0594 174.138 788.52814 173.90363Q789.0125 173.65363 789.5594 173.65363Q790.23126 173.65363 790.7 173.93488Q791.1844 174.2005 791.41876 174.74738Q791.59064 175.138 791.59064 176.02863L791.59064 180.013L789.95 180.013L789.95 176.4505Q789.95 175.52863 789.77814 175.263Q789.54376 174.90363 789.075 174.90363Q788.73126 174.90363 788.41876 175.12238Q788.1219 175.3255 787.98126 175.73175Q787.84064 176.138 787.84064 177.02863L787.84064 180.013L786.2 180.013L786.2 176.60675Q786.2 175.7005 786.10626 175.43488Q786.02814 175.16925 785.84064 175.04425Q785.65314 174.90363 785.34064 174.90363Q784.96564 174.90363 784.65314 175.12238Q784.35626 175.3255 784.21564 175.71613Q784.09064 176.09113 784.09064 176.98175L784.09064 180.013L782.4344 180.013L782.4344 173.79425Z" fill-rule="nonzero"/><path fill="#9e9e9e" d="M764.41876 197.013L762.77814 197.013L762.77814 190.80988Q761.8719 191.65363 760.65314 192.05988L760.65314 190.55988Q761.29376 190.35675 762.04376 189.763Q762.8094 189.16925 763.09064 188.388L764.41876 188.388L764.41876 197.013ZM767.21564 190.0755L767.21564 188.54425L772.84064 188.54425L772.84064 189.73175Q772.1375 190.41925 771.41876 191.7005Q770.7 192.98175 770.325 194.43488Q769.95 195.87238 769.95 197.013L768.3719 197.013Q768.40314 195.23175 769.09064 193.388Q769.79376 191.52863 770.95 190.0755L767.21564 190.0755ZM774.5594 197.013L774.5594 195.37238L776.21564 195.37238L776.21564 197.013L774.5594 197.013ZM777.23126 194.80988L778.8719 194.638Q778.95 195.18488 779.29376 195.513Q779.6375 195.84113 780.09064 195.84113Q780.60626 195.84113 780.96564 195.41925Q781.325 194.99738 781.325 194.15363Q781.325 193.37238 780.96564 192.98175Q780.60626 192.5755 780.04376 192.5755Q779.325 192.5755 778.7625 193.2005L777.4344 193.013L778.27814 188.54425L782.6375 188.54425L782.6375 190.0755L779.52814 190.0755L779.2625 191.54425Q779.825 191.263 780.3875 191.263Q781.48126 191.263 782.2469 192.05988Q783.0125 192.85675 783.0125 194.12238Q783.0125 195.18488 782.40314 196.02863Q781.5594 197.15363 780.075 197.15363Q778.8875 197.15363 778.1375 196.52863Q777.3875 195.888 777.23126 194.80988ZM784.21564 190.54425Q784.21564 189.388 784.71564 188.84113Q785.23126 188.27863 786.10626 188.27863Q786.9969 188.27863 787.4969 188.84113Q788.0125 189.388 788.0125 190.54425Q788.0125 191.7005 787.4969 192.263Q786.9969 192.80988 786.1375 192.80988Q785.23126 192.80988 784.71564 192.263Q784.21564 191.7005 784.21564 190.54425ZM785.5125 190.52863Q785.5125 191.37238 785.7 191.65363Q785.84064 191.87238 786.10626 191.87238Q786.3719 191.87238 786.5125 191.65363Q786.7 191.37238 786.7 190.52863Q786.7 189.7005 786.5125 189.41925Q786.3719 189.2005 786.10626 189.2005Q785.84064 189.2005 785.7 189.40363Q785.5125 189.7005 785.5125 190.52863ZM787.35626 197.34113L786.1375 197.34113L790.71564 188.27863L791.90314 188.27863L787.35626 197.34113ZM790.0125 195.09113Q790.0125 193.93488 790.5125 193.37238Q791.02814 192.80988 791.90314 192.80988Q792.79376 192.80988 793.29376 193.37238Q793.8094 193.93488 793.8094 195.09113Q793.8094 196.24738 793.29376 196.80988Q792.79376 197.35675 791.9344 197.35675Q791.02814 197.35675 790.5125 196.80988Q790.0125 196.24738 790.0125 195.09113ZM791.29376 195.0755Q791.29376 195.91925 791.4969 196.2005Q791.6375 196.41925 791.90314 196.41925Q792.16876 196.41925 792.3094 196.2005Q792.4969 195.91925 792.4969 195.0755Q792.4969 194.24738 792.3094 193.9505Q792.16876 193.74738 791.90314 193.74738Q791.6375 193.74738 791.4969 193.9505Q791.29376 194.24738 791.29376 195.0755Z" fill-rule="nonzero"/><path stroke="#757575" stroke-width="1.0" stroke-linecap="butt" d="M792.7 184.513L614.2 184.513L594.2402 184.513" fill-rule="nonzero"/><path fill="#9e9e9e" d="M596.2402 184.513C596.2402 183.40843 595.3447 182.513 594.2402 182.513C593.1356 182.513 592.2402 183.40843 592.2402 184.513C592.2402 185.61758 593.1356 186.513 594.2402 186.513C595.3447 186.513 596.2402 185.61758 596.2402 184.513" fill-rule="nonzero"/><path fill="#232832" d="M679.59064 307.88718L679.59064 299.29343L685.48126 299.29343L685.48126 300.74655L681.325 300.74655L681.325 302.7778L684.90314 302.7778L684.90314 304.23093L681.325 304.23093L681.325 307.88718L679.59064 307.88718ZM687.5125 307.88718L687.5125 300.74655L684.96564 300.74655L684.96564 299.29343L691.77814 299.29343L691.77814 300.74655L689.2469 300.74655L689.2469 307.88718L687.5125 307.88718ZM692.6219 307.88718L692.6219 299.37155L694.35626 299.37155L694.35626 306.43405L698.66876 306.43405L698.66876 307.88718L692.6219 307.88718ZM702.6219 307.88718L702.6219 299.37155L704.35626 299.37155L704.35626 306.43405L708.66876 306.43405L708.66876 307.88718L702.6219 307.88718ZM710.79376 303.55905L709.29376 303.29343Q709.54376 302.38718 710.15314 301.9653Q710.77814 301.5278 711.9969 301.5278Q713.09064 301.5278 713.6219 301.79343Q714.16876 302.04343 714.3875 302.44968Q714.60626 302.8403 714.60626 303.91843L714.59064 305.8403Q714.59064 306.66843 714.66876 307.05905Q714.7469 307.43405 714.96564 307.88718L713.34064 307.88718Q713.27814 307.7153 713.1844 307.4028Q713.1375 307.24655 713.1219 307.19968Q712.7 307.62155 712.21564 307.82468Q711.7469 308.0278 711.2 308.0278Q710.23126 308.0278 709.66876 307.51218Q709.1219 306.98093 709.1219 306.18405Q709.1219 305.6528 709.3719 305.24655Q709.6375 304.8403 710.09064 304.62155Q710.54376 304.38718 711.40314 304.23093Q712.54376 304.01218 712.9969 303.82468L712.9969 303.66843Q712.9969 303.18405 712.7625 302.98093Q712.52814 302.7778 711.8719 302.7778Q711.4344 302.7778 711.1844 302.94968Q710.95 303.12155 710.79376 303.55905ZM712.9969 304.9028Q712.6844 304.99655 711.9969 305.1528Q711.3094 305.29343 711.09064 305.43405Q710.77814 305.66843 710.77814 306.01218Q710.77814 306.35593 711.02814 306.62155Q711.29376 306.87155 711.6844 306.87155Q712.1375 306.87155 712.54376 306.57468Q712.84064 306.35593 712.9344 306.0278Q712.9969 305.82468 712.9969 305.23093L712.9969 304.9028ZM716.4969 307.88718L716.4969 299.29343L718.1375 299.29343L718.1375 302.38718Q718.90314 301.5278 719.95 301.5278Q721.075 301.5278 721.825 302.35593Q722.575 303.16843 722.575 304.7153Q722.575 306.30905 721.8094 307.16843Q721.04376 308.0278 719.96564 308.0278Q719.4344 308.0278 718.91876 307.76218Q718.40314 307.49655 718.02814 306.9653L718.02814 307.88718L716.4969 307.88718ZM718.1219 304.63718Q718.1219 305.60593 718.4344 306.07468Q718.85626 306.73093 719.575 306.73093Q720.10626 306.73093 720.4969 306.26218Q720.8875 305.79343 720.8875 304.79343Q720.8875 303.73093 720.4969 303.26218Q720.10626 302.7778 719.4969 302.7778Q718.91876 302.7778 718.5125 303.24655Q718.1219 303.69968 718.1219 304.63718ZM722.98126 306.10593L724.6375 305.85593Q724.7469 306.3403 725.0594 306.5903Q725.3875 306.8403 725.96564 306.8403Q726.60626 306.8403 726.91876 306.60593Q727.1375 306.43405 727.1375 306.16843Q727.1375 305.98093 727.02814 305.85593Q726.90314 305.73093 726.48126 305.63718Q724.48126 305.19968 723.95 304.8403Q723.21564 304.32468 723.21564 303.43405Q723.21564 302.62155 723.84064 302.07468Q724.48126 301.5278 725.825 301.5278Q727.10626 301.5278 727.73126 301.94968Q728.35626 302.35593 728.59064 303.16843L727.02814 303.44968Q726.9344 303.0903 726.65314 302.9028Q726.3719 302.69968 725.85626 302.69968Q725.21564 302.69968 724.9344 302.88718Q724.7469 303.01218 724.7469 303.2153Q724.7469 303.4028 724.90314 303.5278Q725.1219 303.68405 726.4344 303.98093Q727.7625 304.2778 728.27814 304.7153Q728.79376 305.1528 728.79376 305.93405Q728.79376 306.79343 728.075 307.41843Q727.3719 308.0278 725.96564 308.0278Q724.7 308.0278 723.95 307.51218Q723.21564 306.99655 722.98126 306.10593ZM733.3719 305.5903L733.3719 303.94968L736.60626 303.94968L736.60626 305.5903L733.3719 305.5903ZM740.52814 307.88718L740.52814 299.29343L742.2625 299.29343L742.2625 307.88718L740.52814 307.88718ZM749.21564 307.88718L747.575 307.88718L747.575 304.7153Q747.575 303.69968 747.46564 303.4028Q747.3719 303.10593 747.1219 302.94968Q746.8875 302.7778 746.5594 302.7778Q746.1219 302.7778 745.77814 303.01218Q745.45 303.24655 745.325 303.63718Q745.2 304.0278 745.2 305.07468L745.2 307.88718L743.54376 307.88718L743.54376 301.66843L745.075 301.66843L745.075 302.57468Q745.8875 301.5278 747.1375 301.5278Q747.66876 301.5278 748.1219 301.73093Q748.575 301.91843 748.8094 302.23093Q749.04376 302.5278 749.1219 302.91843Q749.21564 303.29343 749.21564 304.01218L749.21564 307.88718ZM752.27814 307.88718L749.7625 301.66843L751.4969 301.66843L752.66876 304.8403L753.0125 305.9028Q753.1375 305.49655 753.16876 305.37155Q753.2625 305.10593 753.35626 304.8403L754.52814 301.66843L756.23126 301.66843L753.7625 307.88718L752.27814 307.88718ZM760.16876 305.9028L761.8094 306.18405Q761.4969 307.0903 760.8094 307.55905Q760.1219 308.0278 759.10626 308.0278Q757.48126 308.0278 756.7 306.9653Q756.075 306.12155 756.075 304.82468Q756.075 303.2778 756.8875 302.4028Q757.7 301.5278 758.9344 301.5278Q760.325 301.5278 761.1219 302.44968Q761.9344 303.35593 761.8875 305.24655L757.7625 305.24655Q757.79376 305.98093 758.16876 306.38718Q758.54376 306.79343 759.1219 306.79343Q759.4969 306.79343 759.7625 306.5903Q760.02814 306.37155 760.16876 305.9028ZM760.2625 304.24655Q760.2469 303.5278 759.8875 303.1528Q759.54376 302.7778 759.02814 302.7778Q758.4969 302.7778 758.1375 303.16843Q757.79376 303.57468 757.79376 304.24655L760.2625 304.24655ZM762.98126 306.10593L764.6375 305.85593Q764.7469 306.3403 765.0594 306.5903Q765.3875 306.8403 765.96564 306.8403Q766.60626 306.8403 766.91876 306.60593Q767.1375 306.43405 767.1375 306.16843Q767.1375 305.98093 767.02814 305.85593Q766.90314 305.73093 766.48126 305.63718Q764.48126 305.19968 763.95 304.8403Q763.21564 304.32468 763.21564 303.43405Q763.21564 302.62155 763.84064 302.07468Q764.48126 301.5278 765.825 301.5278Q767.10626 301.5278 767.73126 301.94968Q768.35626 302.35593 768.59064 303.16843L767.02814 303.44968Q766.9344 303.0903 766.65314 302.9028Q766.3719 302.69968 765.85626 302.69968Q765.21564 302.69968 764.9344 302.88718Q764.7469 303.01218 764.7469 303.2153Q764.7469 303.4028 764.90314 303.5278Q765.1219 303.68405 766.4344 303.98093Q767.7625 304.2778 768.27814 304.7153Q768.79376 305.1528 768.79376 305.93405Q768.79376 306.79343 768.075 307.41843Q767.3719 308.0278 765.96564 308.0278Q764.7 308.0278 763.95 307.51218Q763.21564 306.99655 762.98126 306.10593ZM773.41876 301.66843L773.41876 302.98093L772.29376 302.98093L772.29376 305.48093Q772.29376 306.24655 772.325 306.37155Q772.35626 306.49655 772.46564 306.5903Q772.59064 306.66843 772.7469 306.66843Q772.98126 306.66843 773.40314 306.49655L773.54376 307.7778Q772.98126 308.0278 772.2469 308.0278Q771.8094 308.0278 771.45 307.88718Q771.09064 307.73093 770.91876 307.49655Q770.7625 307.24655 770.6844 306.85593Q770.6375 306.55905 770.6375 305.68405L770.6375 302.98093L769.8875 302.98093L769.8875 301.66843L770.6375 301.66843L770.6375 300.43405L772.29376 299.4653L772.29376 301.66843L773.41876 301.66843ZM774.1844 304.68405Q774.1844 303.87155 774.59064 303.10593Q774.9969 302.32468 775.73126 301.93405Q776.46564 301.5278 777.3875 301.5278Q778.79376 301.5278 779.7 302.44968Q780.60626 303.35593 780.60626 304.76218Q780.60626 306.16843 779.6844 307.10593Q778.77814 308.0278 777.40314 308.0278Q776.54376 308.0278 775.7625 307.63718Q774.9969 307.24655 774.59064 306.51218Q774.1844 305.76218 774.1844 304.68405ZM775.8719 304.7778Q775.8719 305.69968 776.3094 306.19968Q776.7469 306.68405 777.3875 306.68405Q778.04376 306.68405 778.46564 306.19968Q778.90314 305.69968 778.90314 304.76218Q778.90314 303.85593 778.46564 303.37155Q778.04376 302.87155 777.3875 302.87155Q776.7469 302.87155 776.3094 303.37155Q775.8719 303.85593 775.8719 304.7778ZM783.1375 307.88718L781.4969 307.88718L781.4969 301.66843L783.02814 301.66843L783.02814 302.54343Q783.41876 301.91843 783.73126 301.73093Q784.04376 301.5278 784.4344 301.5278Q784.9969 301.5278 785.52814 301.8403L785.0125 303.26218Q784.59064 302.99655 784.2469 302.99655Q783.8875 302.99655 783.65314 303.19968Q783.41876 303.38718 783.27814 303.88718Q783.1375 304.37155 783.1375 305.9653L783.1375 307.88718ZM785.98126 306.10593L787.6375 305.85593Q787.7469 306.3403 788.0594 306.5903Q788.3875 306.8403 788.96564 306.8403Q789.60626 306.8403 789.91876 306.60593Q790.1375 306.43405 790.1375 306.16843Q790.1375 305.98093 790.02814 305.85593Q789.90314 305.73093 789.48126 305.63718Q787.48126 305.19968 786.95 304.8403Q786.21564 304.32468 786.21564 303.43405Q786.21564 302.62155 786.84064 302.07468Q787.48126 301.5278 788.825 301.5278Q790.10626 301.5278 790.73126 301.94968Q791.35626 302.35593 791.59064 303.16843L790.02814 303.44968Q789.9344 303.0903 789.65314 302.9028Q789.3719 302.69968 788.85626 302.69968Q788.21564 302.69968 787.9344 302.88718Q787.7469 303.01218 787.7469 303.2153Q787.7469 303.4028 787.90314 303.5278Q788.1219 303.68405 789.4344 303.98093Q790.7625 304.2778 791.27814 304.7153Q791.79376 305.1528 791.79376 305.93405Q791.79376 306.79343 791.075 307.41843Q790.3719 308.0278 788.96564 308.0278Q787.7 308.0278 786.95 307.51218Q786.21564 306.99655 785.98126 306.10593Z" fill-rule="nonzero"/><path fill="#9e9e9e" d="M770.4344 324.88718L770.4344 323.1528L766.91876 323.1528L766.91876 321.7153L770.65314 316.26218L772.02814 316.26218L772.02814 321.7153L773.10626 321.7153L773.10626 323.1528L772.02814 323.1528L772.02814 324.88718L770.4344 324.88718ZM770.4344 321.7153L770.4344 318.7778L768.46564 321.7153L770.4344 321.7153ZM774.5594 324.88718L774.5594 323.24655L776.21564 323.24655L776.21564 324.88718L774.5594 324.88718ZM777.23126 322.68405L778.8719 322.51218Q778.95 323.05905 779.29376 323.38718Q779.6375 323.7153 780.09064 323.7153Q780.60626 323.7153 780.96564 323.29343Q781.325 322.87155 781.325 322.0278Q781.325 321.24655 780.96564 320.85593Q780.60626 320.44968 780.04376 320.44968Q779.325 320.44968 778.7625 321.07468L777.4344 320.88718L778.27814 316.41843L782.6375 316.41843L782.6375 317.94968L779.52814 317.94968L779.2625 319.41843Q779.825 319.13718 780.3875 319.13718Q781.48126 319.13718 782.2469 319.93405Q783.0125 320.73093 783.0125 321.99655Q783.0125 323.05905 782.40314 323.9028Q781.5594 325.0278 780.075 325.0278Q778.8875 325.0278 778.1375 324.4028Q777.3875 323.76218 777.23126 322.68405ZM784.21564 318.41843Q784.21564 317.26218 784.71564 316.7153Q785.23126 316.1528 786.10626 316.1528Q786.9969 316.1528 787.4969 316.7153Q788.0125 317.26218 788.0125 318.41843Q788.0125 319.57468 787.4969 320.13718Q786.9969 320.68405 786.1375 320.68405Q785.23126 320.68405 784.71564 320.13718Q784.21564 319.57468 784.21564 318.41843ZM785.5125 318.4028Q785.5125 319.24655 785.7 319.5278Q785.84064 319.74655 786.10626 319.74655Q786.3719 319.74655 786.5125 319.5278Q786.7 319.24655 786.7 318.4028Q786.7 317.57468 786.5125 317.29343Q786.3719 317.07468 786.10626 317.07468Q785.84064 317.07468 785.7 317.2778Q785.5125 317.57468 785.5125 318.4028ZM787.35626 325.2153L786.1375 325.2153L790.71564 316.1528L791.90314 316.1528L787.35626 325.2153ZM790.0125 322.9653Q790.0125 321.80905 790.5125 321.24655Q791.02814 320.68405 791.90314 320.68405Q792.79376 320.68405 793.29376 321.24655Q793.8094 321.80905 793.8094 322.9653Q793.8094 324.12155 793.29376 324.68405Q792.79376 325.23093 791.9344 325.23093Q791.02814 325.23093 790.5125 324.68405Q790.0125 324.12155 790.0125 322.9653ZM791.29376 322.94968Q791.29376 323.79343 791.4969 324.07468Q791.6375 324.29343 791.90314 324.29343Q792.16876 324.29343 792.3094 324.07468Q792.4969 323.79343 792.4969 322.94968Q792.4969 322.12155 792.3094 321.82468Q792.16876 321.62155 791.90314 321.62155Q791.6375 321.62155 791.4969 321.82468Q791.29376 322.12155 791.29376 322.94968Z" fill-rule="nonzero"/><path stroke="#757575" stroke-width="1.0" stroke-linecap="butt" d="M792.7 312.38718L614.2 312.38718L575.9134 312.38718" fill-rule="nonzero"/><path fill="#9e9e9e" d="M577.9134 312.38718C577.9134 311.28262 577.01794 310.38718 575.9134 310.38718C574.80884 310.38718 573.9134 311.28262 573.9134 312.38718C573.9134 313.49176 574.80884 314.38718 575.9134 314.38718C577.01794 314.38718 577.9134 313.49176 577.9134 312.38718" fill-rule="nonzero"/><path fill="#232832" d="M632.575 379.79L635.73126 379.79Q636.8094 379.79 637.3719 379.96188Q638.1219 380.18063 638.65314 380.75876Q639.2 381.32126 639.48126 382.14938Q639.7625 382.96188 639.7625 384.165Q639.7625 385.2275 639.5125 385.99313Q639.1844 386.93063 638.59064 387.50876Q638.1375 387.96188 637.3719 388.19626Q636.79376 388.38376 635.825 388.38376L632.575 388.38376L632.575 379.79ZM634.3094 381.24313L634.3094 386.93063L635.59064 386.93063Q636.325 386.93063 636.65314 386.8525Q637.075 386.74313 637.34064 386.49313Q637.6219 386.24313 637.79376 385.665Q637.98126 385.08688 637.98126 384.08688Q637.98126 383.1025 637.79376 382.57126Q637.6219 382.02438 637.3094 381.7275Q636.9969 381.43063 636.5125 381.32126Q636.1375 381.24313 635.075 381.24313L634.3094 381.24313ZM648.325 388.38376L646.4344 388.38376L645.6844 386.43063L642.2469 386.43063L641.54376 388.38376L639.7 388.38376L643.04376 379.79L644.8875 379.79L648.325 388.38376ZM645.1219 384.9775L643.95 381.79L642.77814 384.9775L645.1219 384.9775ZM648.21564 384.13376Q648.21564 382.82126 648.6219 381.93063Q648.90314 381.27438 649.40314 380.75876Q649.91876 380.24313 650.52814 379.99313Q651.325 379.64938 652.3719 379.64938Q654.27814 379.64938 655.41876 380.83688Q656.5594 382.00876 656.5594 384.1025Q656.5594 386.18063 655.41876 387.3525Q654.29376 388.52438 652.40314 388.52438Q650.48126 388.52438 649.34064 387.36813Q648.21564 386.19626 648.21564 384.13376ZM650.0125 384.08688Q650.0125 385.54 650.6844 386.29Q651.35626 387.04 652.3875 387.04Q653.4344 387.04 654.09064 386.30563Q654.7625 385.55563 654.7625 384.05563Q654.7625 382.58688 654.10626 381.86813Q653.46564 381.13376 652.3875 381.13376Q651.325 381.13376 650.66876 381.86813Q650.0125 382.6025 650.0125 384.08688ZM660.3719 386.08688L660.3719 384.44626L663.60626 384.44626L663.60626 386.08688L660.3719 386.08688ZM671.575 385.2275L671.575 383.77438L675.3094 383.77438L675.3094 387.19626Q674.7625 387.7275 673.73126 388.13376Q672.7 388.52438 671.6375 388.52438Q670.29376 388.52438 669.27814 387.96188Q668.27814 387.39938 667.77814 386.3525Q667.27814 385.29 667.27814 384.05563Q667.27814 382.71188 667.84064 381.68063Q668.40314 380.63376 669.48126 380.07126Q670.3094 379.64938 671.54376 379.64938Q673.1375 379.64938 674.02814 380.32126Q674.9344 380.99313 675.2 382.165L673.48126 382.49313Q673.29376 381.86813 672.79376 381.50876Q672.29376 381.13376 671.54376 381.13376Q670.40314 381.13376 669.73126 381.8525Q669.0594 382.57126 669.0594 383.99313Q669.0594 385.52438 669.73126 386.29Q670.41876 387.04 671.52814 387.04Q672.075 387.04 672.6219 386.83688Q673.16876 386.61813 673.5594 386.32126L673.5594 385.2275L671.575 385.2275ZM674.77814 382.165L676.52814 382.165L678.02814 386.57126L679.48126 382.165L681.1844 382.165L678.98126 388.14938L678.59064 389.2275Q678.3719 389.77438 678.16876 390.05563Q677.98126 390.3525 677.71564 390.52438Q677.46564 390.71188 677.09064 390.80563Q676.73126 390.915 676.2625 390.915Q675.77814 390.915 675.325 390.80563L675.1844 389.52438Q675.575 389.6025 675.8719 389.6025Q676.45 389.6025 676.71564 389.25876Q676.9969 388.93063 677.15314 388.39938L674.77814 382.165ZM683.1375 388.38376L681.4969 388.38376L681.4969 382.165L683.02814 382.165L683.02814 383.04Q683.41876 382.415 683.73126 382.2275Q684.04376 382.02438 684.4344 382.02438Q684.9969 382.02438 685.52814 382.33688L685.0125 383.75876Q684.59064 383.49313 684.2469 383.49313Q683.8875 383.49313 683.65314 383.69626Q683.41876 383.88376 683.27814 384.38376Q683.1375 384.86813 683.1375 386.46188L683.1375 388.38376ZM686.1844 385.18063Q686.1844 384.36813 686.59064 383.6025Q686.9969 382.82126 687.73126 382.43063Q688.46564 382.02438 689.3875 382.02438Q690.79376 382.02438 691.7 382.94626Q692.60626 383.8525 692.60626 385.25876Q692.60626 386.665 691.6844 387.6025Q690.77814 388.52438 689.40314 388.52438Q688.54376 388.52438 687.7625 388.13376Q686.9969 387.74313 686.59064 387.00876Q686.1844 386.25876 686.1844 385.18063ZM687.8719 385.27438Q687.8719 386.19626 688.3094 386.69626Q688.7469 387.18063 689.3875 387.18063Q690.04376 387.18063 690.46564 386.69626Q690.90314 386.19626 690.90314 385.25876Q690.90314 384.3525 690.46564 383.86813Q690.04376 383.36813 689.3875 383.36813Q688.7469 383.36813 688.3094 383.86813Q687.8719 384.3525 687.8719 385.27438ZM692.98126 386.6025L694.6375 386.3525Q694.7469 386.83688 695.0594 387.08688Q695.3875 387.33688 695.96564 387.33688Q696.60626 387.33688 696.91876 387.1025Q697.1375 386.93063 697.1375 386.665Q697.1375 386.4775 697.02814 386.3525Q696.90314 386.2275 696.48126 386.13376Q694.48126 385.69626 693.95 385.33688Q693.21564 384.82126 693.21564 383.93063Q693.21564 383.11813 693.84064 382.57126Q694.48126 382.02438 695.825 382.02438Q697.10626 382.02438 697.73126 382.44626Q698.35626 382.8525 698.59064 383.665L697.02814 383.94626Q696.9344 383.58688 696.65314 383.39938Q696.3719 383.19626 695.85626 383.19626Q695.21564 383.19626 694.9344 383.38376Q694.7469 383.50876 694.7469 383.71188Q694.7469 383.89938 694.90314 384.02438Q695.1219 384.18063 696.4344 384.4775Q697.7625 384.77438 698.27814 385.21188Q698.79376 385.64938 698.79376 386.43063Q698.79376 387.29 698.075 387.915Q697.3719 388.52438 695.96564 388.52438Q694.7 388.52438 693.95 388.00876Q693.21564 387.49313 692.98126 386.6025ZM705.98126 383.99313L704.3719 384.29Q704.27814 383.80563 703.98126 383.57126Q703.7 383.32126 703.2469 383.32126Q702.6219 383.32126 702.2469 383.74313Q701.8875 384.165 701.8875 385.165Q701.8875 386.27438 702.2625 386.7275Q702.6375 387.18063 703.2625 387.18063Q703.73126 387.18063 704.02814 386.915Q704.325 386.64938 704.45 385.99313L706.075 386.27438Q705.825 387.38376 705.10626 387.96188Q704.3875 388.52438 703.1844 388.52438Q701.825 388.52438 701.0125 387.665Q700.2 386.80563 700.2 385.27438Q700.2 383.74313 701.0125 382.88376Q701.825 382.02438 703.21564 382.02438Q704.35626 382.02438 705.02814 382.50876Q705.7 382.99313 705.98126 383.99313ZM707.1844 385.18063Q707.1844 384.36813 707.59064 383.6025Q707.9969 382.82126 708.73126 382.43063Q709.46564 382.02438 710.3875 382.02438Q711.79376 382.02438 712.7 382.94626Q713.60626 383.8525 713.60626 385.25876Q713.60626 386.665 712.6844 387.6025Q711.77814 388.52438 710.40314 388.52438Q709.54376 388.52438 708.7625 388.13376Q707.9969 387.74313 707.59064 387.00876Q707.1844 386.25876 707.1844 385.18063ZM708.8719 385.27438Q708.8719 386.19626 709.3094 386.69626Q709.7469 387.18063 710.3875 387.18063Q711.04376 387.18063 711.46564 386.69626Q711.90314 386.19626 711.90314 385.25876Q711.90314 384.3525 711.46564 383.86813Q711.04376 383.36813 710.3875 383.36813Q709.7469 383.36813 709.3094 383.86813Q708.8719 384.3525 708.8719 385.27438ZM714.5125 382.165L716.04376 382.165L716.04376 383.07126Q716.35626 382.6025 716.85626 382.32126Q717.3719 382.02438 717.9969 382.02438Q719.075 382.02438 719.825 382.86813Q720.59064 383.71188 720.59064 385.24313Q720.59064 386.79 719.825 387.665Q719.0594 388.52438 717.98126 388.52438Q717.46564 388.52438 717.04376 388.32126Q716.6219 388.11813 716.16876 387.61813L716.16876 390.75876L714.5125 390.75876L714.5125 382.165ZM716.1375 385.165Q716.1375 386.21188 716.5594 386.71188Q716.98126 387.21188 717.575 387.21188Q718.15314 387.21188 718.52814 386.75876Q718.90314 386.29 718.90314 385.24313Q718.90314 384.27438 718.5125 383.80563Q718.1219 383.32126 717.54376 383.32126Q716.9344 383.32126 716.52814 383.79Q716.1375 384.25876 716.1375 385.165ZM725.16876 386.39938L726.8094 386.68063Q726.4969 387.58688 725.8094 388.05563Q725.1219 388.52438 724.10626 388.52438Q722.48126 388.52438 721.7 387.46188Q721.075 386.61813 721.075 385.32126Q721.075 383.77438 721.8875 382.89938Q722.7 382.02438 723.9344 382.02438Q725.325 382.02438 726.1219 382.94626Q726.9344 383.8525 726.8875 385.74313L722.7625 385.74313Q722.79376 386.4775 723.16876 386.88376Q723.54376 387.29 724.1219 387.29Q724.4969 387.29 724.7625 387.08688Q725.02814 386.86813 725.16876 386.39938ZM725.2625 384.74313Q725.2469 384.02438 724.8875 383.64938Q724.54376 383.27438 724.02814 383.27438Q723.4969 383.27438 723.1375 383.665Q722.79376 384.07126 722.79376 384.74313L725.2625 384.74313ZM731.59064 388.38376L731.59064 379.79L737.48126 379.79L737.48126 381.24313L733.325 381.24313L733.325 383.27438L736.90314 383.27438L736.90314 384.7275L733.325 384.7275L733.325 388.38376L731.59064 388.38376ZM737.1844 385.18063Q737.1844 384.36813 737.59064 383.6025Q737.9969 382.82126 738.73126 382.43063Q739.46564 382.02438 740.3875 382.02438Q741.79376 382.02438 742.7 382.94626Q743.60626 383.8525 743.60626 385.25876Q743.60626 386.665 742.6844 387.6025Q741.77814 388.52438 740.40314 388.52438Q739.54376 388.52438 738.7625 388.13376Q737.9969 387.74313 737.59064 387.00876Q737.1844 386.25876 737.1844 385.18063ZM738.8719 385.27438Q738.8719 386.19626 739.3094 386.69626Q739.7469 387.18063 740.3875 387.18063Q741.04376 387.18063 741.46564 386.69626Q741.90314 386.19626 741.90314 385.25876Q741.90314 384.3525 741.46564 383.86813Q741.04376 383.36813 740.3875 383.36813Q739.7469 383.36813 739.3094 383.86813Q738.8719 384.3525 738.8719 385.27438ZM748.65314 388.38376L748.65314 387.44626Q748.325 387.94626 747.7625 388.24313Q747.21564 388.52438 746.59064 388.52438Q745.96564 388.52438 745.46564 388.25876Q744.96564 387.9775 744.7469 387.4775Q744.52814 386.9775 744.52814 386.1025L744.52814 382.165L746.16876 382.165L746.16876 385.02438Q746.16876 386.33688 746.2625 386.63376Q746.35626 386.93063 746.59064 387.1025Q746.84064 387.27438 747.2 387.27438Q747.6219 387.27438 747.95 387.04Q748.29376 386.80563 748.41876 386.46188Q748.54376 386.11813 748.54376 384.79L748.54376 382.165L750.1844 382.165L750.1844 388.38376L748.65314 388.38376ZM757.21564 388.38376L755.575 388.38376L755.575 385.21188Q755.575 384.19626 755.46564 383.89938Q755.3719 383.6025 755.1219 383.44626Q754.8875 383.27438 754.5594 383.27438Q754.1219 383.27438 753.77814 383.50876Q753.45 383.74313 753.325 384.13376Q753.2 384.52438 753.2 385.57126L753.2 388.38376L751.54376 388.38376L751.54376 382.165L753.075 382.165L753.075 383.07126Q753.8875 382.02438 755.1375 382.02438Q755.66876 382.02438 756.1219 382.2275Q756.575 382.415 756.8094 382.7275Q757.04376 383.02438 757.1219 383.415Q757.21564 383.79 757.21564 384.50876L757.21564 388.38376ZM764.2625 388.38376L762.7469 388.38376L762.7469 387.46188Q762.35626 388.00876 761.84064 388.27438Q761.325 388.52438 760.79376 388.52438Q759.71564 388.52438 758.95 387.665Q758.2 386.79 758.2 385.24313Q758.2 383.665 758.9344 382.8525Q759.6844 382.02438 760.825 382.02438Q761.85626 382.02438 762.6219 382.88376L762.6219 379.79L764.2625 379.79L764.2625 388.38376ZM759.8719 385.13376Q759.8719 386.13376 760.15314 386.57126Q760.54376 387.2275 761.2625 387.2275Q761.825 387.2275 762.21564 386.74313Q762.6219 386.25876 762.6219 385.29Q762.6219 384.2275 762.23126 383.75876Q761.85626 383.27438 761.2469 383.27438Q760.66876 383.27438 760.2625 383.74313Q759.8719 384.21188 759.8719 385.13376ZM766.79376 384.05563L765.29376 383.79Q765.54376 382.88376 766.15314 382.46188Q766.77814 382.02438 767.9969 382.02438Q769.09064 382.02438 769.6219 382.29Q770.16876 382.54 770.3875 382.94626Q770.60626 383.33688 770.60626 384.415L770.59064 386.33688Q770.59064 387.165 770.66876 387.55563Q770.7469 387.93063 770.96564 388.38376L769.34064 388.38376Q769.27814 388.21188 769.1844 387.89938Q769.1375 387.74313 769.1219 387.69626Q768.7 388.11813 768.21564 388.32126Q767.7469 388.52438 767.2 388.52438Q766.23126 388.52438 765.66876 388.00876Q765.1219 387.4775 765.1219 386.68063Q765.1219 386.14938 765.3719 385.74313Q765.6375 385.33688 766.09064 385.11813Q766.54376 384.88376 767.40314 384.7275Q768.54376 384.50876 768.9969 384.32126L768.9969 384.165Q768.9969 383.68063 768.7625 383.4775Q768.52814 383.27438 767.8719 383.27438Q767.4344 383.27438 767.1844 383.44626Q766.95 383.61813 766.79376 384.05563ZM768.9969 385.39938Q768.6844 385.49313 767.9969 385.64938Q767.3094 385.79 767.09064 385.93063Q766.77814 386.165 766.77814 386.50876Q766.77814 386.8525 767.02814 387.11813Q767.29376 387.36813 767.6844 387.36813Q768.1375 387.36813 768.54376 387.07126Q768.84064 386.8525 768.9344 386.52438Q768.9969 386.32126 768.9969 385.7275L768.9969 385.39938ZM775.41876 382.165L775.41876 383.4775L774.29376 383.4775L774.29376 385.9775Q774.29376 386.74313 774.325 386.86813Q774.35626 386.99313 774.46564 387.08688Q774.59064 387.165 774.7469 387.165Q774.98126 387.165 775.40314 386.99313L775.54376 388.27438Q774.98126 388.52438 774.2469 388.52438Q773.8094 388.52438 773.45 388.38376Q773.09064 388.2275 772.91876 387.99313Q772.7625 387.74313 772.6844 387.3525Q772.6375 387.05563 772.6375 386.18063L772.6375 383.4775L771.8875 383.4775L771.8875 382.165L772.6375 382.165L772.6375 380.93063L774.29376 379.96188L774.29376 382.165L775.41876 382.165ZM776.5594 381.32126L776.5594 379.79L778.21564 379.79L778.21564 381.32126L776.5594 381.32126ZM776.5594 388.38376L776.5594 382.165L778.21564 382.165L778.21564 388.38376L776.5594 388.38376ZM779.1844 385.18063Q779.1844 384.36813 779.59064 383.6025Q779.9969 382.82126 780.73126 382.43063Q781.46564 382.02438 782.3875 382.02438Q783.79376 382.02438 784.7 382.94626Q785.60626 383.8525 785.60626 385.25876Q785.60626 386.665 784.6844 387.6025Q783.77814 388.52438 782.40314 388.52438Q781.54376 388.52438 780.7625 388.13376Q779.9969 387.74313 779.59064 387.00876Q779.1844 386.25876 779.1844 385.18063ZM780.8719 385.27438Q780.8719 386.19626 781.3094 386.69626Q781.7469 387.18063 782.3875 387.18063Q783.04376 387.18063 783.46564 386.69626Q783.90314 386.19626 783.90314 385.25876Q783.90314 384.3525 783.46564 383.86813Q783.04376 383.36813 782.3875 383.36813Q781.7469 383.36813 781.3094 383.86813Q780.8719 384.3525 780.8719 385.27438ZM792.21564 388.38376L790.575 388.38376L790.575 385.21188Q790.575 384.19626 790.46564 383.89938Q790.3719 383.6025 790.1219 383.44626Q789.8875 383.27438 789.5594 383.27438Q789.1219 383.27438 788.77814 383.50876Q788.45 383.74313 788.325 384.13376Q788.2 384.52438 788.2 385.57126L788.2 388.38376L786.54376 388.38376L786.54376 382.165L788.075 382.165L788.075 383.07126Q788.8875 382.02438 790.1375 382.02438Q790.66876 382.02438 791.1219 382.2275Q791.575 382.415 791.8094 382.7275Q792.04376 383.02438 792.1219 383.415Q792.21564 383.79 792.21564 384.50876L792.21564 388.38376Z" fill-rule="nonzero"/><path fill="#9e9e9e" d="M764.41876 405.38376L762.77814 405.38376L762.77814 399.18063Q761.8719 400.02438 760.65314 400.43063L760.65314 398.93063Q761.29376 398.7275 762.04376 398.13376Q762.8094 397.54 763.09064 396.75876L764.41876 396.75876L764.41876 405.38376ZM767.23126 403.18063L768.8719 403.00876Q768.95 403.55563 769.29376 403.88376Q769.6375 404.21188 770.09064 404.21188Q770.60626 404.21188 770.96564 403.79Q771.325 403.36813 771.325 402.52438Q771.325 401.74313 770.96564 401.3525Q770.60626 400.94626 770.04376 400.94626Q769.325 400.94626 768.7625 401.57126L767.4344 401.38376L768.27814 396.915L772.6375 396.915L772.6375 398.44626L769.52814 398.44626L769.2625 399.915Q769.825 399.63376 770.3875 399.63376Q771.48126 399.63376 772.2469 400.43063Q773.0125 401.2275 773.0125 402.49313Q773.0125 403.55563 772.40314 404.39938Q771.5594 405.52438 770.075 405.52438Q768.8875 405.52438 768.1375 404.89938Q767.3875 404.25876 767.23126 403.18063ZM774.5594 405.38376L774.5594 403.74313L776.21564 403.74313L776.21564 405.38376L774.5594 405.38376ZM779.9969 396.75876Q781.2469 396.75876 781.95 397.64938Q782.77814 398.69626 782.77814 401.14938Q782.77814 403.58688 781.9344 404.64938Q781.2469 405.52438 779.9969 405.52438Q778.7469 405.52438 777.96564 404.57126Q777.2 403.6025 777.2 401.13376Q777.2 398.69626 778.04376 397.63376Q778.7469 396.75876 779.9969 396.75876ZM779.9969 398.11813Q779.7 398.11813 779.46564 398.32126Q779.23126 398.50876 779.09064 398.99313Q778.9344 399.63376 778.9344 401.14938Q778.9344 402.665 779.075 403.2275Q779.23126 403.79 779.46564 403.9775Q779.7 404.165 779.9969 404.165Q780.29376 404.165 780.52814 403.9775Q780.7625 403.79 780.8875 403.29Q781.0594 402.665 781.0594 401.14938Q781.0594 399.63376 780.90314 399.07126Q780.7625 398.50876 780.52814 398.32126Q780.29376 398.11813 779.9969 398.11813ZM784.21564 398.915Q784.21564 397.75876 784.71564 397.21188Q785.23126 396.64938 786.10626 396.64938Q786.9969 396.64938 787.4969 397.21188Q788.0125 397.75876 788.0125 398.915Q788.0125 400.07126 787.4969 400.63376Q786.9969 401.18063 786.1375 401.18063Q785.23126 401.18063 784.71564 400.63376Q784.21564 400.07126 784.21564 398.915ZM785.5125 398.89938Q785.5125 399.74313 785.7 400.02438Q785.84064 400.24313 786.10626 400.24313Q786.3719 400.24313 786.5125 400.02438Q786.7 399.74313 786.7 398.89938Q786.7 398.07126 786.5125 397.79Q786.3719 397.57126 786.10626 397.57126Q785.84064 397.57126 785.7 397.77438Q785.5125 398.07126 785.5125 398.89938ZM787.35626 405.71188L786.1375 405.71188L790.71564 396.64938L791.90314 396.64938L787.35626 405.71188ZM790.0125 403.46188Q790.0125 402.30563 790.5125 401.74313Q791.02814 401.18063 791.90314 401.18063Q792.79376 401.18063 793.29376 401.74313Q793.8094 402.30563 793.8094 403.46188Q793.8094 404.61813 793.29376 405.18063Q792.79376 405.7275 791.9344 405.7275Q791.02814 405.7275 790.5125 405.18063Q790.0125 404.61813 790.0125 403.46188ZM791.29376 403.44626Q791.29376 404.29 791.4969 404.57126Q791.6375 404.79 791.90314 404.79Q792.16876 404.79 792.3094 404.57126Q792.4969 404.29 792.4969 403.44626Q792.4969 402.61813 792.3094 402.32126Q792.16876 402.11813 791.90314 402.11813Q791.6375 402.11813 791.4969 402.32126Q791.29376 402.61813 791.29376 403.44626Z" fill-rule="nonzero"/><path stroke="#757575" stroke-width="1.0" stroke-linecap="butt" d="M792.7 392.88376L614.2 392.88376L494.0601 392.88376" fill-rule="nonzero"/><path fill="#9e9e9e" d="M496.0601 392.88376C496.0601 391.77917 495.16467 390.88376 494.0601 390.88376C492.95554 390.88376 492.0601 391.77917 492.0601 392.88376C492.0601 393.98834 492.95554 394.88376 494.0601 394.88376C495.16467 394.88376 496.0601 393.98834 496.0601 392.88376" fill-rule="nonzero"/></svg>