<svg version="1.1" viewBox="0.0 0.0 740.0 624.0" fill="none" stroke="none" stroke-linecap="square" stroke-miterlimit="10" width="740" height="624" xmlns:xlink="http://www.w3.org/1999/xlink" xmlns="http://www.w3.org/2000/svg"><path fill="#232832" d="M0 0L740.0 0L740.0 624.0L0 624.0L0 0Z" fill-rule="nonzero"/><path fill="#9d009d" d="M370.0 31.2C392.01755 31.2 413.92572 34.295532 435.08133 40.395702L370.0 266.1Z" fill-rule="nonzero"/><path fill="#f0ff9b" d="M435.08133 40.395702C508.66165 61.612427 567.281 117.36394 592.1589 189.78842C617.0367 262.21292 605.0496 342.21774 560.0381 404.17075L370.0 266.1Z" fill-rule="nonzero"/><path fill="#14bf51" d="M560.0381 404.17075C553.52893 413.12982 546.3944 421.61737 538.68787 429.56992L370.0 266.1Z" fill-rule="nonzero"/><path fill="#ffb4ff" d="M538.68787 429.56992C499.53796 469.96948 447.18924 494.977 391.16104 500.04492L370.0 266.1Z" fill-rule="nonzero"/><path fill="#91f5f5" d="M193.17274 420.72903C132.5084 351.35583 118.0138 252.91786 156.10707 169.003C194.20035 85.08814 277.8436 31.2 370.0 31.2L370.0 266.1Z" fill-rule="nonzero"/><path fill="#1470e8" d="M391.16104 500.04492C316.2741 506.81866 242.67027 477.3323 193.17274 420.72903L370.0 266.1Z" fill-rule="nonzero"/><path fill="#9d009d" d="M116.5 532.3C116.5 535.6137 113.813705 538.3 110.5 538.3C107.186295 538.3 104.5 535.6137 104.5 532.3C104.5 528.98627 107.186295 526.3 110.5 526.3C113.813705 526.3 116.5 528.98627 116.5 532.3Z" fill-rule="nonzero"/><path fill="#ffffff" d="M125.828125 538.8L125.828125 525.90936L134.65625 525.90936L134.65625 528.09686L128.42188 528.09686L128.42188 531.14374L133.8125 531.14374L133.8125 533.33124L128.42188 533.33124L128.42188 538.8L125.828125 538.8ZM139.70312 538.8L139.70312 528.09686L135.89062 528.09686L135.89062 525.90936L146.125 525.90936L146.125 528.09686L142.3125 528.09686L142.3125 538.8L139.70312 538.8ZM147.875 538.8L147.875 526.01874L150.48438 526.01874L150.48438 536.6281L156.95312 536.6281L156.95312 538.8L147.875 538.8ZM163.875 538.8L163.875 526.01874L166.48438 526.01874L166.48438 536.6281L172.95312 536.6281L172.95312 538.8L163.875 538.8ZM176.64062 532.3156L174.39062 531.90936Q174.78125 530.55 175.70312 529.90936Q176.625 529.2531 178.4375 529.2531Q180.09375 529.2531 180.89062 529.64374Q181.70312 530.03436 182.03125 530.64374Q182.375 531.2375 182.375 532.84686L182.34375 535.7375Q182.34375 536.95624 182.45312 537.55Q182.57812 538.1281 182.90625 538.8L180.46875 538.8Q180.35938 538.55 180.21875 538.0656Q180.15625 537.84686 180.14062 537.78436Q179.5 538.39374 178.78125 538.70624Q178.0625 539.01874 177.25 539.01874Q175.79688 539.01874 174.96875 538.2375Q174.14062 537.4406 174.14062 536.2531Q174.14062 535.45624 174.51562 534.84686Q174.89062 534.22186 175.57812 533.89374Q176.26562 533.5656 177.54688 533.3156Q179.28125 532.9875 179.9375 532.70624L179.9375 532.45624Q179.9375 531.7531 179.57812 531.45624Q179.23438 531.14374 178.26562 531.14374Q177.60938 531.14374 177.23438 531.40936Q176.85938 531.65936 176.64062 532.3156ZM179.9375 534.3156Q179.46875 534.47186 178.4375 534.6906Q177.40625 534.90936 177.09375 535.1281Q176.60938 535.47186 176.60938 536.0031Q176.60938 536.51874 177.0 536.89374Q177.39062 537.26874 177.98438 537.26874Q178.65625 537.26874 179.25 536.83124Q179.70312 536.5031 179.84375 536.01874Q179.9375 535.6906 179.9375 534.8156L179.9375 534.3156ZM184.6875 538.8L184.6875 525.90936L187.15625 525.90936L187.15625 530.55Q188.29688 529.2531 189.85938 529.2531Q191.5625 529.2531 192.67188 530.4875Q193.79688 531.72186 193.79688 534.03436Q193.79688 536.425 192.65625 537.72186Q191.53125 539.01874 189.90625 539.01874Q189.09375 539.01874 188.3125 538.6125Q187.54688 538.20624 186.98438 537.425L186.98438 538.8L184.6875 538.8ZM187.14062 533.925Q187.14062 535.3781 187.59375 536.08124Q188.23438 537.0656 189.29688 537.0656Q190.125 537.0656 190.6875 536.3625Q191.26562 535.65936 191.26562 534.15936Q191.26562 532.5656 190.6875 531.8625Q190.10938 531.14374 189.20312 531.14374Q188.3125 531.14374 187.71875 531.83124Q187.14062 532.51874 187.14062 533.925ZM194.92188 536.14374L197.40625 535.7531Q197.5625 536.47186 198.04688 536.84686Q198.53125 537.22186 199.39062 537.22186Q200.35938 537.22186 200.84375 536.8781Q201.15625 536.6281 201.15625 536.22186Q201.15625 535.9406 200.98438 535.7531Q200.79688 535.58124 200.15625 535.425Q197.17188 534.76874 196.375 534.22186Q195.26562 533.47186 195.26562 532.1125Q195.26562 530.90936 196.21875 530.08124Q197.1875 529.2531 199.1875 529.2531Q201.10938 529.2531 202.03125 529.8781Q202.96875 530.5031 203.32812 531.72186L201.0 532.15936Q200.84375 531.6125 200.42188 531.33124Q200.01562 531.03436 199.23438 531.03436Q198.26562 531.03436 197.84375 531.3Q197.5625 531.5031 197.5625 531.8Q197.5625 532.0656 197.8125 532.2531Q198.14062 532.5031 200.10938 532.95624Q202.07812 533.39374 202.875 534.05Q203.64062 534.70624 203.64062 535.8781Q203.64062 537.15936 202.5625 538.09686Q201.5 539.01874 199.39062 539.01874Q197.48438 539.01874 196.375 538.2375Q195.26562 537.45624 194.92188 536.14374ZM210.51562 535.3625L210.51562 532.89374L215.35938 532.89374L215.35938 535.3625L210.51562 535.3625ZM221.15625 534.6125L223.6875 534.3625Q223.90625 535.6281 224.60938 536.2375Q225.3125 536.83124 226.5 536.83124Q227.75 536.83124 228.39062 536.3Q229.03125 535.76874 229.03125 535.05Q229.03125 534.59686 228.75 534.28436Q228.48438 533.95624 227.82812 533.72186Q227.35938 533.5656 225.73438 533.15936Q223.64062 532.64374 222.79688 531.8781Q221.60938 530.8156 221.60938 529.28436Q221.60938 528.3 222.17188 527.45624Q222.73438 526.59686 223.78125 526.14374Q224.82812 525.6906 226.3125 525.6906Q228.75 525.6906 229.96875 526.7531Q231.20312 527.8156 231.26562 529.59686L228.65625 529.70624Q228.48438 528.72186 227.9375 528.28436Q227.39062 527.84686 226.29688 527.84686Q225.15625 527.84686 224.51562 528.3156Q224.10938 528.6125 224.10938 529.1125Q224.10938 529.5656 224.48438 529.89374Q224.98438 530.3156 226.875 530.76874Q228.78125 531.20624 229.6875 531.6906Q230.59375 532.15936 231.10938 533.0031Q231.625 533.83124 231.625 535.05Q231.625 536.15936 231.0 537.1281Q230.39062 538.08124 229.26562 538.5656Q228.14062 539.03436 226.46875 539.03436Q224.03125 539.03436 222.71875 537.90936Q221.40625 536.76874 221.15625 534.6125ZM245.42188 538.8L242.59375 538.8L241.46875 535.8781L236.32812 535.8781L235.26562 538.8L232.5 538.8L237.51562 525.90936L240.26562 525.90936L245.42188 538.8ZM240.64062 533.70624L238.85938 528.925L237.125 533.70624L240.64062 533.70624ZM246.82812 538.8L246.82812 525.90936L255.65625 525.90936L255.65625 528.09686L249.42188 528.09686L249.42188 531.14374L254.8125 531.14374L254.8125 533.33124L249.42188 533.33124L249.42188 538.8L246.82812 538.8ZM260.70312 538.8L260.70312 528.09686L256.89062 528.09686L256.89062 525.90936L267.125 525.90936L267.125 528.09686L263.3125 528.09686L263.3125 538.8L260.70312 538.8ZM273.8125 538.8L273.8125 525.90936L277.98438 525.90936Q280.35938 525.90936 281.07812 526.1125Q282.1875 526.39374 282.9375 527.3781Q283.6875 528.34686 283.6875 529.8781Q283.6875 531.0656 283.25 531.8781Q282.8125 532.675 282.14062 533.14374Q281.48438 533.6125 280.8125 533.7531Q279.875 533.9406 278.10938 533.9406L276.40625 533.9406L276.40625 538.8L273.8125 538.8ZM276.40625 528.09686L276.40625 531.7531L277.82812 531.7531Q279.375 531.7531 279.89062 531.55Q280.40625 531.34686 280.70312 530.925Q281.0 530.4875 281.0 529.90936Q281.0 529.20624 280.57812 528.7531Q280.17188 528.3 279.54688 528.175Q279.07812 528.09686 277.67188 528.09686L276.40625 528.09686ZM291.9375 538.8L291.9375 537.40936Q291.42188 538.14374 290.59375 538.58124Q289.76562 539.01874 288.84375 539.01874Q287.90625 539.01874 287.15625 538.6125Q286.40625 538.1906 286.0625 537.4406Q285.73438 536.6906 285.73438 535.3781L285.73438 529.47186L288.20312 529.47186L288.20312 533.7531Q288.20312 535.72186 288.34375 536.175Q288.48438 536.6125 288.84375 536.8781Q289.20312 537.1281 289.75 537.1281Q290.39062 537.1281 290.89062 536.78436Q291.39062 536.4406 291.57812 535.925Q291.76562 535.40936 291.76562 533.40936L291.76562 529.47186L294.23438 529.47186L294.23438 538.8L291.9375 538.8ZM299.15625 538.8L296.6875 538.8L296.6875 529.47186L298.98438 529.47186L298.98438 530.8Q299.5625 529.84686 300.03125 529.55Q300.51562 529.2531 301.10938 529.2531Q301.95312 529.2531 302.73438 529.72186L301.96875 531.8781Q301.34375 531.47186 300.8125 531.47186Q300.29688 531.47186 299.92188 531.7531Q299.5625 532.03436 299.35938 532.78436Q299.15625 533.53436 299.15625 535.90936L299.15625 538.8ZM311.9375 532.22186L309.5 532.65936Q309.375 531.9406 308.9375 531.5656Q308.5 531.1906 307.8125 531.1906Q306.89062 531.1906 306.32812 531.83124Q305.78125 532.47186 305.78125 533.97186Q305.78125 535.6281 306.34375 536.3156Q306.90625 537.0031 307.84375 537.0031Q308.54688 537.0031 308.98438 536.59686Q309.4375 536.1906 309.625 535.22186L312.04688 535.6281Q311.67188 537.3 310.59375 538.15936Q309.53125 539.01874 307.73438 539.01874Q305.6875 539.01874 304.46875 537.72186Q303.25 536.425 303.25 534.14374Q303.25 531.83124 304.46875 530.55Q305.6875 529.2531 307.78125 529.2531Q309.48438 529.2531 310.48438 529.9875Q311.48438 530.72186 311.9375 532.22186ZM316.25 525.90936L316.25 530.65936Q317.45312 529.2531 319.10938 529.2531Q319.96875 529.2531 320.64062 529.58124Q321.32812 529.89374 321.67188 530.39374Q322.03125 530.8781 322.15625 531.47186Q322.28125 532.0656 322.28125 533.33124L322.28125 538.8L319.8125 538.8L319.8125 533.8625Q319.8125 532.39374 319.67188 532.0031Q319.53125 531.6125 319.17188 531.3781Q318.8125 531.14374 318.28125 531.14374Q317.67188 531.14374 317.1875 531.4406Q316.70312 531.7375 316.46875 532.34686Q316.25 532.9406 316.25 534.1281L316.25 538.8L313.78125 538.8L313.78125 525.90936L316.25 525.90936ZM326.64062 532.3156L324.39062 531.90936Q324.78125 530.55 325.70312 529.90936Q326.625 529.2531 328.4375 529.2531Q330.09375 529.2531 330.89062 529.64374Q331.70312 530.03436 332.03125 530.64374Q332.375 531.2375 332.375 532.84686L332.34375 535.7375Q332.34375 536.95624 332.45312 537.55Q332.57812 538.1281 332.90625 538.8L330.46875 538.8Q330.35938 538.55 330.21875 538.0656Q330.15625 537.84686 330.14062 537.78436Q329.5 538.39374 328.78125 538.70624Q328.0625 539.01874 327.25 539.01874Q325.79688 539.01874 324.96875 538.2375Q324.14062 537.4406 324.14062 536.2531Q324.14062 535.45624 324.51562 534.84686Q324.89062 534.22186 325.57812 533.89374Q326.26562 533.5656 327.54688 533.3156Q329.28125 532.9875 329.9375 532.70624L329.9375 532.45624Q329.9375 531.7531 329.57812 531.45624Q329.23438 531.14374 328.26562 531.14374Q327.60938 531.14374 327.23438 531.40936Q326.85938 531.65936 326.64062 532.3156ZM329.9375 534.3156Q329.46875 534.47186 328.4375 534.6906Q327.40625 534.90936 327.09375 535.1281Q326.60938 535.47186 326.60938 536.0031Q326.60938 536.51874 327.0 536.89374Q327.39062 537.26874 327.98438 537.26874Q328.65625 537.26874 329.25 536.83124Q329.70312 536.5031 329.84375 536.01874Q329.9375 535.6906 329.9375 534.8156L329.9375 534.3156ZM333.92188 536.14374L336.40625 535.7531Q336.5625 536.47186 337.04688 536.84686Q337.53125 537.22186 338.39062 537.22186Q339.35938 537.22186 339.84375 536.8781Q340.15625 536.6281 340.15625 536.22186Q340.15625 535.9406 339.98438 535.7531Q339.79688 535.58124 339.15625 535.425Q336.17188 534.76874 335.375 534.22186Q334.26562 533.47186 334.26562 532.1125Q334.26562 530.90936 335.21875 530.08124Q336.1875 529.2531 338.1875 529.2531Q340.10938 529.2531 341.03125 529.8781Q341.96875 530.5031 342.32812 531.72186L340.0 532.15936Q339.84375 531.6125 339.42188 531.33124Q339.01562 531.03436 338.23438 531.03436Q337.26562 531.03436 336.84375 531.3Q336.5625 531.5031 336.5625 531.8Q336.5625 532.0656 336.8125 532.2531Q337.14062 532.5031 339.10938 532.95624Q341.07812 533.39374 341.875 534.05Q342.64062 534.70624 342.64062 535.8781Q342.64062 537.15936 341.5625 538.09686Q340.5 539.01874 338.39062 539.01874Q336.48438 539.01874 335.375 538.2375Q334.26562 537.45624 333.92188 536.14374ZM350.20312 535.83124L352.65625 536.2375Q352.1875 537.59686 351.15625 538.3156Q350.14062 539.01874 348.59375 539.01874Q346.15625 539.01874 345.0 537.425Q344.07812 536.14374 344.07812 534.20624Q344.07812 531.8781 345.28125 530.5656Q346.5 529.2531 348.35938 529.2531Q350.4375 529.2531 351.64062 530.6281Q352.84375 532.0031 352.79688 534.84686L346.60938 534.84686Q346.625 535.9406 347.1875 536.55Q347.76562 537.15936 348.625 537.15936Q349.20312 537.15936 349.59375 536.84686Q350.0 536.53436 350.20312 535.83124ZM350.34375 533.33124Q350.3125 532.2531 349.78125 531.70624Q349.25 531.14374 348.5 531.14374Q347.6875 531.14374 347.17188 531.7375Q346.64062 532.3156 346.64062 533.33124L350.34375 533.33124ZM358.15625 538.8L355.6875 538.8L355.6875 529.47186L357.98438 529.47186L357.98438 530.8Q358.5625 529.84686 359.03125 529.55Q359.51562 529.2531 360.10938 529.2531Q360.95312 529.2531 361.73438 529.72186L360.96875 531.8781Q360.34375 531.47186 359.8125 531.47186Q359.29688 531.47186 358.92188 531.7531Q358.5625 532.03436 358.35938 532.78436Q358.15625 533.53436 358.15625 535.90936L358.15625 538.8ZM361.92188 536.14374L364.40625 535.7531Q364.5625 536.47186 365.04688 536.84686Q365.53125 537.22186 366.39062 537.22186Q367.35938 537.22186 367.84375 536.8781Q368.15625 536.6281 368.15625 536.22186Q368.15625 535.9406 367.98438 535.7531Q367.79688 535.58124 367.15625 535.425Q364.17188 534.76874 363.375 534.22186Q362.26562 533.47186 362.26562 532.1125Q362.26562 530.90936 363.21875 530.08124Q364.1875 529.2531 366.1875 529.2531Q368.10938 529.2531 369.03125 529.8781Q369.96875 530.5031 370.32812 531.72186L368.0 532.15936Q367.84375 531.6125 367.42188 531.33124Q367.01562 531.03436 366.23438 531.03436Q365.26562 531.03436 364.84375 531.3Q364.5625 531.5031 364.5625 531.8Q364.5625 532.0656 364.8125 532.2531Q365.14062 532.5031 367.10938 532.95624Q369.07812 533.39374 369.875 534.05Q370.64062 534.70624 370.64062 535.8781Q370.64062 537.15936 369.5625 538.09686Q368.5 539.01874 366.39062 539.01874Q364.48438 539.01874 363.375 538.2375Q362.26562 537.45624 361.92188 536.14374ZM381.89062 542.58124L380.1875 542.58124Q378.84375 540.5656 378.14062 538.3781Q377.4375 536.175 377.4375 534.1281Q377.4375 531.59686 378.3125 529.33124Q379.0625 527.3625 380.23438 525.6906L381.92188 525.6906Q380.70312 528.3625 380.25 530.2375Q379.8125 532.09686 379.8125 534.1906Q379.8125 535.6281 380.07812 537.14374Q380.34375 538.64374 380.8125 540.01874Q381.10938 540.90936 381.89062 542.58124ZM388.10938 538.8L388.10938 536.20624L382.82812 536.20624L382.82812 534.05L388.42188 525.8625L390.5 525.8625L390.5 534.03436L392.09375 534.03436L392.09375 536.20624L390.5 536.20624L390.5 538.8L388.10938 538.8ZM388.10938 534.03436L388.10938 529.6281L385.14062 534.03436L388.10938 534.03436ZM393.79688 538.8L393.79688 536.33124L396.26562 536.33124L396.26562 538.8L393.79688 538.8ZM403.10938 538.8L403.10938 536.20624L397.82812 536.20624L397.82812 534.05L403.42188 525.8625L405.5 525.8625L405.5 534.03436L407.09375 534.03436L407.09375 536.20624L405.5 536.20624L405.5 538.8L403.10938 538.8ZM403.10938 534.03436L403.10938 529.6281L400.14062 534.03436L403.10938 534.03436ZM408.26562 528.3781L408.26562 526.09686L416.71875 526.09686L416.71875 527.8781Q415.67188 528.90936 414.57812 530.84686Q413.5 532.76874 412.9375 534.9406Q412.375 537.09686 412.375 538.8L410.0 538.8Q410.0625 536.1281 411.09375 533.34686Q412.14062 530.5656 413.875 528.3781L408.26562 528.3781ZM418.28125 529.09686Q418.28125 527.3625 419.03125 526.53436Q419.79688 525.6906 421.10938 525.6906Q422.45312 525.6906 423.20312 526.53436Q423.96875 527.3625 423.96875 529.09686Q423.96875 530.83124 423.20312 531.675Q422.45312 532.5031 421.14062 532.5031Q419.79688 532.5031 419.03125 531.675Q418.28125 530.83124 418.28125 529.09686ZM420.20312 529.08124Q420.20312 530.33124 420.5 530.76874Q420.71875 531.08124 421.10938 531.08124Q421.5 531.08124 421.71875 530.76874Q422.0 530.33124 422.0 529.08124Q422.0 527.8156 421.71875 527.39374Q421.5 527.08124 421.10938 527.08124Q420.71875 527.08124 420.5 527.39374Q420.20312 527.8156 420.20312 529.08124ZM422.98438 539.3L421.15625 539.3L428.01562 525.6906L429.79688 525.6906L422.98438 539.3ZM426.96875 535.90936Q426.96875 534.175 427.73438 533.34686Q428.5 532.5031 429.8125 532.5031Q431.14062 532.5031 431.89062 533.34686Q432.65625 534.175 432.65625 535.90936Q432.65625 537.64374 431.89062 538.4875Q431.14062 539.3156 429.84375 539.3156Q428.5 539.3156 427.73438 538.4875Q426.96875 537.64374 426.96875 535.90936ZM428.90625 535.89374Q428.90625 537.15936 429.1875 537.58124Q429.40625 537.90936 429.79688 537.90936Q430.1875 537.90936 430.40625 537.58124Q430.6875 537.15936 430.6875 535.89374Q430.6875 534.64374 430.40625 534.20624Q430.1875 533.89374 429.79688 533.89374Q429.40625 533.89374 429.1875 534.20624Q428.90625 534.64374 428.90625 535.89374ZM435.10938 542.58124Q435.84375 541.01874 436.14062 540.175Q436.4375 539.34686 436.6875 538.26874Q436.9375 537.175 437.0625 536.1906Q437.1875 535.20624 437.1875 534.1906Q437.1875 532.09686 436.73438 530.2375Q436.29688 528.3625 435.09375 525.6906L436.76562 525.6906Q438.09375 527.58124 438.82812 529.70624Q439.5625 531.8156 439.5625 534.0031Q439.5625 535.83124 438.98438 537.9406Q438.32812 540.3 436.8125 542.58124L435.10938 542.58124Z" fill-rule="nonzero"/><path fill="#f0ff9b" d="M468.5 532.3C468.5 535.6137 465.81372 538.3 462.5 538.3C459.18628 538.3 456.5 535.6137 456.5 532.3C456.5 528.98627 459.18628 526.3 462.5 526.3C465.81372 526.3 468.5 528.98627 468.5 532.3Z" fill-rule="nonzero"/><path fill="#ffffff" d="M477.82812 538.8L477.82812 525.90936L486.65625 525.90936L486.65625 528.09686L480.42188 528.09686L480.42188 531.14374L485.8125 531.14374L485.8125 533.33124L480.42188 533.33124L480.42188 538.8L477.82812 538.8ZM491.70312 538.8L491.70312 528.09686L487.89062 528.09686L487.89062 525.90936L498.125 525.90936L498.125 528.09686L494.3125 528.09686L494.3125 538.8L491.70312 538.8ZM499.875 538.8L499.875 526.01874L502.48438 526.01874L502.48438 536.6281L508.95312 536.6281L508.95312 538.8L499.875 538.8ZM515.875 538.8L515.875 526.01874L518.4844 526.01874L518.4844 536.6281L524.9531 536.6281L524.9531 538.8L515.875 538.8ZM528.6406 532.3156L526.3906 531.90936Q526.78125 530.55 527.7031 529.90936Q528.625 529.2531 530.4375 529.2531Q532.09375 529.2531 532.8906 529.64374Q533.7031 530.03436 534.03125 530.64374Q534.375 531.2375 534.375 532.84686L534.34375 535.7375Q534.34375 536.95624 534.4531 537.55Q534.5781 538.1281 534.90625 538.8L532.46875 538.8Q532.3594 538.55 532.21875 538.0656Q532.15625 537.84686 532.1406 537.78436Q531.5 538.39374 530.78125 538.70624Q530.0625 539.01874 529.25 539.01874Q527.7969 539.01874 526.96875 538.2375Q526.1406 537.4406 526.1406 536.2531Q526.1406 535.45624 526.5156 534.84686Q526.8906 534.22186 527.5781 533.89374Q528.2656 533.5656 529.5469 533.3156Q531.28125 532.9875 531.9375 532.70624L531.9375 532.45624Q531.9375 531.7531 531.5781 531.45624Q531.2344 531.14374 530.2656 531.14374Q529.6094 531.14374 529.2344 531.40936Q528.8594 531.65936 528.6406 532.3156ZM531.9375 534.3156Q531.46875 534.47186 530.4375 534.6906Q529.40625 534.90936 529.09375 535.1281Q528.6094 535.47186 528.6094 536.0031Q528.6094 536.51874 529.0 536.89374Q529.3906 537.26874 529.9844 537.26874Q530.65625 537.26874 531.25 536.83124Q531.7031 536.5031 531.84375 536.01874Q531.9375 535.6906 531.9375 534.8156L531.9375 534.3156ZM536.6875 538.8L536.6875 525.90936L539.15625 525.90936L539.15625 530.55Q540.2969 529.2531 541.8594 529.2531Q543.5625 529.2531 544.6719 530.4875Q545.7969 531.72186 545.7969 534.03436Q545.7969 536.425 544.65625 537.72186Q543.53125 539.01874 541.90625 539.01874Q541.09375 539.01874 540.3125 538.6125Q539.5469 538.20624 538.9844 537.425L538.9844 538.8L536.6875 538.8ZM539.1406 533.925Q539.1406 535.3781 539.59375 536.08124Q540.2344 537.0656 541.2969 537.0656Q542.125 537.0656 542.6875 536.3625Q543.2656 535.65936 543.2656 534.15936Q543.2656 532.5656 542.6875 531.8625Q542.1094 531.14374 541.2031 531.14374Q540.3125 531.14374 539.71875 531.83124Q539.1406 532.51874 539.1406 533.925ZM546.9219 536.14374L549.40625 535.7531Q549.5625 536.47186 550.0469 536.84686Q550.53125 537.22186 551.3906 537.22186Q552.3594 537.22186 552.84375 536.8781Q553.15625 536.6281 553.15625 536.22186Q553.15625 535.9406 552.9844 535.7531Q552.7969 535.58124 552.15625 535.425Q549.1719 534.76874 548.375 534.22186Q547.2656 533.47186 547.2656 532.1125Q547.2656 530.90936 548.21875 530.08124Q549.1875 529.2531 551.1875 529.2531Q553.1094 529.2531 554.03125 529.8781Q554.96875 530.5031 555.3281 531.72186L553.0 532.15936Q552.84375 531.6125 552.4219 531.33124Q552.0156 531.03436 551.2344 531.03436Q550.2656 531.03436 549.84375 531.3Q549.5625 531.5031 549.5625 531.8Q549.5625 532.0656 549.8125 532.2531Q550.1406 532.5031 552.1094 532.95624Q554.0781 533.39374 554.875 534.05Q555.6406 534.70624 555.6406 535.8781Q555.6406 537.15936 554.5625 538.09686Q553.5 539.01874 551.3906 539.01874Q549.4844 539.01874 548.375 538.2375Q547.2656 537.45624 546.9219 536.14374ZM566.8906 542.58124L565.1875 542.58124Q563.84375 540.5656 563.1406 538.3781Q562.4375 536.175 562.4375 534.1281Q562.4375 531.59686 563.3125 529.33124Q564.0625 527.3625 565.2344 525.6906L566.9219 525.6906Q565.7031 528.3625 565.25 530.2375Q564.8125 532.09686 564.8125 534.1906Q564.8125 535.6281 565.0781 537.14374Q565.34375 538.64374 565.8125 540.01874Q566.1094 540.90936 566.8906 542.58124ZM568.1719 535.3781L570.5625 535.09686Q570.6875 536.0031 571.1875 536.4875Q571.6875 536.97186 572.3906 536.97186Q573.15625 536.97186 573.6719 536.39374Q574.2031 535.8156 574.2031 534.83124Q574.2031 533.89374 573.7031 533.34686Q573.2031 532.8 572.4844 532.8Q572.0156 532.8 571.34375 532.9875L571.625 530.97186Q572.625 531.0031 573.1406 530.55Q573.6719 530.08124 573.6719 529.3156Q573.6719 528.65936 573.28125 528.28436Q572.90625 527.89374 572.2656 527.89374Q571.625 527.89374 571.1719 528.33124Q570.7344 528.76874 570.6406 529.6125L568.3594 529.22186Q568.59375 528.0656 569.0781 527.3625Q569.5625 526.65936 570.40625 526.26874Q571.2656 525.8625 572.3281 525.8625Q574.15625 525.8625 575.25 527.01874Q576.15625 527.97186 576.15625 529.15936Q576.15625 530.8625 574.2969 531.8781Q575.40625 532.1125 576.0625 532.9406Q576.7344 533.76874 576.7344 534.925Q576.7344 536.6281 575.5 537.83124Q574.2656 539.01874 572.40625 539.01874Q570.6719 539.01874 569.5156 538.01874Q568.3594 537.0031 568.1719 535.3781ZM582.4375 525.8625Q584.3125 525.8625 585.3594 527.1906Q586.625 528.78436 586.625 532.4406Q586.625 536.09686 585.3594 537.70624Q584.3125 539.01874 582.4375 539.01874Q580.5625 539.01874 579.40625 537.58124Q578.25 536.1281 578.25 532.425Q578.25 528.78436 579.5156 527.175Q580.5625 525.8625 582.4375 525.8625ZM582.4375 527.90936Q581.9844 527.90936 581.625 528.20624Q581.28125 528.4875 581.09375 529.22186Q580.84375 530.175 580.84375 532.4406Q580.84375 534.70624 581.0625 535.5656Q581.2969 536.40936 581.6406 536.6906Q581.9844 536.97186 582.4375 536.97186Q582.8906 536.97186 583.2344 536.6906Q583.59375 536.39374 583.78125 535.65936Q584.0469 534.70624 584.0469 532.4406Q584.0469 530.175 583.8125 529.33124Q583.5781 528.4875 583.2344 528.20624Q582.8906 527.90936 582.4375 527.90936ZM588.7969 538.8L588.7969 536.33124L591.2656 536.33124L591.2656 538.8L588.7969 538.8ZM593.2969 535.4875L595.7656 535.2375Q595.8594 536.0656 596.375 536.55Q596.90625 537.03436 597.5781 537.03436Q598.3594 537.03436 598.8906 536.40936Q599.4219 535.78436 599.4219 534.51874Q599.4219 533.33124 598.8906 532.7375Q598.3594 532.14374 597.5156 532.14374Q596.4531 532.14374 595.6094 533.08124L593.59375 532.8L594.8594 526.09686L601.3906 526.09686L601.3906 528.40936L596.7344 528.40936L596.34375 530.59686Q597.1719 530.175 598.03125 530.175Q599.6875 530.175 600.8281 531.3781Q601.96875 532.5656 601.96875 534.47186Q601.96875 536.0656 601.0469 537.3156Q599.78125 539.01874 597.5469 539.01874Q595.7656 539.01874 594.6406 538.0656Q593.5156 537.09686 593.2969 535.4875ZM603.1719 535.3781L605.5625 535.09686Q605.6875 536.0031 606.1875 536.4875Q606.6875 536.97186 607.3906 536.97186Q608.15625 536.97186 608.6719 536.39374Q609.2031 535.8156 609.2031 534.83124Q609.2031 533.89374 608.7031 533.34686Q608.2031 532.8 607.4844 532.8Q607.0156 532.8 606.34375 532.9875L606.625 530.97186Q607.625 531.0031 608.1406 530.55Q608.6719 530.08124 608.6719 529.3156Q608.6719 528.65936 608.28125 528.28436Q607.90625 527.89374 607.2656 527.89374Q606.625 527.89374 606.1719 528.33124Q605.7344 528.76874 605.6406 529.6125L603.3594 529.22186Q603.59375 528.0656 604.0781 527.3625Q604.5625 526.65936 605.40625 526.26874Q606.2656 525.8625 607.3281 525.8625Q609.15625 525.8625 610.25 527.01874Q611.15625 527.97186 611.15625 529.15936Q611.15625 530.8625 609.2969 531.8781Q610.40625 532.1125 611.0625 532.9406Q611.7344 533.76874 611.7344 534.925Q611.7344 536.6281 610.5 537.83124Q609.2656 539.01874 607.40625 539.01874Q605.6719 539.01874 604.5156 538.01874Q603.3594 537.0031 603.1719 535.3781ZM613.28125 529.09686Q613.28125 527.3625 614.03125 526.53436Q614.7969 525.6906 616.1094 525.6906Q617.4531 525.6906 618.2031 526.53436Q618.96875 527.3625 618.96875 529.09686Q618.96875 530.83124 618.2031 531.675Q617.4531 532.5031 616.1406 532.5031Q614.7969 532.5031 614.03125 531.675Q613.28125 530.83124 613.28125 529.09686ZM615.2031 529.08124Q615.2031 530.33124 615.5 530.76874Q615.71875 531.08124 616.1094 531.08124Q616.5 531.08124 616.71875 530.76874Q617.0 530.33124 617.0 529.08124Q617.0 527.8156 616.71875 527.39374Q616.5 527.08124 616.1094 527.08124Q615.71875 527.08124 615.5 527.39374Q615.2031 527.8156 615.2031 529.08124ZM617.9844 539.3L616.15625 539.3L623.0156 525.6906L624.7969 525.6906L617.9844 539.3ZM621.96875 535.90936Q621.96875 534.175 622.7344 533.34686Q623.5 532.5031 624.8125 532.5031Q626.1406 532.5031 626.8906 533.34686Q627.65625 534.175 627.65625 535.90936Q627.65625 537.64374 626.8906 538.4875Q626.1406 539.3156 624.84375 539.3156Q623.5 539.3156 622.7344 538.4875Q621.96875 537.64374 621.96875 535.90936ZM623.90625 535.89374Q623.90625 537.15936 624.1875 537.58124Q624.40625 537.90936 624.7969 537.90936Q625.1875 537.90936 625.40625 537.58124Q625.6875 537.15936 625.6875 535.89374Q625.6875 534.64374 625.40625 534.20624Q625.1875 533.89374 624.7969 533.89374Q624.40625 533.89374 624.1875 534.20624Q623.90625 534.64374 623.90625 535.89374ZM630.1094 542.58124Q630.84375 541.01874 631.1406 540.175Q631.4375 539.34686 631.6875 538.26874Q631.9375 537.175 632.0625 536.1906Q632.1875 535.20624 632.1875 534.1906Q632.1875 532.09686 631.7344 530.2375Q631.2969 528.3625 630.09375 525.6906L631.7656 525.6906Q633.09375 527.58124 633.8281 529.70624Q634.5625 531.8156 634.5625 534.0031Q634.5625 535.83124 633.9844 537.9406Q633.3281 540.3 631.8125 542.58124L630.1094 542.58124Z" fill-rule="nonzero"/><path fill="#14bf51" d="M61.0 557.3C61.0 560.6137 58.31371 563.3 55.0 563.3C51.68629 563.3 49.0 560.6137 49.0 557.3C49.0 553.98627 51.68629 551.3 55.0 551.3C58.31371 551.3 61.0 553.98627 61.0 557.3Z" fill-rule="nonzero"/><path fill="#ffffff" d="M70.296875 550.90936L75.0625 550.90936Q76.671875 550.90936 77.515625 551.15936Q78.640625 551.4875 79.453125 552.34686Q80.265625 553.20624 80.6875 554.4406Q81.109375 555.675 81.109375 557.4875Q81.109375 559.0656 80.703125 560.22186Q80.21875 561.6281 79.328125 562.5031Q78.65625 563.15936 77.5 563.53436Q76.640625 563.8 75.203125 563.8L70.296875 563.8L70.296875 550.90936ZM72.90625 553.09686L72.90625 561.6281L74.84375 561.6281Q75.9375 561.6281 76.421875 561.5031Q77.046875 561.34686 77.46875 560.97186Q77.890625 560.59686 78.140625 559.7375Q78.40625 558.8625 78.40625 557.3625Q78.40625 555.8781 78.140625 555.08124Q77.890625 554.26874 77.40625 553.83124Q76.9375 553.3781 76.203125 553.22186Q75.65625 553.09686 74.078125 553.09686L72.90625 553.09686ZM94.921875 563.8L92.09375 563.8L90.96875 560.8781L85.828125 560.8781L84.765625 563.8L82.0 563.8L87.015625 550.90936L89.765625 550.90936L94.921875 563.8ZM90.140625 558.70624L88.359375 553.925L86.625 558.70624L90.140625 558.70624ZM95.78125 557.4406Q95.78125 555.47186 96.375 554.1281Q96.8125 553.14374 97.5625 552.3625Q98.328125 551.58124 99.234375 551.20624Q100.4375 550.6906 102.015625 550.6906Q104.859375 550.6906 106.5625 552.45624Q108.28125 554.22186 108.28125 557.3781Q108.28125 560.4875 106.578125 562.2531Q104.890625 564.01874 102.046875 564.01874Q99.171875 564.01874 97.46875 562.26874Q95.78125 560.51874 95.78125 557.4406ZM98.46875 557.34686Q98.46875 559.53436 99.46875 560.675Q100.484375 561.8 102.046875 561.8Q103.59375 561.8 104.59375 560.675Q105.59375 559.55 105.59375 557.3156Q105.59375 555.09686 104.625 554.01874Q103.65625 552.925 102.046875 552.925Q100.4375 552.925 99.453125 554.03436Q98.46875 555.1281 98.46875 557.34686ZM115.015625 560.3625L115.015625 557.89374L119.859375 557.89374L119.859375 560.3625L115.015625 560.3625ZM126.234375 563.8L126.234375 550.90936L128.82812 550.90936L128.82812 563.8L126.234375 563.8ZM139.78125 563.8L137.3125 563.8L137.3125 559.03436Q137.3125 557.51874 137.15625 557.08124Q137.0 556.64374 136.64062 556.39374Q136.28125 556.14374 135.78125 556.14374Q135.14062 556.14374 134.625 556.5031Q134.125 556.84686 133.9375 557.425Q133.75 558.0031 133.75 559.5656L133.75 563.8L131.28125 563.8L131.28125 554.47186L133.5625 554.47186L133.5625 555.83124Q134.79688 554.2531 136.64062 554.2531Q137.46875 554.2531 138.14062 554.55Q138.8125 554.84686 139.15625 555.3Q139.51562 555.7531 139.64062 556.34686Q139.78125 556.925 139.78125 558.0031L139.78125 563.8ZM142.29688 553.20624L142.29688 550.90936L144.76562 550.90936L144.76562 553.20624L142.29688 553.20624ZM142.29688 563.8L142.29688 554.47186L144.76562 554.47186L144.76562 563.8L142.29688 563.8ZM151.57812 554.47186L151.57812 556.4406L149.89062 556.4406L149.89062 560.1906Q149.89062 561.33124 149.9375 561.53436Q149.98438 561.72186 150.15625 561.84686Q150.32812 561.95624 150.57812 561.95624Q150.90625 561.95624 151.5625 561.72186L151.78125 563.64374Q150.90625 564.01874 149.82812 564.01874Q149.15625 564.01874 148.60938 563.8Q148.07812 563.5656 147.82812 563.20624Q147.57812 562.84686 147.48438 562.2375Q147.40625 561.8156 147.40625 560.5031L147.40625 556.4406L146.26562 556.4406L146.26562 554.47186L147.40625 554.47186L147.40625 552.6125L149.89062 551.175L149.89062 554.47186L151.57812 554.47186ZM153.29688 553.20624L153.29688 550.90936L155.76562 550.90936L155.76562 553.20624L153.29688 553.20624ZM153.29688 563.8L153.29688 554.47186L155.76562 554.47186L155.76562 563.8L153.29688 563.8ZM160.14062 557.3156L157.89062 556.90936Q158.28125 555.55 159.20312 554.90936Q160.125 554.2531 161.9375 554.2531Q163.59375 554.2531 164.39062 554.64374Q165.20312 555.03436 165.53125 555.64374Q165.875 556.2375 165.875 557.84686L165.84375 560.7375Q165.84375 561.95624 165.95312 562.55Q166.07812 563.1281 166.40625 563.8L163.96875 563.8Q163.85938 563.55 163.71875 563.0656Q163.65625 562.84686 163.64062 562.78436Q163.0 563.39374 162.28125 563.70624Q161.5625 564.01874 160.75 564.01874Q159.29688 564.01874 158.46875 563.2375Q157.64062 562.4406 157.64062 561.2531Q157.64062 560.45624 158.01562 559.84686Q158.39062 559.22186 159.07812 558.89374Q159.76562 558.5656 161.04688 558.3156Q162.78125 557.9875 163.4375 557.70624L163.4375 557.45624Q163.4375 556.7531 163.07812 556.45624Q162.73438 556.14374 161.76562 556.14374Q161.10938 556.14374 160.73438 556.40936Q160.35938 556.65936 160.14062 557.3156ZM163.4375 559.3156Q162.96875 559.47186 161.9375 559.6906Q160.90625 559.90936 160.59375 560.1281Q160.10938 560.47186 160.10938 561.0031Q160.10938 561.51874 160.5 561.89374Q160.89062 562.26874 161.48438 562.26874Q162.15625 562.26874 162.75 561.83124Q163.20312 561.5031 163.34375 561.01874Q163.4375 560.6906 163.4375 559.8156L163.4375 559.3156ZM168.29688 563.8L168.29688 550.90936L170.76562 550.90936L170.76562 563.8L168.29688 563.8ZM177.65625 559.6125L180.1875 559.3625Q180.40625 560.6281 181.10938 561.2375Q181.8125 561.83124 183.0 561.83124Q184.25 561.83124 184.89062 561.3Q185.53125 560.76874 185.53125 560.05Q185.53125 559.59686 185.25 559.28436Q184.98438 558.95624 184.32812 558.72186Q183.85938 558.5656 182.23438 558.15936Q180.14062 557.64374 179.29688 556.8781Q178.10938 555.8156 178.10938 554.28436Q178.10938 553.3 178.67188 552.45624Q179.23438 551.59686 180.28125 551.14374Q181.32812 550.6906 182.8125 550.6906Q185.25 550.6906 186.46875 551.7531Q187.70312 552.8156 187.76562 554.59686L185.15625 554.70624Q184.98438 553.72186 184.4375 553.28436Q183.89062 552.84686 182.79688 552.84686Q181.65625 552.84686 181.01562 553.3156Q180.60938 553.6125 180.60938 554.1125Q180.60938 554.5656 180.98438 554.89374Q181.48438 555.3156 183.375 555.76874Q185.28125 556.20624 186.1875 556.6906Q187.09375 557.15936 187.60938 558.0031Q188.125 558.83124 188.125 560.05Q188.125 561.15936 187.5 562.1281Q186.89062 563.08124 185.76562 563.5656Q184.64062 564.03436 182.96875 564.03436Q180.53125 564.03436 179.21875 562.90936Q177.90625 561.76874 177.65625 559.6125ZM195.70312 560.83124L198.15625 561.2375Q197.6875 562.59686 196.65625 563.3156Q195.64062 564.01874 194.09375 564.01874Q191.65625 564.01874 190.5 562.425Q189.57812 561.14374 189.57812 559.20624Q189.57812 556.8781 190.78125 555.5656Q192.0 554.2531 193.85938 554.2531Q195.9375 554.2531 197.14062 555.6281Q198.34375 557.0031 198.29688 559.84686L192.10938 559.84686Q192.125 560.9406 192.6875 561.55Q193.26562 562.15936 194.125 562.15936Q194.70312 562.15936 195.09375 561.84686Q195.5 561.53436 195.70312 560.83124ZM195.84375 558.33124Q195.8125 557.2531 195.28125 556.70624Q194.75 556.14374 194.0 556.14374Q193.1875 556.14374 192.67188 556.7375Q192.14062 557.3156 192.14062 558.33124L195.84375 558.33124ZM203.65625 563.8L201.1875 563.8L201.1875 554.47186L203.48438 554.47186L203.48438 555.8Q204.0625 554.84686 204.53125 554.55Q205.01562 554.2531 205.60938 554.2531Q206.45312 554.2531 207.23438 554.72186L206.46875 556.8781Q205.84375 556.47186 205.3125 556.47186Q204.79688 556.47186 204.42188 556.7531Q204.0625 557.03436 203.85938 557.78436Q203.65625 558.53436 203.65625 560.90936L203.65625 563.8ZM210.85938 563.8L207.09375 554.47186L209.6875 554.47186L211.45312 559.22186L211.95312 560.8156Q212.15625 560.20624 212.21875 560.01874Q212.32812 559.6281 212.46875 559.22186L214.25 554.47186L216.79688 554.47186L213.07812 563.8L210.85938 563.8ZM219.29688 553.20624L219.29688 550.90936L221.76562 550.90936L221.76562 553.20624L219.29688 553.20624ZM219.29688 563.8L219.29688 554.47186L221.76562 554.47186L221.76562 563.8L219.29688 563.8ZM232.4375 557.22186L230.0 557.65936Q229.875 556.9406 229.4375 556.5656Q229.0 556.1906 228.3125 556.1906Q227.39062 556.1906 226.82812 556.83124Q226.28125 557.47186 226.28125 558.97186Q226.28125 560.6281 226.84375 561.3156Q227.40625 562.0031 228.34375 562.0031Q229.04688 562.0031 229.48438 561.59686Q229.9375 561.1906 230.125 560.22186L232.54688 560.6281Q232.17188 562.3 231.09375 563.15936Q230.03125 564.01874 228.23438 564.01874Q226.1875 564.01874 224.96875 562.72186Q223.75 561.425 223.75 559.14374Q223.75 556.83124 224.96875 555.55Q226.1875 554.2531 228.28125 554.2531Q229.98438 554.2531 230.98438 554.9875Q231.98438 555.72186 232.4375 557.22186ZM239.70312 560.83124L242.15625 561.2375Q241.6875 562.59686 240.65625 563.3156Q239.64062 564.01874 238.09375 564.01874Q235.65625 564.01874 234.5 562.425Q233.57812 561.14374 233.57812 559.20624Q233.57812 556.8781 234.78125 555.5656Q236.0 554.2531 237.85938 554.2531Q239.9375 554.2531 241.14062 555.6281Q242.34375 557.0031 242.29688 559.84686L236.10938 559.84686Q236.125 560.9406 236.6875 561.55Q237.26562 562.15936 238.125 562.15936Q238.70312 562.15936 239.09375 561.84686Q239.5 561.53436 239.70312 560.83124ZM239.84375 558.33124Q239.8125 557.2531 239.28125 556.70624Q238.75 556.14374 238.0 556.14374Q237.1875 556.14374 236.67188 556.7375Q236.14062 557.3156 236.14062 558.33124L239.84375 558.33124ZM250.3125 563.8L250.3125 550.90936L254.48438 550.90936Q256.85938 550.90936 257.57812 551.1125Q258.6875 551.39374 259.4375 552.3781Q260.1875 553.34686 260.1875 554.8781Q260.1875 556.0656 259.75 556.8781Q259.3125 557.675 258.64062 558.14374Q257.98438 558.6125 257.3125 558.7531Q256.375 558.9406 254.60938 558.9406L252.90625 558.9406L252.90625 563.8L250.3125 563.8ZM252.90625 553.09686L252.90625 556.7531L254.32812 556.7531Q255.875 556.7531 256.39062 556.55Q256.90625 556.34686 257.20312 555.925Q257.5 555.4875 257.5 554.90936Q257.5 554.20624 257.07812 553.7531Q256.67188 553.3 256.04688 553.175Q255.57812 553.09686 254.17188 553.09686L252.90625 553.09686ZM264.65625 563.8L262.1875 563.8L262.1875 554.47186L264.48438 554.47186L264.48438 555.8Q265.0625 554.84686 265.53125 554.55Q266.01562 554.2531 266.60938 554.2531Q267.45312 554.2531 268.23438 554.72186L267.46875 556.8781Q266.84375 556.47186 266.3125 556.47186Q265.79688 556.47186 265.42188 556.7531Q265.0625 557.03436 264.85938 557.78436Q264.65625 558.53436 264.65625 560.90936L264.65625 563.8ZM268.71875 559.0031Q268.71875 557.76874 269.32812 556.6281Q269.9375 555.47186 271.04688 554.8625Q272.15625 554.2531 273.53125 554.2531Q275.64062 554.2531 277.0 555.6281Q278.35938 557.0031 278.35938 559.1125Q278.35938 561.22186 276.98438 562.6281Q275.625 564.01874 273.54688 564.01874Q272.26562 564.01874 271.09375 563.4406Q269.9375 562.84686 269.32812 561.7375Q268.71875 560.6125 268.71875 559.0031ZM271.25 559.1281Q271.25 560.51874 271.90625 561.26874Q272.57812 562.0031 273.53125 562.0031Q274.5 562.0031 275.15625 561.26874Q275.8125 560.51874 275.8125 559.1125Q275.8125 557.7375 275.15625 557.0031Q274.5 556.26874 273.53125 556.26874Q272.57812 556.26874 271.90625 557.0031Q271.25 557.7375 271.25 559.1281ZM282.85938 563.8L279.09375 554.47186L281.6875 554.47186L283.45312 559.22186L283.95312 560.8156Q284.15625 560.20624 284.21875 560.01874Q284.32812 559.6281 284.46875 559.22186L286.25 554.47186L288.79688 554.47186L285.07812 563.8L282.85938 563.8ZM291.29688 553.20624L291.29688 550.90936L293.76562 550.90936L293.76562 553.20624L291.29688 553.20624ZM291.29688 563.8L291.29688 554.47186L293.76562 554.47186L293.76562 563.8L291.29688 563.8ZM304.85938 563.8L302.5625 563.8L302.5625 562.425Q301.98438 563.22186 301.20312 563.6281Q300.4375 564.01874 299.64062 564.01874Q298.03125 564.01874 296.875 562.72186Q295.73438 561.425 295.73438 559.09686Q295.73438 556.72186 296.84375 555.4875Q297.96875 554.2531 299.67188 554.2531Q301.23438 554.2531 302.39062 555.55L302.39062 550.90936L304.85938 550.90936L304.85938 563.8ZM298.26562 558.925Q298.26562 560.425 298.67188 561.09686Q299.26562 562.0656 300.34375 562.0656Q301.20312 562.0656 301.79688 561.34686Q302.39062 560.6125 302.39062 559.175Q302.39062 557.5656 301.8125 556.8625Q301.23438 556.14374 300.32812 556.14374Q299.45312 556.14374 298.85938 556.84686Q298.26562 557.53436 298.26562 558.925ZM312.70312 560.83124L315.15625 561.2375Q314.6875 562.59686 313.65625 563.3156Q312.64062 564.01874 311.09375 564.01874Q308.65625 564.01874 307.5 562.425Q306.57812 561.14374 306.57812 559.20624Q306.57812 556.8781 307.78125 555.5656Q309.0 554.2531 310.85938 554.2531Q312.9375 554.2531 314.14062 555.6281Q315.34375 557.0031 315.29688 559.84686L309.10938 559.84686Q309.125 560.9406 309.6875 561.55Q310.26562 562.15936 311.125 562.15936Q311.70312 562.15936 312.09375 561.84686Q312.5 561.53436 312.70312 560.83124ZM312.84375 558.33124Q312.8125 557.2531 312.28125 556.70624Q311.75 556.14374 311.0 556.14374Q310.1875 556.14374 309.67188 556.7375Q309.14062 557.3156 309.14062 558.33124L312.84375 558.33124ZM320.65625 563.8L318.1875 563.8L318.1875 554.47186L320.48438 554.47186L320.48438 555.8Q321.0625 554.84686 321.53125 554.55Q322.01562 554.2531 322.60938 554.2531Q323.45312 554.2531 324.23438 554.72186L323.46875 556.8781Q322.84375 556.47186 322.3125 556.47186Q321.79688 556.47186 321.42188 556.7531Q321.0625 557.03436 320.85938 557.78436Q320.65625 558.53436 320.65625 560.90936L320.65625 563.8ZM324.42188 561.14374L326.90625 560.7531Q327.0625 561.47186 327.54688 561.84686Q328.03125 562.22186 328.89062 562.22186Q329.85938 562.22186 330.34375 561.8781Q330.65625 561.6281 330.65625 561.22186Q330.65625 560.9406 330.48438 560.7531Q330.29688 560.58124 329.65625 560.425Q326.67188 559.76874 325.875 559.22186Q324.76562 558.47186 324.76562 557.1125Q324.76562 555.90936 325.71875 555.08124Q326.6875 554.2531 328.6875 554.2531Q330.60938 554.2531 331.53125 554.8781Q332.46875 555.5031 332.82812 556.72186L330.5 557.15936Q330.34375 556.6125 329.92188 556.33124Q329.51562 556.03436 328.73438 556.03436Q327.76562 556.03436 327.34375 556.3Q327.0625 556.5031 327.0625 556.8Q327.0625 557.0656 327.3125 557.2531Q327.64062 557.5031 329.60938 557.95624Q331.57812 558.39374 332.375 559.05Q333.14062 559.70624 333.14062 560.8781Q333.14062 562.15936 332.0625 563.09686Q331.0 564.01874 328.89062 564.01874Q326.98438 564.01874 325.875 563.2375Q324.76562 562.45624 324.42188 561.14374ZM344.39062 567.58124L342.6875 567.58124Q341.34375 565.5656 340.64062 563.3781Q339.9375 561.175 339.9375 559.1281Q339.9375 556.59686 340.8125 554.33124Q341.5625 552.3625 342.73438 550.6906L344.42188 550.6906Q343.20312 553.3625 342.75 555.2375Q342.3125 557.09686 342.3125 559.1906Q342.3125 560.6281 342.57812 562.14374Q342.84375 563.64374 343.3125 565.01874Q343.60938 565.90936 344.39062 567.58124ZM354.10938 561.5031L354.10938 563.8L345.45312 563.8Q345.59375 562.5031 346.29688 561.34686Q347.0 560.175 349.0625 558.2375Q350.73438 556.6906 351.125 556.1281Q351.625 555.3781 351.625 554.6281Q351.625 553.8 351.17188 553.3625Q350.73438 552.90936 349.95312 552.90936Q349.1875 552.90936 348.71875 553.3781Q348.26562 553.84686 348.20312 554.925L345.73438 554.675Q345.95312 552.64374 347.10938 551.7531Q348.28125 550.8625 350.01562 550.8625Q351.92188 550.8625 353.01562 551.89374Q354.10938 552.925 354.10938 554.4406Q354.10938 555.3156 353.79688 556.1125Q353.48438 556.89374 352.8125 557.7531Q352.35938 558.33124 351.1875 559.40936Q350.01562 560.47186 349.70312 560.83124Q349.39062 561.175 349.20312 561.5031L354.10938 561.5031ZM356.29688 563.8L356.29688 561.33124L358.76562 561.33124L358.76562 563.8L356.29688 563.8ZM369.10938 561.5031L369.10938 563.8L360.45312 563.8Q360.59375 562.5031 361.29688 561.34686Q362.0 560.175 364.0625 558.2375Q365.73438 556.6906 366.125 556.1281Q366.625 555.3781 366.625 554.6281Q366.625 553.8 366.17188 553.3625Q365.73438 552.90936 364.95312 552.90936Q364.1875 552.90936 363.71875 553.3781Q363.26562 553.84686 363.20312 554.925L360.73438 554.675Q360.95312 552.64374 362.10938 551.7531Q363.28125 550.8625 365.01562 550.8625Q366.92188 550.8625 368.01562 551.89374Q369.10938 552.925 369.10938 554.4406Q369.10938 555.3156 368.79688 556.1125Q368.48438 556.89374 367.8125 557.7531Q367.35938 558.33124 366.1875 559.40936Q365.01562 560.47186 364.70312 560.83124Q364.39062 561.175 364.20312 561.5031L369.10938 561.5031ZM370.79688 560.4875L373.26562 560.2375Q373.35938 561.0656 373.875 561.55Q374.40625 562.03436 375.07812 562.03436Q375.85938 562.03436 376.39062 561.40936Q376.92188 560.78436 376.92188 559.51874Q376.92188 558.33124 376.39062 557.7375Q375.85938 557.14374 375.01562 557.14374Q373.95312 557.14374 373.10938 558.08124L371.09375 557.8L372.35938 551.09686L378.89062 551.09686L378.89062 553.40936L374.23438 553.40936L373.84375 555.59686Q374.67188 555.175 375.53125 555.175Q377.1875 555.175 378.32812 556.3781Q379.46875 557.5656 379.46875 559.47186Q379.46875 561.0656 378.54688 562.3156Q377.28125 564.01874 375.04688 564.01874Q373.26562 564.01874 372.14062 563.0656Q371.01562 562.09686 370.79688 560.4875ZM380.78125 554.09686Q380.78125 552.3625 381.53125 551.53436Q382.29688 550.6906 383.60938 550.6906Q384.95312 550.6906 385.70312 551.53436Q386.46875 552.3625 386.46875 554.09686Q386.46875 555.83124 385.70312 556.675Q384.95312 557.5031 383.64062 557.5031Q382.29688 557.5031 381.53125 556.675Q380.78125 555.83124 380.78125 554.09686ZM382.70312 554.08124Q382.70312 555.33124 383.0 555.76874Q383.21875 556.08124 383.60938 556.08124Q384.0 556.08124 384.21875 555.76874Q384.5 555.33124 384.5 554.08124Q384.5 552.8156 384.21875 552.39374Q384.0 552.08124 383.60938 552.08124Q383.21875 552.08124 383.0 552.39374Q382.70312 552.8156 382.70312 554.08124ZM385.48438 564.3L383.65625 564.3L390.51562 550.6906L392.29688 550.6906L385.48438 564.3ZM389.46875 560.90936Q389.46875 559.175 390.23438 558.34686Q391.0 557.5031 392.3125 557.5031Q393.64062 557.5031 394.39062 558.34686Q395.15625 559.175 395.15625 560.90936Q395.15625 562.64374 394.39062 563.4875Q393.64062 564.3156 392.34375 564.3156Q391.0 564.3156 390.23438 563.4875Q389.46875 562.64374 389.46875 560.90936ZM391.40625 560.89374Q391.40625 562.15936 391.6875 562.58124Q391.90625 562.90936 392.29688 562.90936Q392.6875 562.90936 392.90625 562.58124Q393.1875 562.15936 393.1875 560.89374Q393.1875 559.64374 392.90625 559.20624Q392.6875 558.89374 392.29688 558.89374Q391.90625 558.89374 391.6875 559.20624Q391.40625 559.64374 391.40625 560.89374ZM397.60938 567.58124Q398.34375 566.01874 398.64062 565.175Q398.9375 564.34686 399.1875 563.26874Q399.4375 562.175 399.5625 561.1906Q399.6875 560.20624 399.6875 559.1906Q399.6875 557.09686 399.23438 555.2375Q398.79688 553.3625 397.59375 550.6906L399.26562 550.6906Q400.59375 552.58124 401.32812 554.70624Q402.0625 556.8156 402.0625 559.0031Q402.0625 560.83124 401.48438 562.9406Q400.82812 565.3 399.3125 567.58124L397.60938 567.58124Z" fill-rule="nonzero"/><path fill="#ffb4ff" d="M431.0 557.3C431.0 560.6137 428.31372 563.3 425.0 563.3C421.68628 563.3 419.0 560.6137 419.0 557.3C419.0 553.98627 421.68628 551.3 425.0 551.3C428.31372 551.3 431.0 553.98627 431.0 557.3Z" fill-rule="nonzero"/><path fill="#ffffff" d="M440.29688 550.90936L445.0625 550.90936Q446.67188 550.90936 447.51562 551.15936Q448.64062 551.4875 449.45312 552.34686Q450.26562 553.20624 450.6875 554.4406Q451.10938 555.675 451.10938 557.4875Q451.10938 559.0656 450.70312 560.22186Q450.21875 561.6281 449.32812 562.5031Q448.65625 563.15936 447.5 563.53436Q446.64062 563.8 445.20312 563.8L440.29688 563.8L440.29688 550.90936ZM442.90625 553.09686L442.90625 561.6281L444.84375 561.6281Q445.9375 561.6281 446.42188 561.5031Q447.04688 561.34686 447.46875 560.97186Q447.89062 560.59686 448.14062 559.7375Q448.40625 558.8625 448.40625 557.3625Q448.40625 555.8781 448.14062 555.08124Q447.89062 554.26874 447.40625 553.83124Q446.9375 553.3781 446.20312 553.22186Q445.65625 553.09686 444.07812 553.09686L442.90625 553.09686ZM464.92188 563.8L462.09375 563.8L460.96875 560.8781L455.82812 560.8781L454.76562 563.8L452.0 563.8L457.01562 550.90936L459.76562 550.90936L464.92188 563.8ZM460.14062 558.70624L458.35938 553.925L456.625 558.70624L460.14062 558.70624ZM465.78125 557.4406Q465.78125 555.47186 466.375 554.1281Q466.8125 553.14374 467.5625 552.3625Q468.32812 551.58124 469.23438 551.20624Q470.4375 550.6906 472.01562 550.6906Q474.85938 550.6906 476.5625 552.45624Q478.28125 554.22186 478.28125 557.3781Q478.28125 560.4875 476.57812 562.2531Q474.89062 564.01874 472.04688 564.01874Q469.17188 564.01874 467.46875 562.26874Q465.78125 560.51874 465.78125 557.4406ZM468.46875 557.34686Q468.46875 559.53436 469.46875 560.675Q470.48438 561.8 472.04688 561.8Q473.59375 561.8 474.59375 560.675Q475.59375 559.55 475.59375 557.3156Q475.59375 555.09686 474.625 554.01874Q473.65625 552.925 472.04688 552.925Q470.4375 552.925 469.45312 554.03436Q468.46875 555.1281 468.46875 557.34686ZM485.01562 560.3625L485.01562 557.89374L489.85938 557.89374L489.85938 560.3625L485.01562 560.3625ZM496.23438 563.8L496.23438 550.90936L498.82812 550.90936L498.82812 563.8L496.23438 563.8ZM509.78125 563.8L507.3125 563.8L507.3125 559.03436Q507.3125 557.51874 507.15625 557.08124Q507.0 556.64374 506.64062 556.39374Q506.28125 556.14374 505.78125 556.14374Q505.14062 556.14374 504.625 556.5031Q504.125 556.84686 503.9375 557.425Q503.75 558.0031 503.75 559.5656L503.75 563.8L501.28125 563.8L501.28125 554.47186L503.5625 554.47186L503.5625 555.83124Q504.79688 554.2531 506.64062 554.2531Q507.46875 554.2531 508.14062 554.55Q508.8125 554.84686 509.15625 555.3Q509.51562 555.7531 509.64062 556.34686Q509.78125 556.925 509.78125 558.0031L509.78125 563.8ZM512.2969 553.20624L512.2969 550.90936L514.7656 550.90936L514.7656 553.20624L512.2969 553.20624ZM512.2969 563.8L512.2969 554.47186L514.7656 554.47186L514.7656 563.8L512.2969 563.8ZM521.5781 554.47186L521.5781 556.4406L519.8906 556.4406L519.8906 560.1906Q519.8906 561.33124 519.9375 561.53436Q519.9844 561.72186 520.15625 561.84686Q520.3281 561.95624 520.5781 561.95624Q520.90625 561.95624 521.5625 561.72186L521.78125 563.64374Q520.90625 564.01874 519.8281 564.01874Q519.15625 564.01874 518.6094 563.8Q518.0781 563.5656 517.8281 563.20624Q517.5781 562.84686 517.4844 562.2375Q517.40625 561.8156 517.40625 560.5031L517.40625 556.4406L516.2656 556.4406L516.2656 554.47186L517.40625 554.47186L517.40625 552.6125L519.8906 551.175L519.8906 554.47186L521.5781 554.47186ZM523.2969 553.20624L523.2969 550.90936L525.7656 550.90936L525.7656 553.20624L523.2969 553.20624ZM523.2969 563.8L523.2969 554.47186L525.7656 554.47186L525.7656 563.8L523.2969 563.8ZM530.1406 557.3156L527.8906 556.90936Q528.28125 555.55 529.2031 554.90936Q530.125 554.2531 531.9375 554.2531Q533.59375 554.2531 534.3906 554.64374Q535.2031 555.03436 535.53125 555.64374Q535.875 556.2375 535.875 557.84686L535.84375 560.7375Q535.84375 561.95624 535.9531 562.55Q536.0781 563.1281 536.40625 563.8L533.96875 563.8Q533.8594 563.55 533.71875 563.0656Q533.65625 562.84686 533.6406 562.78436Q533.0 563.39374 532.28125 563.70624Q531.5625 564.01874 530.75 564.01874Q529.2969 564.01874 528.46875 563.2375Q527.6406 562.4406 527.6406 561.2531Q527.6406 560.45624 528.0156 559.84686Q528.3906 559.22186 529.0781 558.89374Q529.7656 558.5656 531.0469 558.3156Q532.78125 557.9875 533.4375 557.70624L533.4375 557.45624Q533.4375 556.7531 533.0781 556.45624Q532.7344 556.14374 531.7656 556.14374Q531.1094 556.14374 530.7344 556.40936Q530.3594 556.65936 530.1406 557.3156ZM533.4375 559.3156Q532.96875 559.47186 531.9375 559.6906Q530.90625 559.90936 530.59375 560.1281Q530.1094 560.47186 530.1094 561.0031Q530.1094 561.51874 530.5 561.89374Q530.8906 562.26874 531.4844 562.26874Q532.15625 562.26874 532.75 561.83124Q533.2031 561.5031 533.34375 561.01874Q533.4375 560.6906 533.4375 559.8156L533.4375 559.3156ZM538.2969 563.8L538.2969 550.90936L540.7656 550.90936L540.7656 563.8L538.2969 563.8ZM559.9219 563.8L557.09375 563.8L555.96875 560.8781L550.8281 560.8781L549.7656 563.8L547.0 563.8L552.0156 550.90936L554.7656 550.90936L559.9219 563.8ZM555.1406 558.70624L553.3594 553.925L551.625 558.70624L555.1406 558.70624ZM561.2969 553.20624L561.2969 550.90936L563.7656 550.90936L563.7656 553.20624L561.2969 553.20624ZM561.2969 563.8L561.2969 554.47186L563.7656 554.47186L563.7656 563.8L561.2969 563.8ZM568.65625 563.8L566.1875 563.8L566.1875 554.47186L568.4844 554.47186L568.4844 555.8Q569.0625 554.84686 569.53125 554.55Q570.0156 554.2531 570.6094 554.2531Q571.4531 554.2531 572.2344 554.72186L571.46875 556.8781Q570.84375 556.47186 570.3125 556.47186Q569.7969 556.47186 569.4219 556.7531Q569.0625 557.03436 568.8594 557.78436Q568.65625 558.53436 568.65625 560.90936L568.65625 563.8ZM581.8594 563.8L579.5625 563.8L579.5625 562.425Q578.9844 563.22186 578.2031 563.6281Q577.4375 564.01874 576.6406 564.01874Q575.03125 564.01874 573.875 562.72186Q572.7344 561.425 572.7344 559.09686Q572.7344 556.72186 573.84375 555.4875Q574.96875 554.2531 576.6719 554.2531Q578.2344 554.2531 579.3906 555.55L579.3906 550.90936L581.8594 550.90936L581.8594 563.8ZM575.2656 558.925Q575.2656 560.425 575.6719 561.09686Q576.2656 562.0656 577.34375 562.0656Q578.2031 562.0656 578.7969 561.34686Q579.3906 560.6125 579.3906 559.175Q579.3906 557.5656 578.8125 556.8625Q578.2344 556.14374 577.3281 556.14374Q576.4531 556.14374 575.8594 556.84686Q575.2656 557.53436 575.2656 558.925ZM586.65625 563.8L584.1875 563.8L584.1875 554.47186L586.4844 554.47186L586.4844 555.8Q587.0625 554.84686 587.53125 554.55Q588.0156 554.2531 588.6094 554.2531Q589.4531 554.2531 590.2344 554.72186L589.46875 556.8781Q588.84375 556.47186 588.3125 556.47186Q587.7969 556.47186 587.4219 556.7531Q587.0625 557.03436 586.8594 557.78436Q586.65625 558.53436 586.65625 560.90936L586.65625 563.8ZM590.71875 559.0031Q590.71875 557.76874 591.3281 556.6281Q591.9375 555.47186 593.0469 554.8625Q594.15625 554.2531 595.53125 554.2531Q597.6406 554.2531 599.0 555.6281Q600.3594 557.0031 600.3594 559.1125Q600.3594 561.22186 598.9844 562.6281Q597.625 564.01874 595.5469 564.01874Q594.2656 564.01874 593.09375 563.4406Q591.9375 562.84686 591.3281 561.7375Q590.71875 560.6125 590.71875 559.0031ZM593.25 559.1281Q593.25 560.51874 593.90625 561.26874Q594.5781 562.0031 595.53125 562.0031Q596.5 562.0031 597.15625 561.26874Q597.8125 560.51874 597.8125 559.1125Q597.8125 557.7375 597.15625 557.0031Q596.5 556.26874 595.53125 556.26874Q594.5781 556.26874 593.90625 557.0031Q593.25 557.7375 593.25 559.1281ZM602.21875 554.47186L604.53125 554.47186L604.53125 555.83124Q604.96875 555.1281 605.7344 554.6906Q606.5 554.2531 607.4375 554.2531Q609.0625 554.2531 610.1875 555.53436Q611.3281 556.8 611.3281 559.08124Q611.3281 561.425 610.1875 562.72186Q609.0469 564.01874 607.4219 564.01874Q606.6406 564.01874 606.0156 563.70624Q605.3906 563.39374 604.6875 562.64374L604.6875 567.34686L602.21875 567.34686L602.21875 554.47186ZM604.6719 558.97186Q604.6719 560.55 605.28125 561.3Q605.90625 562.05 606.8125 562.05Q607.6719 562.05 608.2344 561.3625Q608.8125 560.675 608.8125 559.09686Q608.8125 557.6281 608.21875 556.925Q607.6406 556.20624 606.7656 556.20624Q605.8594 556.20624 605.2656 556.90936Q604.6719 557.59686 604.6719 558.97186ZM622.3906 567.58124L620.6875 567.58124Q619.34375 565.5656 618.6406 563.3781Q617.9375 561.175 617.9375 559.1281Q617.9375 556.59686 618.8125 554.33124Q619.5625 552.3625 620.7344 550.6906L622.4219 550.6906Q621.2031 553.3625 620.75 555.2375Q620.3125 557.09686 620.3125 559.1906Q620.3125 560.6281 620.5781 562.14374Q620.84375 563.64374 621.3125 565.01874Q621.6094 565.90936 622.3906 567.58124ZM630.0781 563.8L627.6094 563.8L627.6094 554.4875Q626.2656 555.7531 624.4219 556.3625L624.4219 554.1281Q625.3906 553.8 626.5156 552.925Q627.65625 552.03436 628.0781 550.8625L630.0781 550.8625L630.0781 563.8ZM640.0781 563.8L637.6094 563.8L637.6094 554.4875Q636.2656 555.7531 634.4219 556.3625L634.4219 554.1281Q635.3906 553.8 636.5156 552.925Q637.65625 552.03436 638.0781 550.8625L640.0781 550.8625L640.0781 563.8ZM644.2969 563.8L644.2969 561.33124L646.7656 561.33124L646.7656 563.8L644.2969 563.8ZM648.6719 560.3781L651.0625 560.09686Q651.1875 561.0031 651.6875 561.4875Q652.1875 561.97186 652.8906 561.97186Q653.65625 561.97186 654.1719 561.39374Q654.7031 560.8156 654.7031 559.83124Q654.7031 558.89374 654.2031 558.34686Q653.7031 557.8 652.9844 557.8Q652.5156 557.8 651.84375 557.9875L652.125 555.97186Q653.125 556.0031 653.6406 555.55Q654.1719 555.08124 654.1719 554.3156Q654.1719 553.65936 653.78125 553.28436Q653.40625 552.89374 652.7656 552.89374Q652.125 552.89374 651.6719 553.33124Q651.2344 553.76874 651.1406 554.6125L648.8594 554.22186Q649.09375 553.0656 649.5781 552.3625Q650.0625 551.65936 650.90625 551.26874Q651.7656 550.8625 652.8281 550.8625Q654.65625 550.8625 655.75 552.01874Q656.65625 552.97186 656.65625 554.15936Q656.65625 555.8625 654.7969 556.8781Q655.90625 557.1125 656.5625 557.9406Q657.2344 558.76874 657.2344 559.925Q657.2344 561.6281 656.0 562.83124Q654.7656 564.01874 652.90625 564.01874Q651.1719 564.01874 650.0156 563.01874Q648.8594 562.0031 648.6719 560.3781ZM665.0781 563.8L662.6094 563.8L662.6094 554.4875Q661.2656 555.7531 659.4219 556.3625L659.4219 554.1281Q660.3906 553.8 661.5156 552.925Q662.65625 552.03436 663.0781 550.8625L665.0781 550.8625L665.0781 563.8ZM668.78125 554.09686Q668.78125 552.3625 669.53125 551.53436Q670.2969 550.6906 671.6094 550.6906Q672.9531 550.6906 673.7031 551.53436Q674.46875 552.3625 674.46875 554.09686Q674.46875 555.83124 673.7031 556.675Q672.9531 557.5031 671.6406 557.5031Q670.2969 557.5031 669.53125 556.675Q668.78125 555.83124 668.78125 554.09686ZM670.7031 554.08124Q670.7031 555.33124 671.0 555.76874Q671.21875 556.08124 671.6094 556.08124Q672.0 556.08124 672.21875 555.76874Q672.5 555.33124 672.5 554.08124Q672.5 552.8156 672.21875 552.39374Q672.0 552.08124 671.6094 552.08124Q671.21875 552.08124 671.0 552.39374Q670.7031 552.8156 670.7031 554.08124ZM673.4844 564.3L671.65625 564.3L678.5156 550.6906L680.2969 550.6906L673.4844 564.3ZM677.46875 560.90936Q677.46875 559.175 678.2344 558.34686Q679.0 557.5031 680.3125 557.5031Q681.6406 557.5031 682.3906 558.34686Q683.15625 559.175 683.15625 560.90936Q683.15625 562.64374 682.3906 563.4875Q681.6406 564.3156 680.34375 564.3156Q679.0 564.3156 678.2344 563.4875Q677.46875 562.64374 677.46875 560.90936ZM679.40625 560.89374Q679.40625 562.15936 679.6875 562.58124Q679.90625 562.90936 680.2969 562.90936Q680.6875 562.90936 680.90625 562.58124Q681.1875 562.15936 681.1875 560.89374Q681.1875 559.64374 680.90625 559.20624Q680.6875 558.89374 680.2969 558.89374Q679.90625 558.89374 679.6875 559.20624Q679.40625 559.64374 679.40625 560.89374ZM685.6094 567.58124Q686.34375 566.01874 686.6406 565.175Q686.9375 564.34686 687.1875 563.26874Q687.4375 562.175 687.5625 561.1906Q687.6875 560.20624 687.6875 559.1906Q687.6875 557.09686 687.2344 555.2375Q686.7969 553.3625 685.59375 550.6906L687.2656 550.6906Q688.59375 552.58124 689.3281 554.70624Q690.0625 556.8156 690.0625 559.0031Q690.0625 560.83124 689.4844 562.9406Q688.8281 565.3 687.3125 567.58124L685.6094 567.58124Z" fill-rule="nonzero"/><path fill="#1470e8" d="M80.5 582.3C80.5 585.6137 77.813705 588.3 74.5 588.3C71.186295 588.3 68.5 585.6137 68.5 582.3C68.5 578.98627 71.186295 576.3 74.5 576.3C77.813705 576.3 80.5 578.98627 80.5 582.3Z" fill-rule="nonzero"/><path fill="#ffffff" d="M89.796875 575.90936L94.5625 575.90936Q96.171875 575.90936 97.015625 576.15936Q98.140625 576.4875 98.953125 577.34686Q99.765625 578.20624 100.1875 579.4406Q100.609375 580.675 100.609375 582.4875Q100.609375 584.0656 100.203125 585.22186Q99.71875 586.6281 98.828125 587.5031Q98.15625 588.15936 97.0 588.53436Q96.140625 588.8 94.703125 588.8L89.796875 588.8L89.796875 575.90936ZM92.40625 578.09686L92.40625 586.6281L94.34375 586.6281Q95.4375 586.6281 95.921875 586.5031Q96.546875 586.34686 96.96875 585.97186Q97.390625 585.59686 97.640625 584.7375Q97.90625 583.8625 97.90625 582.3625Q97.90625 580.8781 97.640625 580.08124Q97.390625 579.26874 96.90625 578.83124Q96.4375 578.3781 95.703125 578.22186Q95.15625 578.09686 93.578125 578.09686L92.40625 578.09686ZM114.421875 588.8L111.59375 588.8L110.46875 585.8781L105.328125 585.8781L104.265625 588.8L101.5 588.8L106.515625 575.90936L109.265625 575.90936L114.421875 588.8ZM109.640625 583.70624L107.859375 578.925L106.125 583.70624L109.640625 583.70624ZM115.28125 582.4406Q115.28125 580.47186 115.875 579.1281Q116.3125 578.14374 117.0625 577.3625Q117.828125 576.58124 118.734375 576.20624Q119.9375 575.6906 121.515625 575.6906Q124.359375 575.6906 126.0625 577.45624Q127.78125 579.22186 127.78125 582.3781Q127.78125 585.4875 126.078125 587.2531Q124.390625 589.01874 121.546875 589.01874Q118.671875 589.01874 116.96875 587.26874Q115.28125 585.51874 115.28125 582.4406ZM117.96875 582.34686Q117.96875 584.53436 118.96875 585.675Q119.984375 586.8 121.546875 586.8Q123.09375 586.8 124.09375 585.675Q125.09375 584.55 125.09375 582.3156Q125.09375 580.09686 124.125 579.01874Q123.15625 577.925 121.546875 577.925Q119.9375 577.925 118.953125 579.03436Q117.96875 580.1281 117.96875 582.34686ZM134.51562 585.3625L134.51562 582.89374L139.35938 582.89374L139.35938 585.3625L134.51562 585.3625ZM151.79688 584.0656L151.79688 581.89374L157.40625 581.89374L157.40625 587.01874Q156.59375 587.8156 155.03125 588.425Q153.48438 589.01874 151.90625 589.01874Q149.875 589.01874 148.375 588.175Q146.875 587.3156 146.10938 585.7531Q145.35938 584.175 145.35938 582.3156Q145.35938 580.3 146.20312 578.7375Q147.04688 577.175 148.67188 576.33124Q149.92188 575.6906 151.76562 575.6906Q154.15625 575.6906 155.5 576.70624Q156.85938 577.70624 157.25 579.4875L154.65625 579.97186Q154.39062 579.01874 153.64062 578.47186Q152.89062 577.925 151.76562 577.925Q150.0625 577.925 149.04688 579.0031Q148.04688 580.08124 148.04688 582.20624Q148.04688 584.5031 149.0625 585.65936Q150.07812 586.8 151.73438 586.8Q152.54688 586.8 153.35938 586.4875Q154.1875 586.15936 154.78125 585.6906L154.78125 584.0656L151.79688 584.0656ZM158.625 579.47186L161.25 579.47186L163.48438 586.09686L165.65625 579.47186L168.21875 579.47186L164.92188 588.4406L164.34375 590.08124Q164.01562 590.89374 163.71875 591.3156Q163.42188 591.7531 163.03125 592.01874Q162.65625 592.28436 162.09375 592.425Q161.54688 592.58124 160.84375 592.58124Q160.125 592.58124 159.4375 592.4406L159.21875 590.5031Q159.79688 590.6125 160.26562 590.6125Q161.125 590.6125 161.53125 590.1125Q161.95312 589.6125 162.17188 588.83124L158.625 579.47186ZM173.15625 588.8L170.6875 588.8L170.6875 579.47186L172.98438 579.47186L172.98438 580.8Q173.5625 579.84686 174.03125 579.55Q174.51562 579.2531 175.10938 579.2531Q175.95312 579.2531 176.73438 579.72186L175.96875 581.8781Q175.34375 581.47186 174.8125 581.47186Q174.29688 581.47186 173.92188 581.7531Q173.5625 582.03436 173.35938 582.78436Q173.15625 583.53436 173.15625 585.90936L173.15625 588.8ZM177.21875 584.0031Q177.21875 582.76874 177.82812 581.6281Q178.4375 580.47186 179.54688 579.8625Q180.65625 579.2531 182.03125 579.2531Q184.14062 579.2531 185.5 580.6281Q186.85938 582.0031 186.85938 584.1125Q186.85938 586.22186 185.48438 587.6281Q184.125 589.01874 182.04688 589.01874Q180.76562 589.01874 179.59375 588.4406Q178.4375 587.84686 177.82812 586.7375Q177.21875 585.6125 177.21875 584.0031ZM179.75 584.1281Q179.75 585.51874 180.40625 586.26874Q181.07812 587.0031 182.03125 587.0031Q183.0 587.0031 183.65625 586.26874Q184.3125 585.51874 184.3125 584.1125Q184.3125 582.7375 183.65625 582.0031Q183.0 581.26874 182.03125 581.26874Q181.07812 581.26874 180.40625 582.0031Q179.75 582.7375 179.75 584.1281ZM187.92188 586.14374L190.40625 585.7531Q190.5625 586.47186 191.04688 586.84686Q191.53125 587.22186 192.39062 587.22186Q193.35938 587.22186 193.84375 586.8781Q194.15625 586.6281 194.15625 586.22186Q194.15625 585.9406 193.98438 585.7531Q193.79688 585.58124 193.15625 585.425Q190.17188 584.76874 189.375 584.22186Q188.26562 583.47186 188.26562 582.1125Q188.26562 580.90936 189.21875 580.08124Q190.1875 579.2531 192.1875 579.2531Q194.10938 579.2531 195.03125 579.8781Q195.96875 580.5031 196.32812 581.72186L194.0 582.15936Q193.84375 581.6125 193.42188 581.33124Q193.01562 581.03436 192.23438 581.03436Q191.26562 581.03436 190.84375 581.3Q190.5625 581.5031 190.5625 581.8Q190.5625 582.0656 190.8125 582.2531Q191.14062 582.5031 193.10938 582.95624Q195.07812 583.39374 195.875 584.05Q196.64062 584.70624 196.64062 585.8781Q196.64062 587.15936 195.5625 588.09686Q194.5 589.01874 192.39062 589.01874Q190.48438 589.01874 189.375 588.2375Q188.26562 587.45624 187.92188 586.14374ZM206.9375 582.22186L204.5 582.65936Q204.375 581.9406 203.9375 581.5656Q203.5 581.1906 202.8125 581.1906Q201.89062 581.1906 201.32812 581.83124Q200.78125 582.47186 200.78125 583.97186Q200.78125 585.6281 201.34375 586.3156Q201.90625 587.0031 202.84375 587.0031Q203.54688 587.0031 203.98438 586.59686Q204.4375 586.1906 204.625 585.22186L207.04688 585.6281Q206.67188 587.3 205.59375 588.15936Q204.53125 589.01874 202.73438 589.01874Q200.6875 589.01874 199.46875 587.72186Q198.25 586.425 198.25 584.14374Q198.25 581.83124 199.46875 580.55Q200.6875 579.2531 202.78125 579.2531Q204.48438 579.2531 205.48438 579.9875Q206.48438 580.72186 206.9375 582.22186ZM208.21875 584.0031Q208.21875 582.76874 208.82812 581.6281Q209.4375 580.47186 210.54688 579.8625Q211.65625 579.2531 213.03125 579.2531Q215.14062 579.2531 216.5 580.6281Q217.85938 582.0031 217.85938 584.1125Q217.85938 586.22186 216.48438 587.6281Q215.125 589.01874 213.04688 589.01874Q211.76562 589.01874 210.59375 588.4406Q209.4375 587.84686 208.82812 586.7375Q208.21875 585.6125 208.21875 584.0031ZM210.75 584.1281Q210.75 585.51874 211.40625 586.26874Q212.07812 587.0031 213.03125 587.0031Q214.0 587.0031 214.65625 586.26874Q215.3125 585.51874 215.3125 584.1125Q215.3125 582.7375 214.65625 582.0031Q214.0 581.26874 213.03125 581.26874Q212.07812 581.26874 211.40625 582.0031Q210.75 582.7375 210.75 584.1281ZM219.71875 579.47186L222.03125 579.47186L222.03125 580.83124Q222.46875 580.1281 223.23438 579.6906Q224.0 579.2531 224.9375 579.2531Q226.5625 579.2531 227.6875 580.53436Q228.82812 581.8 228.82812 584.08124Q228.82812 586.425 227.6875 587.72186Q226.54688 589.01874 224.92188 589.01874Q224.14062 589.01874 223.51562 588.70624Q222.89062 588.39374 222.1875 587.64374L222.1875 592.34686L219.71875 592.34686L219.71875 579.47186ZM222.17188 583.97186Q222.17188 585.55 222.78125 586.3Q223.40625 587.05 224.3125 587.05Q225.17188 587.05 225.73438 586.3625Q226.3125 585.675 226.3125 584.09686Q226.3125 582.6281 225.71875 581.925Q225.14062 581.20624 224.26562 581.20624Q223.35938 581.20624 222.76562 581.90936Q222.17188 582.59686 222.17188 583.97186ZM236.20312 585.83124L238.65625 586.2375Q238.1875 587.59686 237.15625 588.3156Q236.14062 589.01874 234.59375 589.01874Q232.15625 589.01874 231.0 587.425Q230.07812 586.14374 230.07812 584.20624Q230.07812 581.8781 231.28125 580.5656Q232.5 579.2531 234.35938 579.2531Q236.4375 579.2531 237.64062 580.6281Q238.84375 582.0031 238.79688 584.84686L232.60938 584.84686Q232.625 585.9406 233.1875 586.55Q233.76562 587.15936 234.625 587.15936Q235.20312 587.15936 235.59375 586.84686Q236.0 586.53436 236.20312 585.83124ZM236.34375 583.33124Q236.3125 582.2531 235.78125 581.70624Q235.25 581.14374 234.5 581.14374Q233.6875 581.14374 233.17188 581.7375Q232.64062 582.3156 232.64062 583.33124L236.34375 583.33124ZM246.82812 588.8L246.82812 575.90936L255.65625 575.90936L255.65625 578.09686L249.42188 578.09686L249.42188 581.14374L254.8125 581.14374L254.8125 583.33124L249.42188 583.33124L249.42188 588.8L246.82812 588.8ZM257.21875 584.0031Q257.21875 582.76874 257.82812 581.6281Q258.4375 580.47186 259.54688 579.8625Q260.65625 579.2531 262.03125 579.2531Q264.14062 579.2531 265.5 580.6281Q266.85938 582.0031 266.85938 584.1125Q266.85938 586.22186 265.48438 587.6281Q264.125 589.01874 262.04688 589.01874Q260.76562 589.01874 259.59375 588.4406Q258.4375 587.84686 257.82812 586.7375Q257.21875 585.6125 257.21875 584.0031ZM259.75 584.1281Q259.75 585.51874 260.40625 586.26874Q261.07812 587.0031 262.03125 587.0031Q263.0 587.0031 263.65625 586.26874Q264.3125 585.51874 264.3125 584.1125Q264.3125 582.7375 263.65625 582.0031Q263.0 581.26874 262.03125 581.26874Q261.07812 581.26874 260.40625 582.0031Q259.75 582.7375 259.75 584.1281ZM274.9375 588.8L274.9375 587.40936Q274.42188 588.14374 273.59375 588.58124Q272.76562 589.01874 271.84375 589.01874Q270.90625 589.01874 270.15625 588.6125Q269.40625 588.1906 269.0625 587.4406Q268.73438 586.6906 268.73438 585.3781L268.73438 579.47186L271.20312 579.47186L271.20312 583.7531Q271.20312 585.72186 271.34375 586.175Q271.48438 586.6125 271.84375 586.8781Q272.20312 587.1281 272.75 587.1281Q273.39062 587.1281 273.89062 586.78436Q274.39062 586.4406 274.57812 585.925Q274.76562 585.40936 274.76562 583.40936L274.76562 579.47186L277.23438 579.47186L277.23438 588.8L274.9375 588.8ZM288.28125 588.8L285.8125 588.8L285.8125 584.03436Q285.8125 582.51874 285.65625 582.08124Q285.5 581.64374 285.14062 581.39374Q284.78125 581.14374 284.28125 581.14374Q283.64062 581.14374 283.125 581.5031Q282.625 581.84686 282.4375 582.425Q282.25 583.0031 282.25 584.5656L282.25 588.8L279.78125 588.8L279.78125 579.47186L282.0625 579.47186L282.0625 580.83124Q283.29688 579.2531 285.14062 579.2531Q285.96875 579.2531 286.64062 579.55Q287.3125 579.84686 287.65625 580.3Q288.01562 580.7531 288.14062 581.34686Q288.28125 581.925 288.28125 583.0031L288.28125 588.8ZM299.35938 588.8L297.0625 588.8L297.0625 587.425Q296.48438 588.22186 295.70312 588.6281Q294.9375 589.01874 294.14062 589.01874Q292.53125 589.01874 291.375 587.72186Q290.23438 586.425 290.23438 584.09686Q290.23438 581.72186 291.34375 580.4875Q292.46875 579.2531 294.17188 579.2531Q295.73438 579.2531 296.89062 580.55L296.89062 575.90936L299.35938 575.90936L299.35938 588.8ZM292.76562 583.925Q292.76562 585.425 293.17188 586.09686Q293.76562 587.0656 294.84375 587.0656Q295.70312 587.0656 296.29688 586.34686Q296.89062 585.6125 296.89062 584.175Q296.89062 582.5656 296.3125 581.8625Q295.73438 581.14374 294.82812 581.14374Q293.95312 581.14374 293.35938 581.84686Q292.76562 582.53436 292.76562 583.925ZM303.64062 582.3156L301.39062 581.90936Q301.78125 580.55 302.70312 579.90936Q303.625 579.2531 305.4375 579.2531Q307.09375 579.2531 307.89062 579.64374Q308.70312 580.03436 309.03125 580.64374Q309.375 581.2375 309.375 582.84686L309.34375 585.7375Q309.34375 586.95624 309.45312 587.55Q309.57812 588.1281 309.90625 588.8L307.46875 588.8Q307.35938 588.55 307.21875 588.0656Q307.15625 587.84686 307.14062 587.78436Q306.5 588.39374 305.78125 588.70624Q305.0625 589.01874 304.25 589.01874Q302.79688 589.01874 301.96875 588.2375Q301.14062 587.4406 301.14062 586.2531Q301.14062 585.45624 301.51562 584.84686Q301.89062 584.22186 302.57812 583.89374Q303.26562 583.5656 304.54688 583.3156Q306.28125 582.9875 306.9375 582.70624L306.9375 582.45624Q306.9375 581.7531 306.57812 581.45624Q306.23438 581.14374 305.26562 581.14374Q304.60938 581.14374 304.23438 581.40936Q303.85938 581.65936 303.64062 582.3156ZM306.9375 584.3156Q306.46875 584.47186 305.4375 584.6906Q304.40625 584.90936 304.09375 585.1281Q303.60938 585.47186 303.60938 586.0031Q303.60938 586.51874 304.0 586.89374Q304.39062 587.26874 304.98438 587.26874Q305.65625 587.26874 306.25 586.83124Q306.70312 586.5031 306.84375 586.01874Q306.9375 585.6906 306.9375 584.8156L306.9375 584.3156ZM316.07812 579.47186L316.07812 581.4406L314.39062 581.4406L314.39062 585.1906Q314.39062 586.33124 314.4375 586.53436Q314.48438 586.72186 314.65625 586.84686Q314.82812 586.95624 315.07812 586.95624Q315.40625 586.95624 316.0625 586.72186L316.28125 588.64374Q315.40625 589.01874 314.32812 589.01874Q313.65625 589.01874 313.10938 588.8Q312.57812 588.5656 312.32812 588.20624Q312.07812 587.84686 311.98438 587.2375Q311.90625 586.8156 311.90625 585.5031L311.90625 581.4406L310.76562 581.4406L310.76562 579.47186L311.90625 579.47186L311.90625 577.6125L314.39062 576.175L314.39062 579.47186L316.07812 579.47186ZM317.79688 578.20624L317.79688 575.90936L320.26562 575.90936L320.26562 578.20624L317.79688 578.20624ZM317.79688 588.8L317.79688 579.47186L320.26562 579.47186L320.26562 588.8L317.79688 588.8ZM322.21875 584.0031Q322.21875 582.76874 322.82812 581.6281Q323.4375 580.47186 324.54688 579.8625Q325.65625 579.2531 327.03125 579.2531Q329.14062 579.2531 330.5 580.6281Q331.85938 582.0031 331.85938 584.1125Q331.85938 586.22186 330.48438 587.6281Q329.125 589.01874 327.04688 589.01874Q325.76562 589.01874 324.59375 588.4406Q323.4375 587.84686 322.82812 586.7375Q322.21875 585.6125 322.21875 584.0031ZM324.75 584.1281Q324.75 585.51874 325.40625 586.26874Q326.07812 587.0031 327.03125 587.0031Q328.0 587.0031 328.65625 586.26874Q329.3125 585.51874 329.3125 584.1125Q329.3125 582.7375 328.65625 582.0031Q328.0 581.26874 327.03125 581.26874Q326.07812 581.26874 325.40625 582.0031Q324.75 582.7375 324.75 584.1281ZM342.28125 588.8L339.8125 588.8L339.8125 584.03436Q339.8125 582.51874 339.65625 582.08124Q339.5 581.64374 339.14062 581.39374Q338.78125 581.14374 338.28125 581.14374Q337.64062 581.14374 337.125 581.5031Q336.625 581.84686 336.4375 582.425Q336.25 583.0031 336.25 584.5656L336.25 588.8L333.78125 588.8L333.78125 579.47186L336.0625 579.47186L336.0625 580.83124Q337.29688 579.2531 339.14062 579.2531Q339.96875 579.2531 340.64062 579.55Q341.3125 579.84686 341.65625 580.3Q342.01562 580.7531 342.14062 581.34686Q342.28125 581.925 342.28125 583.0031L342.28125 588.8ZM353.89062 592.58124L352.1875 592.58124Q350.84375 590.5656 350.14062 588.3781Q349.4375 586.175 349.4375 584.1281Q349.4375 581.59686 350.3125 579.33124Q351.0625 577.3625 352.23438 575.6906L353.92188 575.6906Q352.70312 578.3625 352.25 580.2375Q351.8125 582.09686 351.8125 584.1906Q351.8125 585.6281 352.07812 587.14374Q352.34375 588.64374 352.8125 590.01874Q353.10938 590.90936 353.89062 592.58124ZM361.57812 588.8L359.10938 588.8L359.10938 579.4875Q357.76562 580.7531 355.92188 581.3625L355.92188 579.1281Q356.89062 578.8 358.01562 577.925Q359.15625 577.03436 359.57812 575.8625L361.57812 575.8625L361.57812 588.8ZM365.29688 585.4875L367.76562 585.2375Q367.85938 586.0656 368.375 586.55Q368.90625 587.03436 369.57812 587.03436Q370.35938 587.03436 370.89062 586.40936Q371.42188 585.78436 371.42188 584.51874Q371.42188 583.33124 370.89062 582.7375Q370.35938 582.14374 369.51562 582.14374Q368.45312 582.14374 367.60938 583.08124L365.59375 582.8L366.85938 576.09686L373.39062 576.09686L373.39062 578.40936L368.73438 578.40936L368.34375 580.59686Q369.17188 580.175 370.03125 580.175Q371.6875 580.175 372.82812 581.3781Q373.96875 582.5656 373.96875 584.47186Q373.96875 586.0656 373.04688 587.3156Q371.78125 589.01874 369.54688 589.01874Q367.76562 589.01874 366.64062 588.0656Q365.51562 587.09686 365.29688 585.4875ZM375.79688 588.8L375.79688 586.33124L378.26562 586.33124L378.26562 588.8L375.79688 588.8ZM384.4375 575.8625Q386.3125 575.8625 387.35938 577.1906Q388.625 578.78436 388.625 582.4406Q388.625 586.09686 387.35938 587.70624Q386.3125 589.01874 384.4375 589.01874Q382.5625 589.01874 381.40625 587.58124Q380.25 586.1281 380.25 582.425Q380.25 578.78436 381.51562 577.175Q382.5625 575.8625 384.4375 575.8625ZM384.4375 577.90936Q383.98438 577.90936 383.625 578.20624Q383.28125 578.4875 383.09375 579.22186Q382.84375 580.175 382.84375 582.4406Q382.84375 584.70624 383.0625 585.5656Q383.29688 586.40936 383.64062 586.6906Q383.98438 586.97186 384.4375 586.97186Q384.89062 586.97186 385.23438 586.6906Q385.59375 586.39374 385.78125 585.65936Q386.04688 584.70624 386.04688 582.4406Q386.04688 580.175 385.8125 579.33124Q385.57812 578.4875 385.23438 578.20624Q384.89062 577.90936 384.4375 577.90936ZM394.4375 575.8625Q396.3125 575.8625 397.35938 577.1906Q398.625 578.78436 398.625 582.4406Q398.625 586.09686 397.35938 587.70624Q396.3125 589.01874 394.4375 589.01874Q392.5625 589.01874 391.40625 587.58124Q390.25 586.1281 390.25 582.425Q390.25 578.78436 391.51562 577.175Q392.5625 575.8625 394.4375 575.8625ZM394.4375 577.90936Q393.98438 577.90936 393.625 578.20624Q393.28125 578.4875 393.09375 579.22186Q392.84375 580.175 392.84375 582.4406Q392.84375 584.70624 393.0625 585.5656Q393.29688 586.40936 393.64062 586.6906Q393.98438 586.97186 394.4375 586.97186Q394.89062 586.97186 395.23438 586.6906Q395.59375 586.39374 395.78125 585.65936Q396.04688 584.70624 396.04688 582.4406Q396.04688 580.175 395.8125 579.33124Q395.57812 578.4875 395.23438 578.20624Q394.89062 577.90936 394.4375 577.90936ZM400.28125 579.09686Q400.28125 577.3625 401.03125 576.53436Q401.79688 575.6906 403.10938 575.6906Q404.45312 575.6906 405.20312 576.53436Q405.96875 577.3625 405.96875 579.09686Q405.96875 580.83124 405.20312 581.675Q404.45312 582.5031 403.14062 582.5031Q401.79688 582.5031 401.03125 581.675Q400.28125 580.83124 400.28125 579.09686ZM402.20312 579.08124Q402.20312 580.33124 402.5 580.76874Q402.71875 581.08124 403.10938 581.08124Q403.5 581.08124 403.71875 580.76874Q404.0 580.33124 404.0 579.08124Q404.0 577.8156 403.71875 577.39374Q403.5 577.08124 403.10938 577.08124Q402.71875 577.08124 402.5 577.39374Q402.20312 577.8156 402.20312 579.08124ZM404.98438 589.3L403.15625 589.3L410.01562 575.6906L411.79688 575.6906L404.98438 589.3ZM408.96875 585.90936Q408.96875 584.175 409.73438 583.34686Q410.5 582.5031 411.8125 582.5031Q413.14062 582.5031 413.89062 583.34686Q414.65625 584.175 414.65625 585.90936Q414.65625 587.64374 413.89062 588.4875Q413.14062 589.3156 411.84375 589.3156Q410.5 589.3156 409.73438 588.4875Q408.96875 587.64374 408.96875 585.90936ZM410.90625 585.89374Q410.90625 587.15936 411.1875 587.58124Q411.40625 587.90936 411.79688 587.90936Q412.1875 587.90936 412.40625 587.58124Q412.6875 587.15936 412.6875 585.89374Q412.6875 584.64374 412.40625 584.20624Q412.1875 583.89374 411.79688 583.89374Q411.40625 583.89374 411.1875 584.20624Q410.90625 584.64374 410.90625 585.89374ZM417.10938 592.58124Q417.84375 591.01874 418.14062 590.175Q418.4375 589.34686 418.6875 588.26874Q418.9375 587.175 419.0625 586.1906Q419.1875 585.20624 419.1875 584.1906Q419.1875 582.09686 418.73438 580.2375Q418.29688 578.3625 417.09375 575.6906L418.76562 575.6906Q420.09375 577.58124 420.82812 579.70624Q421.5625 581.8156 421.5625 584.0031Q421.5625 585.83124 420.98438 587.9406Q420.32812 590.3 418.8125 592.58124L417.10938 592.58124Z" fill-rule="nonzero"/><path fill="#91f5f5" d="M450.5 582.3C450.5 585.6137 447.81372 588.3 444.5 588.3C441.18628 588.3 438.5 585.6137 438.5 582.3C438.5 578.98627 441.18628 576.3 444.5 576.3C447.81372 576.3 450.5 578.98627 450.5 582.3Z" fill-rule="nonzero"/><path fill="#ffffff" d="M459.79688 575.90936L464.5625 575.90936Q466.17188 575.90936 467.01562 576.15936Q468.14062 576.4875 468.95312 577.34686Q469.76562 578.20624 470.1875 579.4406Q470.60938 580.675 470.60938 582.4875Q470.60938 584.0656 470.20312 585.22186Q469.71875 586.6281 468.82812 587.5031Q468.15625 588.15936 467.0 588.53436Q466.14062 588.8 464.70312 588.8L459.79688 588.8L459.79688 575.90936ZM462.40625 578.09686L462.40625 586.6281L464.34375 586.6281Q465.4375 586.6281 465.92188 586.5031Q466.54688 586.34686 466.96875 585.97186Q467.39062 585.59686 467.64062 584.7375Q467.90625 583.8625 467.90625 582.3625Q467.90625 580.8781 467.64062 580.08124Q467.39062 579.26874 466.90625 578.83124Q466.4375 578.3781 465.70312 578.22186Q465.15625 578.09686 463.57812 578.09686L462.40625 578.09686ZM484.42188 588.8L481.59375 588.8L480.46875 585.8781L475.32812 585.8781L474.26562 588.8L471.5 588.8L476.51562 575.90936L479.26562 575.90936L484.42188 588.8ZM479.64062 583.70624L477.85938 578.925L476.125 583.70624L479.64062 583.70624ZM485.28125 582.4406Q485.28125 580.47186 485.875 579.1281Q486.3125 578.14374 487.0625 577.3625Q487.82812 576.58124 488.73438 576.20624Q489.9375 575.6906 491.51562 575.6906Q494.35938 575.6906 496.0625 577.45624Q497.78125 579.22186 497.78125 582.3781Q497.78125 585.4875 496.07812 587.2531Q494.39062 589.01874 491.54688 589.01874Q488.67188 589.01874 486.96875 587.26874Q485.28125 585.51874 485.28125 582.4406ZM487.96875 582.34686Q487.96875 584.53436 488.96875 585.675Q489.98438 586.8 491.54688 586.8Q493.09375 586.8 494.09375 585.675Q495.09375 584.55 495.09375 582.3156Q495.09375 580.09686 494.125 579.01874Q493.15625 577.925 491.54688 577.925Q489.9375 577.925 488.95312 579.03436Q487.96875 580.1281 487.96875 582.34686ZM504.51562 585.3625L504.51562 582.89374L509.35938 582.89374L509.35938 585.3625L504.51562 585.3625ZM518.7031 588.8L518.7031 578.09686L514.8906 578.09686L514.8906 575.90936L525.125 575.90936L525.125 578.09686L521.3125 578.09686L521.3125 588.8L518.7031 588.8ZM529.15625 588.8L526.6875 588.8L526.6875 579.47186L528.9844 579.47186L528.9844 580.8Q529.5625 579.84686 530.03125 579.55Q530.5156 579.2531 531.1094 579.2531Q531.9531 579.2531 532.7344 579.72186L531.96875 581.8781Q531.34375 581.47186 530.8125 581.47186Q530.2969 581.47186 529.9219 581.7531Q529.5625 582.03436 529.3594 582.78436Q529.15625 583.53436 529.15625 585.90936L529.15625 588.8ZM539.2031 585.83124L541.65625 586.2375Q541.1875 587.59686 540.15625 588.3156Q539.1406 589.01874 537.59375 589.01874Q535.15625 589.01874 534.0 587.425Q533.0781 586.14374 533.0781 584.20624Q533.0781 581.8781 534.28125 580.5656Q535.5 579.2531 537.3594 579.2531Q539.4375 579.2531 540.6406 580.6281Q541.84375 582.0031 541.7969 584.84686L535.6094 584.84686Q535.625 585.9406 536.1875 586.55Q536.7656 587.15936 537.625 587.15936Q538.2031 587.15936 538.59375 586.84686Q539.0 586.53436 539.2031 585.83124ZM539.34375 583.33124Q539.3125 582.2531 538.78125 581.70624Q538.25 581.14374 537.5 581.14374Q536.6875 581.14374 536.1719 581.7375Q535.6406 582.3156 535.6406 583.33124L539.34375 583.33124ZM546.6406 582.3156L544.3906 581.90936Q544.78125 580.55 545.7031 579.90936Q546.625 579.2531 548.4375 579.2531Q550.09375 579.2531 550.8906 579.64374Q551.7031 580.03436 552.03125 580.64374Q552.375 581.2375 552.375 582.84686L552.34375 585.7375Q552.34375 586.95624 552.4531 587.55Q552.5781 588.1281 552.90625 588.8L550.46875 588.8Q550.3594 588.55 550.21875 588.0656Q550.15625 587.84686 550.1406 587.78436Q549.5 588.39374 548.78125 588.70624Q548.0625 589.01874 547.25 589.01874Q545.7969 589.01874 544.96875 588.2375Q544.1406 587.4406 544.1406 586.2531Q544.1406 585.45624 544.5156 584.84686Q544.8906 584.22186 545.5781 583.89374Q546.2656 583.5656 547.5469 583.3156Q549.28125 582.9875 549.9375 582.70624L549.9375 582.45624Q549.9375 581.7531 549.5781 581.45624Q549.2344 581.14374 548.2656 581.14374Q547.6094 581.14374 547.2344 581.40936Q546.8594 581.65936 546.6406 582.3156ZM549.9375 584.3156Q549.46875 584.47186 548.4375 584.6906Q547.40625 584.90936 547.09375 585.1281Q546.6094 585.47186 546.6094 586.0031Q546.6094 586.51874 547.0 586.89374Q547.3906 587.26874 547.9844 587.26874Q548.65625 587.26874 549.25 586.83124Q549.7031 586.5031 549.84375 586.01874Q549.9375 585.6906 549.9375 584.8156L549.9375 584.3156ZM553.9219 586.14374L556.40625 585.7531Q556.5625 586.47186 557.0469 586.84686Q557.53125 587.22186 558.3906 587.22186Q559.3594 587.22186 559.84375 586.8781Q560.15625 586.6281 560.15625 586.22186Q560.15625 585.9406 559.9844 585.7531Q559.7969 585.58124 559.15625 585.425Q556.1719 584.76874 555.375 584.22186Q554.2656 583.47186 554.2656 582.1125Q554.2656 580.90936 555.21875 580.08124Q556.1875 579.2531 558.1875 579.2531Q560.1094 579.2531 561.03125 579.8781Q561.96875 580.5031 562.3281 581.72186L560.0 582.15936Q559.84375 581.6125 559.4219 581.33124Q559.0156 581.03436 558.2344 581.03436Q557.2656 581.03436 556.84375 581.3Q556.5625 581.5031 556.5625 581.8Q556.5625 582.0656 556.8125 582.2531Q557.1406 582.5031 559.1094 582.95624Q561.0781 583.39374 561.875 584.05Q562.6406 584.70624 562.6406 585.8781Q562.6406 587.15936 561.5625 588.09686Q560.5 589.01874 558.3906 589.01874Q556.4844 589.01874 555.375 588.2375Q554.2656 587.45624 553.9219 586.14374ZM570.9375 588.8L570.9375 587.40936Q570.4219 588.14374 569.59375 588.58124Q568.7656 589.01874 567.84375 589.01874Q566.90625 589.01874 566.15625 588.6125Q565.40625 588.1906 565.0625 587.4406Q564.7344 586.6906 564.7344 585.3781L564.7344 579.47186L567.2031 579.47186L567.2031 583.7531Q567.2031 585.72186 567.34375 586.175Q567.4844 586.6125 567.84375 586.8781Q568.2031 587.1281 568.75 587.1281Q569.3906 587.1281 569.8906 586.78436Q570.3906 586.4406 570.5781 585.925Q570.7656 585.40936 570.7656 583.40936L570.7656 579.47186L573.2344 579.47186L573.2344 588.8L570.9375 588.8ZM578.15625 588.8L575.6875 588.8L575.6875 579.47186L577.9844 579.47186L577.9844 580.8Q578.5625 579.84686 579.03125 579.55Q579.5156 579.2531 580.1094 579.2531Q580.9531 579.2531 581.7344 579.72186L580.96875 581.8781Q580.34375 581.47186 579.8125 581.47186Q579.2969 581.47186 578.9219 581.7531Q578.5625 582.03436 578.3594 582.78436Q578.15625 583.53436 578.15625 585.90936L578.15625 588.8ZM581.625 579.47186L584.25 579.47186L586.4844 586.09686L588.65625 579.47186L591.21875 579.47186L587.9219 588.4406L587.34375 590.08124Q587.0156 590.89374 586.71875 591.3156Q586.4219 591.7531 586.03125 592.01874Q585.65625 592.28436 585.09375 592.425Q584.5469 592.58124 583.84375 592.58124Q583.125 592.58124 582.4375 592.4406L582.21875 590.5031Q582.7969 590.6125 583.2656 590.6125Q584.125 590.6125 584.53125 590.1125Q584.9531 589.6125 585.1719 588.83124L581.625 579.47186ZM602.8906 592.58124L601.1875 592.58124Q599.84375 590.5656 599.1406 588.3781Q598.4375 586.175 598.4375 584.1281Q598.4375 581.59686 599.3125 579.33124Q600.0625 577.3625 601.2344 575.6906L602.9219 575.6906Q601.7031 578.3625 601.25 580.2375Q600.8125 582.09686 600.8125 584.1906Q600.8125 585.6281 601.0781 587.14374Q601.34375 588.64374 601.8125 590.01874Q602.1094 590.90936 602.8906 592.58124ZM604.1719 585.3781L606.5625 585.09686Q606.6875 586.0031 607.1875 586.4875Q607.6875 586.97186 608.3906 586.97186Q609.15625 586.97186 609.6719 586.39374Q610.2031 585.8156 610.2031 584.83124Q610.2031 583.89374 609.7031 583.34686Q609.2031 582.8 608.4844 582.8Q608.0156 582.8 607.34375 582.9875L607.625 580.97186Q608.625 581.0031 609.1406 580.55Q609.6719 580.08124 609.6719 579.3156Q609.6719 578.65936 609.28125 578.28436Q608.90625 577.89374 608.2656 577.89374Q607.625 577.89374 607.1719 578.33124Q606.7344 578.76874 606.6406 579.6125L604.3594 579.22186Q604.59375 578.0656 605.0781 577.3625Q605.5625 576.65936 606.40625 576.26874Q607.2656 575.8625 608.3281 575.8625Q610.15625 575.8625 611.25 577.01874Q612.15625 577.97186 612.15625 579.15936Q612.15625 580.8625 610.2969 581.8781Q611.40625 582.1125 612.0625 582.9406Q612.7344 583.76874 612.7344 584.925Q612.7344 586.6281 611.5 587.83124Q610.2656 589.01874 608.40625 589.01874Q606.6719 589.01874 605.5156 588.01874Q604.3594 587.0031 604.1719 585.3781ZM622.625 579.0656L620.2344 579.33124Q620.15625 578.59686 619.78125 578.2531Q619.4219 577.89374 618.8281 577.89374Q618.0469 577.89374 617.5 578.59686Q616.96875 579.3 616.8281 581.51874Q617.75 580.425 619.1094 580.425Q620.65625 580.425 621.7656 581.6125Q622.875 582.78436 622.875 584.64374Q622.875 586.6281 621.7031 587.83124Q620.5469 589.01874 618.7344 589.01874Q616.78125 589.01874 615.5156 587.5031Q614.2656 585.9875 614.2656 582.53436Q614.2656 578.9875 615.5781 577.425Q616.8906 575.8625 618.96875 575.8625Q620.4375 575.8625 621.40625 576.6906Q622.375 577.5031 622.625 579.0656ZM617.03125 584.45624Q617.03125 585.65936 617.5781 586.3156Q618.1406 586.97186 618.8594 586.97186Q619.53125 586.97186 619.9844 586.4406Q620.4531 585.89374 620.4531 584.675Q620.4531 583.425 619.9531 582.84686Q619.46875 582.2531 618.7344 582.2531Q618.0156 582.2531 617.5156 582.8156Q617.03125 583.3625 617.03125 584.45624ZM624.7969 588.8L624.7969 586.33124L627.2656 586.33124L627.2656 588.8L624.7969 588.8ZM634.1094 588.8L634.1094 586.20624L628.8281 586.20624L628.8281 584.05L634.4219 575.8625L636.5 575.8625L636.5 584.03436L638.09375 584.03436L638.09375 586.20624L636.5 586.20624L636.5 588.8L634.1094 588.8ZM634.1094 584.03436L634.1094 579.6281L631.1406 584.03436L634.1094 584.03436ZM644.1094 588.8L644.1094 586.20624L638.8281 586.20624L638.8281 584.05L644.4219 575.8625L646.5 575.8625L646.5 584.03436L648.09375 584.03436L648.09375 586.20624L646.5 586.20624L646.5 588.8L644.1094 588.8ZM644.1094 584.03436L644.1094 579.6281L641.1406 584.03436L644.1094 584.03436ZM649.28125 579.09686Q649.28125 577.3625 650.03125 576.53436Q650.7969 575.6906 652.1094 575.6906Q653.4531 575.6906 654.2031 576.53436Q654.96875 577.3625 654.96875 579.09686Q654.96875 580.83124 654.2031 581.675Q653.4531 582.5031 652.1406 582.5031Q650.7969 582.5031 650.03125 581.675Q649.28125 580.83124 649.28125 579.09686ZM651.2031 579.08124Q651.2031 580.33124 651.5 580.76874Q651.71875 581.08124 652.1094 581.08124Q652.5 581.08124 652.71875 580.76874Q653.0 580.33124 653.0 579.08124Q653.0 577.8156 652.71875 577.39374Q652.5 577.08124 652.1094 577.08124Q651.71875 577.08124 651.5 577.39374Q651.2031 577.8156 651.2031 579.08124ZM653.9844 589.3L652.15625 589.3L659.0156 575.6906L660.7969 575.6906L653.9844 589.3ZM657.96875 585.90936Q657.96875 584.175 658.7344 583.34686Q659.5 582.5031 660.8125 582.5031Q662.1406 582.5031 662.8906 583.34686Q663.65625 584.175 663.65625 585.90936Q663.65625 587.64374 662.8906 588.4875Q662.1406 589.3156 660.84375 589.3156Q659.5 589.3156 658.7344 588.4875Q657.96875 587.64374 657.96875 585.90936ZM659.90625 585.89374Q659.90625 587.15936 660.1875 587.58124Q660.40625 587.90936 660.7969 587.90936Q661.1875 587.90936 661.40625 587.58124Q661.6875 587.15936 661.6875 585.89374Q661.6875 584.64374 661.40625 584.20624Q661.1875 583.89374 660.7969 583.89374Q660.40625 583.89374 660.1875 584.20624Q659.90625 584.64374 659.90625 585.89374ZM666.1094 592.58124Q666.84375 591.01874 667.1406 590.175Q667.4375 589.34686 667.6875 588.26874Q667.9375 587.175 668.0625 586.1906Q668.1875 585.20624 668.1875 584.1906Q668.1875 582.09686 667.7344 580.2375Q667.2969 578.3625 666.09375 575.6906L667.7656 575.6906Q669.09375 577.58124 669.8281 579.70624Q670.5625 581.8156 670.5625 584.0031Q670.5625 585.83124 669.9844 587.9406Q669.3281 590.3 667.8125 592.58124L666.1094 592.58124Z" fill-rule="nonzero"/></svg>