<svg version="1.1" viewBox="0.0 0.0 774.0 652.0" fill="none" stroke="none" stroke-linecap="square" stroke-miterlimit="10" width="774" height="652" xmlns:xlink="http://www.w3.org/1999/xlink" xmlns="http://www.w3.org/2000/svg"><path fill="#232832" d="M0 0L774.0 0L774.0 652.0L0 652.0L0 0Z" fill-rule="nonzero"/><path fill="#9d009d" d="M387.0 32.6C398.64603 32.6 410.2775 33.423553 421.80734 35.06449L387.0 279.63333Z" fill-rule="nonzero"/><path fill="#f0ff9b" d="M421.80734 35.06449C500.09512 46.206505 568.3174 94.153984 605.3197 164.03926L387.0 279.63333Z" fill-rule="nonzero"/><path fill="#1470e8" d="M154.73994 363.78043C127.3077 288.06284 138.50594 203.72647 184.74693 137.79129C230.98793 71.856094 306.46628 32.6 387.0 32.6L387.0 279.63333Z" fill-rule="nonzero"/><path fill="#ffb4ff" d="M187.1461 424.83624C173.536 406.1036 162.62718 385.55054 154.73994 363.78043L387.0 279.63333Z" fill-rule="nonzero"/><path fill="#14bf51" d="M605.3197 164.03926C665.9924 278.63034 627.7446 420.629 517.725 489.2436C407.70526 557.85815 263.35983 529.73505 187.1461 424.83624L387.0 279.63333Z" fill-rule="nonzero"/><path fill="#9d009d" d="M222.0 558.9C222.0 562.2137 219.3137 564.9 216.0 564.9C212.6863 564.9 210.0 562.2137 210.0 558.9C210.0 555.5863 212.6863 552.9 216.0 552.9C219.3137 552.9 222.0 555.5863 222.0 558.9Z" fill-rule="nonzero"/><path fill="#ffffff" d="M231.29688 552.5094L236.0625 552.5094Q237.67188 552.5094 238.51562 552.7594Q239.64062 553.0875 240.45312 553.9469Q241.26562 554.8063 241.6875 556.04065Q242.10938 557.275 242.10938 559.0875Q242.10938 560.66565 241.70312 561.8219Q241.21875 563.22815 240.32812 564.10315Q239.65625 564.7594 238.5 565.1344Q237.64062 565.4 236.20312 565.4L231.29688 565.4L231.29688 552.5094ZM233.90625 554.6969L233.90625 563.22815L235.84375 563.22815Q236.9375 563.22815 237.42188 563.10315Q238.04688 562.9469 238.46875 562.5719Q238.89062 562.1969 239.14062 561.3375Q239.40625 560.4625 239.40625 558.9625Q239.40625 557.47815 239.14062 556.6813Q238.89062 555.8688 238.40625 555.4313Q237.9375 554.97815 237.20312 554.8219Q236.65625 554.6969 235.07812 554.6969L233.90625 554.6969ZM255.92188 565.4L253.09375 565.4L251.96875 562.47815L246.82812 562.47815L245.76562 565.4L243.0 565.4L248.01562 552.5094L250.76562 552.5094L255.92188 565.4ZM251.14062 560.3063L249.35938 555.525L247.625 560.3063L251.14062 560.3063ZM256.78125 559.04065Q256.78125 557.0719 257.375 555.72815Q257.8125 554.7438 258.5625 553.9625Q259.32812 553.1813 260.23438 552.8063Q261.4375 552.29065 263.01562 552.29065Q265.85938 552.29065 267.5625 554.0563Q269.28125 555.8219 269.28125 558.97815Q269.28125 562.0875 267.57812 563.85315Q265.89062 565.6188 263.04688 565.6188Q260.17188 565.6188 258.46875 563.8688Q256.78125 562.1188 256.78125 559.04065ZM259.46875 558.9469Q259.46875 561.1344 260.46875 562.275Q261.48438 563.4 263.04688 563.4Q264.59375 563.4 265.59375 562.275Q266.59375 561.15 266.59375 558.91565Q266.59375 556.6969 265.625 555.6188Q264.65625 554.525 263.04688 554.525Q261.4375 554.525 260.45312 555.6344Q259.46875 556.72815 259.46875 558.9469ZM276.01562 561.9625L276.01562 559.4938L280.85938 559.4938L280.85938 561.9625L276.01562 561.9625ZM287.23438 565.4L287.23438 552.5094L289.82812 552.5094L289.82812 565.4L287.23438 565.4ZM300.78125 565.4L298.3125 565.4L298.3125 560.6344Q298.3125 559.1188 298.15625 558.6813Q298.0 558.2438 297.64062 557.9938Q297.28125 557.7438 296.78125 557.7438Q296.14062 557.7438 295.625 558.10315Q295.125 558.4469 294.9375 559.025Q294.75 559.60315 294.75 561.16565L294.75 565.4L292.28125 565.4L292.28125 556.0719L294.5625 556.0719L294.5625 557.4313Q295.79688 555.85315 297.64062 555.85315Q298.46875 555.85315 299.14062 556.15Q299.8125 556.4469 300.15625 556.9Q300.51562 557.35315 300.64062 557.9469Q300.78125 558.525 300.78125 559.60315L300.78125 565.4ZM303.29688 554.8063L303.29688 552.5094L305.76562 552.5094L305.76562 554.8063L303.29688 554.8063ZM303.29688 565.4L303.29688 556.0719L305.76562 556.0719L305.76562 565.4L303.29688 565.4ZM312.57812 556.0719L312.57812 558.04065L310.89062 558.04065L310.89062 561.79065Q310.89062 562.9313 310.9375 563.1344Q310.98438 563.3219 311.15625 563.4469Q311.32812 563.5563 311.57812 563.5563Q311.90625 563.5563 312.5625 563.3219L312.78125 565.2438Q311.90625 565.6188 310.82812 565.6188Q310.15625 565.6188 309.60938 565.4Q309.07812 565.16565 308.82812 564.8063Q308.57812 564.4469 308.48438 563.8375Q308.40625 563.41565 308.40625 562.10315L308.40625 558.04065L307.26562 558.04065L307.26562 556.0719L308.40625 556.0719L308.40625 554.2125L310.89062 552.775L310.89062 556.0719L312.57812 556.0719ZM314.29688 554.8063L314.29688 552.5094L316.76562 552.5094L316.76562 554.8063L314.29688 554.8063ZM314.29688 565.4L314.29688 556.0719L316.76562 556.0719L316.76562 565.4L314.29688 565.4ZM321.14062 558.91565L318.89062 558.5094Q319.28125 557.15 320.20312 556.5094Q321.125 555.85315 322.9375 555.85315Q324.59375 555.85315 325.39062 556.2438Q326.20312 556.6344 326.53125 557.2438Q326.875 557.8375 326.875 559.4469L326.84375 562.3375Q326.84375 563.5563 326.95312 564.15Q327.07812 564.72815 327.40625 565.4L324.96875 565.4Q324.85938 565.15 324.71875 564.66565Q324.65625 564.4469 324.64062 564.3844Q324.0 564.9938 323.28125 565.3063Q322.5625 565.6188 321.75 565.6188Q320.29688 565.6188 319.46875 564.8375Q318.64062 564.04065 318.64062 562.85315Q318.64062 562.0563 319.01562 561.4469Q319.39062 560.8219 320.07812 560.4938Q320.76562 560.16565 322.04688 559.91565Q323.78125 559.5875 324.4375 559.3063L324.4375 559.0563Q324.4375 558.35315 324.07812 558.0563Q323.73438 557.7438 322.76562 557.7438Q322.10938 557.7438 321.73438 558.0094Q321.35938 558.2594 321.14062 558.91565ZM324.4375 560.91565Q323.96875 561.0719 322.9375 561.29065Q321.90625 561.5094 321.59375 561.72815Q321.10938 562.0719 321.10938 562.60315Q321.10938 563.1188 321.5 563.4938Q321.89062 563.8688 322.48438 563.8688Q323.15625 563.8688 323.75 563.4313Q324.20312 563.10315 324.34375 562.6188Q324.4375 562.29065 324.4375 561.41565L324.4375 560.91565ZM329.29688 565.4L329.29688 552.5094L331.76562 552.5094L331.76562 565.4L329.29688 565.4ZM338.65625 561.2125L341.1875 560.9625Q341.40625 562.22815 342.10938 562.8375Q342.8125 563.4313 344.0 563.4313Q345.25 563.4313 345.89062 562.9Q346.53125 562.3688 346.53125 561.65Q346.53125 561.1969 346.25 560.8844Q345.98438 560.5563 345.32812 560.3219Q344.85938 560.16565 343.23438 559.7594Q341.14062 559.2438 340.29688 558.47815Q339.10938 557.41565 339.10938 555.8844Q339.10938 554.9 339.67188 554.0563Q340.23438 553.1969 341.28125 552.7438Q342.32812 552.29065 343.8125 552.29065Q346.25 552.29065 347.46875 553.35315Q348.70312 554.41565 348.76562 556.1969L346.15625 556.3063Q345.98438 555.3219 345.4375 554.8844Q344.89062 554.4469 343.79688 554.4469Q342.65625 554.4469 342.01562 554.91565Q341.60938 555.2125 341.60938 555.7125Q341.60938 556.16565 341.98438 556.4938Q342.48438 556.91565 344.375 557.3688Q346.28125 557.8063 347.1875 558.29065Q348.09375 558.7594 348.60938 559.60315Q349.125 560.4313 349.125 561.65Q349.125 562.7594 348.5 563.72815Q347.89062 564.6813 346.76562 565.16565Q345.64062 565.6344 343.96875 565.6344Q341.53125 565.6344 340.21875 564.5094Q338.90625 563.3688 338.65625 561.2125ZM356.70312 562.4313L359.15625 562.8375Q358.6875 564.1969 357.65625 564.91565Q356.64062 565.6188 355.09375 565.6188Q352.65625 565.6188 351.5 564.025Q350.57812 562.7438 350.57812 560.8063Q350.57812 558.47815 351.78125 557.16565Q353.0 555.85315 354.85938 555.85315Q356.9375 555.85315 358.14062 557.22815Q359.34375 558.60315 359.29688 561.4469L353.10938 561.4469Q353.125 562.54065 353.6875 563.15Q354.26562 563.7594 355.125 563.7594Q355.70312 563.7594 356.09375 563.4469Q356.5 563.1344 356.70312 562.4313ZM356.84375 559.9313Q356.8125 558.85315 356.28125 558.3063Q355.75 557.7438 355.0 557.7438Q354.1875 557.7438 353.67188 558.3375Q353.14062 558.91565 353.14062 559.9313L356.84375 559.9313ZM364.65625 565.4L362.1875 565.4L362.1875 556.0719L364.48438 556.0719L364.48438 557.4Q365.0625 556.4469 365.53125 556.15Q366.01562 555.85315 366.60938 555.85315Q367.45312 555.85315 368.23438 556.3219L367.46875 558.47815Q366.84375 558.0719 366.3125 558.0719Q365.79688 558.0719 365.42188 558.35315Q365.0625 558.6344 364.85938 559.3844Q364.65625 560.1344 364.65625 562.5094L364.65625 565.4ZM371.85938 565.4L368.09375 556.0719L370.6875 556.0719L372.45312 560.8219L372.95312 562.41565Q373.15625 561.8063 373.21875 561.6188Q373.32812 561.22815 373.46875 560.8219L375.25 556.0719L377.79688 556.0719L374.07812 565.4L371.85938 565.4ZM380.29688 554.8063L380.29688 552.5094L382.76562 552.5094L382.76562 554.8063L380.29688 554.8063ZM380.29688 565.4L380.29688 556.0719L382.76562 556.0719L382.76562 565.4L380.29688 565.4ZM393.4375 558.8219L391.0 559.2594Q390.875 558.54065 390.4375 558.16565Q390.0 557.79065 389.3125 557.79065Q388.39062 557.79065 387.82812 558.4313Q387.28125 559.0719 387.28125 560.5719Q387.28125 562.22815 387.84375 562.91565Q388.40625 563.60315 389.34375 563.60315Q390.04688 563.60315 390.48438 563.1969Q390.9375 562.79065 391.125 561.8219L393.54688 562.22815Q393.17188 563.9 392.09375 564.7594Q391.03125 565.6188 389.23438 565.6188Q387.1875 565.6188 385.96875 564.3219Q384.75 563.025 384.75 560.7438Q384.75 558.4313 385.96875 557.15Q387.1875 555.85315 389.28125 555.85315Q390.98438 555.85315 391.98438 556.5875Q392.98438 557.3219 393.4375 558.8219ZM400.70312 562.4313L403.15625 562.8375Q402.6875 564.1969 401.65625 564.91565Q400.64062 565.6188 399.09375 565.6188Q396.65625 565.6188 395.5 564.025Q394.57812 562.7438 394.57812 560.8063Q394.57812 558.47815 395.78125 557.16565Q397.0 555.85315 398.85938 555.85315Q400.9375 555.85315 402.14062 557.22815Q403.34375 558.60315 403.29688 561.4469L397.10938 561.4469Q397.125 562.54065 397.6875 563.15Q398.26562 563.7594 399.125 563.7594Q399.70312 563.7594 400.09375 563.4469Q400.5 563.1344 400.70312 562.4313ZM400.84375 559.9313Q400.8125 558.85315 400.28125 558.3063Q399.75 557.7438 399.0 557.7438Q398.1875 557.7438 397.67188 558.3375Q397.14062 558.91565 397.14062 559.9313L400.84375 559.9313ZM411.3125 565.4L411.3125 552.5094L415.48438 552.5094Q417.85938 552.5094 418.57812 552.7125Q419.6875 552.9938 420.4375 553.97815Q421.1875 554.9469 421.1875 556.47815Q421.1875 557.66565 420.75 558.47815Q420.3125 559.275 419.64062 559.7438Q418.98438 560.2125 418.3125 560.35315Q417.375 560.54065 415.60938 560.54065L413.90625 560.54065L413.90625 565.4L411.3125 565.4ZM413.90625 554.6969L413.90625 558.35315L415.32812 558.35315Q416.875 558.35315 417.39062 558.15Q417.90625 557.9469 418.20312 557.525Q418.5 557.0875 418.5 556.5094Q418.5 555.8063 418.07812 555.35315Q417.67188 554.9 417.04688 554.775Q416.57812 554.6969 415.17188 554.6969L413.90625 554.6969ZM425.65625 565.4L423.1875 565.4L423.1875 556.0719L425.48438 556.0719L425.48438 557.4Q426.0625 556.4469 426.53125 556.15Q427.01562 555.85315 427.60938 555.85315Q428.45312 555.85315 429.23438 556.3219L428.46875 558.47815Q427.84375 558.0719 427.3125 558.0719Q426.79688 558.0719 426.42188 558.35315Q426.0625 558.6344 425.85938 559.3844Q425.65625 560.1344 425.65625 562.5094L425.65625 565.4ZM429.71875 560.60315Q429.71875 559.3688 430.32812 558.22815Q430.9375 557.0719 432.04688 556.4625Q433.15625 555.85315 434.53125 555.85315Q436.64062 555.85315 438.0 557.22815Q439.35938 558.60315 439.35938 560.7125Q439.35938 562.8219 437.98438 564.22815Q436.625 565.6188 434.54688 565.6188Q433.26562 565.6188 432.09375 565.04065Q430.9375 564.4469 430.32812 563.3375Q429.71875 562.2125 429.71875 560.60315ZM432.25 560.72815Q432.25 562.1188 432.90625 562.8688Q433.57812 563.60315 434.53125 563.60315Q435.5 563.60315 436.15625 562.8688Q436.8125 562.1188 436.8125 560.7125Q436.8125 559.3375 436.15625 558.60315Q435.5 557.8688 434.53125 557.8688Q433.57812 557.8688 432.90625 558.60315Q432.25 559.3375 432.25 560.72815ZM443.85938 565.4L440.09375 556.0719L442.6875 556.0719L444.45312 560.8219L444.95312 562.41565Q445.15625 561.8063 445.21875 561.6188Q445.32812 561.22815 445.46875 560.8219L447.25 556.0719L449.79688 556.0719L446.07812 565.4L443.85938 565.4ZM452.29688 554.8063L452.29688 552.5094L454.76562 552.5094L454.76562 554.8063L452.29688 554.8063ZM452.29688 565.4L452.29688 556.0719L454.76562 556.0719L454.76562 565.4L452.29688 565.4ZM465.85938 565.4L463.5625 565.4L463.5625 564.025Q462.98438 564.8219 462.20312 565.22815Q461.4375 565.6188 460.64062 565.6188Q459.03125 565.6188 457.875 564.3219Q456.73438 563.025 456.73438 560.6969Q456.73438 558.3219 457.84375 557.0875Q458.96875 555.85315 460.67188 555.85315Q462.23438 555.85315 463.39062 557.15L463.39062 552.5094L465.85938 552.5094L465.85938 565.4ZM459.26562 560.525Q459.26562 562.025 459.67188 562.6969Q460.26562 563.66565 461.34375 563.66565Q462.20312 563.66565 462.79688 562.9469Q463.39062 562.2125 463.39062 560.775Q463.39062 559.16565 462.8125 558.4625Q462.23438 557.7438 461.32812 557.7438Q460.45312 557.7438 459.85938 558.4469Q459.26562 559.1344 459.26562 560.525ZM473.70312 562.4313L476.15625 562.8375Q475.6875 564.1969 474.65625 564.91565Q473.64062 565.6188 472.09375 565.6188Q469.65625 565.6188 468.5 564.025Q467.57812 562.7438 467.57812 560.8063Q467.57812 558.47815 468.78125 557.16565Q470.0 555.85315 471.85938 555.85315Q473.9375 555.85315 475.14062 557.22815Q476.34375 558.60315 476.29688 561.4469L470.10938 561.4469Q470.125 562.54065 470.6875 563.15Q471.26562 563.7594 472.125 563.7594Q472.70312 563.7594 473.09375 563.4469Q473.5 563.1344 473.70312 562.4313ZM473.84375 559.9313Q473.8125 558.85315 473.28125 558.3063Q472.75 557.7438 472.0 557.7438Q471.1875 557.7438 470.67188 558.3375Q470.14062 558.91565 470.14062 559.9313L473.84375 559.9313ZM481.65625 565.4L479.1875 565.4L479.1875 556.0719L481.48438 556.0719L481.48438 557.4Q482.0625 556.4469 482.53125 556.15Q483.01562 555.85315 483.60938 555.85315Q484.45312 555.85315 485.23438 556.3219L484.46875 558.47815Q483.84375 558.0719 483.3125 558.0719Q482.79688 558.0719 482.42188 558.35315Q482.0625 558.6344 481.85938 559.3844Q481.65625 560.1344 481.65625 562.5094L481.65625 565.4ZM485.42188 562.7438L487.90625 562.35315Q488.0625 563.0719 488.54688 563.4469Q489.03125 563.8219 489.89062 563.8219Q490.85938 563.8219 491.34375 563.47815Q491.65625 563.22815 491.65625 562.8219Q491.65625 562.54065 491.48438 562.35315Q491.29688 562.1813 490.65625 562.025Q487.67188 561.3688 486.875 560.8219Q485.76562 560.0719 485.76562 558.7125Q485.76562 557.5094 486.71875 556.6813Q487.6875 555.85315 489.6875 555.85315Q491.60938 555.85315 492.53125 556.47815Q493.46875 557.10315 493.82812 558.3219L491.5 558.7594Q491.34375 558.2125 490.92188 557.9313Q490.51562 557.6344 489.73438 557.6344Q488.76562 557.6344 488.34375 557.9Q488.0625 558.10315 488.0625 558.4Q488.0625 558.66565 488.3125 558.85315Q488.64062 559.10315 490.60938 559.5563Q492.57812 559.9938 493.375 560.65Q494.14062 561.3063 494.14062 562.47815Q494.14062 563.7594 493.0625 564.6969Q492.0 565.6188 489.89062 565.6188Q487.98438 565.6188 486.875 564.8375Q485.76562 564.0563 485.42188 562.7438ZM505.39062 569.1813L503.6875 569.1813Q502.34375 567.16565 501.64062 564.97815Q500.9375 562.775 500.9375 560.72815Q500.9375 558.1969 501.8125 555.9313Q502.5625 553.9625 503.73438 552.29065L505.42188 552.29065Q504.20312 554.9625 503.75 556.8375Q503.3125 558.6969 503.3125 560.79065Q503.3125 562.22815 503.57812 563.7438Q503.84375 565.2438 504.3125 566.6188Q504.60938 567.5094 505.39062 569.1813ZM515.1094 563.10315L515.1094 565.4L506.45312 565.4Q506.59375 564.10315 507.29688 562.9469Q508.0 561.775 510.0625 559.8375Q511.73438 558.29065 512.125 557.72815Q512.625 556.97815 512.625 556.22815Q512.625 555.4 512.1719 554.9625Q511.73438 554.5094 510.95312 554.5094Q510.1875 554.5094 509.71875 554.97815Q509.26562 555.4469 509.20312 556.525L506.73438 556.275Q506.95312 554.2438 508.10938 553.35315Q509.28125 552.4625 511.01562 552.4625Q512.9219 552.4625 514.0156 553.4938Q515.1094 554.525 515.1094 556.04065Q515.1094 556.91565 514.7969 557.7125Q514.4844 558.4938 513.8125 559.35315Q513.3594 559.9313 512.1875 561.0094Q511.01562 562.0719 510.70312 562.4313Q510.39062 562.775 510.20312 563.10315L515.1094 563.10315ZM517.2969 565.4L517.2969 562.9313L519.7656 562.9313L519.7656 565.4L517.2969 565.4ZM530.1094 563.10315L530.1094 565.4L521.4531 565.4Q521.59375 564.10315 522.2969 562.9469Q523.0 561.775 525.0625 559.8375Q526.7344 558.29065 527.125 557.72815Q527.625 556.97815 527.625 556.22815Q527.625 555.4 527.1719 554.9625Q526.7344 554.5094 525.9531 554.5094Q525.1875 554.5094 524.71875 554.97815Q524.2656 555.4469 524.2031 556.525L521.7344 556.275Q521.9531 554.2438 523.1094 553.35315Q524.28125 552.4625 526.0156 552.4625Q527.9219 552.4625 529.0156 553.4938Q530.1094 554.525 530.1094 556.04065Q530.1094 556.91565 529.7969 557.7125Q529.4844 558.4938 528.8125 559.35315Q528.3594 559.9313 527.1875 561.0094Q526.0156 562.0719 525.7031 562.4313Q525.3906 562.775 525.2031 563.10315L530.1094 563.10315ZM531.7969 562.0875L534.2656 561.8375Q534.3594 562.66565 534.875 563.15Q535.40625 563.6344 536.0781 563.6344Q536.8594 563.6344 537.3906 563.0094Q537.9219 562.3844 537.9219 561.1188Q537.9219 559.9313 537.3906 559.3375Q536.8594 558.7438 536.0156 558.7438Q534.9531 558.7438 534.1094 559.6813L532.09375 559.4L533.3594 552.6969L539.8906 552.6969L539.8906 555.0094L535.2344 555.0094L534.84375 557.1969Q535.6719 556.775 536.53125 556.775Q538.1875 556.775 539.3281 557.97815Q540.46875 559.16565 540.46875 561.0719Q540.46875 562.66565 539.5469 563.91565Q538.28125 565.6188 536.0469 565.6188Q534.2656 565.6188 533.1406 564.66565Q532.0156 563.6969 531.7969 562.0875ZM541.78125 555.6969Q541.78125 553.9625 542.53125 553.1344Q543.2969 552.29065 544.6094 552.29065Q545.9531 552.29065 546.7031 553.1344Q547.46875 553.9625 547.46875 555.6969Q547.46875 557.4313 546.7031 558.275Q545.9531 559.10315 544.6406 559.10315Q543.2969 559.10315 542.53125 558.275Q541.78125 557.4313 541.78125 555.6969ZM543.7031 555.6813Q543.7031 556.9313 544.0 557.3688Q544.21875 557.6813 544.6094 557.6813Q545.0 557.6813 545.21875 557.3688Q545.5 556.9313 545.5 555.6813Q545.5 554.41565 545.21875 553.9938Q545.0 553.6813 544.6094 553.6813Q544.21875 553.6813 544.0 553.9938Q543.7031 554.41565 543.7031 555.6813ZM546.4844 565.9L544.65625 565.9L551.5156 552.29065L553.2969 552.29065L546.4844 565.9ZM550.46875 562.5094Q550.46875 560.775 551.2344 559.9469Q552.0 559.10315 553.3125 559.10315Q554.6406 559.10315 555.3906 559.9469Q556.15625 560.775 556.15625 562.5094Q556.15625 564.2438 555.3906 565.0875Q554.6406 565.91565 553.34375 565.91565Q552.0 565.91565 551.2344 565.0875Q550.46875 564.2438 550.46875 562.5094ZM552.40625 562.4938Q552.40625 563.7594 552.6875 564.1813Q552.90625 564.5094 553.2969 564.5094Q553.6875 564.5094 553.90625 564.1813Q554.1875 563.7594 554.1875 562.4938Q554.1875 561.2438 553.90625 560.8063Q553.6875 560.4938 553.2969 560.4938Q552.90625 560.4938 552.6875 560.8063Q552.40625 561.2438 552.40625 562.4938ZM558.6094 569.1813Q559.34375 567.6188 559.6406 566.775Q559.9375 565.9469 560.1875 564.8688Q560.4375 563.775 560.5625 562.79065Q560.6875 561.8063 560.6875 560.79065Q560.6875 558.6969 560.2344 556.8375Q559.7969 554.9625 558.59375 552.29065L560.2656 552.29065Q561.59375 554.1813 562.3281 556.3063Q563.0625 558.41565 563.0625 560.60315Q563.0625 562.4313 562.4844 564.54065Q561.8281 566.9 560.3125 569.1813L558.6094 569.1813Z" fill-rule="nonzero"/><path fill="#f0ff9b" d="M97.5 583.9C97.5 587.2137 94.813705 589.9 91.5 589.9C88.186295 589.9 85.5 587.2137 85.5 583.9C85.5 580.5863 88.186295 577.9 91.5 577.9C94.813705 577.9 97.5 580.5863 97.5 583.9Z" fill-rule="nonzero"/><path fill="#ffffff" d="M106.796875 577.5094L111.5625 577.5094Q113.171875 577.5094 114.015625 577.7594Q115.140625 578.0875 115.953125 578.9469Q116.765625 579.8063 117.1875 581.04065Q117.609375 582.275 117.609375 584.0875Q117.609375 585.66565 117.203125 586.8219Q116.71875 588.22815 115.828125 589.10315Q115.15625 589.7594 114.0 590.1344Q113.140625 590.4 111.703125 590.4L106.796875 590.4L106.796875 577.5094ZM109.40625 579.6969L109.40625 588.22815L111.34375 588.22815Q112.4375 588.22815 112.921875 588.10315Q113.546875 587.9469 113.96875 587.5719Q114.390625 587.1969 114.640625 586.3375Q114.90625 585.4625 114.90625 583.9625Q114.90625 582.47815 114.640625 581.6813Q114.390625 580.8688 113.90625 580.4313Q113.4375 579.97815 112.703125 579.8219Q112.15625 579.6969 110.578125 579.6969L109.40625 579.6969ZM131.42188 590.4L128.59375 590.4L127.46875 587.47815L122.328125 587.47815L121.265625 590.4L118.5 590.4L123.515625 577.5094L126.265625 577.5094L131.42188 590.4ZM126.640625 585.3063L124.859375 580.525L123.125 585.3063L126.640625 585.3063ZM132.28125 584.04065Q132.28125 582.0719 132.875 580.72815Q133.3125 579.7438 134.0625 578.9625Q134.82812 578.1813 135.73438 577.8063Q136.9375 577.29065 138.51562 577.29065Q141.35938 577.29065 143.0625 579.0563Q144.78125 580.8219 144.78125 583.97815Q144.78125 587.0875 143.07812 588.85315Q141.39062 590.6188 138.54688 590.6188Q135.67188 590.6188 133.96875 588.8688Q132.28125 587.1188 132.28125 584.04065ZM134.96875 583.9469Q134.96875 586.1344 135.96875 587.275Q136.98438 588.4 138.54688 588.4Q140.09375 588.4 141.09375 587.275Q142.09375 586.15 142.09375 583.91565Q142.09375 581.6969 141.125 580.6188Q140.15625 579.525 138.54688 579.525Q136.9375 579.525 135.95312 580.6344Q134.96875 581.72815 134.96875 583.9469ZM151.51562 586.9625L151.51562 584.4938L156.35938 584.4938L156.35938 586.9625L151.51562 586.9625ZM168.79688 585.66565L168.79688 583.4938L174.40625 583.4938L174.40625 588.6188Q173.59375 589.41565 172.03125 590.025Q170.48438 590.6188 168.90625 590.6188Q166.875 590.6188 165.375 589.775Q163.875 588.91565 163.10938 587.35315Q162.35938 585.775 162.35938 583.91565Q162.35938 581.9 163.20312 580.3375Q164.04688 578.775 165.67188 577.9313Q166.92188 577.29065 168.76562 577.29065Q171.15625 577.29065 172.5 578.3063Q173.85938 579.3063 174.25 581.0875L171.65625 581.5719Q171.39062 580.6188 170.64062 580.0719Q169.89062 579.525 168.76562 579.525Q167.0625 579.525 166.04688 580.60315Q165.04688 581.6813 165.04688 583.8063Q165.04688 586.10315 166.0625 587.2594Q167.07812 588.4 168.73438 588.4Q169.54688 588.4 170.35938 588.0875Q171.1875 587.7594 171.78125 587.29065L171.78125 585.66565L168.79688 585.66565ZM175.625 581.0719L178.25 581.0719L180.48438 587.6969L182.65625 581.0719L185.21875 581.0719L181.92188 590.04065L181.34375 591.6813Q181.01562 592.4938 180.71875 592.91565Q180.42188 593.35315 180.03125 593.6188Q179.65625 593.8844 179.09375 594.025Q178.54688 594.1813 177.84375 594.1813Q177.125 594.1813 176.4375 594.04065L176.21875 592.10315Q176.79688 592.2125 177.26562 592.2125Q178.125 592.2125 178.53125 591.7125Q178.95312 591.2125 179.17188 590.4313L175.625 581.0719ZM190.15625 590.4L187.6875 590.4L187.6875 581.0719L189.98438 581.0719L189.98438 582.4Q190.5625 581.4469 191.03125 581.15Q191.51562 580.85315 192.10938 580.85315Q192.95312 580.85315 193.73438 581.3219L192.96875 583.47815Q192.34375 583.0719 191.8125 583.0719Q191.29688 583.0719 190.92188 583.35315Q190.5625 583.6344 190.35938 584.3844Q190.15625 585.1344 190.15625 587.5094L190.15625 590.4ZM194.21875 585.60315Q194.21875 584.3688 194.82812 583.22815Q195.4375 582.0719 196.54688 581.4625Q197.65625 580.85315 199.03125 580.85315Q201.14062 580.85315 202.5 582.22815Q203.85938 583.60315 203.85938 585.7125Q203.85938 587.8219 202.48438 589.22815Q201.125 590.6188 199.04688 590.6188Q197.76562 590.6188 196.59375 590.04065Q195.4375 589.4469 194.82812 588.3375Q194.21875 587.2125 194.21875 585.60315ZM196.75 585.72815Q196.75 587.1188 197.40625 587.8688Q198.07812 588.60315 199.03125 588.60315Q200.0 588.60315 200.65625 587.8688Q201.3125 587.1188 201.3125 585.7125Q201.3125 584.3375 200.65625 583.60315Q200.0 582.8688 199.03125 582.8688Q198.07812 582.8688 197.40625 583.60315Q196.75 584.3375 196.75 585.72815ZM204.92188 587.7438L207.40625 587.35315Q207.5625 588.0719 208.04688 588.4469Q208.53125 588.8219 209.39062 588.8219Q210.35938 588.8219 210.84375 588.47815Q211.15625 588.22815 211.15625 587.8219Q211.15625 587.54065 210.98438 587.35315Q210.79688 587.1813 210.15625 587.025Q207.17188 586.3688 206.375 585.8219Q205.26562 585.0719 205.26562 583.7125Q205.26562 582.5094 206.21875 581.6813Q207.1875 580.85315 209.1875 580.85315Q211.10938 580.85315 212.03125 581.47815Q212.96875 582.10315 213.32812 583.3219L211.0 583.7594Q210.84375 583.2125 210.42188 582.9313Q210.01562 582.6344 209.23438 582.6344Q208.26562 582.6344 207.84375 582.9Q207.5625 583.10315 207.5625 583.4Q207.5625 583.66565 207.8125 583.85315Q208.14062 584.10315 210.10938 584.5563Q212.07812 584.9938 212.875 585.65Q213.64062 586.3063 213.64062 587.47815Q213.64062 588.7594 212.5625 589.6969Q211.5 590.6188 209.39062 590.6188Q207.48438 590.6188 206.375 589.8375Q205.26562 589.0563 204.92188 587.7438ZM223.9375 583.8219L221.5 584.2594Q221.375 583.54065 220.9375 583.16565Q220.5 582.79065 219.8125 582.79065Q218.89062 582.79065 218.32812 583.4313Q217.78125 584.0719 217.78125 585.5719Q217.78125 587.22815 218.34375 587.91565Q218.90625 588.60315 219.84375 588.60315Q220.54688 588.60315 220.98438 588.1969Q221.4375 587.79065 221.625 586.8219L224.04688 587.22815Q223.67188 588.9 222.59375 589.7594Q221.53125 590.6188 219.73438 590.6188Q217.6875 590.6188 216.46875 589.3219Q215.25 588.025 215.25 585.7438Q215.25 583.4313 216.46875 582.15Q217.6875 580.85315 219.78125 580.85315Q221.48438 580.85315 222.48438 581.5875Q223.48438 582.3219 223.9375 583.8219ZM225.21875 585.60315Q225.21875 584.3688 225.82812 583.22815Q226.4375 582.0719 227.54688 581.4625Q228.65625 580.85315 230.03125 580.85315Q232.14062 580.85315 233.5 582.22815Q234.85938 583.60315 234.85938 585.7125Q234.85938 587.8219 233.48438 589.22815Q232.125 590.6188 230.04688 590.6188Q228.76562 590.6188 227.59375 590.04065Q226.4375 589.4469 225.82812 588.3375Q225.21875 587.2125 225.21875 585.60315ZM227.75 585.72815Q227.75 587.1188 228.40625 587.8688Q229.07812 588.60315 230.03125 588.60315Q231.0 588.60315 231.65625 587.8688Q232.3125 587.1188 232.3125 585.7125Q232.3125 584.3375 231.65625 583.60315Q231.0 582.8688 230.03125 582.8688Q229.07812 582.8688 228.40625 583.60315Q227.75 584.3375 227.75 585.72815ZM236.71875 581.0719L239.03125 581.0719L239.03125 582.4313Q239.46875 581.72815 240.23438 581.29065Q241.0 580.85315 241.9375 580.85315Q243.5625 580.85315 244.6875 582.1344Q245.82812 583.4 245.82812 585.6813Q245.82812 588.025 244.6875 589.3219Q243.54688 590.6188 241.92188 590.6188Q241.14062 590.6188 240.51562 590.3063Q239.89062 589.9938 239.1875 589.2438L239.1875 593.9469L236.71875 593.9469L236.71875 581.0719ZM239.17188 585.5719Q239.17188 587.15 239.78125 587.9Q240.40625 588.65 241.3125 588.65Q242.17188 588.65 242.73438 587.9625Q243.3125 587.275 243.3125 585.6969Q243.3125 584.22815 242.71875 583.525Q242.14062 582.8063 241.26562 582.8063Q240.35938 582.8063 239.76562 583.5094Q239.17188 584.1969 239.17188 585.5719ZM253.20312 587.4313L255.65625 587.8375Q255.1875 589.1969 254.15625 589.91565Q253.14062 590.6188 251.59375 590.6188Q249.15625 590.6188 248.0 589.025Q247.07812 587.7438 247.07812 585.8063Q247.07812 583.47815 248.28125 582.16565Q249.5 580.85315 251.35938 580.85315Q253.4375 580.85315 254.64062 582.22815Q255.84375 583.60315 255.79688 586.4469L249.60938 586.4469Q249.625 587.54065 250.1875 588.15Q250.76562 588.7594 251.625 588.7594Q252.20312 588.7594 252.59375 588.4469Q253.0 588.1344 253.20312 587.4313ZM253.34375 584.9313Q253.3125 583.85315 252.78125 583.3063Q252.25 582.7438 251.5 582.7438Q250.6875 582.7438 250.17188 583.3375Q249.64062 583.91565 249.64062 584.9313L253.34375 584.9313ZM263.82812 590.4L263.82812 577.5094L272.65625 577.5094L272.65625 579.6969L266.42188 579.6969L266.42188 582.7438L271.8125 582.7438L271.8125 584.9313L266.42188 584.9313L266.42188 590.4L263.82812 590.4ZM274.21875 585.60315Q274.21875 584.3688 274.82812 583.22815Q275.4375 582.0719 276.54688 581.4625Q277.65625 580.85315 279.03125 580.85315Q281.14062 580.85315 282.5 582.22815Q283.85938 583.60315 283.85938 585.7125Q283.85938 587.8219 282.48438 589.22815Q281.125 590.6188 279.04688 590.6188Q277.76562 590.6188 276.59375 590.04065Q275.4375 589.4469 274.82812 588.3375Q274.21875 587.2125 274.21875 585.60315ZM276.75 585.72815Q276.75 587.1188 277.40625 587.8688Q278.07812 588.60315 279.03125 588.60315Q280.0 588.60315 280.65625 587.8688Q281.3125 587.1188 281.3125 585.7125Q281.3125 584.3375 280.65625 583.60315Q280.0 582.8688 279.03125 582.8688Q278.07812 582.8688 277.40625 583.60315Q276.75 584.3375 276.75 585.72815ZM291.9375 590.4L291.9375 589.0094Q291.42188 589.7438 290.59375 590.1813Q289.76562 590.6188 288.84375 590.6188Q287.90625 590.6188 287.15625 590.2125Q286.40625 589.79065 286.0625 589.04065Q285.73438 588.29065 285.73438 586.97815L285.73438 581.0719L288.20312 581.0719L288.20312 585.35315Q288.20312 587.3219 288.34375 587.775Q288.48438 588.2125 288.84375 588.47815Q289.20312 588.72815 289.75 588.72815Q290.39062 588.72815 290.89062 588.3844Q291.39062 588.04065 291.57812 587.525Q291.76562 587.0094 291.76562 585.0094L291.76562 581.0719L294.23438 581.0719L294.23438 590.4L291.9375 590.4ZM305.28125 590.4L302.8125 590.4L302.8125 585.6344Q302.8125 584.1188 302.65625 583.6813Q302.5 583.2438 302.14062 582.9938Q301.78125 582.7438 301.28125 582.7438Q300.64062 582.7438 300.125 583.10315Q299.625 583.4469 299.4375 584.025Q299.25 584.60315 299.25 586.16565L299.25 590.4L296.78125 590.4L296.78125 581.0719L299.0625 581.0719L299.0625 582.4313Q300.29688 580.85315 302.14062 580.85315Q302.96875 580.85315 303.64062 581.15Q304.3125 581.4469 304.65625 581.9Q305.01562 582.35315 305.14062 582.9469Q305.28125 583.525 305.28125 584.60315L305.28125 590.4ZM316.35938 590.4L314.0625 590.4L314.0625 589.025Q313.48438 589.8219 312.70312 590.22815Q311.9375 590.6188 311.14062 590.6188Q309.53125 590.6188 308.375 589.3219Q307.23438 588.025 307.23438 585.6969Q307.23438 583.3219 308.34375 582.0875Q309.46875 580.85315 311.17188 580.85315Q312.73438 580.85315 313.89062 582.15L313.89062 577.5094L316.35938 577.5094L316.35938 590.4ZM309.76562 585.525Q309.76562 587.025 310.17188 587.6969Q310.76562 588.66565 311.84375 588.66565Q312.70312 588.66565 313.29688 587.9469Q313.89062 587.2125 313.89062 585.775Q313.89062 584.16565 313.3125 583.4625Q312.73438 582.7438 311.82812 582.7438Q310.95312 582.7438 310.35938 583.4469Q309.76562 584.1344 309.76562 585.525ZM320.64062 583.91565L318.39062 583.5094Q318.78125 582.15 319.70312 581.5094Q320.625 580.85315 322.4375 580.85315Q324.09375 580.85315 324.89062 581.2438Q325.70312 581.6344 326.03125 582.2438Q326.375 582.8375 326.375 584.4469L326.34375 587.3375Q326.34375 588.5563 326.45312 589.15Q326.57812 589.72815 326.90625 590.4L324.46875 590.4Q324.35938 590.15 324.21875 589.66565Q324.15625 589.4469 324.14062 589.3844Q323.5 589.9938 322.78125 590.3063Q322.0625 590.6188 321.25 590.6188Q319.79688 590.6188 318.96875 589.8375Q318.14062 589.04065 318.14062 587.85315Q318.14062 587.0563 318.51562 586.4469Q318.89062 585.8219 319.57812 585.4938Q320.26562 585.16565 321.54688 584.91565Q323.28125 584.5875 323.9375 584.3063L323.9375 584.0563Q323.9375 583.35315 323.57812 583.0563Q323.23438 582.7438 322.26562 582.7438Q321.60938 582.7438 321.23438 583.0094Q320.85938 583.2594 320.64062 583.91565ZM323.9375 585.91565Q323.46875 586.0719 322.4375 586.29065Q321.40625 586.5094 321.09375 586.72815Q320.60938 587.0719 320.60938 587.60315Q320.60938 588.1188 321.0 588.4938Q321.39062 588.8688 321.98438 588.8688Q322.65625 588.8688 323.25 588.4313Q323.70312 588.10315 323.84375 587.6188Q323.9375 587.29065 323.9375 586.41565L323.9375 585.91565ZM333.07812 581.0719L333.07812 583.04065L331.39062 583.04065L331.39062 586.79065Q331.39062 587.9313 331.4375 588.1344Q331.48438 588.3219 331.65625 588.4469Q331.82812 588.5563 332.07812 588.5563Q332.40625 588.5563 333.0625 588.3219L333.28125 590.2438Q332.40625 590.6188 331.32812 590.6188Q330.65625 590.6188 330.10938 590.4Q329.57812 590.16565 329.32812 589.8063Q329.07812 589.4469 328.98438 588.8375Q328.90625 588.41565 328.90625 587.10315L328.90625 583.04065L327.76562 583.04065L327.76562 581.0719L328.90625 581.0719L328.90625 579.2125L331.39062 577.775L331.39062 581.0719L333.07812 581.0719ZM334.79688 579.8063L334.79688 577.5094L337.26562 577.5094L337.26562 579.8063L334.79688 579.8063ZM334.79688 590.4L334.79688 581.0719L337.26562 581.0719L337.26562 590.4L334.79688 590.4ZM339.21875 585.60315Q339.21875 584.3688 339.82812 583.22815Q340.4375 582.0719 341.54688 581.4625Q342.65625 580.85315 344.03125 580.85315Q346.14062 580.85315 347.5 582.22815Q348.85938 583.60315 348.85938 585.7125Q348.85938 587.8219 347.48438 589.22815Q346.125 590.6188 344.04688 590.6188Q342.76562 590.6188 341.59375 590.04065Q340.4375 589.4469 339.82812 588.3375Q339.21875 587.2125 339.21875 585.60315ZM341.75 585.72815Q341.75 587.1188 342.40625 587.8688Q343.07812 588.60315 344.03125 588.60315Q345.0 588.60315 345.65625 587.8688Q346.3125 587.1188 346.3125 585.7125Q346.3125 584.3375 345.65625 583.60315Q345.0 582.8688 344.03125 582.8688Q343.07812 582.8688 342.40625 583.60315Q341.75 584.3375 341.75 585.72815ZM359.28125 590.4L356.8125 590.4L356.8125 585.6344Q356.8125 584.1188 356.65625 583.6813Q356.5 583.2438 356.14062 582.9938Q355.78125 582.7438 355.28125 582.7438Q354.64062 582.7438 354.125 583.10315Q353.625 583.4469 353.4375 584.025Q353.25 584.60315 353.25 586.16565L353.25 590.4L350.78125 590.4L350.78125 581.0719L353.0625 581.0719L353.0625 582.4313Q354.29688 580.85315 356.14062 580.85315Q356.96875 580.85315 357.64062 581.15Q358.3125 581.4469 358.65625 581.9Q359.01562 582.35315 359.14062 582.9469Q359.28125 583.525 359.28125 584.60315L359.28125 590.4ZM370.89062 594.1813L369.1875 594.1813Q367.84375 592.16565 367.14062 589.97815Q366.4375 587.775 366.4375 585.72815Q366.4375 583.1969 367.3125 580.9313Q368.0625 578.9625 369.23438 577.29065L370.92188 577.29065Q369.70312 579.9625 369.25 581.8375Q368.8125 583.6969 368.8125 585.79065Q368.8125 587.22815 369.07812 588.7438Q369.34375 590.2438 369.8125 591.6188Q370.10938 592.5094 370.89062 594.1813ZM378.57812 590.4L376.10938 590.4L376.10938 581.0875Q374.76562 582.35315 372.92188 582.9625L372.92188 580.72815Q373.89062 580.4 375.01562 579.525Q376.15625 578.6344 376.57812 577.4625L378.57812 577.4625L378.57812 590.4ZM382.29688 587.0875L384.76562 586.8375Q384.85938 587.66565 385.375 588.15Q385.90625 588.6344 386.57812 588.6344Q387.35938 588.6344 387.89062 588.0094Q388.42188 587.3844 388.42188 586.1188Q388.42188 584.9313 387.89062 584.3375Q387.35938 583.7438 386.51562 583.7438Q385.45312 583.7438 384.60938 584.6813L382.59375 584.4L383.85938 577.6969L390.39062 577.6969L390.39062 580.0094L385.73438 580.0094L385.34375 582.1969Q386.17188 581.775 387.03125 581.775Q388.6875 581.775 389.82812 582.97815Q390.96875 584.16565 390.96875 586.0719Q390.96875 587.66565 390.04688 588.91565Q388.78125 590.6188 386.54688 590.6188Q384.76562 590.6188 383.64062 589.66565Q382.51562 588.6969 382.29688 587.0875ZM392.79688 590.4L392.79688 587.9313L395.26562 587.9313L395.26562 590.4L392.79688 590.4ZM401.4375 577.4625Q403.3125 577.4625 404.35938 578.79065Q405.625 580.3844 405.625 584.04065Q405.625 587.6969 404.35938 589.3063Q403.3125 590.6188 401.4375 590.6188Q399.5625 590.6188 398.40625 589.1813Q397.25 587.72815 397.25 584.025Q397.25 580.3844 398.51562 578.775Q399.5625 577.4625 401.4375 577.4625ZM401.4375 579.5094Q400.98438 579.5094 400.625 579.8063Q400.28125 580.0875 400.09375 580.8219Q399.84375 581.775 399.84375 584.04065Q399.84375 586.3063 400.0625 587.16565Q400.29688 588.0094 400.64062 588.29065Q400.98438 588.5719 401.4375 588.5719Q401.89062 588.5719 402.23438 588.29065Q402.59375 587.9938 402.78125 587.2594Q403.04688 586.3063 403.04688 584.04065Q403.04688 581.775 402.8125 580.9313Q402.57812 580.0875 402.23438 579.8063Q401.89062 579.5094 401.4375 579.5094ZM411.4375 577.4625Q413.3125 577.4625 414.35938 578.79065Q415.625 580.3844 415.625 584.04065Q415.625 587.6969 414.35938 589.3063Q413.3125 590.6188 411.4375 590.6188Q409.5625 590.6188 408.40625 589.1813Q407.25 587.72815 407.25 584.025Q407.25 580.3844 408.51562 578.775Q409.5625 577.4625 411.4375 577.4625ZM411.4375 579.5094Q410.98438 579.5094 410.625 579.8063Q410.28125 580.0875 410.09375 580.8219Q409.84375 581.775 409.84375 584.04065Q409.84375 586.3063 410.0625 587.16565Q410.29688 588.0094 410.64062 588.29065Q410.98438 588.5719 411.4375 588.5719Q411.89062 588.5719 412.23438 588.29065Q412.59375 587.9938 412.78125 587.2594Q413.04688 586.3063 413.04688 584.04065Q413.04688 581.775 412.8125 580.9313Q412.57812 580.0875 412.23438 579.8063Q411.89062 579.5094 411.4375 579.5094ZM417.28125 580.6969Q417.28125 578.9625 418.03125 578.1344Q418.79688 577.29065 420.10938 577.29065Q421.45312 577.29065 422.20312 578.1344Q422.96875 578.9625 422.96875 580.6969Q422.96875 582.4313 422.20312 583.275Q421.45312 584.10315 420.14062 584.10315Q418.79688 584.10315 418.03125 583.275Q417.28125 582.4313 417.28125 580.6969ZM419.20312 580.6813Q419.20312 581.9313 419.5 582.3688Q419.71875 582.6813 420.10938 582.6813Q420.5 582.6813 420.71875 582.3688Q421.0 581.9313 421.0 580.6813Q421.0 579.41565 420.71875 578.9938Q420.5 578.6813 420.10938 578.6813Q419.71875 578.6813 419.5 578.9938Q419.20312 579.41565 419.20312 580.6813ZM421.98438 590.9L420.15625 590.9L427.01562 577.29065L428.79688 577.29065L421.98438 590.9ZM425.96875 587.5094Q425.96875 585.775 426.73438 584.9469Q427.5 584.10315 428.8125 584.10315Q430.14062 584.10315 430.89062 584.9469Q431.65625 585.775 431.65625 587.5094Q431.65625 589.2438 430.89062 590.0875Q430.14062 590.91565 428.84375 590.91565Q427.5 590.91565 426.73438 590.0875Q425.96875 589.2438 425.96875 587.5094ZM427.90625 587.4938Q427.90625 588.7594 428.1875 589.1813Q428.40625 589.5094 428.79688 589.5094Q429.1875 589.5094 429.40625 589.1813Q429.6875 588.7594 429.6875 587.4938Q429.6875 586.2438 429.40625 585.8063Q429.1875 585.4938 428.79688 585.4938Q428.40625 585.4938 428.1875 585.8063Q427.90625 586.2438 427.90625 587.4938ZM434.10938 594.1813Q434.84375 592.6188 435.14062 591.775Q435.4375 590.9469 435.6875 589.8688Q435.9375 588.775 436.0625 587.79065Q436.1875 586.8063 436.1875 585.79065Q436.1875 583.6969 435.73438 581.8375Q435.29688 579.9625 434.09375 577.29065L435.76562 577.29065Q437.09375 579.1813 437.82812 581.3063Q438.5625 583.41565 438.5625 585.60315Q438.5625 587.4313 437.98438 589.54065Q437.32812 591.9 435.8125 594.1813L434.10938 594.1813Z" fill-rule="nonzero"/><path fill="#14bf51" d="M467.5 583.9C467.5 587.2137 464.81372 589.9 461.5 589.9C458.18628 589.9 455.5 587.2137 455.5 583.9C455.5 580.5863 458.18628 577.9 461.5 577.9C464.81372 577.9 467.5 580.5863 467.5 583.9Z" fill-rule="nonzero"/><path fill="#ffffff" d="M476.79688 577.5094L481.5625 577.5094Q483.17188 577.5094 484.01562 577.7594Q485.14062 578.0875 485.95312 578.9469Q486.76562 579.8063 487.1875 581.04065Q487.60938 582.275 487.60938 584.0875Q487.60938 585.66565 487.20312 586.8219Q486.71875 588.22815 485.82812 589.10315Q485.15625 589.7594 484.0 590.1344Q483.14062 590.4 481.70312 590.4L476.79688 590.4L476.79688 577.5094ZM479.40625 579.6969L479.40625 588.22815L481.34375 588.22815Q482.4375 588.22815 482.92188 588.10315Q483.54688 587.9469 483.96875 587.5719Q484.39062 587.1969 484.64062 586.3375Q484.90625 585.4625 484.90625 583.9625Q484.90625 582.47815 484.64062 581.6813Q484.39062 580.8688 483.90625 580.4313Q483.4375 579.97815 482.70312 579.8219Q482.15625 579.6969 480.57812 579.6969L479.40625 579.6969ZM501.42188 590.4L498.59375 590.4L497.46875 587.47815L492.32812 587.47815L491.26562 590.4L488.5 590.4L493.51562 577.5094L496.26562 577.5094L501.42188 590.4ZM496.64062 585.3063L494.85938 580.525L493.125 585.3063L496.64062 585.3063ZM502.28125 584.04065Q502.28125 582.0719 502.875 580.72815Q503.3125 579.7438 504.0625 578.9625Q504.82812 578.1813 505.73438 577.8063Q506.9375 577.29065 508.51562 577.29065Q511.35938 577.29065 513.0625 579.0563Q514.78125 580.8219 514.78125 583.97815Q514.78125 587.0875 513.0781 588.85315Q511.39062 590.6188 508.54688 590.6188Q505.67188 590.6188 503.96875 588.8688Q502.28125 587.1188 502.28125 584.04065ZM504.96875 583.9469Q504.96875 586.1344 505.96875 587.275Q506.98438 588.4 508.54688 588.4Q510.09375 588.4 511.09375 587.275Q512.09375 586.15 512.09375 583.91565Q512.09375 581.6969 511.125 580.6188Q510.15625 579.525 508.54688 579.525Q506.9375 579.525 505.95312 580.6344Q504.96875 581.72815 504.96875 583.9469ZM521.5156 586.9625L521.5156 584.4938L526.3594 584.4938L526.3594 586.9625L521.5156 586.9625ZM535.7031 590.4L535.7031 579.6969L531.8906 579.6969L531.8906 577.5094L542.125 577.5094L542.125 579.6969L538.3125 579.6969L538.3125 590.4L535.7031 590.4ZM546.15625 590.4L543.6875 590.4L543.6875 581.0719L545.9844 581.0719L545.9844 582.4Q546.5625 581.4469 547.03125 581.15Q547.5156 580.85315 548.1094 580.85315Q548.9531 580.85315 549.7344 581.3219L548.96875 583.47815Q548.34375 583.0719 547.8125 583.0719Q547.2969 583.0719 546.9219 583.35315Q546.5625 583.6344 546.3594 584.3844Q546.15625 585.1344 546.15625 587.5094L546.15625 590.4ZM556.2031 587.4313L558.65625 587.8375Q558.1875 589.1969 557.15625 589.91565Q556.1406 590.6188 554.59375 590.6188Q552.15625 590.6188 551.0 589.025Q550.0781 587.7438 550.0781 585.8063Q550.0781 583.47815 551.28125 582.16565Q552.5 580.85315 554.3594 580.85315Q556.4375 580.85315 557.6406 582.22815Q558.84375 583.60315 558.7969 586.4469L552.6094 586.4469Q552.625 587.54065 553.1875 588.15Q553.7656 588.7594 554.625 588.7594Q555.2031 588.7594 555.59375 588.4469Q556.0 588.1344 556.2031 587.4313ZM556.34375 584.9313Q556.3125 583.85315 555.78125 583.3063Q555.25 582.7438 554.5 582.7438Q553.6875 582.7438 553.1719 583.3375Q552.6406 583.91565 552.6406 584.9313L556.34375 584.9313ZM563.6406 583.91565L561.3906 583.5094Q561.78125 582.15 562.7031 581.5094Q563.625 580.85315 565.4375 580.85315Q567.09375 580.85315 567.8906 581.2438Q568.7031 581.6344 569.03125 582.2438Q569.375 582.8375 569.375 584.4469L569.34375 587.3375Q569.34375 588.5563 569.4531 589.15Q569.5781 589.72815 569.90625 590.4L567.46875 590.4Q567.3594 590.15 567.21875 589.66565Q567.15625 589.4469 567.1406 589.3844Q566.5 589.9938 565.78125 590.3063Q565.0625 590.6188 564.25 590.6188Q562.7969 590.6188 561.96875 589.8375Q561.1406 589.04065 561.1406 587.85315Q561.1406 587.0563 561.5156 586.4469Q561.8906 585.8219 562.5781 585.4938Q563.2656 585.16565 564.5469 584.91565Q566.28125 584.5875 566.9375 584.3063L566.9375 584.0563Q566.9375 583.35315 566.5781 583.0563Q566.2344 582.7438 565.2656 582.7438Q564.6094 582.7438 564.2344 583.0094Q563.8594 583.2594 563.6406 583.91565ZM566.9375 585.91565Q566.46875 586.0719 565.4375 586.29065Q564.40625 586.5094 564.09375 586.72815Q563.6094 587.0719 563.6094 587.60315Q563.6094 588.1188 564.0 588.4938Q564.3906 588.8688 564.9844 588.8688Q565.65625 588.8688 566.25 588.4313Q566.7031 588.10315 566.84375 587.6188Q566.9375 587.29065 566.9375 586.41565L566.9375 585.91565ZM570.9219 587.7438L573.40625 587.35315Q573.5625 588.0719 574.0469 588.4469Q574.53125 588.8219 575.3906 588.8219Q576.3594 588.8219 576.84375 588.47815Q577.15625 588.22815 577.15625 587.8219Q577.15625 587.54065 576.9844 587.35315Q576.7969 587.1813 576.15625 587.025Q573.1719 586.3688 572.375 585.8219Q571.2656 585.0719 571.2656 583.7125Q571.2656 582.5094 572.21875 581.6813Q573.1875 580.85315 575.1875 580.85315Q577.1094 580.85315 578.03125 581.47815Q578.96875 582.10315 579.3281 583.3219L577.0 583.7594Q576.84375 583.2125 576.4219 582.9313Q576.0156 582.6344 575.2344 582.6344Q574.2656 582.6344 573.84375 582.9Q573.5625 583.10315 573.5625 583.4Q573.5625 583.66565 573.8125 583.85315Q574.1406 584.10315 576.1094 584.5563Q578.0781 584.9938 578.875 585.65Q579.6406 586.3063 579.6406 587.47815Q579.6406 588.7594 578.5625 589.6969Q577.5 590.6188 575.3906 590.6188Q573.4844 590.6188 572.375 589.8375Q571.2656 589.0563 570.9219 587.7438ZM587.9375 590.4L587.9375 589.0094Q587.4219 589.7438 586.59375 590.1813Q585.7656 590.6188 584.84375 590.6188Q583.90625 590.6188 583.15625 590.2125Q582.40625 589.79065 582.0625 589.04065Q581.7344 588.29065 581.7344 586.97815L581.7344 581.0719L584.2031 581.0719L584.2031 585.35315Q584.2031 587.3219 584.34375 587.775Q584.4844 588.2125 584.84375 588.47815Q585.2031 588.72815 585.75 588.72815Q586.3906 588.72815 586.8906 588.3844Q587.3906 588.04065 587.5781 587.525Q587.7656 587.0094 587.7656 585.0094L587.7656 581.0719L590.2344 581.0719L590.2344 590.4L587.9375 590.4ZM595.15625 590.4L592.6875 590.4L592.6875 581.0719L594.9844 581.0719L594.9844 582.4Q595.5625 581.4469 596.03125 581.15Q596.5156 580.85315 597.1094 580.85315Q597.9531 580.85315 598.7344 581.3219L597.96875 583.47815Q597.34375 583.0719 596.8125 583.0719Q596.2969 583.0719 595.9219 583.35315Q595.5625 583.6344 595.3594 584.3844Q595.15625 585.1344 595.15625 587.5094L595.15625 590.4ZM598.625 581.0719L601.25 581.0719L603.4844 587.6969L605.65625 581.0719L608.21875 581.0719L604.9219 590.04065L604.34375 591.6813Q604.0156 592.4938 603.71875 592.91565Q603.4219 593.35315 603.03125 593.6188Q602.65625 593.8844 602.09375 594.025Q601.5469 594.1813 600.84375 594.1813Q600.125 594.1813 599.4375 594.04065L599.21875 592.10315Q599.7969 592.2125 600.2656 592.2125Q601.125 592.2125 601.53125 591.7125Q601.9531 591.2125 602.1719 590.4313L598.625 581.0719ZM619.8906 594.1813L618.1875 594.1813Q616.84375 592.16565 616.1406 589.97815Q615.4375 587.775 615.4375 585.72815Q615.4375 583.1969 616.3125 580.9313Q617.0625 578.9625 618.2344 577.29065L619.9219 577.29065Q618.7031 579.9625 618.25 581.8375Q617.8125 583.6969 617.8125 585.79065Q617.8125 587.22815 618.0781 588.7438Q618.34375 590.2438 618.8125 591.6188Q619.1094 592.5094 619.8906 594.1813ZM626.1094 590.4L626.1094 587.8063L620.8281 587.8063L620.8281 585.65L626.4219 577.4625L628.5 577.4625L628.5 585.6344L630.09375 585.6344L630.09375 587.8063L628.5 587.8063L628.5 590.4L626.1094 590.4ZM626.1094 585.6344L626.1094 581.22815L623.1406 585.6344L626.1094 585.6344ZM631.2656 579.97815L631.2656 577.6969L639.71875 577.6969L639.71875 579.47815Q638.6719 580.5094 637.5781 582.4469Q636.5 584.3688 635.9375 586.54065Q635.375 588.6969 635.375 590.4L633.0 590.4Q633.0625 587.72815 634.09375 584.9469Q635.1406 582.16565 636.875 579.97815L631.2656 579.97815ZM641.7969 590.4L641.7969 587.9313L644.2656 587.9313L644.2656 590.4L641.7969 590.4ZM646.2656 579.97815L646.2656 577.6969L654.71875 577.6969L654.71875 579.47815Q653.6719 580.5094 652.5781 582.4469Q651.5 584.3688 650.9375 586.54065Q650.375 588.6969 650.375 590.4L648.0 590.4Q648.0625 587.72815 649.09375 584.9469Q650.1406 582.16565 651.875 579.97815L646.2656 579.97815ZM656.2969 587.0875L658.7656 586.8375Q658.8594 587.66565 659.375 588.15Q659.90625 588.6344 660.5781 588.6344Q661.3594 588.6344 661.8906 588.0094Q662.4219 587.3844 662.4219 586.1188Q662.4219 584.9313 661.8906 584.3375Q661.3594 583.7438 660.5156 583.7438Q659.4531 583.7438 658.6094 584.6813L656.59375 584.4L657.8594 577.6969L664.3906 577.6969L664.3906 580.0094L659.7344 580.0094L659.34375 582.1969Q660.1719 581.775 661.03125 581.775Q662.6875 581.775 663.8281 582.97815Q664.96875 584.16565 664.96875 586.0719Q664.96875 587.66565 664.0469 588.91565Q662.78125 590.6188 660.5469 590.6188Q658.7656 590.6188 657.6406 589.66565Q656.5156 588.6969 656.2969 587.0875ZM666.28125 580.6969Q666.28125 578.9625 667.03125 578.1344Q667.7969 577.29065 669.1094 577.29065Q670.4531 577.29065 671.2031 578.1344Q671.96875 578.9625 671.96875 580.6969Q671.96875 582.4313 671.2031 583.275Q670.4531 584.10315 669.1406 584.10315Q667.7969 584.10315 667.03125 583.275Q666.28125 582.4313 666.28125 580.6969ZM668.2031 580.6813Q668.2031 581.9313 668.5 582.3688Q668.71875 582.6813 669.1094 582.6813Q669.5 582.6813 669.71875 582.3688Q670.0 581.9313 670.0 580.6813Q670.0 579.41565 669.71875 578.9938Q669.5 578.6813 669.1094 578.6813Q668.71875 578.6813 668.5 578.9938Q668.2031 579.41565 668.2031 580.6813ZM670.9844 590.9L669.15625 590.9L676.0156 577.29065L677.7969 577.29065L670.9844 590.9ZM674.96875 587.5094Q674.96875 585.775 675.7344 584.9469Q676.5 584.10315 677.8125 584.10315Q679.1406 584.10315 679.8906 584.9469Q680.65625 585.775 680.65625 587.5094Q680.65625 589.2438 679.8906 590.0875Q679.1406 590.91565 677.84375 590.91565Q676.5 590.91565 675.7344 590.0875Q674.96875 589.2438 674.96875 587.5094ZM676.90625 587.4938Q676.90625 588.7594 677.1875 589.1813Q677.40625 589.5094 677.7969 589.5094Q678.1875 589.5094 678.40625 589.1813Q678.6875 588.7594 678.6875 587.4938Q678.6875 586.2438 678.40625 585.8063Q678.1875 585.4938 677.7969 585.4938Q677.40625 585.4938 677.1875 585.8063Q676.90625 586.2438 676.90625 587.4938ZM683.1094 594.1813Q683.84375 592.6188 684.1406 591.775Q684.4375 590.9469 684.6875 589.8688Q684.9375 588.775 685.0625 587.79065Q685.1875 586.8063 685.1875 585.79065Q685.1875 583.6969 684.7344 581.8375Q684.2969 579.9625 683.09375 577.29065L684.7656 577.29065Q686.09375 579.1813 686.8281 581.3063Q687.5625 583.41565 687.5625 585.60315Q687.5625 587.4313 686.9844 589.54065Q686.3281 591.9 684.8125 594.1813L683.1094 594.1813Z" fill-rule="nonzero"/><path fill="#ffb4ff" d="M133.5 608.9C133.5 612.2137 130.8137 614.9 127.5 614.9C124.186295 614.9 121.5 612.2137 121.5 608.9C121.5 605.5863 124.186295 602.9 127.5 602.9C130.8137 602.9 133.5 605.5863 133.5 608.9Z" fill-rule="nonzero"/><path fill="#ffffff" d="M142.82812 615.4L142.82812 602.5094L151.65625 602.5094L151.65625 604.6969L145.42188 604.6969L145.42188 607.7438L150.8125 607.7438L150.8125 609.9313L145.42188 609.9313L145.42188 615.4L142.82812 615.4ZM156.70312 615.4L156.70312 604.6969L152.89062 604.6969L152.89062 602.5094L163.125 602.5094L163.125 604.6969L159.3125 604.6969L159.3125 615.4L156.70312 615.4ZM164.875 615.4L164.875 602.6188L167.48438 602.6188L167.48438 613.22815L173.95312 613.22815L173.95312 615.4L164.875 615.4ZM180.875 615.4L180.875 602.6188L183.48438 602.6188L183.48438 613.22815L189.95312 613.22815L189.95312 615.4L180.875 615.4ZM193.64062 608.91565L191.39062 608.5094Q191.78125 607.15 192.70312 606.5094Q193.625 605.85315 195.4375 605.85315Q197.09375 605.85315 197.89062 606.2438Q198.70312 606.6344 199.03125 607.2438Q199.375 607.8375 199.375 609.4469L199.34375 612.3375Q199.34375 613.5563 199.45312 614.15Q199.57812 614.72815 199.90625 615.4L197.46875 615.4Q197.35938 615.15 197.21875 614.66565Q197.15625 614.4469 197.14062 614.3844Q196.5 614.9938 195.78125 615.3063Q195.0625 615.6188 194.25 615.6188Q192.79688 615.6188 191.96875 614.8375Q191.14062 614.04065 191.14062 612.85315Q191.14062 612.0563 191.51562 611.4469Q191.89062 610.8219 192.57812 610.4938Q193.26562 610.16565 194.54688 609.91565Q196.28125 609.5875 196.9375 609.3063L196.9375 609.0563Q196.9375 608.35315 196.57812 608.0563Q196.23438 607.7438 195.26562 607.7438Q194.60938 607.7438 194.23438 608.0094Q193.85938 608.2594 193.64062 608.91565ZM196.9375 610.91565Q196.46875 611.0719 195.4375 611.29065Q194.40625 611.5094 194.09375 611.72815Q193.60938 612.0719 193.60938 612.60315Q193.60938 613.1188 194.0 613.4938Q194.39062 613.8688 194.98438 613.8688Q195.65625 613.8688 196.25 613.4313Q196.70312 613.10315 196.84375 612.6188Q196.9375 612.29065 196.9375 611.41565L196.9375 610.91565ZM201.6875 615.4L201.6875 602.5094L204.15625 602.5094L204.15625 607.15Q205.29688 605.85315 206.85938 605.85315Q208.5625 605.85315 209.67188 607.0875Q210.79688 608.3219 210.79688 610.6344Q210.79688 613.025 209.65625 614.3219Q208.53125 615.6188 206.90625 615.6188Q206.09375 615.6188 205.3125 615.2125Q204.54688 614.8063 203.98438 614.025L203.98438 615.4L201.6875 615.4ZM204.14062 610.525Q204.14062 611.97815 204.59375 612.6813Q205.23438 613.66565 206.29688 613.66565Q207.125 613.66565 207.6875 612.9625Q208.26562 612.2594 208.26562 610.7594Q208.26562 609.16565 207.6875 608.4625Q207.10938 607.7438 206.20312 607.7438Q205.3125 607.7438 204.71875 608.4313Q204.14062 609.1188 204.14062 610.525ZM211.92188 612.7438L214.40625 612.35315Q214.5625 613.0719 215.04688 613.4469Q215.53125 613.8219 216.39062 613.8219Q217.35938 613.8219 217.84375 613.47815Q218.15625 613.22815 218.15625 612.8219Q218.15625 612.54065 217.98438 612.35315Q217.79688 612.1813 217.15625 612.025Q214.17188 611.3688 213.375 610.8219Q212.26562 610.0719 212.26562 608.7125Q212.26562 607.5094 213.21875 606.6813Q214.1875 605.85315 216.1875 605.85315Q218.10938 605.85315 219.03125 606.47815Q219.96875 607.10315 220.32812 608.3219L218.0 608.7594Q217.84375 608.2125 217.42188 607.9313Q217.01562 607.6344 216.23438 607.6344Q215.26562 607.6344 214.84375 607.9Q214.5625 608.10315 214.5625 608.4Q214.5625 608.66565 214.8125 608.85315Q215.14062 609.10315 217.10938 609.5563Q219.07812 609.9938 219.875 610.65Q220.64062 611.3063 220.64062 612.47815Q220.64062 613.7594 219.5625 614.6969Q218.5 615.6188 216.39062 615.6188Q214.48438 615.6188 213.375 614.8375Q212.26562 614.0563 211.92188 612.7438ZM227.51562 611.9625L227.51562 609.4938L232.35938 609.4938L232.35938 611.9625L227.51562 611.9625ZM238.15625 611.2125L240.6875 610.9625Q240.90625 612.22815 241.60938 612.8375Q242.3125 613.4313 243.5 613.4313Q244.75 613.4313 245.39062 612.9Q246.03125 612.3688 246.03125 611.65Q246.03125 611.1969 245.75 610.8844Q245.48438 610.5563 244.82812 610.3219Q244.35938 610.16565 242.73438 609.7594Q240.64062 609.2438 239.79688 608.47815Q238.60938 607.41565 238.60938 605.8844Q238.60938 604.9 239.17188 604.0563Q239.73438 603.1969 240.78125 602.7438Q241.82812 602.29065 243.3125 602.29065Q245.75 602.29065 246.96875 603.35315Q248.20312 604.41565 248.26562 606.1969L245.65625 606.3063Q245.48438 605.3219 244.9375 604.8844Q244.39062 604.4469 243.29688 604.4469Q242.15625 604.4469 241.51562 604.91565Q241.10938 605.2125 241.10938 605.7125Q241.10938 606.16565 241.48438 606.4938Q241.98438 606.91565 243.875 607.3688Q245.78125 607.8063 246.6875 608.29065Q247.59375 608.7594 248.10938 609.60315Q248.625 610.4313 248.625 611.65Q248.625 612.7594 248.0 613.72815Q247.39062 614.6813 246.26562 615.16565Q245.14062 615.6344 243.46875 615.6344Q241.03125 615.6344 239.71875 614.5094Q238.40625 613.3688 238.15625 611.2125ZM262.42188 615.4L259.59375 615.4L258.46875 612.47815L253.32812 612.47815L252.26562 615.4L249.5 615.4L254.51562 602.5094L257.26562 602.5094L262.42188 615.4ZM257.64062 610.3063L255.85938 605.525L254.125 610.3063L257.64062 610.3063ZM263.82812 615.4L263.82812 602.5094L272.65625 602.5094L272.65625 604.6969L266.42188 604.6969L266.42188 607.7438L271.8125 607.7438L271.8125 609.9313L266.42188 609.9313L266.42188 615.4L263.82812 615.4ZM277.70312 615.4L277.70312 604.6969L273.89062 604.6969L273.89062 602.5094L284.125 602.5094L284.125 604.6969L280.3125 604.6969L280.3125 615.4L277.70312 615.4ZM290.8125 615.4L290.8125 602.5094L294.98438 602.5094Q297.35938 602.5094 298.07812 602.7125Q299.1875 602.9938 299.9375 603.97815Q300.6875 604.9469 300.6875 606.47815Q300.6875 607.66565 300.25 608.47815Q299.8125 609.275 299.14062 609.7438Q298.48438 610.2125 297.8125 610.35315Q296.875 610.54065 295.10938 610.54065L293.40625 610.54065L293.40625 615.4L290.8125 615.4ZM293.40625 604.6969L293.40625 608.35315L294.82812 608.35315Q296.375 608.35315 296.89062 608.15Q297.40625 607.9469 297.70312 607.525Q298.0 607.0875 298.0 606.5094Q298.0 605.8063 297.57812 605.35315Q297.17188 604.9 296.54688 604.775Q296.07812 604.6969 294.67188 604.6969L293.40625 604.6969ZM308.9375 615.4L308.9375 614.0094Q308.42188 614.7438 307.59375 615.1813Q306.76562 615.6188 305.84375 615.6188Q304.90625 615.6188 304.15625 615.2125Q303.40625 614.79065 303.0625 614.04065Q302.73438 613.29065 302.73438 611.97815L302.73438 606.0719L305.20312 606.0719L305.20312 610.35315Q305.20312 612.3219 305.34375 612.775Q305.48438 613.2125 305.84375 613.47815Q306.20312 613.72815 306.75 613.72815Q307.39062 613.72815 307.89062 613.3844Q308.39062 613.04065 308.57812 612.525Q308.76562 612.0094 308.76562 610.0094L308.76562 606.0719L311.23438 606.0719L311.23438 615.4L308.9375 615.4ZM316.15625 615.4L313.6875 615.4L313.6875 606.0719L315.98438 606.0719L315.98438 607.4Q316.5625 606.4469 317.03125 606.15Q317.51562 605.85315 318.10938 605.85315Q318.95312 605.85315 319.73438 606.3219L318.96875 608.47815Q318.34375 608.0719 317.8125 608.0719Q317.29688 608.0719 316.92188 608.35315Q316.5625 608.6344 316.35938 609.3844Q316.15625 610.1344 316.15625 612.5094L316.15625 615.4ZM328.9375 608.8219L326.5 609.2594Q326.375 608.54065 325.9375 608.16565Q325.5 607.79065 324.8125 607.79065Q323.89062 607.79065 323.32812 608.4313Q322.78125 609.0719 322.78125 610.5719Q322.78125 612.22815 323.34375 612.91565Q323.90625 613.60315 324.84375 613.60315Q325.54688 613.60315 325.98438 613.1969Q326.4375 612.79065 326.625 611.8219L329.04688 612.22815Q328.67188 613.9 327.59375 614.7594Q326.53125 615.6188 324.73438 615.6188Q322.6875 615.6188 321.46875 614.3219Q320.25 613.025 320.25 610.7438Q320.25 608.4313 321.46875 607.15Q322.6875 605.85315 324.78125 605.85315Q326.48438 605.85315 327.48438 606.5875Q328.48438 607.3219 328.9375 608.8219ZM333.25 602.5094L333.25 607.2594Q334.45312 605.85315 336.10938 605.85315Q336.96875 605.85315 337.64062 606.1813Q338.32812 606.4938 338.67188 606.9938Q339.03125 607.47815 339.15625 608.0719Q339.28125 608.66565 339.28125 609.9313L339.28125 615.4L336.8125 615.4L336.8125 610.4625Q336.8125 608.9938 336.67188 608.60315Q336.53125 608.2125 336.17188 607.97815Q335.8125 607.7438 335.28125 607.7438Q334.67188 607.7438 334.1875 608.04065Q333.70312 608.3375 333.46875 608.9469Q333.25 609.54065 333.25 610.72815L333.25 615.4L330.78125 615.4L330.78125 602.5094L333.25 602.5094ZM343.64062 608.91565L341.39062 608.5094Q341.78125 607.15 342.70312 606.5094Q343.625 605.85315 345.4375 605.85315Q347.09375 605.85315 347.89062 606.2438Q348.70312 606.6344 349.03125 607.2438Q349.375 607.8375 349.375 609.4469L349.34375 612.3375Q349.34375 613.5563 349.45312 614.15Q349.57812 614.72815 349.90625 615.4L347.46875 615.4Q347.35938 615.15 347.21875 614.66565Q347.15625 614.4469 347.14062 614.3844Q346.5 614.9938 345.78125 615.3063Q345.0625 615.6188 344.25 615.6188Q342.79688 615.6188 341.96875 614.8375Q341.14062 614.04065 341.14062 612.85315Q341.14062 612.0563 341.51562 611.4469Q341.89062 610.8219 342.57812 610.4938Q343.26562 610.16565 344.54688 609.91565Q346.28125 609.5875 346.9375 609.3063L346.9375 609.0563Q346.9375 608.35315 346.57812 608.0563Q346.23438 607.7438 345.26562 607.7438Q344.60938 607.7438 344.23438 608.0094Q343.85938 608.2594 343.64062 608.91565ZM346.9375 610.91565Q346.46875 611.0719 345.4375 611.29065Q344.40625 611.5094 344.09375 611.72815Q343.60938 612.0719 343.60938 612.60315Q343.60938 613.1188 344.0 613.4938Q344.39062 613.8688 344.98438 613.8688Q345.65625 613.8688 346.25 613.4313Q346.70312 613.10315 346.84375 612.6188Q346.9375 612.29065 346.9375 611.41565L346.9375 610.91565ZM350.92188 612.7438L353.40625 612.35315Q353.5625 613.0719 354.04688 613.4469Q354.53125 613.8219 355.39062 613.8219Q356.35938 613.8219 356.84375 613.47815Q357.15625 613.22815 357.15625 612.8219Q357.15625 612.54065 356.98438 612.35315Q356.79688 612.1813 356.15625 612.025Q353.17188 611.3688 352.375 610.8219Q351.26562 610.0719 351.26562 608.7125Q351.26562 607.5094 352.21875 606.6813Q353.1875 605.85315 355.1875 605.85315Q357.10938 605.85315 358.03125 606.47815Q358.96875 607.10315 359.32812 608.3219L357.0 608.7594Q356.84375 608.2125 356.42188 607.9313Q356.01562 607.6344 355.23438 607.6344Q354.26562 607.6344 353.84375 607.9Q353.5625 608.10315 353.5625 608.4Q353.5625 608.66565 353.8125 608.85315Q354.14062 609.10315 356.10938 609.5563Q358.07812 609.9938 358.875 610.65Q359.64062 611.3063 359.64062 612.47815Q359.64062 613.7594 358.5625 614.6969Q357.5 615.6188 355.39062 615.6188Q353.48438 615.6188 352.375 614.8375Q351.26562 614.0563 350.92188 612.7438ZM367.20312 612.4313L369.65625 612.8375Q369.1875 614.1969 368.15625 614.91565Q367.14062 615.6188 365.59375 615.6188Q363.15625 615.6188 362.0 614.025Q361.07812 612.7438 361.07812 610.8063Q361.07812 608.47815 362.28125 607.16565Q363.5 605.85315 365.35938 605.85315Q367.4375 605.85315 368.64062 607.22815Q369.84375 608.60315 369.79688 611.4469L363.60938 611.4469Q363.625 612.54065 364.1875 613.15Q364.76562 613.7594 365.625 613.7594Q366.20312 613.7594 366.59375 613.4469Q367.0 613.1344 367.20312 612.4313ZM367.34375 609.9313Q367.3125 608.85315 366.78125 608.3063Q366.25 607.7438 365.5 607.7438Q364.6875 607.7438 364.17188 608.3375Q363.64062 608.91565 363.64062 609.9313L367.34375 609.9313ZM375.15625 615.4L372.6875 615.4L372.6875 606.0719L374.98438 606.0719L374.98438 607.4Q375.5625 606.4469 376.03125 606.15Q376.51562 605.85315 377.10938 605.85315Q377.95312 605.85315 378.73438 606.3219L377.96875 608.47815Q377.34375 608.0719 376.8125 608.0719Q376.29688 608.0719 375.92188 608.35315Q375.5625 608.6344 375.35938 609.3844Q375.15625 610.1344 375.15625 612.5094L375.15625 615.4ZM378.92188 612.7438L381.40625 612.35315Q381.5625 613.0719 382.04688 613.4469Q382.53125 613.8219 383.39062 613.8219Q384.35938 613.8219 384.84375 613.47815Q385.15625 613.22815 385.15625 612.8219Q385.15625 612.54065 384.98438 612.35315Q384.79688 612.1813 384.15625 612.025Q381.17188 611.3688 380.375 610.8219Q379.26562 610.0719 379.26562 608.7125Q379.26562 607.5094 380.21875 606.6813Q381.1875 605.85315 383.1875 605.85315Q385.10938 605.85315 386.03125 606.47815Q386.96875 607.10315 387.32812 608.3219L385.0 608.7594Q384.84375 608.2125 384.42188 607.9313Q384.01562 607.6344 383.23438 607.6344Q382.26562 607.6344 381.84375 607.9Q381.5625 608.10315 381.5625 608.4Q381.5625 608.66565 381.8125 608.85315Q382.14062 609.10315 384.10938 609.5563Q386.07812 609.9938 386.875 610.65Q387.64062 611.3063 387.64062 612.47815Q387.64062 613.7594 386.5625 614.6969Q385.5 615.6188 383.39062 615.6188Q381.48438 615.6188 380.375 614.8375Q379.26562 614.0563 378.92188 612.7438ZM398.89062 619.1813L397.1875 619.1813Q395.84375 617.16565 395.14062 614.97815Q394.4375 612.775 394.4375 610.72815Q394.4375 608.1969 395.3125 605.9313Q396.0625 603.9625 397.23438 602.29065L398.92188 602.29065Q397.70312 604.9625 397.25 606.8375Q396.8125 608.6969 396.8125 610.79065Q396.8125 612.22815 397.07812 613.7438Q397.34375 615.2438 397.8125 616.6188Q398.10938 617.5094 398.89062 619.1813ZM405.10938 615.4L405.10938 612.8063L399.82812 612.8063L399.82812 610.65L405.42188 602.4625L407.5 602.4625L407.5 610.6344L409.09375 610.6344L409.09375 612.8063L407.5 612.8063L407.5 615.4L405.10938 615.4ZM405.10938 610.6344L405.10938 606.22815L402.14062 610.6344L405.10938 610.6344ZM410.79688 615.4L410.79688 612.9313L413.26562 612.9313L413.26562 615.4L410.79688 615.4ZM420.10938 615.4L420.10938 612.8063L414.82812 612.8063L414.82812 610.65L420.42188 602.4625L422.5 602.4625L422.5 610.6344L424.09375 610.6344L424.09375 612.8063L422.5 612.8063L422.5 615.4L420.10938 615.4ZM420.10938 610.6344L420.10938 606.22815L417.14062 610.6344L420.10938 610.6344ZM425.26562 604.97815L425.26562 602.6969L433.71875 602.6969L433.71875 604.47815Q432.67188 605.5094 431.57812 607.4469Q430.5 609.3688 429.9375 611.54065Q429.375 613.6969 429.375 615.4L427.0 615.4Q427.0625 612.72815 428.09375 609.9469Q429.14062 607.16565 430.875 604.97815L425.26562 604.97815ZM435.28125 605.6969Q435.28125 603.9625 436.03125 603.1344Q436.79688 602.29065 438.10938 602.29065Q439.45312 602.29065 440.20312 603.1344Q440.96875 603.9625 440.96875 605.6969Q440.96875 607.4313 440.20312 608.275Q439.45312 609.10315 438.14062 609.10315Q436.79688 609.10315 436.03125 608.275Q435.28125 607.4313 435.28125 605.6969ZM437.20312 605.6813Q437.20312 606.9313 437.5 607.3688Q437.71875 607.6813 438.10938 607.6813Q438.5 607.6813 438.71875 607.3688Q439.0 606.9313 439.0 605.6813Q439.0 604.41565 438.71875 603.9938Q438.5 603.6813 438.10938 603.6813Q437.71875 603.6813 437.5 603.9938Q437.20312 604.41565 437.20312 605.6813ZM439.98438 615.9L438.15625 615.9L445.01562 602.29065L446.79688 602.29065L439.98438 615.9ZM443.96875 612.5094Q443.96875 610.775 444.73438 609.9469Q445.5 609.10315 446.8125 609.10315Q448.14062 609.10315 448.89062 609.9469Q449.65625 610.775 449.65625 612.5094Q449.65625 614.2438 448.89062 615.0875Q448.14062 615.91565 446.84375 615.91565Q445.5 615.91565 444.73438 615.0875Q443.96875 614.2438 443.96875 612.5094ZM445.90625 612.4938Q445.90625 613.7594 446.1875 614.1813Q446.40625 614.5094 446.79688 614.5094Q447.1875 614.5094 447.40625 614.1813Q447.6875 613.7594 447.6875 612.4938Q447.6875 611.2438 447.40625 610.8063Q447.1875 610.4938 446.79688 610.4938Q446.40625 610.4938 446.1875 610.8063Q445.90625 611.2438 445.90625 612.4938ZM452.10938 619.1813Q452.84375 617.6188 453.14062 616.775Q453.4375 615.9469 453.6875 614.8688Q453.9375 613.775 454.0625 612.79065Q454.1875 611.8063 454.1875 610.79065Q454.1875 608.6969 453.73438 606.8375Q453.29688 604.9625 452.09375 602.29065L453.76562 602.29065Q455.09375 604.1813 455.82812 606.3063Q456.5625 608.41565 456.5625 610.60315Q456.5625 612.4313 455.98438 614.54065Q455.32812 616.9 453.8125 619.1813L452.10938 619.1813Z" fill-rule="nonzero"/><path fill="#1470e8" d="M485.5 608.9C485.5 612.2137 482.81372 614.9 479.5 614.9C476.18628 614.9 473.5 612.2137 473.5 608.9C473.5 605.5863 476.18628 602.9 479.5 602.9C482.81372 602.9 485.5 605.5863 485.5 608.9Z" fill-rule="nonzero"/><path fill="#ffffff" d="M494.82812 615.4L494.82812 602.5094L503.65625 602.5094L503.65625 604.6969L497.42188 604.6969L497.42188 607.7438L502.8125 607.7438L502.8125 609.9313L497.42188 609.9313L497.42188 615.4L494.82812 615.4ZM508.70312 615.4L508.70312 604.6969L504.89062 604.6969L504.89062 602.5094L515.125 602.5094L515.125 604.6969L511.3125 604.6969L511.3125 615.4L508.70312 615.4ZM516.875 615.4L516.875 602.6188L519.4844 602.6188L519.4844 613.22815L525.9531 613.22815L525.9531 615.4L516.875 615.4ZM532.875 615.4L532.875 602.6188L535.4844 602.6188L535.4844 613.22815L541.9531 613.22815L541.9531 615.4L532.875 615.4ZM545.6406 608.91565L543.3906 608.5094Q543.78125 607.15 544.7031 606.5094Q545.625 605.85315 547.4375 605.85315Q549.09375 605.85315 549.8906 606.2438Q550.7031 606.6344 551.03125 607.2438Q551.375 607.8375 551.375 609.4469L551.34375 612.3375Q551.34375 613.5563 551.4531 614.15Q551.5781 614.72815 551.90625 615.4L549.46875 615.4Q549.3594 615.15 549.21875 614.66565Q549.15625 614.4469 549.1406 614.3844Q548.5 614.9938 547.78125 615.3063Q547.0625 615.6188 546.25 615.6188Q544.7969 615.6188 543.96875 614.8375Q543.1406 614.04065 543.1406 612.85315Q543.1406 612.0563 543.5156 611.4469Q543.8906 610.8219 544.5781 610.4938Q545.2656 610.16565 546.5469 609.91565Q548.28125 609.5875 548.9375 609.3063L548.9375 609.0563Q548.9375 608.35315 548.5781 608.0563Q548.2344 607.7438 547.2656 607.7438Q546.6094 607.7438 546.2344 608.0094Q545.8594 608.2594 545.6406 608.91565ZM548.9375 610.91565Q548.46875 611.0719 547.4375 611.29065Q546.40625 611.5094 546.09375 611.72815Q545.6094 612.0719 545.6094 612.60315Q545.6094 613.1188 546.0 613.4938Q546.3906 613.8688 546.9844 613.8688Q547.65625 613.8688 548.25 613.4313Q548.7031 613.10315 548.84375 612.6188Q548.9375 612.29065 548.9375 611.41565L548.9375 610.91565ZM553.6875 615.4L553.6875 602.5094L556.15625 602.5094L556.15625 607.15Q557.2969 605.85315 558.8594 605.85315Q560.5625 605.85315 561.6719 607.0875Q562.7969 608.3219 562.7969 610.6344Q562.7969 613.025 561.65625 614.3219Q560.53125 615.6188 558.90625 615.6188Q558.09375 615.6188 557.3125 615.2125Q556.5469 614.8063 555.9844 614.025L555.9844 615.4L553.6875 615.4ZM556.1406 610.525Q556.1406 611.97815 556.59375 612.6813Q557.2344 613.66565 558.2969 613.66565Q559.125 613.66565 559.6875 612.9625Q560.2656 612.2594 560.2656 610.7594Q560.2656 609.16565 559.6875 608.4625Q559.1094 607.7438 558.2031 607.7438Q557.3125 607.7438 556.71875 608.4313Q556.1406 609.1188 556.1406 610.525ZM563.9219 612.7438L566.40625 612.35315Q566.5625 613.0719 567.0469 613.4469Q567.53125 613.8219 568.3906 613.8219Q569.3594 613.8219 569.84375 613.47815Q570.15625 613.22815 570.15625 612.8219Q570.15625 612.54065 569.9844 612.35315Q569.7969 612.1813 569.15625 612.025Q566.1719 611.3688 565.375 610.8219Q564.2656 610.0719 564.2656 608.7125Q564.2656 607.5094 565.21875 606.6813Q566.1875 605.85315 568.1875 605.85315Q570.1094 605.85315 571.03125 606.47815Q571.96875 607.10315 572.3281 608.3219L570.0 608.7594Q569.84375 608.2125 569.4219 607.9313Q569.0156 607.6344 568.2344 607.6344Q567.2656 607.6344 566.84375 607.9Q566.5625 608.10315 566.5625 608.4Q566.5625 608.66565 566.8125 608.85315Q567.1406 609.10315 569.1094 609.5563Q571.0781 609.9938 571.875 610.65Q572.6406 611.3063 572.6406 612.47815Q572.6406 613.7594 571.5625 614.6969Q570.5 615.6188 568.3906 615.6188Q566.4844 615.6188 565.375 614.8375Q564.2656 614.0563 563.9219 612.7438ZM583.8906 619.1813L582.1875 619.1813Q580.84375 617.16565 580.1406 614.97815Q579.4375 612.775 579.4375 610.72815Q579.4375 608.1969 580.3125 605.9313Q581.0625 603.9625 582.2344 602.29065L583.9219 602.29065Q582.7031 604.9625 582.25 606.8375Q581.8125 608.6969 581.8125 610.79065Q581.8125 612.22815 582.0781 613.7438Q582.34375 615.2438 582.8125 616.6188Q583.1094 617.5094 583.8906 619.1813ZM585.1719 611.97815L587.5625 611.6969Q587.6875 612.60315 588.1875 613.0875Q588.6875 613.5719 589.3906 613.5719Q590.15625 613.5719 590.6719 612.9938Q591.2031 612.41565 591.2031 611.4313Q591.2031 610.4938 590.7031 609.9469Q590.2031 609.4 589.4844 609.4Q589.0156 609.4 588.34375 609.5875L588.625 607.5719Q589.625 607.60315 590.1406 607.15Q590.6719 606.6813 590.6719 605.91565Q590.6719 605.2594 590.28125 604.8844Q589.90625 604.4938 589.2656 604.4938Q588.625 604.4938 588.1719 604.9313Q587.7344 605.3688 587.6406 606.2125L585.3594 605.8219Q585.59375 604.66565 586.0781 603.9625Q586.5625 603.2594 587.40625 602.8688Q588.2656 602.4625 589.3281 602.4625Q591.15625 602.4625 592.25 603.6188Q593.15625 604.5719 593.15625 605.7594Q593.15625 607.4625 591.2969 608.47815Q592.40625 608.7125 593.0625 609.54065Q593.7344 610.3688 593.7344 611.525Q593.7344 613.22815 592.5 614.4313Q591.2656 615.6188 589.40625 615.6188Q587.6719 615.6188 586.5156 614.6188Q585.3594 613.60315 585.1719 611.97815ZM599.4375 602.4625Q601.3125 602.4625 602.3594 603.79065Q603.625 605.3844 603.625 609.04065Q603.625 612.6969 602.3594 614.3063Q601.3125 615.6188 599.4375 615.6188Q597.5625 615.6188 596.40625 614.1813Q595.25 612.72815 595.25 609.025Q595.25 605.3844 596.5156 603.775Q597.5625 602.4625 599.4375 602.4625ZM599.4375 604.5094Q598.9844 604.5094 598.625 604.8063Q598.28125 605.0875 598.09375 605.8219Q597.84375 606.775 597.84375 609.04065Q597.84375 611.3063 598.0625 612.16565Q598.2969 613.0094 598.6406 613.29065Q598.9844 613.5719 599.4375 613.5719Q599.8906 613.5719 600.2344 613.29065Q600.59375 612.9938 600.78125 612.2594Q601.0469 611.3063 601.0469 609.04065Q601.0469 606.775 600.8125 605.9313Q600.5781 605.0875 600.2344 604.8063Q599.8906 604.5094 599.4375 604.5094ZM605.7969 615.4L605.7969 612.9313L608.2656 612.9313L608.2656 615.4L605.7969 615.4ZM610.2969 612.0875L612.7656 611.8375Q612.8594 612.66565 613.375 613.15Q613.90625 613.6344 614.5781 613.6344Q615.3594 613.6344 615.8906 613.0094Q616.4219 612.3844 616.4219 611.1188Q616.4219 609.9313 615.8906 609.3375Q615.3594 608.7438 614.5156 608.7438Q613.4531 608.7438 612.6094 609.6813L610.59375 609.4L611.8594 602.6969L618.3906 602.6969L618.3906 605.0094L613.7344 605.0094L613.34375 607.1969Q614.1719 606.775 615.03125 606.775Q616.6875 606.775 617.8281 607.97815Q618.96875 609.16565 618.96875 611.0719Q618.96875 612.66565 618.0469 613.91565Q616.78125 615.6188 614.5469 615.6188Q612.7656 615.6188 611.6406 614.66565Q610.5156 613.6969 610.2969 612.0875ZM620.1719 611.97815L622.5625 611.6969Q622.6875 612.60315 623.1875 613.0875Q623.6875 613.5719 624.3906 613.5719Q625.15625 613.5719 625.6719 612.9938Q626.2031 612.41565 626.2031 611.4313Q626.2031 610.4938 625.7031 609.9469Q625.2031 609.4 624.4844 609.4Q624.0156 609.4 623.34375 609.5875L623.625 607.5719Q624.625 607.60315 625.1406 607.15Q625.6719 606.6813 625.6719 605.91565Q625.6719 605.2594 625.28125 604.8844Q624.90625 604.4938 624.2656 604.4938Q623.625 604.4938 623.1719 604.9313Q622.7344 605.3688 622.6406 606.2125L620.3594 605.8219Q620.59375 604.66565 621.0781 603.9625Q621.5625 603.2594 622.40625 602.8688Q623.2656 602.4625 624.3281 602.4625Q626.15625 602.4625 627.25 603.6188Q628.15625 604.5719 628.15625 605.7594Q628.15625 607.4625 626.2969 608.47815Q627.40625 608.7125 628.0625 609.54065Q628.7344 610.3688 628.7344 611.525Q628.7344 613.22815 627.5 614.4313Q626.2656 615.6188 624.40625 615.6188Q622.6719 615.6188 621.5156 614.6188Q620.3594 613.60315 620.1719 611.97815ZM630.28125 605.6969Q630.28125 603.9625 631.03125 603.1344Q631.7969 602.29065 633.1094 602.29065Q634.4531 602.29065 635.2031 603.1344Q635.96875 603.9625 635.96875 605.6969Q635.96875 607.4313 635.2031 608.275Q634.4531 609.10315 633.1406 609.10315Q631.7969 609.10315 631.03125 608.275Q630.28125 607.4313 630.28125 605.6969ZM632.2031 605.6813Q632.2031 606.9313 632.5 607.3688Q632.71875 607.6813 633.1094 607.6813Q633.5 607.6813 633.71875 607.3688Q634.0 606.9313 634.0 605.6813Q634.0 604.41565 633.71875 603.9938Q633.5 603.6813 633.1094 603.6813Q632.71875 603.6813 632.5 603.9938Q632.2031 604.41565 632.2031 605.6813ZM634.9844 615.9L633.15625 615.9L640.0156 602.29065L641.7969 602.29065L634.9844 615.9ZM638.96875 612.5094Q638.96875 610.775 639.7344 609.9469Q640.5 609.10315 641.8125 609.10315Q643.1406 609.10315 643.8906 609.9469Q644.65625 610.775 644.65625 612.5094Q644.65625 614.2438 643.8906 615.0875Q643.1406 615.91565 641.84375 615.91565Q640.5 615.91565 639.7344 615.0875Q638.96875 614.2438 638.96875 612.5094ZM640.90625 612.4938Q640.90625 613.7594 641.1875 614.1813Q641.40625 614.5094 641.7969 614.5094Q642.1875 614.5094 642.40625 614.1813Q642.6875 613.7594 642.6875 612.4938Q642.6875 611.2438 642.40625 610.8063Q642.1875 610.4938 641.7969 610.4938Q641.40625 610.4938 641.1875 610.8063Q640.90625 611.2438 640.90625 612.4938ZM647.1094 619.1813Q647.84375 617.6188 648.1406 616.775Q648.4375 615.9469 648.6875 614.8688Q648.9375 613.775 649.0625 612.79065Q649.1875 611.8063 649.1875 610.79065Q649.1875 608.6969 648.7344 606.8375Q648.2969 604.9625 647.09375 602.29065L648.7656 602.29065Q650.09375 604.1813 650.8281 606.3063Q651.5625 608.41565 651.5625 610.60315Q651.5625 612.4313 650.9844 614.54065Q650.3281 616.9 648.8125 619.1813L647.1094 619.1813Z" fill-rule="nonzero"/></svg>