<svg version="1.1" viewBox="0.0 0.0 782.0 569.0" fill="none" stroke="none" stroke-linecap="square" stroke-miterlimit="10" width="782" height="569" xmlns:xlink="http://www.w3.org/1999/xlink" xmlns="http://www.w3.org/2000/svg"><path fill="#ffffff" fill-opacity="0.0" d="M0 0L782.0 0L782.0 569.0L0 569.0L0 0Z" fill-rule="nonzero"/><path fill="#47a8bd" d="M391.0 28.45C462.90543 28.45 530.2971 63.50021 571.584 122.371155C612.8708 181.2421 622.8694 256.54276 598.3763 324.14807L391.0 249.01666Z" fill-rule="nonzero"/><path fill="#f5e663" d="M598.3763 324.14807C591.3341 343.58575 581.59406 361.93683 569.4422 378.6625L391.0 249.01666Z" fill-rule="nonzero"/><path fill="#ffad69" d="M569.4422 378.6625C527.9419 435.78275 461.6045 469.58334 391.0 469.58334L391.0 249.01666Z" fill-rule="nonzero"/><path fill="#f0ff9b" d="M207.83809 126.12904C248.79793 65.0791 317.48264 28.45 391.0 28.45L391.0 249.01666Z" fill-rule="nonzero"/><path fill="#9c3848" d="M391.0 469.58334C309.53964 469.58334 234.71118 424.6847 196.37914 352.8067C158.04707 280.9287 162.45285 193.77498 207.83809 126.12904L391.0 249.01666Z" fill-rule="nonzero"/><path fill="#000000" d="M495.7892 158.77063L497.9142 158.52063Q498.00797 159.33313 498.44547 159.77063Q498.8986 160.1925 499.5392 160.1925Q500.2111 160.1925 500.67984 159.67688Q501.1486 159.16125 501.1486 158.28625Q501.1486 157.45813 500.69547 156.97375Q500.25797 156.48938 499.61734 156.48938Q499.19547 156.48938 498.6017 156.64563L498.8517 154.86438Q499.74234 154.88 500.2111 154.47375Q500.67984 154.0675 500.67984 153.38Q500.67984 152.80188 500.3361 152.45813Q499.99234 152.11438 499.4142 152.11438Q498.8517 152.11438 498.44547 152.505Q498.05484 152.89563 497.9767 153.64563L495.94547 153.30188Q496.1642 152.27063 496.5861 151.64563Q497.00797 151.02063 497.7736 150.67688Q498.5392 150.3175 499.4767 150.3175Q501.1017 150.3175 502.07047 151.34875Q502.88297 152.1925 502.88297 153.255Q502.88297 154.755 501.2267 155.66125Q502.2111 155.86438 502.80484 156.59875Q503.3986 157.33313 503.3986 158.38Q503.3986 159.88 502.2892 160.95813Q501.19547 162.02063 499.55484 162.02063Q497.99234 162.02063 496.9611 161.13Q495.94547 160.22375 495.7892 158.77063ZM508.57047 150.3175Q510.24234 150.3175 511.17984 151.505Q512.2892 152.91125 512.2892 156.16125Q512.2892 159.41125 511.1642 160.83313Q510.24234 162.02063 508.57047 162.02063Q506.8986 162.02063 505.86734 160.73938Q504.8517 159.4425 504.8517 156.14563Q504.8517 152.91125 505.9767 151.48938Q506.9142 150.3175 508.57047 150.3175ZM508.57047 152.13Q508.17984 152.13 507.86734 152.39563Q507.55484 152.64563 507.38297 153.30188Q507.1486 154.14563 507.1486 156.16125Q507.1486 158.17688 507.3517 158.9425Q507.55484 159.6925 507.86734 159.9425Q508.17984 160.1925 508.57047 160.1925Q508.9767 160.1925 509.2892 159.9425Q509.6017 159.67688 509.7736 159.02063Q509.99234 158.17688 509.99234 156.16125Q509.99234 154.14563 509.7892 153.39563Q509.5861 152.64563 509.2736 152.39563Q508.9767 152.13 508.57047 152.13ZM514.33606 161.8175L514.33606 159.61438L516.52356 159.61438L516.52356 161.8175L514.33606 161.8175ZM517.89856 158.86438L520.08606 158.64563Q520.1798 159.38 520.63293 159.8175Q521.1017 160.255 521.69543 160.255Q522.38293 160.255 522.8517 159.6925Q523.33606 159.13 523.33606 158.005Q523.33606 156.95813 522.8673 156.42688Q522.39856 155.89563 521.63293 155.89563Q520.69543 155.89563 519.94543 156.73938L518.1642 156.47375L519.2892 150.52063L525.08606 150.52063L525.08606 152.5675L520.94543 152.5675L520.6017 154.52063Q521.33606 154.14563 522.1017 154.14563Q523.57043 154.14563 524.58606 155.20813Q525.6017 156.27063 525.6017 157.97375Q525.6017 159.38 524.77356 160.48938Q523.6642 162.02063 521.6798 162.02063Q520.08606 162.02063 519.08606 161.16125Q518.08606 160.30188 517.89856 158.86438ZM526.7892 158.77063L528.9142 158.52063Q529.00793 159.33313 529.44543 159.77063Q529.89856 160.1925 530.5392 160.1925Q531.21106 160.1925 531.6798 159.67688Q532.14856 159.16125 532.14856 158.28625Q532.14856 157.45813 531.69543 156.97375Q531.25793 156.48938 530.6173 156.48938Q530.19543 156.48938 529.6017 156.64563L529.8517 154.86438Q530.7423 154.88 531.21106 154.47375Q531.6798 154.0675 531.6798 153.38Q531.6798 152.80188 531.33606 152.45813Q530.9923 152.11438 530.4142 152.11438Q529.8517 152.11438 529.44543 152.505Q529.0548 152.89563 528.9767 153.64563L526.94543 153.30188Q527.1642 152.27063 527.58606 151.64563Q528.00793 151.02063 528.77356 150.67688Q529.5392 150.3175 530.4767 150.3175Q532.1017 150.3175 533.07043 151.34875Q533.88293 152.1925 533.88293 153.255Q533.88293 154.755 532.2267 155.66125Q533.21106 155.86438 533.8048 156.59875Q534.39856 157.33313 534.39856 158.38Q534.39856 159.88 533.2892 160.95813Q532.19543 162.02063 530.5548 162.02063Q528.9923 162.02063 527.96106 161.13Q526.94543 160.22375 526.7892 158.77063ZM535.88293 153.1925Q535.88293 151.64563 536.5548 150.91125Q537.2267 150.16125 538.38293 150.16125Q539.58606 150.16125 540.25793 150.91125Q540.9298 151.64563 540.9298 153.1925Q540.9298 154.72375 540.25793 155.47375Q539.58606 156.20813 538.4298 156.20813Q537.2267 156.20813 536.5548 155.47375Q535.88293 154.73938 535.88293 153.1925ZM537.58606 153.17688Q537.58606 154.28625 537.8517 154.67688Q538.0392 154.95813 538.38293 154.95813Q538.7423 154.95813 538.9298 154.67688Q539.1798 154.28625 539.1798 153.17688Q539.1798 152.05188 538.9298 151.67688Q538.7423 151.39563 538.38293 151.39563Q538.0392 151.39563 537.8517 151.67688Q537.58606 152.05188 537.58606 153.17688ZM540.0548 162.255L538.4298 162.255L544.5392 150.16125L546.1173 150.16125L540.0548 162.255ZM543.6017 159.23938Q543.6017 157.70813 544.27356 156.97375Q544.96106 156.22375 546.13293 156.22375Q547.3048 156.22375 547.9767 156.97375Q548.6642 157.70813 548.6642 159.23938Q548.6642 160.78625 547.9767 161.53625Q547.3048 162.28625 546.14856 162.28625Q544.96106 162.28625 544.27356 161.53625Q543.6017 160.78625 543.6017 159.23938ZM545.32043 159.23938Q545.32043 160.34875 545.57043 160.72375Q545.77356 161.02063 546.1173 161.02063Q546.46106 161.02063 546.64856 160.73938Q546.9142 160.34875 546.9142 159.23938Q546.9142 158.11438 546.6642 157.73938Q546.46106 157.45813 546.1173 157.45813Q545.75793 157.45813 545.57043 157.73938Q545.32043 158.11438 545.32043 159.23938Z" fill-rule="nonzero"/><path fill="#000000" d="M518.6132 332.07608L518.6132 329.76358L513.9257 329.76358L513.9257 327.8417L518.8945 320.57608L520.7382 320.57608L520.7382 327.8417L522.1601 327.8417L522.1601 329.76358L520.7382 329.76358L520.7382 332.07608L518.6132 332.07608ZM518.6132 327.8417L518.6132 323.91983L515.9882 327.8417L518.6132 327.8417ZM523.7851 332.07608L523.7851 329.87296L525.9726 329.87296L525.9726 332.07608L523.7851 332.07608ZM531.6132 332.07608L531.6132 329.76358L526.9257 329.76358L526.9257 327.8417L531.8945 320.57608L533.7382 320.57608L533.7382 327.8417L535.1601 327.8417L535.1601 329.76358L533.7382 329.76358L533.7382 332.07608L531.6132 332.07608ZM531.6132 327.8417L531.6132 323.91983L528.9882 327.8417L531.6132 327.8417ZM536.31635 322.81046L536.31635 320.7792L543.81635 320.7792L543.81635 322.37296Q542.8945 323.2792 541.9257 324.99796Q540.9726 326.70108 540.457 328.63858Q539.957 330.56046 539.9726 332.07608L537.8476 332.07608Q537.9101 329.70108 538.832 327.23233Q539.75385 324.76358 541.3007 322.81046L536.31635 322.81046ZM545.332 323.45108Q545.332 321.9042 546.00385 321.16983Q546.6757 320.41983 547.832 320.41983Q549.0351 320.41983 549.707 321.16983Q550.37885 321.9042 550.37885 323.45108Q550.37885 324.98233 549.707 325.73233Q549.0351 326.4667 547.87885 326.4667Q546.6757 326.4667 546.00385 325.73233Q545.332 324.99796 545.332 323.45108ZM547.0351 323.43546Q547.0351 324.54483 547.3007 324.93546Q547.4882 325.2167 547.832 325.2167Q548.19135 325.2167 548.37885 324.93546Q548.62885 324.54483 548.62885 323.43546Q548.62885 322.31046 548.37885 321.93546Q548.19135 321.6542 547.832 321.6542Q547.4882 321.6542 547.3007 321.93546Q547.0351 322.31046 547.0351 323.43546ZM549.50385 332.51358L547.87885 332.51358L553.9882 320.41983L555.56635 320.41983L549.50385 332.51358ZM553.0507 329.49796Q553.0507 327.9667 553.7226 327.23233Q554.4101 326.48233 555.582 326.48233Q556.75385 326.48233 557.4257 327.23233Q558.1132 327.9667 558.1132 329.49796Q558.1132 331.04483 557.4257 331.79483Q556.75385 332.54483 555.5976 332.54483Q554.4101 332.54483 553.7226 331.79483Q553.0507 331.04483 553.0507 329.49796ZM554.7695 329.49796Q554.7695 330.60733 555.0195 330.98233Q555.2226 331.2792 555.56635 331.2792Q555.9101 331.2792 556.0976 330.99796Q556.3632 330.60733 556.3632 329.49796Q556.3632 328.37296 556.1132 327.99796Q555.9101 327.7167 555.56635 327.7167Q555.207 327.7167 555.0195 327.99796Q554.7695 328.37296 554.7695 329.49796Z" fill-rule="nonzero"/><path fill="#000000" d="M445.4023 403.88202L443.2148 403.88202L443.2148 395.60077Q442.0117 396.72577 440.37106 397.27264L440.37106 395.27264Q441.23044 394.9914 442.23044 394.21014Q443.24606 393.4289 443.62106 392.38202L445.4023 392.38202L445.4023 403.88202ZM448.8242 400.9289L451.0117 400.71014Q451.10544 401.44452 451.55856 401.88202Q452.0273 402.31952 452.62106 402.31952Q453.30856 402.31952 453.7773 401.75702Q454.2617 401.19452 454.2617 400.06952Q454.2617 399.02264 453.79294 398.4914Q453.3242 397.96014 452.55856 397.96014Q451.62106 397.96014 450.87106 398.8039L449.0898 398.53827L450.2148 392.58514L456.0117 392.58514L456.0117 394.63202L451.87106 394.63202L451.5273 396.58514Q452.2617 396.21014 453.0273 396.21014Q454.49606 396.21014 455.5117 397.27264Q456.5273 398.33514 456.5273 400.03827Q456.5273 401.44452 455.6992 402.5539Q454.5898 404.08514 452.60544 404.08514Q451.0117 404.08514 450.0117 403.22577Q449.0117 402.3664 448.8242 400.9289ZM458.2617 403.88202L458.2617 401.6789L460.4492 401.6789L460.4492 403.88202L458.2617 403.88202ZM465.49606 392.38202Q467.16794 392.38202 468.10544 393.56952Q469.2148 394.97577 469.2148 398.22577Q469.2148 401.47577 468.0898 402.89764Q467.16794 404.08514 465.49606 404.08514Q463.8242 404.08514 462.79294 402.8039Q461.7773 401.50702 461.7773 398.21014Q461.7773 394.97577 462.9023 393.5539Q463.8398 392.38202 465.49606 392.38202ZM465.49606 394.19452Q465.10544 394.19452 464.79294 394.46014Q464.48044 394.71014 464.30856 395.3664Q464.0742 396.21014 464.0742 398.22577Q464.0742 400.2414 464.2773 401.00702Q464.48044 401.75702 464.79294 402.00702Q465.10544 402.25702 465.49606 402.25702Q465.9023 402.25702 466.2148 402.00702Q466.5273 401.7414 466.6992 401.08514Q466.91794 400.2414 466.91794 398.22577Q466.91794 396.21014 466.7148 395.46014Q466.5117 394.71014 466.1992 394.46014Q465.9023 394.19452 465.49606 394.19452ZM474.49606 392.38202Q476.16794 392.38202 477.10544 393.56952Q478.2148 394.97577 478.2148 398.22577Q478.2148 401.47577 477.0898 402.89764Q476.16794 404.08514 474.49606 404.08514Q472.8242 404.08514 471.79294 402.8039Q470.7773 401.50702 470.7773 398.21014Q470.7773 394.97577 471.9023 393.5539Q472.8398 392.38202 474.49606 392.38202ZM474.49606 394.19452Q474.10544 394.19452 473.79294 394.46014Q473.48044 394.71014 473.30856 395.3664Q473.0742 396.21014 473.0742 398.22577Q473.0742 400.2414 473.2773 401.00702Q473.48044 401.75702 473.79294 402.00702Q474.10544 402.25702 474.49606 402.25702Q474.9023 402.25702 475.2148 402.00702Q475.5273 401.7414 475.6992 401.08514Q475.91794 400.2414 475.91794 398.22577Q475.91794 396.21014 475.7148 395.46014Q475.5117 394.71014 475.1992 394.46014Q474.9023 394.19452 474.49606 394.19452ZM479.80856 395.25702Q479.80856 393.71014 480.48044 392.97577Q481.1523 392.22577 482.30856 392.22577Q483.5117 392.22577 484.18356 392.97577Q484.85544 393.71014 484.85544 395.25702Q484.85544 396.78827 484.18356 397.53827Q483.5117 398.27264 482.35544 398.27264Q481.1523 398.27264 480.48044 397.53827Q479.80856 396.8039 479.80856 395.25702ZM481.5117 395.2414Q481.5117 396.35077 481.7773 396.7414Q481.9648 397.02264 482.30856 397.02264Q482.66794 397.02264 482.85544 396.7414Q483.10544 396.35077 483.10544 395.2414Q483.10544 394.1164 482.85544 393.7414Q482.66794 393.46014 482.30856 393.46014Q481.9648 393.46014 481.7773 393.7414Q481.5117 394.1164 481.5117 395.2414ZM483.98044 404.31952L482.35544 404.31952L488.4648 392.22577L490.04294 392.22577L483.98044 404.31952ZM487.5273 401.3039Q487.5273 399.77264 488.1992 399.03827Q488.8867 398.28827 490.05856 398.28827Q491.23044 398.28827 491.9023 399.03827Q492.5898 399.77264 492.5898 401.3039Q492.5898 402.85077 491.9023 403.60077Q491.23044 404.35077 490.0742 404.35077Q488.8867 404.35077 488.1992 403.60077Q487.5273 402.85077 487.5273 401.3039ZM489.24606 401.3039Q489.24606 402.41327 489.49606 402.78827Q489.6992 403.08514 490.04294 403.08514Q490.3867 403.08514 490.5742 402.8039Q490.8398 402.41327 490.8398 401.3039Q490.8398 400.1789 490.5898 399.8039Q490.3867 399.52264 490.04294 399.52264Q489.68356 399.52264 489.49606 399.8039Q489.24606 400.1789 489.24606 401.3039Z" fill-rule="nonzero"/><path fill="#000000" d="M221.10063 327.46878L223.22563 327.21878Q223.31938 328.03128 223.75688 328.46878Q224.21 328.89066 224.85063 328.89066Q225.5225 328.89066 225.99126 328.37503Q226.46 327.8594 226.46 326.9844Q226.46 326.15628 226.00688 325.6719Q225.56938 325.18753 224.92876 325.18753Q224.50688 325.18753 223.91313 325.34378L224.16313 323.56253Q225.05376 323.57816 225.5225 323.1719Q225.99126 322.76566 225.99126 322.07816Q225.99126 321.50003 225.6475 321.15628Q225.30376 320.81253 224.72563 320.81253Q224.16313 320.81253 223.75688 321.20316Q223.36626 321.59378 223.28813 322.34378L221.25688 322.00003Q221.47563 320.96878 221.8975 320.34378Q222.31938 319.71878 223.085 319.37503Q223.85063 319.01566 224.78813 319.01566Q226.41313 319.01566 227.38188 320.0469Q228.19438 320.89066 228.19438 321.95316Q228.19438 323.45316 226.53813 324.3594Q227.5225 324.56253 228.11626 325.2969Q228.71 326.03128 228.71 327.07816Q228.71 328.57816 227.60063 329.65628Q226.50688 330.71878 224.86626 330.71878Q223.30376 330.71878 222.2725 329.82816Q221.25688 328.9219 221.10063 327.46878ZM234.47563 330.51566L234.47563 328.20316L229.78813 328.20316L229.78813 326.28128L234.75688 319.01566L236.60063 319.01566L236.60063 326.28128L238.0225 326.28128L238.0225 328.20316L236.60063 328.20316L236.60063 330.51566L234.47563 330.51566ZM234.47563 326.28128L234.47563 322.3594L231.85063 326.28128L234.47563 326.28128ZM239.6475 330.51566L239.6475 328.31253L241.835 328.31253L241.835 330.51566L239.6475 330.51566ZM247.47563 330.51566L247.47563 328.20316L242.78813 328.20316L242.78813 326.28128L247.75688 319.01566L249.60063 319.01566L249.60063 326.28128L251.0225 326.28128L251.0225 328.20316L249.60063 328.20316L249.60063 330.51566L247.47563 330.51566ZM247.47563 326.28128L247.47563 322.3594L244.85063 326.28128L247.47563 326.28128ZM257.78815 330.51566L255.60063 330.51566L255.60063 322.2344Q254.3975 323.3594 252.75688 323.90628L252.75688 321.90628Q253.61626 321.62503 254.61626 320.84378Q255.63188 320.06253 256.0069 319.01566L257.78815 319.01566L257.78815 330.51566ZM261.1944 321.89066Q261.1944 320.34378 261.86627 319.6094Q262.53815 318.8594 263.6944 318.8594Q264.89752 318.8594 265.5694 319.6094Q266.24127 320.34378 266.24127 321.89066Q266.24127 323.4219 265.5694 324.1719Q264.89752 324.90628 263.74127 324.90628Q262.53815 324.90628 261.86627 324.1719Q261.1944 323.43753 261.1944 321.89066ZM262.89752 321.87503Q262.89752 322.9844 263.16315 323.37503Q263.35065 323.65628 263.6944 323.65628Q264.05377 323.65628 264.24127 323.37503Q264.49127 322.9844 264.49127 321.87503Q264.49127 320.75003 264.24127 320.37503Q264.05377 320.09378 263.6944 320.09378Q263.35065 320.09378 263.16315 320.37503Q262.89752 320.75003 262.89752 321.87503ZM265.36627 330.95316L263.74127 330.95316L269.85065 318.8594L271.42877 318.8594L265.36627 330.95316ZM268.91315 327.93753Q268.91315 326.40628 269.58502 325.6719Q270.27252 324.9219 271.4444 324.9219Q272.61627 324.9219 273.28815 325.6719Q273.97565 326.40628 273.97565 327.93753Q273.97565 329.4844 273.28815 330.2344Q272.61627 330.9844 271.46002 330.9844Q270.27252 330.9844 269.58502 330.2344Q268.91315 329.4844 268.91315 327.93753ZM270.6319 327.93753Q270.6319 329.0469 270.8819 329.4219Q271.08502 329.71878 271.42877 329.71878Q271.77252 329.71878 271.96002 329.43753Q272.22565 329.0469 272.22565 327.93753Q272.22565 326.81253 271.97565 326.43753Q271.77252 326.15628 271.42877 326.15628Q271.0694 326.15628 270.8819 326.43753Q270.6319 326.81253 270.6319 327.93753Z" fill-rule="nonzero"/><path fill="#000000" d="M290.61438 106.97593L288.42688 106.97593L288.42688 98.69468Q287.22375 99.81968 285.58313 100.366554L285.58313 98.366554Q286.4425 98.085304 287.4425 97.304054Q288.45813 96.522804 288.83313 95.47593L290.61438 95.47593L290.61438 106.97593ZM294.03625 104.022804L296.22375 103.804054Q296.3175 104.53843 296.77063 104.97593Q297.23938 105.41343 297.83313 105.41343Q298.52063 105.41343 298.98938 104.85093Q299.47375 104.28843 299.47375 103.16343Q299.47375 102.116554 299.005 101.585304Q298.53625 101.054054 297.77063 101.054054Q296.83313 101.054054 296.08313 101.897804L294.30188 101.63218L295.42688 95.679054L301.22375 95.679054L301.22375 97.72593L297.08313 97.72593L296.73938 99.679054Q297.47375 99.304054 298.23938 99.304054Q299.70813 99.304054 300.72375 100.366554Q301.73938 101.429054 301.73938 103.13218Q301.73938 104.53843 300.91125 105.647804Q299.80188 107.179054 297.8175 107.179054Q296.22375 107.179054 295.22375 106.31968Q294.22375 105.460304 294.03625 104.022804ZM303.47375 106.97593L303.47375 104.772804L305.66125 104.772804L305.66125 106.97593L303.47375 106.97593ZM307.03625 104.022804L309.22375 103.804054Q309.3175 104.53843 309.77063 104.97593Q310.23938 105.41343 310.83313 105.41343Q311.52063 105.41343 311.98938 104.85093Q312.47375 104.28843 312.47375 103.16343Q312.47375 102.116554 312.005 101.585304Q311.53625 101.054054 310.77063 101.054054Q309.83313 101.054054 309.08313 101.897804L307.30188 101.63218L308.42688 95.679054L314.22375 95.679054L314.22375 97.72593L310.08313 97.72593L309.73938 99.679054Q310.47375 99.304054 311.23938 99.304054Q312.70813 99.304054 313.72375 100.366554Q314.73938 101.429054 314.73938 103.13218Q314.73938 104.53843 313.91125 105.647804Q312.80188 107.179054 310.8175 107.179054Q309.22375 107.179054 308.22375 106.31968Q307.22375 105.460304 307.03625 104.022804ZM316.05188 104.31968L318.17688 104.085304Q318.255 104.741554 318.58313 105.054054Q318.91125 105.366554 319.4425 105.366554Q320.13 105.366554 320.59875 104.741554Q321.08313 104.116554 321.20813 102.147804Q320.38 103.10093 319.14563 103.10093Q317.78625 103.10093 316.80188 102.06968Q315.83313 101.022804 315.83313 99.35093Q315.83313 97.60093 316.86438 96.53843Q317.89563 95.47593 319.505 95.47593Q321.23938 95.47593 322.34875 96.81968Q323.47375 98.16343 323.47375 101.25718Q323.47375 104.397804 322.30188 105.78843Q321.14563 107.179054 319.28625 107.179054Q317.9425 107.179054 317.11438 106.460304Q316.28625 105.741554 316.05188 104.31968ZM321.02063 99.522804Q321.02063 98.460304 320.52063 97.88218Q320.03625 97.28843 319.39563 97.28843Q318.78625 97.28843 318.38 97.772804Q317.98938 98.25718 317.98938 99.35093Q317.98938 100.460304 318.42688 100.97593Q318.86438 101.491554 319.52063 101.491554Q320.14563 101.491554 320.58313 100.991554Q321.02063 100.491554 321.02063 99.522804ZM325.02063 98.35093Q325.02063 96.804054 325.6925 96.06968Q326.36438 95.31968 327.52063 95.31968Q328.72375 95.31968 329.39563 96.06968Q330.0675 96.804054 330.0675 98.35093Q330.0675 99.88218 329.39563 100.63218Q328.72375 101.366554 327.5675 101.366554Q326.36438 101.366554 325.6925 100.63218Q325.02063 99.897804 325.02063 98.35093ZM326.72375 98.335304Q326.72375 99.44468 326.98938 99.835304Q327.17688 100.116554 327.52063 100.116554Q327.88 100.116554 328.0675 99.835304Q328.3175 99.44468 328.3175 98.335304Q328.3175 97.210304 328.0675 96.835304Q327.88 96.554054 327.52063 96.554054Q327.17688 96.554054 326.98938 96.835304Q326.72375 97.210304 326.72375 98.335304ZM329.1925 107.41343L327.5675 107.41343L333.67688 95.31968L335.255 95.31968L329.1925 107.41343ZM332.73938 104.397804Q332.73938 102.866554 333.41125 102.13218Q334.09875 101.38218 335.27063 101.38218Q336.4425 101.38218 337.11438 102.13218Q337.80188 102.866554 337.80188 104.397804Q337.80188 105.94468 337.11438 106.69468Q336.4425 107.44468 335.28625 107.44468Q334.09875 107.44468 333.41125 106.69468Q332.73938 105.94468 332.73938 104.397804ZM334.45813 104.397804Q334.45813 105.50718 334.70813 105.88218Q334.91125 106.179054 335.255 106.179054Q335.59875 106.179054 335.78625 105.897804Q336.05188 105.50718 336.05188 104.397804Q336.05188 103.272804 335.80188 102.897804Q335.59875 102.616554 335.255 102.616554Q334.89563 102.616554 334.70813 102.897804Q334.45813 103.272804 334.45813 104.397804Z" fill-rule="nonzero"/><path stroke="#000000" stroke-width="1.0" stroke-linejoin="round" stroke-linecap="round" d="M391.0 249.01666L391.0 28.45C462.90543 28.45 530.2971 63.50021 571.584 122.371155C612.8708 181.2421 622.8694 256.54276 598.3763 324.14807" fill-rule="nonzero"/><path stroke="#000000" stroke-width="1.0" stroke-linejoin="round" stroke-linecap="round" d="M391.0 249.01666L598.3763 324.14807C591.3341 343.58575 581.59406 361.93683 569.4422 378.6625" fill-rule="nonzero"/><path stroke="#000000" stroke-width="1.0" stroke-linejoin="round" stroke-linecap="round" d="M391.0 249.01666L569.4422 378.6625C527.9419 435.78275 461.6045 469.58334 391.0 469.58334" fill-rule="nonzero"/><path stroke="#000000" stroke-width="1.0" stroke-linejoin="round" stroke-linecap="round" d="M391.0 249.01666L391.0 469.58334C309.53964 469.58334 234.71118 424.6847 196.37914 352.8067C158.04707 280.9287 162.45285 193.77498 207.83809 126.12904" fill-rule="nonzero"/><path stroke="#000000" stroke-width="1.0" stroke-linejoin="round" stroke-linecap="round" d="M391.0 249.01666L207.83809 126.12904C248.79793 65.0791 317.48264 28.45 391.0 28.45" fill-rule="nonzero"/><path fill="#47a8bd" d="M146.5 500.55C146.5 503.8637 143.8137 506.55 140.5 506.55C137.1863 506.55 134.5 503.8637 134.5 500.55C134.5 497.2363 137.1863 494.55 140.5 494.55C143.8137 494.55 146.5 497.2363 146.5 500.55Z" fill-rule="nonzero"/><path fill="#232832" d="M155.96875 507.55L155.96875 493.2375L165.79688 493.2375L165.79688 495.65936L158.85938 495.65936L158.85938 499.05L164.84375 499.05L164.84375 501.47186L158.85938 501.47186L158.85938 507.55L155.96875 507.55ZM171.17188 507.55L171.17188 495.65936L166.9375 495.65936L166.9375 493.2375L178.3125 493.2375L178.3125 495.65936L174.0625 495.65936L174.0625 507.55L171.17188 507.55ZM181.03125 507.55L181.03125 493.34686L183.92188 493.34686L183.92188 505.14374L191.10938 505.14374L191.10938 507.55L181.03125 507.55ZM199.03125 507.55L199.03125 493.34686L201.92188 493.34686L201.92188 505.14374L209.10938 505.14374L209.10938 507.55L199.03125 507.55ZM212.98438 500.34686L210.5 499.89374Q210.92188 498.39374 211.9375 497.675Q212.96875 496.9406 214.98438 496.9406Q216.82812 496.9406 217.71875 497.3781Q218.625 497.8156 218.98438 498.4875Q219.35938 499.14374 219.35938 500.9406L219.32812 504.14374Q219.32812 505.5031 219.45312 506.15936Q219.59375 506.8 219.95312 507.55L217.23438 507.55Q217.125 507.26874 216.96875 506.7375Q216.90625 506.4875 216.875 506.40936Q216.17188 507.09686 215.35938 507.4406Q214.5625 507.78436 213.65625 507.78436Q212.0625 507.78436 211.14062 506.925Q210.21875 506.05 210.21875 504.72186Q210.21875 503.83124 210.625 503.14374Q211.04688 502.45624 211.79688 502.09686Q212.5625 501.72186 214.0 501.45624Q215.92188 501.09686 216.65625 500.78436L216.65625 500.5031Q216.65625 499.72186 216.26562 499.39374Q215.875 499.05 214.79688 499.05Q214.0625 499.05 213.64062 499.33124Q213.23438 499.6125 212.98438 500.34686ZM216.65625 502.5656Q216.125 502.7375 214.98438 502.9875Q213.84375 503.2375 213.5 503.47186Q212.95312 503.84686 212.95312 504.4406Q212.95312 505.0031 213.375 505.425Q213.8125 505.84686 214.48438 505.84686Q215.21875 505.84686 215.89062 505.3625Q216.39062 504.9875 216.54688 504.45624Q216.65625 504.09686 216.65625 503.1125L216.65625 502.5656ZM221.8125 507.55L221.8125 493.2375L224.5625 493.2375L224.5625 498.39374Q225.82812 496.9406 227.57812 496.9406Q229.46875 496.9406 230.70312 498.3156Q231.95312 499.6906 231.95312 502.2531Q231.95312 504.90936 230.6875 506.34686Q229.42188 507.78436 227.60938 507.78436Q226.71875 507.78436 225.85938 507.34686Q225.0 506.89374 224.375 506.01874L224.375 507.55L221.8125 507.55ZM224.54688 502.14374Q224.54688 503.7531 225.04688 504.51874Q225.76562 505.6125 226.95312 505.6125Q227.85938 505.6125 228.5 504.84686Q229.14062 504.0656 229.14062 502.39374Q229.14062 500.6125 228.48438 499.83124Q227.84375 499.05 226.84375 499.05Q225.85938 499.05 225.20312 499.8156Q224.54688 500.58124 224.54688 502.14374ZM232.96875 504.59686L235.71875 504.175Q235.90625 504.97186 236.4375 505.39374Q236.96875 505.8 237.9375 505.8Q239.0 505.8 239.54688 505.40936Q239.90625 505.14374 239.90625 504.675Q239.90625 504.3625 239.70312 504.15936Q239.5 503.97186 238.79688 503.8Q235.46875 503.0656 234.57812 502.45624Q233.34375 501.6281 233.34375 500.1281Q233.34375 498.78436 234.40625 497.8625Q235.48438 496.9406 237.71875 496.9406Q239.84375 496.9406 240.875 497.64374Q241.92188 498.33124 242.3125 499.6906L239.71875 500.15936Q239.54688 499.5656 239.07812 499.2375Q238.625 498.90936 237.76562 498.90936Q236.6875 498.90936 236.21875 499.22186Q235.90625 499.4406 235.90625 499.76874Q235.90625 500.0656 236.17188 500.26874Q236.54688 500.55 238.73438 501.05Q240.92188 501.55 241.79688 502.26874Q242.65625 503.0031 242.65625 504.3Q242.65625 505.7375 241.46875 506.76874Q240.28125 507.78436 237.9375 507.78436Q235.82812 507.78436 234.57812 506.925Q233.34375 506.0656 232.96875 504.59686ZM250.625 503.7375L250.625 500.9875L256.01562 500.9875L256.01562 503.7375L250.625 503.7375ZM266.17188 507.55L266.17188 495.65936L261.9375 495.65936L261.9375 493.2375L273.3125 493.2375L273.3125 495.65936L269.0625 495.65936L269.0625 507.55L266.17188 507.55ZM281.9375 504.2531L284.67188 504.70624Q284.15625 506.20624 283.01562 507.0031Q281.875 507.78436 280.17188 507.78436Q277.45312 507.78436 276.15625 506.01874Q275.14062 504.59686 275.14062 502.4406Q275.14062 499.8625 276.48438 498.40936Q277.82812 496.9406 279.89062 496.9406Q282.20312 496.9406 283.53125 498.47186Q284.875 500.0031 284.82812 503.15936L277.95312 503.15936Q277.98438 504.3781 278.60938 505.0656Q279.25 505.7375 280.1875 505.7375Q280.84375 505.7375 281.28125 505.39374Q281.71875 505.03436 281.9375 504.2531ZM282.09375 501.47186Q282.0625 500.28436 281.46875 499.675Q280.89062 499.05 280.0625 499.05Q279.15625 499.05 278.57812 499.6906Q277.98438 500.34686 278.0 501.47186L282.09375 501.47186ZM288.98438 500.34686L286.5 499.89374Q286.92188 498.39374 287.9375 497.675Q288.96875 496.9406 290.98438 496.9406Q292.82812 496.9406 293.71875 497.3781Q294.625 497.8156 294.98438 498.4875Q295.35938 499.14374 295.35938 500.9406L295.32812 504.14374Q295.32812 505.5031 295.45312 506.15936Q295.59375 506.8 295.95312 507.55L293.23438 507.55Q293.125 507.26874 292.96875 506.7375Q292.90625 506.4875 292.875 506.40936Q292.17188 507.09686 291.35938 507.4406Q290.5625 507.78436 289.65625 507.78436Q288.0625 507.78436 287.14062 506.925Q286.21875 506.05 286.21875 504.72186Q286.21875 503.83124 286.625 503.14374Q287.04688 502.45624 287.79688 502.09686Q288.5625 501.72186 290.0 501.45624Q291.92188 501.09686 292.65625 500.78436L292.65625 500.5031Q292.65625 499.72186 292.26562 499.39374Q291.875 499.05 290.79688 499.05Q290.0625 499.05 289.64062 499.33124Q289.23438 499.6125 288.98438 500.34686ZM292.65625 502.5656Q292.125 502.7375 290.98438 502.9875Q289.84375 503.2375 289.5 503.47186Q288.95312 503.84686 288.95312 504.4406Q288.95312 505.0031 289.375 505.425Q289.8125 505.84686 290.48438 505.84686Q291.21875 505.84686 291.89062 505.3625Q292.39062 504.9875 292.54688 504.45624Q292.65625 504.09686 292.65625 503.1125L292.65625 502.5656ZM297.73438 497.175L300.26562 497.175L300.26562 498.59686Q301.625 496.9406 303.5 496.9406Q304.48438 496.9406 305.21875 497.3625Q305.95312 497.76874 306.42188 498.59686Q307.10938 497.76874 307.89062 497.3625Q308.6875 496.9406 309.59375 496.9406Q310.73438 496.9406 311.51562 497.40936Q312.3125 497.8781 312.70312 498.76874Q312.98438 499.4406 312.98438 500.925L312.98438 507.55L310.23438 507.55L310.23438 501.6281Q310.23438 500.08124 309.95312 499.6281Q309.57812 499.05 308.78125 499.05Q308.20312 499.05 307.6875 499.40936Q307.1875 499.7531 306.96875 500.425Q306.75 501.09686 306.75 502.5656L306.75 507.55L304.0 507.55L304.0 501.8625Q304.0 500.34686 303.84375 499.90936Q303.70312 499.47186 303.39062 499.26874Q303.09375 499.05 302.5625 499.05Q301.9375 499.05 301.42188 499.39374Q300.92188 499.72186 300.6875 500.3781Q300.46875 501.01874 300.46875 502.5031L300.46875 507.55L297.73438 507.55L297.73438 497.175ZM333.625 505.8L331.96875 507.925Q330.73438 507.33124 329.625 506.28436Q328.75 507.0656 327.76562 507.4406Q326.79688 507.8 325.45312 507.8Q322.76562 507.8 321.42188 506.3Q320.375 505.14374 320.375 503.6281Q320.375 502.2531 321.1875 501.15936Q322.01562 500.05 323.65625 499.2375Q322.92188 498.3625 322.54688 497.58124Q322.17188 496.8 322.17188 496.09686Q322.17188 494.8 323.20312 493.89374Q324.25 492.9875 326.1875 492.9875Q328.03125 492.9875 329.07812 493.9406Q330.125 494.8781 330.125 496.2531Q330.125 497.1125 329.60938 497.89374Q329.09375 498.675 327.51562 499.675L329.51562 502.3Q329.85938 501.675 330.10938 500.65936L332.59375 501.2375Q332.21875 502.55 331.9375 503.15936Q331.67188 503.76874 331.35938 504.175Q331.82812 504.6125 332.54688 505.1281Q333.28125 505.6281 333.625 505.8ZM326.15625 498.01874L326.89062 497.45624Q327.71875 496.8156 327.71875 496.1906Q327.71875 495.65936 327.3125 495.3Q326.92188 494.925 326.25 494.925Q325.59375 494.925 325.21875 495.2531Q324.85938 495.58124 324.85938 496.0031Q324.85938 496.51874 325.48438 497.2375L326.15625 498.01874ZM325.07812 501.0031Q324.125 501.47186 323.65625 502.14374Q323.1875 502.8156 323.1875 503.51874Q323.1875 504.40936 323.76562 504.97186Q324.35938 505.53436 325.32812 505.53436Q325.96875 505.53436 326.5625 505.28436Q327.17188 505.03436 327.875 504.4406L325.07812 501.0031ZM340.96875 507.55L340.96875 493.2375L347.04688 493.2375Q349.34375 493.2375 350.375 493.6281Q351.42188 494.0031 352.04688 494.9875Q352.67188 495.97186 352.67188 497.2531Q352.67188 498.8625 351.71875 499.90936Q350.78125 500.95624 348.89062 501.2375Q349.82812 501.78436 350.4375 502.4406Q351.04688 503.08124 352.09375 504.7531L353.84375 507.55L350.375 507.55L348.29688 504.4406Q347.17188 502.76874 346.76562 502.33124Q346.35938 501.89374 345.89062 501.7375Q345.4375 501.5656 344.4375 501.5656L343.85938 501.5656L343.85938 507.55L340.96875 507.55ZM343.85938 499.28436L346.0 499.28436Q348.07812 499.28436 348.59375 499.1125Q349.10938 498.9406 349.40625 498.51874Q349.70312 498.08124 349.70312 497.425Q349.70312 496.70624 349.3125 496.26874Q348.92188 495.8156 348.21875 495.70624Q347.875 495.65936 346.10938 495.65936L343.85938 495.65936L343.85938 499.28436ZM360.9375 504.2531L363.67188 504.70624Q363.15625 506.20624 362.01562 507.0031Q360.875 507.78436 359.17188 507.78436Q356.45312 507.78436 355.15625 506.01874Q354.14062 504.59686 354.14062 502.4406Q354.14062 499.8625 355.48438 498.40936Q356.82812 496.9406 358.89062 496.9406Q361.20312 496.9406 362.53125 498.47186Q363.875 500.0031 363.82812 503.15936L356.95312 503.15936Q356.98438 504.3781 357.60938 505.0656Q358.25 505.7375 359.1875 505.7375Q359.84375 505.7375 360.28125 505.39374Q360.71875 505.03436 360.9375 504.2531ZM361.09375 501.47186Q361.0625 500.28436 360.46875 499.675Q359.89062 499.05 359.0625 499.05Q358.15625 499.05 357.57812 499.6906Q356.98438 500.34686 357.0 501.47186L361.09375 501.47186ZM364.96875 504.59686L367.71875 504.175Q367.90625 504.97186 368.4375 505.39374Q368.96875 505.8 369.9375 505.8Q371.0 505.8 371.54688 505.40936Q371.90625 505.14374 371.90625 504.675Q371.90625 504.3625 371.70312 504.15936Q371.5 503.97186 370.79688 503.8Q367.46875 503.0656 366.57812 502.45624Q365.34375 501.6281 365.34375 500.1281Q365.34375 498.78436 366.40625 497.8625Q367.48438 496.9406 369.71875 496.9406Q371.84375 496.9406 372.875 497.64374Q373.92188 498.33124 374.3125 499.6906L371.71875 500.15936Q371.54688 499.5656 371.07812 499.2375Q370.625 498.90936 369.76562 498.90936Q368.6875 498.90936 368.21875 499.22186Q367.90625 499.4406 367.90625 499.76874Q367.90625 500.0656 368.17188 500.26874Q368.54688 500.55 370.73438 501.05Q372.92188 501.55 373.79688 502.26874Q374.65625 503.0031 374.65625 504.3Q374.65625 505.7375 373.46875 506.76874Q372.28125 507.78436 369.9375 507.78436Q367.82812 507.78436 366.57812 506.925Q365.34375 506.0656 364.96875 504.59686ZM382.9375 504.2531L385.67188 504.70624Q385.15625 506.20624 384.01562 507.0031Q382.875 507.78436 381.17188 507.78436Q378.45312 507.78436 377.15625 506.01874Q376.14062 504.59686 376.14062 502.4406Q376.14062 499.8625 377.48438 498.40936Q378.82812 496.9406 380.89062 496.9406Q383.20312 496.9406 384.53125 498.47186Q385.875 500.0031 385.82812 503.15936L378.95312 503.15936Q378.98438 504.3781 379.60938 505.0656Q380.25 505.7375 381.1875 505.7375Q381.84375 505.7375 382.28125 505.39374Q382.71875 505.03436 382.9375 504.2531ZM383.09375 501.47186Q383.0625 500.28436 382.46875 499.675Q381.89062 499.05 381.0625 499.05Q380.15625 499.05 379.57812 499.6906Q378.98438 500.34686 379.0 501.47186L383.09375 501.47186ZM390.5625 507.55L387.8125 507.55L387.8125 497.175L390.375 497.175L390.375 498.65936Q391.01562 497.6125 391.53125 497.28436Q392.0625 496.9406 392.73438 496.9406Q393.67188 496.9406 394.53125 497.45624L393.6875 499.84686Q393.0 499.40936 392.40625 499.40936Q391.82812 499.40936 391.42188 499.72186Q391.01562 500.03436 390.78125 500.8781Q390.5625 501.70624 390.5625 504.34686L390.5625 507.55ZM398.78125 507.55L394.60938 497.175L397.48438 497.175L399.4375 502.47186L400.01562 504.2375Q400.23438 503.5656 400.29688 503.34686Q400.42188 502.90936 400.57812 502.47186L402.5625 497.175L405.375 497.175L401.26562 507.55L398.78125 507.55ZM412.9375 504.2531L415.67188 504.70624Q415.15625 506.20624 414.01562 507.0031Q412.875 507.78436 411.17188 507.78436Q408.45312 507.78436 407.15625 506.01874Q406.14062 504.59686 406.14062 502.4406Q406.14062 499.8625 407.48438 498.40936Q408.82812 496.9406 410.89062 496.9406Q413.20312 496.9406 414.53125 498.47186Q415.875 500.0031 415.82812 503.15936L408.95312 503.15936Q408.98438 504.3781 409.60938 505.0656Q410.25 505.7375 411.1875 505.7375Q411.84375 505.7375 412.28125 505.39374Q412.71875 505.03436 412.9375 504.2531ZM413.09375 501.47186Q413.0625 500.28436 412.46875 499.675Q411.89062 499.05 411.0625 499.05Q410.15625 499.05 409.57812 499.6906Q408.98438 500.34686 409.0 501.47186L413.09375 501.47186Z" fill-rule="nonzero"/><path fill="#f5e663" d="M444.5 500.55C444.5 503.8637 441.81372 506.55 438.5 506.55C435.18628 506.55 432.5 503.8637 432.5 500.55C432.5 497.2363 435.18628 494.55 438.5 494.55C441.81372 494.55 444.5 497.2363 444.5 500.55Z" fill-rule="nonzero"/><path fill="#232832" d="M453.96875 507.55L453.96875 493.2375L463.79688 493.2375L463.79688 495.65936L456.85938 495.65936L456.85938 499.05L462.84375 499.05L462.84375 501.47186L456.85938 501.47186L456.85938 507.55L453.96875 507.55ZM469.17188 507.55L469.17188 495.65936L464.9375 495.65936L464.9375 493.2375L476.3125 493.2375L476.3125 495.65936L472.0625 495.65936L472.0625 507.55L469.17188 507.55ZM479.03125 507.55L479.03125 493.34686L481.92188 493.34686L481.92188 505.14374L489.10938 505.14374L489.10938 507.55L479.03125 507.55ZM497.03125 507.55L497.03125 493.34686L499.92188 493.34686L499.92188 505.14374L507.10938 505.14374L507.10938 507.55L497.03125 507.55ZM510.98438 500.34686L508.5 499.89374Q508.92188 498.39374 509.9375 497.675Q510.96875 496.9406 512.9844 496.9406Q514.8281 496.9406 515.71875 497.3781Q516.625 497.8156 516.9844 498.4875Q517.3594 499.14374 517.3594 500.9406L517.3281 504.14374Q517.3281 505.5031 517.4531 506.15936Q517.59375 506.8 517.9531 507.55L515.2344 507.55Q515.125 507.26874 514.96875 506.7375Q514.90625 506.4875 514.875 506.40936Q514.1719 507.09686 513.3594 507.4406Q512.5625 507.78436 511.65625 507.78436Q510.0625 507.78436 509.14062 506.925Q508.21875 506.05 508.21875 504.72186Q508.21875 503.83124 508.625 503.14374Q509.04688 502.45624 509.79688 502.09686Q510.5625 501.72186 512.0 501.45624Q513.9219 501.09686 514.65625 500.78436L514.65625 500.5031Q514.65625 499.72186 514.2656 499.39374Q513.875 499.05 512.7969 499.05Q512.0625 499.05 511.64062 499.33124Q511.23438 499.6125 510.98438 500.34686ZM514.65625 502.5656Q514.125 502.7375 512.9844 502.9875Q511.84375 503.2375 511.5 503.47186Q510.95312 503.84686 510.95312 504.4406Q510.95312 505.0031 511.375 505.425Q511.8125 505.84686 512.4844 505.84686Q513.21875 505.84686 513.8906 505.3625Q514.3906 504.9875 514.5469 504.45624Q514.65625 504.09686 514.65625 503.1125L514.65625 502.5656ZM519.8125 507.55L519.8125 493.2375L522.5625 493.2375L522.5625 498.39374Q523.8281 496.9406 525.5781 496.9406Q527.46875 496.9406 528.7031 498.3156Q529.9531 499.6906 529.9531 502.2531Q529.9531 504.90936 528.6875 506.34686Q527.4219 507.78436 525.6094 507.78436Q524.71875 507.78436 523.8594 507.34686Q523.0 506.89374 522.375 506.01874L522.375 507.55L519.8125 507.55ZM522.5469 502.14374Q522.5469 503.7531 523.0469 504.51874Q523.7656 505.6125 524.9531 505.6125Q525.8594 505.6125 526.5 504.84686Q527.1406 504.0656 527.1406 502.39374Q527.1406 500.6125 526.4844 499.83124Q525.84375 499.05 524.84375 499.05Q523.8594 499.05 523.2031 499.8156Q522.5469 500.58124 522.5469 502.14374ZM530.96875 504.59686L533.71875 504.175Q533.90625 504.97186 534.4375 505.39374Q534.96875 505.8 535.9375 505.8Q537.0 505.8 537.5469 505.40936Q537.90625 505.14374 537.90625 504.675Q537.90625 504.3625 537.7031 504.15936Q537.5 503.97186 536.7969 503.8Q533.46875 503.0656 532.5781 502.45624Q531.34375 501.6281 531.34375 500.1281Q531.34375 498.78436 532.40625 497.8625Q533.4844 496.9406 535.71875 496.9406Q537.84375 496.9406 538.875 497.64374Q539.9219 498.33124 540.3125 499.6906L537.71875 500.15936Q537.5469 499.5656 537.0781 499.2375Q536.625 498.90936 535.7656 498.90936Q534.6875 498.90936 534.21875 499.22186Q533.90625 499.4406 533.90625 499.76874Q533.90625 500.0656 534.1719 500.26874Q534.5469 500.55 536.7344 501.05Q538.9219 501.55 539.7969 502.26874Q540.65625 503.0031 540.65625 504.3Q540.65625 505.7375 539.46875 506.76874Q538.28125 507.78436 535.9375 507.78436Q533.8281 507.78436 532.5781 506.925Q531.34375 506.0656 530.96875 504.59686ZM548.625 503.7375L548.625 500.9875L554.0156 500.9875L554.0156 503.7375L548.625 503.7375ZM560.875 507.55L560.875 493.2375L563.7656 493.2375L563.7656 507.55L560.875 507.55ZM575.375 507.55L572.625 507.55L572.625 502.2531Q572.625 500.58124 572.4531 500.09686Q572.28125 499.59686 571.875 499.33124Q571.4844 499.05 570.9219 499.05Q570.21875 499.05 569.6406 499.4406Q569.0781 499.83124 568.8594 500.47186Q568.65625 501.1125 568.65625 502.84686L568.65625 507.55L565.9219 507.55L565.9219 497.175L568.46875 497.175L568.46875 498.70624Q569.8281 496.9406 571.8906 496.9406Q572.7969 496.9406 573.5469 497.26874Q574.2969 497.59686 574.6719 498.1125Q575.0625 498.6125 575.21875 499.26874Q575.375 499.90936 575.375 501.09686L575.375 507.55ZM580.78125 507.55L576.6094 497.175L579.4844 497.175L581.4375 502.47186L582.0156 504.2375Q582.2344 503.5656 582.2969 503.34686Q582.4219 502.90936 582.5781 502.47186L584.5625 497.175L587.375 497.175L583.2656 507.55L580.78125 507.55ZM594.9375 504.2531L597.6719 504.70624Q597.15625 506.20624 596.0156 507.0031Q594.875 507.78436 593.1719 507.78436Q590.4531 507.78436 589.15625 506.01874Q588.1406 504.59686 588.1406 502.4406Q588.1406 499.8625 589.4844 498.40936Q590.8281 496.9406 592.8906 496.9406Q595.2031 496.9406 596.53125 498.47186Q597.875 500.0031 597.8281 503.15936L590.9531 503.15936Q590.9844 504.3781 591.6094 505.0656Q592.25 505.7375 593.1875 505.7375Q593.84375 505.7375 594.28125 505.39374Q594.71875 505.03436 594.9375 504.2531ZM595.09375 501.47186Q595.0625 500.28436 594.46875 499.675Q593.8906 499.05 593.0625 499.05Q592.15625 499.05 591.5781 499.6906Q590.9844 500.34686 591.0 501.47186L595.09375 501.47186ZM598.96875 504.59686L601.71875 504.175Q601.90625 504.97186 602.4375 505.39374Q602.96875 505.8 603.9375 505.8Q605.0 505.8 605.5469 505.40936Q605.90625 505.14374 605.90625 504.675Q605.90625 504.3625 605.7031 504.15936Q605.5 503.97186 604.7969 503.8Q601.46875 503.0656 600.5781 502.45624Q599.34375 501.6281 599.34375 500.1281Q599.34375 498.78436 600.40625 497.8625Q601.4844 496.9406 603.71875 496.9406Q605.84375 496.9406 606.875 497.64374Q607.9219 498.33124 608.3125 499.6906L605.71875 500.15936Q605.5469 499.5656 605.0781 499.2375Q604.625 498.90936 603.7656 498.90936Q602.6875 498.90936 602.21875 499.22186Q601.90625 499.4406 601.90625 499.76874Q601.90625 500.0656 602.1719 500.26874Q602.5469 500.55 604.7344 501.05Q606.9219 501.55 607.7969 502.26874Q608.65625 503.0031 608.65625 504.3Q608.65625 505.7375 607.46875 506.76874Q606.28125 507.78436 603.9375 507.78436Q601.8281 507.78436 600.5781 506.925Q599.34375 506.0656 598.96875 504.59686ZM615.6875 497.175L615.6875 499.3625L613.8125 499.3625L613.8125 503.55Q613.8125 504.8156 613.8594 505.03436Q613.9219 505.2375 614.1094 505.3781Q614.3125 505.5031 614.5781 505.5031Q614.9531 505.5031 615.6875 505.2375L615.9219 507.3781Q614.9531 507.78436 613.75 507.78436Q613.0 507.78436 612.40625 507.53436Q611.8125 507.28436 611.53125 506.89374Q611.2656 506.4875 611.15625 505.8156Q611.0625 505.34686 611.0625 503.89374L611.0625 499.3625L609.7969 499.3625L609.7969 497.175L611.0625 497.175L611.0625 495.1125L613.8125 493.51874L613.8125 497.175L615.6875 497.175ZM617.2969 502.22186Q617.2969 500.84686 617.96875 499.5656Q618.65625 498.28436 619.8906 497.6125Q621.125 496.9406 622.6406 496.9406Q625.0 496.9406 626.5 498.47186Q628.0 500.0031 628.0 502.33124Q628.0 504.6906 626.4844 506.2375Q624.96875 507.78436 622.65625 507.78436Q621.2344 507.78436 619.9375 507.14374Q618.65625 506.4875 617.96875 505.2531Q617.2969 504.0031 617.2969 502.22186ZM620.1094 502.3625Q620.1094 503.90936 620.84375 504.7375Q621.5781 505.55 622.65625 505.55Q623.7344 505.55 624.4531 504.7375Q625.1875 503.90936 625.1875 502.34686Q625.1875 500.8156 624.4531 500.0031Q623.7344 499.175 622.65625 499.175Q621.5781 499.175 620.84375 500.0031Q620.1094 500.8156 620.1094 502.3625ZM632.5625 507.55L629.8125 507.55L629.8125 497.175L632.375 497.175L632.375 498.65936Q633.0156 497.6125 633.53125 497.28436Q634.0625 496.9406 634.7344 496.9406Q635.6719 496.9406 636.53125 497.45624L635.6875 499.84686Q635.0 499.40936 634.40625 499.40936Q633.8281 499.40936 633.4219 499.72186Q633.0156 500.03436 632.78125 500.8781Q632.5625 501.70624 632.5625 504.34686L632.5625 507.55ZM636.96875 504.59686L639.71875 504.175Q639.90625 504.97186 640.4375 505.39374Q640.96875 505.8 641.9375 505.8Q643.0 505.8 643.5469 505.40936Q643.90625 505.14374 643.90625 504.675Q643.90625 504.3625 643.7031 504.15936Q643.5 503.97186 642.7969 503.8Q639.46875 503.0656 638.5781 502.45624Q637.34375 501.6281 637.34375 500.1281Q637.34375 498.78436 638.40625 497.8625Q639.4844 496.9406 641.71875 496.9406Q643.84375 496.9406 644.875 497.64374Q645.9219 498.33124 646.3125 499.6906L643.71875 500.15936Q643.5469 499.5656 643.0781 499.2375Q642.625 498.90936 641.7656 498.90936Q640.6875 498.90936 640.21875 499.22186Q639.90625 499.4406 639.90625 499.76874Q639.90625 500.0656 640.1719 500.26874Q640.5469 500.55 642.7344 501.05Q644.9219 501.55 645.7969 502.26874Q646.65625 503.0031 646.65625 504.3Q646.65625 505.7375 645.46875 506.76874Q644.28125 507.78436 641.9375 507.78436Q639.8281 507.78436 638.5781 506.925Q637.34375 506.0656 636.96875 504.59686Z" fill-rule="nonzero"/><path fill="#ffad69" d="M56.0 528.55C56.0 531.8637 53.31371 534.55 50.0 534.55C46.68629 534.55 44.0 531.8637 44.0 528.55C44.0 525.23627 46.68629 522.55 50.0 522.55C53.31371 522.55 56.0 525.23627 56.0 528.55Z" fill-rule="nonzero"/><path fill="#232832" d="M65.453125 521.2375L70.734375 521.2375Q72.515625 521.2375 73.453125 521.5031Q74.71875 521.8781 75.609375 522.83124Q76.515625 523.76874 76.984375 525.14374Q77.453125 526.51874 77.453125 528.53436Q77.453125 530.3 77.015625 531.58124Q76.46875 533.14374 75.46875 534.09686Q74.71875 534.83124 73.4375 535.2531Q72.484375 535.55 70.890625 535.55L65.453125 535.55L65.453125 521.2375ZM68.34375 523.65936L68.34375 533.14374L70.5 533.14374Q71.703125 533.14374 72.25 533.0031Q72.953125 532.83124 73.40625 532.40936Q73.875 531.9875 74.15625 531.03436Q74.453125 530.0656 74.453125 528.39374Q74.453125 526.7375 74.15625 525.84686Q73.875 524.95624 73.34375 524.47186Q72.8125 523.97186 72.015625 523.78436Q71.40625 523.65936 69.640625 523.65936L68.34375 523.65936ZM92.359375 535.55L89.21875 535.55L87.96875 532.3L82.25 532.3L81.0625 535.55L78.0 535.55L83.578125 521.2375L86.640625 521.2375L92.359375 535.55ZM87.046875 529.8781L85.078125 524.5656L83.140625 529.8781L87.046875 529.8781ZM91.875 528.47186Q91.875 526.28436 92.53125 524.8Q93.015625 523.70624 93.859375 522.84686Q94.703125 521.97186 95.703125 521.55Q97.046875 520.9875 98.796875 520.9875Q101.953125 520.9875 103.84375 522.95624Q105.75 524.90936 105.75 528.40936Q105.75 531.8781 103.859375 533.84686Q101.984375 535.8 98.828125 535.8Q95.640625 535.8 93.75 533.84686Q91.875 531.89374 91.875 528.47186ZM94.84375 528.3781Q94.84375 530.8156 95.96875 532.0656Q97.09375 533.3156 98.828125 533.3156Q100.546875 533.3156 101.65625 532.08124Q102.765625 530.83124 102.765625 528.34686Q102.765625 525.8781 101.6875 524.675Q100.609375 523.45624 98.828125 523.45624Q97.03125 523.45624 95.9375 524.6906Q94.84375 525.90936 94.84375 528.3781ZM114.125 531.7375L114.125 528.9875L119.515625 528.9875L119.515625 531.7375L114.125 531.7375ZM133.10938 530.28436L133.10938 527.8781L139.34375 527.8781L139.34375 533.58124Q138.4375 534.45624 136.70312 535.1281Q134.98438 535.8 133.21875 535.8Q130.98438 535.8 129.3125 534.8625Q127.640625 533.90936 126.796875 532.15936Q125.953125 530.40936 125.953125 528.34686Q125.953125 526.1125 126.890625 524.3781Q127.828125 522.6281 129.64062 521.70624Q131.01562 520.9875 133.0625 520.9875Q135.73438 520.9875 137.23438 522.1125Q138.73438 523.22186 139.15625 525.1906L136.29688 525.7375Q135.98438 524.675 135.14062 524.0656Q134.3125 523.45624 133.0625 523.45624Q131.17188 523.45624 130.04688 524.65936Q128.9375 525.8625 128.9375 528.22186Q128.9375 530.76874 130.0625 532.05Q131.20312 533.3156 133.03125 533.3156Q133.95312 533.3156 134.85938 532.97186Q135.76562 532.6125 136.42188 532.09686L136.42188 530.28436L133.10938 530.28436ZM141.14062 525.175L144.0625 525.175L146.53125 532.53436L148.95312 525.175L151.79688 525.175L148.14062 535.15936L147.48438 536.97186Q147.125 537.8781 146.79688 538.34686Q146.46875 538.83124 146.04688 539.1281Q145.625 539.425 145.0 539.58124Q144.375 539.7531 143.59375 539.7531Q142.8125 539.7531 142.04688 539.59686L141.79688 537.4406Q142.45312 537.5656 142.96875 537.5656Q143.92188 537.5656 144.375 537.0031Q144.84375 536.45624 145.07812 535.58124L141.14062 525.175ZM156.0625 535.55L153.3125 535.55L153.3125 525.175L155.875 525.175L155.875 526.65936Q156.51562 525.6125 157.03125 525.28436Q157.5625 524.9406 158.23438 524.9406Q159.17188 524.9406 160.03125 525.45624L159.1875 527.84686Q158.5 527.40936 157.90625 527.40936Q157.32812 527.40936 156.92188 527.72186Q156.51562 528.03436 156.28125 528.8781Q156.0625 529.70624 156.0625 532.34686L156.0625 535.55ZM160.79688 530.22186Q160.79688 528.84686 161.46875 527.5656Q162.15625 526.28436 163.39062 525.6125Q164.625 524.9406 166.14062 524.9406Q168.5 524.9406 170.0 526.47186Q171.5 528.0031 171.5 530.33124Q171.5 532.6906 169.98438 534.2375Q168.46875 535.78436 166.15625 535.78436Q164.73438 535.78436 163.4375 535.14374Q162.15625 534.4875 161.46875 533.2531Q160.79688 532.0031 160.79688 530.22186ZM163.60938 530.3625Q163.60938 531.90936 164.34375 532.7375Q165.07812 533.55 166.15625 533.55Q167.23438 533.55 167.95312 532.7375Q168.6875 531.90936 168.6875 530.34686Q168.6875 528.8156 167.95312 528.0031Q167.23438 527.175 166.15625 527.175Q165.07812 527.175 164.34375 528.0031Q163.60938 528.8156 163.60938 530.3625ZM172.46875 532.59686L175.21875 532.175Q175.40625 532.97186 175.9375 533.39374Q176.46875 533.8 177.4375 533.8Q178.5 533.8 179.04688 533.40936Q179.40625 533.14374 179.40625 532.675Q179.40625 532.3625 179.20312 532.15936Q179.0 531.97186 178.29688 531.8Q174.96875 531.0656 174.07812 530.45624Q172.84375 529.6281 172.84375 528.1281Q172.84375 526.78436 173.90625 525.8625Q174.98438 524.9406 177.21875 524.9406Q179.34375 524.9406 180.375 525.64374Q181.42188 526.33124 181.8125 527.6906L179.21875 528.15936Q179.04688 527.5656 178.57812 527.2375Q178.125 526.90936 177.26562 526.90936Q176.1875 526.90936 175.71875 527.22186Q175.40625 527.4406 175.40625 527.76874Q175.40625 528.0656 175.67188 528.26874Q176.04688 528.55 178.23438 529.05Q180.42188 529.55 181.29688 530.26874Q182.15625 531.0031 182.15625 532.3Q182.15625 533.7375 180.96875 534.76874Q179.78125 535.78436 177.4375 535.78436Q175.32812 535.78436 174.07812 534.925Q172.84375 534.0656 172.46875 532.59686ZM193.48438 528.2375L190.78125 528.7375Q190.64062 527.925 190.15625 527.51874Q189.67188 527.09686 188.90625 527.09686Q187.875 527.09686 187.26562 527.8156Q186.65625 528.51874 186.65625 530.175Q186.65625 532.01874 187.26562 532.78436Q187.89062 533.55 188.9375 533.55Q189.71875 533.55 190.21875 533.1125Q190.71875 532.65936 190.92188 531.58124L193.60938 532.03436Q193.20312 533.89374 192.0 534.84686Q190.8125 535.78436 188.8125 535.78436Q186.53125 535.78436 185.17188 534.34686Q183.82812 532.90936 183.82812 530.3781Q183.82812 527.8 185.1875 526.3781Q186.54688 524.9406 188.85938 524.9406Q190.75 524.9406 191.85938 525.76874Q192.98438 526.58124 193.48438 528.2375ZM194.79688 530.22186Q194.79688 528.84686 195.46875 527.5656Q196.15625 526.28436 197.39062 525.6125Q198.625 524.9406 200.14062 524.9406Q202.5 524.9406 204.0 526.47186Q205.5 528.0031 205.5 530.33124Q205.5 532.6906 203.98438 534.2375Q202.46875 535.78436 200.15625 535.78436Q198.73438 535.78436 197.4375 535.14374Q196.15625 534.4875 195.46875 533.2531Q194.79688 532.0031 194.79688 530.22186ZM197.60938 530.3625Q197.60938 531.90936 198.34375 532.7375Q199.07812 533.55 200.15625 533.55Q201.23438 533.55 201.95312 532.7375Q202.6875 531.90936 202.6875 530.34686Q202.6875 528.8156 201.95312 528.0031Q201.23438 527.175 200.15625 527.175Q199.07812 527.175 198.34375 528.0031Q197.60938 528.8156 197.60938 530.3625ZM207.35938 525.175L209.92188 525.175L209.92188 526.70624Q210.42188 525.925 211.26562 525.4406Q212.10938 524.9406 213.15625 524.9406Q214.95312 524.9406 216.20312 526.3625Q217.46875 527.76874 217.46875 530.3Q217.46875 532.90936 216.20312 534.34686Q214.9375 535.78436 213.125 535.78436Q212.26562 535.78436 211.5625 535.4406Q210.875 535.09686 210.10938 534.26874L210.10938 539.5031L207.35938 539.5031L207.35938 525.175ZM210.07812 530.1906Q210.07812 531.9406 210.76562 532.78436Q211.45312 533.6125 212.45312 533.6125Q213.40625 533.6125 214.04688 532.84686Q214.6875 532.0656 214.6875 530.33124Q214.6875 528.6906 214.03125 527.90936Q213.375 527.1125 212.40625 527.1125Q211.40625 527.1125 210.73438 527.89374Q210.07812 528.65936 210.07812 530.1906ZM225.4375 532.2531L228.17188 532.70624Q227.65625 534.20624 226.51562 535.0031Q225.375 535.78436 223.67188 535.78436Q220.95312 535.78436 219.65625 534.01874Q218.64062 532.59686 218.64062 530.4406Q218.64062 527.8625 219.98438 526.40936Q221.32812 524.9406 223.39062 524.9406Q225.70312 524.9406 227.03125 526.47186Q228.375 528.0031 228.32812 531.15936L221.45312 531.15936Q221.48438 532.3781 222.10938 533.0656Q222.75 533.7375 223.6875 533.7375Q224.34375 533.7375 224.78125 533.39374Q225.21875 533.03436 225.4375 532.2531ZM225.59375 529.47186Q225.5625 528.28436 224.96875 527.675Q224.39062 527.05 223.5625 527.05Q222.65625 527.05 222.07812 527.6906Q221.48438 528.34686 221.5 529.47186L225.59375 529.47186ZM236.46875 535.55L236.46875 521.2375L246.29688 521.2375L246.29688 523.65936L239.35938 523.65936L239.35938 527.05L245.34375 527.05L245.34375 529.47186L239.35938 529.47186L239.35938 535.55L236.46875 535.55ZM247.79688 530.22186Q247.79688 528.84686 248.46875 527.5656Q249.15625 526.28436 250.39062 525.6125Q251.625 524.9406 253.14062 524.9406Q255.5 524.9406 257.0 526.47186Q258.5 528.0031 258.5 530.33124Q258.5 532.6906 256.98438 534.2375Q255.46875 535.78436 253.15625 535.78436Q251.73438 535.78436 250.4375 535.14374Q249.15625 534.4875 248.46875 533.2531Q247.79688 532.0031 247.79688 530.22186ZM250.60938 530.3625Q250.60938 531.90936 251.34375 532.7375Q252.07812 533.55 253.15625 533.55Q254.23438 533.55 254.95312 532.7375Q255.6875 531.90936 255.6875 530.34686Q255.6875 528.8156 254.95312 528.0031Q254.23438 527.175 253.15625 527.175Q252.07812 527.175 251.34375 528.0031Q250.60938 528.8156 250.60938 530.3625ZM267.26562 535.55L267.26562 534.0031Q266.70312 534.83124 265.76562 535.3156Q264.84375 535.78436 263.82812 535.78436Q262.78125 535.78436 261.95312 535.33124Q261.125 534.8625 260.75 534.03436Q260.375 533.20624 260.375 531.7375L260.375 525.175L263.125 525.175L263.125 529.9406Q263.125 532.1281 263.26562 532.6281Q263.42188 533.1125 263.8125 533.40936Q264.21875 533.6906 264.84375 533.6906Q265.54688 533.6906 266.09375 533.3156Q266.65625 532.925 266.85938 532.3625Q267.0625 531.78436 267.0625 529.55L267.0625 525.175L269.8125 525.175L269.8125 535.55L267.26562 535.55ZM281.875 535.55L279.125 535.55L279.125 530.2531Q279.125 528.58124 278.95312 528.09686Q278.78125 527.59686 278.375 527.33124Q277.98438 527.05 277.42188 527.05Q276.71875 527.05 276.14062 527.4406Q275.57812 527.83124 275.35938 528.47186Q275.15625 529.1125 275.15625 530.84686L275.15625 535.55L272.42188 535.55L272.42188 525.175L274.96875 525.175L274.96875 526.70624Q276.32812 524.9406 278.39062 524.9406Q279.29688 524.9406 280.04688 525.26874Q280.79688 525.59686 281.17188 526.1125Q281.5625 526.6125 281.71875 527.26874Q281.875 527.90936 281.875 529.09686L281.875 535.55ZM293.95312 535.55L291.40625 535.55L291.40625 534.01874Q290.76562 534.90936 289.89062 535.34686Q289.03125 535.78436 288.15625 535.78436Q286.375 535.78436 285.09375 534.34686Q283.82812 532.90936 283.82812 530.33124Q283.82812 527.6906 285.0625 526.3156Q286.29688 524.9406 288.20312 524.9406Q289.9375 524.9406 291.20312 526.39374L291.20312 521.2375L293.95312 521.2375L293.95312 535.55ZM286.625 530.14374Q286.625 531.8 287.07812 532.53436Q287.75 533.6125 288.9375 533.6125Q289.89062 533.6125 290.54688 532.8156Q291.21875 532.0031 291.21875 530.40936Q291.21875 528.6125 290.5625 527.83124Q289.92188 527.05 288.92188 527.05Q287.9375 527.05 287.28125 527.83124Q286.625 528.59686 286.625 530.14374ZM298.48438 528.34686L296.0 527.89374Q296.42188 526.39374 297.4375 525.675Q298.46875 524.9406 300.48438 524.9406Q302.32812 524.9406 303.21875 525.3781Q304.125 525.8156 304.48438 526.4875Q304.85938 527.14374 304.85938 528.9406L304.82812 532.14374Q304.82812 533.5031 304.95312 534.15936Q305.09375 534.8 305.45312 535.55L302.73438 535.55Q302.625 535.26874 302.46875 534.7375Q302.40625 534.4875 302.375 534.40936Q301.67188 535.09686 300.85938 535.4406Q300.0625 535.78436 299.15625 535.78436Q297.5625 535.78436 296.64062 534.925Q295.71875 534.05 295.71875 532.72186Q295.71875 531.83124 296.125 531.14374Q296.54688 530.45624 297.29688 530.09686Q298.0625 529.72186 299.5 529.45624Q301.42188 529.09686 302.15625 528.78436L302.15625 528.5031Q302.15625 527.72186 301.76562 527.39374Q301.375 527.05 300.29688 527.05Q299.5625 527.05 299.14062 527.33124Q298.73438 527.6125 298.48438 528.34686ZM302.15625 530.5656Q301.625 530.7375 300.48438 530.9875Q299.34375 531.2375 299.0 531.47186Q298.45312 531.84686 298.45312 532.4406Q298.45312 533.0031 298.875 533.425Q299.3125 533.84686 299.98438 533.84686Q300.71875 533.84686 301.39062 533.3625Q301.89062 532.9875 302.04688 532.45624Q302.15625 532.09686 302.15625 531.1125L302.15625 530.5656ZM312.1875 525.175L312.1875 527.3625L310.3125 527.3625L310.3125 531.55Q310.3125 532.8156 310.35938 533.03436Q310.42188 533.2375 310.60938 533.3781Q310.8125 533.5031 311.07812 533.5031Q311.45312 533.5031 312.1875 533.2375L312.42188 535.3781Q311.45312 535.78436 310.25 535.78436Q309.5 535.78436 308.90625 535.53436Q308.3125 535.28436 308.03125 534.89374Q307.76562 534.4875 307.65625 533.8156Q307.5625 533.34686 307.5625 531.89374L307.5625 527.3625L306.29688 527.3625L306.29688 525.175L307.5625 525.175L307.5625 523.1125L310.3125 521.51874L310.3125 525.175L312.1875 525.175ZM314.4375 523.76874L314.4375 521.2375L317.1875 521.2375L317.1875 523.76874L314.4375 523.76874ZM314.4375 535.55L314.4375 525.175L317.1875 525.175L317.1875 535.55L314.4375 535.55ZM318.79688 530.22186Q318.79688 528.84686 319.46875 527.5656Q320.15625 526.28436 321.39062 525.6125Q322.625 524.9406 324.14062 524.9406Q326.5 524.9406 328.0 526.47186Q329.5 528.0031 329.5 530.33124Q329.5 532.6906 327.98438 534.2375Q326.46875 535.78436 324.15625 535.78436Q322.73438 535.78436 321.4375 535.14374Q320.15625 534.4875 319.46875 533.2531Q318.79688 532.0031 318.79688 530.22186ZM321.60938 530.3625Q321.60938 531.90936 322.34375 532.7375Q323.07812 533.55 324.15625 533.55Q325.23438 533.55 325.95312 532.7375Q326.6875 531.90936 326.6875 530.34686Q326.6875 528.8156 325.95312 528.0031Q325.23438 527.175 324.15625 527.175Q323.07812 527.175 322.34375 528.0031Q321.60938 528.8156 321.60938 530.3625ZM340.875 535.55L338.125 535.55L338.125 530.2531Q338.125 528.58124 337.95312 528.09686Q337.78125 527.59686 337.375 527.33124Q336.98438 527.05 336.42188 527.05Q335.71875 527.05 335.14062 527.4406Q334.57812 527.83124 334.35938 528.47186Q334.15625 529.1125 334.15625 530.84686L334.15625 535.55L331.42188 535.55L331.42188 525.175L333.96875 525.175L333.96875 526.70624Q335.32812 524.9406 337.39062 524.9406Q338.29688 524.9406 339.04688 525.26874Q339.79688 525.59686 340.17188 526.1125Q340.5625 526.6125 340.71875 527.26874Q340.875 527.90936 340.875 529.09686L340.875 535.55Z" fill-rule="nonzero"/><path fill="#9c3848" d="M370.0 528.55C370.0 531.8637 367.31372 534.55 364.0 534.55C360.68628 534.55 358.0 531.8637 358.0 528.55C358.0 525.23627 360.68628 522.55 364.0 522.55C367.31372 522.55 370.0 525.23627 370.0 528.55Z" fill-rule="nonzero"/><path fill="#232832" d="M379.45312 521.2375L384.73438 521.2375Q386.51562 521.2375 387.45312 521.5031Q388.71875 521.8781 389.60938 522.83124Q390.51562 523.76874 390.98438 525.14374Q391.45312 526.51874 391.45312 528.53436Q391.45312 530.3 391.01562 531.58124Q390.46875 533.14374 389.46875 534.09686Q388.71875 534.83124 387.4375 535.2531Q386.48438 535.55 384.89062 535.55L379.45312 535.55L379.45312 521.2375ZM382.34375 523.65936L382.34375 533.14374L384.5 533.14374Q385.70312 533.14374 386.25 533.0031Q386.95312 532.83124 387.40625 532.40936Q387.875 531.9875 388.15625 531.03436Q388.45312 530.0656 388.45312 528.39374Q388.45312 526.7375 388.15625 525.84686Q387.875 524.95624 387.34375 524.47186Q386.8125 523.97186 386.01562 523.78436Q385.40625 523.65936 383.64062 523.65936L382.34375 523.65936ZM406.35938 535.55L403.21875 535.55L401.96875 532.3L396.25 532.3L395.0625 535.55L392.0 535.55L397.57812 521.2375L400.64062 521.2375L406.35938 535.55ZM401.04688 529.8781L399.07812 524.5656L397.14062 529.8781L401.04688 529.8781ZM405.875 528.47186Q405.875 526.28436 406.53125 524.8Q407.01562 523.70624 407.85938 522.84686Q408.70312 521.97186 409.70312 521.55Q411.04688 520.9875 412.79688 520.9875Q415.95312 520.9875 417.84375 522.95624Q419.75 524.90936 419.75 528.40936Q419.75 531.8781 417.85938 533.84686Q415.98438 535.8 412.82812 535.8Q409.64062 535.8 407.75 533.84686Q405.875 531.89374 405.875 528.47186ZM408.84375 528.3781Q408.84375 530.8156 409.96875 532.0656Q411.09375 533.3156 412.82812 533.3156Q414.54688 533.3156 415.65625 532.08124Q416.76562 530.83124 416.76562 528.34686Q416.76562 525.8781 415.6875 524.675Q414.60938 523.45624 412.82812 523.45624Q411.03125 523.45624 409.9375 524.6906Q408.84375 525.90936 408.84375 528.3781ZM431.67188 535.55L431.67188 523.65936L427.4375 523.65936L427.4375 521.2375L438.8125 521.2375L438.8125 523.65936L434.5625 523.65936L434.5625 535.55L431.67188 535.55ZM444.0625 535.55L441.3125 535.55L441.3125 525.175L443.875 525.175L443.875 526.65936Q444.51562 525.6125 445.03125 525.28436Q445.5625 524.9406 446.23438 524.9406Q447.17188 524.9406 448.03125 525.45624L447.1875 527.84686Q446.5 527.40936 445.90625 527.40936Q445.32812 527.40936 444.92188 527.72186Q444.51562 528.03436 444.28125 528.8781Q444.0625 529.70624 444.0625 532.34686L444.0625 535.55ZM455.4375 532.2531L458.17188 532.70624Q457.65625 534.20624 456.51562 535.0031Q455.375 535.78436 453.67188 535.78436Q450.95312 535.78436 449.65625 534.01874Q448.64062 532.59686 448.64062 530.4406Q448.64062 527.8625 449.98438 526.40936Q451.32812 524.9406 453.39062 524.9406Q455.70312 524.9406 457.03125 526.47186Q458.375 528.0031 458.32812 531.15936L451.45312 531.15936Q451.48438 532.3781 452.10938 533.0656Q452.75 533.7375 453.6875 533.7375Q454.34375 533.7375 454.78125 533.39374Q455.21875 533.03436 455.4375 532.2531ZM455.59375 529.47186Q455.5625 528.28436 454.96875 527.675Q454.39062 527.05 453.5625 527.05Q452.65625 527.05 452.07812 527.6906Q451.48438 528.34686 451.5 529.47186L455.59375 529.47186ZM462.48438 528.34686L460.0 527.89374Q460.42188 526.39374 461.4375 525.675Q462.46875 524.9406 464.48438 524.9406Q466.32812 524.9406 467.21875 525.3781Q468.125 525.8156 468.48438 526.4875Q468.85938 527.14374 468.85938 528.9406L468.82812 532.14374Q468.82812 533.5031 468.95312 534.15936Q469.09375 534.8 469.45312 535.55L466.73438 535.55Q466.625 535.26874 466.46875 534.7375Q466.40625 534.4875 466.375 534.40936Q465.67188 535.09686 464.85938 535.4406Q464.0625 535.78436 463.15625 535.78436Q461.5625 535.78436 460.64062 534.925Q459.71875 534.05 459.71875 532.72186Q459.71875 531.83124 460.125 531.14374Q460.54688 530.45624 461.29688 530.09686Q462.0625 529.72186 463.5 529.45624Q465.42188 529.09686 466.15625 528.78436L466.15625 528.5031Q466.15625 527.72186 465.76562 527.39374Q465.375 527.05 464.29688 527.05Q463.5625 527.05 463.14062 527.33124Q462.73438 527.6125 462.48438 528.34686ZM466.15625 530.5656Q465.625 530.7375 464.48438 530.9875Q463.34375 531.2375 463.0 531.47186Q462.45312 531.84686 462.45312 532.4406Q462.45312 533.0031 462.875 533.425Q463.3125 533.84686 463.98438 533.84686Q464.71875 533.84686 465.39062 533.3625Q465.89062 532.9875 466.04688 532.45624Q466.15625 532.09686 466.15625 531.1125L466.15625 530.5656ZM470.46875 532.59686L473.21875 532.175Q473.40625 532.97186 473.9375 533.39374Q474.46875 533.8 475.4375 533.8Q476.5 533.8 477.04688 533.40936Q477.40625 533.14374 477.40625 532.675Q477.40625 532.3625 477.20312 532.15936Q477.0 531.97186 476.29688 531.8Q472.96875 531.0656 472.07812 530.45624Q470.84375 529.6281 470.84375 528.1281Q470.84375 526.78436 471.90625 525.8625Q472.98438 524.9406 475.21875 524.9406Q477.34375 524.9406 478.375 525.64374Q479.42188 526.33124 479.8125 527.6906L477.21875 528.15936Q477.04688 527.5656 476.57812 527.2375Q476.125 526.90936 475.26562 526.90936Q474.1875 526.90936 473.71875 527.22186Q473.40625 527.4406 473.40625 527.76874Q473.40625 528.0656 473.67188 528.26874Q474.04688 528.55 476.23438 529.05Q478.42188 529.55 479.29688 530.26874Q480.15625 531.0031 480.15625 532.3Q480.15625 533.7375 478.96875 534.76874Q477.78125 535.78436 475.4375 535.78436Q473.32812 535.78436 472.07812 534.925Q470.84375 534.0656 470.46875 532.59686ZM489.26562 535.55L489.26562 534.0031Q488.70312 534.83124 487.76562 535.3156Q486.84375 535.78436 485.82812 535.78436Q484.78125 535.78436 483.95312 535.33124Q483.125 534.8625 482.75 534.03436Q482.375 533.20624 482.375 531.7375L482.375 525.175L485.125 525.175L485.125 529.9406Q485.125 532.1281 485.26562 532.6281Q485.42188 533.1125 485.8125 533.40936Q486.21875 533.6906 486.84375 533.6906Q487.54688 533.6906 488.09375 533.3156Q488.65625 532.925 488.85938 532.3625Q489.0625 531.78436 489.0625 529.55L489.0625 525.175L491.8125 525.175L491.8125 535.55L489.26562 535.55ZM497.0625 535.55L494.3125 535.55L494.3125 525.175L496.875 525.175L496.875 526.65936Q497.51562 525.6125 498.03125 525.28436Q498.5625 524.9406 499.23438 524.9406Q500.17188 524.9406 501.03125 525.45624L500.1875 527.84686Q499.5 527.40936 498.90625 527.40936Q498.32812 527.40936 497.92188 527.72186Q497.51562 528.03436 497.28125 528.8781Q497.0625 529.70624 497.0625 532.34686L497.0625 535.55ZM501.14062 525.175L504.0625 525.175L506.53125 532.53436L508.95312 525.175L511.79688 525.175L508.14062 535.15936L507.48438 536.97186Q507.125 537.8781 506.79688 538.34686Q506.46875 538.83124 506.04688 539.1281Q505.625 539.425 505.0 539.58124Q504.375 539.7531 503.59375 539.7531Q502.8125 539.7531 502.04688 539.59686L501.79688 537.4406Q502.45312 537.5656 502.96875 537.5656Q503.92188 537.5656 504.375 537.0031Q504.84375 536.45624 505.07812 535.58124L501.14062 525.175Z" fill-rule="nonzero"/><path fill="#f0ff9b" d="M540.0 528.55C540.0 531.8637 537.3137 534.55 534.0 534.55C530.6863 534.55 528.0 531.8637 528.0 528.55C528.0 525.23627 530.6863 522.55 534.0 522.55C537.3137 522.55 540.0 525.23627 540.0 528.55Z" fill-rule="nonzero"/><path fill="#232832" d="M549.4531 521.2375L554.7344 521.2375Q556.5156 521.2375 557.4531 521.5031Q558.71875 521.8781 559.6094 522.83124Q560.5156 523.76874 560.9844 525.14374Q561.4531 526.51874 561.4531 528.53436Q561.4531 530.3 561.0156 531.58124Q560.46875 533.14374 559.46875 534.09686Q558.71875 534.83124 557.4375 535.2531Q556.4844 535.55 554.8906 535.55L549.4531 535.55L549.4531 521.2375ZM552.34375 523.65936L552.34375 533.14374L554.5 533.14374Q555.7031 533.14374 556.25 533.0031Q556.9531 532.83124 557.40625 532.40936Q557.875 531.9875 558.15625 531.03436Q558.4531 530.0656 558.4531 528.39374Q558.4531 526.7375 558.15625 525.84686Q557.875 524.95624 557.34375 524.47186Q556.8125 523.97186 556.0156 523.78436Q555.40625 523.65936 553.6406 523.65936L552.34375 523.65936ZM576.3594 535.55L573.21875 535.55L571.96875 532.3L566.25 532.3L565.0625 535.55L562.0 535.55L567.5781 521.2375L570.6406 521.2375L576.3594 535.55ZM571.0469 529.8781L569.0781 524.5656L567.1406 529.8781L571.0469 529.8781ZM575.875 528.47186Q575.875 526.28436 576.53125 524.8Q577.0156 523.70624 577.8594 522.84686Q578.7031 521.97186 579.7031 521.55Q581.0469 520.9875 582.7969 520.9875Q585.9531 520.9875 587.84375 522.95624Q589.75 524.90936 589.75 528.40936Q589.75 531.8781 587.8594 533.84686Q585.9844 535.8 582.8281 535.8Q579.6406 535.8 577.75 533.84686Q575.875 531.89374 575.875 528.47186ZM578.84375 528.3781Q578.84375 530.8156 579.96875 532.0656Q581.09375 533.3156 582.8281 533.3156Q584.5469 533.3156 585.65625 532.08124Q586.7656 530.83124 586.7656 528.34686Q586.7656 525.8781 585.6875 524.675Q584.6094 523.45624 582.8281 523.45624Q581.03125 523.45624 579.9375 524.6906Q578.84375 525.90936 578.84375 528.3781ZM598.125 531.7375L598.125 528.9875L603.5156 528.9875L603.5156 531.7375L598.125 531.7375ZM623.3594 535.55L620.21875 535.55L618.96875 532.3L613.25 532.3L612.0625 535.55L609.0 535.55L614.5781 521.2375L617.6406 521.2375L623.3594 535.55ZM618.0469 529.8781L616.0781 524.5656L614.1406 529.8781L618.0469 529.8781ZM623.4375 523.76874L623.4375 521.2375L626.1875 521.2375L626.1875 523.76874L623.4375 523.76874ZM623.4375 535.55L623.4375 525.175L626.1875 525.175L626.1875 535.55L623.4375 535.55ZM631.0625 535.55L628.3125 535.55L628.3125 525.175L630.875 525.175L630.875 526.65936Q631.5156 525.6125 632.03125 525.28436Q632.5625 524.9406 633.2344 524.9406Q634.1719 524.9406 635.03125 525.45624L634.1875 527.84686Q633.5 527.40936 632.90625 527.40936Q632.3281 527.40936 631.9219 527.72186Q631.5156 528.03436 631.28125 528.8781Q631.0625 529.70624 631.0625 532.34686L631.0625 535.55ZM645.9531 535.55L643.40625 535.55L643.40625 534.01874Q642.7656 534.90936 641.8906 535.34686Q641.03125 535.78436 640.15625 535.78436Q638.375 535.78436 637.09375 534.34686Q635.8281 532.90936 635.8281 530.33124Q635.8281 527.6906 637.0625 526.3156Q638.2969 524.9406 640.2031 524.9406Q641.9375 524.9406 643.2031 526.39374L643.2031 521.2375L645.9531 521.2375L645.9531 535.55ZM638.625 530.14374Q638.625 531.8 639.0781 532.53436Q639.75 533.6125 640.9375 533.6125Q641.8906 533.6125 642.5469 532.8156Q643.21875 532.0031 643.21875 530.40936Q643.21875 528.6125 642.5625 527.83124Q641.9219 527.05 640.9219 527.05Q639.9375 527.05 639.28125 527.83124Q638.625 528.59686 638.625 530.14374ZM651.0625 535.55L648.3125 535.55L648.3125 525.175L650.875 525.175L650.875 526.65936Q651.5156 525.6125 652.03125 525.28436Q652.5625 524.9406 653.2344 524.9406Q654.1719 524.9406 655.03125 525.45624L654.1875 527.84686Q653.5 527.40936 652.90625 527.40936Q652.3281 527.40936 651.9219 527.72186Q651.5156 528.03436 651.28125 528.8781Q651.0625 529.70624 651.0625 532.34686L651.0625 535.55ZM655.7969 530.22186Q655.7969 528.84686 656.46875 527.5656Q657.15625 526.28436 658.3906 525.6125Q659.625 524.9406 661.1406 524.9406Q663.5 524.9406 665.0 526.47186Q666.5 528.0031 666.5 530.33124Q666.5 532.6906 664.9844 534.2375Q663.46875 535.78436 661.15625 535.78436Q659.7344 535.78436 658.4375 535.14374Q657.15625 534.4875 656.46875 533.2531Q655.7969 532.0031 655.7969 530.22186ZM658.6094 530.3625Q658.6094 531.90936 659.34375 532.7375Q660.0781 533.55 661.15625 533.55Q662.2344 533.55 662.9531 532.7375Q663.6875 531.90936 663.6875 530.34686Q663.6875 528.8156 662.9531 528.0031Q662.2344 527.175 661.15625 527.175Q660.0781 527.175 659.34375 528.0031Q658.6094 528.8156 658.6094 530.3625ZM668.3594 525.175L670.9219 525.175L670.9219 526.70624Q671.4219 525.925 672.2656 525.4406Q673.1094 524.9406 674.15625 524.9406Q675.9531 524.9406 677.2031 526.3625Q678.46875 527.76874 678.46875 530.3Q678.46875 532.90936 677.2031 534.34686Q675.9375 535.78436 674.125 535.78436Q673.2656 535.78436 672.5625 535.4406Q671.875 535.09686 671.1094 534.26874L671.1094 539.5031L668.3594 539.5031L668.3594 525.175ZM671.0781 530.1906Q671.0781 531.9406 671.7656 532.78436Q672.4531 533.6125 673.4531 533.6125Q674.40625 533.6125 675.0469 532.84686Q675.6875 532.0656 675.6875 530.33124Q675.6875 528.6906 675.03125 527.90936Q674.375 527.1125 673.40625 527.1125Q672.40625 527.1125 671.7344 527.89374Q671.0781 528.65936 671.0781 530.1906ZM690.9844 539.7531L689.1094 539.7531Q687.6094 537.5031 686.8281 535.08124Q686.0469 532.64374 686.0469 530.3625Q686.0469 527.53436 687.0156 525.01874Q687.8594 522.83124 689.1406 520.9875L691.0156 520.9875Q689.6719 523.9406 689.1719 526.01874Q688.6719 528.09686 688.6719 530.425Q688.6719 532.01874 688.96875 533.70624Q689.2656 535.3781 689.78125 536.89374Q690.125 537.89374 690.9844 539.7531ZM693.2344 525.175L695.7656 525.175L695.7656 526.59686Q697.125 524.9406 699.0 524.9406Q699.9844 524.9406 700.71875 525.3625Q701.4531 525.76874 701.9219 526.59686Q702.6094 525.76874 703.3906 525.3625Q704.1875 524.9406 705.09375 524.9406Q706.2344 524.9406 707.0156 525.40936Q707.8125 525.8781 708.2031 526.76874Q708.4844 527.4406 708.4844 528.925L708.4844 535.55L705.7344 535.55L705.7344 529.6281Q705.7344 528.08124 705.4531 527.6281Q705.0781 527.05 704.28125 527.05Q703.7031 527.05 703.1875 527.40936Q702.6875 527.7531 702.46875 528.425Q702.25 529.09686 702.25 530.5656L702.25 535.55L699.5 535.55L699.5 529.8625Q699.5 528.34686 699.34375 527.90936Q699.2031 527.47186 698.8906 527.26874Q698.59375 527.05 698.0625 527.05Q697.4375 527.05 696.9219 527.39374Q696.4219 527.72186 696.1875 528.3781Q695.96875 529.01874 695.96875 530.5031L695.96875 535.55L693.2344 535.55L693.2344 525.175ZM712.4844 528.34686L710.0 527.89374Q710.4219 526.39374 711.4375 525.675Q712.46875 524.9406 714.4844 524.9406Q716.3281 524.9406 717.21875 525.3781Q718.125 525.8156 718.4844 526.4875Q718.8594 527.14374 718.8594 528.9406L718.8281 532.14374Q718.8281 533.5031 718.9531 534.15936Q719.09375 534.8 719.4531 535.55L716.7344 535.55Q716.625 535.26874 716.46875 534.7375Q716.40625 534.4875 716.375 534.40936Q715.6719 535.09686 714.8594 535.4406Q714.0625 535.78436 713.15625 535.78436Q711.5625 535.78436 710.6406 534.925Q709.71875 534.05 709.71875 532.72186Q709.71875 531.83124 710.125 531.14374Q710.5469 530.45624 711.2969 530.09686Q712.0625 529.72186 713.5 529.45624Q715.4219 529.09686 716.15625 528.78436L716.15625 528.5031Q716.15625 527.72186 715.7656 527.39374Q715.375 527.05 714.2969 527.05Q713.5625 527.05 713.1406 527.33124Q712.7344 527.6125 712.4844 528.34686ZM716.15625 530.5656Q715.625 530.7375 714.4844 530.9875Q713.34375 531.2375 713.0 531.47186Q712.4531 531.84686 712.4531 532.4406Q712.4531 533.0031 712.875 533.425Q713.3125 533.84686 713.9844 533.84686Q714.71875 533.84686 715.3906 533.3625Q715.8906 532.9875 716.0469 532.45624Q716.15625 532.09686 716.15625 531.1125L716.15625 530.5656ZM720.125 535.55L723.8594 530.20624L720.28125 525.175L723.625 525.175L725.4531 528.03436L727.3906 525.175L730.6094 525.175L727.09375 530.09686L730.9375 535.55L727.5625 535.55L725.4531 532.33124L723.3281 535.55L720.125 535.55ZM731.6719 539.7531Q732.4844 538.01874 732.8125 537.08124Q733.15625 536.15936 733.4375 534.95624Q733.71875 533.7375 733.84375 532.65936Q733.9844 531.5656 733.9844 530.425Q733.9844 528.09686 733.4844 526.01874Q733.0 523.9406 731.65625 520.9875L733.5156 520.9875Q735.0 523.08124 735.8125 525.4406Q736.625 527.8 736.625 530.22186Q736.625 532.2531 735.9844 534.59686Q735.25 537.20624 733.5625 539.7531L731.6719 539.7531Z" fill-rule="nonzero"/></svg>