<svg version="1.1" viewBox="0.0 0.0 697.0 588.0" fill="none" stroke="none" stroke-linecap="square" stroke-miterlimit="10" width="697" height="588" xmlns:xlink="http://www.w3.org/1999/xlink" xmlns="http://www.w3.org/2000/svg"><path fill="#232832" d="M0 0L697.0 0L697.0 588.0L0 588.0L0 0Z" fill-rule="nonzero"/><path fill="#9d009d" d="M348.5 29.4C367.88367 29.4 387.1711 32.125225 405.79596 37.495663L348.5 236.2Z" fill-rule="nonzero"/><path fill="#f0ff9b" d="M405.79596 37.495663C470.5742 56.174328 522.1812 105.256546 544.083 169.01723C565.9848 232.77791 555.4317 303.21213 515.8047 357.754L348.5 236.2Z" fill-rule="nonzero"/><path fill="#14bf51" d="M515.8047 357.754C510.07422 365.64133 503.79318 373.11356 497.0085 380.11478L348.5 236.2Z" fill-rule="nonzero"/><path fill="#ffb4ff" d="M497.0085 380.11478C462.54193 415.68152 416.45544 437.69748 367.12967 442.15915L348.5 236.2Z" fill-rule="nonzero"/><path fill="#91f5f5" d="M192.82578 372.33145C139.41843 311.25708 126.657745 224.59479 160.19409 150.71826C193.73044 76.84175 267.36786 29.4 348.5 29.4L348.5 236.2Z" fill-rule="nonzero"/><path fill="#1470e8" d="M367.12967 442.15915C301.2011 448.12262 236.40215 422.16357 192.82578 372.33145L348.5 236.2Z" fill-rule="nonzero"/><path fill="#9d009d" d="M41.4 473.1C41.4 476.4137 38.713707 479.1 35.4 479.1C32.086292 479.1 29.4 476.4137 29.4 473.1C29.4 469.7863 32.086292 467.1 35.4 467.1C38.713707 467.1 41.4 469.7863 41.4 473.1Z" fill-rule="nonzero"/><path fill="#ffffff" d="M50.728127 479.6L50.728127 466.70938L59.55625 466.70938L59.55625 468.89688L53.321877 468.89688L53.321877 471.94376L58.7125 471.94376L58.7125 474.13126L53.321877 474.13126L53.321877 479.6L50.728127 479.6ZM64.60313 479.6L64.60313 468.89688L60.790627 468.89688L60.790627 466.70938L71.025 466.70938L71.025 468.89688L67.2125 468.89688L67.2125 479.6L64.60313 479.6ZM72.775 479.6L72.775 466.81876L75.38438 466.81876L75.38438 477.42813L81.85313 477.42813L81.85313 479.6L72.775 479.6ZM88.775 479.6L88.775 466.81876L91.38438 466.81876L91.38438 477.42813L97.85313 477.42813L97.85313 479.6L88.775 479.6ZM101.54063 473.11563L99.29063 472.70938Q99.68125 471.35 100.60313 470.70938Q101.525 470.05313 103.3375 470.05313Q104.99375 470.05313 105.79063 470.44376Q106.60313 470.83438 106.93125 471.44376Q107.275 472.0375 107.275 473.64688L107.24375 476.5375Q107.24375 477.75626 107.35313 478.35Q107.47813 478.92813 107.80625 479.6L105.36875 479.6Q105.25938 479.35 105.11875 478.86563Q105.05625 478.64688 105.04063 478.58438Q104.4 479.19376 103.68125 479.50626Q102.9625 479.81876 102.15 479.81876Q100.69688 479.81876 99.86875 479.0375Q99.04063 478.24063 99.04063 477.05313Q99.04063 476.25626 99.41563 475.64688Q99.79063 475.02188 100.47813 474.69376Q101.16563 474.36563 102.44688 474.11563Q104.18125 473.7875 104.8375 473.50626L104.8375 473.25626Q104.8375 472.55313 104.47813 472.25626Q104.13438 471.94376 103.16563 471.94376Q102.50938 471.94376 102.13438 472.20938Q101.75938 472.45938 101.54063 473.11563ZM104.8375 475.11563Q104.36875 475.27188 103.3375 475.49063Q102.30625 475.70938 101.99375 475.92813Q101.50938 476.27188 101.50938 476.80313Q101.50938 477.31876 101.9 477.69376Q102.29063 478.06876 102.88438 478.06876Q103.55625 478.06876 104.15 477.63126Q104.60313 477.30313 104.74375 476.81876Q104.8375 476.49063 104.8375 475.61563L104.8375 475.11563ZM109.5875 479.6L109.5875 466.70938L112.05625 466.70938L112.05625 471.35Q113.19688 470.05313 114.75938 470.05313Q116.4625 470.05313 117.57188 471.2875Q118.69688 472.52188 118.69688 474.83438Q118.69688 477.225 117.55625 478.52188Q116.43125 479.81876 114.80625 479.81876Q113.99375 479.81876 113.2125 479.4125Q112.44688 479.00626 111.88438 478.225L111.88438 479.6L109.5875 479.6ZM112.04063 474.725Q112.04063 476.17813 112.49375 476.88126Q113.13438 477.86563 114.19688 477.86563Q115.025 477.86563 115.5875 477.1625Q116.16563 476.45938 116.16563 474.95938Q116.16563 473.36563 115.5875 472.6625Q115.00938 471.94376 114.10313 471.94376Q113.2125 471.94376 112.61875 472.63126Q112.04063 473.31876 112.04063 474.725ZM119.82188 476.94376L122.30625 476.55313Q122.4625 477.27188 122.94688 477.64688Q123.43125 478.02188 124.29063 478.02188Q125.25938 478.02188 125.74375 477.67813Q126.05625 477.42813 126.05625 477.02188Q126.05625 476.74063 125.88438 476.55313Q125.69688 476.38126 125.05625 476.225Q122.07188 475.56876 121.275 475.02188Q120.16563 474.27188 120.16563 472.9125Q120.16563 471.70938 121.11875 470.88126Q122.0875 470.05313 124.0875 470.05313Q126.00938 470.05313 126.93125 470.67813Q127.86875 471.30313 128.22812 472.52188L125.9 472.95938Q125.74375 472.4125 125.32188 472.13126Q124.91563 471.83438 124.13438 471.83438Q123.16563 471.83438 122.74375 472.1Q122.4625 472.30313 122.4625 472.6Q122.4625 472.86563 122.7125 473.05313Q123.04063 473.30313 125.00938 473.75626Q126.97813 474.19376 127.775 474.85Q128.54062 475.50626 128.54062 476.67813Q128.54062 477.95938 127.4625 478.89688Q126.4 479.81876 124.29063 479.81876Q122.38438 479.81876 121.275 479.0375Q120.16563 478.25626 119.82188 476.94376ZM135.41562 476.1625L135.41562 473.69376L140.25937 473.69376L140.25937 476.1625L135.41562 476.1625ZM146.63437 479.6L146.63437 466.70938L149.22812 466.70938L149.22812 479.6L146.63437 479.6ZM160.18124 479.6L157.7125 479.6L157.7125 474.83438Q157.7125 473.31876 157.55624 472.88126Q157.4 472.44376 157.04062 472.19376Q156.68124 471.94376 156.18124 471.94376Q155.54062 471.94376 155.025 472.30313Q154.525 472.64688 154.3375 473.225Q154.15 473.80313 154.15 475.36563L154.15 479.6L151.68124 479.6L151.68124 470.27188L153.9625 470.27188L153.9625 471.63126Q155.19687 470.05313 157.04062 470.05313Q157.86874 470.05313 158.54062 470.35Q159.2125 470.64688 159.55624 471.1Q159.91562 471.55313 160.04062 472.14688Q160.18124 472.725 160.18124 473.80313L160.18124 479.6ZM165.25937 479.6L161.49374 470.27188L164.0875 470.27188L165.85312 475.02188L166.35312 476.61563Q166.55624 476.00626 166.61874 475.81876Q166.72812 475.42813 166.86874 475.02188L168.65 470.27188L171.19687 470.27188L167.47812 479.6L165.25937 479.6ZM179.10312 476.63126L181.55624 477.0375Q181.0875 478.39688 180.05624 479.11563Q179.04062 479.81876 177.49374 479.81876Q175.05624 479.81876 173.9 478.225Q172.97812 476.94376 172.97812 475.00626Q172.97812 472.67813 174.18124 471.36563Q175.4 470.05313 177.25937 470.05313Q179.3375 470.05313 180.54062 471.42813Q181.74374 472.80313 181.69687 475.64688L175.50937 475.64688Q175.525 476.74063 176.0875 477.35Q176.66562 477.95938 177.525 477.95938Q178.10312 477.95938 178.49374 477.64688Q178.9 477.33438 179.10312 476.63126ZM179.24374 474.13126Q179.2125 473.05313 178.68124 472.50626Q178.15 471.94376 177.4 471.94376Q176.5875 471.94376 176.07187 472.5375Q175.54062 473.11563 175.54062 474.13126L179.24374 474.13126ZM183.82187 476.94376L186.30624 476.55313Q186.4625 477.27188 186.94687 477.64688Q187.43124 478.02188 188.29062 478.02188Q189.25937 478.02188 189.74374 477.67813Q190.05624 477.42813 190.05624 477.02188Q190.05624 476.74063 189.88437 476.55313Q189.69687 476.38126 189.05624 476.225Q186.07187 475.56876 185.275 475.02188Q184.16562 474.27188 184.16562 472.9125Q184.16562 471.70938 185.11874 470.88126Q186.0875 470.05313 188.0875 470.05313Q190.00937 470.05313 190.93124 470.67813Q191.86874 471.30313 192.22812 472.52188L189.9 472.95938Q189.74374 472.4125 189.32187 472.13126Q188.91562 471.83438 188.13437 471.83438Q187.16562 471.83438 186.74374 472.1Q186.4625 472.30313 186.4625 472.6Q186.4625 472.86563 186.7125 473.05313Q187.04062 473.30313 189.00937 473.75626Q190.97812 474.19376 191.775 474.85Q192.54062 475.50626 192.54062 476.67813Q192.54062 477.95938 191.4625 478.89688Q190.4 479.81876 188.29062 479.81876Q186.38437 479.81876 185.275 479.0375Q184.16562 478.25626 183.82187 476.94376ZM198.97812 470.27188L198.97812 472.24063L197.29062 472.24063L197.29062 475.99063Q197.29062 477.13126 197.3375 477.33438Q197.38437 477.52188 197.55624 477.64688Q197.72812 477.75626 197.97812 477.75626Q198.30624 477.75626 198.9625 477.52188L199.18124 479.44376Q198.30624 479.81876 197.22812 479.81876Q196.55624 479.81876 196.00937 479.6Q195.47812 479.36563 195.22812 479.00626Q194.97812 478.64688 194.88437 478.0375Q194.80624 477.61563 194.80624 476.30313L194.80624 472.24063L193.66562 472.24063L193.66562 470.27188L194.80624 470.27188L194.80624 468.4125L197.29062 466.975L197.29062 470.27188L198.97812 470.27188ZM200.11874 474.80313Q200.11874 473.56876 200.72812 472.42813Q201.3375 471.27188 202.44687 470.6625Q203.55624 470.05313 204.93124 470.05313Q207.04062 470.05313 208.4 471.42813Q209.75937 472.80313 209.75937 474.9125Q209.75937 477.02188 208.38437 478.42813Q207.025 479.81876 204.94687 479.81876Q203.66562 479.81876 202.49374 479.24063Q201.3375 478.64688 200.72812 477.5375Q200.11874 476.4125 200.11874 474.80313ZM202.65 474.92813Q202.65 476.31876 203.30624 477.06876Q203.97812 477.80313 204.93124 477.80313Q205.9 477.80313 206.55624 477.06876Q207.2125 476.31876 207.2125 474.9125Q207.2125 473.5375 206.55624 472.80313Q205.9 472.06876 204.93124 472.06876Q203.97812 472.06876 203.30624 472.80313Q202.65 473.5375 202.65 474.92813ZM214.05624 479.6L211.5875 479.6L211.5875 470.27188L213.88437 470.27188L213.88437 471.6Q214.4625 470.64688 214.93124 470.35Q215.41562 470.05313 216.00937 470.05313Q216.85312 470.05313 217.63437 470.52188L216.86874 472.67813Q216.24374 472.27188 215.7125 472.27188Q215.19687 472.27188 214.82187 472.55313Q214.4625 472.83438 214.25937 473.58438Q214.05624 474.33438 214.05624 476.70938L214.05624 479.6ZM217.82187 476.94376L220.30624 476.55313Q220.4625 477.27188 220.94687 477.64688Q221.43124 478.02188 222.29062 478.02188Q223.25937 478.02188 223.74374 477.67813Q224.05624 477.42813 224.05624 477.02188Q224.05624 476.74063 223.88437 476.55313Q223.69687 476.38126 223.05624 476.225Q220.07187 475.56876 219.275 475.02188Q218.16562 474.27188 218.16562 472.9125Q218.16562 471.70938 219.11874 470.88126Q220.0875 470.05313 222.0875 470.05313Q224.00937 470.05313 224.93124 470.67813Q225.86874 471.30313 226.22812 472.52188L223.9 472.95938Q223.74374 472.4125 223.32187 472.13126Q222.91562 471.83438 222.13437 471.83438Q221.16562 471.83438 220.74374 472.1Q220.4625 472.30313 220.4625 472.6Q220.4625 472.86563 220.7125 473.05313Q221.04062 473.30313 223.00937 473.75626Q224.97812 474.19376 225.775 474.85Q226.54062 475.50626 226.54062 476.67813Q226.54062 477.95938 225.4625 478.89688Q224.4 479.81876 222.29062 479.81876Q220.38437 479.81876 219.275 479.0375Q218.16562 478.25626 217.82187 476.94376ZM237.79062 483.38126L236.0875 483.38126Q234.74374 481.36563 234.04062 479.17813Q233.3375 476.975 233.3375 474.92813Q233.3375 472.39688 234.2125 470.13126Q234.9625 468.1625 236.13437 466.49063L237.82187 466.49063Q236.60312 469.1625 236.15 471.0375Q235.7125 472.89688 235.7125 474.99063Q235.7125 476.42813 235.97812 477.94376Q236.24374 479.44376 236.7125 480.81876Q237.00937 481.70938 237.79062 483.38126ZM244.00937 479.6L244.00937 477.00626L238.72812 477.00626L238.72812 474.85L244.32187 466.6625L246.4 466.6625L246.4 474.83438L247.99374 474.83438L247.99374 477.00626L246.4 477.00626L246.4 479.6L244.00937 479.6ZM244.00937 474.83438L244.00937 470.42813L241.04062 474.83438L244.00937 474.83438ZM249.69687 479.6L249.69687 477.13126L252.16562 477.13126L252.16562 479.6L249.69687 479.6ZM259.00937 479.6L259.00937 477.00626L253.72812 477.00626L253.72812 474.85L259.32187 466.6625L261.4 466.6625L261.4 474.83438L262.99374 474.83438L262.99374 477.00626L261.4 477.00626L261.4 479.6L259.00937 479.6ZM259.00937 474.83438L259.00937 470.42813L256.04062 474.83438L259.00937 474.83438ZM264.16562 469.17813L264.16562 466.89688L272.61874 466.89688L272.61874 468.67813Q271.57187 469.70938 270.47812 471.64688Q269.4 473.56876 268.8375 475.74063Q268.275 477.89688 268.275 479.6L265.9 479.6Q265.9625 476.92813 266.99374 474.14688Q268.04062 471.36563 269.775 469.17813L264.16562 469.17813ZM274.18124 469.89688Q274.18124 468.1625 274.93124 467.33438Q275.69687 466.49063 277.00937 466.49063Q278.35312 466.49063 279.10312 467.33438Q279.86874 468.1625 279.86874 469.89688Q279.86874 471.63126 279.10312 472.475Q278.35312 473.30313 277.04062 473.30313Q275.69687 473.30313 274.93124 472.475Q274.18124 471.63126 274.18124 469.89688ZM276.10312 469.88126Q276.10312 471.13126 276.4 471.56876Q276.61874 471.88126 277.00937 471.88126Q277.4 471.88126 277.61874 471.56876Q277.9 471.13126 277.9 469.88126Q277.9 468.61563 277.61874 468.19376Q277.4 467.88126 277.00937 467.88126Q276.61874 467.88126 276.4 468.19376Q276.10312 468.61563 276.10312 469.88126ZM278.88437 480.1L277.05624 480.1L283.91562 466.49063L285.69687 466.49063L278.88437 480.1ZM282.86874 476.70938Q282.86874 474.975 283.63437 474.14688Q284.4 473.30313 285.7125 473.30313Q287.04062 473.30313 287.79062 474.14688Q288.55624 474.975 288.55624 476.70938Q288.55624 478.44376 287.79062 479.2875Q287.04062 480.11563 285.74374 480.11563Q284.4 480.11563 283.63437 479.2875Q282.86874 478.44376 282.86874 476.70938ZM284.80624 476.69376Q284.80624 477.95938 285.0875 478.38126Q285.30624 478.70938 285.69687 478.70938Q286.0875 478.70938 286.30624 478.38126Q286.5875 477.95938 286.5875 476.69376Q286.5875 475.44376 286.30624 475.00626Q286.0875 474.69376 285.69687 474.69376Q285.30624 474.69376 285.0875 475.00626Q284.80624 475.44376 284.80624 476.69376ZM291.00937 483.38126Q291.74374 481.81876 292.04062 480.975Q292.3375 480.14688 292.5875 479.06876Q292.8375 477.975 292.9625 476.99063Q293.0875 476.00626 293.0875 474.99063Q293.0875 472.89688 292.63437 471.0375Q292.19687 469.1625 290.99374 466.49063L292.66562 466.49063Q293.99374 468.38126 294.72812 470.50626Q295.4625 472.61563 295.4625 474.80313Q295.4625 476.63126 294.88437 478.74063Q294.22812 481.1 292.7125 483.38126L291.00937 483.38126Z" fill-rule="nonzero"/><path fill="#f0ff9b" d="M324.4 473.1C324.4 476.4137 321.7137 479.1 318.4 479.1C315.0863 479.1 312.4 476.4137 312.4 473.1C312.4 469.7863 315.0863 467.1 318.4 467.1C321.7137 467.1 324.4 469.7863 324.4 473.1Z" fill-rule="nonzero"/><path fill="#ffffff" d="M333.72812 479.6L333.72812 466.70938L342.55624 466.70938L342.55624 468.89688L336.32187 468.89688L336.32187 471.94376L341.7125 471.94376L341.7125 474.13126L336.32187 474.13126L336.32187 479.6L333.72812 479.6ZM347.60312 479.6L347.60312 468.89688L343.79062 468.89688L343.79062 466.70938L354.025 466.70938L354.025 468.89688L350.2125 468.89688L350.2125 479.6L347.60312 479.6ZM355.775 479.6L355.775 466.81876L358.38437 466.81876L358.38437 477.42813L364.85312 477.42813L364.85312 479.6L355.775 479.6ZM371.775 479.6L371.775 466.81876L374.38437 466.81876L374.38437 477.42813L380.85312 477.42813L380.85312 479.6L371.775 479.6ZM384.54062 473.11563L382.29062 472.70938Q382.68124 471.35 383.60312 470.70938Q384.525 470.05313 386.3375 470.05313Q387.99374 470.05313 388.79062 470.44376Q389.60312 470.83438 389.93124 471.44376Q390.275 472.0375 390.275 473.64688L390.24374 476.5375Q390.24374 477.75626 390.35312 478.35Q390.47812 478.92813 390.80624 479.6L388.36874 479.6Q388.25937 479.35 388.11874 478.86563Q388.05624 478.64688 388.04062 478.58438Q387.4 479.19376 386.68124 479.50626Q385.9625 479.81876 385.15 479.81876Q383.69687 479.81876 382.86874 479.0375Q382.04062 478.24063 382.04062 477.05313Q382.04062 476.25626 382.41562 475.64688Q382.79062 475.02188 383.47812 474.69376Q384.16562 474.36563 385.44687 474.11563Q387.18124 473.7875 387.8375 473.50626L387.8375 473.25626Q387.8375 472.55313 387.47812 472.25626Q387.13437 471.94376 386.16562 471.94376Q385.50937 471.94376 385.13437 472.20938Q384.75937 472.45938 384.54062 473.11563ZM387.8375 475.11563Q387.36874 475.27188 386.3375 475.49063Q385.30624 475.70938 384.99374 475.92813Q384.50937 476.27188 384.50937 476.80313Q384.50937 477.31876 384.9 477.69376Q385.29062 478.06876 385.88437 478.06876Q386.55624 478.06876 387.15 477.63126Q387.60312 477.30313 387.74374 476.81876Q387.8375 476.49063 387.8375 475.61563L387.8375 475.11563ZM392.5875 479.6L392.5875 466.70938L395.05624 466.70938L395.05624 471.35Q396.19687 470.05313 397.75937 470.05313Q399.4625 470.05313 400.57187 471.2875Q401.69687 472.52188 401.69687 474.83438Q401.69687 477.225 400.55624 478.52188Q399.43124 479.81876 397.80624 479.81876Q396.99374 479.81876 396.2125 479.4125Q395.44687 479.00626 394.88437 478.225L394.88437 479.6L392.5875 479.6ZM395.04062 474.725Q395.04062 476.17813 395.49374 476.88126Q396.13437 477.86563 397.19687 477.86563Q398.025 477.86563 398.5875 477.1625Q399.16562 476.45938 399.16562 474.95938Q399.16562 473.36563 398.5875 472.6625Q398.00937 471.94376 397.10312 471.94376Q396.2125 471.94376 395.61874 472.63126Q395.04062 473.31876 395.04062 474.725ZM402.82187 476.94376L405.30624 476.55313Q405.4625 477.27188 405.94687 477.64688Q406.43124 478.02188 407.29062 478.02188Q408.25937 478.02188 408.74374 477.67813Q409.05624 477.42813 409.05624 477.02188Q409.05624 476.74063 408.88437 476.55313Q408.69687 476.38126 408.05624 476.225Q405.07187 475.56876 404.275 475.02188Q403.16562 474.27188 403.16562 472.9125Q403.16562 471.70938 404.11874 470.88126Q405.0875 470.05313 407.0875 470.05313Q409.00937 470.05313 409.93124 470.67813Q410.86874 471.30313 411.22812 472.52188L408.9 472.95938Q408.74374 472.4125 408.32187 472.13126Q407.91562 471.83438 407.13437 471.83438Q406.16562 471.83438 405.74374 472.1Q405.4625 472.30313 405.4625 472.6Q405.4625 472.86563 405.7125 473.05313Q406.04062 473.30313 408.00937 473.75626Q409.97812 474.19376 410.775 474.85Q411.54062 475.50626 411.54062 476.67813Q411.54062 477.95938 410.4625 478.89688Q409.4 479.81876 407.29062 479.81876Q405.38437 479.81876 404.275 479.0375Q403.16562 478.25626 402.82187 476.94376ZM418.41562 476.1625L418.41562 473.69376L423.25937 473.69376L423.25937 476.1625L418.41562 476.1625ZM432.60312 479.6L432.60312 468.89688L428.79062 468.89688L428.79062 466.70938L439.025 466.70938L439.025 468.89688L435.2125 468.89688L435.2125 479.6L432.60312 479.6ZM446.10312 476.63126L448.55624 477.0375Q448.0875 478.39688 447.05624 479.11563Q446.04062 479.81876 444.49374 479.81876Q442.05624 479.81876 440.9 478.225Q439.97812 476.94376 439.97812 475.00626Q439.97812 472.67813 441.18124 471.36563Q442.4 470.05313 444.25937 470.05313Q446.3375 470.05313 447.54062 471.42813Q448.74374 472.80313 448.69687 475.64688L442.50937 475.64688Q442.525 476.74063 443.0875 477.35Q443.66562 477.95938 444.525 477.95938Q445.10312 477.95938 445.49374 477.64688Q445.9 477.33438 446.10312 476.63126ZM446.24374 474.13126Q446.2125 473.05313 445.68124 472.50626Q445.15 471.94376 444.4 471.94376Q443.5875 471.94376 443.07187 472.5375Q442.54062 473.11563 442.54062 474.13126L446.24374 474.13126ZM453.54062 473.11563L451.29062 472.70938Q451.68124 471.35 452.60312 470.70938Q453.525 470.05313 455.3375 470.05313Q456.99374 470.05313 457.79062 470.44376Q458.60312 470.83438 458.93124 471.44376Q459.275 472.0375 459.275 473.64688L459.24374 476.5375Q459.24374 477.75626 459.35312 478.35Q459.47812 478.92813 459.80624 479.6L457.36874 479.6Q457.25937 479.35 457.11874 478.86563Q457.05624 478.64688 457.04062 478.58438Q456.4 479.19376 455.68124 479.50626Q454.9625 479.81876 454.15 479.81876Q452.69687 479.81876 451.86874 479.0375Q451.04062 478.24063 451.04062 477.05313Q451.04062 476.25626 451.41562 475.64688Q451.79062 475.02188 452.47812 474.69376Q453.16562 474.36563 454.44687 474.11563Q456.18124 473.7875 456.8375 473.50626L456.8375 473.25626Q456.8375 472.55313 456.47812 472.25626Q456.13437 471.94376 455.16562 471.94376Q454.50937 471.94376 454.13437 472.20938Q453.75937 472.45938 453.54062 473.11563ZM456.8375 475.11563Q456.36874 475.27188 455.3375 475.49063Q454.30624 475.70938 453.99374 475.92813Q453.50937 476.27188 453.50937 476.80313Q453.50937 477.31876 453.9 477.69376Q454.29062 478.06876 454.88437 478.06876Q455.55624 478.06876 456.15 477.63126Q456.60312 477.30313 456.74374 476.81876Q456.8375 476.49063 456.8375 475.61563L456.8375 475.11563ZM461.50937 470.27188L463.79062 470.27188L463.79062 471.5375Q465.00937 470.05313 466.69687 470.05313Q467.5875 470.05313 468.24374 470.42813Q468.91562 470.7875 469.3375 471.5375Q469.94687 470.7875 470.65 470.42813Q471.36874 470.05313 472.18124 470.05313Q473.2125 470.05313 473.91562 470.475Q474.63437 470.89688 474.97812 471.69376Q475.24374 472.30313 475.24374 473.63126L475.24374 479.6L472.75937 479.6L472.75937 474.27188Q472.75937 472.88126 472.50937 472.475Q472.16562 471.94376 471.4625 471.94376Q470.93124 471.94376 470.47812 472.27188Q470.025 472.58438 469.82187 473.19376Q469.61874 473.80313 469.61874 475.11563L469.61874 479.6L467.15 479.6L467.15 474.49063Q467.15 473.11563 467.00937 472.725Q466.88437 472.33438 466.60312 472.14688Q466.3375 471.94376 465.85312 471.94376Q465.29062 471.94376 464.82187 472.25626Q464.36874 472.55313 464.16562 473.14688Q463.97812 473.725 463.97812 475.06876L463.97812 479.6L461.50937 479.6L461.50937 470.27188ZM495.10312 478.02188L493.61874 479.92813Q492.50937 479.39688 491.50937 478.45938Q490.72812 479.1625 489.8375 479.50626Q488.9625 479.83438 487.75937 479.83438Q485.3375 479.83438 484.13437 478.475Q483.19687 477.42813 483.19687 476.06876Q483.19687 474.83438 483.93124 473.85Q484.66562 472.85 486.13437 472.11563Q485.47812 471.33438 485.13437 470.63126Q484.80624 469.92813 484.80624 469.2875Q484.80624 468.11563 485.74374 467.30313Q486.68124 466.49063 488.41562 466.49063Q490.0875 466.49063 491.025 467.35Q491.9625 468.19376 491.9625 469.42813Q491.9625 470.20938 491.49374 470.9125Q491.025 471.61563 489.61874 472.50626L491.41562 474.86563Q491.72812 474.30313 491.94687 473.39688L494.18124 473.9125Q493.85312 475.1 493.60312 475.64688Q493.35312 476.19376 493.07187 476.56876Q493.49374 476.95938 494.15 477.42813Q494.80624 477.88126 495.10312 478.02188ZM488.38437 471.02188L489.05624 470.50626Q489.79062 469.94376 489.79062 469.38126Q489.79062 468.89688 489.43124 468.56876Q489.0875 468.24063 488.47812 468.24063Q487.88437 468.24063 487.54062 468.5375Q487.2125 468.81876 487.2125 469.20938Q487.2125 469.6625 487.775 470.31876L488.38437 471.02188ZM487.41562 473.70938Q486.57187 474.13126 486.15 474.74063Q485.72812 475.35 485.72812 475.975Q485.72812 476.77188 486.24374 477.2875Q486.775 477.7875 487.65 477.7875Q488.22812 477.7875 488.75937 477.56876Q489.30624 477.33438 489.93124 476.80313L487.41562 473.70938ZM501.7125 479.6L501.7125 466.70938L507.19687 466.70938Q509.25937 466.70938 510.19687 467.06876Q511.13437 467.4125 511.69687 468.30313Q512.2594 469.17813 512.2594 470.33438Q512.2594 471.77188 511.4 472.725Q510.55624 473.6625 508.85312 473.9125Q509.69687 474.4125 510.24374 475.00626Q510.79062 475.58438 511.72812 477.08438L513.3063 479.6L510.19687 479.6L508.30624 476.80313Q507.30624 475.2875 506.93124 474.89688Q506.57187 474.50626 506.15 474.36563Q505.74374 474.225 504.85312 474.225L504.32187 474.225L504.32187 479.6L501.7125 479.6ZM504.32187 472.1625L506.24374 472.1625Q508.11874 472.1625 508.5875 472.00626Q509.05624 471.85 509.30624 471.45938Q509.57187 471.06876 509.57187 470.49063Q509.57187 469.85 509.22812 469.44376Q508.88437 469.0375 508.24374 468.94376Q507.93124 468.89688 506.35312 468.89688L504.32187 468.89688L504.32187 472.1625ZM520.10315 476.63126L522.5563 477.0375Q522.0875 478.39688 521.0563 479.11563Q520.04065 479.81876 518.4938 479.81876Q516.0563 479.81876 514.9 478.225Q513.97815 476.94376 513.97815 475.00626Q513.97815 472.67813 515.1813 471.36563Q516.4 470.05313 518.2594 470.05313Q520.3375 470.05313 521.54065 471.42813Q522.7438 472.80313 522.6969 475.64688L516.5094 475.64688Q516.525 476.74063 517.0875 477.35Q517.66565 477.95938 518.525 477.95938Q519.10315 477.95938 519.4938 477.64688Q519.9 477.33438 520.10315 476.63126ZM520.2438 474.13126Q520.2125 473.05313 519.6813 472.50626Q519.15 471.94376 518.4 471.94376Q517.5875 471.94376 517.0719 472.5375Q516.54065 473.11563 516.54065 474.13126L520.2438 474.13126ZM524.8219 476.94376L527.3063 476.55313Q527.4625 477.27188 527.9469 477.64688Q528.4313 478.02188 529.29065 478.02188Q530.2594 478.02188 530.7438 477.67813Q531.0563 477.42813 531.0563 477.02188Q531.0563 476.74063 530.8844 476.55313Q530.6969 476.38126 530.0563 476.225Q527.0719 475.56876 526.275 475.02188Q525.16565 474.27188 525.16565 472.9125Q525.16565 471.70938 526.1188 470.88126Q527.0875 470.05313 529.0875 470.05313Q531.0094 470.05313 531.9313 470.67813Q532.8688 471.30313 533.22815 472.52188L530.9 472.95938Q530.7438 472.4125 530.3219 472.13126Q529.91565 471.83438 529.1344 471.83438Q528.16565 471.83438 527.7438 472.1Q527.4625 472.30313 527.4625 472.6Q527.4625 472.86563 527.7125 473.05313Q528.04065 473.30313 530.0094 473.75626Q531.97815 474.19376 532.775 474.85Q533.54065 475.50626 533.54065 476.67813Q533.54065 477.95938 532.4625 478.89688Q531.4 479.81876 529.29065 479.81876Q527.3844 479.81876 526.275 479.0375Q525.16565 478.25626 524.8219 476.94376ZM541.10315 476.63126L543.5563 477.0375Q543.0875 478.39688 542.0563 479.11563Q541.04065 479.81876 539.4938 479.81876Q537.0563 479.81876 535.9 478.225Q534.97815 476.94376 534.97815 475.00626Q534.97815 472.67813 536.1813 471.36563Q537.4 470.05313 539.2594 470.05313Q541.3375 470.05313 542.54065 471.42813Q543.7438 472.80313 543.6969 475.64688L537.5094 475.64688Q537.525 476.74063 538.0875 477.35Q538.66565 477.95938 539.525 477.95938Q540.10315 477.95938 540.4938 477.64688Q540.9 477.33438 541.10315 476.63126ZM541.2438 474.13126Q541.2125 473.05313 540.6813 472.50626Q540.15 471.94376 539.4 471.94376Q538.5875 471.94376 538.0719 472.5375Q537.54065 473.11563 537.54065 474.13126L541.2438 474.13126ZM549.0563 479.6L546.5875 479.6L546.5875 470.27188L548.8844 470.27188L548.8844 471.6Q549.4625 470.64688 549.9313 470.35Q550.41565 470.05313 551.0094 470.05313Q551.85315 470.05313 552.6344 470.52188L551.8688 472.67813Q551.2438 472.27188 550.7125 472.27188Q550.1969 472.27188 549.8219 472.55313Q549.4625 472.83438 549.2594 473.58438Q549.0563 474.33438 549.0563 476.70938L549.0563 479.6ZM556.2594 479.6L552.4938 470.27188L555.0875 470.27188L556.85315 475.02188L557.35315 476.61563Q557.5563 476.00626 557.6188 475.81876Q557.72815 475.42813 557.8688 475.02188L559.65 470.27188L562.1969 470.27188L558.47815 479.6L556.2594 479.6ZM570.10315 476.63126L572.5563 477.0375Q572.0875 478.39688 571.0563 479.11563Q570.04065 479.81876 568.4938 479.81876Q566.0563 479.81876 564.9 478.225Q563.97815 476.94376 563.97815 475.00626Q563.97815 472.67813 565.1813 471.36563Q566.4 470.05313 568.2594 470.05313Q570.3375 470.05313 571.54065 471.42813Q572.7438 472.80313 572.6969 475.64688L566.5094 475.64688Q566.525 476.74063 567.0875 477.35Q567.66565 477.95938 568.525 477.95938Q569.10315 477.95938 569.4938 477.64688Q569.9 477.33438 570.10315 476.63126ZM570.2438 474.13126Q570.2125 473.05313 569.6813 472.50626Q569.15 471.94376 568.4 471.94376Q567.5875 471.94376 567.0719 472.5375Q566.54065 473.11563 566.54065 474.13126L570.2438 474.13126ZM584.79065 483.38126L583.0875 483.38126Q581.7438 481.36563 581.04065 479.17813Q580.3375 476.975 580.3375 474.92813Q580.3375 472.39688 581.2125 470.13126Q581.9625 468.1625 583.1344 466.49063L584.8219 466.49063Q583.60315 469.1625 583.15 471.0375Q582.7125 472.89688 582.7125 474.99063Q582.7125 476.42813 582.97815 477.94376Q583.2438 479.44376 583.7125 480.81876Q584.0094 481.70938 584.79065 483.38126ZM586.0719 476.17813L588.4625 475.89688Q588.5875 476.80313 589.0875 477.2875Q589.5875 477.77188 590.29065 477.77188Q591.0563 477.77188 591.5719 477.19376Q592.10315 476.61563 592.10315 475.63126Q592.10315 474.69376 591.60315 474.14688Q591.10315 473.6 590.3844 473.6Q589.91565 473.6 589.2438 473.7875L589.525 471.77188Q590.525 471.80313 591.04065 471.35Q591.5719 470.88126 591.5719 470.11563Q591.5719 469.45938 591.1813 469.08438Q590.8063 468.69376 590.16565 468.69376Q589.525 468.69376 589.0719 469.13126Q588.6344 469.56876 588.54065 470.4125L586.2594 470.02188Q586.4938 468.86563 586.97815 468.1625Q587.4625 467.45938 588.3063 467.06876Q589.16565 466.6625 590.22815 466.6625Q592.0563 466.6625 593.15 467.81876Q594.0563 468.77188 594.0563 469.95938Q594.0563 471.6625 592.1969 472.67813Q593.3063 472.9125 593.9625 473.74063Q594.6344 474.56876 594.6344 475.725Q594.6344 477.42813 593.4 478.63126Q592.16565 479.81876 590.3063 479.81876Q588.5719 479.81876 587.41565 478.81876Q586.2594 477.80313 586.0719 476.17813ZM600.3375 466.6625Q602.2125 466.6625 603.2594 467.99063Q604.525 469.58438 604.525 473.24063Q604.525 476.89688 603.2594 478.50626Q602.2125 479.81876 600.3375 479.81876Q598.4625 479.81876 597.3063 478.38126Q596.15 476.92813 596.15 473.225Q596.15 469.58438 597.41565 467.975Q598.4625 466.6625 600.3375 466.6625ZM600.3375 468.70938Q599.8844 468.70938 599.525 469.00626Q599.1813 469.2875 598.9938 470.02188Q598.7438 470.975 598.7438 473.24063Q598.7438 475.50626 598.9625 476.36563Q599.1969 477.20938 599.54065 477.49063Q599.8844 477.77188 600.3375 477.77188Q600.79065 477.77188 601.1344 477.49063Q601.4938 477.19376 601.6813 476.45938Q601.9469 475.50626 601.9469 473.24063Q601.9469 470.975 601.7125 470.13126Q601.47815 469.2875 601.1344 469.00626Q600.79065 468.70938 600.3375 468.70938ZM606.6969 479.6L606.6969 477.13126L609.16565 477.13126L609.16565 479.6L606.6969 479.6ZM611.1969 476.2875L613.66565 476.0375Q613.7594 476.86563 614.275 477.35Q614.8063 477.83438 615.47815 477.83438Q616.2594 477.83438 616.79065 477.20938Q617.3219 476.58438 617.3219 475.31876Q617.3219 474.13126 616.79065 473.5375Q616.2594 472.94376 615.41565 472.94376Q614.35315 472.94376 613.5094 473.88126L611.4938 473.6L612.7594 466.89688L619.29065 466.89688L619.29065 469.20938L614.6344 469.20938L614.2438 471.39688Q615.0719 470.975 615.9313 470.975Q617.5875 470.975 618.72815 472.17813Q619.8688 473.36563 619.8688 475.27188Q619.8688 476.86563 618.9469 478.11563Q617.6813 479.81876 615.4469 479.81876Q613.66565 479.81876 612.54065 478.86563Q611.41565 477.89688 611.1969 476.2875ZM621.0719 476.17813L623.4625 475.89688Q623.5875 476.80313 624.0875 477.2875Q624.5875 477.77188 625.29065 477.77188Q626.0563 477.77188 626.5719 477.19376Q627.10315 476.61563 627.10315 475.63126Q627.10315 474.69376 626.60315 474.14688Q626.10315 473.6 625.3844 473.6Q624.91565 473.6 624.2438 473.7875L624.525 471.77188Q625.525 471.80313 626.04065 471.35Q626.5719 470.88126 626.5719 470.11563Q626.5719 469.45938 626.1813 469.08438Q625.8063 468.69376 625.16565 468.69376Q624.525 468.69376 624.0719 469.13126Q623.6344 469.56876 623.54065 470.4125L621.2594 470.02188Q621.4938 468.86563 621.97815 468.1625Q622.4625 467.45938 623.3063 467.06876Q624.16565 466.6625 625.22815 466.6625Q627.0563 466.6625 628.15 467.81876Q629.0563 468.77188 629.0563 469.95938Q629.0563 471.6625 627.1969 472.67813Q628.3063 472.9125 628.9625 473.74063Q629.6344 474.56876 629.6344 475.725Q629.6344 477.42813 628.4 478.63126Q627.16565 479.81876 625.3063 479.81876Q623.5719 479.81876 622.41565 478.81876Q621.2594 477.80313 621.0719 476.17813ZM631.1813 469.89688Q631.1813 468.1625 631.9313 467.33438Q632.6969 466.49063 634.0094 466.49063Q635.35315 466.49063 636.10315 467.33438Q636.8688 468.1625 636.8688 469.89688Q636.8688 471.63126 636.10315 472.475Q635.35315 473.30313 634.04065 473.30313Q632.6969 473.30313 631.9313 472.475Q631.1813 471.63126 631.1813 469.89688ZM633.10315 469.88126Q633.10315 471.13126 633.4 471.56876Q633.6188 471.88126 634.0094 471.88126Q634.4 471.88126 634.6188 471.56876Q634.9 471.13126 634.9 469.88126Q634.9 468.61563 634.6188 468.19376Q634.4 467.88126 634.0094 467.88126Q633.6188 467.88126 633.4 468.19376Q633.10315 468.61563 633.10315 469.88126ZM635.8844 480.1L634.0563 480.1L640.91565 466.49063L642.6969 466.49063L635.8844 480.1ZM639.8688 476.70938Q639.8688 474.975 640.6344 474.14688Q641.4 473.30313 642.7125 473.30313Q644.04065 473.30313 644.79065 474.14688Q645.5563 474.975 645.5563 476.70938Q645.5563 478.44376 644.79065 479.2875Q644.04065 480.11563 642.7438 480.11563Q641.4 480.11563 640.6344 479.2875Q639.8688 478.44376 639.8688 476.70938ZM641.8063 476.69376Q641.8063 477.95938 642.0875 478.38126Q642.3063 478.70938 642.6969 478.70938Q643.0875 478.70938 643.3063 478.38126Q643.5875 477.95938 643.5875 476.69376Q643.5875 475.44376 643.3063 475.00626Q643.0875 474.69376 642.6969 474.69376Q642.3063 474.69376 642.0875 475.00626Q641.8063 475.44376 641.8063 476.69376ZM648.0094 483.38126Q648.7438 481.81876 649.04065 480.975Q649.3375 480.14688 649.5875 479.06876Q649.8375 477.975 649.9625 476.99063Q650.0875 476.00626 650.0875 474.99063Q650.0875 472.89688 649.6344 471.0375Q649.1969 469.1625 647.9938 466.49063L649.66565 466.49063Q650.9938 468.38126 651.72815 470.50626Q652.4625 472.61563 652.4625 474.80313Q652.4625 476.63126 651.8844 478.74063Q651.22815 481.1 649.7125 483.38126L648.0094 483.38126Z" fill-rule="nonzero"/><path fill="#14bf51" d="M183.5 498.1C183.5 501.4137 180.8137 504.1 177.5 504.1C174.1863 504.1 171.5 501.4137 171.5 498.1C171.5 494.7863 174.1863 492.1 177.5 492.1C180.8137 492.1 183.5 494.7863 183.5 498.1Z" fill-rule="nonzero"/><path fill="#ffffff" d="M192.79688 491.70938L197.5625 491.70938Q199.17188 491.70938 200.01562 491.95938Q201.14062 492.2875 201.95312 493.14688Q202.76562 494.00626 203.1875 495.24063Q203.60938 496.475 203.60938 498.2875Q203.60938 499.86563 203.20312 501.02188Q202.71875 502.42813 201.82812 503.30313Q201.15625 503.95938 200.0 504.33438Q199.14062 504.6 197.70312 504.6L192.79688 504.6L192.79688 491.70938ZM195.40625 493.89688L195.40625 502.42813L197.34375 502.42813Q198.4375 502.42813 198.92188 502.30313Q199.54688 502.14688 199.96875 501.77188Q200.39062 501.39688 200.64062 500.5375Q200.90625 499.6625 200.90625 498.1625Q200.90625 496.67813 200.64062 495.88126Q200.39062 495.06876 199.90625 494.63126Q199.4375 494.17813 198.70312 494.02188Q198.15625 493.89688 196.57812 493.89688L195.40625 493.89688ZM217.42188 504.6L214.59375 504.6L213.46875 501.67813L208.32812 501.67813L207.26562 504.6L204.5 504.6L209.51562 491.70938L212.26562 491.70938L217.42188 504.6ZM212.64062 499.50626L210.85938 494.725L209.125 499.50626L212.64062 499.50626ZM218.28125 498.24063Q218.28125 496.27188 218.875 494.92813Q219.3125 493.94376 220.0625 493.1625Q220.82812 492.38126 221.73438 492.00626Q222.9375 491.49063 224.51562 491.49063Q227.35938 491.49063 229.0625 493.25626Q230.78125 495.02188 230.78125 498.17813Q230.78125 501.2875 229.07812 503.05313Q227.39062 504.81876 224.54688 504.81876Q221.67188 504.81876 219.96875 503.06876Q218.28125 501.31876 218.28125 498.24063ZM220.96875 498.14688Q220.96875 500.33438 221.96875 501.475Q222.98438 502.6 224.54688 502.6Q226.09375 502.6 227.09375 501.475Q228.09375 500.35 228.09375 498.11563Q228.09375 495.89688 227.125 494.81876Q226.15625 493.725 224.54688 493.725Q222.9375 493.725 221.95312 494.83438Q220.96875 495.92813 220.96875 498.14688ZM237.51562 501.1625L237.51562 498.69376L242.35938 498.69376L242.35938 501.1625L237.51562 501.1625ZM248.73438 504.6L248.73438 491.70938L251.32812 491.70938L251.32812 504.6L248.73438 504.6ZM262.28125 504.6L259.8125 504.6L259.8125 499.83438Q259.8125 498.31876 259.65625 497.88126Q259.5 497.44376 259.14062 497.19376Q258.78125 496.94376 258.28125 496.94376Q257.64062 496.94376 257.125 497.30313Q256.625 497.64688 256.4375 498.225Q256.25 498.80313 256.25 500.36563L256.25 504.6L253.78125 504.6L253.78125 495.27188L256.0625 495.27188L256.0625 496.63126Q257.29688 495.05313 259.14062 495.05313Q259.96875 495.05313 260.64062 495.35Q261.3125 495.64688 261.65625 496.1Q262.01562 496.55313 262.14062 497.14688Q262.28125 497.725 262.28125 498.80313L262.28125 504.6ZM264.79688 494.00626L264.79688 491.70938L267.26562 491.70938L267.26562 494.00626L264.79688 494.00626ZM264.79688 504.6L264.79688 495.27188L267.26562 495.27188L267.26562 504.6L264.79688 504.6ZM274.07812 495.27188L274.07812 497.24063L272.39062 497.24063L272.39062 500.99063Q272.39062 502.13126 272.4375 502.33438Q272.48438 502.52188 272.65625 502.64688Q272.82812 502.75626 273.07812 502.75626Q273.40625 502.75626 274.0625 502.52188L274.28125 504.44376Q273.40625 504.81876 272.32812 504.81876Q271.65625 504.81876 271.10938 504.6Q270.57812 504.36563 270.32812 504.00626Q270.07812 503.64688 269.98438 503.0375Q269.90625 502.61563 269.90625 501.30313L269.90625 497.24063L268.76562 497.24063L268.76562 495.27188L269.90625 495.27188L269.90625 493.4125L272.39062 491.975L272.39062 495.27188L274.07812 495.27188ZM275.79688 494.00626L275.79688 491.70938L278.26562 491.70938L278.26562 494.00626L275.79688 494.00626ZM275.79688 504.6L275.79688 495.27188L278.26562 495.27188L278.26562 504.6L275.79688 504.6ZM282.64062 498.11563L280.39062 497.70938Q280.78125 496.35 281.70312 495.70938Q282.625 495.05313 284.4375 495.05313Q286.09375 495.05313 286.89062 495.44376Q287.70312 495.83438 288.03125 496.44376Q288.375 497.0375 288.375 498.64688L288.34375 501.5375Q288.34375 502.75626 288.45312 503.35Q288.57812 503.92813 288.90625 504.6L286.46875 504.6Q286.35938 504.35 286.21875 503.86563Q286.15625 503.64688 286.14062 503.58438Q285.5 504.19376 284.78125 504.50626Q284.0625 504.81876 283.25 504.81876Q281.79688 504.81876 280.96875 504.0375Q280.14062 503.24063 280.14062 502.05313Q280.14062 501.25626 280.51562 500.64688Q280.89062 500.02188 281.57812 499.69376Q282.26562 499.36563 283.54688 499.11563Q285.28125 498.7875 285.9375 498.50626L285.9375 498.25626Q285.9375 497.55313 285.57812 497.25626Q285.23438 496.94376 284.26562 496.94376Q283.60938 496.94376 283.23438 497.20938Q282.85938 497.45938 282.64062 498.11563ZM285.9375 500.11563Q285.46875 500.27188 284.4375 500.49063Q283.40625 500.70938 283.09375 500.92813Q282.60938 501.27188 282.60938 501.80313Q282.60938 502.31876 283.0 502.69376Q283.39062 503.06876 283.98438 503.06876Q284.65625 503.06876 285.25 502.63126Q285.70312 502.30313 285.84375 501.81876Q285.9375 501.49063 285.9375 500.61563L285.9375 500.11563ZM290.79688 504.6L290.79688 491.70938L293.26562 491.70938L293.26562 504.6L290.79688 504.6ZM300.15625 500.4125L302.6875 500.1625Q302.90625 501.42813 303.60938 502.0375Q304.3125 502.63126 305.5 502.63126Q306.75 502.63126 307.39062 502.1Q308.03125 501.56876 308.03125 500.85Q308.03125 500.39688 307.75 500.08438Q307.48438 499.75626 306.82812 499.52188Q306.35938 499.36563 304.73438 498.95938Q302.64062 498.44376 301.79688 497.67813Q300.60938 496.61563 300.60938 495.08438Q300.60938 494.1 301.17188 493.25626Q301.73438 492.39688 302.78125 491.94376Q303.82812 491.49063 305.3125 491.49063Q307.75 491.49063 308.96875 492.55313Q310.20312 493.61563 310.26562 495.39688L307.65625 495.50626Q307.48438 494.52188 306.9375 494.08438Q306.39062 493.64688 305.29688 493.64688Q304.15625 493.64688 303.51562 494.11563Q303.10938 494.4125 303.10938 494.9125Q303.10938 495.36563 303.48438 495.69376Q303.98438 496.11563 305.875 496.56876Q307.78125 497.00626 308.6875 497.49063Q309.59375 497.95938 310.10938 498.80313Q310.625 499.63126 310.625 500.85Q310.625 501.95938 310.0 502.92813Q309.39062 503.88126 308.26562 504.36563Q307.14062 504.83438 305.46875 504.83438Q303.03125 504.83438 301.71875 503.70938Q300.40625 502.56876 300.15625 500.4125ZM318.20312 501.63126L320.65625 502.0375Q320.1875 503.39688 319.15625 504.11563Q318.14062 504.81876 316.59375 504.81876Q314.15625 504.81876 313.0 503.225Q312.07812 501.94376 312.07812 500.00626Q312.07812 497.67813 313.28125 496.36563Q314.5 495.05313 316.35938 495.05313Q318.4375 495.05313 319.64062 496.42813Q320.84375 497.80313 320.79688 500.64688L314.60938 500.64688Q314.625 501.74063 315.1875 502.35Q315.76562 502.95938 316.625 502.95938Q317.20312 502.95938 317.59375 502.64688Q318.0 502.33438 318.20312 501.63126ZM318.34375 499.13126Q318.3125 498.05313 317.78125 497.50626Q317.25 496.94376 316.5 496.94376Q315.6875 496.94376 315.17188 497.5375Q314.64062 498.11563 314.64062 499.13126L318.34375 499.13126ZM326.15625 504.6L323.6875 504.6L323.6875 495.27188L325.98438 495.27188L325.98438 496.6Q326.5625 495.64688 327.03125 495.35Q327.51562 495.05313 328.10938 495.05313Q328.95312 495.05313 329.73438 495.52188L328.96875 497.67813Q328.34375 497.27188 327.8125 497.27188Q327.29688 497.27188 326.92188 497.55313Q326.5625 497.83438 326.35938 498.58438Q326.15625 499.33438 326.15625 501.70938L326.15625 504.6ZM333.35938 504.6L329.59375 495.27188L332.1875 495.27188L333.95312 500.02188L334.45312 501.61563Q334.65625 501.00626 334.71875 500.81876Q334.82812 500.42813 334.96875 500.02188L336.75 495.27188L339.29688 495.27188L335.57812 504.6L333.35938 504.6ZM341.79688 494.00626L341.79688 491.70938L344.26562 491.70938L344.26562 494.00626L341.79688 494.00626ZM341.79688 504.6L341.79688 495.27188L344.26562 495.27188L344.26562 504.6L341.79688 504.6ZM354.9375 498.02188L352.5 498.45938Q352.375 497.74063 351.9375 497.36563Q351.5 496.99063 350.8125 496.99063Q349.89062 496.99063 349.32812 497.63126Q348.78125 498.27188 348.78125 499.77188Q348.78125 501.42813 349.34375 502.11563Q349.90625 502.80313 350.84375 502.80313Q351.54688 502.80313 351.98438 502.39688Q352.4375 501.99063 352.625 501.02188L355.04688 501.42813Q354.67188 503.1 353.59375 503.95938Q352.53125 504.81876 350.73438 504.81876Q348.6875 504.81876 347.46875 503.52188Q346.25 502.225 346.25 499.94376Q346.25 497.63126 347.46875 496.35Q348.6875 495.05313 350.78125 495.05313Q352.48438 495.05313 353.48438 495.7875Q354.48438 496.52188 354.9375 498.02188ZM362.20312 501.63126L364.65625 502.0375Q364.1875 503.39688 363.15625 504.11563Q362.14062 504.81876 360.59375 504.81876Q358.15625 504.81876 357.0 503.225Q356.07812 501.94376 356.07812 500.00626Q356.07812 497.67813 357.28125 496.36563Q358.5 495.05313 360.35938 495.05313Q362.4375 495.05313 363.64062 496.42813Q364.84375 497.80313 364.79688 500.64688L358.60938 500.64688Q358.625 501.74063 359.1875 502.35Q359.76562 502.95938 360.625 502.95938Q361.20312 502.95938 361.59375 502.64688Q362.0 502.33438 362.20312 501.63126ZM362.34375 499.13126Q362.3125 498.05313 361.78125 497.50626Q361.25 496.94376 360.5 496.94376Q359.6875 496.94376 359.17188 497.5375Q358.64062 498.11563 358.64062 499.13126L362.34375 499.13126ZM372.8125 504.6L372.8125 491.70938L376.98438 491.70938Q379.35938 491.70938 380.07812 491.9125Q381.1875 492.19376 381.9375 493.17813Q382.6875 494.14688 382.6875 495.67813Q382.6875 496.86563 382.25 497.67813Q381.8125 498.475 381.14062 498.94376Q380.48438 499.4125 379.8125 499.55313Q378.875 499.74063 377.10938 499.74063L375.40625 499.74063L375.40625 504.6L372.8125 504.6ZM375.40625 493.89688L375.40625 497.55313L376.82812 497.55313Q378.375 497.55313 378.89062 497.35Q379.40625 497.14688 379.70312 496.725Q380.0 496.2875 380.0 495.70938Q380.0 495.00626 379.57812 494.55313Q379.17188 494.1 378.54688 493.975Q378.07812 493.89688 376.67188 493.89688L375.40625 493.89688ZM387.15625 504.6L384.6875 504.6L384.6875 495.27188L386.98438 495.27188L386.98438 496.6Q387.5625 495.64688 388.03125 495.35Q388.51562 495.05313 389.10938 495.05313Q389.95312 495.05313 390.73438 495.52188L389.96875 497.67813Q389.34375 497.27188 388.8125 497.27188Q388.29688 497.27188 387.92188 497.55313Q387.5625 497.83438 387.35938 498.58438Q387.15625 499.33438 387.15625 501.70938L387.15625 504.6ZM391.21875 499.80313Q391.21875 498.56876 391.82812 497.42813Q392.4375 496.27188 393.54688 495.6625Q394.65625 495.05313 396.03125 495.05313Q398.14062 495.05313 399.5 496.42813Q400.85938 497.80313 400.85938 499.9125Q400.85938 502.02188 399.48438 503.42813Q398.125 504.81876 396.04688 504.81876Q394.76562 504.81876 393.59375 504.24063Q392.4375 503.64688 391.82812 502.5375Q391.21875 501.4125 391.21875 499.80313ZM393.75 499.92813Q393.75 501.31876 394.40625 502.06876Q395.07812 502.80313 396.03125 502.80313Q397.0 502.80313 397.65625 502.06876Q398.3125 501.31876 398.3125 499.9125Q398.3125 498.5375 397.65625 497.80313Q397.0 497.06876 396.03125 497.06876Q395.07812 497.06876 394.40625 497.80313Q393.75 498.5375 393.75 499.92813ZM405.35938 504.6L401.59375 495.27188L404.1875 495.27188L405.95312 500.02188L406.45312 501.61563Q406.65625 501.00626 406.71875 500.81876Q406.82812 500.42813 406.96875 500.02188L408.75 495.27188L411.29688 495.27188L407.57812 504.6L405.35938 504.6ZM413.79688 494.00626L413.79688 491.70938L416.26562 491.70938L416.26562 494.00626L413.79688 494.00626ZM413.79688 504.6L413.79688 495.27188L416.26562 495.27188L416.26562 504.6L413.79688 504.6ZM427.35938 504.6L425.0625 504.6L425.0625 503.225Q424.48438 504.02188 423.70312 504.42813Q422.9375 504.81876 422.14062 504.81876Q420.53125 504.81876 419.375 503.52188Q418.23438 502.225 418.23438 499.89688Q418.23438 497.52188 419.34375 496.2875Q420.46875 495.05313 422.17188 495.05313Q423.73438 495.05313 424.89062 496.35L424.89062 491.70938L427.35938 491.70938L427.35938 504.6ZM420.76562 499.725Q420.76562 501.225 421.17188 501.89688Q421.76562 502.86563 422.84375 502.86563Q423.70312 502.86563 424.29688 502.14688Q424.89062 501.4125 424.89062 499.975Q424.89062 498.36563 424.3125 497.6625Q423.73438 496.94376 422.82812 496.94376Q421.95312 496.94376 421.35938 497.64688Q420.76562 498.33438 420.76562 499.725ZM435.20312 501.63126L437.65625 502.0375Q437.1875 503.39688 436.15625 504.11563Q435.14062 504.81876 433.59375 504.81876Q431.15625 504.81876 430.0 503.225Q429.07812 501.94376 429.07812 500.00626Q429.07812 497.67813 430.28125 496.36563Q431.5 495.05313 433.35938 495.05313Q435.4375 495.05313 436.64062 496.42813Q437.84375 497.80313 437.79688 500.64688L431.60938 500.64688Q431.625 501.74063 432.1875 502.35Q432.76562 502.95938 433.625 502.95938Q434.20312 502.95938 434.59375 502.64688Q435.0 502.33438 435.20312 501.63126ZM435.34375 499.13126Q435.3125 498.05313 434.78125 497.50626Q434.25 496.94376 433.5 496.94376Q432.6875 496.94376 432.17188 497.5375Q431.64062 498.11563 431.64062 499.13126L435.34375 499.13126ZM443.15625 504.6L440.6875 504.6L440.6875 495.27188L442.98438 495.27188L442.98438 496.6Q443.5625 495.64688 444.03125 495.35Q444.51562 495.05313 445.10938 495.05313Q445.95312 495.05313 446.73438 495.52188L445.96875 497.67813Q445.34375 497.27188 444.8125 497.27188Q444.29688 497.27188 443.92188 497.55313Q443.5625 497.83438 443.35938 498.58438Q443.15625 499.33438 443.15625 501.70938L443.15625 504.6ZM446.92188 501.94376L449.40625 501.55313Q449.5625 502.27188 450.04688 502.64688Q450.53125 503.02188 451.39062 503.02188Q452.35938 503.02188 452.84375 502.67813Q453.15625 502.42813 453.15625 502.02188Q453.15625 501.74063 452.98438 501.55313Q452.79688 501.38126 452.15625 501.225Q449.17188 500.56876 448.375 500.02188Q447.26562 499.27188 447.26562 497.9125Q447.26562 496.70938 448.21875 495.88126Q449.1875 495.05313 451.1875 495.05313Q453.10938 495.05313 454.03125 495.67813Q454.96875 496.30313 455.32812 497.52188L453.0 497.95938Q452.84375 497.4125 452.42188 497.13126Q452.01562 496.83438 451.23438 496.83438Q450.26562 496.83438 449.84375 497.1Q449.5625 497.30313 449.5625 497.6Q449.5625 497.86563 449.8125 498.05313Q450.14062 498.30313 452.10938 498.75626Q454.07812 499.19376 454.875 499.85Q455.64062 500.50626 455.64062 501.67813Q455.64062 502.95938 454.5625 503.89688Q453.5 504.81876 451.39062 504.81876Q449.48438 504.81876 448.375 504.0375Q447.26562 503.25626 446.92188 501.94376ZM466.89062 508.38126L465.1875 508.38126Q463.84375 506.36563 463.14062 504.17813Q462.4375 501.975 462.4375 499.92813Q462.4375 497.39688 463.3125 495.13126Q464.0625 493.1625 465.23438 491.49063L466.92188 491.49063Q465.70312 494.1625 465.25 496.0375Q464.8125 497.89688 464.8125 499.99063Q464.8125 501.42813 465.07812 502.94376Q465.34375 504.44376 465.8125 505.81876Q466.10938 506.70938 466.89062 508.38126ZM476.60938 502.30313L476.60938 504.6L467.95312 504.6Q468.09375 503.30313 468.79688 502.14688Q469.5 500.975 471.5625 499.0375Q473.23438 497.49063 473.625 496.92813Q474.125 496.17813 474.125 495.42813Q474.125 494.6 473.67188 494.1625Q473.23438 493.70938 472.45312 493.70938Q471.6875 493.70938 471.21875 494.17813Q470.76562 494.64688 470.70312 495.725L468.23438 495.475Q468.45312 493.44376 469.60938 492.55313Q470.78125 491.6625 472.51562 491.6625Q474.42188 491.6625 475.51562 492.69376Q476.60938 493.725 476.60938 495.24063Q476.60938 496.11563 476.29688 496.9125Q475.98438 497.69376 475.3125 498.55313Q474.85938 499.13126 473.6875 500.20938Q472.51562 501.27188 472.20312 501.63126Q471.89062 501.975 471.70312 502.30313L476.60938 502.30313ZM478.79688 504.6L478.79688 502.13126L481.26562 502.13126L481.26562 504.6L478.79688 504.6ZM491.60938 502.30313L491.60938 504.6L482.95312 504.6Q483.09375 503.30313 483.79688 502.14688Q484.5 500.975 486.5625 499.0375Q488.23438 497.49063 488.625 496.92813Q489.125 496.17813 489.125 495.42813Q489.125 494.6 488.67188 494.1625Q488.23438 493.70938 487.45312 493.70938Q486.6875 493.70938 486.21875 494.17813Q485.76562 494.64688 485.70312 495.725L483.23438 495.475Q483.45312 493.44376 484.60938 492.55313Q485.78125 491.6625 487.51562 491.6625Q489.42188 491.6625 490.51562 492.69376Q491.60938 493.725 491.60938 495.24063Q491.60938 496.11563 491.29688 496.9125Q490.98438 497.69376 490.3125 498.55313Q489.85938 499.13126 488.6875 500.20938Q487.51562 501.27188 487.20312 501.63126Q486.89062 501.975 486.70312 502.30313L491.60938 502.30313ZM493.29688 501.2875L495.76562 501.0375Q495.85938 501.86563 496.375 502.35Q496.90625 502.83438 497.57812 502.83438Q498.35938 502.83438 498.89062 502.20938Q499.42188 501.58438 499.42188 500.31876Q499.42188 499.13126 498.89062 498.5375Q498.35938 497.94376 497.51562 497.94376Q496.45312 497.94376 495.60938 498.88126L493.59375 498.6L494.85938 491.89688L501.39062 491.89688L501.39062 494.20938L496.73438 494.20938L496.34375 496.39688Q497.17188 495.975 498.03125 495.975Q499.6875 495.975 500.82812 497.17813Q501.96875 498.36563 501.96875 500.27188Q501.96875 501.86563 501.04688 503.11563Q499.78125 504.81876 497.54688 504.81876Q495.76562 504.81876 494.64062 503.86563Q493.51562 502.89688 493.29688 501.2875ZM503.28125 494.89688Q503.28125 493.1625 504.03125 492.33438Q504.79688 491.49063 506.10938 491.49063Q507.45312 491.49063 508.20312 492.33438Q508.96875 493.1625 508.96875 494.89688Q508.96875 496.63126 508.20312 497.475Q507.45312 498.30313 506.14062 498.30313Q504.79688 498.30313 504.03125 497.475Q503.28125 496.63126 503.28125 494.89688ZM505.20312 494.88126Q505.20312 496.13126 505.5 496.56876Q505.71875 496.88126 506.10938 496.88126Q506.5 496.88126 506.71875 496.56876Q507.0 496.13126 507.0 494.88126Q507.0 493.61563 506.71875 493.19376Q506.5 492.88126 506.10938 492.88126Q505.71875 492.88126 505.5 493.19376Q505.20312 493.61563 505.20312 494.88126ZM507.98438 505.1L506.15625 505.1L513.0156 491.49063L514.7969 491.49063L507.98438 505.1ZM511.96875 501.70938Q511.96875 499.975 512.7344 499.14688Q513.5 498.30313 514.8125 498.30313Q516.1406 498.30313 516.8906 499.14688Q517.65625 499.975 517.65625 501.70938Q517.65625 503.44376 516.8906 504.2875Q516.1406 505.11563 514.84375 505.11563Q513.5 505.11563 512.7344 504.2875Q511.96875 503.44376 511.96875 501.70938ZM513.90625 501.69376Q513.90625 502.95938 514.1875 503.38126Q514.40625 503.70938 514.7969 503.70938Q515.1875 503.70938 515.40625 503.38126Q515.6875 502.95938 515.6875 501.69376Q515.6875 500.44376 515.40625 500.00626Q515.1875 499.69376 514.7969 499.69376Q514.40625 499.69376 514.1875 500.00626Q513.90625 500.44376 513.90625 501.69376ZM520.1094 508.38126Q520.84375 506.81876 521.1406 505.975Q521.4375 505.14688 521.6875 504.06876Q521.9375 502.975 522.0625 501.99063Q522.1875 501.00626 522.1875 499.99063Q522.1875 497.89688 521.7344 496.0375Q521.2969 494.1625 520.09375 491.49063L521.7656 491.49063Q523.09375 493.38126 523.8281 495.50626Q524.5625 497.61563 524.5625 499.80313Q524.5625 501.63126 523.9844 503.74063Q523.3281 506.1 521.8125 508.38126L520.1094 508.38126Z" fill-rule="nonzero"/><path fill="#ffb4ff" d="M41.4 523.1C41.4 526.4137 38.713707 529.1 35.4 529.1C32.086292 529.1 29.4 526.4137 29.4 523.1C29.4 519.7863 32.086292 517.1 35.4 517.1C38.713707 517.1 41.4 519.7863 41.4 523.1Z" fill-rule="nonzero"/><path fill="#ffffff" d="M50.696877 516.70935L55.4625 516.70935Q57.071877 516.70935 57.915627 516.95935Q59.040627 517.2875 59.853127 518.14685Q60.665627 519.0062 61.0875 520.2406Q61.509377 521.475 61.509377 523.2875Q61.509377 524.8656 61.103127 526.02185Q60.61875 527.4281 59.728127 528.3031Q59.05625 528.95935 57.9 529.33435Q57.040627 529.6 55.603127 529.6L50.696877 529.6L50.696877 516.70935ZM53.30625 518.89685L53.30625 527.4281L55.24375 527.4281Q56.3375 527.4281 56.821877 527.3031Q57.446877 527.14685 57.86875 526.77185Q58.290627 526.39685 58.540627 525.5375Q58.80625 524.6625 58.80625 523.1625Q58.80625 521.6781 58.540627 520.8812Q58.290627 520.0687 57.80625 519.6312Q57.3375 519.1781 56.603127 519.02185Q56.05625 518.89685 54.478127 518.89685L53.30625 518.89685ZM75.32188 529.6L72.49375 529.6L71.36875 526.6781L66.22813 526.6781L65.16563 529.6L62.4 529.6L67.41563 516.70935L70.16563 516.70935L75.32188 529.6ZM70.54063 524.5062L68.75938 519.725L67.025 524.5062L70.54063 524.5062ZM76.18125 523.2406Q76.18125 521.27185 76.775 519.9281Q77.2125 518.9437 77.9625 518.1625Q78.72813 517.3812 79.63438 517.0062Q80.8375 516.4906 82.41563 516.4906Q85.25938 516.4906 86.9625 518.2562Q88.68125 520.02185 88.68125 523.1781Q88.68125 526.2875 86.97813 528.0531Q85.29063 529.8187 82.44688 529.8187Q79.57188 529.8187 77.86875 528.0687Q76.18125 526.3187 76.18125 523.2406ZM78.86875 523.14685Q78.86875 525.33435 79.86875 526.475Q80.88438 527.6 82.44688 527.6Q83.99375 527.6 84.99375 526.475Q85.99375 525.35 85.99375 523.1156Q85.99375 520.89685 85.025 519.8187Q84.05625 518.725 82.44688 518.725Q80.8375 518.725 79.85313 519.83435Q78.86875 520.9281 78.86875 523.14685ZM95.41563 526.1625L95.41563 523.6937L100.25938 523.6937L100.25938 526.1625L95.41563 526.1625ZM106.63438 529.6L106.63438 516.70935L109.22813 516.70935L109.22813 529.6L106.63438 529.6ZM120.18125 529.6L117.7125 529.6L117.7125 524.83435Q117.7125 523.3187 117.55625 522.8812Q117.4 522.4437 117.04063 522.1937Q116.68125 521.9437 116.18125 521.9437Q115.54063 521.9437 115.025 522.3031Q114.525 522.64685 114.3375 523.225Q114.15 523.8031 114.15 525.3656L114.15 529.6L111.68125 529.6L111.68125 520.27185L113.9625 520.27185L113.9625 521.6312Q115.19688 520.0531 117.04063 520.0531Q117.86875 520.0531 118.54063 520.35Q119.2125 520.64685 119.55625 521.1Q119.91563 521.5531 120.04063 522.14685Q120.18125 522.725 120.18125 523.8031L120.18125 529.6ZM122.69688 519.0062L122.69688 516.70935L125.16563 516.70935L125.16563 519.0062L122.69688 519.0062ZM122.69688 529.6L122.69688 520.27185L125.16563 520.27185L125.16563 529.6L122.69688 529.6ZM131.97812 520.27185L131.97812 522.2406L130.29062 522.2406L130.29062 525.9906Q130.29062 527.1312 130.3375 527.33435Q130.38437 527.52185 130.55624 527.64685Q130.72812 527.7562 130.97812 527.7562Q131.30624 527.7562 131.9625 527.52185L132.18124 529.4437Q131.30624 529.8187 130.22812 529.8187Q129.55624 529.8187 129.00937 529.6Q128.47812 529.3656 128.22812 529.0062Q127.97813 528.64685 127.88438 528.0375Q127.80625 527.6156 127.80625 526.3031L127.80625 522.2406L126.66563 522.2406L126.66563 520.27185L127.80625 520.27185L127.80625 518.4125L130.29062 516.975L130.29062 520.27185L131.97812 520.27185ZM133.69687 519.0062L133.69687 516.70935L136.16562 516.70935L136.16562 519.0062L133.69687 519.0062ZM133.69687 529.6L133.69687 520.27185L136.16562 520.27185L136.16562 529.6L133.69687 529.6ZM140.54062 523.1156L138.29062 522.70935Q138.68124 521.35 139.60312 520.70935Q140.525 520.0531 142.3375 520.0531Q143.99374 520.0531 144.79062 520.4437Q145.60312 520.83435 145.93124 521.4437Q146.275 522.0375 146.275 523.64685L146.24374 526.5375Q146.24374 527.7562 146.35312 528.35Q146.47812 528.9281 146.80624 529.6L144.36874 529.6Q144.25937 529.35 144.11874 528.8656Q144.05624 528.64685 144.04062 528.58435Q143.4 529.1937 142.68124 529.5062Q141.9625 529.8187 141.15 529.8187Q139.69687 529.8187 138.86874 529.0375Q138.04062 528.2406 138.04062 527.0531Q138.04062 526.2562 138.41562 525.64685Q138.79062 525.02185 139.47812 524.6937Q140.16562 524.3656 141.44687 524.1156Q143.18124 523.7875 143.8375 523.5062L143.8375 523.2562Q143.8375 522.5531 143.47812 522.2562Q143.13437 521.9437 142.16562 521.9437Q141.50937 521.9437 141.13437 522.20935Q140.75937 522.45935 140.54062 523.1156ZM143.8375 525.1156Q143.36874 525.27185 142.3375 525.4906Q141.30624 525.70935 140.99374 525.9281Q140.50937 526.27185 140.50937 526.8031Q140.50937 527.3187 140.9 527.6937Q141.29062 528.0687 141.88437 528.0687Q142.55624 528.0687 143.15 527.6312Q143.60312 527.3031 143.74374 526.8187Q143.8375 526.4906 143.8375 525.6156L143.8375 525.1156ZM148.69687 529.6L148.69687 516.70935L151.16562 516.70935L151.16562 529.6L148.69687 529.6ZM170.32187 529.6L167.49374 529.6L166.36874 526.6781L161.22812 526.6781L160.16562 529.6L157.4 529.6L162.41562 516.70935L165.16562 516.70935L170.32187 529.6ZM165.54062 524.5062L163.75937 519.725L162.025 524.5062L165.54062 524.5062ZM171.69687 519.0062L171.69687 516.70935L174.16562 516.70935L174.16562 519.0062L171.69687 519.0062ZM171.69687 529.6L171.69687 520.27185L174.16562 520.27185L174.16562 529.6L171.69687 529.6ZM179.05624 529.6L176.5875 529.6L176.5875 520.27185L178.88437 520.27185L178.88437 521.6Q179.4625 520.64685 179.93124 520.35Q180.41562 520.0531 181.00937 520.0531Q181.85312 520.0531 182.63437 520.52185L181.86874 522.6781Q181.24374 522.27185 180.7125 522.27185Q180.19687 522.27185 179.82187 522.5531Q179.4625 522.83435 179.25937 523.58435Q179.05624 524.33435 179.05624 526.70935L179.05624 529.6ZM192.25937 529.6L189.9625 529.6L189.9625 528.225Q189.38437 529.02185 188.60312 529.4281Q187.8375 529.8187 187.04062 529.8187Q185.43124 529.8187 184.275 528.52185Q183.13437 527.225 183.13437 524.89685Q183.13437 522.52185 184.24374 521.2875Q185.36874 520.0531 187.07187 520.0531Q188.63437 520.0531 189.79062 521.35L189.79062 516.70935L192.25937 516.70935L192.25937 529.6ZM185.66562 524.725Q185.66562 526.225 186.07187 526.89685Q186.66562 527.8656 187.74374 527.8656Q188.60312 527.8656 189.19687 527.14685Q189.79062 526.4125 189.79062 524.975Q189.79062 523.3656 189.2125 522.6625Q188.63437 521.9437 187.72812 521.9437Q186.85312 521.9437 186.25937 522.64685Q185.66562 523.33435 185.66562 524.725ZM197.05624 529.6L194.5875 529.6L194.5875 520.27185L196.88437 520.27185L196.88437 521.6Q197.4625 520.64685 197.93124 520.35Q198.41562 520.0531 199.00937 520.0531Q199.85312 520.0531 200.63437 520.52185L199.86874 522.6781Q199.24374 522.27185 198.7125 522.27185Q198.19687 522.27185 197.82187 522.5531Q197.4625 522.83435 197.25937 523.58435Q197.05624 524.33435 197.05624 526.70935L197.05624 529.6ZM201.11874 524.8031Q201.11874 523.5687 201.72812 522.4281Q202.3375 521.27185 203.44687 520.6625Q204.55624 520.0531 205.93124 520.0531Q208.04062 520.0531 209.4 521.4281Q210.75937 522.8031 210.75937 524.9125Q210.75937 527.02185 209.38437 528.4281Q208.025 529.8187 205.94687 529.8187Q204.66562 529.8187 203.49374 529.2406Q202.3375 528.64685 201.72812 527.5375Q201.11874 526.4125 201.11874 524.8031ZM203.65 524.9281Q203.65 526.3187 204.30624 527.0687Q204.97812 527.8031 205.93124 527.8031Q206.9 527.8031 207.55624 527.0687Q208.2125 526.3187 208.2125 524.9125Q208.2125 523.5375 207.55624 522.8031Q206.9 522.0687 205.93124 522.0687Q204.97812 522.0687 204.30624 522.8031Q203.65 523.5375 203.65 524.9281ZM212.61874 520.27185L214.93124 520.27185L214.93124 521.6312Q215.36874 520.9281 216.13437 520.4906Q216.9 520.0531 217.8375 520.0531Q219.4625 520.0531 220.5875 521.33435Q221.72812 522.6 221.72812 524.8812Q221.72812 527.225 220.5875 528.52185Q219.44687 529.8187 217.82187 529.8187Q217.04062 529.8187 216.41562 529.5062Q215.79062 529.1937 215.0875 528.4437L215.0875 533.14685L212.61874 533.14685L212.61874 520.27185ZM215.07187 524.77185Q215.07187 526.35 215.68124 527.1Q216.30624 527.85 217.2125 527.85Q218.07187 527.85 218.63437 527.1625Q219.2125 526.475 219.2125 524.89685Q219.2125 523.4281 218.61874 522.725Q218.04062 522.0062 217.16562 522.0062Q216.25937 522.0062 215.66562 522.70935Q215.07187 523.39685 215.07187 524.77185ZM232.79062 533.3812L231.0875 533.3812Q229.74374 531.3656 229.04062 529.1781Q228.3375 526.975 228.3375 524.9281Q228.3375 522.39685 229.2125 520.1312Q229.9625 518.1625 231.13437 516.4906L232.82187 516.4906Q231.60312 519.1625 231.15 521.0375Q230.7125 522.89685 230.7125 524.9906Q230.7125 526.4281 230.97812 527.9437Q231.24374 529.4437 231.7125 530.8187Q232.00937 531.70935 232.79062 533.3812ZM240.47812 529.6L238.00937 529.6L238.00937 520.2875Q236.66562 521.5531 234.82187 522.1625L234.82187 519.9281Q235.79062 519.6 236.91562 518.725Q238.05624 517.83435 238.47812 516.6625L240.47812 516.6625L240.47812 529.6ZM250.47812 529.6L248.00937 529.6L248.00937 520.2875Q246.66562 521.5531 244.82187 522.1625L244.82187 519.9281Q245.79062 519.6 246.91562 518.725Q248.05624 517.83435 248.47812 516.6625L250.47812 516.6625L250.47812 529.6ZM254.69687 529.6L254.69687 527.1312L257.16562 527.1312L257.16562 529.6L254.69687 529.6ZM259.07187 526.1781L261.4625 525.89685Q261.5875 526.8031 262.0875 527.2875Q262.5875 527.77185 263.29062 527.77185Q264.05624 527.77185 264.57187 527.1937Q265.10312 526.6156 265.10312 525.6312Q265.10312 524.6937 264.60312 524.14685Q264.10312 523.6 263.38437 523.6Q262.91562 523.6 262.24374 523.7875L262.525 521.77185Q263.525 521.8031 264.04062 521.35Q264.57187 520.8812 264.57187 520.1156Q264.57187 519.45935 264.18124 519.08435Q263.80624 518.6937 263.16562 518.6937Q262.525 518.6937 262.07187 519.1312Q261.63437 519.5687 261.54062 520.4125L259.25937 520.02185Q259.49374 518.8656 259.97812 518.1625Q260.4625 517.45935 261.30624 517.0687Q262.16562 516.6625 263.22812 516.6625Q265.05624 516.6625 266.15 517.8187Q267.05624 518.77185 267.05624 519.95935Q267.05624 521.6625 265.19687 522.6781Q266.30624 522.9125 266.9625 523.7406Q267.63437 524.5687 267.63437 525.725Q267.63437 527.4281 266.4 528.6312Q265.16562 529.8187 263.30624 529.8187Q261.57187 529.8187 260.41562 528.8187Q259.25937 527.8031 259.07187 526.1781ZM275.47812 529.6L273.00937 529.6L273.00937 520.2875Q271.66562 521.5531 269.82187 522.1625L269.82187 519.9281Q270.79062 519.6 271.91562 518.725Q273.05624 517.83435 273.47812 516.6625L275.47812 516.6625L275.47812 529.6ZM279.18124 519.89685Q279.18124 518.1625 279.93124 517.33435Q280.69687 516.4906 282.00937 516.4906Q283.35312 516.4906 284.10312 517.33435Q284.86874 518.1625 284.86874 519.89685Q284.86874 521.6312 284.10312 522.475Q283.35312 523.3031 282.04062 523.3031Q280.69687 523.3031 279.93124 522.475Q279.18124 521.6312 279.18124 519.89685ZM281.10312 519.8812Q281.10312 521.1312 281.4 521.5687Q281.61874 521.8812 282.00937 521.8812Q282.4 521.8812 282.61874 521.5687Q282.9 521.1312 282.9 519.8812Q282.9 518.6156 282.61874 518.1937Q282.4 517.8812 282.00937 517.8812Q281.61874 517.8812 281.4 518.1937Q281.10312 518.6156 281.10312 519.8812ZM283.88437 530.1L282.05624 530.1L288.91562 516.4906L290.69687 516.4906L283.88437 530.1ZM287.86874 526.70935Q287.86874 524.975 288.63437 524.14685Q289.4 523.3031 290.7125 523.3031Q292.04062 523.3031 292.79062 524.14685Q293.55624 524.975 293.55624 526.70935Q293.55624 528.4437 292.79062 529.2875Q292.04062 530.1156 290.74374 530.1156Q289.4 530.1156 288.63437 529.2875Q287.86874 528.4437 287.86874 526.70935ZM289.80624 526.6937Q289.80624 527.95935 290.0875 528.3812Q290.30624 528.70935 290.69687 528.70935Q291.0875 528.70935 291.30624 528.3812Q291.5875 527.95935 291.5875 526.6937Q291.5875 525.4437 291.30624 525.0062Q291.0875 524.6937 290.69687 524.6937Q290.30624 524.6937 290.0875 525.0062Q289.80624 525.4437 289.80624 526.6937ZM296.00937 533.3812Q296.74374 531.8187 297.04062 530.975Q297.3375 530.14685 297.5875 529.0687Q297.8375 527.975 297.9625 526.9906Q298.0875 526.0062 298.0875 524.9906Q298.0875 522.89685 297.63437 521.0375Q297.19687 519.1625 295.99374 516.4906L297.66562 516.4906Q298.99374 518.3812 299.72812 520.5062Q300.4625 522.6156 300.4625 524.8031Q300.4625 526.6312 299.88437 528.7406Q299.22812 531.1 297.7125 533.3812L296.00937 533.3812Z" fill-rule="nonzero"/><path fill="#1470e8" d="M329.4 523.1C329.4 526.4137 326.7137 529.1 323.4 529.1C320.0863 529.1 317.4 526.4137 317.4 523.1C317.4 519.7863 320.0863 517.1 323.4 517.1C326.7137 517.1 329.4 519.7863 329.4 523.1Z" fill-rule="nonzero"/><path fill="#ffffff" d="M338.69687 516.70935L343.4625 516.70935Q345.07187 516.70935 345.91562 516.95935Q347.04062 517.2875 347.85312 518.14685Q348.66562 519.0062 349.0875 520.2406Q349.50937 521.475 349.50937 523.2875Q349.50937 524.8656 349.10312 526.02185Q348.61874 527.4281 347.72812 528.3031Q347.05624 528.95935 345.9 529.33435Q345.04062 529.6 343.60312 529.6L338.69687 529.6L338.69687 516.70935ZM341.30624 518.89685L341.30624 527.4281L343.24374 527.4281Q344.3375 527.4281 344.82187 527.3031Q345.44687 527.14685 345.86874 526.77185Q346.29062 526.39685 346.54062 525.5375Q346.80624 524.6625 346.80624 523.1625Q346.80624 521.6781 346.54062 520.8812Q346.29062 520.0687 345.80624 519.6312Q345.3375 519.1781 344.60312 519.02185Q344.05624 518.89685 342.47812 518.89685L341.30624 518.89685ZM363.32187 529.6L360.49374 529.6L359.36874 526.6781L354.22812 526.6781L353.16562 529.6L350.4 529.6L355.41562 516.70935L358.16562 516.70935L363.32187 529.6ZM358.54062 524.5062L356.75937 519.725L355.025 524.5062L358.54062 524.5062ZM364.18124 523.2406Q364.18124 521.27185 364.775 519.9281Q365.2125 518.9437 365.9625 518.1625Q366.72812 517.3812 367.63437 517.0062Q368.8375 516.4906 370.41562 516.4906Q373.25937 516.4906 374.9625 518.2562Q376.68124 520.02185 376.68124 523.1781Q376.68124 526.2875 374.97812 528.0531Q373.29062 529.8187 370.44687 529.8187Q367.57187 529.8187 365.86874 528.0687Q364.18124 526.3187 364.18124 523.2406ZM366.86874 523.14685Q366.86874 525.33435 367.86874 526.475Q368.88437 527.6 370.44687 527.6Q371.99374 527.6 372.99374 526.475Q373.99374 525.35 373.99374 523.1156Q373.99374 520.89685 373.025 519.8187Q372.05624 518.725 370.44687 518.725Q368.8375 518.725 367.85312 519.83435Q366.86874 520.9281 366.86874 523.14685ZM383.41562 526.1625L383.41562 523.6937L388.25937 523.6937L388.25937 526.1625L383.41562 526.1625ZM400.69687 524.8656L400.69687 522.6937L406.30624 522.6937L406.30624 527.8187Q405.49374 528.6156 403.93124 529.225Q402.38437 529.8187 400.80624 529.8187Q398.775 529.8187 397.275 528.975Q395.775 528.1156 395.00937 526.5531Q394.25937 524.975 394.25937 523.1156Q394.25937 521.1 395.10312 519.5375Q395.94687 517.975 397.57187 517.1312Q398.82187 516.4906 400.66562 516.4906Q403.05624 516.4906 404.4 517.5062Q405.75937 518.5062 406.15 520.2875L403.55624 520.77185Q403.29062 519.8187 402.54062 519.27185Q401.79062 518.725 400.66562 518.725Q398.9625 518.725 397.94687 519.8031Q396.94687 520.8812 396.94687 523.0062Q396.94687 525.3031 397.9625 526.45935Q398.97812 527.6 400.63437 527.6Q401.44687 527.6 402.25937 527.2875Q403.0875 526.95935 403.68124 526.4906L403.68124 524.8656L400.69687 524.8656ZM407.525 520.27185L410.15 520.27185L412.38437 526.89685L414.55624 520.27185L417.11874 520.27185L413.82187 529.2406L413.24374 530.8812Q412.91562 531.6937 412.61874 532.1156Q412.32187 532.5531 411.93124 532.8187Q411.55624 533.08435 410.99374 533.225Q410.44687 533.3812 409.74374 533.3812Q409.025 533.3812 408.3375 533.2406L408.11874 531.3031Q408.69687 531.4125 409.16562 531.4125Q410.025 531.4125 410.43124 530.9125Q410.85312 530.4125 411.07187 529.6312L407.525 520.27185ZM422.05624 529.6L419.5875 529.6L419.5875 520.27185L421.88437 520.27185L421.88437 521.6Q422.4625 520.64685 422.93124 520.35Q423.41562 520.0531 424.00937 520.0531Q424.85312 520.0531 425.63437 520.52185L424.86874 522.6781Q424.24374 522.27185 423.7125 522.27185Q423.19687 522.27185 422.82187 522.5531Q422.4625 522.83435 422.25937 523.58435Q422.05624 524.33435 422.05624 526.70935L422.05624 529.6ZM426.11874 524.8031Q426.11874 523.5687 426.72812 522.4281Q427.3375 521.27185 428.44687 520.6625Q429.55624 520.0531 430.93124 520.0531Q433.04062 520.0531 434.4 521.4281Q435.75937 522.8031 435.75937 524.9125Q435.75937 527.02185 434.38437 528.4281Q433.025 529.8187 430.94687 529.8187Q429.66562 529.8187 428.49374 529.2406Q427.3375 528.64685 426.72812 527.5375Q426.11874 526.4125 426.11874 524.8031ZM428.65 524.9281Q428.65 526.3187 429.30624 527.0687Q429.97812 527.8031 430.93124 527.8031Q431.9 527.8031 432.55624 527.0687Q433.2125 526.3187 433.2125 524.9125Q433.2125 523.5375 432.55624 522.8031Q431.9 522.0687 430.93124 522.0687Q429.97812 522.0687 429.30624 522.8031Q428.65 523.5375 428.65 524.9281ZM436.82187 526.9437L439.30624 526.5531Q439.4625 527.27185 439.94687 527.64685Q440.43124 528.02185 441.29062 528.02185Q442.25937 528.02185 442.74374 527.6781Q443.05624 527.4281 443.05624 527.02185Q443.05624 526.7406 442.88437 526.5531Q442.69687 526.3812 442.05624 526.225Q439.07187 525.5687 438.275 525.02185Q437.16562 524.27185 437.16562 522.9125Q437.16562 521.70935 438.11874 520.8812Q439.0875 520.0531 441.0875 520.0531Q443.00937 520.0531 443.93124 520.6781Q444.86874 521.3031 445.22812 522.52185L442.9 522.95935Q442.74374 522.4125 442.32187 522.1312Q441.91562 521.83435 441.13437 521.83435Q440.16562 521.83435 439.74374 522.1Q439.4625 522.3031 439.4625 522.6Q439.4625 522.8656 439.7125 523.0531Q440.04062 523.3031 442.00937 523.7562Q443.97812 524.1937 444.775 524.85Q445.54062 525.5062 445.54062 526.6781Q445.54062 527.95935 444.4625 528.89685Q443.4 529.8187 441.29062 529.8187Q439.38437 529.8187 438.275 529.0375Q437.16562 528.2562 436.82187 526.9437ZM455.8375 523.02185L453.4 523.45935Q453.275 522.7406 452.8375 522.3656Q452.4 521.9906 451.7125 521.9906Q450.79062 521.9906 450.22812 522.6312Q449.68124 523.27185 449.68124 524.77185Q449.68124 526.4281 450.24374 527.1156Q450.80624 527.8031 451.74374 527.8031Q452.44687 527.8031 452.88437 527.39685Q453.3375 526.9906 453.525 526.02185L455.94687 526.4281Q455.57187 528.1 454.49374 528.95935Q453.43124 529.8187 451.63437 529.8187Q449.5875 529.8187 448.36874 528.52185Q447.15 527.225 447.15 524.9437Q447.15 522.6312 448.36874 521.35Q449.5875 520.0531 451.68124 520.0531Q453.38437 520.0531 454.38437 520.7875Q455.38437 521.52185 455.8375 523.02185ZM457.11874 524.8031Q457.11874 523.5687 457.72812 522.4281Q458.3375 521.27185 459.44687 520.6625Q460.55624 520.0531 461.93124 520.0531Q464.04062 520.0531 465.4 521.4281Q466.75937 522.8031 466.75937 524.9125Q466.75937 527.02185 465.38437 528.4281Q464.025 529.8187 461.94687 529.8187Q460.66562 529.8187 459.49374 529.2406Q458.3375 528.64685 457.72812 527.5375Q457.11874 526.4125 457.11874 524.8031ZM459.65 524.9281Q459.65 526.3187 460.30624 527.0687Q460.97812 527.8031 461.93124 527.8031Q462.9 527.8031 463.55624 527.0687Q464.2125 526.3187 464.2125 524.9125Q464.2125 523.5375 463.55624 522.8031Q462.9 522.0687 461.93124 522.0687Q460.97812 522.0687 460.30624 522.8031Q459.65 523.5375 459.65 524.9281ZM468.61874 520.27185L470.93124 520.27185L470.93124 521.6312Q471.36874 520.9281 472.13437 520.4906Q472.9 520.0531 473.8375 520.0531Q475.4625 520.0531 476.5875 521.33435Q477.72812 522.6 477.72812 524.8812Q477.72812 527.225 476.5875 528.52185Q475.44687 529.8187 473.82187 529.8187Q473.04062 529.8187 472.41562 529.5062Q471.79062 529.1937 471.0875 528.4437L471.0875 533.14685L468.61874 533.14685L468.61874 520.27185ZM471.07187 524.77185Q471.07187 526.35 471.68124 527.1Q472.30624 527.85 473.2125 527.85Q474.07187 527.85 474.63437 527.1625Q475.2125 526.475 475.2125 524.89685Q475.2125 523.4281 474.61874 522.725Q474.04062 522.0062 473.16562 522.0062Q472.25937 522.0062 471.66562 522.70935Q471.07187 523.39685 471.07187 524.77185ZM485.10312 526.6312L487.55624 527.0375Q487.0875 528.39685 486.05624 529.1156Q485.04062 529.8187 483.49374 529.8187Q481.05624 529.8187 479.9 528.225Q478.97812 526.9437 478.97812 525.0062Q478.97812 522.6781 480.18124 521.3656Q481.4 520.0531 483.25937 520.0531Q485.3375 520.0531 486.54062 521.4281Q487.74374 522.8031 487.69687 525.64685L481.50937 525.64685Q481.525 526.7406 482.0875 527.35Q482.66562 527.95935 483.525 527.95935Q484.10312 527.95935 484.49374 527.64685Q484.9 527.33435 485.10312 526.6312ZM485.24374 524.1312Q485.2125 523.0531 484.68124 522.5062Q484.15 521.9437 483.4 521.9437Q482.5875 521.9437 482.07187 522.5375Q481.54062 523.1156 481.54062 524.1312L485.24374 524.1312ZM495.72812 529.6L495.72812 516.70935L504.55624 516.70935L504.55624 518.89685L498.32187 518.89685L498.32187 521.9437L503.7125 521.9437L503.7125 524.1312L498.32187 524.1312L498.32187 529.6L495.72812 529.6ZM506.11874 524.8031Q506.11874 523.5687 506.72812 522.4281Q507.3375 521.27185 508.44687 520.6625Q509.55624 520.0531 510.93124 520.0531Q513.04065 520.0531 514.4 521.4281Q515.7594 522.8031 515.7594 524.9125Q515.7594 527.02185 514.3844 528.4281Q513.025 529.8187 510.94687 529.8187Q509.66562 529.8187 508.49374 529.2406Q507.3375 528.64685 506.72812 527.5375Q506.11874 526.4125 506.11874 524.8031ZM508.65 524.9281Q508.65 526.3187 509.30624 527.0687Q509.97812 527.8031 510.93124 527.8031Q511.9 527.8031 512.5563 527.0687Q513.2125 526.3187 513.2125 524.9125Q513.2125 523.5375 512.5563 522.8031Q511.9 522.0687 510.93124 522.0687Q509.97812 522.0687 509.30624 522.8031Q508.65 523.5375 508.65 524.9281ZM523.8375 529.6L523.8375 528.20935Q523.3219 528.9437 522.4938 529.3812Q521.66565 529.8187 520.7438 529.8187Q519.8063 529.8187 519.0563 529.4125Q518.3063 528.9906 517.9625 528.2406Q517.6344 527.4906 517.6344 526.1781L517.6344 520.27185L520.10315 520.27185L520.10315 524.5531Q520.10315 526.52185 520.2438 526.975Q520.3844 527.4125 520.7438 527.6781Q521.10315 527.9281 521.65 527.9281Q522.29065 527.9281 522.79065 527.58435Q523.29065 527.2406 523.47815 526.725Q523.66565 526.20935 523.66565 524.20935L523.66565 520.27185L526.1344 520.27185L526.1344 529.6L523.8375 529.6ZM537.1813 529.6L534.7125 529.6L534.7125 524.83435Q534.7125 523.3187 534.5563 522.8812Q534.4 522.4437 534.04065 522.1937Q533.6813 521.9437 533.1813 521.9437Q532.54065 521.9437 532.025 522.3031Q531.525 522.64685 531.3375 523.225Q531.15 523.8031 531.15 525.3656L531.15 529.6L528.6813 529.6L528.6813 520.27185L530.9625 520.27185L530.9625 521.6312Q532.1969 520.0531 534.04065 520.0531Q534.8688 520.0531 535.54065 520.35Q536.2125 520.64685 536.5563 521.1Q536.91565 521.5531 537.04065 522.14685Q537.1813 522.725 537.1813 523.8031L537.1813 529.6ZM548.2594 529.6L545.9625 529.6L545.9625 528.225Q545.3844 529.02185 544.60315 529.4281Q543.8375 529.8187 543.04065 529.8187Q541.4313 529.8187 540.275 528.52185Q539.1344 527.225 539.1344 524.89685Q539.1344 522.52185 540.2438 521.2875Q541.3688 520.0531 543.0719 520.0531Q544.6344 520.0531 545.79065 521.35L545.79065 516.70935L548.2594 516.70935L548.2594 529.6ZM541.66565 524.725Q541.66565 526.225 542.0719 526.89685Q542.66565 527.8656 543.7438 527.8656Q544.60315 527.8656 545.1969 527.14685Q545.79065 526.4125 545.79065 524.975Q545.79065 523.3656 545.2125 522.6625Q544.6344 521.9437 543.72815 521.9437Q542.85315 521.9437 542.2594 522.64685Q541.66565 523.33435 541.66565 524.725ZM552.54065 523.1156L550.29065 522.70935Q550.6813 521.35 551.60315 520.70935Q552.525 520.0531 554.3375 520.0531Q555.9938 520.0531 556.79065 520.4437Q557.60315 520.83435 557.9313 521.4437Q558.275 522.0375 558.275 523.64685L558.2438 526.5375Q558.2438 527.7562 558.35315 528.35Q558.47815 528.9281 558.8063 529.6L556.3688 529.6Q556.2594 529.35 556.1188 528.8656Q556.0563 528.64685 556.04065 528.58435Q555.4 529.1937 554.6813 529.5062Q553.9625 529.8187 553.15 529.8187Q551.6969 529.8187 550.8688 529.0375Q550.04065 528.2406 550.04065 527.0531Q550.04065 526.2562 550.41565 525.64685Q550.79065 525.02185 551.47815 524.6937Q552.16565 524.3656 553.4469 524.1156Q555.1813 523.7875 555.8375 523.5062L555.8375 523.2562Q555.8375 522.5531 555.47815 522.2562Q555.1344 521.9437 554.16565 521.9437Q553.5094 521.9437 553.1344 522.20935Q552.7594 522.45935 552.54065 523.1156ZM555.8375 525.1156Q555.3688 525.27185 554.3375 525.4906Q553.3063 525.70935 552.9938 525.9281Q552.5094 526.27185 552.5094 526.8031Q552.5094 527.3187 552.9 527.6937Q553.29065 528.0687 553.8844 528.0687Q554.5563 528.0687 555.15 527.6312Q555.60315 527.3031 555.7438 526.8187Q555.8375 526.4906 555.8375 525.6156L555.8375 525.1156ZM564.97815 520.27185L564.97815 522.2406L563.29065 522.2406L563.29065 525.9906Q563.29065 527.1312 563.3375 527.33435Q563.3844 527.52185 563.5563 527.64685Q563.72815 527.7562 563.97815 527.7562Q564.3063 527.7562 564.9625 527.52185L565.1813 529.4437Q564.3063 529.8187 563.22815 529.8187Q562.5563 529.8187 562.0094 529.6Q561.47815 529.3656 561.22815 529.0062Q560.97815 528.64685 560.8844 528.0375Q560.8063 527.6156 560.8063 526.3031L560.8063 522.2406L559.66565 522.2406L559.66565 520.27185L560.8063 520.27185L560.8063 518.4125L563.29065 516.975L563.29065 520.27185L564.97815 520.27185ZM566.6969 519.0062L566.6969 516.70935L569.16565 516.70935L569.16565 519.0062L566.6969 519.0062ZM566.6969 529.6L566.6969 520.27185L569.16565 520.27185L569.16565 529.6L566.6969 529.6ZM571.1188 524.8031Q571.1188 523.5687 571.72815 522.4281Q572.3375 521.27185 573.4469 520.6625Q574.5563 520.0531 575.9313 520.0531Q578.04065 520.0531 579.4 521.4281Q580.7594 522.8031 580.7594 524.9125Q580.7594 527.02185 579.3844 528.4281Q578.025 529.8187 575.9469 529.8187Q574.66565 529.8187 573.4938 529.2406Q572.3375 528.64685 571.72815 527.5375Q571.1188 526.4125 571.1188 524.8031ZM573.65 524.9281Q573.65 526.3187 574.3063 527.0687Q574.97815 527.8031 575.9313 527.8031Q576.9 527.8031 577.5563 527.0687Q578.2125 526.3187 578.2125 524.9125Q578.2125 523.5375 577.5563 522.8031Q576.9 522.0687 575.9313 522.0687Q574.97815 522.0687 574.3063 522.8031Q573.65 523.5375 573.65 524.9281ZM591.1813 529.6L588.7125 529.6L588.7125 524.83435Q588.7125 523.3187 588.5563 522.8812Q588.4 522.4437 588.04065 522.1937Q587.6813 521.9437 587.1813 521.9437Q586.54065 521.9437 586.025 522.3031Q585.525 522.64685 585.3375 523.225Q585.15 523.8031 585.15 525.3656L585.15 529.6L582.6813 529.6L582.6813 520.27185L584.9625 520.27185L584.9625 521.6312Q586.1969 520.0531 588.04065 520.0531Q588.8688 520.0531 589.54065 520.35Q590.2125 520.64685 590.5563 521.1Q590.91565 521.5531 591.04065 522.14685Q591.1813 522.725 591.1813 523.8031L591.1813 529.6Z" fill-rule="nonzero"/><path fill="#91f5f5" d="M244.0 548.1C244.0 551.4137 241.3137 554.1 238.0 554.1C234.6863 554.1 232.0 551.4137 232.0 548.1C232.0 544.7863 234.6863 542.1 238.0 542.1C241.3137 542.1 244.0 544.7863 244.0 548.1Z" fill-rule="nonzero"/><path fill="#ffffff" d="M253.29688 541.70935L258.0625 541.70935Q259.67188 541.70935 260.51562 541.95935Q261.64062 542.2875 262.45312 543.14685Q263.26562 544.0062 263.6875 545.2406Q264.10938 546.475 264.10938 548.2875Q264.10938 549.8656 263.70312 551.02185Q263.21875 552.4281 262.32812 553.3031Q261.65625 553.95935 260.5 554.33435Q259.64062 554.6 258.20312 554.6L253.29688 554.6L253.29688 541.70935ZM255.90625 543.89685L255.90625 552.4281L257.84375 552.4281Q258.9375 552.4281 259.42188 552.3031Q260.04688 552.14685 260.46875 551.77185Q260.89062 551.39685 261.14062 550.5375Q261.40625 549.6625 261.40625 548.1625Q261.40625 546.6781 261.14062 545.8812Q260.89062 545.0687 260.40625 544.6312Q259.9375 544.1781 259.20312 544.02185Q258.65625 543.89685 257.07812 543.89685L255.90625 543.89685ZM277.92188 554.6L275.09375 554.6L273.96875 551.6781L268.82812 551.6781L267.76562 554.6L265.0 554.6L270.01562 541.70935L272.76562 541.70935L277.92188 554.6ZM273.14062 549.5062L271.35938 544.725L269.625 549.5062L273.14062 549.5062ZM278.78125 548.2406Q278.78125 546.27185 279.375 544.9281Q279.8125 543.9437 280.5625 543.1625Q281.32812 542.3812 282.23438 542.0062Q283.4375 541.4906 285.01562 541.4906Q287.85938 541.4906 289.5625 543.2562Q291.28125 545.02185 291.28125 548.1781Q291.28125 551.2875 289.57812 553.0531Q287.89062 554.8187 285.04688 554.8187Q282.17188 554.8187 280.46875 553.0687Q278.78125 551.3187 278.78125 548.2406ZM281.46875 548.14685Q281.46875 550.33435 282.46875 551.475Q283.48438 552.6 285.04688 552.6Q286.59375 552.6 287.59375 551.475Q288.59375 550.35 288.59375 548.1156Q288.59375 545.89685 287.625 544.8187Q286.65625 543.725 285.04688 543.725Q283.4375 543.725 282.45312 544.83435Q281.46875 545.9281 281.46875 548.14685ZM298.01562 551.1625L298.01562 548.6937L302.85938 548.6937L302.85938 551.1625L298.01562 551.1625ZM312.20312 554.6L312.20312 543.89685L308.39062 543.89685L308.39062 541.70935L318.625 541.70935L318.625 543.89685L314.8125 543.89685L314.8125 554.6L312.20312 554.6ZM322.65625 554.6L320.1875 554.6L320.1875 545.27185L322.48438 545.27185L322.48438 546.6Q323.0625 545.64685 323.53125 545.35Q324.01562 545.0531 324.60938 545.0531Q325.45312 545.0531 326.23438 545.52185L325.46875 547.6781Q324.84375 547.27185 324.3125 547.27185Q323.79688 547.27185 323.42188 547.5531Q323.0625 547.83435 322.85938 548.58435Q322.65625 549.33435 322.65625 551.70935L322.65625 554.6ZM332.70312 551.6312L335.15625 552.0375Q334.6875 553.39685 333.65625 554.1156Q332.64062 554.8187 331.09375 554.8187Q328.65625 554.8187 327.5 553.225Q326.57812 551.9437 326.57812 550.0062Q326.57812 547.6781 327.78125 546.3656Q329.0 545.0531 330.85938 545.0531Q332.9375 545.0531 334.14062 546.4281Q335.34375 547.8031 335.29688 550.64685L329.10938 550.64685Q329.125 551.7406 329.6875 552.35Q330.26562 552.95935 331.125 552.95935Q331.70312 552.95935 332.09375 552.64685Q332.5 552.33435 332.70312 551.6312ZM332.84375 549.1312Q332.8125 548.0531 332.28125 547.5062Q331.75 546.9437 331.0 546.9437Q330.1875 546.9437 329.67188 547.5375Q329.14062 548.1156 329.14062 549.1312L332.84375 549.1312ZM340.14062 548.1156L337.89062 547.70935Q338.28125 546.35 339.20312 545.70935Q340.125 545.0531 341.9375 545.0531Q343.59375 545.0531 344.39062 545.4437Q345.20312 545.83435 345.53125 546.4437Q345.875 547.0375 345.875 548.64685L345.84375 551.5375Q345.84375 552.7562 345.95312 553.35Q346.07812 553.9281 346.40625 554.6L343.96875 554.6Q343.85938 554.35 343.71875 553.8656Q343.65625 553.64685 343.64062 553.58435Q343.0 554.1937 342.28125 554.5062Q341.5625 554.8187 340.75 554.8187Q339.29688 554.8187 338.46875 554.0375Q337.64062 553.2406 337.64062 552.0531Q337.64062 551.2562 338.01562 550.64685Q338.39062 550.02185 339.07812 549.6937Q339.76562 549.3656 341.04688 549.1156Q342.78125 548.7875 343.4375 548.5062L343.4375 548.2562Q343.4375 547.5531 343.07812 547.2562Q342.73438 546.9437 341.76562 546.9437Q341.10938 546.9437 340.73438 547.20935Q340.35938 547.45935 340.14062 548.1156ZM343.4375 550.1156Q342.96875 550.27185 341.9375 550.4906Q340.90625 550.70935 340.59375 550.9281Q340.10938 551.27185 340.10938 551.8031Q340.10938 552.3187 340.5 552.6937Q340.89062 553.0687 341.48438 553.0687Q342.15625 553.0687 342.75 552.6312Q343.20312 552.3031 343.34375 551.8187Q343.4375 551.4906 343.4375 550.6156L343.4375 550.1156ZM347.42188 551.9437L349.90625 551.5531Q350.0625 552.27185 350.54688 552.64685Q351.03125 553.02185 351.89062 553.02185Q352.85938 553.02185 353.34375 552.6781Q353.65625 552.4281 353.65625 552.02185Q353.65625 551.7406 353.48438 551.5531Q353.29688 551.3812 352.65625 551.225Q349.67188 550.5687 348.875 550.02185Q347.76562 549.27185 347.76562 547.9125Q347.76562 546.70935 348.71875 545.8812Q349.6875 545.0531 351.6875 545.0531Q353.60938 545.0531 354.53125 545.6781Q355.46875 546.3031 355.82812 547.52185L353.5 547.95935Q353.34375 547.4125 352.92188 547.1312Q352.51562 546.83435 351.73438 546.83435Q350.76562 546.83435 350.34375 547.1Q350.0625 547.3031 350.0625 547.6Q350.0625 547.8656 350.3125 548.0531Q350.64062 548.3031 352.60938 548.7562Q354.57812 549.1937 355.375 549.85Q356.14062 550.5062 356.14062 551.6781Q356.14062 552.95935 355.0625 553.89685Q354.0 554.8187 351.89062 554.8187Q349.98438 554.8187 348.875 554.0375Q347.76562 553.2562 347.42188 551.9437ZM364.4375 554.6L364.4375 553.20935Q363.92188 553.9437 363.09375 554.3812Q362.26562 554.8187 361.34375 554.8187Q360.40625 554.8187 359.65625 554.4125Q358.90625 553.9906 358.5625 553.2406Q358.23438 552.4906 358.23438 551.1781L358.23438 545.27185L360.70312 545.27185L360.70312 549.5531Q360.70312 551.52185 360.84375 551.975Q360.98438 552.4125 361.34375 552.6781Q361.70312 552.9281 362.25 552.9281Q362.89062 552.9281 363.39062 552.58435Q363.89062 552.2406 364.07812 551.725Q364.26562 551.20935 364.26562 549.20935L364.26562 545.27185L366.73438 545.27185L366.73438 554.6L364.4375 554.6ZM371.65625 554.6L369.1875 554.6L369.1875 545.27185L371.48438 545.27185L371.48438 546.6Q372.0625 545.64685 372.53125 545.35Q373.01562 545.0531 373.60938 545.0531Q374.45312 545.0531 375.23438 545.52185L374.46875 547.6781Q373.84375 547.27185 373.3125 547.27185Q372.79688 547.27185 372.42188 547.5531Q372.0625 547.83435 371.85938 548.58435Q371.65625 549.33435 371.65625 551.70935L371.65625 554.6ZM375.125 545.27185L377.75 545.27185L379.98438 551.89685L382.15625 545.27185L384.71875 545.27185L381.42188 554.2406L380.84375 555.8812Q380.51562 556.6937 380.21875 557.1156Q379.92188 557.5531 379.53125 557.8187Q379.15625 558.08435 378.59375 558.225Q378.04688 558.3812 377.34375 558.3812Q376.625 558.3812 375.9375 558.2406L375.71875 556.3031Q376.29688 556.4125 376.76562 556.4125Q377.625 556.4125 378.03125 555.9125Q378.45312 555.4125 378.67188 554.6312L375.125 545.27185ZM396.39062 558.3812L394.6875 558.3812Q393.34375 556.3656 392.64062 554.1781Q391.9375 551.975 391.9375 549.9281Q391.9375 547.39685 392.8125 545.1312Q393.5625 543.1625 394.73438 541.4906L396.42188 541.4906Q395.20312 544.1625 394.75 546.0375Q394.3125 547.89685 394.3125 549.9906Q394.3125 551.4281 394.57812 552.9437Q394.84375 554.4437 395.3125 555.8187Q395.60938 556.70935 396.39062 558.3812ZM397.67188 551.1781L400.0625 550.89685Q400.1875 551.8031 400.6875 552.2875Q401.1875 552.77185 401.89062 552.77185Q402.65625 552.77185 403.17188 552.1937Q403.70312 551.6156 403.70312 550.6312Q403.70312 549.6937 403.20312 549.14685Q402.70312 548.6 401.98438 548.6Q401.51562 548.6 400.84375 548.7875L401.125 546.77185Q402.125 546.8031 402.64062 546.35Q403.17188 545.8812 403.17188 545.1156Q403.17188 544.45935 402.78125 544.08435Q402.40625 543.6937 401.76562 543.6937Q401.125 543.6937 400.67188 544.1312Q400.23438 544.5687 400.14062 545.4125L397.85938 545.02185Q398.09375 543.8656 398.57812 543.1625Q399.0625 542.45935 399.90625 542.0687Q400.76562 541.6625 401.82812 541.6625Q403.65625 541.6625 404.75 542.8187Q405.65625 543.77185 405.65625 544.95935Q405.65625 546.6625 403.79688 547.6781Q404.90625 547.9125 405.5625 548.7406Q406.23438 549.5687 406.23438 550.725Q406.23438 552.4281 405.0 553.6312Q403.76562 554.8187 401.90625 554.8187Q400.17188 554.8187 399.01562 553.8187Q397.85938 552.8031 397.67188 551.1781ZM416.125 544.8656L413.73438 545.1312Q413.65625 544.39685 413.28125 544.0531Q412.92188 543.6937 412.32812 543.6937Q411.54688 543.6937 411.0 544.39685Q410.46875 545.1 410.32812 547.3187Q411.25 546.225 412.60938 546.225Q414.15625 546.225 415.26562 547.4125Q416.375 548.58435 416.375 550.4437Q416.375 552.4281 415.20312 553.6312Q414.04688 554.8187 412.23438 554.8187Q410.28125 554.8187 409.01562 553.3031Q407.76562 551.7875 407.76562 548.33435Q407.76562 544.7875 409.07812 543.225Q410.39062 541.6625 412.46875 541.6625Q413.9375 541.6625 414.90625 542.4906Q415.875 543.3031 416.125 544.8656ZM410.53125 550.2562Q410.53125 551.45935 411.07812 552.1156Q411.64062 552.77185 412.35938 552.77185Q413.03125 552.77185 413.48438 552.2406Q413.95312 551.6937 413.95312 550.475Q413.95312 549.225 413.45312 548.64685Q412.96875 548.0531 412.23438 548.0531Q411.51562 548.0531 411.01562 548.6156Q410.53125 549.1625 410.53125 550.2562ZM418.29688 554.6L418.29688 552.1312L420.76562 552.1312L420.76562 554.6L418.29688 554.6ZM427.60938 554.6L427.60938 552.0062L422.32812 552.0062L422.32812 549.85L427.92188 541.6625L430.0 541.6625L430.0 549.83435L431.59375 549.83435L431.59375 552.0062L430.0 552.0062L430.0 554.6L427.60938 554.6ZM427.60938 549.83435L427.60938 545.4281L424.64062 549.83435L427.60938 549.83435ZM437.60938 554.6L437.60938 552.0062L432.32812 552.0062L432.32812 549.85L437.92188 541.6625L440.0 541.6625L440.0 549.83435L441.59375 549.83435L441.59375 552.0062L440.0 552.0062L440.0 554.6L437.60938 554.6ZM437.60938 549.83435L437.60938 545.4281L434.64062 549.83435L437.60938 549.83435ZM442.78125 544.89685Q442.78125 543.1625 443.53125 542.33435Q444.29688 541.4906 445.60938 541.4906Q446.95312 541.4906 447.70312 542.33435Q448.46875 543.1625 448.46875 544.89685Q448.46875 546.6312 447.70312 547.475Q446.95312 548.3031 445.64062 548.3031Q444.29688 548.3031 443.53125 547.475Q442.78125 546.6312 442.78125 544.89685ZM444.70312 544.8812Q444.70312 546.1312 445.0 546.5687Q445.21875 546.8812 445.60938 546.8812Q446.0 546.8812 446.21875 546.5687Q446.5 546.1312 446.5 544.8812Q446.5 543.6156 446.21875 543.1937Q446.0 542.8812 445.60938 542.8812Q445.21875 542.8812 445.0 543.1937Q444.70312 543.6156 444.70312 544.8812ZM447.48438 555.1L445.65625 555.1L452.51562 541.4906L454.29688 541.4906L447.48438 555.1ZM451.46875 551.70935Q451.46875 549.975 452.23438 549.14685Q453.0 548.3031 454.3125 548.3031Q455.64062 548.3031 456.39062 549.14685Q457.15625 549.975 457.15625 551.70935Q457.15625 553.4437 456.39062 554.2875Q455.64062 555.1156 454.34375 555.1156Q453.0 555.1156 452.23438 554.2875Q451.46875 553.4437 451.46875 551.70935ZM453.40625 551.6937Q453.40625 552.95935 453.6875 553.3812Q453.90625 553.70935 454.29688 553.70935Q454.6875 553.70935 454.90625 553.3812Q455.1875 552.95935 455.1875 551.6937Q455.1875 550.4437 454.90625 550.0062Q454.6875 549.6937 454.29688 549.6937Q453.90625 549.6937 453.6875 550.0062Q453.40625 550.4437 453.40625 551.6937ZM459.60938 558.3812Q460.34375 556.8187 460.64062 555.975Q460.9375 555.14685 461.1875 554.0687Q461.4375 552.975 461.5625 551.9906Q461.6875 551.0062 461.6875 549.9906Q461.6875 547.89685 461.23438 546.0375Q460.79688 544.1625 459.59375 541.4906L461.26562 541.4906Q462.59375 543.3812 463.32812 545.5062Q464.0625 547.6156 464.0625 549.8031Q464.0625 551.6312 463.48438 553.7406Q462.82812 556.1 461.3125 558.3812L459.60938 558.3812Z" fill-rule="nonzero"/></svg>