<svg version="1.1" viewBox="0.0 0.0 760.0 569.0" fill="none" stroke="none" stroke-linecap="square" stroke-miterlimit="10" width="760" height="569" xmlns:xlink="http://www.w3.org/1999/xlink" xmlns="http://www.w3.org/2000/svg"><path fill="#ffffff" fill-opacity="0.0" d="M0 0L760.0 0L760.0 569.0L0 569.0L0 0Z" fill-rule="nonzero"/><path fill="#47a8bd" d="M380.0 28.45C451.90543 28.45 519.2971 63.50021 560.584 122.371155C601.8708 181.2421 611.8694 256.54276 587.3763 324.14807L380.0 249.01666Z" fill-rule="nonzero"/><path fill="#f5e663" d="M587.3763 324.14807C580.3341 343.58575 570.59406 361.93683 558.4422 378.6625L380.0 249.01666Z" fill-rule="nonzero"/><path fill="#ffad69" d="M558.4422 378.6625C516.9419 435.78275 450.6045 469.58334 380.0 469.58334L380.0 249.01666Z" fill-rule="nonzero"/><path fill="#9c3848" d="M380.0 469.58334C258.1844 469.58334 159.43333 370.83228 159.43333 249.01666C159.43333 127.20106 258.1844 28.45 380.0 28.45L380.0 249.01666Z" fill-rule="nonzero"/><path fill="#000000" d="M484.7892 158.77063L486.9142 158.52063Q487.00797 159.33313 487.44547 159.77063Q487.8986 160.1925 488.5392 160.1925Q489.2111 160.1925 489.67984 159.67688Q490.1486 159.16125 490.1486 158.28625Q490.1486 157.45813 489.69547 156.97375Q489.25797 156.48938 488.61734 156.48938Q488.19547 156.48938 487.6017 156.64563L487.8517 154.86438Q488.74234 154.88 489.2111 154.47375Q489.67984 154.0675 489.67984 153.38Q489.67984 152.80188 489.3361 152.45813Q488.99234 152.11438 488.4142 152.11438Q487.8517 152.11438 487.44547 152.505Q487.05484 152.89563 486.9767 153.64563L484.94547 153.30188Q485.1642 152.27063 485.5861 151.64563Q486.00797 151.02063 486.7736 150.67688Q487.5392 150.3175 488.4767 150.3175Q490.1017 150.3175 491.07047 151.34875Q491.88297 152.1925 491.88297 153.255Q491.88297 154.755 490.2267 155.66125Q491.2111 155.86438 491.80484 156.59875Q492.3986 157.33313 492.3986 158.38Q492.3986 159.88 491.2892 160.95813Q490.19547 162.02063 488.55484 162.02063Q486.99234 162.02063 485.9611 161.13Q484.94547 160.22375 484.7892 158.77063ZM497.57047 150.3175Q499.24234 150.3175 500.17984 151.505Q501.2892 152.91125 501.2892 156.16125Q501.2892 159.41125 500.1642 160.83313Q499.24234 162.02063 497.57047 162.02063Q495.8986 162.02063 494.86734 160.73938Q493.8517 159.4425 493.8517 156.14563Q493.8517 152.91125 494.9767 151.48938Q495.9142 150.3175 497.57047 150.3175ZM497.57047 152.13Q497.17984 152.13 496.86734 152.39563Q496.55484 152.64563 496.38297 153.30188Q496.1486 154.14563 496.1486 156.16125Q496.1486 158.17688 496.3517 158.9425Q496.55484 159.6925 496.86734 159.9425Q497.17984 160.1925 497.57047 160.1925Q497.9767 160.1925 498.2892 159.9425Q498.6017 159.67688 498.7736 159.02063Q498.99234 158.17688 498.99234 156.16125Q498.99234 154.14563 498.7892 153.39563Q498.5861 152.64563 498.2736 152.39563Q497.9767 152.13 497.57047 152.13ZM503.3361 161.8175L503.3361 159.61438L505.5236 159.61438L505.5236 161.8175L503.3361 161.8175ZM506.8986 158.86438L509.0861 158.64563Q509.17984 159.38 509.63297 159.8175Q510.1017 160.255 510.69547 160.255Q511.38297 160.255 511.8517 159.6925Q512.33606 159.13 512.33606 158.005Q512.33606 156.95813 511.86734 156.42688Q511.3986 155.89563 510.63297 155.89563Q509.69547 155.89563 508.94547 156.73938L507.1642 156.47375L508.2892 150.52063L514.08606 150.52063L514.08606 152.5675L509.94547 152.5675L509.6017 154.52063Q510.3361 154.14563 511.1017 154.14563Q512.57043 154.14563 513.58606 155.20813Q514.6017 156.27063 514.6017 157.97375Q514.6017 159.38 513.77356 160.48938Q512.6642 162.02063 510.67984 162.02063Q509.0861 162.02063 508.0861 161.16125Q507.0861 160.30188 506.8986 158.86438ZM515.7892 158.77063L517.9142 158.52063Q518.00793 159.33313 518.44543 159.77063Q518.89856 160.1925 519.5392 160.1925Q520.21106 160.1925 520.6798 159.67688Q521.14856 159.16125 521.14856 158.28625Q521.14856 157.45813 520.69543 156.97375Q520.25793 156.48938 519.6173 156.48938Q519.19543 156.48938 518.6017 156.64563L518.8517 154.86438Q519.7423 154.88 520.21106 154.47375Q520.6798 154.0675 520.6798 153.38Q520.6798 152.80188 520.33606 152.45813Q519.9923 152.11438 519.4142 152.11438Q518.8517 152.11438 518.44543 152.505Q518.0548 152.89563 517.9767 153.64563L515.94543 153.30188Q516.1642 152.27063 516.58606 151.64563Q517.00793 151.02063 517.77356 150.67688Q518.5392 150.3175 519.4767 150.3175Q521.1017 150.3175 522.07043 151.34875Q522.88293 152.1925 522.88293 153.255Q522.88293 154.755 521.2267 155.66125Q522.21106 155.86438 522.8048 156.59875Q523.39856 157.33313 523.39856 158.38Q523.39856 159.88 522.2892 160.95813Q521.19543 162.02063 519.5548 162.02063Q517.9923 162.02063 516.96106 161.13Q515.94543 160.22375 515.7892 158.77063ZM524.88293 153.1925Q524.88293 151.64563 525.5548 150.91125Q526.2267 150.16125 527.38293 150.16125Q528.58606 150.16125 529.25793 150.91125Q529.9298 151.64563 529.9298 153.1925Q529.9298 154.72375 529.25793 155.47375Q528.58606 156.20813 527.4298 156.20813Q526.2267 156.20813 525.5548 155.47375Q524.88293 154.73938 524.88293 153.1925ZM526.58606 153.17688Q526.58606 154.28625 526.8517 154.67688Q527.0392 154.95813 527.38293 154.95813Q527.7423 154.95813 527.9298 154.67688Q528.1798 154.28625 528.1798 153.17688Q528.1798 152.05188 527.9298 151.67688Q527.7423 151.39563 527.38293 151.39563Q527.0392 151.39563 526.8517 151.67688Q526.58606 152.05188 526.58606 153.17688ZM529.0548 162.255L527.4298 162.255L533.5392 150.16125L535.1173 150.16125L529.0548 162.255ZM532.6017 159.23938Q532.6017 157.70813 533.27356 156.97375Q533.96106 156.22375 535.13293 156.22375Q536.3048 156.22375 536.9767 156.97375Q537.6642 157.70813 537.6642 159.23938Q537.6642 160.78625 536.9767 161.53625Q536.3048 162.28625 535.14856 162.28625Q533.96106 162.28625 533.27356 161.53625Q532.6017 160.78625 532.6017 159.23938ZM534.32043 159.23938Q534.32043 160.34875 534.57043 160.72375Q534.77356 161.02063 535.1173 161.02063Q535.46106 161.02063 535.64856 160.73938Q535.9142 160.34875 535.9142 159.23938Q535.9142 158.11438 535.6642 157.73938Q535.46106 157.45813 535.1173 157.45813Q534.75793 157.45813 534.57043 157.73938Q534.32043 158.11438 534.32043 159.23938Z" fill-rule="nonzero"/><path fill="#000000" d="M507.61322 332.07608L507.61322 329.76358L502.92572 329.76358L502.92572 327.8417L507.89447 320.57608L509.73822 320.57608L509.73822 327.8417L511.1601 327.8417L511.1601 329.76358L509.73822 329.76358L509.73822 332.07608L507.61322 332.07608ZM507.61322 327.8417L507.61322 323.91983L504.98822 327.8417L507.61322 327.8417ZM512.7851 332.07608L512.7851 329.87296L514.9726 329.87296L514.9726 332.07608L512.7851 332.07608ZM520.6132 332.07608L520.6132 329.76358L515.9257 329.76358L515.9257 327.8417L520.8945 320.57608L522.7382 320.57608L522.7382 327.8417L524.1601 327.8417L524.1601 329.76358L522.7382 329.76358L522.7382 332.07608L520.6132 332.07608ZM520.6132 327.8417L520.6132 323.91983L517.9882 327.8417L520.6132 327.8417ZM525.31635 322.81046L525.31635 320.7792L532.81635 320.7792L532.81635 322.37296Q531.8945 323.2792 530.9257 324.99796Q529.9726 326.70108 529.457 328.63858Q528.957 330.56046 528.9726 332.07608L526.8476 332.07608Q526.9101 329.70108 527.832 327.23233Q528.75385 324.76358 530.3007 322.81046L525.31635 322.81046ZM534.332 323.45108Q534.332 321.9042 535.00385 321.16983Q535.6757 320.41983 536.832 320.41983Q538.0351 320.41983 538.707 321.16983Q539.37885 321.9042 539.37885 323.45108Q539.37885 324.98233 538.707 325.73233Q538.0351 326.4667 536.87885 326.4667Q535.6757 326.4667 535.00385 325.73233Q534.332 324.99796 534.332 323.45108ZM536.0351 323.43546Q536.0351 324.54483 536.3007 324.93546Q536.4882 325.2167 536.832 325.2167Q537.19135 325.2167 537.37885 324.93546Q537.62885 324.54483 537.62885 323.43546Q537.62885 322.31046 537.37885 321.93546Q537.19135 321.6542 536.832 321.6542Q536.4882 321.6542 536.3007 321.93546Q536.0351 322.31046 536.0351 323.43546ZM538.50385 332.51358L536.87885 332.51358L542.9882 320.41983L544.56635 320.41983L538.50385 332.51358ZM542.0507 329.49796Q542.0507 327.9667 542.7226 327.23233Q543.4101 326.48233 544.582 326.48233Q545.75385 326.48233 546.4257 327.23233Q547.1132 327.9667 547.1132 329.49796Q547.1132 331.04483 546.4257 331.79483Q545.75385 332.54483 544.5976 332.54483Q543.4101 332.54483 542.7226 331.79483Q542.0507 331.04483 542.0507 329.49796ZM543.7695 329.49796Q543.7695 330.60733 544.0195 330.98233Q544.2226 331.2792 544.56635 331.2792Q544.9101 331.2792 545.0976 330.99796Q545.3632 330.60733 545.3632 329.49796Q545.3632 328.37296 545.1132 327.99796Q544.9101 327.7167 544.56635 327.7167Q544.207 327.7167 544.0195 327.99796Q543.7695 328.37296 543.7695 329.49796Z" fill-rule="nonzero"/><path fill="#000000" d="M434.4023 403.88202L432.2148 403.88202L432.2148 395.60077Q431.0117 396.72577 429.37106 397.27264L429.37106 395.27264Q430.23044 394.9914 431.23044 394.21014Q432.24606 393.4289 432.62106 392.38202L434.4023 392.38202L434.4023 403.88202ZM437.8242 400.9289L440.0117 400.71014Q440.10544 401.44452 440.55856 401.88202Q441.0273 402.31952 441.62106 402.31952Q442.30856 402.31952 442.7773 401.75702Q443.2617 401.19452 443.2617 400.06952Q443.2617 399.02264 442.79294 398.4914Q442.3242 397.96014 441.55856 397.96014Q440.62106 397.96014 439.87106 398.8039L438.0898 398.53827L439.2148 392.58514L445.0117 392.58514L445.0117 394.63202L440.87106 394.63202L440.5273 396.58514Q441.2617 396.21014 442.0273 396.21014Q443.49606 396.21014 444.5117 397.27264Q445.5273 398.33514 445.5273 400.03827Q445.5273 401.44452 444.6992 402.5539Q443.5898 404.08514 441.60544 404.08514Q440.0117 404.08514 439.0117 403.22577Q438.0117 402.3664 437.8242 400.9289ZM447.2617 403.88202L447.2617 401.6789L449.4492 401.6789L449.4492 403.88202L447.2617 403.88202ZM454.49606 392.38202Q456.16794 392.38202 457.10544 393.56952Q458.2148 394.97577 458.2148 398.22577Q458.2148 401.47577 457.0898 402.89764Q456.16794 404.08514 454.49606 404.08514Q452.8242 404.08514 451.79294 402.8039Q450.7773 401.50702 450.7773 398.21014Q450.7773 394.97577 451.9023 393.5539Q452.8398 392.38202 454.49606 392.38202ZM454.49606 394.19452Q454.10544 394.19452 453.79294 394.46014Q453.48044 394.71014 453.30856 395.3664Q453.0742 396.21014 453.0742 398.22577Q453.0742 400.2414 453.2773 401.00702Q453.48044 401.75702 453.79294 402.00702Q454.10544 402.25702 454.49606 402.25702Q454.9023 402.25702 455.2148 402.00702Q455.5273 401.7414 455.6992 401.08514Q455.91794 400.2414 455.91794 398.22577Q455.91794 396.21014 455.7148 395.46014Q455.5117 394.71014 455.1992 394.46014Q454.9023 394.19452 454.49606 394.19452ZM463.49606 392.38202Q465.16794 392.38202 466.10544 393.56952Q467.2148 394.97577 467.2148 398.22577Q467.2148 401.47577 466.0898 402.89764Q465.16794 404.08514 463.49606 404.08514Q461.8242 404.08514 460.79294 402.8039Q459.7773 401.50702 459.7773 398.21014Q459.7773 394.97577 460.9023 393.5539Q461.8398 392.38202 463.49606 392.38202ZM463.49606 394.19452Q463.10544 394.19452 462.79294 394.46014Q462.48044 394.71014 462.30856 395.3664Q462.0742 396.21014 462.0742 398.22577Q462.0742 400.2414 462.2773 401.00702Q462.48044 401.75702 462.79294 402.00702Q463.10544 402.25702 463.49606 402.25702Q463.9023 402.25702 464.2148 402.00702Q464.5273 401.7414 464.6992 401.08514Q464.91794 400.2414 464.91794 398.22577Q464.91794 396.21014 464.7148 395.46014Q464.5117 394.71014 464.1992 394.46014Q463.9023 394.19452 463.49606 394.19452ZM468.80856 395.25702Q468.80856 393.71014 469.48044 392.97577Q470.1523 392.22577 471.30856 392.22577Q472.5117 392.22577 473.18356 392.97577Q473.85544 393.71014 473.85544 395.25702Q473.85544 396.78827 473.18356 397.53827Q472.5117 398.27264 471.35544 398.27264Q470.1523 398.27264 469.48044 397.53827Q468.80856 396.8039 468.80856 395.25702ZM470.5117 395.2414Q470.5117 396.35077 470.7773 396.7414Q470.9648 397.02264 471.30856 397.02264Q471.66794 397.02264 471.85544 396.7414Q472.10544 396.35077 472.10544 395.2414Q472.10544 394.1164 471.85544 393.7414Q471.66794 393.46014 471.30856 393.46014Q470.9648 393.46014 470.7773 393.7414Q470.5117 394.1164 470.5117 395.2414ZM472.98044 404.31952L471.35544 404.31952L477.4648 392.22577L479.04294 392.22577L472.98044 404.31952ZM476.5273 401.3039Q476.5273 399.77264 477.1992 399.03827Q477.8867 398.28827 479.05856 398.28827Q480.23044 398.28827 480.9023 399.03827Q481.5898 399.77264 481.5898 401.3039Q481.5898 402.85077 480.9023 403.60077Q480.23044 404.35077 479.0742 404.35077Q477.8867 404.35077 477.1992 403.60077Q476.5273 402.85077 476.5273 401.3039ZM478.24606 401.3039Q478.24606 402.41327 478.49606 402.78827Q478.6992 403.08514 479.04294 403.08514Q479.3867 403.08514 479.5742 402.8039Q479.8398 402.41327 479.8398 401.3039Q479.8398 400.1789 479.5898 399.8039Q479.3867 399.52264 479.04294 399.52264Q478.68356 399.52264 478.49606 399.8039Q478.24606 400.1789 478.24606 401.3039Z" fill-rule="nonzero"/><path fill="#000000" d="M184.47784 251.56354L186.66534 251.34479Q186.7591 252.07916 187.21222 252.51666Q187.68097 252.95416 188.27472 252.95416Q188.96222 252.95416 189.43097 252.39166Q189.91534 251.82916 189.91534 250.70416Q189.91534 249.65729 189.4466 249.12604Q188.97784 248.59479 188.21222 248.59479Q187.27472 248.59479 186.52472 249.43854L184.74347 249.17291L185.86847 243.21979L191.66534 243.21979L191.66534 245.26666L187.52472 245.26666L187.18097 247.21979Q187.91534 246.84479 188.68097 246.84479Q190.14972 246.84479 191.16534 247.90729Q192.18097 248.96979 192.18097 250.67291Q192.18097 252.07916 191.35284 253.18854Q190.24347 254.71979 188.2591 254.71979Q186.66534 254.71979 185.66534 253.86041Q184.66534 253.00104 184.47784 251.56354ZM197.14972 243.01666Q198.8216 243.01666 199.7591 244.20416Q200.86847 245.61041 200.86847 248.86041Q200.86847 252.11041 199.74347 253.53229Q198.8216 254.71979 197.14972 254.71979Q195.47784 254.71979 194.4466 253.43854Q193.43097 252.14166 193.43097 248.84479Q193.43097 245.61041 194.55597 244.18854Q195.49347 243.01666 197.14972 243.01666ZM197.14972 244.82916Q196.7591 244.82916 196.4466 245.09479Q196.1341 245.34479 195.96222 246.00104Q195.72784 246.84479 195.72784 248.86041Q195.72784 250.87604 195.93097 251.64166Q196.1341 252.39166 196.4466 252.64166Q196.7591 252.89166 197.14972 252.89166Q197.55597 252.89166 197.86847 252.64166Q198.18097 252.37604 198.35284 251.71979Q198.5716 250.87604 198.5716 248.86041Q198.5716 246.84479 198.36847 246.09479Q198.16534 245.34479 197.85284 245.09479Q197.55597 244.82916 197.14972 244.82916ZM202.91534 254.51666L202.91534 252.31354L205.10284 252.31354L205.10284 254.51666L202.91534 254.51666ZM210.14972 243.01666Q211.8216 243.01666 212.7591 244.20416Q213.86847 245.61041 213.86847 248.86041Q213.86847 252.11041 212.74347 253.53229Q211.8216 254.71979 210.14972 254.71979Q208.47784 254.71979 207.4466 253.43854Q206.43097 252.14166 206.43097 248.84479Q206.43097 245.61041 207.55597 244.18854Q208.49347 243.01666 210.14972 243.01666ZM210.14972 244.82916Q209.7591 244.82916 209.4466 245.09479Q209.1341 245.34479 208.96222 246.00104Q208.72784 246.84479 208.72784 248.86041Q208.72784 250.87604 208.93097 251.64166Q209.1341 252.39166 209.4466 252.64166Q209.7591 252.89166 210.14972 252.89166Q210.55597 252.89166 210.86847 252.64166Q211.18097 252.37604 211.35284 251.71979Q211.5716 250.87604 211.5716 248.86041Q211.5716 246.84479 211.36847 246.09479Q211.16534 245.34479 210.85284 245.09479Q210.55597 244.82916 210.14972 244.82916ZM219.14972 243.01666Q220.8216 243.01666 221.7591 244.20416Q222.86847 245.61041 222.86847 248.86041Q222.86847 252.11041 221.74347 253.53229Q220.8216 254.71979 219.14972 254.71979Q217.47784 254.71979 216.4466 253.43854Q215.43097 252.14166 215.43097 248.84479Q215.43097 245.61041 216.55597 244.18854Q217.49347 243.01666 219.14972 243.01666ZM219.14972 244.82916Q218.7591 244.82916 218.4466 245.09479Q218.1341 245.34479 217.96222 246.00104Q217.72784 246.84479 217.72784 248.86041Q217.72784 250.87604 217.93097 251.64166Q218.1341 252.39166 218.4466 252.64166Q218.7591 252.89166 219.14972 252.89166Q219.55597 252.89166 219.86847 252.64166Q220.18097 252.37604 220.35284 251.71979Q220.5716 250.87604 220.5716 248.86041Q220.5716 246.84479 220.36847 246.09479Q220.16534 245.34479 219.85284 245.09479Q219.55597 244.82916 219.14972 244.82916ZM224.46222 245.89166Q224.46222 244.34479 225.1341 243.61041Q225.80597 242.86041 226.96222 242.86041Q228.16534 242.86041 228.83722 243.61041Q229.5091 244.34479 229.5091 245.89166Q229.5091 247.42291 228.83722 248.17291Q228.16534 248.90729 227.0091 248.90729Q225.80597 248.90729 225.1341 248.17291Q224.46222 247.43854 224.46222 245.89166ZM226.16534 245.87604Q226.16534 246.98541 226.43097 247.37604Q226.61847 247.65729 226.96222 247.65729Q227.3216 247.65729 227.5091 247.37604Q227.7591 246.98541 227.7591 245.87604Q227.7591 244.75104 227.5091 244.37604Q227.3216 244.09479 226.96222 244.09479Q226.61847 244.09479 226.43097 244.37604Q226.16534 244.75104 226.16534 245.87604ZM228.6341 254.95416L227.0091 254.95416L233.11847 242.86041L234.6966 242.86041L228.6341 254.95416ZM232.18097 251.93854Q232.18097 250.40729 232.85284 249.67291Q233.54034 248.92291 234.71222 248.92291Q235.8841 248.92291 236.55597 249.67291Q237.24347 250.40729 237.24347 251.93854Q237.24347 253.48541 236.55597 254.23541Q235.8841 254.98541 234.72784 254.98541Q233.54034 254.98541 232.85284 254.23541Q232.18097 253.48541 232.18097 251.93854ZM233.89972 251.93854Q233.89972 253.04791 234.14972 253.42291Q234.35284 253.71979 234.6966 253.71979Q235.04034 253.71979 235.22784 253.43854Q235.49347 253.04791 235.49347 251.93854Q235.49347 250.81354 235.24347 250.43854Q235.04034 250.15729 234.6966 250.15729Q234.33722 250.15729 234.14972 250.43854Q233.89972 250.81354 233.89972 251.93854Z" fill-rule="nonzero"/><path stroke="#000000" stroke-width="1.0" stroke-linejoin="round" stroke-linecap="round" d="M380.0 249.01666L380.0 28.45C451.90543 28.45 519.2971 63.50021 560.584 122.371155C601.8708 181.2421 611.8694 256.54276 587.3763 324.14807" fill-rule="nonzero"/><path stroke="#000000" stroke-width="1.0" stroke-linejoin="round" stroke-linecap="round" d="M380.0 249.01666L587.3763 324.14807C580.3341 343.58575 570.59406 361.93683 558.4422 378.6625" fill-rule="nonzero"/><path stroke="#000000" stroke-width="1.0" stroke-linejoin="round" stroke-linecap="round" d="M380.0 249.01666L558.4422 378.6625C516.9419 435.78275 450.6045 469.58334 380.0 469.58334" fill-rule="nonzero"/><path stroke="#000000" stroke-width="1.0" stroke-linejoin="round" stroke-linecap="round" d="M380.0 249.01666L380.0 469.58334C258.1844 469.58334 159.43333 370.83228 159.43333 249.01666C159.43333 127.20106 258.1844 28.45 380.0 28.45" fill-rule="nonzero"/><path fill="#47a8bd" d="M135.5 500.55C135.5 503.8637 132.8137 506.55 129.5 506.55C126.186295 506.55 123.5 503.8637 123.5 500.55C123.5 497.2363 126.186295 494.55 129.5 494.55C132.8137 494.55 135.5 497.2363 135.5 500.55Z" fill-rule="nonzero"/><path fill="#232832" d="M144.96875 507.55L144.96875 493.2375L154.79688 493.2375L154.79688 495.65936L147.85938 495.65936L147.85938 499.05L153.84375 499.05L153.84375 501.47186L147.85938 501.47186L147.85938 507.55L144.96875 507.55ZM160.17188 507.55L160.17188 495.65936L155.9375 495.65936L155.9375 493.2375L167.3125 493.2375L167.3125 495.65936L163.0625 495.65936L163.0625 507.55L160.17188 507.55ZM170.03125 507.55L170.03125 493.34686L172.92188 493.34686L172.92188 505.14374L180.10938 505.14374L180.10938 507.55L170.03125 507.55ZM188.03125 507.55L188.03125 493.34686L190.92188 493.34686L190.92188 505.14374L198.10938 505.14374L198.10938 507.55L188.03125 507.55ZM201.98438 500.34686L199.5 499.89374Q199.92188 498.39374 200.9375 497.675Q201.96875 496.9406 203.98438 496.9406Q205.82812 496.9406 206.71875 497.3781Q207.625 497.8156 207.98438 498.4875Q208.35938 499.14374 208.35938 500.9406L208.32812 504.14374Q208.32812 505.5031 208.45312 506.15936Q208.59375 506.8 208.95312 507.55L206.23438 507.55Q206.125 507.26874 205.96875 506.7375Q205.90625 506.4875 205.875 506.40936Q205.17188 507.09686 204.35938 507.4406Q203.5625 507.78436 202.65625 507.78436Q201.0625 507.78436 200.14062 506.925Q199.21875 506.05 199.21875 504.72186Q199.21875 503.83124 199.625 503.14374Q200.04688 502.45624 200.79688 502.09686Q201.5625 501.72186 203.0 501.45624Q204.92188 501.09686 205.65625 500.78436L205.65625 500.5031Q205.65625 499.72186 205.26562 499.39374Q204.875 499.05 203.79688 499.05Q203.0625 499.05 202.64062 499.33124Q202.23438 499.6125 201.98438 500.34686ZM205.65625 502.5656Q205.125 502.7375 203.98438 502.9875Q202.84375 503.2375 202.5 503.47186Q201.95312 503.84686 201.95312 504.4406Q201.95312 505.0031 202.375 505.425Q202.8125 505.84686 203.48438 505.84686Q204.21875 505.84686 204.89062 505.3625Q205.39062 504.9875 205.54688 504.45624Q205.65625 504.09686 205.65625 503.1125L205.65625 502.5656ZM210.8125 507.55L210.8125 493.2375L213.5625 493.2375L213.5625 498.39374Q214.82812 496.9406 216.57812 496.9406Q218.46875 496.9406 219.70312 498.3156Q220.95312 499.6906 220.95312 502.2531Q220.95312 504.90936 219.6875 506.34686Q218.42188 507.78436 216.60938 507.78436Q215.71875 507.78436 214.85938 507.34686Q214.0 506.89374 213.375 506.01874L213.375 507.55L210.8125 507.55ZM213.54688 502.14374Q213.54688 503.7531 214.04688 504.51874Q214.76562 505.6125 215.95312 505.6125Q216.85938 505.6125 217.5 504.84686Q218.14062 504.0656 218.14062 502.39374Q218.14062 500.6125 217.48438 499.83124Q216.84375 499.05 215.84375 499.05Q214.85938 499.05 214.20312 499.8156Q213.54688 500.58124 213.54688 502.14374ZM221.96875 504.59686L224.71875 504.175Q224.90625 504.97186 225.4375 505.39374Q225.96875 505.8 226.9375 505.8Q228.0 505.8 228.54688 505.40936Q228.90625 505.14374 228.90625 504.675Q228.90625 504.3625 228.70312 504.15936Q228.5 503.97186 227.79688 503.8Q224.46875 503.0656 223.57812 502.45624Q222.34375 501.6281 222.34375 500.1281Q222.34375 498.78436 223.40625 497.8625Q224.48438 496.9406 226.71875 496.9406Q228.84375 496.9406 229.875 497.64374Q230.92188 498.33124 231.3125 499.6906L228.71875 500.15936Q228.54688 499.5656 228.07812 499.2375Q227.625 498.90936 226.76562 498.90936Q225.6875 498.90936 225.21875 499.22186Q224.90625 499.4406 224.90625 499.76874Q224.90625 500.0656 225.17188 500.26874Q225.54688 500.55 227.73438 501.05Q229.92188 501.55 230.79688 502.26874Q231.65625 503.0031 231.65625 504.3Q231.65625 505.7375 230.46875 506.76874Q229.28125 507.78436 226.9375 507.78436Q224.82812 507.78436 223.57812 506.925Q222.34375 506.0656 221.96875 504.59686ZM239.625 503.7375L239.625 500.9875L245.01562 500.9875L245.01562 503.7375L239.625 503.7375ZM255.17188 507.55L255.17188 495.65936L250.9375 495.65936L250.9375 493.2375L262.3125 493.2375L262.3125 495.65936L258.0625 495.65936L258.0625 507.55L255.17188 507.55ZM270.9375 504.2531L273.67188 504.70624Q273.15625 506.20624 272.01562 507.0031Q270.875 507.78436 269.17188 507.78436Q266.45312 507.78436 265.15625 506.01874Q264.14062 504.59686 264.14062 502.4406Q264.14062 499.8625 265.48438 498.40936Q266.82812 496.9406 268.89062 496.9406Q271.20312 496.9406 272.53125 498.47186Q273.875 500.0031 273.82812 503.15936L266.95312 503.15936Q266.98438 504.3781 267.60938 505.0656Q268.25 505.7375 269.1875 505.7375Q269.84375 505.7375 270.28125 505.39374Q270.71875 505.03436 270.9375 504.2531ZM271.09375 501.47186Q271.0625 500.28436 270.46875 499.675Q269.89062 499.05 269.0625 499.05Q268.15625 499.05 267.57812 499.6906Q266.98438 500.34686 267.0 501.47186L271.09375 501.47186ZM277.98438 500.34686L275.5 499.89374Q275.92188 498.39374 276.9375 497.675Q277.96875 496.9406 279.98438 496.9406Q281.82812 496.9406 282.71875 497.3781Q283.625 497.8156 283.98438 498.4875Q284.35938 499.14374 284.35938 500.9406L284.32812 504.14374Q284.32812 505.5031 284.45312 506.15936Q284.59375 506.8 284.95312 507.55L282.23438 507.55Q282.125 507.26874 281.96875 506.7375Q281.90625 506.4875 281.875 506.40936Q281.17188 507.09686 280.35938 507.4406Q279.5625 507.78436 278.65625 507.78436Q277.0625 507.78436 276.14062 506.925Q275.21875 506.05 275.21875 504.72186Q275.21875 503.83124 275.625 503.14374Q276.04688 502.45624 276.79688 502.09686Q277.5625 501.72186 279.0 501.45624Q280.92188 501.09686 281.65625 500.78436L281.65625 500.5031Q281.65625 499.72186 281.26562 499.39374Q280.875 499.05 279.79688 499.05Q279.0625 499.05 278.64062 499.33124Q278.23438 499.6125 277.98438 500.34686ZM281.65625 502.5656Q281.125 502.7375 279.98438 502.9875Q278.84375 503.2375 278.5 503.47186Q277.95312 503.84686 277.95312 504.4406Q277.95312 505.0031 278.375 505.425Q278.8125 505.84686 279.48438 505.84686Q280.21875 505.84686 280.89062 505.3625Q281.39062 504.9875 281.54688 504.45624Q281.65625 504.09686 281.65625 503.1125L281.65625 502.5656ZM286.73438 497.175L289.26562 497.175L289.26562 498.59686Q290.625 496.9406 292.5 496.9406Q293.48438 496.9406 294.21875 497.3625Q294.95312 497.76874 295.42188 498.59686Q296.10938 497.76874 296.89062 497.3625Q297.6875 496.9406 298.59375 496.9406Q299.73438 496.9406 300.51562 497.40936Q301.3125 497.8781 301.70312 498.76874Q301.98438 499.4406 301.98438 500.925L301.98438 507.55L299.23438 507.55L299.23438 501.6281Q299.23438 500.08124 298.95312 499.6281Q298.57812 499.05 297.78125 499.05Q297.20312 499.05 296.6875 499.40936Q296.1875 499.7531 295.96875 500.425Q295.75 501.09686 295.75 502.5656L295.75 507.55L293.0 507.55L293.0 501.8625Q293.0 500.34686 292.84375 499.90936Q292.70312 499.47186 292.39062 499.26874Q292.09375 499.05 291.5625 499.05Q290.9375 499.05 290.42188 499.39374Q289.92188 499.72186 289.6875 500.3781Q289.46875 501.01874 289.46875 502.5031L289.46875 507.55L286.73438 507.55L286.73438 497.175ZM322.625 505.8L320.96875 507.925Q319.73438 507.33124 318.625 506.28436Q317.75 507.0656 316.76562 507.4406Q315.79688 507.8 314.45312 507.8Q311.76562 507.8 310.42188 506.3Q309.375 505.14374 309.375 503.6281Q309.375 502.2531 310.1875 501.15936Q311.01562 500.05 312.65625 499.2375Q311.92188 498.3625 311.54688 497.58124Q311.17188 496.8 311.17188 496.09686Q311.17188 494.8 312.20312 493.89374Q313.25 492.9875 315.1875 492.9875Q317.03125 492.9875 318.07812 493.9406Q319.125 494.8781 319.125 496.2531Q319.125 497.1125 318.60938 497.89374Q318.09375 498.675 316.51562 499.675L318.51562 502.3Q318.85938 501.675 319.10938 500.65936L321.59375 501.2375Q321.21875 502.55 320.9375 503.15936Q320.67188 503.76874 320.35938 504.175Q320.82812 504.6125 321.54688 505.1281Q322.28125 505.6281 322.625 505.8ZM315.15625 498.01874L315.89062 497.45624Q316.71875 496.8156 316.71875 496.1906Q316.71875 495.65936 316.3125 495.3Q315.92188 494.925 315.25 494.925Q314.59375 494.925 314.21875 495.2531Q313.85938 495.58124 313.85938 496.0031Q313.85938 496.51874 314.48438 497.2375L315.15625 498.01874ZM314.07812 501.0031Q313.125 501.47186 312.65625 502.14374Q312.1875 502.8156 312.1875 503.51874Q312.1875 504.40936 312.76562 504.97186Q313.35938 505.53436 314.32812 505.53436Q314.96875 505.53436 315.5625 505.28436Q316.17188 505.03436 316.875 504.4406L314.07812 501.0031ZM329.96875 507.55L329.96875 493.2375L336.04688 493.2375Q338.34375 493.2375 339.375 493.6281Q340.42188 494.0031 341.04688 494.9875Q341.67188 495.97186 341.67188 497.2531Q341.67188 498.8625 340.71875 499.90936Q339.78125 500.95624 337.89062 501.2375Q338.82812 501.78436 339.4375 502.4406Q340.04688 503.08124 341.09375 504.7531L342.84375 507.55L339.375 507.55L337.29688 504.4406Q336.17188 502.76874 335.76562 502.33124Q335.35938 501.89374 334.89062 501.7375Q334.4375 501.5656 333.4375 501.5656L332.85938 501.5656L332.85938 507.55L329.96875 507.55ZM332.85938 499.28436L335.0 499.28436Q337.07812 499.28436 337.59375 499.1125Q338.10938 498.9406 338.40625 498.51874Q338.70312 498.08124 338.70312 497.425Q338.70312 496.70624 338.3125 496.26874Q337.92188 495.8156 337.21875 495.70624Q336.875 495.65936 335.10938 495.65936L332.85938 495.65936L332.85938 499.28436ZM349.9375 504.2531L352.67188 504.70624Q352.15625 506.20624 351.01562 507.0031Q349.875 507.78436 348.17188 507.78436Q345.45312 507.78436 344.15625 506.01874Q343.14062 504.59686 343.14062 502.4406Q343.14062 499.8625 344.48438 498.40936Q345.82812 496.9406 347.89062 496.9406Q350.20312 496.9406 351.53125 498.47186Q352.875 500.0031 352.82812 503.15936L345.95312 503.15936Q345.98438 504.3781 346.60938 505.0656Q347.25 505.7375 348.1875 505.7375Q348.84375 505.7375 349.28125 505.39374Q349.71875 505.03436 349.9375 504.2531ZM350.09375 501.47186Q350.0625 500.28436 349.46875 499.675Q348.89062 499.05 348.0625 499.05Q347.15625 499.05 346.57812 499.6906Q345.98438 500.34686 346.0 501.47186L350.09375 501.47186ZM353.96875 504.59686L356.71875 504.175Q356.90625 504.97186 357.4375 505.39374Q357.96875 505.8 358.9375 505.8Q360.0 505.8 360.54688 505.40936Q360.90625 505.14374 360.90625 504.675Q360.90625 504.3625 360.70312 504.15936Q360.5 503.97186 359.79688 503.8Q356.46875 503.0656 355.57812 502.45624Q354.34375 501.6281 354.34375 500.1281Q354.34375 498.78436 355.40625 497.8625Q356.48438 496.9406 358.71875 496.9406Q360.84375 496.9406 361.875 497.64374Q362.92188 498.33124 363.3125 499.6906L360.71875 500.15936Q360.54688 499.5656 360.07812 499.2375Q359.625 498.90936 358.76562 498.90936Q357.6875 498.90936 357.21875 499.22186Q356.90625 499.4406 356.90625 499.76874Q356.90625 500.0656 357.17188 500.26874Q357.54688 500.55 359.73438 501.05Q361.92188 501.55 362.79688 502.26874Q363.65625 503.0031 363.65625 504.3Q363.65625 505.7375 362.46875 506.76874Q361.28125 507.78436 358.9375 507.78436Q356.82812 507.78436 355.57812 506.925Q354.34375 506.0656 353.96875 504.59686ZM371.9375 504.2531L374.67188 504.70624Q374.15625 506.20624 373.01562 507.0031Q371.875 507.78436 370.17188 507.78436Q367.45312 507.78436 366.15625 506.01874Q365.14062 504.59686 365.14062 502.4406Q365.14062 499.8625 366.48438 498.40936Q367.82812 496.9406 369.89062 496.9406Q372.20312 496.9406 373.53125 498.47186Q374.875 500.0031 374.82812 503.15936L367.95312 503.15936Q367.98438 504.3781 368.60938 505.0656Q369.25 505.7375 370.1875 505.7375Q370.84375 505.7375 371.28125 505.39374Q371.71875 505.03436 371.9375 504.2531ZM372.09375 501.47186Q372.0625 500.28436 371.46875 499.675Q370.89062 499.05 370.0625 499.05Q369.15625 499.05 368.57812 499.6906Q367.98438 500.34686 368.0 501.47186L372.09375 501.47186ZM379.5625 507.55L376.8125 507.55L376.8125 497.175L379.375 497.175L379.375 498.65936Q380.01562 497.6125 380.53125 497.28436Q381.0625 496.9406 381.73438 496.9406Q382.67188 496.9406 383.53125 497.45624L382.6875 499.84686Q382.0 499.40936 381.40625 499.40936Q380.82812 499.40936 380.42188 499.72186Q380.01562 500.03436 379.78125 500.8781Q379.5625 501.70624 379.5625 504.34686L379.5625 507.55ZM387.78125 507.55L383.60938 497.175L386.48438 497.175L388.4375 502.47186L389.01562 504.2375Q389.23438 503.5656 389.29688 503.34686Q389.42188 502.90936 389.57812 502.47186L391.5625 497.175L394.375 497.175L390.26562 507.55L387.78125 507.55ZM401.9375 504.2531L404.67188 504.70624Q404.15625 506.20624 403.01562 507.0031Q401.875 507.78436 400.17188 507.78436Q397.45312 507.78436 396.15625 506.01874Q395.14062 504.59686 395.14062 502.4406Q395.14062 499.8625 396.48438 498.40936Q397.82812 496.9406 399.89062 496.9406Q402.20312 496.9406 403.53125 498.47186Q404.875 500.0031 404.82812 503.15936L397.95312 503.15936Q397.98438 504.3781 398.60938 505.0656Q399.25 505.7375 400.1875 505.7375Q400.84375 505.7375 401.28125 505.39374Q401.71875 505.03436 401.9375 504.2531ZM402.09375 501.47186Q402.0625 500.28436 401.46875 499.675Q400.89062 499.05 400.0625 499.05Q399.15625 499.05 398.57812 499.6906Q397.98438 500.34686 398.0 501.47186L402.09375 501.47186Z" fill-rule="nonzero"/><path fill="#f5e663" d="M433.5 500.55C433.5 503.8637 430.81372 506.55 427.5 506.55C424.18628 506.55 421.5 503.8637 421.5 500.55C421.5 497.2363 424.18628 494.55 427.5 494.55C430.81372 494.55 433.5 497.2363 433.5 500.55Z" fill-rule="nonzero"/><path fill="#232832" d="M442.96875 507.55L442.96875 493.2375L452.79688 493.2375L452.79688 495.65936L445.85938 495.65936L445.85938 499.05L451.84375 499.05L451.84375 501.47186L445.85938 501.47186L445.85938 507.55L442.96875 507.55ZM458.17188 507.55L458.17188 495.65936L453.9375 495.65936L453.9375 493.2375L465.3125 493.2375L465.3125 495.65936L461.0625 495.65936L461.0625 507.55L458.17188 507.55ZM468.03125 507.55L468.03125 493.34686L470.92188 493.34686L470.92188 505.14374L478.10938 505.14374L478.10938 507.55L468.03125 507.55ZM486.03125 507.55L486.03125 493.34686L488.92188 493.34686L488.92188 505.14374L496.10938 505.14374L496.10938 507.55L486.03125 507.55ZM499.98438 500.34686L497.5 499.89374Q497.92188 498.39374 498.9375 497.675Q499.96875 496.9406 501.98438 496.9406Q503.82812 496.9406 504.71875 497.3781Q505.625 497.8156 505.98438 498.4875Q506.35938 499.14374 506.35938 500.9406L506.32812 504.14374Q506.32812 505.5031 506.45312 506.15936Q506.59375 506.8 506.95312 507.55L504.23438 507.55Q504.125 507.26874 503.96875 506.7375Q503.90625 506.4875 503.875 506.40936Q503.17188 507.09686 502.35938 507.4406Q501.5625 507.78436 500.65625 507.78436Q499.0625 507.78436 498.14062 506.925Q497.21875 506.05 497.21875 504.72186Q497.21875 503.83124 497.625 503.14374Q498.04688 502.45624 498.79688 502.09686Q499.5625 501.72186 501.0 501.45624Q502.92188 501.09686 503.65625 500.78436L503.65625 500.5031Q503.65625 499.72186 503.26562 499.39374Q502.875 499.05 501.79688 499.05Q501.0625 499.05 500.64062 499.33124Q500.23438 499.6125 499.98438 500.34686ZM503.65625 502.5656Q503.125 502.7375 501.98438 502.9875Q500.84375 503.2375 500.5 503.47186Q499.95312 503.84686 499.95312 504.4406Q499.95312 505.0031 500.375 505.425Q500.8125 505.84686 501.48438 505.84686Q502.21875 505.84686 502.89062 505.3625Q503.39062 504.9875 503.54688 504.45624Q503.65625 504.09686 503.65625 503.1125L503.65625 502.5656ZM508.8125 507.55L508.8125 493.2375L511.5625 493.2375L511.5625 498.39374Q512.8281 496.9406 514.5781 496.9406Q516.46875 496.9406 517.7031 498.3156Q518.9531 499.6906 518.9531 502.2531Q518.9531 504.90936 517.6875 506.34686Q516.4219 507.78436 514.6094 507.78436Q513.71875 507.78436 512.8594 507.34686Q512.0 506.89374 511.375 506.01874L511.375 507.55L508.8125 507.55ZM511.54688 502.14374Q511.54688 503.7531 512.0469 504.51874Q512.7656 505.6125 513.9531 505.6125Q514.8594 505.6125 515.5 504.84686Q516.1406 504.0656 516.1406 502.39374Q516.1406 500.6125 515.4844 499.83124Q514.84375 499.05 513.84375 499.05Q512.8594 499.05 512.2031 499.8156Q511.54688 500.58124 511.54688 502.14374ZM519.96875 504.59686L522.71875 504.175Q522.90625 504.97186 523.4375 505.39374Q523.96875 505.8 524.9375 505.8Q526.0 505.8 526.5469 505.40936Q526.90625 505.14374 526.90625 504.675Q526.90625 504.3625 526.7031 504.15936Q526.5 503.97186 525.7969 503.8Q522.46875 503.0656 521.5781 502.45624Q520.34375 501.6281 520.34375 500.1281Q520.34375 498.78436 521.40625 497.8625Q522.4844 496.9406 524.71875 496.9406Q526.84375 496.9406 527.875 497.64374Q528.9219 498.33124 529.3125 499.6906L526.71875 500.15936Q526.5469 499.5656 526.0781 499.2375Q525.625 498.90936 524.7656 498.90936Q523.6875 498.90936 523.21875 499.22186Q522.90625 499.4406 522.90625 499.76874Q522.90625 500.0656 523.1719 500.26874Q523.5469 500.55 525.7344 501.05Q527.9219 501.55 528.7969 502.26874Q529.65625 503.0031 529.65625 504.3Q529.65625 505.7375 528.46875 506.76874Q527.28125 507.78436 524.9375 507.78436Q522.8281 507.78436 521.5781 506.925Q520.34375 506.0656 519.96875 504.59686ZM537.625 503.7375L537.625 500.9875L543.0156 500.9875L543.0156 503.7375L537.625 503.7375ZM549.875 507.55L549.875 493.2375L552.7656 493.2375L552.7656 507.55L549.875 507.55ZM564.375 507.55L561.625 507.55L561.625 502.2531Q561.625 500.58124 561.4531 500.09686Q561.28125 499.59686 560.875 499.33124Q560.4844 499.05 559.9219 499.05Q559.21875 499.05 558.6406 499.4406Q558.0781 499.83124 557.8594 500.47186Q557.65625 501.1125 557.65625 502.84686L557.65625 507.55L554.9219 507.55L554.9219 497.175L557.46875 497.175L557.46875 498.70624Q558.8281 496.9406 560.8906 496.9406Q561.7969 496.9406 562.5469 497.26874Q563.2969 497.59686 563.6719 498.1125Q564.0625 498.6125 564.21875 499.26874Q564.375 499.90936 564.375 501.09686L564.375 507.55ZM569.78125 507.55L565.6094 497.175L568.4844 497.175L570.4375 502.47186L571.0156 504.2375Q571.2344 503.5656 571.2969 503.34686Q571.4219 502.90936 571.5781 502.47186L573.5625 497.175L576.375 497.175L572.2656 507.55L569.78125 507.55ZM583.9375 504.2531L586.6719 504.70624Q586.15625 506.20624 585.0156 507.0031Q583.875 507.78436 582.1719 507.78436Q579.4531 507.78436 578.15625 506.01874Q577.1406 504.59686 577.1406 502.4406Q577.1406 499.8625 578.4844 498.40936Q579.8281 496.9406 581.8906 496.9406Q584.2031 496.9406 585.53125 498.47186Q586.875 500.0031 586.8281 503.15936L579.9531 503.15936Q579.9844 504.3781 580.6094 505.0656Q581.25 505.7375 582.1875 505.7375Q582.84375 505.7375 583.28125 505.39374Q583.71875 505.03436 583.9375 504.2531ZM584.09375 501.47186Q584.0625 500.28436 583.46875 499.675Q582.8906 499.05 582.0625 499.05Q581.15625 499.05 580.5781 499.6906Q579.9844 500.34686 580.0 501.47186L584.09375 501.47186ZM587.96875 504.59686L590.71875 504.175Q590.90625 504.97186 591.4375 505.39374Q591.96875 505.8 592.9375 505.8Q594.0 505.8 594.5469 505.40936Q594.90625 505.14374 594.90625 504.675Q594.90625 504.3625 594.7031 504.15936Q594.5 503.97186 593.7969 503.8Q590.46875 503.0656 589.5781 502.45624Q588.34375 501.6281 588.34375 500.1281Q588.34375 498.78436 589.40625 497.8625Q590.4844 496.9406 592.71875 496.9406Q594.84375 496.9406 595.875 497.64374Q596.9219 498.33124 597.3125 499.6906L594.71875 500.15936Q594.5469 499.5656 594.0781 499.2375Q593.625 498.90936 592.7656 498.90936Q591.6875 498.90936 591.21875 499.22186Q590.90625 499.4406 590.90625 499.76874Q590.90625 500.0656 591.1719 500.26874Q591.5469 500.55 593.7344 501.05Q595.9219 501.55 596.7969 502.26874Q597.65625 503.0031 597.65625 504.3Q597.65625 505.7375 596.46875 506.76874Q595.28125 507.78436 592.9375 507.78436Q590.8281 507.78436 589.5781 506.925Q588.34375 506.0656 587.96875 504.59686ZM604.6875 497.175L604.6875 499.3625L602.8125 499.3625L602.8125 503.55Q602.8125 504.8156 602.8594 505.03436Q602.9219 505.2375 603.1094 505.3781Q603.3125 505.5031 603.5781 505.5031Q603.9531 505.5031 604.6875 505.2375L604.9219 507.3781Q603.9531 507.78436 602.75 507.78436Q602.0 507.78436 601.40625 507.53436Q600.8125 507.28436 600.53125 506.89374Q600.2656 506.4875 600.15625 505.8156Q600.0625 505.34686 600.0625 503.89374L600.0625 499.3625L598.7969 499.3625L598.7969 497.175L600.0625 497.175L600.0625 495.1125L602.8125 493.51874L602.8125 497.175L604.6875 497.175ZM606.2969 502.22186Q606.2969 500.84686 606.96875 499.5656Q607.65625 498.28436 608.8906 497.6125Q610.125 496.9406 611.6406 496.9406Q614.0 496.9406 615.5 498.47186Q617.0 500.0031 617.0 502.33124Q617.0 504.6906 615.4844 506.2375Q613.96875 507.78436 611.65625 507.78436Q610.2344 507.78436 608.9375 507.14374Q607.65625 506.4875 606.96875 505.2531Q606.2969 504.0031 606.2969 502.22186ZM609.1094 502.3625Q609.1094 503.90936 609.84375 504.7375Q610.5781 505.55 611.65625 505.55Q612.7344 505.55 613.4531 504.7375Q614.1875 503.90936 614.1875 502.34686Q614.1875 500.8156 613.4531 500.0031Q612.7344 499.175 611.65625 499.175Q610.5781 499.175 609.84375 500.0031Q609.1094 500.8156 609.1094 502.3625ZM621.5625 507.55L618.8125 507.55L618.8125 497.175L621.375 497.175L621.375 498.65936Q622.0156 497.6125 622.53125 497.28436Q623.0625 496.9406 623.7344 496.9406Q624.6719 496.9406 625.53125 497.45624L624.6875 499.84686Q624.0 499.40936 623.40625 499.40936Q622.8281 499.40936 622.4219 499.72186Q622.0156 500.03436 621.78125 500.8781Q621.5625 501.70624 621.5625 504.34686L621.5625 507.55ZM625.96875 504.59686L628.71875 504.175Q628.90625 504.97186 629.4375 505.39374Q629.96875 505.8 630.9375 505.8Q632.0 505.8 632.5469 505.40936Q632.90625 505.14374 632.90625 504.675Q632.90625 504.3625 632.7031 504.15936Q632.5 503.97186 631.7969 503.8Q628.46875 503.0656 627.5781 502.45624Q626.34375 501.6281 626.34375 500.1281Q626.34375 498.78436 627.40625 497.8625Q628.4844 496.9406 630.71875 496.9406Q632.84375 496.9406 633.875 497.64374Q634.9219 498.33124 635.3125 499.6906L632.71875 500.15936Q632.5469 499.5656 632.0781 499.2375Q631.625 498.90936 630.7656 498.90936Q629.6875 498.90936 629.21875 499.22186Q628.90625 499.4406 628.90625 499.76874Q628.90625 500.0656 629.1719 500.26874Q629.5469 500.55 631.7344 501.05Q633.9219 501.55 634.7969 502.26874Q635.65625 503.0031 635.65625 504.3Q635.65625 505.7375 634.46875 506.76874Q633.28125 507.78436 630.9375 507.78436Q628.8281 507.78436 627.5781 506.925Q626.34375 506.0656 625.96875 504.59686Z" fill-rule="nonzero"/><path fill="#ffad69" d="M40.45 528.55C40.45 531.8637 37.76371 534.55 34.45 534.55C31.136292 534.55 28.45 531.8637 28.45 528.55C28.45 525.23627 31.136292 522.55 34.45 522.55C37.76371 522.55 40.45 525.23627 40.45 528.55Z" fill-rule="nonzero"/><path fill="#232832" d="M49.903126 521.2375L55.184376 521.2375Q56.965626 521.2375 57.903126 521.5031Q59.16875 521.8781 60.059376 522.83124Q60.965626 523.76874 61.434376 525.14374Q61.903126 526.51874 61.903126 528.53436Q61.903126 530.3 61.465626 531.58124Q60.91875 533.14374 59.91875 534.09686Q59.16875 534.83124 57.8875 535.2531Q56.934376 535.55 55.340626 535.55L49.903126 535.55L49.903126 521.2375ZM52.79375 523.65936L52.79375 533.14374L54.95 533.14374Q56.153126 533.14374 56.7 533.0031Q57.403126 532.83124 57.85625 532.40936Q58.325 531.9875 58.60625 531.03436Q58.903126 530.0656 58.903126 528.39374Q58.903126 526.7375 58.60625 525.84686Q58.325 524.95624 57.79375 524.47186Q57.2625 523.97186 56.465626 523.78436Q55.85625 523.65936 54.090626 523.65936L52.79375 523.65936ZM76.80937 535.55L73.66875 535.55L72.41875 532.3L66.7 532.3L65.5125 535.55L62.45 535.55L68.02812 521.2375L71.09062 521.2375L76.80937 535.55ZM71.49687 529.8781L69.52812 524.5656L67.59062 529.8781L71.49687 529.8781ZM76.325 528.47186Q76.325 526.28436 76.98125 524.8Q77.46562 523.70624 78.30937 522.84686Q79.15312 521.97186 80.15312 521.55Q81.49687 520.9875 83.24687 520.9875Q86.40312 520.9875 88.29375 522.95624Q90.2 524.90936 90.2 528.40936Q90.2 531.8781 88.30937 533.84686Q86.43437 535.8 83.27812 535.8Q80.09062 535.8 78.2 533.84686Q76.325 531.89374 76.325 528.47186ZM79.29375 528.3781Q79.29375 530.8156 80.41875 532.0656Q81.54375 533.3156 83.27812 533.3156Q84.99687 533.3156 86.10625 532.08124Q87.21562 530.83124 87.21562 528.34686Q87.21562 525.8781 86.1375 524.675Q85.05937 523.45624 83.27812 523.45624Q81.48125 523.45624 80.3875 524.6906Q79.29375 525.90936 79.29375 528.3781ZM98.575 531.7375L98.575 528.9875L103.96562 528.9875L103.96562 531.7375L98.575 531.7375ZM117.55937 530.28436L117.55937 527.8781L123.79375 527.8781L123.79375 533.58124Q122.8875 534.45624 121.15312 535.1281Q119.43437 535.8 117.66875 535.8Q115.43437 535.8 113.7625 534.8625Q112.09062 533.90936 111.24687 532.15936Q110.40312 530.40936 110.40312 528.34686Q110.40312 526.1125 111.34062 524.3781Q112.27812 522.6281 114.09062 521.70624Q115.46562 520.9875 117.5125 520.9875Q120.18437 520.9875 121.68437 522.1125Q123.18437 523.22186 123.60625 525.1906L120.74687 525.7375Q120.43437 524.675 119.59062 524.0656Q118.7625 523.45624 117.5125 523.45624Q115.62187 523.45624 114.49687 524.65936Q113.3875 525.8625 113.3875 528.22186Q113.3875 530.76874 114.5125 532.05Q115.65312 533.3156 117.48125 533.3156Q118.40312 533.3156 119.30937 532.97186Q120.21562 532.6125 120.87187 532.09686L120.87187 530.28436L117.55937 530.28436ZM125.59062 525.175L128.5125 525.175L130.98125 532.53436L133.40312 525.175L136.24687 525.175L132.59062 535.15936L131.93437 536.97186Q131.575 537.8781 131.24687 538.34686Q130.91875 538.83124 130.49687 539.1281Q130.075 539.425 129.45 539.58124Q128.825 539.7531 128.04375 539.7531Q127.2625 539.7531 126.49687 539.59686L126.24687 537.4406Q126.90312 537.5656 127.41875 537.5656Q128.37187 537.5656 128.825 537.0031Q129.29375 536.45624 129.52812 535.58124L125.59062 525.175ZM140.5125 535.55L137.7625 535.55L137.7625 525.175L140.325 525.175L140.325 526.65936Q140.96562 525.6125 141.48125 525.28436Q142.0125 524.9406 142.68437 524.9406Q143.62187 524.9406 144.48125 525.45624L143.6375 527.84686Q142.95 527.40936 142.35625 527.40936Q141.77812 527.40936 141.37187 527.72186Q140.96562 528.03436 140.73125 528.8781Q140.5125 529.70624 140.5125 532.34686L140.5125 535.55ZM145.24687 530.22186Q145.24687 528.84686 145.91875 527.5656Q146.60625 526.28436 147.84062 525.6125Q149.075 524.9406 150.59062 524.9406Q152.95 524.9406 154.45 526.47186Q155.95 528.0031 155.95 530.33124Q155.95 532.6906 154.43437 534.2375Q152.91875 535.78436 150.60625 535.78436Q149.18437 535.78436 147.8875 535.14374Q146.60625 534.4875 145.91875 533.2531Q145.24687 532.0031 145.24687 530.22186ZM148.05937 530.3625Q148.05937 531.90936 148.79375 532.7375Q149.52812 533.55 150.60625 533.55Q151.68437 533.55 152.40312 532.7375Q153.1375 531.90936 153.1375 530.34686Q153.1375 528.8156 152.40312 528.0031Q151.68437 527.175 150.60625 527.175Q149.52812 527.175 148.79375 528.0031Q148.05937 528.8156 148.05937 530.3625ZM156.91875 532.59686L159.66875 532.175Q159.85625 532.97186 160.3875 533.39374Q160.91875 533.8 161.8875 533.8Q162.95 533.8 163.49687 533.40936Q163.85625 533.14374 163.85625 532.675Q163.85625 532.3625 163.65312 532.15936Q163.45 531.97186 162.74687 531.8Q159.41875 531.0656 158.52812 530.45624Q157.29375 529.6281 157.29375 528.1281Q157.29375 526.78436 158.35625 525.8625Q159.43437 524.9406 161.66875 524.9406Q163.79375 524.9406 164.825 525.64374Q165.87187 526.33124 166.2625 527.6906L163.66875 528.15936Q163.49687 527.5656 163.02812 527.2375Q162.575 526.90936 161.71562 526.90936Q160.6375 526.90936 160.16875 527.22186Q159.85625 527.4406 159.85625 527.76874Q159.85625 528.0656 160.12187 528.26874Q160.49687 528.55 162.68437 529.05Q164.87187 529.55 165.74687 530.26874Q166.60625 531.0031 166.60625 532.3Q166.60625 533.7375 165.41875 534.76874Q164.23125 535.78436 161.8875 535.78436Q159.77812 535.78436 158.52812 534.925Q157.29375 534.0656 156.91875 532.59686ZM177.93437 528.2375L175.23125 528.7375Q175.09062 527.925 174.60625 527.51874Q174.12187 527.09686 173.35625 527.09686Q172.325 527.09686 171.71562 527.8156Q171.10625 528.51874 171.10625 530.175Q171.10625 532.01874 171.71562 532.78436Q172.34062 533.55 173.3875 533.55Q174.16875 533.55 174.66875 533.1125Q175.16875 532.65936 175.37187 531.58124L178.05937 532.03436Q177.65312 533.89374 176.45 534.84686Q175.2625 535.78436 173.2625 535.78436Q170.98125 535.78436 169.62187 534.34686Q168.27812 532.90936 168.27812 530.3781Q168.27812 527.8 169.6375 526.3781Q170.99687 524.9406 173.30937 524.9406Q175.2 524.9406 176.30937 525.76874Q177.43437 526.58124 177.93437 528.2375ZM179.24687 530.22186Q179.24687 528.84686 179.91875 527.5656Q180.60625 526.28436 181.84062 525.6125Q183.075 524.9406 184.59062 524.9406Q186.95 524.9406 188.45 526.47186Q189.95 528.0031 189.95 530.33124Q189.95 532.6906 188.43437 534.2375Q186.91875 535.78436 184.60625 535.78436Q183.18437 535.78436 181.8875 535.14374Q180.60625 534.4875 179.91875 533.2531Q179.24687 532.0031 179.24687 530.22186ZM182.05937 530.3625Q182.05937 531.90936 182.79375 532.7375Q183.52812 533.55 184.60625 533.55Q185.68437 533.55 186.40312 532.7375Q187.1375 531.90936 187.1375 530.34686Q187.1375 528.8156 186.40312 528.0031Q185.68437 527.175 184.60625 527.175Q183.52812 527.175 182.79375 528.0031Q182.05937 528.8156 182.05937 530.3625ZM191.80937 525.175L194.37187 525.175L194.37187 526.70624Q194.87187 525.925 195.71562 525.4406Q196.55937 524.9406 197.60625 524.9406Q199.40312 524.9406 200.65312 526.3625Q201.91875 527.76874 201.91875 530.3Q201.91875 532.90936 200.65312 534.34686Q199.3875 535.78436 197.575 535.78436Q196.71562 535.78436 196.0125 535.4406Q195.325 535.09686 194.55937 534.26874L194.55937 539.5031L191.80937 539.5031L191.80937 525.175ZM194.52812 530.1906Q194.52812 531.9406 195.21562 532.78436Q195.90312 533.6125 196.90312 533.6125Q197.85625 533.6125 198.49687 532.84686Q199.1375 532.0656 199.1375 530.33124Q199.1375 528.6906 198.48125 527.90936Q197.825 527.1125 196.85625 527.1125Q195.85625 527.1125 195.18437 527.89374Q194.52812 528.65936 194.52812 530.1906ZM209.8875 532.2531L212.62187 532.70624Q212.10625 534.20624 210.96562 535.0031Q209.825 535.78436 208.12187 535.78436Q205.40312 535.78436 204.10625 534.01874Q203.09062 532.59686 203.09062 530.4406Q203.09062 527.8625 204.43437 526.40936Q205.77812 524.9406 207.84062 524.9406Q210.15312 524.9406 211.48125 526.47186Q212.825 528.0031 212.77812 531.15936L205.90312 531.15936Q205.93437 532.3781 206.55937 533.0656Q207.2 533.7375 208.1375 533.7375Q208.79375 533.7375 209.23125 533.39374Q209.66875 533.03436 209.8875 532.2531ZM210.04375 529.47186Q210.0125 528.28436 209.41875 527.675Q208.84062 527.05 208.0125 527.05Q207.10625 527.05 206.52812 527.6906Q205.93437 528.34686 205.95 529.47186L210.04375 529.47186ZM220.91875 535.55L220.91875 521.2375L230.74687 521.2375L230.74687 523.65936L223.80937 523.65936L223.80937 527.05L229.79375 527.05L229.79375 529.47186L223.80937 529.47186L223.80937 535.55L220.91875 535.55ZM232.24687 530.22186Q232.24687 528.84686 232.91875 527.5656Q233.60625 526.28436 234.84062 525.6125Q236.075 524.9406 237.59062 524.9406Q239.95 524.9406 241.45 526.47186Q242.95 528.0031 242.95 530.33124Q242.95 532.6906 241.43437 534.2375Q239.91875 535.78436 237.60625 535.78436Q236.18437 535.78436 234.8875 535.14374Q233.60625 534.4875 232.91875 533.2531Q232.24687 532.0031 232.24687 530.22186ZM235.05937 530.3625Q235.05937 531.90936 235.79375 532.7375Q236.52812 533.55 237.60625 533.55Q238.68437 533.55 239.40312 532.7375Q240.1375 531.90936 240.1375 530.34686Q240.1375 528.8156 239.40312 528.0031Q238.68437 527.175 237.60625 527.175Q236.52812 527.175 235.79375 528.0031Q235.05937 528.8156 235.05937 530.3625ZM251.71562 535.55L251.71562 534.0031Q251.15312 534.83124 250.21562 535.3156Q249.29375 535.78436 248.27812 535.78436Q247.23125 535.78436 246.40312 535.33124Q245.575 534.8625 245.2 534.03436Q244.825 533.20624 244.825 531.7375L244.825 525.175L247.575 525.175L247.575 529.9406Q247.575 532.1281 247.71562 532.6281Q247.87187 533.1125 248.2625 533.40936Q248.66875 533.6906 249.29375 533.6906Q249.99687 533.6906 250.54375 533.3156Q251.10625 532.925 251.30937 532.3625Q251.5125 531.78436 251.5125 529.55L251.5125 525.175L254.2625 525.175L254.2625 535.55L251.71562 535.55ZM266.325 535.55L263.575 535.55L263.575 530.2531Q263.575 528.58124 263.40314 528.09686Q263.23126 527.59686 262.825 527.33124Q262.4344 527.05 261.8719 527.05Q261.16876 527.05 260.59064 527.4406Q260.02814 527.83124 259.8094 528.47186Q259.60626 529.1125 259.60626 530.84686L259.60626 535.55L256.8719 535.55L256.8719 525.175L259.41876 525.175L259.41876 526.70624Q260.77814 524.9406 262.84064 524.9406Q263.7469 524.9406 264.4969 525.26874Q265.2469 525.59686 265.6219 526.1125Q266.0125 526.6125 266.16876 527.26874Q266.325 527.90936 266.325 529.09686L266.325 535.55ZM278.40314 535.55L275.85626 535.55L275.85626 534.01874Q275.21564 534.90936 274.34064 535.34686Q273.48126 535.78436 272.60626 535.78436Q270.825 535.78436 269.54376 534.34686Q268.27814 532.90936 268.27814 530.33124Q268.27814 527.6906 269.5125 526.3156Q270.7469 524.9406 272.65314 524.9406Q274.3875 524.9406 275.65314 526.39374L275.65314 521.2375L278.40314 521.2375L278.40314 535.55ZM271.075 530.14374Q271.075 531.8 271.52814 532.53436Q272.2 533.6125 273.3875 533.6125Q274.34064 533.6125 274.9969 532.8156Q275.66876 532.0031 275.66876 530.40936Q275.66876 528.6125 275.0125 527.83124Q274.3719 527.05 273.3719 527.05Q272.3875 527.05 271.73126 527.83124Q271.075 528.59686 271.075 530.14374ZM282.9344 528.34686L280.45 527.89374Q280.8719 526.39374 281.8875 525.675Q282.91876 524.9406 284.9344 524.9406Q286.77814 524.9406 287.66876 525.3781Q288.575 525.8156 288.9344 526.4875Q289.3094 527.14374 289.3094 528.9406L289.27814 532.14374Q289.27814 533.5031 289.40314 534.15936Q289.54376 534.8 289.90314 535.55L287.1844 535.55Q287.075 535.26874 286.91876 534.7375Q286.85626 534.4875 286.825 534.40936Q286.1219 535.09686 285.3094 535.4406Q284.5125 535.78436 283.60626 535.78436Q282.0125 535.78436 281.09064 534.925Q280.16876 534.05 280.16876 532.72186Q280.16876 531.83124 280.575 531.14374Q280.9969 530.45624 281.7469 530.09686Q282.5125 529.72186 283.95 529.45624Q285.8719 529.09686 286.60626 528.78436L286.60626 528.5031Q286.60626 527.72186 286.21564 527.39374Q285.825 527.05 284.7469 527.05Q284.0125 527.05 283.59064 527.33124Q283.1844 527.6125 282.9344 528.34686ZM286.60626 530.5656Q286.075 530.7375 284.9344 530.9875Q283.79376 531.2375 283.45 531.47186Q282.90314 531.84686 282.90314 532.4406Q282.90314 533.0031 283.325 533.425Q283.7625 533.84686 284.4344 533.84686Q285.16876 533.84686 285.84064 533.3625Q286.34064 532.9875 286.4969 532.45624Q286.60626 532.09686 286.60626 531.1125L286.60626 530.5656ZM296.6375 525.175L296.6375 527.3625L294.7625 527.3625L294.7625 531.55Q294.7625 532.8156 294.8094 533.03436Q294.8719 533.2375 295.0594 533.3781Q295.2625 533.5031 295.52814 533.5031Q295.90314 533.5031 296.6375 533.2375L296.8719 535.3781Q295.90314 535.78436 294.7 535.78436Q293.95 535.78436 293.35626 535.53436Q292.7625 535.28436 292.48126 534.89374Q292.21564 534.4875 292.10626 533.8156Q292.0125 533.34686 292.0125 531.89374L292.0125 527.3625L290.7469 527.3625L290.7469 525.175L292.0125 525.175L292.0125 523.1125L294.7625 521.51874L294.7625 525.175L296.6375 525.175ZM298.8875 523.76874L298.8875 521.2375L301.6375 521.2375L301.6375 523.76874L298.8875 523.76874ZM298.8875 535.55L298.8875 525.175L301.6375 525.175L301.6375 535.55L298.8875 535.55ZM303.2469 530.22186Q303.2469 528.84686 303.91876 527.5656Q304.60626 526.28436 305.84064 525.6125Q307.075 524.9406 308.59064 524.9406Q310.95 524.9406 312.45 526.47186Q313.95 528.0031 313.95 530.33124Q313.95 532.6906 312.4344 534.2375Q310.91876 535.78436 308.60626 535.78436Q307.1844 535.78436 305.8875 535.14374Q304.60626 534.4875 303.91876 533.2531Q303.2469 532.0031 303.2469 530.22186ZM306.0594 530.3625Q306.0594 531.90936 306.79376 532.7375Q307.52814 533.55 308.60626 533.55Q309.6844 533.55 310.40314 532.7375Q311.1375 531.90936 311.1375 530.34686Q311.1375 528.8156 310.40314 528.0031Q309.6844 527.175 308.60626 527.175Q307.52814 527.175 306.79376 528.0031Q306.0594 528.8156 306.0594 530.3625ZM325.325 535.55L322.575 535.55L322.575 530.2531Q322.575 528.58124 322.40314 528.09686Q322.23126 527.59686 321.825 527.33124Q321.4344 527.05 320.8719 527.05Q320.16876 527.05 319.59064 527.4406Q319.02814 527.83124 318.8094 528.47186Q318.60626 529.1125 318.60626 530.84686L318.60626 535.55L315.8719 535.55L315.8719 525.175L318.41876 525.175L318.41876 526.70624Q319.77814 524.9406 321.84064 524.9406Q322.7469 524.9406 323.4969 525.26874Q324.2469 525.59686 324.6219 526.1125Q325.0125 526.6125 325.16876 527.26874Q325.325 527.90936 325.325 529.09686L325.325 535.55Z" fill-rule="nonzero"/><path fill="#9c3848" d="M354.45 528.55C354.45 531.8637 351.7637 534.55 348.45 534.55C345.1363 534.55 342.45 531.8637 342.45 528.55C342.45 525.23627 345.1363 522.55 348.45 522.55C351.7637 522.55 354.45 525.23627 354.45 528.55Z" fill-rule="nonzero"/><path fill="#232832" d="M363.90314 521.2375L369.1844 521.2375Q370.96564 521.2375 371.90314 521.5031Q373.16876 521.8781 374.0594 522.83124Q374.96564 523.76874 375.4344 525.14374Q375.90314 526.51874 375.90314 528.53436Q375.90314 530.3 375.46564 531.58124Q374.91876 533.14374 373.91876 534.09686Q373.16876 534.83124 371.8875 535.2531Q370.9344 535.55 369.34064 535.55L363.90314 535.55L363.90314 521.2375ZM366.79376 523.65936L366.79376 533.14374L368.95 533.14374Q370.15314 533.14374 370.7 533.0031Q371.40314 532.83124 371.85626 532.40936Q372.325 531.9875 372.60626 531.03436Q372.90314 530.0656 372.90314 528.39374Q372.90314 526.7375 372.60626 525.84686Q372.325 524.95624 371.79376 524.47186Q371.2625 523.97186 370.46564 523.78436Q369.85626 523.65936 368.09064 523.65936L366.79376 523.65936ZM390.8094 535.55L387.66876 535.55L386.41876 532.3L380.7 532.3L379.5125 535.55L376.45 535.55L382.02814 521.2375L385.09064 521.2375L390.8094 535.55ZM385.4969 529.8781L383.52814 524.5656L381.59064 529.8781L385.4969 529.8781ZM390.325 528.47186Q390.325 526.28436 390.98126 524.8Q391.46564 523.70624 392.3094 522.84686Q393.15314 521.97186 394.15314 521.55Q395.4969 520.9875 397.2469 520.9875Q400.40314 520.9875 402.29376 522.95624Q404.2 524.90936 404.2 528.40936Q404.2 531.8781 402.3094 533.84686Q400.4344 535.8 397.27814 535.8Q394.09064 535.8 392.2 533.84686Q390.325 531.89374 390.325 528.47186ZM393.29376 528.3781Q393.29376 530.8156 394.41876 532.0656Q395.54376 533.3156 397.27814 533.3156Q398.9969 533.3156 400.10626 532.08124Q401.21564 530.83124 401.21564 528.34686Q401.21564 525.8781 400.1375 524.675Q399.0594 523.45624 397.27814 523.45624Q395.48126 523.45624 394.3875 524.6906Q393.29376 525.90936 393.29376 528.3781ZM412.575 531.7375L412.575 528.9875L417.96564 528.9875L417.96564 531.7375L412.575 531.7375ZM434.0594 530.28436L436.8719 531.175Q436.23126 533.51874 434.73126 534.65936Q433.23126 535.8 430.91876 535.8Q428.075 535.8 426.23126 533.84686Q424.40314 531.89374 424.40314 528.51874Q424.40314 524.9406 426.2469 522.97186Q428.09064 520.9875 431.09064 520.9875Q433.73126 520.9875 435.3719 522.53436Q436.34064 523.45624 436.825 525.175L433.96564 525.8625Q433.71564 524.7531 432.90314 524.1125Q432.10626 523.45624 430.95 523.45624Q429.35626 523.45624 428.35626 524.59686Q427.3719 525.7375 427.3719 528.3Q427.3719 531.01874 428.34064 532.175Q429.325 533.3156 430.8875 533.3156Q432.04376 533.3156 432.8719 532.59686Q433.7 531.8625 434.0594 530.28436ZM438.2469 530.22186Q438.2469 528.84686 438.91876 527.5656Q439.60626 526.28436 440.84064 525.6125Q442.075 524.9406 443.59064 524.9406Q445.95 524.9406 447.45 526.47186Q448.95 528.0031 448.95 530.33124Q448.95 532.6906 447.4344 534.2375Q445.91876 535.78436 443.60626 535.78436Q442.1844 535.78436 440.8875 535.14374Q439.60626 534.4875 438.91876 533.2531Q438.2469 532.0031 438.2469 530.22186ZM441.0594 530.3625Q441.0594 531.90936 441.79376 532.7375Q442.52814 533.55 443.60626 533.55Q444.6844 533.55 445.40314 532.7375Q446.1375 531.90936 446.1375 530.34686Q446.1375 528.8156 445.40314 528.0031Q444.6844 527.175 443.60626 527.175Q442.52814 527.175 441.79376 528.0031Q441.0594 528.8156 441.0594 530.3625ZM450.6844 525.175L453.21564 525.175L453.21564 526.59686Q454.575 524.9406 456.45 524.9406Q457.4344 524.9406 458.16876 525.3625Q458.90314 525.76874 459.3719 526.59686Q460.0594 525.76874 460.84064 525.3625Q461.6375 524.9406 462.54376 524.9406Q463.6844 524.9406 464.46564 525.40936Q465.2625 525.8781 465.65314 526.76874Q465.9344 527.4406 465.9344 528.925L465.9344 535.55L463.1844 535.55L463.1844 529.6281Q463.1844 528.08124 462.90314 527.6281Q462.52814 527.05 461.73126 527.05Q461.15314 527.05 460.6375 527.40936Q460.1375 527.7531 459.91876 528.425Q459.7 529.09686 459.7 530.5656L459.7 535.55L456.95 535.55L456.95 529.8625Q456.95 528.34686 456.79376 527.90936Q456.65314 527.47186 456.34064 527.26874Q456.04376 527.05 455.5125 527.05Q454.8875 527.05 454.3719 527.39374Q453.8719 527.72186 453.6375 528.3781Q453.41876 529.01874 453.41876 530.5031L453.41876 535.55L450.6844 535.55L450.6844 525.175ZM467.6844 525.175L470.21564 525.175L470.21564 526.59686Q471.575 524.9406 473.45 524.9406Q474.4344 524.9406 475.16876 525.3625Q475.90314 525.76874 476.3719 526.59686Q477.0594 525.76874 477.84064 525.3625Q478.6375 524.9406 479.54376 524.9406Q480.6844 524.9406 481.46564 525.40936Q482.2625 525.8781 482.65314 526.76874Q482.9344 527.4406 482.9344 528.925L482.9344 535.55L480.1844 535.55L480.1844 529.6281Q480.1844 528.08124 479.90314 527.6281Q479.52814 527.05 478.73126 527.05Q478.15314 527.05 477.6375 527.40936Q477.1375 527.7531 476.91876 528.425Q476.7 529.09686 476.7 530.5656L476.7 535.55L473.95 535.55L473.95 529.8625Q473.95 528.34686 473.79376 527.90936Q473.65314 527.47186 473.34064 527.26874Q473.04376 527.05 472.5125 527.05Q471.8875 527.05 471.3719 527.39374Q470.8719 527.72186 470.6375 528.3781Q470.41876 529.01874 470.41876 530.5031L470.41876 535.55L467.6844 535.55L467.6844 525.175ZM491.71564 535.55L491.71564 534.0031Q491.15314 534.83124 490.21564 535.3156Q489.29376 535.78436 488.27814 535.78436Q487.23126 535.78436 486.40314 535.33124Q485.575 534.8625 485.2 534.03436Q484.825 533.20624 484.825 531.7375L484.825 525.175L487.575 525.175L487.575 529.9406Q487.575 532.1281 487.71564 532.6281Q487.8719 533.1125 488.2625 533.40936Q488.66876 533.6906 489.29376 533.6906Q489.9969 533.6906 490.54376 533.3156Q491.10626 532.925 491.3094 532.3625Q491.5125 531.78436 491.5125 529.55L491.5125 525.175L494.2625 525.175L494.2625 535.55L491.71564 535.55ZM506.325 535.55L503.575 535.55L503.575 530.2531Q503.575 528.58124 503.40314 528.09686Q503.23126 527.59686 502.825 527.33124Q502.4344 527.05 501.8719 527.05Q501.16876 527.05 500.59064 527.4406Q500.02814 527.83124 499.8094 528.47186Q499.60626 529.1125 499.60626 530.84686L499.60626 535.55L496.8719 535.55L496.8719 525.175L499.41876 525.175L499.41876 526.70624Q500.77814 524.9406 502.84064 524.9406Q503.7469 524.9406 504.4969 525.26874Q505.2469 525.59686 505.6219 526.1125Q506.0125 526.6125 506.16876 527.26874Q506.325 527.90936 506.325 529.09686L506.325 535.55ZM508.8875 523.76874L508.8875 521.2375L511.6375 521.2375L511.6375 523.76874L508.8875 523.76874ZM508.8875 535.55L508.8875 525.175L511.6375 525.175L511.6375 535.55L508.8875 535.55ZM518.6375 525.175L518.6375 527.3625L516.7625 527.3625L516.7625 531.55Q516.7625 532.8156 516.8094 533.03436Q516.8719 533.2375 517.0594 533.3781Q517.2625 533.5031 517.52814 533.5031Q517.90314 533.5031 518.6375 533.2375L518.8719 535.3781Q517.90314 535.78436 516.7 535.78436Q515.95 535.78436 515.35626 535.53436Q514.7625 535.28436 514.48126 534.89374Q514.21564 534.4875 514.10626 533.8156Q514.0125 533.34686 514.0125 531.89374L514.0125 527.3625L512.7469 527.3625L512.7469 525.175L514.0125 525.175L514.0125 523.1125L516.7625 521.51874L516.7625 525.175L518.6375 525.175ZM519.59064 525.175L522.5125 525.175L524.98126 532.53436L527.40314 525.175L530.2469 525.175L526.59064 535.15936L525.9344 536.97186Q525.575 537.8781 525.2469 538.34686Q524.91876 538.83124 524.4969 539.1281Q524.075 539.425 523.45 539.58124Q522.825 539.7531 522.04376 539.7531Q521.2625 539.7531 520.4969 539.59686L520.2469 537.4406Q520.90314 537.5656 521.41876 537.5656Q522.3719 537.5656 522.825 537.0031Q523.29376 536.45624 523.52814 535.58124L519.59064 525.175ZM542.4344 539.7531L540.5594 539.7531Q539.0594 537.5031 538.27814 535.08124Q537.4969 532.64374 537.4969 530.3625Q537.4969 527.53436 538.46564 525.01874Q539.3094 522.83124 540.59064 520.9875L542.46564 520.9875Q541.1219 523.9406 540.6219 526.01874Q540.1219 528.09686 540.1219 530.425Q540.1219 532.01874 540.41876 533.70624Q540.71564 535.3781 541.23126 536.89374Q541.575 537.89374 542.4344 539.7531ZM546.9344 528.34686L544.45 527.89374Q544.8719 526.39374 545.8875 525.675Q546.91876 524.9406 548.9344 524.9406Q550.77814 524.9406 551.66876 525.3781Q552.575 525.8156 552.9344 526.4875Q553.3094 527.14374 553.3094 528.9406L553.27814 532.14374Q553.27814 533.5031 553.40314 534.15936Q553.54376 534.8 553.90314 535.55L551.1844 535.55Q551.075 535.26874 550.91876 534.7375Q550.85626 534.4875 550.825 534.40936Q550.1219 535.09686 549.3094 535.4406Q548.5125 535.78436 547.60626 535.78436Q546.0125 535.78436 545.09064 534.925Q544.16876 534.05 544.16876 532.72186Q544.16876 531.83124 544.575 531.14374Q544.9969 530.45624 545.7469 530.09686Q546.5125 529.72186 547.95 529.45624Q549.8719 529.09686 550.60626 528.78436L550.60626 528.5031Q550.60626 527.72186 550.21564 527.39374Q549.825 527.05 548.7469 527.05Q548.0125 527.05 547.59064 527.33124Q547.1844 527.6125 546.9344 528.34686ZM550.60626 530.5656Q550.075 530.7375 548.9344 530.9875Q547.79376 531.2375 547.45 531.47186Q546.90314 531.84686 546.90314 532.4406Q546.90314 533.0031 547.325 533.425Q547.7625 533.84686 548.4344 533.84686Q549.16876 533.84686 549.84064 533.3625Q550.34064 532.9875 550.4969 532.45624Q550.60626 532.09686 550.60626 531.1125L550.60626 530.5656ZM555.8875 523.76874L555.8875 521.2375L558.6375 521.2375L558.6375 523.76874L555.8875 523.76874ZM555.8875 535.55L555.8875 525.175L558.6375 525.175L558.6375 535.55L555.8875 535.55ZM570.40314 535.55L567.85626 535.55L567.85626 534.01874Q567.21564 534.90936 566.34064 535.34686Q565.48126 535.78436 564.60626 535.78436Q562.825 535.78436 561.54376 534.34686Q560.27814 532.90936 560.27814 530.33124Q560.27814 527.6906 561.5125 526.3156Q562.7469 524.9406 564.65314 524.9406Q566.3875 524.9406 567.65314 526.39374L567.65314 521.2375L570.40314 521.2375L570.40314 535.55ZM563.075 530.14374Q563.075 531.8 563.52814 532.53436Q564.2 533.6125 565.3875 533.6125Q566.34064 533.6125 566.9969 532.8156Q567.66876 532.0031 567.66876 530.40936Q567.66876 528.6125 567.0125 527.83124Q566.3719 527.05 565.3719 527.05Q564.3875 527.05 563.73126 527.83124Q563.075 528.59686 563.075 530.14374ZM575.5125 535.55L572.7625 535.55L572.7625 525.175L575.325 525.175L575.325 526.65936Q575.96564 525.6125 576.48126 525.28436Q577.0125 524.9406 577.6844 524.9406Q578.6219 524.9406 579.48126 525.45624L578.6375 527.84686Q577.95 527.40936 577.35626 527.40936Q576.77814 527.40936 576.3719 527.72186Q575.96564 528.03436 575.73126 528.8781Q575.5125 529.70624 575.5125 532.34686L575.5125 535.55ZM580.2469 530.22186Q580.2469 528.84686 580.91876 527.5656Q581.60626 526.28436 582.84064 525.6125Q584.075 524.9406 585.59064 524.9406Q587.95 524.9406 589.45 526.47186Q590.95 528.0031 590.95 530.33124Q590.95 532.6906 589.4344 534.2375Q587.91876 535.78436 585.60626 535.78436Q584.1844 535.78436 582.8875 535.14374Q581.60626 534.4875 580.91876 533.2531Q580.2469 532.0031 580.2469 530.22186ZM583.0594 530.3625Q583.0594 531.90936 583.79376 532.7375Q584.52814 533.55 585.60626 533.55Q586.6844 533.55 587.40314 532.7375Q588.1375 531.90936 588.1375 530.34686Q588.1375 528.8156 587.40314 528.0031Q586.6844 527.175 585.60626 527.175Q584.52814 527.175 583.79376 528.0031Q583.0594 528.8156 583.0594 530.3625ZM592.8094 525.175L595.3719 525.175L595.3719 526.70624Q595.8719 525.925 596.71564 525.4406Q597.5594 524.9406 598.60626 524.9406Q600.40314 524.9406 601.65314 526.3625Q602.91876 527.76874 602.91876 530.3Q602.91876 532.90936 601.65314 534.34686Q600.3875 535.78436 598.575 535.78436Q597.71564 535.78436 597.0125 535.4406Q596.325 535.09686 595.5594 534.26874L595.5594 539.5031L592.8094 539.5031L592.8094 525.175ZM595.52814 530.1906Q595.52814 531.9406 596.21564 532.78436Q596.90314 533.6125 597.90314 533.6125Q598.85626 533.6125 599.4969 532.84686Q600.1375 532.0656 600.1375 530.33124Q600.1375 528.6906 599.48126 527.90936Q598.825 527.1125 597.85626 527.1125Q596.85626 527.1125 596.1844 527.89374Q595.52814 528.65936 595.52814 530.1906ZM623.575 533.8L621.91876 535.925Q620.6844 535.33124 619.575 534.28436Q618.7 535.0656 617.71564 535.4406Q616.7469 535.8 615.40314 535.8Q612.71564 535.8 611.3719 534.3Q610.325 533.14374 610.325 531.6281Q610.325 530.2531 611.1375 529.15936Q611.96564 528.05 613.60626 527.2375Q612.8719 526.3625 612.4969 525.58124Q612.1219 524.8 612.1219 524.09686Q612.1219 522.8 613.15314 521.89374Q614.2 520.9875 616.1375 520.9875Q617.98126 520.9875 619.02814 521.9406Q620.075 522.8781 620.075 524.2531Q620.075 525.1125 619.5594 525.89374Q619.04376 526.675 617.46564 527.675L619.46564 530.3Q619.8094 529.675 620.0594 528.65936L622.54376 529.2375Q622.16876 530.55 621.8875 531.15936Q621.6219 531.76874 621.3094 532.175Q621.77814 532.6125 622.4969 533.1281Q623.23126 533.6281 623.575 533.8ZM616.10626 526.01874L616.84064 525.45624Q617.66876 524.8156 617.66876 524.1906Q617.66876 523.65936 617.2625 523.3Q616.8719 522.925 616.2 522.925Q615.54376 522.925 615.16876 523.2531Q614.8094 523.58124 614.8094 524.0031Q614.8094 524.51874 615.4344 525.2375L616.10626 526.01874ZM615.02814 529.0031Q614.075 529.47186 613.60626 530.14374Q613.1375 530.8156 613.1375 531.51874Q613.1375 532.40936 613.71564 532.97186Q614.3094 533.53436 615.27814 533.53436Q615.91876 533.53436 616.5125 533.28436Q617.1219 533.03436 617.825 532.4406L615.02814 529.0031ZM635.6375 525.175L635.6375 527.3625L633.7625 527.3625L633.7625 531.55Q633.7625 532.8156 633.8094 533.03436Q633.8719 533.2375 634.0594 533.3781Q634.2625 533.5031 634.52814 533.5031Q634.90314 533.5031 635.6375 533.2375L635.8719 535.3781Q634.90314 535.78436 633.7 535.78436Q632.95 535.78436 632.35626 535.53436Q631.7625 535.28436 631.48126 534.89374Q631.21564 534.4875 631.10626 533.8156Q631.0125 533.34686 631.0125 531.89374L631.0125 527.3625L629.7469 527.3625L629.7469 525.175L631.0125 525.175L631.0125 523.1125L633.7625 521.51874L633.7625 525.175L635.6375 525.175ZM640.5125 535.55L637.7625 535.55L637.7625 525.175L640.325 525.175L640.325 526.65936Q640.96564 525.6125 641.48126 525.28436Q642.0125 524.9406 642.6844 524.9406Q643.6219 524.9406 644.48126 525.45624L643.6375 527.84686Q642.95 527.40936 642.35626 527.40936Q641.77814 527.40936 641.3719 527.72186Q640.96564 528.03436 640.73126 528.8781Q640.5125 529.70624 640.5125 532.34686L640.5125 535.55ZM651.8875 532.2531L654.6219 532.70624Q654.10626 534.20624 652.96564 535.0031Q651.825 535.78436 650.1219 535.78436Q647.40314 535.78436 646.10626 534.01874Q645.09064 532.59686 645.09064 530.4406Q645.09064 527.8625 646.4344 526.40936Q647.77814 524.9406 649.84064 524.9406Q652.15314 524.9406 653.48126 526.47186Q654.825 528.0031 654.77814 531.15936L647.90314 531.15936Q647.9344 532.3781 648.5594 533.0656Q649.2 533.7375 650.1375 533.7375Q650.79376 533.7375 651.23126 533.39374Q651.66876 533.03436 651.8875 532.2531ZM652.04376 529.47186Q652.0125 528.28436 651.41876 527.675Q650.84064 527.05 650.0125 527.05Q649.10626 527.05 648.52814 527.6906Q647.9344 528.34686 647.95 529.47186L652.04376 529.47186ZM658.9344 528.34686L656.45 527.89374Q656.8719 526.39374 657.8875 525.675Q658.91876 524.9406 660.9344 524.9406Q662.77814 524.9406 663.66876 525.3781Q664.575 525.8156 664.9344 526.4875Q665.3094 527.14374 665.3094 528.9406L665.27814 532.14374Q665.27814 533.5031 665.40314 534.15936Q665.54376 534.8 665.90314 535.55L663.1844 535.55Q663.075 535.26874 662.91876 534.7375Q662.85626 534.4875 662.825 534.40936Q662.1219 535.09686 661.3094 535.4406Q660.5125 535.78436 659.60626 535.78436Q658.0125 535.78436 657.09064 534.925Q656.16876 534.05 656.16876 532.72186Q656.16876 531.83124 656.575 531.14374Q656.9969 530.45624 657.7469 530.09686Q658.5125 529.72186 659.95 529.45624Q661.8719 529.09686 662.60626 528.78436L662.60626 528.5031Q662.60626 527.72186 662.21564 527.39374Q661.825 527.05 660.7469 527.05Q660.0125 527.05 659.59064 527.33124Q659.1844 527.6125 658.9344 528.34686ZM662.60626 530.5656Q662.075 530.7375 660.9344 530.9875Q659.79376 531.2375 659.45 531.47186Q658.90314 531.84686 658.90314 532.4406Q658.90314 533.0031 659.325 533.425Q659.7625 533.84686 660.4344 533.84686Q661.16876 533.84686 661.84064 533.3625Q662.34064 532.9875 662.4969 532.45624Q662.60626 532.09686 662.60626 531.1125L662.60626 530.5656ZM666.91876 532.59686L669.66876 532.175Q669.85626 532.97186 670.3875 533.39374Q670.91876 533.8 671.8875 533.8Q672.95 533.8 673.4969 533.40936Q673.85626 533.14374 673.85626 532.675Q673.85626 532.3625 673.65314 532.15936Q673.45 531.97186 672.7469 531.8Q669.41876 531.0656 668.52814 530.45624Q667.29376 529.6281 667.29376 528.1281Q667.29376 526.78436 668.35626 525.8625Q669.4344 524.9406 671.66876 524.9406Q673.79376 524.9406 674.825 525.64374Q675.8719 526.33124 676.2625 527.6906L673.66876 528.15936Q673.4969 527.5656 673.02814 527.2375Q672.575 526.90936 671.71564 526.90936Q670.6375 526.90936 670.16876 527.22186Q669.85626 527.4406 669.85626 527.76874Q669.85626 528.0656 670.1219 528.26874Q670.4969 528.55 672.6844 529.05Q674.8719 529.55 675.7469 530.26874Q676.60626 531.0031 676.60626 532.3Q676.60626 533.7375 675.41876 534.76874Q674.23126 535.78436 671.8875 535.78436Q669.77814 535.78436 668.52814 534.925Q667.29376 534.0656 666.91876 532.59686ZM685.71564 535.55L685.71564 534.0031Q685.15314 534.83124 684.21564 535.3156Q683.29376 535.78436 682.27814 535.78436Q681.23126 535.78436 680.40314 535.33124Q679.575 534.8625 679.2 534.03436Q678.825 533.20624 678.825 531.7375L678.825 525.175L681.575 525.175L681.575 529.9406Q681.575 532.1281 681.71564 532.6281Q681.8719 533.1125 682.2625 533.40936Q682.66876 533.6906 683.29376 533.6906Q683.9969 533.6906 684.54376 533.3156Q685.10626 532.925 685.3094 532.3625Q685.5125 531.78436 685.5125 529.55L685.5125 525.175L688.2625 525.175L688.2625 535.55L685.71564 535.55ZM693.5125 535.55L690.7625 535.55L690.7625 525.175L693.325 525.175L693.325 526.65936Q693.96564 525.6125 694.48126 525.28436Q695.0125 524.9406 695.6844 524.9406Q696.6219 524.9406 697.48126 525.45624L696.6375 527.84686Q695.95 527.40936 695.35626 527.40936Q694.77814 527.40936 694.3719 527.72186Q693.96564 528.03436 693.73126 528.8781Q693.5125 529.70624 693.5125 532.34686L693.5125 535.55ZM697.59064 525.175L700.5125 525.175L702.98126 532.53436L705.40314 525.175L708.2469 525.175L704.59064 535.15936L703.9344 536.97186Q703.575 537.8781 703.2469 538.34686Q702.91876 538.83124 702.4969 539.1281Q702.075 539.425 701.45 539.58124Q700.825 539.7531 700.04376 539.7531Q699.2625 539.7531 698.4969 539.59686L698.2469 537.4406Q698.90314 537.5656 699.41876 537.5656Q700.3719 537.5656 700.825 537.0031Q701.29376 536.45624 701.52814 535.58124L697.59064 525.175ZM709.1219 539.7531Q709.9344 538.01874 710.2625 537.08124Q710.60626 536.15936 710.8875 534.95624Q711.16876 533.7375 711.29376 532.65936Q711.4344 531.5656 711.4344 530.425Q711.4344 528.09686 710.9344 526.01874Q710.45 523.9406 709.10626 520.9875L710.96564 520.9875Q712.45 523.08124 713.2625 525.4406Q714.075 527.8 714.075 530.22186Q714.075 532.2531 713.4344 534.59686Q712.7 537.20624 711.0125 539.7531L709.1219 539.7531Z" fill-rule="nonzero"/></svg>