<svg version="1.1" viewBox="0.0 0.0 761.0 641.0" fill="none" stroke="none" stroke-linecap="square" stroke-miterlimit="10" width="761" height="641" xmlns:xlink="http://www.w3.org/1999/xlink" xmlns="http://www.w3.org/2000/svg"><path fill="#232832" d="M0 0L761.0 0L761.0 641.0L0 641.0L0 0Z" fill-rule="nonzero"/><path fill="#9d009d" d="M380.5 32.05C391.332 32.05 402.15045 32.815987 412.87442 34.34223L380.5 261.81668Z" fill-rule="nonzero"/><path fill="#f0ff9b" d="M412.87442 34.34223C485.69052 44.7055 549.1446 89.30201 583.5604 154.30304L380.5 261.81668Z" fill-rule="nonzero"/><path fill="#14bf51" d="M583.5604 154.30304C617.9761 219.30371 619.1939 296.8518 586.8363 362.9011L380.5 261.81668Z" fill-rule="nonzero"/><path fill="#91f5f5" d="M164.47389 340.08185C138.95918 269.65665 149.3748 191.21516 192.38374 129.88867C235.39268 68.56218 305.59534 32.05 380.5 32.05L380.5 261.81668Z" fill-rule="nonzero"/><path fill="#1470e8" d="M194.61487 396.87012C181.9561 379.44684 171.8098 360.33032 164.47389 340.08185L380.5 261.81668Z" fill-rule="nonzero"/><path fill="#ffb4ff" d="M586.8363 362.9011C551.3834 435.26846 480.60962 483.77325 400.32513 490.72644C320.04065 497.67963 241.98154 462.06476 194.61487 396.87012L380.5 261.81668Z" fill-rule="nonzero"/><path fill="#9d009d" d="M44.05 523.45C44.05 526.76373 41.36371 529.45 38.05 529.45C34.73629 529.45 32.05 526.76373 32.05 523.45C32.05 520.1363 34.73629 517.45 38.05 517.45C41.36371 517.45 44.05 520.1363 44.05 523.45Z" fill-rule="nonzero"/><path fill="#ffffff" d="M53.346874 517.0594L58.1125 517.0594Q59.721874 517.0594 60.565624 517.3094Q61.690624 517.6375 62.503124 518.4969Q63.315624 519.35626 63.7375 520.59064Q64.15938 521.825 64.15938 523.6375Q64.15938 525.21564 63.753124 526.3719Q63.26875 527.77814 62.378124 528.65314Q61.70625 529.3094 60.55 529.6844Q59.690624 529.95 58.253124 529.95L53.346874 529.95L53.346874 517.0594ZM55.95625 519.2469L55.95625 527.77814L57.89375 527.77814Q58.9875 527.77814 59.471874 527.65314Q60.096874 527.4969 60.51875 527.1219Q60.940624 526.7469 61.190624 525.8875Q61.45625 525.0125 61.45625 523.5125Q61.45625 522.02814 61.190624 521.23126Q60.940624 520.41876 60.45625 519.98126Q59.9875 519.52814 59.253124 519.3719Q58.70625 519.2469 57.128124 519.2469L55.95625 519.2469ZM77.97188 529.95L75.14375 529.95L74.01875 527.02814L68.87813 527.02814L67.81563 529.95L65.05 529.95L70.06563 517.0594L72.81563 517.0594L77.97188 529.95ZM73.19063 524.85626L71.40938 520.075L69.675 524.85626L73.19063 524.85626ZM78.83125 523.59064Q78.83125 521.6219 79.425 520.27814Q79.8625 519.29376 80.6125 518.5125Q81.37813 517.73126 82.28438 517.35626Q83.4875 516.84064 85.06563 516.84064Q87.90938 516.84064 89.6125 518.60626Q91.33125 520.3719 91.33125 523.52814Q91.33125 526.6375 89.62813 528.40314Q87.94063 530.16876 85.09688 530.16876Q82.22188 530.16876 80.51875 528.41876Q78.83125 526.66876 78.83125 523.59064ZM81.51875 523.4969Q81.51875 525.6844 82.51875 526.825Q83.53438 527.95 85.09688 527.95Q86.64375 527.95 87.64375 526.825Q88.64375 525.7 88.64375 523.46564Q88.64375 521.2469 87.675 520.16876Q86.70625 519.075 85.09688 519.075Q83.4875 519.075 82.50313 520.1844Q81.51875 521.27814 81.51875 523.4969ZM98.06563 526.5125L98.06563 524.04376L102.90938 524.04376L102.90938 526.5125L98.06563 526.5125ZM109.28438 529.95L109.28438 517.0594L111.87813 517.0594L111.87813 529.95L109.28438 529.95ZM122.83125 529.95L120.3625 529.95L120.3625 525.1844Q120.3625 523.66876 120.20625 523.23126Q120.05 522.79376 119.69063 522.54376Q119.33125 522.29376 118.83125 522.29376Q118.19063 522.29376 117.675 522.65314Q117.175 522.9969 116.9875 523.575Q116.8 524.15314 116.8 525.71564L116.8 529.95L114.33125 529.95L114.33125 520.6219L116.6125 520.6219L116.6125 521.98126Q117.84688 520.40314 119.69063 520.40314Q120.51875 520.40314 121.19063 520.7Q121.8625 520.9969 122.20625 521.45Q122.56563 521.90314 122.69063 522.4969Q122.83125 523.075 122.83125 524.15314L122.83125 529.95ZM125.34688 519.35626L125.34688 517.0594L127.81563 517.0594L127.81563 519.35626L125.34688 519.35626ZM125.34688 529.95L125.34688 520.6219L127.81563 520.6219L127.81563 529.95L125.34688 529.95ZM134.62813 520.6219L134.62813 522.59064L132.94063 522.59064L132.94063 526.34064Q132.94063 527.48126 132.9875 527.6844Q133.03438 527.8719 133.20625 527.9969Q133.37813 528.10626 133.62813 528.10626Q133.95625 528.10626 134.6125 527.8719L134.83125 529.79376Q133.95625 530.16876 132.87813 530.16876Q132.20625 530.16876 131.65938 529.95Q131.12813 529.71564 130.87813 529.35626Q130.62813 528.9969 130.53438 528.3875Q130.45625 527.96564 130.45625 526.65314L130.45625 522.59064L129.31563 522.59064L129.31563 520.6219L130.45625 520.6219L130.45625 518.7625L132.94063 517.325L132.94063 520.6219L134.62813 520.6219ZM136.34688 519.35626L136.34688 517.0594L138.81563 517.0594L138.81563 519.35626L136.34688 519.35626ZM136.34688 529.95L136.34688 520.6219L138.81563 520.6219L138.81563 529.95L136.34688 529.95ZM143.19063 523.46564L140.94063 523.0594Q141.33125 521.7 142.25313 521.0594Q143.175 520.40314 144.9875 520.40314Q146.64375 520.40314 147.44063 520.79376Q148.25313 521.1844 148.58125 521.79376Q148.925 522.3875 148.925 523.9969L148.89375 526.8875Q148.89375 528.10626 149.00313 528.7Q149.12813 529.27814 149.45625 529.95L147.01875 529.95Q146.90938 529.7 146.76875 529.21564Q146.70625 528.9969 146.69063 528.9344Q146.05 529.54376 145.33125 529.85626Q144.6125 530.16876 143.8 530.16876Q142.34688 530.16876 141.51875 529.3875Q140.69063 528.59064 140.69063 527.40314Q140.69063 526.60626 141.06563 525.9969Q141.44063 525.3719 142.12813 525.04376Q142.81563 524.71564 144.09688 524.46564Q145.83125 524.1375 146.4875 523.85626L146.4875 523.60626Q146.4875 522.90314 146.12813 522.60626Q145.78438 522.29376 144.81563 522.29376Q144.15938 522.29376 143.78438 522.5594Q143.40938 522.8094 143.19063 523.46564ZM146.4875 525.46564Q146.01875 525.6219 144.9875 525.84064Q143.95625 526.0594 143.64375 526.27814Q143.15938 526.6219 143.15938 527.15314Q143.15938 527.66876 143.55 528.04376Q143.94063 528.41876 144.53438 528.41876Q145.20625 528.41876 145.8 527.98126Q146.25313 527.65314 146.39375 527.16876Q146.4875 526.84064 146.4875 525.96564L146.4875 525.46564ZM151.34688 529.95L151.34688 517.0594L153.81563 517.0594L153.81563 529.95L151.34688 529.95ZM160.70625 525.7625L163.2375 525.5125Q163.45625 526.77814 164.15938 527.3875Q164.8625 527.98126 166.05 527.98126Q167.3 527.98126 167.94063 527.45Q168.58125 526.91876 168.58125 526.2Q168.58125 525.7469 168.3 525.4344Q168.03438 525.10626 167.37813 524.8719Q166.90938 524.71564 165.28438 524.3094Q163.19063 523.79376 162.34688 523.02814Q161.15938 521.96564 161.15938 520.4344Q161.15938 519.45 161.72188 518.60626Q162.28438 517.7469 163.33125 517.29376Q164.37813 516.84064 165.8625 516.84064Q168.3 516.84064 169.51875 517.90314Q170.75313 518.96564 170.81563 520.7469L168.20625 520.85626Q168.03438 519.8719 167.4875 519.4344Q166.94063 518.9969 165.84688 518.9969Q164.70625 518.9969 164.06563 519.46564Q163.65938 519.7625 163.65938 520.2625Q163.65938 520.71564 164.03438 521.04376Q164.53438 521.46564 166.425 521.91876Q168.33125 522.35626 169.2375 522.84064Q170.14375 523.3094 170.65938 524.15314Q171.175 524.98126 171.175 526.2Q171.175 527.3094 170.55 528.27814Q169.94063 529.23126 168.81563 529.71564Q167.69063 530.1844 166.01875 530.1844Q163.58125 530.1844 162.26875 529.0594Q160.95625 527.91876 160.70625 525.7625ZM178.75313 526.98126L181.20625 527.3875Q180.7375 528.7469 179.70625 529.46564Q178.69063 530.16876 177.14375 530.16876Q174.70625 530.16876 173.55 528.575Q172.62813 527.29376 172.62813 525.35626Q172.62813 523.02814 173.83125 521.71564Q175.05 520.40314 176.90938 520.40314Q178.9875 520.40314 180.19063 521.77814Q181.39375 523.15314 181.34688 525.9969L175.15938 525.9969Q175.175 527.09064 175.7375 527.7Q176.31563 528.3094 177.175 528.3094Q177.75313 528.3094 178.14375 527.9969Q178.55 527.6844 178.75313 526.98126ZM178.89375 524.48126Q178.8625 523.40314 178.33125 522.85626Q177.8 522.29376 177.05 522.29376Q176.2375 522.29376 175.72188 522.8875Q175.19063 523.46564 175.19063 524.48126L178.89375 524.48126ZM186.70625 529.95L184.2375 529.95L184.2375 520.6219L186.53438 520.6219L186.53438 521.95Q187.1125 520.9969 187.58125 520.7Q188.06563 520.40314 188.65938 520.40314Q189.50313 520.40314 190.28438 520.8719L189.51875 523.02814Q188.89375 522.6219 188.3625 522.6219Q187.84688 522.6219 187.47188 522.90314Q187.1125 523.1844 186.90938 523.9344Q186.70625 524.6844 186.70625 527.0594L186.70625 529.95ZM193.90938 529.95L190.14375 520.6219L192.7375 520.6219L194.50313 525.3719L195.00313 526.96564Q195.20625 526.35626 195.26875 526.16876Q195.37813 525.77814 195.51875 525.3719L197.3 520.6219L199.84688 520.6219L196.12813 529.95L193.90938 529.95ZM202.34688 519.35626L202.34688 517.0594L204.81563 517.0594L204.81563 519.35626L202.34688 519.35626ZM202.34688 529.95L202.34688 520.6219L204.81563 520.6219L204.81563 529.95L202.34688 529.95ZM215.4875 523.3719L213.05 523.8094Q212.925 523.09064 212.4875 522.71564Q212.05 522.34064 211.3625 522.34064Q210.44063 522.34064 209.87813 522.98126Q209.33125 523.6219 209.33125 525.1219Q209.33125 526.77814 209.89375 527.46564Q210.45625 528.15314 211.39375 528.15314Q212.09688 528.15314 212.53438 527.7469Q212.9875 527.34064 213.175 526.3719L215.59688 526.77814Q215.22188 528.45 214.14375 529.3094Q213.08125 530.16876 211.28438 530.16876Q209.2375 530.16876 208.01875 528.8719Q206.8 527.575 206.8 525.29376Q206.8 522.98126 208.01875 521.7Q209.2375 520.40314 211.33125 520.40314Q213.03438 520.40314 214.03438 521.1375Q215.03438 521.8719 215.4875 523.3719ZM222.75313 526.98126L225.20625 527.3875Q224.7375 528.7469 223.70625 529.46564Q222.69063 530.16876 221.14375 530.16876Q218.70625 530.16876 217.55 528.575Q216.62813 527.29376 216.62813 525.35626Q216.62813 523.02814 217.83125 521.71564Q219.05 520.40314 220.90938 520.40314Q222.9875 520.40314 224.19063 521.77814Q225.39375 523.15314 225.34688 525.9969L219.15938 525.9969Q219.175 527.09064 219.7375 527.7Q220.31563 528.3094 221.175 528.3094Q221.75313 528.3094 222.14375 527.9969Q222.55 527.6844 222.75313 526.98126ZM222.89375 524.48126Q222.8625 523.40314 222.33125 522.85626Q221.8 522.29376 221.05 522.29376Q220.2375 522.29376 219.72188 522.8875Q219.19063 523.46564 219.19063 524.48126L222.89375 524.48126ZM233.3625 529.95L233.3625 517.0594L237.53438 517.0594Q239.90938 517.0594 240.62813 517.2625Q241.7375 517.54376 242.4875 518.52814Q243.2375 519.4969 243.2375 521.02814Q243.2375 522.21564 242.8 523.02814Q242.3625 523.825 241.69063 524.29376Q241.03438 524.7625 240.3625 524.90314Q239.425 525.09064 237.65938 525.09064L235.95625 525.09064L235.95625 529.95L233.3625 529.95ZM235.95625 519.2469L235.95625 522.90314L237.37813 522.90314Q238.925 522.90314 239.44063 522.7Q239.95625 522.4969 240.25313 522.075Q240.55 521.6375 240.55 521.0594Q240.55 520.35626 240.12813 519.90314Q239.72188 519.45 239.09688 519.325Q238.62813 519.2469 237.22188 519.2469L235.95625 519.2469ZM247.70625 529.95L245.2375 529.95L245.2375 520.6219L247.53438 520.6219L247.53438 521.95Q248.1125 520.9969 248.58125 520.7Q249.06563 520.40314 249.65938 520.40314Q250.50313 520.40314 251.28438 520.8719L250.51875 523.02814Q249.89375 522.6219 249.3625 522.6219Q248.84688 522.6219 248.47188 522.90314Q248.1125 523.1844 247.90938 523.9344Q247.70625 524.6844 247.70625 527.0594L247.70625 529.95ZM251.76875 525.15314Q251.76875 523.91876 252.37813 522.77814Q252.9875 521.6219 254.09688 521.0125Q255.20625 520.40314 256.58124 520.40314Q258.6906 520.40314 260.05 521.77814Q261.40936 523.15314 261.40936 525.2625Q261.40936 527.3719 260.03436 528.77814Q258.675 530.16876 256.59686 530.16876Q255.31563 530.16876 254.14375 529.59064Q252.9875 528.9969 252.37813 527.8875Q251.76875 526.7625 251.76875 525.15314ZM254.3 525.27814Q254.3 526.66876 254.95625 527.41876Q255.62813 528.15314 256.58124 528.15314Q257.55 528.15314 258.20624 527.41876Q258.8625 526.66876 258.8625 525.2625Q258.8625 523.8875 258.20624 523.15314Q257.55 522.41876 256.58124 522.41876Q255.62813 522.41876 254.95625 523.15314Q254.3 523.8875 254.3 525.27814ZM265.90936 529.95L262.14374 520.6219L264.7375 520.6219L266.5031 525.3719L267.0031 526.96564Q267.20624 526.35626 267.26874 526.16876Q267.3781 525.77814 267.51874 525.3719L269.3 520.6219L271.84686 520.6219L268.1281 529.95L265.90936 529.95ZM274.34686 519.35626L274.34686 517.0594L276.8156 517.0594L276.8156 519.35626L274.34686 519.35626ZM274.34686 529.95L274.34686 520.6219L276.8156 520.6219L276.8156 529.95L274.34686 529.95ZM287.90936 529.95L285.6125 529.95L285.6125 528.575Q285.03436 529.3719 284.2531 529.77814Q283.4875 530.16876 282.6906 530.16876Q281.08124 530.16876 279.925 528.8719Q278.78436 527.575 278.78436 525.2469Q278.78436 522.8719 279.89374 521.6375Q281.01874 520.40314 282.72186 520.40314Q284.28436 520.40314 285.4406 521.7L285.4406 517.0594L287.90936 517.0594L287.90936 529.95ZM281.3156 525.075Q281.3156 526.575 281.72186 527.2469Q282.3156 528.21564 283.39374 528.21564Q284.2531 528.21564 284.84686 527.4969Q285.4406 526.7625 285.4406 525.325Q285.4406 523.71564 284.8625 523.0125Q284.28436 522.29376 283.3781 522.29376Q282.5031 522.29376 281.90936 522.9969Q281.3156 523.6844 281.3156 525.075ZM295.7531 526.98126L298.20624 527.3875Q297.7375 528.7469 296.70624 529.46564Q295.6906 530.16876 294.14374 530.16876Q291.70624 530.16876 290.55 528.575Q289.6281 527.29376 289.6281 525.35626Q289.6281 523.02814 290.83124 521.71564Q292.05 520.40314 293.90936 520.40314Q295.9875 520.40314 297.1906 521.77814Q298.39374 523.15314 298.34686 525.9969L292.15936 525.9969Q292.175 527.09064 292.7375 527.7Q293.3156 528.3094 294.175 528.3094Q294.7531 528.3094 295.14374 527.9969Q295.55 527.6844 295.7531 526.98126ZM295.89374 524.48126Q295.8625 523.40314 295.33124 522.85626Q294.8 522.29376 294.05 522.29376Q293.2375 522.29376 292.72186 522.8875Q292.1906 523.46564 292.1906 524.48126L295.89374 524.48126ZM303.70624 529.95L301.2375 529.95L301.2375 520.6219L303.53436 520.6219L303.53436 521.95Q304.1125 520.9969 304.58124 520.7Q305.0656 520.40314 305.65936 520.40314Q306.5031 520.40314 307.28436 520.8719L306.51874 523.02814Q305.89374 522.6219 305.3625 522.6219Q304.84686 522.6219 304.47186 522.90314Q304.1125 523.1844 303.90936 523.9344Q303.70624 524.6844 303.70624 527.0594L303.70624 529.95ZM307.47186 527.29376L309.95624 526.90314Q310.1125 527.6219 310.59686 527.9969Q311.08124 528.3719 311.9406 528.3719Q312.90936 528.3719 313.39374 528.02814Q313.70624 527.77814 313.70624 527.3719Q313.70624 527.09064 313.53436 526.90314Q313.34686 526.73126 312.70624 526.575Q309.72186 525.91876 308.925 525.3719Q307.8156 524.6219 307.8156 523.2625Q307.8156 522.0594 308.76874 521.23126Q309.7375 520.40314 311.7375 520.40314Q313.65936 520.40314 314.58124 521.02814Q315.51874 521.65314 315.8781 522.8719L313.55 523.3094Q313.39374 522.7625 312.97186 522.48126Q312.5656 522.1844 311.78436 522.1844Q310.8156 522.1844 310.39374 522.45Q310.1125 522.65314 310.1125 522.95Q310.1125 523.21564 310.3625 523.40314Q310.6906 523.65314 312.65936 524.10626Q314.6281 524.54376 315.425 525.2Q316.1906 525.85626 316.1906 527.02814Q316.1906 528.3094 315.1125 529.2469Q314.05 530.16876 311.9406 530.16876Q310.03436 530.16876 308.925 529.3875Q307.8156 528.60626 307.47186 527.29376ZM327.4406 533.73126L325.7375 533.73126Q324.39374 531.71564 323.6906 529.52814Q322.9875 527.325 322.9875 525.27814Q322.9875 522.7469 323.8625 520.48126Q324.6125 518.5125 325.78436 516.84064L327.47186 516.84064Q326.2531 519.5125 325.8 521.3875Q325.3625 523.2469 325.3625 525.34064Q325.3625 526.77814 325.6281 528.29376Q325.89374 529.79376 326.3625 531.16876Q326.65936 532.0594 327.4406 533.73126ZM337.15936 527.65314L337.15936 529.95L328.5031 529.95Q328.64374 528.65314 329.34686 527.4969Q330.05 526.325 332.1125 524.3875Q333.78436 522.84064 334.175 522.27814Q334.675 521.52814 334.675 520.77814Q334.675 519.95 334.22186 519.5125Q333.78436 519.0594 333.0031 519.0594Q332.2375 519.0594 331.76874 519.52814Q331.3156 519.9969 331.2531 521.075L328.78436 520.825Q329.0031 518.79376 330.15936 517.90314Q331.33124 517.0125 333.0656 517.0125Q334.97186 517.0125 336.0656 518.04376Q337.15936 519.075 337.15936 520.59064Q337.15936 521.46564 336.84686 522.2625Q336.53436 523.04376 335.8625 523.90314Q335.40936 524.48126 334.2375 525.5594Q333.0656 526.6219 332.7531 526.98126Q332.4406 527.325 332.2531 527.65314L337.15936 527.65314ZM339.34686 529.95L339.34686 527.48126L341.8156 527.48126L341.8156 529.95L339.34686 529.95ZM352.15936 527.65314L352.15936 529.95L343.5031 529.95Q343.64374 528.65314 344.34686 527.4969Q345.05 526.325 347.1125 524.3875Q348.78436 522.84064 349.175 522.27814Q349.675 521.52814 349.675 520.77814Q349.675 519.95 349.22186 519.5125Q348.78436 519.0594 348.0031 519.0594Q347.2375 519.0594 346.76874 519.52814Q346.3156 519.9969 346.2531 521.075L343.78436 520.825Q344.0031 518.79376 345.15936 517.90314Q346.33124 517.0125 348.0656 517.0125Q349.97186 517.0125 351.0656 518.04376Q352.15936 519.075 352.15936 520.59064Q352.15936 521.46564 351.84686 522.2625Q351.53436 523.04376 350.8625 523.90314Q350.40936 524.48126 349.2375 525.5594Q348.0656 526.6219 347.7531 526.98126Q347.4406 527.325 347.2531 527.65314L352.15936 527.65314ZM353.84686 526.6375L356.3156 526.3875Q356.40936 527.21564 356.925 527.7Q357.45624 528.1844 358.1281 528.1844Q358.90936 528.1844 359.4406 527.5594Q359.97186 526.9344 359.97186 525.66876Q359.97186 524.48126 359.4406 523.8875Q358.90936 523.29376 358.0656 523.29376Q357.0031 523.29376 356.15936 524.23126L354.14374 523.95L355.40936 517.2469L361.9406 517.2469L361.9406 519.5594L357.28436 519.5594L356.89374 521.7469Q357.72186 521.325 358.58124 521.325Q360.2375 521.325 361.3781 522.52814Q362.51874 523.71564 362.51874 525.6219Q362.51874 527.21564 361.59686 528.46564Q360.33124 530.16876 358.09686 530.16876Q356.3156 530.16876 355.1906 529.21564Q354.0656 528.2469 353.84686 526.6375ZM363.83124 520.2469Q363.83124 518.5125 364.58124 517.6844Q365.34686 516.84064 366.65936 516.84064Q368.0031 516.84064 368.7531 517.6844Q369.51874 518.5125 369.51874 520.2469Q369.51874 521.98126 368.7531 522.825Q368.0031 523.65314 366.6906 523.65314Q365.34686 523.65314 364.58124 522.825Q363.83124 521.98126 363.83124 520.2469ZM365.7531 520.23126Q365.7531 521.48126 366.05 521.91876Q366.26874 522.23126 366.65936 522.23126Q367.05 522.23126 367.26874 521.91876Q367.55 521.48126 367.55 520.23126Q367.55 518.96564 367.26874 518.54376Q367.05 518.23126 366.65936 518.23126Q366.26874 518.23126 366.05 518.54376Q365.7531 518.96564 365.7531 520.23126ZM368.53436 530.45L366.70624 530.45L373.5656 516.84064L375.34686 516.84064L368.53436 530.45ZM372.51874 527.0594Q372.51874 525.325 373.28436 524.4969Q374.05 523.65314 375.3625 523.65314Q376.6906 523.65314 377.4406 524.4969Q378.20624 525.325 378.20624 527.0594Q378.20624 528.79376 377.4406 529.6375Q376.6906 530.46564 375.39374 530.46564Q374.05 530.46564 373.28436 529.6375Q372.51874 528.79376 372.51874 527.0594ZM374.45624 527.04376Q374.45624 528.3094 374.7375 528.73126Q374.95624 529.0594 375.34686 529.0594Q375.7375 529.0594 375.95624 528.73126Q376.2375 528.3094 376.2375 527.04376Q376.2375 525.79376 375.95624 525.35626Q375.7375 525.04376 375.34686 525.04376Q374.95624 525.04376 374.7375 525.35626Q374.45624 525.79376 374.45624 527.04376ZM380.65936 533.73126Q381.39374 532.16876 381.6906 531.325Q381.9875 530.4969 382.2375 529.41876Q382.4875 528.325 382.6125 527.34064Q382.7375 526.35626 382.7375 525.34064Q382.7375 523.2469 382.28436 521.3875Q381.84686 519.5125 380.64374 516.84064L382.3156 516.84064Q383.64374 518.73126 384.3781 520.85626Q385.1125 522.96564 385.1125 525.15314Q385.1125 526.98126 384.53436 529.09064Q383.8781 531.45 382.3625 533.73126L380.65936 533.73126Z" fill-rule="nonzero"/><path fill="#f0ff9b" d="M44.05 548.45C44.05 551.76373 41.36371 554.45 38.05 554.45C34.73629 554.45 32.05 551.76373 32.05 548.45C32.05 545.1363 34.73629 542.45 38.05 542.45C41.36371 542.45 44.05 545.1363 44.05 548.45Z" fill-rule="nonzero"/><path fill="#ffffff" d="M53.346874 542.0594L58.1125 542.0594Q59.721874 542.0594 60.565624 542.3094Q61.690624 542.6375 62.503124 543.4969Q63.315624 544.35626 63.7375 545.59064Q64.15938 546.825 64.15938 548.6375Q64.15938 550.21564 63.753124 551.3719Q63.26875 552.77814 62.378124 553.65314Q61.70625 554.3094 60.55 554.6844Q59.690624 554.95 58.253124 554.95L53.346874 554.95L53.346874 542.0594ZM55.95625 544.2469L55.95625 552.77814L57.89375 552.77814Q58.9875 552.77814 59.471874 552.65314Q60.096874 552.4969 60.51875 552.1219Q60.940624 551.7469 61.190624 550.8875Q61.45625 550.0125 61.45625 548.5125Q61.45625 547.02814 61.190624 546.23126Q60.940624 545.41876 60.45625 544.98126Q59.9875 544.52814 59.253124 544.3719Q58.70625 544.2469 57.128124 544.2469L55.95625 544.2469ZM77.97188 554.95L75.14375 554.95L74.01875 552.02814L68.87813 552.02814L67.81563 554.95L65.05 554.95L70.06563 542.0594L72.81563 542.0594L77.97188 554.95ZM73.19063 549.85626L71.40938 545.075L69.675 549.85626L73.19063 549.85626ZM78.83125 548.59064Q78.83125 546.6219 79.425 545.27814Q79.8625 544.29376 80.6125 543.5125Q81.37813 542.73126 82.28438 542.35626Q83.4875 541.84064 85.06563 541.84064Q87.90938 541.84064 89.6125 543.60626Q91.33125 545.3719 91.33125 548.52814Q91.33125 551.6375 89.62813 553.40314Q87.94063 555.16876 85.09688 555.16876Q82.22188 555.16876 80.51875 553.41876Q78.83125 551.66876 78.83125 548.59064ZM81.51875 548.4969Q81.51875 550.6844 82.51875 551.825Q83.53438 552.95 85.09688 552.95Q86.64375 552.95 87.64375 551.825Q88.64375 550.7 88.64375 548.46564Q88.64375 546.2469 87.675 545.16876Q86.70625 544.075 85.09688 544.075Q83.4875 544.075 82.50313 545.1844Q81.51875 546.27814 81.51875 548.4969ZM98.06563 551.5125L98.06563 549.04376L102.90938 549.04376L102.90938 551.5125L98.06563 551.5125ZM109.28438 554.95L109.28438 542.0594L111.87813 542.0594L111.87813 554.95L109.28438 554.95ZM122.83125 554.95L120.3625 554.95L120.3625 550.1844Q120.3625 548.66876 120.20625 548.23126Q120.05 547.79376 119.69063 547.54376Q119.33125 547.29376 118.83125 547.29376Q118.19063 547.29376 117.675 547.65314Q117.175 547.9969 116.9875 548.575Q116.8 549.15314 116.8 550.71564L116.8 554.95L114.33125 554.95L114.33125 545.6219L116.6125 545.6219L116.6125 546.98126Q117.84688 545.40314 119.69063 545.40314Q120.51875 545.40314 121.19063 545.7Q121.8625 545.9969 122.20625 546.45Q122.56563 546.90314 122.69063 547.4969Q122.83125 548.075 122.83125 549.15314L122.83125 554.95ZM125.34688 544.35626L125.34688 542.0594L127.81563 542.0594L127.81563 544.35626L125.34688 544.35626ZM125.34688 554.95L125.34688 545.6219L127.81563 545.6219L127.81563 554.95L125.34688 554.95ZM134.62813 545.6219L134.62813 547.59064L132.94063 547.59064L132.94063 551.34064Q132.94063 552.48126 132.9875 552.6844Q133.03438 552.8719 133.20625 552.9969Q133.37813 553.10626 133.62813 553.10626Q133.95625 553.10626 134.6125 552.8719L134.83125 554.79376Q133.95625 555.16876 132.87813 555.16876Q132.20625 555.16876 131.65938 554.95Q131.12813 554.71564 130.87813 554.35626Q130.62813 553.9969 130.53438 553.3875Q130.45625 552.96564 130.45625 551.65314L130.45625 547.59064L129.31563 547.59064L129.31563 545.6219L130.45625 545.6219L130.45625 543.7625L132.94063 542.325L132.94063 545.6219L134.62813 545.6219ZM136.34688 544.35626L136.34688 542.0594L138.81563 542.0594L138.81563 544.35626L136.34688 544.35626ZM136.34688 554.95L136.34688 545.6219L138.81563 545.6219L138.81563 554.95L136.34688 554.95ZM143.19063 548.46564L140.94063 548.0594Q141.33125 546.7 142.25313 546.0594Q143.175 545.40314 144.9875 545.40314Q146.64375 545.40314 147.44063 545.79376Q148.25313 546.1844 148.58125 546.79376Q148.925 547.3875 148.925 548.9969L148.89375 551.8875Q148.89375 553.10626 149.00313 553.7Q149.12813 554.27814 149.45625 554.95L147.01875 554.95Q146.90938 554.7 146.76875 554.21564Q146.70625 553.9969 146.69063 553.9344Q146.05 554.54376 145.33125 554.85626Q144.6125 555.16876 143.8 555.16876Q142.34688 555.16876 141.51875 554.3875Q140.69063 553.59064 140.69063 552.40314Q140.69063 551.60626 141.06563 550.9969Q141.44063 550.3719 142.12813 550.04376Q142.81563 549.71564 144.09688 549.46564Q145.83125 549.1375 146.4875 548.85626L146.4875 548.60626Q146.4875 547.90314 146.12813 547.60626Q145.78438 547.29376 144.81563 547.29376Q144.15938 547.29376 143.78438 547.5594Q143.40938 547.8094 143.19063 548.46564ZM146.4875 550.46564Q146.01875 550.6219 144.9875 550.84064Q143.95625 551.0594 143.64375 551.27814Q143.15938 551.6219 143.15938 552.15314Q143.15938 552.66876 143.55 553.04376Q143.94063 553.41876 144.53438 553.41876Q145.20625 553.41876 145.8 552.98126Q146.25313 552.65314 146.39375 552.16876Q146.4875 551.84064 146.4875 550.96564L146.4875 550.46564ZM151.34688 554.95L151.34688 542.0594L153.81563 542.0594L153.81563 554.95L151.34688 554.95ZM172.97188 554.95L170.14375 554.95L169.01875 552.02814L163.87813 552.02814L162.81563 554.95L160.05 554.95L165.06563 542.0594L167.81563 542.0594L172.97188 554.95ZM168.19063 549.85626L166.40938 545.075L164.675 549.85626L168.19063 549.85626ZM174.34688 544.35626L174.34688 542.0594L176.81563 542.0594L176.81563 544.35626L174.34688 544.35626ZM174.34688 554.95L174.34688 545.6219L176.81563 545.6219L176.81563 554.95L174.34688 554.95ZM181.70625 554.95L179.2375 554.95L179.2375 545.6219L181.53438 545.6219L181.53438 546.95Q182.1125 545.9969 182.58125 545.7Q183.06563 545.40314 183.65938 545.40314Q184.50313 545.40314 185.28438 545.8719L184.51875 548.02814Q183.89375 547.6219 183.3625 547.6219Q182.84688 547.6219 182.47188 547.90314Q182.1125 548.1844 181.90938 548.9344Q181.70625 549.6844 181.70625 552.0594L181.70625 554.95ZM194.90938 554.95L192.6125 554.95L192.6125 553.575Q192.03438 554.3719 191.25313 554.77814Q190.4875 555.16876 189.69063 555.16876Q188.08125 555.16876 186.925 553.8719Q185.78438 552.575 185.78438 550.2469Q185.78438 547.8719 186.89375 546.6375Q188.01875 545.40314 189.72188 545.40314Q191.28438 545.40314 192.44063 546.7L192.44063 542.0594L194.90938 542.0594L194.90938 554.95ZM188.31563 550.075Q188.31563 551.575 188.72188 552.2469Q189.31563 553.21564 190.39375 553.21564Q191.25313 553.21564 191.84688 552.4969Q192.44063 551.7625 192.44063 550.325Q192.44063 548.71564 191.8625 548.0125Q191.28438 547.29376 190.37813 547.29376Q189.50313 547.29376 188.90938 547.9969Q188.31563 548.6844 188.31563 550.075ZM199.70625 554.95L197.2375 554.95L197.2375 545.6219L199.53438 545.6219L199.53438 546.95Q200.1125 545.9969 200.58125 545.7Q201.06563 545.40314 201.65938 545.40314Q202.50313 545.40314 203.28438 545.8719L202.51875 548.02814Q201.89375 547.6219 201.3625 547.6219Q200.84688 547.6219 200.47188 547.90314Q200.1125 548.1844 199.90938 548.9344Q199.70625 549.6844 199.70625 552.0594L199.70625 554.95ZM203.76875 550.15314Q203.76875 548.91876 204.37813 547.77814Q204.9875 546.6219 206.09688 546.0125Q207.20625 545.40314 208.58125 545.40314Q210.69063 545.40314 212.05 546.77814Q213.40938 548.15314 213.40938 550.2625Q213.40938 552.3719 212.03438 553.77814Q210.675 555.16876 208.59688 555.16876Q207.31563 555.16876 206.14375 554.59064Q204.9875 553.9969 204.37813 552.8875Q203.76875 551.7625 203.76875 550.15314ZM206.3 550.27814Q206.3 551.66876 206.95625 552.41876Q207.62813 553.15314 208.58125 553.15314Q209.55 553.15314 210.20625 552.41876Q210.8625 551.66876 210.8625 550.2625Q210.8625 548.8875 210.20625 548.15314Q209.55 547.41876 208.58125 547.41876Q207.62813 547.41876 206.95625 548.15314Q206.3 548.8875 206.3 550.27814ZM215.26875 545.6219L217.58125 545.6219L217.58125 546.98126Q218.01875 546.27814 218.78438 545.84064Q219.55 545.40314 220.4875 545.40314Q222.1125 545.40314 223.2375 546.6844Q224.37813 547.95 224.37813 550.23126Q224.37813 552.575 223.2375 553.8719Q222.09688 555.16876 220.47188 555.16876Q219.69063 555.16876 219.06563 554.85626Q218.44063 554.54376 217.7375 553.79376L217.7375 558.4969L215.26875 558.4969L215.26875 545.6219ZM217.72188 550.1219Q217.72188 551.7 218.33125 552.45Q218.95625 553.2 219.8625 553.2Q220.72188 553.2 221.28438 552.5125Q221.8625 551.825 221.8625 550.2469Q221.8625 548.77814 221.26875 548.075Q220.69063 547.35626 219.81563 547.35626Q218.90938 547.35626 218.31563 548.0594Q217.72188 548.7469 217.72188 550.1219ZM235.44063 558.73126L233.7375 558.73126Q232.39375 556.71564 231.69063 554.52814Q230.9875 552.325 230.9875 550.27814Q230.9875 547.7469 231.8625 545.48126Q232.6125 543.5125 233.78438 541.84064L235.47188 541.84064Q234.25313 544.5125 233.8 546.3875Q233.3625 548.2469 233.3625 550.34064Q233.3625 551.77814 233.62813 553.29376Q233.89375 554.79376 234.3625 556.16876Q234.65938 557.0594 235.44063 558.73126ZM243.12813 554.95L240.65938 554.95L240.65938 545.6375Q239.31563 546.90314 237.47188 547.5125L237.47188 545.27814Q238.44063 544.95 239.56563 544.075Q240.70625 543.1844 241.12813 542.0125L243.12813 542.0125L243.12813 554.95ZM246.84688 551.6375L249.31563 551.3875Q249.40938 552.21564 249.925 552.7Q250.45625 553.1844 251.12813 553.1844Q251.90938 553.1844 252.44063 552.5594Q252.97188 551.9344 252.97188 550.66876Q252.97188 549.48126 252.44063 548.8875Q251.90938 548.29376 251.06563 548.29376Q250.00313 548.29376 249.15938 549.23126L247.14375 548.95L248.40938 542.2469L254.94063 542.2469L254.94063 544.5594L250.28438 544.5594L249.89375 546.7469Q250.72188 546.325 251.58125 546.325Q253.2375 546.325 254.37813 547.52814Q255.51875 548.71564 255.51875 550.6219Q255.51875 552.21564 254.59688 553.46564Q253.33125 555.16876 251.09688 555.16876Q249.31563 555.16876 248.19063 554.21564Q247.06563 553.2469 246.84688 551.6375ZM257.34686 554.95L257.34686 552.48126L259.8156 552.48126L259.8156 554.95L257.34686 554.95ZM265.9875 542.0125Q267.8625 542.0125 268.90936 543.34064Q270.175 544.9344 270.175 548.59064Q270.175 552.2469 268.90936 553.85626Q267.8625 555.16876 265.9875 555.16876Q264.1125 555.16876 262.95624 553.73126Q261.8 552.27814 261.8 548.575Q261.8 544.9344 263.0656 543.325Q264.1125 542.0125 265.9875 542.0125ZM265.9875 544.0594Q265.53436 544.0594 265.175 544.35626Q264.83124 544.6375 264.64374 545.3719Q264.39374 546.325 264.39374 548.59064Q264.39374 550.85626 264.6125 551.71564Q264.84686 552.5594 265.1906 552.84064Q265.53436 553.1219 265.9875 553.1219Q266.4406 553.1219 266.78436 552.84064Q267.14374 552.54376 267.33124 551.8094Q267.59686 550.85626 267.59686 548.59064Q267.59686 546.325 267.3625 545.48126Q267.1281 544.6375 266.78436 544.35626Q266.4406 544.0594 265.9875 544.0594ZM275.9875 542.0125Q277.8625 542.0125 278.90936 543.34064Q280.175 544.9344 280.175 548.59064Q280.175 552.2469 278.90936 553.85626Q277.8625 555.16876 275.9875 555.16876Q274.1125 555.16876 272.95624 553.73126Q271.8 552.27814 271.8 548.575Q271.8 544.9344 273.0656 543.325Q274.1125 542.0125 275.9875 542.0125ZM275.9875 544.0594Q275.53436 544.0594 275.175 544.35626Q274.83124 544.6375 274.64374 545.3719Q274.39374 546.325 274.39374 548.59064Q274.39374 550.85626 274.6125 551.71564Q274.84686 552.5594 275.1906 552.84064Q275.53436 553.1219 275.9875 553.1219Q276.4406 553.1219 276.78436 552.84064Q277.14374 552.54376 277.33124 551.8094Q277.59686 550.85626 277.59686 548.59064Q277.59686 546.325 277.3625 545.48126Q277.1281 544.6375 276.78436 544.35626Q276.4406 544.0594 275.9875 544.0594ZM281.83124 545.2469Q281.83124 543.5125 282.58124 542.6844Q283.34686 541.84064 284.65936 541.84064Q286.0031 541.84064 286.7531 542.6844Q287.51874 543.5125 287.51874 545.2469Q287.51874 546.98126 286.7531 547.825Q286.0031 548.65314 284.6906 548.65314Q283.34686 548.65314 282.58124 547.825Q281.83124 546.98126 281.83124 545.2469ZM283.7531 545.23126Q283.7531 546.48126 284.05 546.91876Q284.26874 547.23126 284.65936 547.23126Q285.05 547.23126 285.26874 546.91876Q285.55 546.48126 285.55 545.23126Q285.55 543.96564 285.26874 543.54376Q285.05 543.23126 284.65936 543.23126Q284.26874 543.23126 284.05 543.54376Q283.7531 543.96564 283.7531 545.23126ZM286.53436 555.45L284.70624 555.45L291.5656 541.84064L293.34686 541.84064L286.53436 555.45ZM290.51874 552.0594Q290.51874 550.325 291.28436 549.4969Q292.05 548.65314 293.3625 548.65314Q294.6906 548.65314 295.4406 549.4969Q296.20624 550.325 296.20624 552.0594Q296.20624 553.79376 295.4406 554.6375Q294.6906 555.46564 293.39374 555.46564Q292.05 555.46564 291.28436 554.6375Q290.51874 553.79376 290.51874 552.0594ZM292.45624 552.04376Q292.45624 553.3094 292.7375 553.73126Q292.95624 554.0594 293.34686 554.0594Q293.7375 554.0594 293.95624 553.73126Q294.2375 553.3094 294.2375 552.04376Q294.2375 550.79376 293.95624 550.35626Q293.7375 550.04376 293.34686 550.04376Q292.95624 550.04376 292.7375 550.35626Q292.45624 550.79376 292.45624 552.04376ZM298.65936 558.73126Q299.39374 557.16876 299.6906 556.325Q299.9875 555.4969 300.2375 554.41876Q300.4875 553.325 300.6125 552.34064Q300.7375 551.35626 300.7375 550.34064Q300.7375 548.2469 300.28436 546.3875Q299.84686 544.5125 298.64374 541.84064L300.3156 541.84064Q301.64374 543.73126 302.3781 545.85626Q303.1125 547.96564 303.1125 550.15314Q303.1125 551.98126 302.53436 554.09064Q301.8781 556.45 300.3625 558.73126L298.65936 558.73126Z" fill-rule="nonzero"/><path fill="#14bf51" d="M332.05 548.45C332.05 551.76373 329.3637 554.45 326.05 554.45C322.7363 554.45 320.05 551.76373 320.05 548.45C320.05 545.1363 322.7363 542.45 326.05 542.45C329.3637 542.45 332.05 545.1363 332.05 548.45Z" fill-rule="nonzero"/><path fill="#ffffff" d="M341.34686 542.0594L346.1125 542.0594Q347.72186 542.0594 348.5656 542.3094Q349.6906 542.6375 350.5031 543.4969Q351.3156 544.35626 351.7375 545.59064Q352.15936 546.825 352.15936 548.6375Q352.15936 550.21564 351.7531 551.3719Q351.26874 552.77814 350.3781 553.65314Q349.70624 554.3094 348.55 554.6844Q347.6906 554.95 346.2531 554.95L341.34686 554.95L341.34686 542.0594ZM343.95624 544.2469L343.95624 552.77814L345.89374 552.77814Q346.9875 552.77814 347.47186 552.65314Q348.09686 552.4969 348.51874 552.1219Q348.9406 551.7469 349.1906 550.8875Q349.45624 550.0125 349.45624 548.5125Q349.45624 547.02814 349.1906 546.23126Q348.9406 545.41876 348.45624 544.98126Q347.9875 544.52814 347.2531 544.3719Q346.70624 544.2469 345.1281 544.2469L343.95624 544.2469ZM365.97186 554.95L363.14374 554.95L362.01874 552.02814L356.8781 552.02814L355.8156 554.95L353.05 554.95L358.0656 542.0594L360.8156 542.0594L365.97186 554.95ZM361.1906 549.85626L359.40936 545.075L357.675 549.85626L361.1906 549.85626ZM366.83124 548.59064Q366.83124 546.6219 367.425 545.27814Q367.8625 544.29376 368.6125 543.5125Q369.3781 542.73126 370.28436 542.35626Q371.4875 541.84064 373.0656 541.84064Q375.90936 541.84064 377.6125 543.60626Q379.33124 545.3719 379.33124 548.52814Q379.33124 551.6375 377.6281 553.40314Q375.9406 555.16876 373.09686 555.16876Q370.22186 555.16876 368.51874 553.41876Q366.83124 551.66876 366.83124 548.59064ZM369.51874 548.4969Q369.51874 550.6844 370.51874 551.825Q371.53436 552.95 373.09686 552.95Q374.64374 552.95 375.64374 551.825Q376.64374 550.7 376.64374 548.46564Q376.64374 546.2469 375.675 545.16876Q374.70624 544.075 373.09686 544.075Q371.4875 544.075 370.5031 545.1844Q369.51874 546.27814 369.51874 548.4969ZM386.0656 551.5125L386.0656 549.04376L390.90936 549.04376L390.90936 551.5125L386.0656 551.5125ZM403.34686 550.21564L403.34686 548.04376L408.95624 548.04376L408.95624 553.16876Q408.14374 553.96564 406.58124 554.575Q405.03436 555.16876 403.45624 555.16876Q401.425 555.16876 399.925 554.325Q398.425 553.46564 397.65936 551.90314Q396.90936 550.325 396.90936 548.46564Q396.90936 546.45 397.7531 544.8875Q398.59686 543.325 400.22186 542.48126Q401.47186 541.84064 403.3156 541.84064Q405.70624 541.84064 407.05 542.85626Q408.40936 543.85626 408.8 545.6375L406.20624 546.1219Q405.9406 545.16876 405.1906 544.6219Q404.4406 544.075 403.3156 544.075Q401.6125 544.075 400.59686 545.15314Q399.59686 546.23126 399.59686 548.35626Q399.59686 550.65314 400.6125 551.8094Q401.6281 552.95 403.28436 552.95Q404.09686 552.95 404.90936 552.6375Q405.7375 552.3094 406.33124 551.84064L406.33124 550.21564L403.34686 550.21564ZM410.175 545.6219L412.8 545.6219L415.03436 552.2469L417.20624 545.6219L419.76874 545.6219L416.47186 554.59064L415.89374 556.23126Q415.5656 557.04376 415.26874 557.46564Q414.97186 557.90314 414.58124 558.16876Q414.20624 558.4344 413.64374 558.575Q413.09686 558.73126 412.39374 558.73126Q411.675 558.73126 410.9875 558.59064L410.76874 556.65314Q411.34686 556.7625 411.8156 556.7625Q412.675 556.7625 413.08124 556.2625Q413.5031 555.7625 413.72186 554.98126L410.175 545.6219ZM424.70624 554.95L422.2375 554.95L422.2375 545.6219L424.53436 545.6219L424.53436 546.95Q425.1125 545.9969 425.58124 545.7Q426.0656 545.40314 426.65936 545.40314Q427.5031 545.40314 428.28436 545.8719L427.51874 548.02814Q426.89374 547.6219 426.3625 547.6219Q425.84686 547.6219 425.47186 547.90314Q425.1125 548.1844 424.90936 548.9344Q424.70624 549.6844 424.70624 552.0594L424.70624 554.95ZM428.76874 550.15314Q428.76874 548.91876 429.3781 547.77814Q429.9875 546.6219 431.09686 546.0125Q432.20624 545.40314 433.58124 545.40314Q435.6906 545.40314 437.05 546.77814Q438.40936 548.15314 438.40936 550.2625Q438.40936 552.3719 437.03436 553.77814Q435.675 555.16876 433.59686 555.16876Q432.3156 555.16876 431.14374 554.59064Q429.9875 553.9969 429.3781 552.8875Q428.76874 551.7625 428.76874 550.15314ZM431.3 550.27814Q431.3 551.66876 431.95624 552.41876Q432.6281 553.15314 433.58124 553.15314Q434.55 553.15314 435.20624 552.41876Q435.8625 551.66876 435.8625 550.2625Q435.8625 548.8875 435.20624 548.15314Q434.55 547.41876 433.58124 547.41876Q432.6281 547.41876 431.95624 548.15314Q431.3 548.8875 431.3 550.27814ZM439.47186 552.29376L441.95624 551.90314Q442.1125 552.6219 442.59686 552.9969Q443.08124 553.3719 443.9406 553.3719Q444.90936 553.3719 445.39374 553.02814Q445.70624 552.77814 445.70624 552.3719Q445.70624 552.09064 445.53436 551.90314Q445.34686 551.73126 444.70624 551.575Q441.72186 550.91876 440.925 550.3719Q439.8156 549.6219 439.8156 548.2625Q439.8156 547.0594 440.76874 546.23126Q441.7375 545.40314 443.7375 545.40314Q445.65936 545.40314 446.58124 546.02814Q447.51874 546.65314 447.8781 547.8719L445.55 548.3094Q445.39374 547.7625 444.97186 547.48126Q444.5656 547.1844 443.78436 547.1844Q442.8156 547.1844 442.39374 547.45Q442.1125 547.65314 442.1125 547.95Q442.1125 548.21564 442.3625 548.40314Q442.6906 548.65314 444.65936 549.10626Q446.6281 549.54376 447.425 550.2Q448.1906 550.85626 448.1906 552.02814Q448.1906 553.3094 447.1125 554.2469Q446.05 555.16876 443.9406 555.16876Q442.03436 555.16876 440.925 554.3875Q439.8156 553.60626 439.47186 552.29376ZM458.4875 548.3719L456.05 548.8094Q455.925 548.09064 455.4875 547.71564Q455.05 547.34064 454.3625 547.34064Q453.4406 547.34064 452.8781 547.98126Q452.33124 548.6219 452.33124 550.1219Q452.33124 551.77814 452.89374 552.46564Q453.45624 553.15314 454.39374 553.15314Q455.09686 553.15314 455.53436 552.7469Q455.9875 552.34064 456.175 551.3719L458.59686 551.77814Q458.22186 553.45 457.14374 554.3094Q456.08124 555.16876 454.28436 555.16876Q452.2375 555.16876 451.01874 553.8719Q449.8 552.575 449.8 550.29376Q449.8 547.98126 451.01874 546.7Q452.2375 545.40314 454.33124 545.40314Q456.03436 545.40314 457.03436 546.1375Q458.03436 546.8719 458.4875 548.3719ZM459.76874 550.15314Q459.76874 548.91876 460.3781 547.77814Q460.9875 546.6219 462.09686 546.0125Q463.20624 545.40314 464.58124 545.40314Q466.6906 545.40314 468.05 546.77814Q469.40936 548.15314 469.40936 550.2625Q469.40936 552.3719 468.03436 553.77814Q466.675 555.16876 464.59686 555.16876Q463.3156 555.16876 462.14374 554.59064Q460.9875 553.9969 460.3781 552.8875Q459.76874 551.7625 459.76874 550.15314ZM462.3 550.27814Q462.3 551.66876 462.95624 552.41876Q463.6281 553.15314 464.58124 553.15314Q465.55 553.15314 466.20624 552.41876Q466.8625 551.66876 466.8625 550.2625Q466.8625 548.8875 466.20624 548.15314Q465.55 547.41876 464.58124 547.41876Q463.6281 547.41876 462.95624 548.15314Q462.3 548.8875 462.3 550.27814ZM471.26874 545.6219L473.58124 545.6219L473.58124 546.98126Q474.01874 546.27814 474.78436 545.84064Q475.55 545.40314 476.4875 545.40314Q478.1125 545.40314 479.2375 546.6844Q480.3781 547.95 480.3781 550.23126Q480.3781 552.575 479.2375 553.8719Q478.09686 555.16876 476.47186 555.16876Q475.6906 555.16876 475.0656 554.85626Q474.4406 554.54376 473.7375 553.79376L473.7375 558.4969L471.26874 558.4969L471.26874 545.6219ZM473.72186 550.1219Q473.72186 551.7 474.33124 552.45Q474.95624 553.2 475.8625 553.2Q476.72186 553.2 477.28436 552.5125Q477.8625 551.825 477.8625 550.2469Q477.8625 548.77814 477.26874 548.075Q476.6906 547.35626 475.8156 547.35626Q474.90936 547.35626 474.3156 548.0594Q473.72186 548.7469 473.72186 550.1219ZM487.7531 551.98126L490.20624 552.3875Q489.7375 553.7469 488.70624 554.46564Q487.6906 555.16876 486.14374 555.16876Q483.70624 555.16876 482.55 553.575Q481.6281 552.29376 481.6281 550.35626Q481.6281 548.02814 482.83124 546.71564Q484.05 545.40314 485.90936 545.40314Q487.9875 545.40314 489.1906 546.77814Q490.39374 548.15314 490.34686 550.9969L484.15936 550.9969Q484.175 552.09064 484.7375 552.7Q485.3156 553.3094 486.175 553.3094Q486.7531 553.3094 487.14374 552.9969Q487.55 552.6844 487.7531 551.98126ZM487.89374 549.48126Q487.8625 548.40314 487.33124 547.85626Q486.8 547.29376 486.05 547.29376Q485.2375 547.29376 484.72186 547.8875Q484.1906 548.46564 484.1906 549.48126L487.89374 549.48126ZM498.3781 554.95L498.3781 542.0594L507.20624 542.0594L507.20624 544.2469L500.97186 544.2469L500.97186 547.29376L506.3625 547.29376L506.3625 549.48126L500.97186 549.48126L500.97186 554.95L498.3781 554.95ZM508.76874 550.15314Q508.76874 548.91876 509.3781 547.77814Q509.9875 546.6219 511.09686 546.0125Q512.20624 545.40314 513.58124 545.40314Q515.6906 545.40314 517.05 546.77814Q518.40936 548.15314 518.40936 550.2625Q518.40936 552.3719 517.03436 553.77814Q515.675 555.16876 513.59686 555.16876Q512.3156 555.16876 511.14374 554.59064Q509.9875 553.9969 509.3781 552.8875Q508.76874 551.7625 508.76874 550.15314ZM511.3 550.27814Q511.3 551.66876 511.95624 552.41876Q512.6281 553.15314 513.58124 553.15314Q514.55 553.15314 515.20624 552.41876Q515.8625 551.66876 515.8625 550.2625Q515.8625 548.8875 515.20624 548.15314Q514.55 547.41876 513.58124 547.41876Q512.6281 547.41876 511.95624 548.15314Q511.3 548.8875 511.3 550.27814ZM526.4875 554.95L526.4875 553.5594Q525.97186 554.29376 525.14374 554.73126Q524.3156 555.16876 523.39374 555.16876Q522.45624 555.16876 521.70624 554.7625Q520.95624 554.34064 520.6125 553.59064Q520.28436 552.84064 520.28436 551.52814L520.28436 545.6219L522.7531 545.6219L522.7531 549.90314Q522.7531 551.8719 522.89374 552.325Q523.03436 552.7625 523.39374 553.02814Q523.7531 553.27814 524.3 553.27814Q524.9406 553.27814 525.4406 552.9344Q525.9406 552.59064 526.1281 552.075Q526.3156 551.5594 526.3156 549.5594L526.3156 545.6219L528.78436 545.6219L528.78436 554.95L526.4875 554.95ZM539.83124 554.95L537.3625 554.95L537.3625 550.1844Q537.3625 548.66876 537.20624 548.23126Q537.05 547.79376 536.6906 547.54376Q536.33124 547.29376 535.83124 547.29376Q535.1906 547.29376 534.675 547.65314Q534.175 547.9969 533.9875 548.575Q533.8 549.15314 533.8 550.71564L533.8 554.95L531.33124 554.95L531.33124 545.6219L533.6125 545.6219L533.6125 546.98126Q534.84686 545.40314 536.6906 545.40314Q537.51874 545.40314 538.1906 545.7Q538.8625 545.9969 539.20624 546.45Q539.5656 546.90314 539.6906 547.4969Q539.83124 548.075 539.83124 549.15314L539.83124 554.95ZM550.90936 554.95L548.6125 554.95L548.6125 553.575Q548.03436 554.3719 547.2531 554.77814Q546.4875 555.16876 545.6906 555.16876Q544.08124 555.16876 542.925 553.8719Q541.78436 552.575 541.78436 550.2469Q541.78436 547.8719 542.89374 546.6375Q544.01874 545.40314 545.72186 545.40314Q547.28436 545.40314 548.4406 546.7L548.4406 542.0594L550.90936 542.0594L550.90936 554.95ZM544.3156 550.075Q544.3156 551.575 544.72186 552.2469Q545.3156 553.21564 546.39374 553.21564Q547.2531 553.21564 547.84686 552.4969Q548.4406 551.7625 548.4406 550.325Q548.4406 548.71564 547.8625 548.0125Q547.28436 547.29376 546.3781 547.29376Q545.5031 547.29376 544.90936 547.9969Q544.3156 548.6844 544.3156 550.075ZM555.1906 548.46564L552.9406 548.0594Q553.33124 546.7 554.2531 546.0594Q555.175 545.40314 556.9875 545.40314Q558.64374 545.40314 559.4406 545.79376Q560.2531 546.1844 560.58124 546.79376Q560.925 547.3875 560.925 548.9969L560.89374 551.8875Q560.89374 553.10626 561.0031 553.7Q561.1281 554.27814 561.45624 554.95L559.01874 554.95Q558.90936 554.7 558.76874 554.21564Q558.70624 553.9969 558.6906 553.9344Q558.05 554.54376 557.33124 554.85626Q556.6125 555.16876 555.8 555.16876Q554.34686 555.16876 553.51874 554.3875Q552.6906 553.59064 552.6906 552.40314Q552.6906 551.60626 553.0656 550.9969Q553.4406 550.3719 554.1281 550.04376Q554.8156 549.71564 556.09686 549.46564Q557.83124 549.1375 558.4875 548.85626L558.4875 548.60626Q558.4875 547.90314 558.1281 547.60626Q557.78436 547.29376 556.8156 547.29376Q556.15936 547.29376 555.78436 547.5594Q555.40936 547.8094 555.1906 548.46564ZM558.4875 550.46564Q558.01874 550.6219 556.9875 550.84064Q555.95624 551.0594 555.64374 551.27814Q555.15936 551.6219 555.15936 552.15314Q555.15936 552.66876 555.55 553.04376Q555.9406 553.41876 556.53436 553.41876Q557.20624 553.41876 557.8 552.98126Q558.2531 552.65314 558.39374 552.16876Q558.4875 551.84064 558.4875 550.96564L558.4875 550.46564ZM567.6281 545.6219L567.6281 547.59064L565.9406 547.59064L565.9406 551.34064Q565.9406 552.48126 565.9875 552.6844Q566.03436 552.8719 566.20624 552.9969Q566.3781 553.10626 566.6281 553.10626Q566.95624 553.10626 567.6125 552.8719L567.83124 554.79376Q566.95624 555.16876 565.8781 555.16876Q565.20624 555.16876 564.65936 554.95Q564.1281 554.71564 563.8781 554.35626Q563.6281 553.9969 563.53436 553.3875Q563.45624 552.96564 563.45624 551.65314L563.45624 547.59064L562.3156 547.59064L562.3156 545.6219L563.45624 545.6219L563.45624 543.7625L565.9406 542.325L565.9406 545.6219L567.6281 545.6219ZM569.34686 544.35626L569.34686 542.0594L571.8156 542.0594L571.8156 544.35626L569.34686 544.35626ZM569.34686 554.95L569.34686 545.6219L571.8156 545.6219L571.8156 554.95L569.34686 554.95ZM573.76874 550.15314Q573.76874 548.91876 574.3781 547.77814Q574.9875 546.6219 576.09686 546.0125Q577.20624 545.40314 578.58124 545.40314Q580.6906 545.40314 582.05 546.77814Q583.40936 548.15314 583.40936 550.2625Q583.40936 552.3719 582.03436 553.77814Q580.675 555.16876 578.59686 555.16876Q577.3156 555.16876 576.14374 554.59064Q574.9875 553.9969 574.3781 552.8875Q573.76874 551.7625 573.76874 550.15314ZM576.3 550.27814Q576.3 551.66876 576.95624 552.41876Q577.6281 553.15314 578.58124 553.15314Q579.55 553.15314 580.20624 552.41876Q580.8625 551.66876 580.8625 550.2625Q580.8625 548.8875 580.20624 548.15314Q579.55 547.41876 578.58124 547.41876Q577.6281 547.41876 576.95624 548.15314Q576.3 548.8875 576.3 550.27814ZM593.83124 554.95L591.3625 554.95L591.3625 550.1844Q591.3625 548.66876 591.20624 548.23126Q591.05 547.79376 590.6906 547.54376Q590.33124 547.29376 589.83124 547.29376Q589.1906 547.29376 588.675 547.65314Q588.175 547.9969 587.9875 548.575Q587.8 549.15314 587.8 550.71564L587.8 554.95L585.33124 554.95L585.33124 545.6219L587.6125 545.6219L587.6125 546.98126Q588.84686 545.40314 590.6906 545.40314Q591.51874 545.40314 592.1906 545.7Q592.8625 545.9969 593.20624 546.45Q593.5656 546.90314 593.6906 547.4969Q593.83124 548.075 593.83124 549.15314L593.83124 554.95ZM605.4406 558.73126L603.7375 558.73126Q602.39374 556.71564 601.6906 554.52814Q600.9875 552.325 600.9875 550.27814Q600.9875 547.7469 601.8625 545.48126Q602.6125 543.5125 603.78436 541.84064L605.47186 541.84064Q604.2531 544.5125 603.8 546.3875Q603.3625 548.2469 603.3625 550.34064Q603.3625 551.77814 603.6281 553.29376Q603.89374 554.79376 604.3625 556.16876Q604.65936 557.0594 605.4406 558.73126ZM613.1281 554.95L610.65936 554.95L610.65936 545.6375Q609.3156 546.90314 607.47186 547.5125L607.47186 545.27814Q608.4406 544.95 609.5656 544.075Q610.70624 543.1844 611.1281 542.0125L613.1281 542.0125L613.1281 554.95ZM616.84686 551.6375L619.3156 551.3875Q619.40936 552.21564 619.925 552.7Q620.45624 553.1844 621.1281 553.1844Q621.90936 553.1844 622.4406 552.5594Q622.97186 551.9344 622.97186 550.66876Q622.97186 549.48126 622.4406 548.8875Q621.90936 548.29376 621.0656 548.29376Q620.0031 548.29376 619.15936 549.23126L617.14374 548.95L618.40936 542.2469L624.9406 542.2469L624.9406 544.5594L620.28436 544.5594L619.89374 546.7469Q620.72186 546.325 621.58124 546.325Q623.2375 546.325 624.3781 547.52814Q625.51874 548.71564 625.51874 550.6219Q625.51874 552.21564 624.59686 553.46564Q623.33124 555.16876 621.09686 555.16876Q619.3156 555.16876 618.1906 554.21564Q617.0656 553.2469 616.84686 551.6375ZM627.34686 554.95L627.34686 552.48126L629.8156 552.48126L629.8156 554.95L627.34686 554.95ZM635.9875 542.0125Q637.8625 542.0125 638.90936 543.34064Q640.175 544.9344 640.175 548.59064Q640.175 552.2469 638.90936 553.85626Q637.8625 555.16876 635.9875 555.16876Q634.1125 555.16876 632.95624 553.73126Q631.8 552.27814 631.8 548.575Q631.8 544.9344 633.0656 543.325Q634.1125 542.0125 635.9875 542.0125ZM635.9875 544.0594Q635.53436 544.0594 635.175 544.35626Q634.83124 544.6375 634.64374 545.3719Q634.39374 546.325 634.39374 548.59064Q634.39374 550.85626 634.6125 551.71564Q634.84686 552.5594 635.1906 552.84064Q635.53436 553.1219 635.9875 553.1219Q636.4406 553.1219 636.78436 552.84064Q637.14374 552.54376 637.33124 551.8094Q637.59686 550.85626 637.59686 548.59064Q637.59686 546.325 637.3625 545.48126Q637.1281 544.6375 636.78436 544.35626Q636.4406 544.0594 635.9875 544.0594ZM645.9875 542.0125Q647.8625 542.0125 648.90936 543.34064Q650.175 544.9344 650.175 548.59064Q650.175 552.2469 648.90936 553.85626Q647.8625 555.16876 645.9875 555.16876Q644.1125 555.16876 642.95624 553.73126Q641.8 552.27814 641.8 548.575Q641.8 544.9344 643.0656 543.325Q644.1125 542.0125 645.9875 542.0125ZM645.9875 544.0594Q645.53436 544.0594 645.175 544.35626Q644.83124 544.6375 644.64374 545.3719Q644.39374 546.325 644.39374 548.59064Q644.39374 550.85626 644.6125 551.71564Q644.84686 552.5594 645.1906 552.84064Q645.53436 553.1219 645.9875 553.1219Q646.4406 553.1219 646.78436 552.84064Q647.14374 552.54376 647.33124 551.8094Q647.59686 550.85626 647.59686 548.59064Q647.59686 546.325 647.3625 545.48126Q647.1281 544.6375 646.78436 544.35626Q646.4406 544.0594 645.9875 544.0594ZM651.83124 545.2469Q651.83124 543.5125 652.58124 542.6844Q653.34686 541.84064 654.65936 541.84064Q656.0031 541.84064 656.7531 542.6844Q657.51874 543.5125 657.51874 545.2469Q657.51874 546.98126 656.7531 547.825Q656.0031 548.65314 654.6906 548.65314Q653.34686 548.65314 652.58124 547.825Q651.83124 546.98126 651.83124 545.2469ZM653.7531 545.23126Q653.7531 546.48126 654.05 546.91876Q654.26874 547.23126 654.65936 547.23126Q655.05 547.23126 655.26874 546.91876Q655.55 546.48126 655.55 545.23126Q655.55 543.96564 655.26874 543.54376Q655.05 543.23126 654.65936 543.23126Q654.26874 543.23126 654.05 543.54376Q653.7531 543.96564 653.7531 545.23126ZM656.53436 555.45L654.70624 555.45L661.5656 541.84064L663.34686 541.84064L656.53436 555.45ZM660.51874 552.0594Q660.51874 550.325 661.28436 549.4969Q662.05 548.65314 663.3625 548.65314Q664.6906 548.65314 665.4406 549.4969Q666.20624 550.325 666.20624 552.0594Q666.20624 553.79376 665.4406 554.6375Q664.6906 555.46564 663.39374 555.46564Q662.05 555.46564 661.28436 554.6375Q660.51874 553.79376 660.51874 552.0594ZM662.45624 552.04376Q662.45624 553.3094 662.7375 553.73126Q662.95624 554.0594 663.34686 554.0594Q663.7375 554.0594 663.95624 553.73126Q664.2375 553.3094 664.2375 552.04376Q664.2375 550.79376 663.95624 550.35626Q663.7375 550.04376 663.34686 550.04376Q662.95624 550.04376 662.7375 550.35626Q662.45624 550.79376 662.45624 552.04376ZM668.65936 558.73126Q669.39374 557.16876 669.6906 556.325Q669.9875 555.4969 670.2375 554.41876Q670.4875 553.325 670.6125 552.34064Q670.7375 551.35626 670.7375 550.34064Q670.7375 548.2469 670.28436 546.3875Q669.84686 544.5125 668.64374 541.84064L670.3156 541.84064Q671.64374 543.73126 672.3781 545.85626Q673.1125 547.96564 673.1125 550.15314Q673.1125 551.98126 672.53436 554.09064Q671.8781 556.45 670.3625 558.73126L668.65936 558.73126Z" fill-rule="nonzero"/><path fill="#ffb4ff" d="M100.0 573.45C100.0 576.76373 97.313705 579.45 94.0 579.45C90.686295 579.45 88.0 576.76373 88.0 573.45C88.0 570.1363 90.686295 567.45 94.0 567.45C97.313705 567.45 100.0 570.1363 100.0 573.45Z" fill-rule="nonzero"/><path fill="#ffffff" d="M109.296875 567.0594L114.0625 567.0594Q115.671875 567.0594 116.515625 567.3094Q117.640625 567.6375 118.453125 568.4969Q119.265625 569.35626 119.6875 570.59064Q120.109375 571.825 120.109375 573.6375Q120.109375 575.21564 119.703125 576.3719Q119.21875 577.77814 118.328125 578.65314Q117.65625 579.3094 116.5 579.6844Q115.640625 579.95 114.203125 579.95L109.296875 579.95L109.296875 567.0594ZM111.90625 569.2469L111.90625 577.77814L113.84375 577.77814Q114.9375 577.77814 115.421875 577.65314Q116.046875 577.4969 116.46875 577.1219Q116.890625 576.7469 117.140625 575.8875Q117.40625 575.0125 117.40625 573.5125Q117.40625 572.02814 117.140625 571.23126Q116.890625 570.41876 116.40625 569.98126Q115.9375 569.52814 115.203125 569.3719Q114.65625 569.2469 113.078125 569.2469L111.90625 569.2469ZM133.92188 579.95L131.09375 579.95L129.96875 577.02814L124.828125 577.02814L123.765625 579.95L121.0 579.95L126.015625 567.0594L128.76562 567.0594L133.92188 579.95ZM129.14062 574.85626L127.359375 570.075L125.625 574.85626L129.14062 574.85626ZM134.78125 573.59064Q134.78125 571.6219 135.375 570.27814Q135.8125 569.29376 136.5625 568.5125Q137.32812 567.73126 138.23438 567.35626Q139.4375 566.84064 141.01562 566.84064Q143.85938 566.84064 145.5625 568.60626Q147.28125 570.3719 147.28125 573.52814Q147.28125 576.6375 145.57812 578.40314Q143.89062 580.16876 141.04688 580.16876Q138.17188 580.16876 136.46875 578.41876Q134.78125 576.66876 134.78125 573.59064ZM137.46875 573.4969Q137.46875 575.6844 138.46875 576.825Q139.48438 577.95 141.04688 577.95Q142.59375 577.95 143.59375 576.825Q144.59375 575.7 144.59375 573.46564Q144.59375 571.2469 143.625 570.16876Q142.65625 569.075 141.04688 569.075Q139.4375 569.075 138.45312 570.1844Q137.46875 571.27814 137.46875 573.4969ZM154.01562 576.5125L154.01562 574.04376L158.85938 574.04376L158.85938 576.5125L154.01562 576.5125ZM168.20312 579.95L168.20312 569.2469L164.39062 569.2469L164.39062 567.0594L174.625 567.0594L174.625 569.2469L170.8125 569.2469L170.8125 579.95L168.20312 579.95ZM178.65625 579.95L176.1875 579.95L176.1875 570.6219L178.48438 570.6219L178.48438 571.95Q179.0625 570.9969 179.53125 570.7Q180.01562 570.40314 180.60938 570.40314Q181.45312 570.40314 182.23438 570.8719L181.46875 573.02814Q180.84375 572.6219 180.3125 572.6219Q179.79688 572.6219 179.42188 572.90314Q179.0625 573.1844 178.85938 573.9344Q178.65625 574.6844 178.65625 577.0594L178.65625 579.95ZM188.70312 576.98126L191.15625 577.3875Q190.6875 578.7469 189.65625 579.46564Q188.64062 580.16876 187.09375 580.16876Q184.65625 580.16876 183.5 578.575Q182.57812 577.29376 182.57812 575.35626Q182.57812 573.02814 183.78125 571.71564Q185.0 570.40314 186.85938 570.40314Q188.9375 570.40314 190.14062 571.77814Q191.34375 573.15314 191.29688 575.9969L185.10938 575.9969Q185.125 577.09064 185.6875 577.7Q186.26562 578.3094 187.125 578.3094Q187.70312 578.3094 188.09375 577.9969Q188.5 577.6844 188.70312 576.98126ZM188.84375 574.48126Q188.8125 573.40314 188.28125 572.85626Q187.75 572.29376 187.0 572.29376Q186.1875 572.29376 185.67188 572.8875Q185.14062 573.46564 185.14062 574.48126L188.84375 574.48126ZM196.14062 573.46564L193.89062 573.0594Q194.28125 571.7 195.20312 571.0594Q196.125 570.40314 197.9375 570.40314Q199.59375 570.40314 200.39062 570.79376Q201.20312 571.1844 201.53125 571.79376Q201.875 572.3875 201.875 573.9969L201.84375 576.8875Q201.84375 578.10626 201.95312 578.7Q202.07812 579.27814 202.40625 579.95L199.96875 579.95Q199.85938 579.7 199.71875 579.21564Q199.65625 578.9969 199.64062 578.9344Q199.0 579.54376 198.28125 579.85626Q197.5625 580.16876 196.75 580.16876Q195.29688 580.16876 194.46875 579.3875Q193.64062 578.59064 193.64062 577.40314Q193.64062 576.60626 194.01562 575.9969Q194.39062 575.3719 195.07812 575.04376Q195.76562 574.71564 197.04688 574.46564Q198.78125 574.1375 199.4375 573.85626L199.4375 573.60626Q199.4375 572.90314 199.07812 572.60626Q198.73438 572.29376 197.76562 572.29376Q197.10938 572.29376 196.73438 572.5594Q196.35938 572.8094 196.14062 573.46564ZM199.4375 575.46564Q198.96875 575.6219 197.9375 575.84064Q196.90625 576.0594 196.59375 576.27814Q196.10938 576.6219 196.10938 577.15314Q196.10938 577.66876 196.5 578.04376Q196.89062 578.41876 197.48438 578.41876Q198.15625 578.41876 198.75 577.98126Q199.20312 577.65314 199.34375 577.16876Q199.4375 576.84064 199.4375 575.96564L199.4375 575.46564ZM203.42188 577.29376L205.90625 576.90314Q206.0625 577.6219 206.54688 577.9969Q207.03125 578.3719 207.89062 578.3719Q208.85938 578.3719 209.34375 578.02814Q209.65625 577.77814 209.65625 577.3719Q209.65625 577.09064 209.48438 576.90314Q209.29688 576.73126 208.65625 576.575Q205.67188 575.91876 204.875 575.3719Q203.76562 574.6219 203.76562 573.2625Q203.76562 572.0594 204.71875 571.23126Q205.6875 570.40314 207.6875 570.40314Q209.60938 570.40314 210.53125 571.02814Q211.46875 571.65314 211.82812 572.8719L209.5 573.3094Q209.34375 572.7625 208.92188 572.48126Q208.51562 572.1844 207.73438 572.1844Q206.76562 572.1844 206.34375 572.45Q206.0625 572.65314 206.0625 572.95Q206.0625 573.21564 206.3125 573.40314Q206.64062 573.65314 208.60938 574.10626Q210.57812 574.54376 211.375 575.2Q212.14062 575.85626 212.14062 577.02814Q212.14062 578.3094 211.0625 579.2469Q210.0 580.16876 207.89062 580.16876Q205.98438 580.16876 204.875 579.3875Q203.76562 578.60626 203.42188 577.29376ZM220.4375 579.95L220.4375 578.5594Q219.92188 579.29376 219.09375 579.73126Q218.26562 580.16876 217.34375 580.16876Q216.40625 580.16876 215.65625 579.7625Q214.90625 579.34064 214.5625 578.59064Q214.23438 577.84064 214.23438 576.52814L214.23438 570.6219L216.70312 570.6219L216.70312 574.90314Q216.70312 576.8719 216.84375 577.325Q216.98438 577.7625 217.34375 578.02814Q217.70312 578.27814 218.25 578.27814Q218.89062 578.27814 219.39062 577.9344Q219.89062 577.59064 220.07812 577.075Q220.26562 576.5594 220.26562 574.5594L220.26562 570.6219L222.73438 570.6219L222.73438 579.95L220.4375 579.95ZM227.65625 579.95L225.1875 579.95L225.1875 570.6219L227.48438 570.6219L227.48438 571.95Q228.0625 570.9969 228.53125 570.7Q229.01562 570.40314 229.60938 570.40314Q230.45312 570.40314 231.23438 570.8719L230.46875 573.02814Q229.84375 572.6219 229.3125 572.6219Q228.79688 572.6219 228.42188 572.90314Q228.0625 573.1844 227.85938 573.9344Q227.65625 574.6844 227.65625 577.0594L227.65625 579.95ZM231.125 570.6219L233.75 570.6219L235.98438 577.2469L238.15625 570.6219L240.71875 570.6219L237.42188 579.59064L236.84375 581.23126Q236.51562 582.04376 236.21875 582.46564Q235.92188 582.90314 235.53125 583.16876Q235.15625 583.4344 234.59375 583.575Q234.04688 583.73126 233.34375 583.73126Q232.625 583.73126 231.9375 583.59064L231.71875 581.65314Q232.29688 581.7625 232.76562 581.7625Q233.625 581.7625 234.03125 581.2625Q234.45312 580.7625 234.67188 579.98126L231.125 570.6219ZM252.39062 583.73126L250.6875 583.73126Q249.34375 581.71564 248.64062 579.52814Q247.9375 577.325 247.9375 575.27814Q247.9375 572.7469 248.8125 570.48126Q249.5625 568.5125 250.73438 566.84064L252.42188 566.84064Q251.20312 569.5125 250.75 571.3875Q250.3125 573.2469 250.3125 575.34064Q250.3125 576.77814 250.57812 578.29376Q250.84375 579.79376 251.3125 581.16876Q251.60938 582.0594 252.39062 583.73126ZM253.67188 576.52814L256.0625 576.2469Q256.1875 577.15314 256.6875 577.6375Q257.1875 578.1219 257.89062 578.1219Q258.65625 578.1219 259.17188 577.54376Q259.70312 576.96564 259.70312 575.98126Q259.70312 575.04376 259.20312 574.4969Q258.70312 573.95 257.98438 573.95Q257.51562 573.95 256.84375 574.1375L257.125 572.1219Q258.125 572.15314 258.64062 571.7Q259.17188 571.23126 259.17188 570.46564Q259.17188 569.8094 258.78125 569.4344Q258.40625 569.04376 257.76562 569.04376Q257.125 569.04376 256.67188 569.48126Q256.23438 569.91876 256.14062 570.7625L253.85938 570.3719Q254.09375 569.21564 254.57812 568.5125Q255.0625 567.8094 255.90625 567.41876Q256.76562 567.0125 257.82812 567.0125Q259.65625 567.0125 260.75 568.16876Q261.65625 569.1219 261.65625 570.3094Q261.65625 572.0125 259.79688 573.02814Q260.90625 573.2625 261.5625 574.09064Q262.23438 574.91876 262.23438 576.075Q262.23438 577.77814 261.0 578.98126Q259.76562 580.16876 257.90625 580.16876Q256.17188 580.16876 255.01562 579.16876Q253.85938 578.15314 253.67188 576.52814ZM272.10938 577.65314L272.10938 579.95L263.45312 579.95Q263.59375 578.65314 264.29688 577.4969Q265.0 576.325 267.0625 574.3875Q268.73438 572.84064 269.125 572.27814Q269.625 571.52814 269.625 570.77814Q269.625 569.95 269.17188 569.5125Q268.73438 569.0594 267.95312 569.0594Q267.1875 569.0594 266.71875 569.52814Q266.26562 569.9969 266.20312 571.075L263.73438 570.825Q263.95312 568.79376 265.10938 567.90314Q266.28125 567.0125 268.01562 567.0125Q269.92188 567.0125 271.01562 568.04376Q272.10938 569.075 272.10938 570.59064Q272.10938 571.46564 271.79688 572.2625Q271.48438 573.04376 270.8125 573.90314Q270.35938 574.48126 269.1875 575.5594Q268.01562 576.6219 267.70312 576.98126Q267.39062 577.325 267.20312 577.65314L272.10938 577.65314ZM274.29688 579.95L274.29688 577.48126L276.76562 577.48126L276.76562 579.95L274.29688 579.95ZM278.76562 569.52814L278.76562 567.2469L287.21875 567.2469L287.21875 569.02814Q286.17188 570.0594 285.07812 571.9969Q284.0 573.91876 283.4375 576.09064Q282.875 578.2469 282.875 579.95L280.5 579.95Q280.5625 577.27814 281.59375 574.4969Q282.64062 571.71564 284.375 569.52814L278.76562 569.52814ZM288.79688 576.6375L291.26562 576.3875Q291.35938 577.21564 291.875 577.7Q292.40625 578.1844 293.07812 578.1844Q293.85938 578.1844 294.39062 577.5594Q294.92188 576.9344 294.92188 575.66876Q294.92188 574.48126 294.39062 573.8875Q293.85938 573.29376 293.01562 573.29376Q291.95312 573.29376 291.10938 574.23126L289.09375 573.95L290.35938 567.2469L296.89062 567.2469L296.89062 569.5594L292.23438 569.5594L291.84375 571.7469Q292.67188 571.325 293.53125 571.325Q295.1875 571.325 296.32812 572.52814Q297.46875 573.71564 297.46875 575.6219Q297.46875 577.21564 296.54688 578.46564Q295.28125 580.16876 293.04688 580.16876Q291.26562 580.16876 290.14062 579.21564Q289.01562 578.2469 288.79688 576.6375ZM298.78125 570.2469Q298.78125 568.5125 299.53125 567.6844Q300.29688 566.84064 301.60938 566.84064Q302.95312 566.84064 303.70312 567.6844Q304.46875 568.5125 304.46875 570.2469Q304.46875 571.98126 303.70312 572.825Q302.95312 573.65314 301.64062 573.65314Q300.29688 573.65314 299.53125 572.825Q298.78125 571.98126 298.78125 570.2469ZM300.70312 570.23126Q300.70312 571.48126 301.0 571.91876Q301.21875 572.23126 301.60938 572.23126Q302.0 572.23126 302.21875 571.91876Q302.5 571.48126 302.5 570.23126Q302.5 568.96564 302.21875 568.54376Q302.0 568.23126 301.60938 568.23126Q301.21875 568.23126 301.0 568.54376Q300.70312 568.96564 300.70312 570.23126ZM303.48438 580.45L301.65625 580.45L308.51562 566.84064L310.29688 566.84064L303.48438 580.45ZM307.46875 577.0594Q307.46875 575.325 308.23438 574.4969Q309.0 573.65314 310.3125 573.65314Q311.64062 573.65314 312.39062 574.4969Q313.15625 575.325 313.15625 577.0594Q313.15625 578.79376 312.39062 579.6375Q311.64062 580.46564 310.34375 580.46564Q309.0 580.46564 308.23438 579.6375Q307.46875 578.79376 307.46875 577.0594ZM309.40625 577.04376Q309.40625 578.3094 309.6875 578.73126Q309.90625 579.0594 310.29688 579.0594Q310.6875 579.0594 310.90625 578.73126Q311.1875 578.3094 311.1875 577.04376Q311.1875 575.79376 310.90625 575.35626Q310.6875 575.04376 310.29688 575.04376Q309.90625 575.04376 309.6875 575.35626Q309.40625 575.79376 309.40625 577.04376ZM315.60938 583.73126Q316.34375 582.16876 316.64062 581.325Q316.9375 580.4969 317.1875 579.41876Q317.4375 578.325 317.5625 577.34064Q317.6875 576.35626 317.6875 575.34064Q317.6875 573.2469 317.23438 571.3875Q316.79688 569.5125 315.59375 566.84064L317.26562 566.84064Q318.59375 568.73126 319.32812 570.85626Q320.0625 572.96564 320.0625 575.15314Q320.0625 576.98126 319.48438 579.09064Q318.82812 581.45 317.3125 583.73126L315.60938 583.73126Z" fill-rule="nonzero"/><path fill="#1470e8" d="M349.0 573.45C349.0 576.76373 346.31372 579.45 343.0 579.45C339.68628 579.45 337.0 576.76373 337.0 573.45C337.0 570.1363 339.68628 567.45 343.0 567.45C346.31372 567.45 349.0 570.1363 349.0 573.45Z" fill-rule="nonzero"/><path fill="#ffffff" d="M358.32812 579.95L358.32812 567.0594L367.15625 567.0594L367.15625 569.2469L360.92188 569.2469L360.92188 572.29376L366.3125 572.29376L366.3125 574.48126L360.92188 574.48126L360.92188 579.95L358.32812 579.95ZM372.20312 579.95L372.20312 569.2469L368.39062 569.2469L368.39062 567.0594L378.625 567.0594L378.625 569.2469L374.8125 569.2469L374.8125 579.95L372.20312 579.95ZM380.375 579.95L380.375 567.16876L382.98438 567.16876L382.98438 577.77814L389.45312 577.77814L389.45312 579.95L380.375 579.95ZM396.375 579.95L396.375 567.16876L398.98438 567.16876L398.98438 577.77814L405.45312 577.77814L405.45312 579.95L396.375 579.95ZM409.14062 573.46564L406.89062 573.0594Q407.28125 571.7 408.20312 571.0594Q409.125 570.40314 410.9375 570.40314Q412.59375 570.40314 413.39062 570.79376Q414.20312 571.1844 414.53125 571.79376Q414.875 572.3875 414.875 573.9969L414.84375 576.8875Q414.84375 578.10626 414.95312 578.7Q415.07812 579.27814 415.40625 579.95L412.96875 579.95Q412.85938 579.7 412.71875 579.21564Q412.65625 578.9969 412.64062 578.9344Q412.0 579.54376 411.28125 579.85626Q410.5625 580.16876 409.75 580.16876Q408.29688 580.16876 407.46875 579.3875Q406.64062 578.59064 406.64062 577.40314Q406.64062 576.60626 407.01562 575.9969Q407.39062 575.3719 408.07812 575.04376Q408.76562 574.71564 410.04688 574.46564Q411.78125 574.1375 412.4375 573.85626L412.4375 573.60626Q412.4375 572.90314 412.07812 572.60626Q411.73438 572.29376 410.76562 572.29376Q410.10938 572.29376 409.73438 572.5594Q409.35938 572.8094 409.14062 573.46564ZM412.4375 575.46564Q411.96875 575.6219 410.9375 575.84064Q409.90625 576.0594 409.59375 576.27814Q409.10938 576.6219 409.10938 577.15314Q409.10938 577.66876 409.5 578.04376Q409.89062 578.41876 410.48438 578.41876Q411.15625 578.41876 411.75 577.98126Q412.20312 577.65314 412.34375 577.16876Q412.4375 576.84064 412.4375 575.96564L412.4375 575.46564ZM417.1875 579.95L417.1875 567.0594L419.65625 567.0594L419.65625 571.7Q420.79688 570.40314 422.35938 570.40314Q424.0625 570.40314 425.17188 571.6375Q426.29688 572.8719 426.29688 575.1844Q426.29688 577.575 425.15625 578.8719Q424.03125 580.16876 422.40625 580.16876Q421.59375 580.16876 420.8125 579.7625Q420.04688 579.35626 419.48438 578.575L419.48438 579.95L417.1875 579.95ZM419.64062 575.075Q419.64062 576.52814 420.09375 577.23126Q420.73438 578.21564 421.79688 578.21564Q422.625 578.21564 423.1875 577.5125Q423.76562 576.8094 423.76562 575.3094Q423.76562 573.71564 423.1875 573.0125Q422.60938 572.29376 421.70312 572.29376Q420.8125 572.29376 420.21875 572.98126Q419.64062 573.66876 419.64062 575.075ZM427.42188 577.29376L429.90625 576.90314Q430.0625 577.6219 430.54688 577.9969Q431.03125 578.3719 431.89062 578.3719Q432.85938 578.3719 433.34375 578.02814Q433.65625 577.77814 433.65625 577.3719Q433.65625 577.09064 433.48438 576.90314Q433.29688 576.73126 432.65625 576.575Q429.67188 575.91876 428.875 575.3719Q427.76562 574.6219 427.76562 573.2625Q427.76562 572.0594 428.71875 571.23126Q429.6875 570.40314 431.6875 570.40314Q433.60938 570.40314 434.53125 571.02814Q435.46875 571.65314 435.82812 572.8719L433.5 573.3094Q433.34375 572.7625 432.92188 572.48126Q432.51562 572.1844 431.73438 572.1844Q430.76562 572.1844 430.34375 572.45Q430.0625 572.65314 430.0625 572.95Q430.0625 573.21564 430.3125 573.40314Q430.64062 573.65314 432.60938 574.10626Q434.57812 574.54376 435.375 575.2Q436.14062 575.85626 436.14062 577.02814Q436.14062 578.3094 435.0625 579.2469Q434.0 580.16876 431.89062 580.16876Q429.98438 580.16876 428.875 579.3875Q427.76562 578.60626 427.42188 577.29376ZM443.01562 576.5125L443.01562 574.04376L447.85938 574.04376L447.85938 576.5125L443.01562 576.5125ZM453.65625 575.7625L456.1875 575.5125Q456.40625 576.77814 457.10938 577.3875Q457.8125 577.98126 459.0 577.98126Q460.25 577.98126 460.89062 577.45Q461.53125 576.91876 461.53125 576.2Q461.53125 575.7469 461.25 575.4344Q460.98438 575.10626 460.32812 574.8719Q459.85938 574.71564 458.23438 574.3094Q456.14062 573.79376 455.29688 573.02814Q454.10938 571.96564 454.10938 570.4344Q454.10938 569.45 454.67188 568.60626Q455.23438 567.7469 456.28125 567.29376Q457.32812 566.84064 458.8125 566.84064Q461.25 566.84064 462.46875 567.90314Q463.70312 568.96564 463.76562 570.7469L461.15625 570.85626Q460.98438 569.8719 460.4375 569.4344Q459.89062 568.9969 458.79688 568.9969Q457.65625 568.9969 457.01562 569.46564Q456.60938 569.7625 456.60938 570.2625Q456.60938 570.71564 456.98438 571.04376Q457.48438 571.46564 459.375 571.91876Q461.28125 572.35626 462.1875 572.84064Q463.09375 573.3094 463.60938 574.15314Q464.125 574.98126 464.125 576.2Q464.125 577.3094 463.5 578.27814Q462.89062 579.23126 461.76562 579.71564Q460.64062 580.1844 458.96875 580.1844Q456.53125 580.1844 455.21875 579.0594Q453.90625 577.91876 453.65625 575.7625ZM477.92188 579.95L475.09375 579.95L473.96875 577.02814L468.82812 577.02814L467.76562 579.95L465.0 579.95L470.01562 567.0594L472.76562 567.0594L477.92188 579.95ZM473.14062 574.85626L471.35938 570.075L469.625 574.85626L473.14062 574.85626ZM479.32812 579.95L479.32812 567.0594L488.15625 567.0594L488.15625 569.2469L481.92188 569.2469L481.92188 572.29376L487.3125 572.29376L487.3125 574.48126L481.92188 574.48126L481.92188 579.95L479.32812 579.95ZM493.20312 579.95L493.20312 569.2469L489.39062 569.2469L489.39062 567.0594L499.625 567.0594L499.625 569.2469L495.8125 569.2469L495.8125 579.95L493.20312 579.95ZM506.3125 579.95L506.3125 567.0594L510.48438 567.0594Q512.8594 567.0594 513.5781 567.2625Q514.6875 567.54376 515.4375 568.52814Q516.1875 569.4969 516.1875 571.02814Q516.1875 572.21564 515.75 573.02814Q515.3125 573.825 514.6406 574.29376Q513.9844 574.7625 513.3125 574.90314Q512.375 575.09064 510.60938 575.09064L508.90625 575.09064L508.90625 579.95L506.3125 579.95ZM508.90625 569.2469L508.90625 572.90314L510.32812 572.90314Q511.875 572.90314 512.3906 572.7Q512.90625 572.4969 513.2031 572.075Q513.5 571.6375 513.5 571.0594Q513.5 570.35626 513.0781 569.90314Q512.6719 569.45 512.0469 569.325Q511.57812 569.2469 510.17188 569.2469L508.90625 569.2469ZM524.4375 579.95L524.4375 578.5594Q523.9219 579.29376 523.09375 579.73126Q522.2656 580.16876 521.34375 580.16876Q520.40625 580.16876 519.65625 579.7625Q518.90625 579.34064 518.5625 578.59064Q518.2344 577.84064 518.2344 576.52814L518.2344 570.6219L520.7031 570.6219L520.7031 574.90314Q520.7031 576.8719 520.84375 577.325Q520.9844 577.7625 521.34375 578.02814Q521.7031 578.27814 522.25 578.27814Q522.8906 578.27814 523.3906 577.9344Q523.8906 577.59064 524.0781 577.075Q524.2656 576.5594 524.2656 574.5594L524.2656 570.6219L526.7344 570.6219L526.7344 579.95L524.4375 579.95ZM531.65625 579.95L529.1875 579.95L529.1875 570.6219L531.4844 570.6219L531.4844 571.95Q532.0625 570.9969 532.53125 570.7Q533.0156 570.40314 533.6094 570.40314Q534.4531 570.40314 535.2344 570.8719L534.46875 573.02814Q533.84375 572.6219 533.3125 572.6219Q532.7969 572.6219 532.4219 572.90314Q532.0625 573.1844 531.8594 573.9344Q531.65625 574.6844 531.65625 577.0594L531.65625 579.95ZM544.4375 573.3719L542.0 573.8094Q541.875 573.09064 541.4375 572.71564Q541.0 572.34064 540.3125 572.34064Q539.3906 572.34064 538.8281 572.98126Q538.28125 573.6219 538.28125 575.1219Q538.28125 576.77814 538.84375 577.46564Q539.40625 578.15314 540.34375 578.15314Q541.0469 578.15314 541.4844 577.7469Q541.9375 577.34064 542.125 576.3719L544.5469 576.77814Q544.1719 578.45 543.09375 579.3094Q542.03125 580.16876 540.2344 580.16876Q538.1875 580.16876 536.96875 578.8719Q535.75 577.575 535.75 575.29376Q535.75 572.98126 536.96875 571.7Q538.1875 570.40314 540.28125 570.40314Q541.9844 570.40314 542.9844 571.1375Q543.9844 571.8719 544.4375 573.3719ZM548.75 567.0594L548.75 571.8094Q549.9531 570.40314 551.6094 570.40314Q552.46875 570.40314 553.1406 570.73126Q553.8281 571.04376 554.1719 571.54376Q554.53125 572.02814 554.65625 572.6219Q554.78125 573.21564 554.78125 574.48126L554.78125 579.95L552.3125 579.95L552.3125 575.0125Q552.3125 573.54376 552.1719 573.15314Q552.03125 572.7625 551.6719 572.52814Q551.3125 572.29376 550.78125 572.29376Q550.1719 572.29376 549.6875 572.59064Q549.2031 572.8875 548.96875 573.4969Q548.75 574.09064 548.75 575.27814L548.75 579.95L546.28125 579.95L546.28125 567.0594L548.75 567.0594ZM559.1406 573.46564L556.8906 573.0594Q557.28125 571.7 558.2031 571.0594Q559.125 570.40314 560.9375 570.40314Q562.59375 570.40314 563.3906 570.79376Q564.2031 571.1844 564.53125 571.79376Q564.875 572.3875 564.875 573.9969L564.84375 576.8875Q564.84375 578.10626 564.9531 578.7Q565.0781 579.27814 565.40625 579.95L562.96875 579.95Q562.8594 579.7 562.71875 579.21564Q562.65625 578.9969 562.6406 578.9344Q562.0 579.54376 561.28125 579.85626Q560.5625 580.16876 559.75 580.16876Q558.2969 580.16876 557.46875 579.3875Q556.6406 578.59064 556.6406 577.40314Q556.6406 576.60626 557.0156 575.9969Q557.3906 575.3719 558.0781 575.04376Q558.7656 574.71564 560.0469 574.46564Q561.78125 574.1375 562.4375 573.85626L562.4375 573.60626Q562.4375 572.90314 562.0781 572.60626Q561.7344 572.29376 560.7656 572.29376Q560.1094 572.29376 559.7344 572.5594Q559.3594 572.8094 559.1406 573.46564ZM562.4375 575.46564Q561.96875 575.6219 560.9375 575.84064Q559.90625 576.0594 559.59375 576.27814Q559.1094 576.6219 559.1094 577.15314Q559.1094 577.66876 559.5 578.04376Q559.8906 578.41876 560.4844 578.41876Q561.15625 578.41876 561.75 577.98126Q562.2031 577.65314 562.34375 577.16876Q562.4375 576.84064 562.4375 575.96564L562.4375 575.46564ZM566.4219 577.29376L568.90625 576.90314Q569.0625 577.6219 569.5469 577.9969Q570.03125 578.3719 570.8906 578.3719Q571.8594 578.3719 572.34375 578.02814Q572.65625 577.77814 572.65625 577.3719Q572.65625 577.09064 572.4844 576.90314Q572.2969 576.73126 571.65625 576.575Q568.6719 575.91876 567.875 575.3719Q566.7656 574.6219 566.7656 573.2625Q566.7656 572.0594 567.71875 571.23126Q568.6875 570.40314 570.6875 570.40314Q572.6094 570.40314 573.53125 571.02814Q574.46875 571.65314 574.8281 572.8719L572.5 573.3094Q572.34375 572.7625 571.9219 572.48126Q571.5156 572.1844 570.7344 572.1844Q569.7656 572.1844 569.34375 572.45Q569.0625 572.65314 569.0625 572.95Q569.0625 573.21564 569.3125 573.40314Q569.6406 573.65314 571.6094 574.10626Q573.5781 574.54376 574.375 575.2Q575.1406 575.85626 575.1406 577.02814Q575.1406 578.3094 574.0625 579.2469Q573.0 580.16876 570.8906 580.16876Q568.9844 580.16876 567.875 579.3875Q566.7656 578.60626 566.4219 577.29376ZM582.7031 576.98126L585.15625 577.3875Q584.6875 578.7469 583.65625 579.46564Q582.6406 580.16876 581.09375 580.16876Q578.65625 580.16876 577.5 578.575Q576.5781 577.29376 576.5781 575.35626Q576.5781 573.02814 577.78125 571.71564Q579.0 570.40314 580.8594 570.40314Q582.9375 570.40314 584.1406 571.77814Q585.34375 573.15314 585.2969 575.9969L579.1094 575.9969Q579.125 577.09064 579.6875 577.7Q580.2656 578.3094 581.125 578.3094Q581.7031 578.3094 582.09375 577.9969Q582.5 577.6844 582.7031 576.98126ZM582.84375 574.48126Q582.8125 573.40314 582.28125 572.85626Q581.75 572.29376 581.0 572.29376Q580.1875 572.29376 579.6719 572.8875Q579.1406 573.46564 579.1406 574.48126L582.84375 574.48126ZM590.65625 579.95L588.1875 579.95L588.1875 570.6219L590.4844 570.6219L590.4844 571.95Q591.0625 570.9969 591.53125 570.7Q592.0156 570.40314 592.6094 570.40314Q593.4531 570.40314 594.2344 570.8719L593.46875 573.02814Q592.84375 572.6219 592.3125 572.6219Q591.7969 572.6219 591.4219 572.90314Q591.0625 573.1844 590.8594 573.9344Q590.65625 574.6844 590.65625 577.0594L590.65625 579.95ZM594.4219 577.29376L596.90625 576.90314Q597.0625 577.6219 597.5469 577.9969Q598.03125 578.3719 598.8906 578.3719Q599.8594 578.3719 600.34375 578.02814Q600.65625 577.77814 600.65625 577.3719Q600.65625 577.09064 600.4844 576.90314Q600.2969 576.73126 599.65625 576.575Q596.6719 575.91876 595.875 575.3719Q594.7656 574.6219 594.7656 573.2625Q594.7656 572.0594 595.71875 571.23126Q596.6875 570.40314 598.6875 570.40314Q600.6094 570.40314 601.53125 571.02814Q602.46875 571.65314 602.8281 572.8719L600.5 573.3094Q600.34375 572.7625 599.9219 572.48126Q599.5156 572.1844 598.7344 572.1844Q597.7656 572.1844 597.34375 572.45Q597.0625 572.65314 597.0625 572.95Q597.0625 573.21564 597.3125 573.40314Q597.6406 573.65314 599.6094 574.10626Q601.5781 574.54376 602.375 575.2Q603.1406 575.85626 603.1406 577.02814Q603.1406 578.3094 602.0625 579.2469Q601.0 580.16876 598.8906 580.16876Q596.9844 580.16876 595.875 579.3875Q594.7656 578.60626 594.4219 577.29376ZM614.3906 583.73126L612.6875 583.73126Q611.34375 581.71564 610.6406 579.52814Q609.9375 577.325 609.9375 575.27814Q609.9375 572.7469 610.8125 570.48126Q611.5625 568.5125 612.7344 566.84064L614.4219 566.84064Q613.2031 569.5125 612.75 571.3875Q612.3125 573.2469 612.3125 575.34064Q612.3125 576.77814 612.5781 578.29376Q612.84375 579.79376 613.3125 581.16876Q613.6094 582.0594 614.3906 583.73126ZM620.6094 579.95L620.6094 577.35626L615.3281 577.35626L615.3281 575.2L620.9219 567.0125L623.0 567.0125L623.0 575.1844L624.59375 575.1844L624.59375 577.35626L623.0 577.35626L623.0 579.95L620.6094 579.95ZM620.6094 575.1844L620.6094 570.77814L617.6406 575.1844L620.6094 575.1844ZM626.2969 579.95L626.2969 577.48126L628.7656 577.48126L628.7656 579.95L626.2969 579.95ZM635.6094 579.95L635.6094 577.35626L630.3281 577.35626L630.3281 575.2L635.9219 567.0125L638.0 567.0125L638.0 575.1844L639.59375 575.1844L639.59375 577.35626L638.0 577.35626L638.0 579.95L635.6094 579.95ZM635.6094 575.1844L635.6094 570.77814L632.6406 575.1844L635.6094 575.1844ZM640.7656 569.52814L640.7656 567.2469L649.21875 567.2469L649.21875 569.02814Q648.1719 570.0594 647.0781 571.9969Q646.0 573.91876 645.4375 576.09064Q644.875 578.2469 644.875 579.95L642.5 579.95Q642.5625 577.27814 643.59375 574.4969Q644.6406 571.71564 646.375 569.52814L640.7656 569.52814ZM650.78125 570.2469Q650.78125 568.5125 651.53125 567.6844Q652.2969 566.84064 653.6094 566.84064Q654.9531 566.84064 655.7031 567.6844Q656.46875 568.5125 656.46875 570.2469Q656.46875 571.98126 655.7031 572.825Q654.9531 573.65314 653.6406 573.65314Q652.2969 573.65314 651.53125 572.825Q650.78125 571.98126 650.78125 570.2469ZM652.7031 570.23126Q652.7031 571.48126 653.0 571.91876Q653.21875 572.23126 653.6094 572.23126Q654.0 572.23126 654.21875 571.91876Q654.5 571.48126 654.5 570.23126Q654.5 568.96564 654.21875 568.54376Q654.0 568.23126 653.6094 568.23126Q653.21875 568.23126 653.0 568.54376Q652.7031 568.96564 652.7031 570.23126ZM655.4844 580.45L653.65625 580.45L660.5156 566.84064L662.2969 566.84064L655.4844 580.45ZM659.46875 577.0594Q659.46875 575.325 660.2344 574.4969Q661.0 573.65314 662.3125 573.65314Q663.6406 573.65314 664.3906 574.4969Q665.15625 575.325 665.15625 577.0594Q665.15625 578.79376 664.3906 579.6375Q663.6406 580.46564 662.34375 580.46564Q661.0 580.46564 660.2344 579.6375Q659.46875 578.79376 659.46875 577.0594ZM661.40625 577.04376Q661.40625 578.3094 661.6875 578.73126Q661.90625 579.0594 662.2969 579.0594Q662.6875 579.0594 662.90625 578.73126Q663.1875 578.3094 663.1875 577.04376Q663.1875 575.79376 662.90625 575.35626Q662.6875 575.04376 662.2969 575.04376Q661.90625 575.04376 661.6875 575.35626Q661.40625 575.79376 661.40625 577.04376ZM667.6094 583.73126Q668.34375 582.16876 668.6406 581.325Q668.9375 580.4969 669.1875 579.41876Q669.4375 578.325 669.5625 577.34064Q669.6875 576.35626 669.6875 575.34064Q669.6875 573.2469 669.2344 571.3875Q668.7969 569.5125 667.59375 566.84064L669.2656 566.84064Q670.59375 568.73126 671.3281 570.85626Q672.0625 572.96564 672.0625 575.15314Q672.0625 576.98126 671.4844 579.09064Q670.8281 581.45 669.3125 583.73126L667.6094 583.73126Z" fill-rule="nonzero"/><path fill="#91f5f5" d="M303.0 598.45C303.0 601.76373 300.31372 604.45 297.0 604.45C293.68628 604.45 291.0 601.76373 291.0 598.45C291.0 595.1363 293.68628 592.45 297.0 592.45C300.31372 592.45 303.0 595.1363 303.0 598.45Z" fill-rule="nonzero"/><path fill="#ffffff" d="M312.32812 604.95L312.32812 592.0594L321.15625 592.0594L321.15625 594.2469L314.92188 594.2469L314.92188 597.29376L320.3125 597.29376L320.3125 599.48126L314.92188 599.48126L314.92188 604.95L312.32812 604.95ZM326.20312 604.95L326.20312 594.2469L322.39062 594.2469L322.39062 592.0594L332.625 592.0594L332.625 594.2469L328.8125 594.2469L328.8125 604.95L326.20312 604.95ZM334.375 604.95L334.375 592.16876L336.98438 592.16876L336.98438 602.77814L343.45312 602.77814L343.45312 604.95L334.375 604.95ZM350.375 604.95L350.375 592.16876L352.98438 592.16876L352.98438 602.77814L359.45312 602.77814L359.45312 604.95L350.375 604.95ZM363.14062 598.46564L360.89062 598.0594Q361.28125 596.7 362.20312 596.0594Q363.125 595.40314 364.9375 595.40314Q366.59375 595.40314 367.39062 595.79376Q368.20312 596.1844 368.53125 596.79376Q368.875 597.3875 368.875 598.9969L368.84375 601.8875Q368.84375 603.10626 368.95312 603.7Q369.07812 604.27814 369.40625 604.95L366.96875 604.95Q366.85938 604.7 366.71875 604.21564Q366.65625 603.9969 366.64062 603.9344Q366.0 604.54376 365.28125 604.85626Q364.5625 605.16876 363.75 605.16876Q362.29688 605.16876 361.46875 604.3875Q360.64062 603.59064 360.64062 602.40314Q360.64062 601.60626 361.01562 600.9969Q361.39062 600.3719 362.07812 600.04376Q362.76562 599.71564 364.04688 599.46564Q365.78125 599.1375 366.4375 598.85626L366.4375 598.60626Q366.4375 597.90314 366.07812 597.60626Q365.73438 597.29376 364.76562 597.29376Q364.10938 597.29376 363.73438 597.5594Q363.35938 597.8094 363.14062 598.46564ZM366.4375 600.46564Q365.96875 600.6219 364.9375 600.84064Q363.90625 601.0594 363.59375 601.27814Q363.10938 601.6219 363.10938 602.15314Q363.10938 602.66876 363.5 603.04376Q363.89062 603.41876 364.48438 603.41876Q365.15625 603.41876 365.75 602.98126Q366.20312 602.65314 366.34375 602.16876Q366.4375 601.84064 366.4375 600.96564L366.4375 600.46564ZM371.1875 604.95L371.1875 592.0594L373.65625 592.0594L373.65625 596.7Q374.79688 595.40314 376.35938 595.40314Q378.0625 595.40314 379.17188 596.6375Q380.29688 597.8719 380.29688 600.1844Q380.29688 602.575 379.15625 603.8719Q378.03125 605.16876 376.40625 605.16876Q375.59375 605.16876 374.8125 604.7625Q374.04688 604.35626 373.48438 603.575L373.48438 604.95L371.1875 604.95ZM373.64062 600.075Q373.64062 601.52814 374.09375 602.23126Q374.73438 603.21564 375.79688 603.21564Q376.625 603.21564 377.1875 602.5125Q377.76562 601.8094 377.76562 600.3094Q377.76562 598.71564 377.1875 598.0125Q376.60938 597.29376 375.70312 597.29376Q374.8125 597.29376 374.21875 597.98126Q373.64062 598.66876 373.64062 600.075ZM381.42188 602.29376L383.90625 601.90314Q384.0625 602.6219 384.54688 602.9969Q385.03125 603.3719 385.89062 603.3719Q386.85938 603.3719 387.34375 603.02814Q387.65625 602.77814 387.65625 602.3719Q387.65625 602.09064 387.48438 601.90314Q387.29688 601.73126 386.65625 601.575Q383.67188 600.91876 382.875 600.3719Q381.76562 599.6219 381.76562 598.2625Q381.76562 597.0594 382.71875 596.23126Q383.6875 595.40314 385.6875 595.40314Q387.60938 595.40314 388.53125 596.02814Q389.46875 596.65314 389.82812 597.8719L387.5 598.3094Q387.34375 597.7625 386.92188 597.48126Q386.51562 597.1844 385.73438 597.1844Q384.76562 597.1844 384.34375 597.45Q384.0625 597.65314 384.0625 597.95Q384.0625 598.21564 384.3125 598.40314Q384.64062 598.65314 386.60938 599.10626Q388.57812 599.54376 389.375 600.2Q390.14062 600.85626 390.14062 602.02814Q390.14062 603.3094 389.0625 604.2469Q388.0 605.16876 385.89062 605.16876Q383.98438 605.16876 382.875 604.3875Q381.76562 603.60626 381.42188 602.29376ZM401.39062 608.73126L399.6875 608.73126Q398.34375 606.71564 397.64062 604.52814Q396.9375 602.325 396.9375 600.27814Q396.9375 597.7469 397.8125 595.48126Q398.5625 593.5125 399.73438 591.84064L401.42188 591.84064Q400.20312 594.5125 399.75 596.3875Q399.3125 598.2469 399.3125 600.34064Q399.3125 601.77814 399.57812 603.29376Q399.84375 604.79376 400.3125 606.16876Q400.60938 607.0594 401.39062 608.73126ZM402.67188 601.52814L405.0625 601.2469Q405.1875 602.15314 405.6875 602.6375Q406.1875 603.1219 406.89062 603.1219Q407.65625 603.1219 408.17188 602.54376Q408.70312 601.96564 408.70312 600.98126Q408.70312 600.04376 408.20312 599.4969Q407.70312 598.95 406.98438 598.95Q406.51562 598.95 405.84375 599.1375L406.125 597.1219Q407.125 597.15314 407.64062 596.7Q408.17188 596.23126 408.17188 595.46564Q408.17188 594.8094 407.78125 594.4344Q407.40625 594.04376 406.76562 594.04376Q406.125 594.04376 405.67188 594.48126Q405.23438 594.91876 405.14062 595.7625L402.85938 595.3719Q403.09375 594.21564 403.57812 593.5125Q404.0625 592.8094 404.90625 592.41876Q405.76562 592.0125 406.82812 592.0125Q408.65625 592.0125 409.75 593.16876Q410.65625 594.1219 410.65625 595.3094Q410.65625 597.0125 408.79688 598.02814Q409.90625 598.2625 410.5625 599.09064Q411.23438 599.91876 411.23438 601.075Q411.23438 602.77814 410.0 603.98126Q408.76562 605.16876 406.90625 605.16876Q405.17188 605.16876 404.01562 604.16876Q402.85938 603.15314 402.67188 601.52814ZM416.9375 592.0125Q418.8125 592.0125 419.85938 593.34064Q421.125 594.9344 421.125 598.59064Q421.125 602.2469 419.85938 603.85626Q418.8125 605.16876 416.9375 605.16876Q415.0625 605.16876 413.90625 603.73126Q412.75 602.27814 412.75 598.575Q412.75 594.9344 414.01562 593.325Q415.0625 592.0125 416.9375 592.0125ZM416.9375 594.0594Q416.48438 594.0594 416.125 594.35626Q415.78125 594.6375 415.59375 595.3719Q415.34375 596.325 415.34375 598.59064Q415.34375 600.85626 415.5625 601.71564Q415.79688 602.5594 416.14062 602.84064Q416.48438 603.1219 416.9375 603.1219Q417.39062 603.1219 417.73438 602.84064Q418.09375 602.54376 418.28125 601.8094Q418.54688 600.85626 418.54688 598.59064Q418.54688 596.325 418.3125 595.48126Q418.07812 594.6375 417.73438 594.35626Q417.39062 594.0594 416.9375 594.0594ZM423.29688 604.95L423.29688 602.48126L425.76562 602.48126L425.76562 604.95L423.29688 604.95ZM427.79688 601.6375L430.26562 601.3875Q430.35938 602.21564 430.875 602.7Q431.40625 603.1844 432.07812 603.1844Q432.85938 603.1844 433.39062 602.5594Q433.92188 601.9344 433.92188 600.66876Q433.92188 599.48126 433.39062 598.8875Q432.85938 598.29376 432.01562 598.29376Q430.95312 598.29376 430.10938 599.23126L428.09375 598.95L429.35938 592.2469L435.89062 592.2469L435.89062 594.5594L431.23438 594.5594L430.84375 596.7469Q431.67188 596.325 432.53125 596.325Q434.1875 596.325 435.32812 597.52814Q436.46875 598.71564 436.46875 600.6219Q436.46875 602.21564 435.54688 603.46564Q434.28125 605.16876 432.04688 605.16876Q430.26562 605.16876 429.14062 604.21564Q428.01562 603.2469 427.79688 601.6375ZM437.67188 601.52814L440.0625 601.2469Q440.1875 602.15314 440.6875 602.6375Q441.1875 603.1219 441.89062 603.1219Q442.65625 603.1219 443.17188 602.54376Q443.70312 601.96564 443.70312 600.98126Q443.70312 600.04376 443.20312 599.4969Q442.70312 598.95 441.98438 598.95Q441.51562 598.95 440.84375 599.1375L441.125 597.1219Q442.125 597.15314 442.64062 596.7Q443.17188 596.23126 443.17188 595.46564Q443.17188 594.8094 442.78125 594.4344Q442.40625 594.04376 441.76562 594.04376Q441.125 594.04376 440.67188 594.48126Q440.23438 594.91876 440.14062 595.7625L437.85938 595.3719Q438.09375 594.21564 438.57812 593.5125Q439.0625 592.8094 439.90625 592.41876Q440.76562 592.0125 441.82812 592.0125Q443.65625 592.0125 444.75 593.16876Q445.65625 594.1219 445.65625 595.3094Q445.65625 597.0125 443.79688 598.02814Q444.90625 598.2625 445.5625 599.09064Q446.23438 599.91876 446.23438 601.075Q446.23438 602.77814 445.0 603.98126Q443.76562 605.16876 441.90625 605.16876Q440.17188 605.16876 439.01562 604.16876Q437.85938 603.15314 437.67188 601.52814ZM447.78125 595.2469Q447.78125 593.5125 448.53125 592.6844Q449.29688 591.84064 450.60938 591.84064Q451.95312 591.84064 452.70312 592.6844Q453.46875 593.5125 453.46875 595.2469Q453.46875 596.98126 452.70312 597.825Q451.95312 598.65314 450.64062 598.65314Q449.29688 598.65314 448.53125 597.825Q447.78125 596.98126 447.78125 595.2469ZM449.70312 595.23126Q449.70312 596.48126 450.0 596.91876Q450.21875 597.23126 450.60938 597.23126Q451.0 597.23126 451.21875 596.91876Q451.5 596.48126 451.5 595.23126Q451.5 593.96564 451.21875 593.54376Q451.0 593.23126 450.60938 593.23126Q450.21875 593.23126 450.0 593.54376Q449.70312 593.96564 449.70312 595.23126ZM452.48438 605.45L450.65625 605.45L457.51562 591.84064L459.29688 591.84064L452.48438 605.45ZM456.46875 602.0594Q456.46875 600.325 457.23438 599.4969Q458.0 598.65314 459.3125 598.65314Q460.64062 598.65314 461.39062 599.4969Q462.15625 600.325 462.15625 602.0594Q462.15625 603.79376 461.39062 604.6375Q460.64062 605.46564 459.34375 605.46564Q458.0 605.46564 457.23438 604.6375Q456.46875 603.79376 456.46875 602.0594ZM458.40625 602.04376Q458.40625 603.3094 458.6875 603.73126Q458.90625 604.0594 459.29688 604.0594Q459.6875 604.0594 459.90625 603.73126Q460.1875 603.3094 460.1875 602.04376Q460.1875 600.79376 459.90625 600.35626Q459.6875 600.04376 459.29688 600.04376Q458.90625 600.04376 458.6875 600.35626Q458.40625 600.79376 458.40625 602.04376ZM464.60938 608.73126Q465.34375 607.16876 465.64062 606.325Q465.9375 605.4969 466.1875 604.41876Q466.4375 603.325 466.5625 602.34064Q466.6875 601.35626 466.6875 600.34064Q466.6875 598.2469 466.23438 596.3875Q465.79688 594.5125 464.59375 591.84064L466.26562 591.84064Q467.59375 593.73126 468.32812 595.85626Q469.0625 597.96564 469.0625 600.15314Q469.0625 601.98126 468.48438 604.09064Q467.82812 606.45 466.3125 608.73126L464.60938 608.73126Z" fill-rule="nonzero"/></svg>