<svg version="1.1" viewBox="0.0 0.0 774.0 652.0" fill="none" stroke="none" stroke-linecap="square" stroke-miterlimit="10" width="774" height="652" xmlns:xlink="http://www.w3.org/1999/xlink" xmlns="http://www.w3.org/2000/svg"><path fill="#232832" d="M0 0L774.0 0L774.0 652.0L0 652.0L0 0Z" fill-rule="nonzero"/><path fill="#9d009d" d="M387.0 32.6C399.59143 32.6 412.16443 33.562687 424.6091 35.479645L387.0 279.63333Z" fill-rule="nonzero"/><path fill="#f0ff9b" d="M424.6091 35.479645C504.2472 47.746986 572.8976 98.08372 608.5446 170.34718L387.0 279.63333Z" fill-rule="nonzero"/><path fill="#14bf51" d="M608.5446 170.34718C643.52765 241.26471 642.446 324.6437 605.635 394.62988L387.0 279.63333Z" fill-rule="nonzero"/><path fill="#91f5f5" d="M154.7398 363.78006C127.30771 288.0625 138.50604 203.72623 184.74706 137.79112C230.98805 71.856026 306.46634 32.6 387.0 32.6L387.0 279.63333Z" fill-rule="nonzero"/><path fill="#1470e8" d="M187.14583 424.83588C173.53578 406.10324 162.627 385.55014 154.7398 363.78006L387.0 279.63333Z" fill-rule="nonzero"/><path fill="#ffb4ff" d="M605.635 394.62988C565.88983 470.19458 489.9425 519.8791 404.78427 526.0257C319.62607 532.1723 237.3308 493.90955 187.14583 424.83588L387.0 279.63333Z" fill-rule="nonzero"/><path fill="#9d009d" d="M78.0 558.9C78.0 562.2137 75.313705 564.9 72.0 564.9C68.686295 564.9 66.0 562.2137 66.0 558.9C66.0 555.5863 68.686295 552.9 72.0 552.9C75.313705 552.9 78.0 555.5863 78.0 558.9Z" fill-rule="nonzero"/><path fill="#ffffff" d="M87.296875 552.5094L92.0625 552.5094Q93.671875 552.5094 94.515625 552.7594Q95.640625 553.0875 96.453125 553.9469Q97.265625 554.8063 97.6875 556.04065Q98.109375 557.275 98.109375 559.0875Q98.109375 560.66565 97.703125 561.8219Q97.21875 563.22815 96.328125 564.10315Q95.65625 564.7594 94.5 565.1344Q93.640625 565.4 92.203125 565.4L87.296875 565.4L87.296875 552.5094ZM89.90625 554.6969L89.90625 563.22815L91.84375 563.22815Q92.9375 563.22815 93.421875 563.10315Q94.046875 562.9469 94.46875 562.5719Q94.890625 562.1969 95.140625 561.3375Q95.40625 560.4625 95.40625 558.9625Q95.40625 557.47815 95.140625 556.6813Q94.890625 555.8688 94.40625 555.4313Q93.9375 554.97815 93.203125 554.8219Q92.65625 554.6969 91.078125 554.6969L89.90625 554.6969ZM111.921875 565.4L109.09375 565.4L107.96875 562.47815L102.828125 562.47815L101.765625 565.4L99.0 565.4L104.015625 552.5094L106.765625 552.5094L111.921875 565.4ZM107.140625 560.3063L105.359375 555.525L103.625 560.3063L107.140625 560.3063ZM112.78125 559.04065Q112.78125 557.0719 113.375 555.72815Q113.8125 554.7438 114.5625 553.9625Q115.328125 553.1813 116.234375 552.8063Q117.4375 552.29065 119.015625 552.29065Q121.859375 552.29065 123.5625 554.0563Q125.28125 555.8219 125.28125 558.97815Q125.28125 562.0875 123.578125 563.85315Q121.890625 565.6188 119.046875 565.6188Q116.171875 565.6188 114.46875 563.8688Q112.78125 562.1188 112.78125 559.04065ZM115.46875 558.9469Q115.46875 561.1344 116.46875 562.275Q117.484375 563.4 119.046875 563.4Q120.59375 563.4 121.59375 562.275Q122.59375 561.15 122.59375 558.91565Q122.59375 556.6969 121.625 555.6188Q120.65625 554.525 119.046875 554.525Q117.4375 554.525 116.453125 555.6344Q115.46875 556.72815 115.46875 558.9469ZM132.01562 561.9625L132.01562 559.4938L136.85938 559.4938L136.85938 561.9625L132.01562 561.9625ZM143.23438 565.4L143.23438 552.5094L145.82812 552.5094L145.82812 565.4L143.23438 565.4ZM156.78125 565.4L154.3125 565.4L154.3125 560.6344Q154.3125 559.1188 154.15625 558.6813Q154.0 558.2438 153.64062 557.9938Q153.28125 557.7438 152.78125 557.7438Q152.14062 557.7438 151.625 558.10315Q151.125 558.4469 150.9375 559.025Q150.75 559.60315 150.75 561.16565L150.75 565.4L148.28125 565.4L148.28125 556.0719L150.5625 556.0719L150.5625 557.4313Q151.79688 555.85315 153.64062 555.85315Q154.46875 555.85315 155.14062 556.15Q155.8125 556.4469 156.15625 556.9Q156.51562 557.35315 156.64062 557.9469Q156.78125 558.525 156.78125 559.60315L156.78125 565.4ZM159.29688 554.8063L159.29688 552.5094L161.76562 552.5094L161.76562 554.8063L159.29688 554.8063ZM159.29688 565.4L159.29688 556.0719L161.76562 556.0719L161.76562 565.4L159.29688 565.4ZM168.57812 556.0719L168.57812 558.04065L166.89062 558.04065L166.89062 561.79065Q166.89062 562.9313 166.9375 563.1344Q166.98438 563.3219 167.15625 563.4469Q167.32812 563.5563 167.57812 563.5563Q167.90625 563.5563 168.5625 563.3219L168.78125 565.2438Q167.90625 565.6188 166.82812 565.6188Q166.15625 565.6188 165.60938 565.4Q165.07812 565.16565 164.82812 564.8063Q164.57812 564.4469 164.48438 563.8375Q164.40625 563.41565 164.40625 562.10315L164.40625 558.04065L163.26562 558.04065L163.26562 556.0719L164.40625 556.0719L164.40625 554.2125L166.89062 552.775L166.89062 556.0719L168.57812 556.0719ZM170.29688 554.8063L170.29688 552.5094L172.76562 552.5094L172.76562 554.8063L170.29688 554.8063ZM170.29688 565.4L170.29688 556.0719L172.76562 556.0719L172.76562 565.4L170.29688 565.4ZM177.14062 558.91565L174.89062 558.5094Q175.28125 557.15 176.20312 556.5094Q177.125 555.85315 178.9375 555.85315Q180.59375 555.85315 181.39062 556.2438Q182.20312 556.6344 182.53125 557.2438Q182.875 557.8375 182.875 559.4469L182.84375 562.3375Q182.84375 563.5563 182.95312 564.15Q183.07812 564.72815 183.40625 565.4L180.96875 565.4Q180.85938 565.15 180.71875 564.66565Q180.65625 564.4469 180.64062 564.3844Q180.0 564.9938 179.28125 565.3063Q178.5625 565.6188 177.75 565.6188Q176.29688 565.6188 175.46875 564.8375Q174.64062 564.04065 174.64062 562.85315Q174.64062 562.0563 175.01562 561.4469Q175.39062 560.8219 176.07812 560.4938Q176.76562 560.16565 178.04688 559.91565Q179.78125 559.5875 180.4375 559.3063L180.4375 559.0563Q180.4375 558.35315 180.07812 558.0563Q179.73438 557.7438 178.76562 557.7438Q178.10938 557.7438 177.73438 558.0094Q177.35938 558.2594 177.14062 558.91565ZM180.4375 560.91565Q179.96875 561.0719 178.9375 561.29065Q177.90625 561.5094 177.59375 561.72815Q177.10938 562.0719 177.10938 562.60315Q177.10938 563.1188 177.5 563.4938Q177.89062 563.8688 178.48438 563.8688Q179.15625 563.8688 179.75 563.4313Q180.20312 563.10315 180.34375 562.6188Q180.4375 562.29065 180.4375 561.41565L180.4375 560.91565ZM185.29688 565.4L185.29688 552.5094L187.76562 552.5094L187.76562 565.4L185.29688 565.4ZM194.65625 561.2125L197.1875 560.9625Q197.40625 562.22815 198.10938 562.8375Q198.8125 563.4313 200.0 563.4313Q201.25 563.4313 201.89062 562.9Q202.53125 562.3688 202.53125 561.65Q202.53125 561.1969 202.25 560.8844Q201.98438 560.5563 201.32812 560.3219Q200.85938 560.16565 199.23438 559.7594Q197.14062 559.2438 196.29688 558.47815Q195.10938 557.41565 195.10938 555.8844Q195.10938 554.9 195.67188 554.0563Q196.23438 553.1969 197.28125 552.7438Q198.32812 552.29065 199.8125 552.29065Q202.25 552.29065 203.46875 553.35315Q204.70312 554.41565 204.76562 556.1969L202.15625 556.3063Q201.98438 555.3219 201.4375 554.8844Q200.89062 554.4469 199.79688 554.4469Q198.65625 554.4469 198.01562 554.91565Q197.60938 555.2125 197.60938 555.7125Q197.60938 556.16565 197.98438 556.4938Q198.48438 556.91565 200.375 557.3688Q202.28125 557.8063 203.1875 558.29065Q204.09375 558.7594 204.60938 559.60315Q205.125 560.4313 205.125 561.65Q205.125 562.7594 204.5 563.72815Q203.89062 564.6813 202.76562 565.16565Q201.64062 565.6344 199.96875 565.6344Q197.53125 565.6344 196.21875 564.5094Q194.90625 563.3688 194.65625 561.2125ZM212.70312 562.4313L215.15625 562.8375Q214.6875 564.1969 213.65625 564.91565Q212.64062 565.6188 211.09375 565.6188Q208.65625 565.6188 207.5 564.025Q206.57812 562.7438 206.57812 560.8063Q206.57812 558.47815 207.78125 557.16565Q209.0 555.85315 210.85938 555.85315Q212.9375 555.85315 214.14062 557.22815Q215.34375 558.60315 215.29688 561.4469L209.10938 561.4469Q209.125 562.54065 209.6875 563.15Q210.26562 563.7594 211.125 563.7594Q211.70312 563.7594 212.09375 563.4469Q212.5 563.1344 212.70312 562.4313ZM212.84375 559.9313Q212.8125 558.85315 212.28125 558.3063Q211.75 557.7438 211.0 557.7438Q210.1875 557.7438 209.67188 558.3375Q209.14062 558.91565 209.14062 559.9313L212.84375 559.9313ZM220.65625 565.4L218.1875 565.4L218.1875 556.0719L220.48438 556.0719L220.48438 557.4Q221.0625 556.4469 221.53125 556.15Q222.01562 555.85315 222.60938 555.85315Q223.45312 555.85315 224.23438 556.3219L223.46875 558.47815Q222.84375 558.0719 222.3125 558.0719Q221.79688 558.0719 221.42188 558.35315Q221.0625 558.6344 220.85938 559.3844Q220.65625 560.1344 220.65625 562.5094L220.65625 565.4ZM227.85938 565.4L224.09375 556.0719L226.6875 556.0719L228.45312 560.8219L228.95312 562.41565Q229.15625 561.8063 229.21875 561.6188Q229.32812 561.22815 229.46875 560.8219L231.25 556.0719L233.79688 556.0719L230.07812 565.4L227.85938 565.4ZM236.29688 554.8063L236.29688 552.5094L238.76562 552.5094L238.76562 554.8063L236.29688 554.8063ZM236.29688 565.4L236.29688 556.0719L238.76562 556.0719L238.76562 565.4L236.29688 565.4ZM249.4375 558.8219L247.0 559.2594Q246.875 558.54065 246.4375 558.16565Q246.0 557.79065 245.3125 557.79065Q244.39062 557.79065 243.82812 558.4313Q243.28125 559.0719 243.28125 560.5719Q243.28125 562.22815 243.84375 562.91565Q244.40625 563.60315 245.34375 563.60315Q246.04688 563.60315 246.48438 563.1969Q246.9375 562.79065 247.125 561.8219L249.54688 562.22815Q249.17188 563.9 248.09375 564.7594Q247.03125 565.6188 245.23438 565.6188Q243.1875 565.6188 241.96875 564.3219Q240.75 563.025 240.75 560.7438Q240.75 558.4313 241.96875 557.15Q243.1875 555.85315 245.28125 555.85315Q246.98438 555.85315 247.98438 556.5875Q248.98438 557.3219 249.4375 558.8219ZM256.70312 562.4313L259.15625 562.8375Q258.6875 564.1969 257.65625 564.91565Q256.64062 565.6188 255.09375 565.6188Q252.65625 565.6188 251.5 564.025Q250.57812 562.7438 250.57812 560.8063Q250.57812 558.47815 251.78125 557.16565Q253.0 555.85315 254.85938 555.85315Q256.9375 555.85315 258.14062 557.22815Q259.34375 558.60315 259.29688 561.4469L253.10938 561.4469Q253.125 562.54065 253.6875 563.15Q254.26562 563.7594 255.125 563.7594Q255.70312 563.7594 256.09375 563.4469Q256.5 563.1344 256.70312 562.4313ZM256.84375 559.9313Q256.8125 558.85315 256.28125 558.3063Q255.75 557.7438 255.0 557.7438Q254.1875 557.7438 253.67188 558.3375Q253.14062 558.91565 253.14062 559.9313L256.84375 559.9313ZM267.3125 565.4L267.3125 552.5094L271.48438 552.5094Q273.85938 552.5094 274.57812 552.7125Q275.6875 552.9938 276.4375 553.97815Q277.1875 554.9469 277.1875 556.47815Q277.1875 557.66565 276.75 558.47815Q276.3125 559.275 275.64062 559.7438Q274.98438 560.2125 274.3125 560.35315Q273.375 560.54065 271.60938 560.54065L269.90625 560.54065L269.90625 565.4L267.3125 565.4ZM269.90625 554.6969L269.90625 558.35315L271.32812 558.35315Q272.875 558.35315 273.39062 558.15Q273.90625 557.9469 274.20312 557.525Q274.5 557.0875 274.5 556.5094Q274.5 555.8063 274.07812 555.35315Q273.67188 554.9 273.04688 554.775Q272.57812 554.6969 271.17188 554.6969L269.90625 554.6969ZM281.65625 565.4L279.1875 565.4L279.1875 556.0719L281.48438 556.0719L281.48438 557.4Q282.0625 556.4469 282.53125 556.15Q283.01562 555.85315 283.60938 555.85315Q284.45312 555.85315 285.23438 556.3219L284.46875 558.47815Q283.84375 558.0719 283.3125 558.0719Q282.79688 558.0719 282.42188 558.35315Q282.0625 558.6344 281.85938 559.3844Q281.65625 560.1344 281.65625 562.5094L281.65625 565.4ZM285.71875 560.60315Q285.71875 559.3688 286.32812 558.22815Q286.9375 557.0719 288.04688 556.4625Q289.15625 555.85315 290.53125 555.85315Q292.64062 555.85315 294.0 557.22815Q295.35938 558.60315 295.35938 560.7125Q295.35938 562.8219 293.98438 564.22815Q292.625 565.6188 290.54688 565.6188Q289.26562 565.6188 288.09375 565.04065Q286.9375 564.4469 286.32812 563.3375Q285.71875 562.2125 285.71875 560.60315ZM288.25 560.72815Q288.25 562.1188 288.90625 562.8688Q289.57812 563.60315 290.53125 563.60315Q291.5 563.60315 292.15625 562.8688Q292.8125 562.1188 292.8125 560.7125Q292.8125 559.3375 292.15625 558.60315Q291.5 557.8688 290.53125 557.8688Q289.57812 557.8688 288.90625 558.60315Q288.25 559.3375 288.25 560.72815ZM299.85938 565.4L296.09375 556.0719L298.6875 556.0719L300.45312 560.8219L300.95312 562.41565Q301.15625 561.8063 301.21875 561.6188Q301.32812 561.22815 301.46875 560.8219L303.25 556.0719L305.79688 556.0719L302.07812 565.4L299.85938 565.4ZM308.29688 554.8063L308.29688 552.5094L310.76562 552.5094L310.76562 554.8063L308.29688 554.8063ZM308.29688 565.4L308.29688 556.0719L310.76562 556.0719L310.76562 565.4L308.29688 565.4ZM321.85938 565.4L319.5625 565.4L319.5625 564.025Q318.98438 564.8219 318.20312 565.22815Q317.4375 565.6188 316.64062 565.6188Q315.03125 565.6188 313.875 564.3219Q312.73438 563.025 312.73438 560.6969Q312.73438 558.3219 313.84375 557.0875Q314.96875 555.85315 316.67188 555.85315Q318.23438 555.85315 319.39062 557.15L319.39062 552.5094L321.85938 552.5094L321.85938 565.4ZM315.26562 560.525Q315.26562 562.025 315.67188 562.6969Q316.26562 563.66565 317.34375 563.66565Q318.20312 563.66565 318.79688 562.9469Q319.39062 562.2125 319.39062 560.775Q319.39062 559.16565 318.8125 558.4625Q318.23438 557.7438 317.32812 557.7438Q316.45312 557.7438 315.85938 558.4469Q315.26562 559.1344 315.26562 560.525ZM329.70312 562.4313L332.15625 562.8375Q331.6875 564.1969 330.65625 564.91565Q329.64062 565.6188 328.09375 565.6188Q325.65625 565.6188 324.5 564.025Q323.57812 562.7438 323.57812 560.8063Q323.57812 558.47815 324.78125 557.16565Q326.0 555.85315 327.85938 555.85315Q329.9375 555.85315 331.14062 557.22815Q332.34375 558.60315 332.29688 561.4469L326.10938 561.4469Q326.125 562.54065 326.6875 563.15Q327.26562 563.7594 328.125 563.7594Q328.70312 563.7594 329.09375 563.4469Q329.5 563.1344 329.70312 562.4313ZM329.84375 559.9313Q329.8125 558.85315 329.28125 558.3063Q328.75 557.7438 328.0 557.7438Q327.1875 557.7438 326.67188 558.3375Q326.14062 558.91565 326.14062 559.9313L329.84375 559.9313ZM337.65625 565.4L335.1875 565.4L335.1875 556.0719L337.48438 556.0719L337.48438 557.4Q338.0625 556.4469 338.53125 556.15Q339.01562 555.85315 339.60938 555.85315Q340.45312 555.85315 341.23438 556.3219L340.46875 558.47815Q339.84375 558.0719 339.3125 558.0719Q338.79688 558.0719 338.42188 558.35315Q338.0625 558.6344 337.85938 559.3844Q337.65625 560.1344 337.65625 562.5094L337.65625 565.4ZM341.42188 562.7438L343.90625 562.35315Q344.0625 563.0719 344.54688 563.4469Q345.03125 563.8219 345.89062 563.8219Q346.85938 563.8219 347.34375 563.47815Q347.65625 563.22815 347.65625 562.8219Q347.65625 562.54065 347.48438 562.35315Q347.29688 562.1813 346.65625 562.025Q343.67188 561.3688 342.875 560.8219Q341.76562 560.0719 341.76562 558.7125Q341.76562 557.5094 342.71875 556.6813Q343.6875 555.85315 345.6875 555.85315Q347.60938 555.85315 348.53125 556.47815Q349.46875 557.10315 349.82812 558.3219L347.5 558.7594Q347.34375 558.2125 346.92188 557.9313Q346.51562 557.6344 345.73438 557.6344Q344.76562 557.6344 344.34375 557.9Q344.0625 558.10315 344.0625 558.4Q344.0625 558.66565 344.3125 558.85315Q344.64062 559.10315 346.60938 559.5563Q348.57812 559.9938 349.375 560.65Q350.14062 561.3063 350.14062 562.47815Q350.14062 563.7594 349.0625 564.6969Q348.0 565.6188 345.89062 565.6188Q343.98438 565.6188 342.875 564.8375Q341.76562 564.0563 341.42188 562.7438ZM361.39062 569.1813L359.6875 569.1813Q358.34375 567.16565 357.64062 564.97815Q356.9375 562.775 356.9375 560.72815Q356.9375 558.1969 357.8125 555.9313Q358.5625 553.9625 359.73438 552.29065L361.42188 552.29065Q360.20312 554.9625 359.75 556.8375Q359.3125 558.6969 359.3125 560.79065Q359.3125 562.22815 359.57812 563.7438Q359.84375 565.2438 360.3125 566.6188Q360.60938 567.5094 361.39062 569.1813ZM371.10938 563.10315L371.10938 565.4L362.45312 565.4Q362.59375 564.10315 363.29688 562.9469Q364.0 561.775 366.0625 559.8375Q367.73438 558.29065 368.125 557.72815Q368.625 556.97815 368.625 556.22815Q368.625 555.4 368.17188 554.9625Q367.73438 554.5094 366.95312 554.5094Q366.1875 554.5094 365.71875 554.97815Q365.26562 555.4469 365.20312 556.525L362.73438 556.275Q362.95312 554.2438 364.10938 553.35315Q365.28125 552.4625 367.01562 552.4625Q368.92188 552.4625 370.01562 553.4938Q371.10938 554.525 371.10938 556.04065Q371.10938 556.91565 370.79688 557.7125Q370.48438 558.4938 369.8125 559.35315Q369.35938 559.9313 368.1875 561.0094Q367.01562 562.0719 366.70312 562.4313Q366.39062 562.775 366.20312 563.10315L371.10938 563.10315ZM373.29688 565.4L373.29688 562.9313L375.76562 562.9313L375.76562 565.4L373.29688 565.4ZM382.60938 565.4L382.60938 562.8063L377.32812 562.8063L377.32812 560.65L382.92188 552.4625L385.0 552.4625L385.0 560.6344L386.59375 560.6344L386.59375 562.8063L385.0 562.8063L385.0 565.4L382.60938 565.4ZM382.60938 560.6344L382.60938 556.22815L379.64062 560.6344L382.60938 560.6344ZM387.67188 561.97815L390.0625 561.6969Q390.1875 562.60315 390.6875 563.0875Q391.1875 563.5719 391.89062 563.5719Q392.65625 563.5719 393.17188 562.9938Q393.70312 562.41565 393.70312 561.4313Q393.70312 560.4938 393.20312 559.9469Q392.70312 559.4 391.98438 559.4Q391.51562 559.4 390.84375 559.5875L391.125 557.5719Q392.125 557.60315 392.64062 557.15Q393.17188 556.6813 393.17188 555.91565Q393.17188 555.2594 392.78125 554.8844Q392.40625 554.4938 391.76562 554.4938Q391.125 554.4938 390.67188 554.9313Q390.23438 555.3688 390.14062 556.2125L387.85938 555.8219Q388.09375 554.66565 388.57812 553.9625Q389.0625 553.2594 389.90625 552.8688Q390.76562 552.4625 391.82812 552.4625Q393.65625 552.4625 394.75 553.6188Q395.65625 554.5719 395.65625 555.7594Q395.65625 557.4625 393.79688 558.47815Q394.90625 558.7125 395.5625 559.54065Q396.23438 560.3688 396.23438 561.525Q396.23438 563.22815 395.0 564.4313Q393.76562 565.6188 391.90625 565.6188Q390.17188 565.6188 389.01562 564.6188Q387.85938 563.60315 387.67188 561.97815ZM397.78125 555.6969Q397.78125 553.9625 398.53125 553.1344Q399.29688 552.29065 400.60938 552.29065Q401.95312 552.29065 402.70312 553.1344Q403.46875 553.9625 403.46875 555.6969Q403.46875 557.4313 402.70312 558.275Q401.95312 559.10315 400.64062 559.10315Q399.29688 559.10315 398.53125 558.275Q397.78125 557.4313 397.78125 555.6969ZM399.70312 555.6813Q399.70312 556.9313 400.0 557.3688Q400.21875 557.6813 400.60938 557.6813Q401.0 557.6813 401.21875 557.3688Q401.5 556.9313 401.5 555.6813Q401.5 554.41565 401.21875 553.9938Q401.0 553.6813 400.60938 553.6813Q400.21875 553.6813 400.0 553.9938Q399.70312 554.41565 399.70312 555.6813ZM402.48438 565.9L400.65625 565.9L407.51562 552.29065L409.29688 552.29065L402.48438 565.9ZM406.46875 562.5094Q406.46875 560.775 407.23438 559.9469Q408.0 559.10315 409.3125 559.10315Q410.64062 559.10315 411.39062 559.9469Q412.15625 560.775 412.15625 562.5094Q412.15625 564.2438 411.39062 565.0875Q410.64062 565.91565 409.34375 565.91565Q408.0 565.91565 407.23438 565.0875Q406.46875 564.2438 406.46875 562.5094ZM408.40625 562.4938Q408.40625 563.7594 408.6875 564.1813Q408.90625 564.5094 409.29688 564.5094Q409.6875 564.5094 409.90625 564.1813Q410.1875 563.7594 410.1875 562.4938Q410.1875 561.2438 409.90625 560.8063Q409.6875 560.4938 409.29688 560.4938Q408.90625 560.4938 408.6875 560.8063Q408.40625 561.2438 408.40625 562.4938ZM414.60938 569.1813Q415.34375 567.6188 415.64062 566.775Q415.9375 565.9469 416.1875 564.8688Q416.4375 563.775 416.5625 562.79065Q416.6875 561.8063 416.6875 560.79065Q416.6875 558.6969 416.23438 556.8375Q415.79688 554.9625 414.59375 552.29065L416.26562 552.29065Q417.59375 554.1813 418.32812 556.3063Q419.0625 558.41565 419.0625 560.60315Q419.0625 562.4313 418.48438 564.54065Q417.82812 566.9 416.3125 569.1813L414.60938 569.1813Z" fill-rule="nonzero"/><path fill="#f0ff9b" d="M448.0 558.9C448.0 562.2137 445.31372 564.9 442.0 564.9C438.68628 564.9 436.0 562.2137 436.0 558.9C436.0 555.5863 438.68628 552.9 442.0 552.9C445.31372 552.9 448.0 555.5863 448.0 558.9Z" fill-rule="nonzero"/><path fill="#ffffff" d="M457.29688 552.5094L462.0625 552.5094Q463.67188 552.5094 464.51562 552.7594Q465.64062 553.0875 466.45312 553.9469Q467.26562 554.8063 467.6875 556.04065Q468.10938 557.275 468.10938 559.0875Q468.10938 560.66565 467.70312 561.8219Q467.21875 563.22815 466.32812 564.10315Q465.65625 564.7594 464.5 565.1344Q463.64062 565.4 462.20312 565.4L457.29688 565.4L457.29688 552.5094ZM459.90625 554.6969L459.90625 563.22815L461.84375 563.22815Q462.9375 563.22815 463.42188 563.10315Q464.04688 562.9469 464.46875 562.5719Q464.89062 562.1969 465.14062 561.3375Q465.40625 560.4625 465.40625 558.9625Q465.40625 557.47815 465.14062 556.6813Q464.89062 555.8688 464.40625 555.4313Q463.9375 554.97815 463.20312 554.8219Q462.65625 554.6969 461.07812 554.6969L459.90625 554.6969ZM481.92188 565.4L479.09375 565.4L477.96875 562.47815L472.82812 562.47815L471.76562 565.4L469.0 565.4L474.01562 552.5094L476.76562 552.5094L481.92188 565.4ZM477.14062 560.3063L475.35938 555.525L473.625 560.3063L477.14062 560.3063ZM482.78125 559.04065Q482.78125 557.0719 483.375 555.72815Q483.8125 554.7438 484.5625 553.9625Q485.32812 553.1813 486.23438 552.8063Q487.4375 552.29065 489.01562 552.29065Q491.85938 552.29065 493.5625 554.0563Q495.28125 555.8219 495.28125 558.97815Q495.28125 562.0875 493.57812 563.85315Q491.89062 565.6188 489.04688 565.6188Q486.17188 565.6188 484.46875 563.8688Q482.78125 562.1188 482.78125 559.04065ZM485.46875 558.9469Q485.46875 561.1344 486.46875 562.275Q487.48438 563.4 489.04688 563.4Q490.59375 563.4 491.59375 562.275Q492.59375 561.15 492.59375 558.91565Q492.59375 556.6969 491.625 555.6188Q490.65625 554.525 489.04688 554.525Q487.4375 554.525 486.45312 555.6344Q485.46875 556.72815 485.46875 558.9469ZM502.01562 561.9625L502.01562 559.4938L506.85938 559.4938L506.85938 561.9625L502.01562 561.9625ZM513.2344 565.4L513.2344 552.5094L515.8281 552.5094L515.8281 565.4L513.2344 565.4ZM526.78125 565.4L524.3125 565.4L524.3125 560.6344Q524.3125 559.1188 524.15625 558.6813Q524.0 558.2438 523.6406 557.9938Q523.28125 557.7438 522.78125 557.7438Q522.1406 557.7438 521.625 558.10315Q521.125 558.4469 520.9375 559.025Q520.75 559.60315 520.75 561.16565L520.75 565.4L518.28125 565.4L518.28125 556.0719L520.5625 556.0719L520.5625 557.4313Q521.7969 555.85315 523.6406 555.85315Q524.46875 555.85315 525.1406 556.15Q525.8125 556.4469 526.15625 556.9Q526.5156 557.35315 526.6406 557.9469Q526.78125 558.525 526.78125 559.60315L526.78125 565.4ZM529.2969 554.8063L529.2969 552.5094L531.7656 552.5094L531.7656 554.8063L529.2969 554.8063ZM529.2969 565.4L529.2969 556.0719L531.7656 556.0719L531.7656 565.4L529.2969 565.4ZM538.5781 556.0719L538.5781 558.04065L536.8906 558.04065L536.8906 561.79065Q536.8906 562.9313 536.9375 563.1344Q536.9844 563.3219 537.15625 563.4469Q537.3281 563.5563 537.5781 563.5563Q537.90625 563.5563 538.5625 563.3219L538.78125 565.2438Q537.90625 565.6188 536.8281 565.6188Q536.15625 565.6188 535.6094 565.4Q535.0781 565.16565 534.8281 564.8063Q534.5781 564.4469 534.4844 563.8375Q534.40625 563.41565 534.40625 562.10315L534.40625 558.04065L533.2656 558.04065L533.2656 556.0719L534.40625 556.0719L534.40625 554.2125L536.8906 552.775L536.8906 556.0719L538.5781 556.0719ZM540.2969 554.8063L540.2969 552.5094L542.7656 552.5094L542.7656 554.8063L540.2969 554.8063ZM540.2969 565.4L540.2969 556.0719L542.7656 556.0719L542.7656 565.4L540.2969 565.4ZM547.1406 558.91565L544.8906 558.5094Q545.28125 557.15 546.2031 556.5094Q547.125 555.85315 548.9375 555.85315Q550.59375 555.85315 551.3906 556.2438Q552.2031 556.6344 552.53125 557.2438Q552.875 557.8375 552.875 559.4469L552.84375 562.3375Q552.84375 563.5563 552.9531 564.15Q553.0781 564.72815 553.40625 565.4L550.96875 565.4Q550.8594 565.15 550.71875 564.66565Q550.65625 564.4469 550.6406 564.3844Q550.0 564.9938 549.28125 565.3063Q548.5625 565.6188 547.75 565.6188Q546.2969 565.6188 545.46875 564.8375Q544.6406 564.04065 544.6406 562.85315Q544.6406 562.0563 545.0156 561.4469Q545.3906 560.8219 546.0781 560.4938Q546.7656 560.16565 548.0469 559.91565Q549.78125 559.5875 550.4375 559.3063L550.4375 559.0563Q550.4375 558.35315 550.0781 558.0563Q549.7344 557.7438 548.7656 557.7438Q548.1094 557.7438 547.7344 558.0094Q547.3594 558.2594 547.1406 558.91565ZM550.4375 560.91565Q549.96875 561.0719 548.9375 561.29065Q547.90625 561.5094 547.59375 561.72815Q547.1094 562.0719 547.1094 562.60315Q547.1094 563.1188 547.5 563.4938Q547.8906 563.8688 548.4844 563.8688Q549.15625 563.8688 549.75 563.4313Q550.2031 563.10315 550.34375 562.6188Q550.4375 562.29065 550.4375 561.41565L550.4375 560.91565ZM555.2969 565.4L555.2969 552.5094L557.7656 552.5094L557.7656 565.4L555.2969 565.4ZM576.9219 565.4L574.09375 565.4L572.96875 562.47815L567.8281 562.47815L566.7656 565.4L564.0 565.4L569.0156 552.5094L571.7656 552.5094L576.9219 565.4ZM572.1406 560.3063L570.3594 555.525L568.625 560.3063L572.1406 560.3063ZM578.2969 554.8063L578.2969 552.5094L580.7656 552.5094L580.7656 554.8063L578.2969 554.8063ZM578.2969 565.4L578.2969 556.0719L580.7656 556.0719L580.7656 565.4L578.2969 565.4ZM585.65625 565.4L583.1875 565.4L583.1875 556.0719L585.4844 556.0719L585.4844 557.4Q586.0625 556.4469 586.53125 556.15Q587.0156 555.85315 587.6094 555.85315Q588.4531 555.85315 589.2344 556.3219L588.46875 558.47815Q587.84375 558.0719 587.3125 558.0719Q586.7969 558.0719 586.4219 558.35315Q586.0625 558.6344 585.8594 559.3844Q585.65625 560.1344 585.65625 562.5094L585.65625 565.4ZM598.8594 565.4L596.5625 565.4L596.5625 564.025Q595.9844 564.8219 595.2031 565.22815Q594.4375 565.6188 593.6406 565.6188Q592.03125 565.6188 590.875 564.3219Q589.7344 563.025 589.7344 560.6969Q589.7344 558.3219 590.84375 557.0875Q591.96875 555.85315 593.6719 555.85315Q595.2344 555.85315 596.3906 557.15L596.3906 552.5094L598.8594 552.5094L598.8594 565.4ZM592.2656 560.525Q592.2656 562.025 592.6719 562.6969Q593.2656 563.66565 594.34375 563.66565Q595.2031 563.66565 595.7969 562.9469Q596.3906 562.2125 596.3906 560.775Q596.3906 559.16565 595.8125 558.4625Q595.2344 557.7438 594.3281 557.7438Q593.4531 557.7438 592.8594 558.4469Q592.2656 559.1344 592.2656 560.525ZM603.65625 565.4L601.1875 565.4L601.1875 556.0719L603.4844 556.0719L603.4844 557.4Q604.0625 556.4469 604.53125 556.15Q605.0156 555.85315 605.6094 555.85315Q606.4531 555.85315 607.2344 556.3219L606.46875 558.47815Q605.84375 558.0719 605.3125 558.0719Q604.7969 558.0719 604.4219 558.35315Q604.0625 558.6344 603.8594 559.3844Q603.65625 560.1344 603.65625 562.5094L603.65625 565.4ZM607.71875 560.60315Q607.71875 559.3688 608.3281 558.22815Q608.9375 557.0719 610.0469 556.4625Q611.15625 555.85315 612.53125 555.85315Q614.6406 555.85315 616.0 557.22815Q617.3594 558.60315 617.3594 560.7125Q617.3594 562.8219 615.9844 564.22815Q614.625 565.6188 612.5469 565.6188Q611.2656 565.6188 610.09375 565.04065Q608.9375 564.4469 608.3281 563.3375Q607.71875 562.2125 607.71875 560.60315ZM610.25 560.72815Q610.25 562.1188 610.90625 562.8688Q611.5781 563.60315 612.53125 563.60315Q613.5 563.60315 614.15625 562.8688Q614.8125 562.1188 614.8125 560.7125Q614.8125 559.3375 614.15625 558.60315Q613.5 557.8688 612.53125 557.8688Q611.5781 557.8688 610.90625 558.60315Q610.25 559.3375 610.25 560.72815ZM619.21875 556.0719L621.53125 556.0719L621.53125 557.4313Q621.96875 556.72815 622.7344 556.29065Q623.5 555.85315 624.4375 555.85315Q626.0625 555.85315 627.1875 557.1344Q628.3281 558.4 628.3281 560.6813Q628.3281 563.025 627.1875 564.3219Q626.0469 565.6188 624.4219 565.6188Q623.6406 565.6188 623.0156 565.3063Q622.3906 564.9938 621.6875 564.2438L621.6875 568.9469L619.21875 568.9469L619.21875 556.0719ZM621.6719 560.5719Q621.6719 562.15 622.28125 562.9Q622.90625 563.65 623.8125 563.65Q624.6719 563.65 625.2344 562.9625Q625.8125 562.275 625.8125 560.6969Q625.8125 559.22815 625.21875 558.525Q624.6406 557.8063 623.7656 557.8063Q622.8594 557.8063 622.2656 558.5094Q621.6719 559.1969 621.6719 560.5719ZM639.3906 569.1813L637.6875 569.1813Q636.34375 567.16565 635.6406 564.97815Q634.9375 562.775 634.9375 560.72815Q634.9375 558.1969 635.8125 555.9313Q636.5625 553.9625 637.7344 552.29065L639.4219 552.29065Q638.2031 554.9625 637.75 556.8375Q637.3125 558.6969 637.3125 560.79065Q637.3125 562.22815 637.5781 563.7438Q637.84375 565.2438 638.3125 566.6188Q638.6094 567.5094 639.3906 569.1813ZM647.0781 565.4L644.6094 565.4L644.6094 556.0875Q643.2656 557.35315 641.4219 557.9625L641.4219 555.72815Q642.3906 555.4 643.5156 554.525Q644.65625 553.6344 645.0781 552.4625L647.0781 552.4625L647.0781 565.4ZM650.7969 562.0875L653.2656 561.8375Q653.3594 562.66565 653.875 563.15Q654.40625 563.6344 655.0781 563.6344Q655.8594 563.6344 656.3906 563.0094Q656.9219 562.3844 656.9219 561.1188Q656.9219 559.9313 656.3906 559.3375Q655.8594 558.7438 655.0156 558.7438Q653.9531 558.7438 653.1094 559.6813L651.09375 559.4L652.3594 552.6969L658.8906 552.6969L658.8906 555.0094L654.2344 555.0094L653.84375 557.1969Q654.6719 556.775 655.53125 556.775Q657.1875 556.775 658.3281 557.97815Q659.46875 559.16565 659.46875 561.0719Q659.46875 562.66565 658.5469 563.91565Q657.28125 565.6188 655.0469 565.6188Q653.2656 565.6188 652.1406 564.66565Q651.0156 563.6969 650.7969 562.0875ZM661.2969 565.4L661.2969 562.9313L663.7656 562.9313L663.7656 565.4L661.2969 565.4ZM674.1094 563.10315L674.1094 565.4L665.4531 565.4Q665.59375 564.10315 666.2969 562.9469Q667.0 561.775 669.0625 559.8375Q670.7344 558.29065 671.125 557.72815Q671.625 556.97815 671.625 556.22815Q671.625 555.4 671.1719 554.9625Q670.7344 554.5094 669.9531 554.5094Q669.1875 554.5094 668.71875 554.97815Q668.2656 555.4469 668.2031 556.525L665.7344 556.275Q665.9531 554.2438 667.1094 553.35315Q668.28125 552.4625 670.0156 552.4625Q671.9219 552.4625 673.0156 553.4938Q674.1094 554.525 674.1094 556.04065Q674.1094 556.91565 673.7969 557.7125Q673.4844 558.4938 672.8125 559.35315Q672.3594 559.9313 671.1875 561.0094Q670.0156 562.0719 669.7031 562.4313Q669.3906 562.775 669.2031 563.10315L674.1094 563.10315ZM675.7656 554.97815L675.7656 552.6969L684.21875 552.6969L684.21875 554.47815Q683.1719 555.5094 682.0781 557.4469Q681.0 559.3688 680.4375 561.54065Q679.875 563.6969 679.875 565.4L677.5 565.4Q677.5625 562.72815 678.59375 559.9469Q679.6406 557.16565 681.375 554.97815L675.7656 554.97815ZM685.78125 555.6969Q685.78125 553.9625 686.53125 553.1344Q687.2969 552.29065 688.6094 552.29065Q689.9531 552.29065 690.7031 553.1344Q691.46875 553.9625 691.46875 555.6969Q691.46875 557.4313 690.7031 558.275Q689.9531 559.10315 688.6406 559.10315Q687.2969 559.10315 686.53125 558.275Q685.78125 557.4313 685.78125 555.6969ZM687.7031 555.6813Q687.7031 556.9313 688.0 557.3688Q688.21875 557.6813 688.6094 557.6813Q689.0 557.6813 689.21875 557.3688Q689.5 556.9313 689.5 555.6813Q689.5 554.41565 689.21875 553.9938Q689.0 553.6813 688.6094 553.6813Q688.21875 553.6813 688.0 553.9938Q687.7031 554.41565 687.7031 555.6813ZM690.4844 565.9L688.65625 565.9L695.5156 552.29065L697.2969 552.29065L690.4844 565.9ZM694.46875 562.5094Q694.46875 560.775 695.2344 559.9469Q696.0 559.10315 697.3125 559.10315Q698.6406 559.10315 699.3906 559.9469Q700.15625 560.775 700.15625 562.5094Q700.15625 564.2438 699.3906 565.0875Q698.6406 565.91565 697.34375 565.91565Q696.0 565.91565 695.2344 565.0875Q694.46875 564.2438 694.46875 562.5094ZM696.40625 562.4938Q696.40625 563.7594 696.6875 564.1813Q696.90625 564.5094 697.2969 564.5094Q697.6875 564.5094 697.90625 564.1813Q698.1875 563.7594 698.1875 562.4938Q698.1875 561.2438 697.90625 560.8063Q697.6875 560.4938 697.2969 560.4938Q696.90625 560.4938 696.6875 560.8063Q696.40625 561.2438 696.40625 562.4938ZM702.6094 569.1813Q703.34375 567.6188 703.6406 566.775Q703.9375 565.9469 704.1875 564.8688Q704.4375 563.775 704.5625 562.79065Q704.6875 561.8063 704.6875 560.79065Q704.6875 558.6969 704.2344 556.8375Q703.7969 554.9625 702.59375 552.29065L704.2656 552.29065Q705.59375 554.1813 706.3281 556.3063Q707.0625 558.41565 707.0625 560.60315Q707.0625 562.4313 706.4844 564.54065Q705.8281 566.9 704.3125 569.1813L702.6094 569.1813Z" fill-rule="nonzero"/><path fill="#14bf51" d="M97.5 583.9C97.5 587.2137 94.813705 589.9 91.5 589.9C88.186295 589.9 85.5 587.2137 85.5 583.9C85.5 580.5863 88.186295 577.9 91.5 577.9C94.813705 577.9 97.5 580.5863 97.5 583.9Z" fill-rule="nonzero"/><path fill="#ffffff" d="M106.796875 577.5094L111.5625 577.5094Q113.171875 577.5094 114.015625 577.7594Q115.140625 578.0875 115.953125 578.9469Q116.765625 579.8063 117.1875 581.04065Q117.609375 582.275 117.609375 584.0875Q117.609375 585.66565 117.203125 586.8219Q116.71875 588.22815 115.828125 589.10315Q115.15625 589.7594 114.0 590.1344Q113.140625 590.4 111.703125 590.4L106.796875 590.4L106.796875 577.5094ZM109.40625 579.6969L109.40625 588.22815L111.34375 588.22815Q112.4375 588.22815 112.921875 588.10315Q113.546875 587.9469 113.96875 587.5719Q114.390625 587.1969 114.640625 586.3375Q114.90625 585.4625 114.90625 583.9625Q114.90625 582.47815 114.640625 581.6813Q114.390625 580.8688 113.90625 580.4313Q113.4375 579.97815 112.703125 579.8219Q112.15625 579.6969 110.578125 579.6969L109.40625 579.6969ZM131.42188 590.4L128.59375 590.4L127.46875 587.47815L122.328125 587.47815L121.265625 590.4L118.5 590.4L123.515625 577.5094L126.265625 577.5094L131.42188 590.4ZM126.640625 585.3063L124.859375 580.525L123.125 585.3063L126.640625 585.3063ZM132.28125 584.04065Q132.28125 582.0719 132.875 580.72815Q133.3125 579.7438 134.0625 578.9625Q134.82812 578.1813 135.73438 577.8063Q136.9375 577.29065 138.51562 577.29065Q141.35938 577.29065 143.0625 579.0563Q144.78125 580.8219 144.78125 583.97815Q144.78125 587.0875 143.07812 588.85315Q141.39062 590.6188 138.54688 590.6188Q135.67188 590.6188 133.96875 588.8688Q132.28125 587.1188 132.28125 584.04065ZM134.96875 583.9469Q134.96875 586.1344 135.96875 587.275Q136.98438 588.4 138.54688 588.4Q140.09375 588.4 141.09375 587.275Q142.09375 586.15 142.09375 583.91565Q142.09375 581.6969 141.125 580.6188Q140.15625 579.525 138.54688 579.525Q136.9375 579.525 135.95312 580.6344Q134.96875 581.72815 134.96875 583.9469ZM151.51562 586.9625L151.51562 584.4938L156.35938 584.4938L156.35938 586.9625L151.51562 586.9625ZM168.79688 585.66565L168.79688 583.4938L174.40625 583.4938L174.40625 588.6188Q173.59375 589.41565 172.03125 590.025Q170.48438 590.6188 168.90625 590.6188Q166.875 590.6188 165.375 589.775Q163.875 588.91565 163.10938 587.35315Q162.35938 585.775 162.35938 583.91565Q162.35938 581.9 163.20312 580.3375Q164.04688 578.775 165.67188 577.9313Q166.92188 577.29065 168.76562 577.29065Q171.15625 577.29065 172.5 578.3063Q173.85938 579.3063 174.25 581.0875L171.65625 581.5719Q171.39062 580.6188 170.64062 580.0719Q169.89062 579.525 168.76562 579.525Q167.0625 579.525 166.04688 580.60315Q165.04688 581.6813 165.04688 583.8063Q165.04688 586.10315 166.0625 587.2594Q167.07812 588.4 168.73438 588.4Q169.54688 588.4 170.35938 588.0875Q171.1875 587.7594 171.78125 587.29065L171.78125 585.66565L168.79688 585.66565ZM175.625 581.0719L178.25 581.0719L180.48438 587.6969L182.65625 581.0719L185.21875 581.0719L181.92188 590.04065L181.34375 591.6813Q181.01562 592.4938 180.71875 592.91565Q180.42188 593.35315 180.03125 593.6188Q179.65625 593.8844 179.09375 594.025Q178.54688 594.1813 177.84375 594.1813Q177.125 594.1813 176.4375 594.04065L176.21875 592.10315Q176.79688 592.2125 177.26562 592.2125Q178.125 592.2125 178.53125 591.7125Q178.95312 591.2125 179.17188 590.4313L175.625 581.0719ZM190.15625 590.4L187.6875 590.4L187.6875 581.0719L189.98438 581.0719L189.98438 582.4Q190.5625 581.4469 191.03125 581.15Q191.51562 580.85315 192.10938 580.85315Q192.95312 580.85315 193.73438 581.3219L192.96875 583.47815Q192.34375 583.0719 191.8125 583.0719Q191.29688 583.0719 190.92188 583.35315Q190.5625 583.6344 190.35938 584.3844Q190.15625 585.1344 190.15625 587.5094L190.15625 590.4ZM194.21875 585.60315Q194.21875 584.3688 194.82812 583.22815Q195.4375 582.0719 196.54688 581.4625Q197.65625 580.85315 199.03125 580.85315Q201.14062 580.85315 202.5 582.22815Q203.85938 583.60315 203.85938 585.7125Q203.85938 587.8219 202.48438 589.22815Q201.125 590.6188 199.04688 590.6188Q197.76562 590.6188 196.59375 590.04065Q195.4375 589.4469 194.82812 588.3375Q194.21875 587.2125 194.21875 585.60315ZM196.75 585.72815Q196.75 587.1188 197.40625 587.8688Q198.07812 588.60315 199.03125 588.60315Q200.0 588.60315 200.65625 587.8688Q201.3125 587.1188 201.3125 585.7125Q201.3125 584.3375 200.65625 583.60315Q200.0 582.8688 199.03125 582.8688Q198.07812 582.8688 197.40625 583.60315Q196.75 584.3375 196.75 585.72815ZM204.92188 587.7438L207.40625 587.35315Q207.5625 588.0719 208.04688 588.4469Q208.53125 588.8219 209.39062 588.8219Q210.35938 588.8219 210.84375 588.47815Q211.15625 588.22815 211.15625 587.8219Q211.15625 587.54065 210.98438 587.35315Q210.79688 587.1813 210.15625 587.025Q207.17188 586.3688 206.375 585.8219Q205.26562 585.0719 205.26562 583.7125Q205.26562 582.5094 206.21875 581.6813Q207.1875 580.85315 209.1875 580.85315Q211.10938 580.85315 212.03125 581.47815Q212.96875 582.10315 213.32812 583.3219L211.0 583.7594Q210.84375 583.2125 210.42188 582.9313Q210.01562 582.6344 209.23438 582.6344Q208.26562 582.6344 207.84375 582.9Q207.5625 583.10315 207.5625 583.4Q207.5625 583.66565 207.8125 583.85315Q208.14062 584.10315 210.10938 584.5563Q212.07812 584.9938 212.875 585.65Q213.64062 586.3063 213.64062 587.47815Q213.64062 588.7594 212.5625 589.6969Q211.5 590.6188 209.39062 590.6188Q207.48438 590.6188 206.375 589.8375Q205.26562 589.0563 204.92188 587.7438ZM223.9375 583.8219L221.5 584.2594Q221.375 583.54065 220.9375 583.16565Q220.5 582.79065 219.8125 582.79065Q218.89062 582.79065 218.32812 583.4313Q217.78125 584.0719 217.78125 585.5719Q217.78125 587.22815 218.34375 587.91565Q218.90625 588.60315 219.84375 588.60315Q220.54688 588.60315 220.98438 588.1969Q221.4375 587.79065 221.625 586.8219L224.04688 587.22815Q223.67188 588.9 222.59375 589.7594Q221.53125 590.6188 219.73438 590.6188Q217.6875 590.6188 216.46875 589.3219Q215.25 588.025 215.25 585.7438Q215.25 583.4313 216.46875 582.15Q217.6875 580.85315 219.78125 580.85315Q221.48438 580.85315 222.48438 581.5875Q223.48438 582.3219 223.9375 583.8219ZM225.21875 585.60315Q225.21875 584.3688 225.82812 583.22815Q226.4375 582.0719 227.54688 581.4625Q228.65625 580.85315 230.03125 580.85315Q232.14062 580.85315 233.5 582.22815Q234.85938 583.60315 234.85938 585.7125Q234.85938 587.8219 233.48438 589.22815Q232.125 590.6188 230.04688 590.6188Q228.76562 590.6188 227.59375 590.04065Q226.4375 589.4469 225.82812 588.3375Q225.21875 587.2125 225.21875 585.60315ZM227.75 585.72815Q227.75 587.1188 228.40625 587.8688Q229.07812 588.60315 230.03125 588.60315Q231.0 588.60315 231.65625 587.8688Q232.3125 587.1188 232.3125 585.7125Q232.3125 584.3375 231.65625 583.60315Q231.0 582.8688 230.03125 582.8688Q229.07812 582.8688 228.40625 583.60315Q227.75 584.3375 227.75 585.72815ZM236.71875 581.0719L239.03125 581.0719L239.03125 582.4313Q239.46875 581.72815 240.23438 581.29065Q241.0 580.85315 241.9375 580.85315Q243.5625 580.85315 244.6875 582.1344Q245.82812 583.4 245.82812 585.6813Q245.82812 588.025 244.6875 589.3219Q243.54688 590.6188 241.92188 590.6188Q241.14062 590.6188 240.51562 590.3063Q239.89062 589.9938 239.1875 589.2438L239.1875 593.9469L236.71875 593.9469L236.71875 581.0719ZM239.17188 585.5719Q239.17188 587.15 239.78125 587.9Q240.40625 588.65 241.3125 588.65Q242.17188 588.65 242.73438 587.9625Q243.3125 587.275 243.3125 585.6969Q243.3125 584.22815 242.71875 583.525Q242.14062 582.8063 241.26562 582.8063Q240.35938 582.8063 239.76562 583.5094Q239.17188 584.1969 239.17188 585.5719ZM253.20312 587.4313L255.65625 587.8375Q255.1875 589.1969 254.15625 589.91565Q253.14062 590.6188 251.59375 590.6188Q249.15625 590.6188 248.0 589.025Q247.07812 587.7438 247.07812 585.8063Q247.07812 583.47815 248.28125 582.16565Q249.5 580.85315 251.35938 580.85315Q253.4375 580.85315 254.64062 582.22815Q255.84375 583.60315 255.79688 586.4469L249.60938 586.4469Q249.625 587.54065 250.1875 588.15Q250.76562 588.7594 251.625 588.7594Q252.20312 588.7594 252.59375 588.4469Q253.0 588.1344 253.20312 587.4313ZM253.34375 584.9313Q253.3125 583.85315 252.78125 583.3063Q252.25 582.7438 251.5 582.7438Q250.6875 582.7438 250.17188 583.3375Q249.64062 583.91565 249.64062 584.9313L253.34375 584.9313ZM263.82812 590.4L263.82812 577.5094L272.65625 577.5094L272.65625 579.6969L266.42188 579.6969L266.42188 582.7438L271.8125 582.7438L271.8125 584.9313L266.42188 584.9313L266.42188 590.4L263.82812 590.4ZM274.21875 585.60315Q274.21875 584.3688 274.82812 583.22815Q275.4375 582.0719 276.54688 581.4625Q277.65625 580.85315 279.03125 580.85315Q281.14062 580.85315 282.5 582.22815Q283.85938 583.60315 283.85938 585.7125Q283.85938 587.8219 282.48438 589.22815Q281.125 590.6188 279.04688 590.6188Q277.76562 590.6188 276.59375 590.04065Q275.4375 589.4469 274.82812 588.3375Q274.21875 587.2125 274.21875 585.60315ZM276.75 585.72815Q276.75 587.1188 277.40625 587.8688Q278.07812 588.60315 279.03125 588.60315Q280.0 588.60315 280.65625 587.8688Q281.3125 587.1188 281.3125 585.7125Q281.3125 584.3375 280.65625 583.60315Q280.0 582.8688 279.03125 582.8688Q278.07812 582.8688 277.40625 583.60315Q276.75 584.3375 276.75 585.72815ZM291.9375 590.4L291.9375 589.0094Q291.42188 589.7438 290.59375 590.1813Q289.76562 590.6188 288.84375 590.6188Q287.90625 590.6188 287.15625 590.2125Q286.40625 589.79065 286.0625 589.04065Q285.73438 588.29065 285.73438 586.97815L285.73438 581.0719L288.20312 581.0719L288.20312 585.35315Q288.20312 587.3219 288.34375 587.775Q288.48438 588.2125 288.84375 588.47815Q289.20312 588.72815 289.75 588.72815Q290.39062 588.72815 290.89062 588.3844Q291.39062 588.04065 291.57812 587.525Q291.76562 587.0094 291.76562 585.0094L291.76562 581.0719L294.23438 581.0719L294.23438 590.4L291.9375 590.4ZM305.28125 590.4L302.8125 590.4L302.8125 585.6344Q302.8125 584.1188 302.65625 583.6813Q302.5 583.2438 302.14062 582.9938Q301.78125 582.7438 301.28125 582.7438Q300.64062 582.7438 300.125 583.10315Q299.625 583.4469 299.4375 584.025Q299.25 584.60315 299.25 586.16565L299.25 590.4L296.78125 590.4L296.78125 581.0719L299.0625 581.0719L299.0625 582.4313Q300.29688 580.85315 302.14062 580.85315Q302.96875 580.85315 303.64062 581.15Q304.3125 581.4469 304.65625 581.9Q305.01562 582.35315 305.14062 582.9469Q305.28125 583.525 305.28125 584.60315L305.28125 590.4ZM316.35938 590.4L314.0625 590.4L314.0625 589.025Q313.48438 589.8219 312.70312 590.22815Q311.9375 590.6188 311.14062 590.6188Q309.53125 590.6188 308.375 589.3219Q307.23438 588.025 307.23438 585.6969Q307.23438 583.3219 308.34375 582.0875Q309.46875 580.85315 311.17188 580.85315Q312.73438 580.85315 313.89062 582.15L313.89062 577.5094L316.35938 577.5094L316.35938 590.4ZM309.76562 585.525Q309.76562 587.025 310.17188 587.6969Q310.76562 588.66565 311.84375 588.66565Q312.70312 588.66565 313.29688 587.9469Q313.89062 587.2125 313.89062 585.775Q313.89062 584.16565 313.3125 583.4625Q312.73438 582.7438 311.82812 582.7438Q310.95312 582.7438 310.35938 583.4469Q309.76562 584.1344 309.76562 585.525ZM320.64062 583.91565L318.39062 583.5094Q318.78125 582.15 319.70312 581.5094Q320.625 580.85315 322.4375 580.85315Q324.09375 580.85315 324.89062 581.2438Q325.70312 581.6344 326.03125 582.2438Q326.375 582.8375 326.375 584.4469L326.34375 587.3375Q326.34375 588.5563 326.45312 589.15Q326.57812 589.72815 326.90625 590.4L324.46875 590.4Q324.35938 590.15 324.21875 589.66565Q324.15625 589.4469 324.14062 589.3844Q323.5 589.9938 322.78125 590.3063Q322.0625 590.6188 321.25 590.6188Q319.79688 590.6188 318.96875 589.8375Q318.14062 589.04065 318.14062 587.85315Q318.14062 587.0563 318.51562 586.4469Q318.89062 585.8219 319.57812 585.4938Q320.26562 585.16565 321.54688 584.91565Q323.28125 584.5875 323.9375 584.3063L323.9375 584.0563Q323.9375 583.35315 323.57812 583.0563Q323.23438 582.7438 322.26562 582.7438Q321.60938 582.7438 321.23438 583.0094Q320.85938 583.2594 320.64062 583.91565ZM323.9375 585.91565Q323.46875 586.0719 322.4375 586.29065Q321.40625 586.5094 321.09375 586.72815Q320.60938 587.0719 320.60938 587.60315Q320.60938 588.1188 321.0 588.4938Q321.39062 588.8688 321.98438 588.8688Q322.65625 588.8688 323.25 588.4313Q323.70312 588.10315 323.84375 587.6188Q323.9375 587.29065 323.9375 586.41565L323.9375 585.91565ZM333.07812 581.0719L333.07812 583.04065L331.39062 583.04065L331.39062 586.79065Q331.39062 587.9313 331.4375 588.1344Q331.48438 588.3219 331.65625 588.4469Q331.82812 588.5563 332.07812 588.5563Q332.40625 588.5563 333.0625 588.3219L333.28125 590.2438Q332.40625 590.6188 331.32812 590.6188Q330.65625 590.6188 330.10938 590.4Q329.57812 590.16565 329.32812 589.8063Q329.07812 589.4469 328.98438 588.8375Q328.90625 588.41565 328.90625 587.10315L328.90625 583.04065L327.76562 583.04065L327.76562 581.0719L328.90625 581.0719L328.90625 579.2125L331.39062 577.775L331.39062 581.0719L333.07812 581.0719ZM334.79688 579.8063L334.79688 577.5094L337.26562 577.5094L337.26562 579.8063L334.79688 579.8063ZM334.79688 590.4L334.79688 581.0719L337.26562 581.0719L337.26562 590.4L334.79688 590.4ZM339.21875 585.60315Q339.21875 584.3688 339.82812 583.22815Q340.4375 582.0719 341.54688 581.4625Q342.65625 580.85315 344.03125 580.85315Q346.14062 580.85315 347.5 582.22815Q348.85938 583.60315 348.85938 585.7125Q348.85938 587.8219 347.48438 589.22815Q346.125 590.6188 344.04688 590.6188Q342.76562 590.6188 341.59375 590.04065Q340.4375 589.4469 339.82812 588.3375Q339.21875 587.2125 339.21875 585.60315ZM341.75 585.72815Q341.75 587.1188 342.40625 587.8688Q343.07812 588.60315 344.03125 588.60315Q345.0 588.60315 345.65625 587.8688Q346.3125 587.1188 346.3125 585.7125Q346.3125 584.3375 345.65625 583.60315Q345.0 582.8688 344.03125 582.8688Q343.07812 582.8688 342.40625 583.60315Q341.75 584.3375 341.75 585.72815ZM359.28125 590.4L356.8125 590.4L356.8125 585.6344Q356.8125 584.1188 356.65625 583.6813Q356.5 583.2438 356.14062 582.9938Q355.78125 582.7438 355.28125 582.7438Q354.64062 582.7438 354.125 583.10315Q353.625 583.4469 353.4375 584.025Q353.25 584.60315 353.25 586.16565L353.25 590.4L350.78125 590.4L350.78125 581.0719L353.0625 581.0719L353.0625 582.4313Q354.29688 580.85315 356.14062 580.85315Q356.96875 580.85315 357.64062 581.15Q358.3125 581.4469 358.65625 581.9Q359.01562 582.35315 359.14062 582.9469Q359.28125 583.525 359.28125 584.60315L359.28125 590.4ZM370.89062 594.1813L369.1875 594.1813Q367.84375 592.16565 367.14062 589.97815Q366.4375 587.775 366.4375 585.72815Q366.4375 583.1969 367.3125 580.9313Q368.0625 578.9625 369.23438 577.29065L370.92188 577.29065Q369.70312 579.9625 369.25 581.8375Q368.8125 583.6969 368.8125 585.79065Q368.8125 587.22815 369.07812 588.7438Q369.34375 590.2438 369.8125 591.6188Q370.10938 592.5094 370.89062 594.1813ZM378.57812 590.4L376.10938 590.4L376.10938 581.0875Q374.76562 582.35315 372.92188 582.9625L372.92188 580.72815Q373.89062 580.4 375.01562 579.525Q376.15625 578.6344 376.57812 577.4625L378.57812 577.4625L378.57812 590.4ZM382.29688 587.0875L384.76562 586.8375Q384.85938 587.66565 385.375 588.15Q385.90625 588.6344 386.57812 588.6344Q387.35938 588.6344 387.89062 588.0094Q388.42188 587.3844 388.42188 586.1188Q388.42188 584.9313 387.89062 584.3375Q387.35938 583.7438 386.51562 583.7438Q385.45312 583.7438 384.60938 584.6813L382.59375 584.4L383.85938 577.6969L390.39062 577.6969L390.39062 580.0094L385.73438 580.0094L385.34375 582.1969Q386.17188 581.775 387.03125 581.775Q388.6875 581.775 389.82812 582.97815Q390.96875 584.16565 390.96875 586.0719Q390.96875 587.66565 390.04688 588.91565Q388.78125 590.6188 386.54688 590.6188Q384.76562 590.6188 383.64062 589.66565Q382.51562 588.6969 382.29688 587.0875ZM392.79688 590.4L392.79688 587.9313L395.26562 587.9313L395.26562 590.4L392.79688 590.4ZM401.4375 577.4625Q403.3125 577.4625 404.35938 578.79065Q405.625 580.3844 405.625 584.04065Q405.625 587.6969 404.35938 589.3063Q403.3125 590.6188 401.4375 590.6188Q399.5625 590.6188 398.40625 589.1813Q397.25 587.72815 397.25 584.025Q397.25 580.3844 398.51562 578.775Q399.5625 577.4625 401.4375 577.4625ZM401.4375 579.5094Q400.98438 579.5094 400.625 579.8063Q400.28125 580.0875 400.09375 580.8219Q399.84375 581.775 399.84375 584.04065Q399.84375 586.3063 400.0625 587.16565Q400.29688 588.0094 400.64062 588.29065Q400.98438 588.5719 401.4375 588.5719Q401.89062 588.5719 402.23438 588.29065Q402.59375 587.9938 402.78125 587.2594Q403.04688 586.3063 403.04688 584.04065Q403.04688 581.775 402.8125 580.9313Q402.57812 580.0875 402.23438 579.8063Q401.89062 579.5094 401.4375 579.5094ZM411.4375 577.4625Q413.3125 577.4625 414.35938 578.79065Q415.625 580.3844 415.625 584.04065Q415.625 587.6969 414.35938 589.3063Q413.3125 590.6188 411.4375 590.6188Q409.5625 590.6188 408.40625 589.1813Q407.25 587.72815 407.25 584.025Q407.25 580.3844 408.51562 578.775Q409.5625 577.4625 411.4375 577.4625ZM411.4375 579.5094Q410.98438 579.5094 410.625 579.8063Q410.28125 580.0875 410.09375 580.8219Q409.84375 581.775 409.84375 584.04065Q409.84375 586.3063 410.0625 587.16565Q410.29688 588.0094 410.64062 588.29065Q410.98438 588.5719 411.4375 588.5719Q411.89062 588.5719 412.23438 588.29065Q412.59375 587.9938 412.78125 587.2594Q413.04688 586.3063 413.04688 584.04065Q413.04688 581.775 412.8125 580.9313Q412.57812 580.0875 412.23438 579.8063Q411.89062 579.5094 411.4375 579.5094ZM417.28125 580.6969Q417.28125 578.9625 418.03125 578.1344Q418.79688 577.29065 420.10938 577.29065Q421.45312 577.29065 422.20312 578.1344Q422.96875 578.9625 422.96875 580.6969Q422.96875 582.4313 422.20312 583.275Q421.45312 584.10315 420.14062 584.10315Q418.79688 584.10315 418.03125 583.275Q417.28125 582.4313 417.28125 580.6969ZM419.20312 580.6813Q419.20312 581.9313 419.5 582.3688Q419.71875 582.6813 420.10938 582.6813Q420.5 582.6813 420.71875 582.3688Q421.0 581.9313 421.0 580.6813Q421.0 579.41565 420.71875 578.9938Q420.5 578.6813 420.10938 578.6813Q419.71875 578.6813 419.5 578.9938Q419.20312 579.41565 419.20312 580.6813ZM421.98438 590.9L420.15625 590.9L427.01562 577.29065L428.79688 577.29065L421.98438 590.9ZM425.96875 587.5094Q425.96875 585.775 426.73438 584.9469Q427.5 584.10315 428.8125 584.10315Q430.14062 584.10315 430.89062 584.9469Q431.65625 585.775 431.65625 587.5094Q431.65625 589.2438 430.89062 590.0875Q430.14062 590.91565 428.84375 590.91565Q427.5 590.91565 426.73438 590.0875Q425.96875 589.2438 425.96875 587.5094ZM427.90625 587.4938Q427.90625 588.7594 428.1875 589.1813Q428.40625 589.5094 428.79688 589.5094Q429.1875 589.5094 429.40625 589.1813Q429.6875 588.7594 429.6875 587.4938Q429.6875 586.2438 429.40625 585.8063Q429.1875 585.4938 428.79688 585.4938Q428.40625 585.4938 428.1875 585.8063Q427.90625 586.2438 427.90625 587.4938ZM434.10938 594.1813Q434.84375 592.6188 435.14062 591.775Q435.4375 590.9469 435.6875 589.8688Q435.9375 588.775 436.0625 587.79065Q436.1875 586.8063 436.1875 585.79065Q436.1875 583.6969 435.73438 581.8375Q435.29688 579.9625 434.09375 577.29065L435.76562 577.29065Q437.09375 579.1813 437.82812 581.3063Q438.5625 583.41565 438.5625 585.60315Q438.5625 587.4313 437.98438 589.54065Q437.32812 591.9 435.8125 594.1813L434.10938 594.1813Z" fill-rule="nonzero"/><path fill="#ffb4ff" d="M467.5 583.9C467.5 587.2137 464.81372 589.9 461.5 589.9C458.18628 589.9 455.5 587.2137 455.5 583.9C455.5 580.5863 458.18628 577.9 461.5 577.9C464.81372 577.9 467.5 580.5863 467.5 583.9Z" fill-rule="nonzero"/><path fill="#ffffff" d="M476.79688 577.5094L481.5625 577.5094Q483.17188 577.5094 484.01562 577.7594Q485.14062 578.0875 485.95312 578.9469Q486.76562 579.8063 487.1875 581.04065Q487.60938 582.275 487.60938 584.0875Q487.60938 585.66565 487.20312 586.8219Q486.71875 588.22815 485.82812 589.10315Q485.15625 589.7594 484.0 590.1344Q483.14062 590.4 481.70312 590.4L476.79688 590.4L476.79688 577.5094ZM479.40625 579.6969L479.40625 588.22815L481.34375 588.22815Q482.4375 588.22815 482.92188 588.10315Q483.54688 587.9469 483.96875 587.5719Q484.39062 587.1969 484.64062 586.3375Q484.90625 585.4625 484.90625 583.9625Q484.90625 582.47815 484.64062 581.6813Q484.39062 580.8688 483.90625 580.4313Q483.4375 579.97815 482.70312 579.8219Q482.15625 579.6969 480.57812 579.6969L479.40625 579.6969ZM501.42188 590.4L498.59375 590.4L497.46875 587.47815L492.32812 587.47815L491.26562 590.4L488.5 590.4L493.51562 577.5094L496.26562 577.5094L501.42188 590.4ZM496.64062 585.3063L494.85938 580.525L493.125 585.3063L496.64062 585.3063ZM502.28125 584.04065Q502.28125 582.0719 502.875 580.72815Q503.3125 579.7438 504.0625 578.9625Q504.82812 578.1813 505.73438 577.8063Q506.9375 577.29065 508.51562 577.29065Q511.35938 577.29065 513.0625 579.0563Q514.78125 580.8219 514.78125 583.97815Q514.78125 587.0875 513.0781 588.85315Q511.39062 590.6188 508.54688 590.6188Q505.67188 590.6188 503.96875 588.8688Q502.28125 587.1188 502.28125 584.04065ZM504.96875 583.9469Q504.96875 586.1344 505.96875 587.275Q506.98438 588.4 508.54688 588.4Q510.09375 588.4 511.09375 587.275Q512.09375 586.15 512.09375 583.91565Q512.09375 581.6969 511.125 580.6188Q510.15625 579.525 508.54688 579.525Q506.9375 579.525 505.95312 580.6344Q504.96875 581.72815 504.96875 583.9469ZM521.5156 586.9625L521.5156 584.4938L526.3594 584.4938L526.3594 586.9625L521.5156 586.9625ZM535.7031 590.4L535.7031 579.6969L531.8906 579.6969L531.8906 577.5094L542.125 577.5094L542.125 579.6969L538.3125 579.6969L538.3125 590.4L535.7031 590.4ZM546.15625 590.4L543.6875 590.4L543.6875 581.0719L545.9844 581.0719L545.9844 582.4Q546.5625 581.4469 547.03125 581.15Q547.5156 580.85315 548.1094 580.85315Q548.9531 580.85315 549.7344 581.3219L548.96875 583.47815Q548.34375 583.0719 547.8125 583.0719Q547.2969 583.0719 546.9219 583.35315Q546.5625 583.6344 546.3594 584.3844Q546.15625 585.1344 546.15625 587.5094L546.15625 590.4ZM556.2031 587.4313L558.65625 587.8375Q558.1875 589.1969 557.15625 589.91565Q556.1406 590.6188 554.59375 590.6188Q552.15625 590.6188 551.0 589.025Q550.0781 587.7438 550.0781 585.8063Q550.0781 583.47815 551.28125 582.16565Q552.5 580.85315 554.3594 580.85315Q556.4375 580.85315 557.6406 582.22815Q558.84375 583.60315 558.7969 586.4469L552.6094 586.4469Q552.625 587.54065 553.1875 588.15Q553.7656 588.7594 554.625 588.7594Q555.2031 588.7594 555.59375 588.4469Q556.0 588.1344 556.2031 587.4313ZM556.34375 584.9313Q556.3125 583.85315 555.78125 583.3063Q555.25 582.7438 554.5 582.7438Q553.6875 582.7438 553.1719 583.3375Q552.6406 583.91565 552.6406 584.9313L556.34375 584.9313ZM563.6406 583.91565L561.3906 583.5094Q561.78125 582.15 562.7031 581.5094Q563.625 580.85315 565.4375 580.85315Q567.09375 580.85315 567.8906 581.2438Q568.7031 581.6344 569.03125 582.2438Q569.375 582.8375 569.375 584.4469L569.34375 587.3375Q569.34375 588.5563 569.4531 589.15Q569.5781 589.72815 569.90625 590.4L567.46875 590.4Q567.3594 590.15 567.21875 589.66565Q567.15625 589.4469 567.1406 589.3844Q566.5 589.9938 565.78125 590.3063Q565.0625 590.6188 564.25 590.6188Q562.7969 590.6188 561.96875 589.8375Q561.1406 589.04065 561.1406 587.85315Q561.1406 587.0563 561.5156 586.4469Q561.8906 585.8219 562.5781 585.4938Q563.2656 585.16565 564.5469 584.91565Q566.28125 584.5875 566.9375 584.3063L566.9375 584.0563Q566.9375 583.35315 566.5781 583.0563Q566.2344 582.7438 565.2656 582.7438Q564.6094 582.7438 564.2344 583.0094Q563.8594 583.2594 563.6406 583.91565ZM566.9375 585.91565Q566.46875 586.0719 565.4375 586.29065Q564.40625 586.5094 564.09375 586.72815Q563.6094 587.0719 563.6094 587.60315Q563.6094 588.1188 564.0 588.4938Q564.3906 588.8688 564.9844 588.8688Q565.65625 588.8688 566.25 588.4313Q566.7031 588.10315 566.84375 587.6188Q566.9375 587.29065 566.9375 586.41565L566.9375 585.91565ZM570.9219 587.7438L573.40625 587.35315Q573.5625 588.0719 574.0469 588.4469Q574.53125 588.8219 575.3906 588.8219Q576.3594 588.8219 576.84375 588.47815Q577.15625 588.22815 577.15625 587.8219Q577.15625 587.54065 576.9844 587.35315Q576.7969 587.1813 576.15625 587.025Q573.1719 586.3688 572.375 585.8219Q571.2656 585.0719 571.2656 583.7125Q571.2656 582.5094 572.21875 581.6813Q573.1875 580.85315 575.1875 580.85315Q577.1094 580.85315 578.03125 581.47815Q578.96875 582.10315 579.3281 583.3219L577.0 583.7594Q576.84375 583.2125 576.4219 582.9313Q576.0156 582.6344 575.2344 582.6344Q574.2656 582.6344 573.84375 582.9Q573.5625 583.10315 573.5625 583.4Q573.5625 583.66565 573.8125 583.85315Q574.1406 584.10315 576.1094 584.5563Q578.0781 584.9938 578.875 585.65Q579.6406 586.3063 579.6406 587.47815Q579.6406 588.7594 578.5625 589.6969Q577.5 590.6188 575.3906 590.6188Q573.4844 590.6188 572.375 589.8375Q571.2656 589.0563 570.9219 587.7438ZM587.9375 590.4L587.9375 589.0094Q587.4219 589.7438 586.59375 590.1813Q585.7656 590.6188 584.84375 590.6188Q583.90625 590.6188 583.15625 590.2125Q582.40625 589.79065 582.0625 589.04065Q581.7344 588.29065 581.7344 586.97815L581.7344 581.0719L584.2031 581.0719L584.2031 585.35315Q584.2031 587.3219 584.34375 587.775Q584.4844 588.2125 584.84375 588.47815Q585.2031 588.72815 585.75 588.72815Q586.3906 588.72815 586.8906 588.3844Q587.3906 588.04065 587.5781 587.525Q587.7656 587.0094 587.7656 585.0094L587.7656 581.0719L590.2344 581.0719L590.2344 590.4L587.9375 590.4ZM595.15625 590.4L592.6875 590.4L592.6875 581.0719L594.9844 581.0719L594.9844 582.4Q595.5625 581.4469 596.03125 581.15Q596.5156 580.85315 597.1094 580.85315Q597.9531 580.85315 598.7344 581.3219L597.96875 583.47815Q597.34375 583.0719 596.8125 583.0719Q596.2969 583.0719 595.9219 583.35315Q595.5625 583.6344 595.3594 584.3844Q595.15625 585.1344 595.15625 587.5094L595.15625 590.4ZM598.625 581.0719L601.25 581.0719L603.4844 587.6969L605.65625 581.0719L608.21875 581.0719L604.9219 590.04065L604.34375 591.6813Q604.0156 592.4938 603.71875 592.91565Q603.4219 593.35315 603.03125 593.6188Q602.65625 593.8844 602.09375 594.025Q601.5469 594.1813 600.84375 594.1813Q600.125 594.1813 599.4375 594.04065L599.21875 592.10315Q599.7969 592.2125 600.2656 592.2125Q601.125 592.2125 601.53125 591.7125Q601.9531 591.2125 602.1719 590.4313L598.625 581.0719ZM619.8906 594.1813L618.1875 594.1813Q616.84375 592.16565 616.1406 589.97815Q615.4375 587.775 615.4375 585.72815Q615.4375 583.1969 616.3125 580.9313Q617.0625 578.9625 618.2344 577.29065L619.9219 577.29065Q618.7031 579.9625 618.25 581.8375Q617.8125 583.6969 617.8125 585.79065Q617.8125 587.22815 618.0781 588.7438Q618.34375 590.2438 618.8125 591.6188Q619.1094 592.5094 619.8906 594.1813ZM621.1719 586.97815L623.5625 586.6969Q623.6875 587.60315 624.1875 588.0875Q624.6875 588.5719 625.3906 588.5719Q626.15625 588.5719 626.6719 587.9938Q627.2031 587.41565 627.2031 586.4313Q627.2031 585.4938 626.7031 584.9469Q626.2031 584.4 625.4844 584.4Q625.0156 584.4 624.34375 584.5875L624.625 582.5719Q625.625 582.60315 626.1406 582.15Q626.6719 581.6813 626.6719 580.91565Q626.6719 580.2594 626.28125 579.8844Q625.90625 579.4938 625.2656 579.4938Q624.625 579.4938 624.1719 579.9313Q623.7344 580.3688 623.6406 581.2125L621.3594 580.8219Q621.59375 579.66565 622.0781 578.9625Q622.5625 578.2594 623.40625 577.8688Q624.2656 577.4625 625.3281 577.4625Q627.15625 577.4625 628.25 578.6188Q629.15625 579.5719 629.15625 580.7594Q629.15625 582.4625 627.2969 583.47815Q628.40625 583.7125 629.0625 584.54065Q629.7344 585.3688 629.7344 586.525Q629.7344 588.22815 628.5 589.4313Q627.2656 590.6188 625.40625 590.6188Q623.6719 590.6188 622.5156 589.6188Q621.3594 588.60315 621.1719 586.97815ZM639.6094 588.10315L639.6094 590.4L630.9531 590.4Q631.09375 589.10315 631.7969 587.9469Q632.5 586.775 634.5625 584.8375Q636.2344 583.29065 636.625 582.72815Q637.125 581.97815 637.125 581.22815Q637.125 580.4 636.6719 579.9625Q636.2344 579.5094 635.4531 579.5094Q634.6875 579.5094 634.21875 579.97815Q633.7656 580.4469 633.7031 581.525L631.2344 581.275Q631.4531 579.2438 632.6094 578.35315Q633.78125 577.4625 635.5156 577.4625Q637.4219 577.4625 638.5156 578.4938Q639.6094 579.525 639.6094 581.04065Q639.6094 581.91565 639.2969 582.7125Q638.9844 583.4938 638.3125 584.35315Q637.8594 584.9313 636.6875 586.0094Q635.5156 587.0719 635.2031 587.4313Q634.8906 587.775 634.7031 588.10315L639.6094 588.10315ZM641.7969 590.4L641.7969 587.9313L644.2656 587.9313L644.2656 590.4L641.7969 590.4ZM654.6094 588.10315L654.6094 590.4L645.9531 590.4Q646.09375 589.10315 646.7969 587.9469Q647.5 586.775 649.5625 584.8375Q651.2344 583.29065 651.625 582.72815Q652.125 581.97815 652.125 581.22815Q652.125 580.4 651.6719 579.9625Q651.2344 579.5094 650.4531 579.5094Q649.6875 579.5094 649.21875 579.97815Q648.7656 580.4469 648.7031 581.525L646.2344 581.275Q646.4531 579.2438 647.6094 578.35315Q648.78125 577.4625 650.5156 577.4625Q652.4219 577.4625 653.5156 578.4938Q654.6094 579.525 654.6094 581.04065Q654.6094 581.91565 654.2969 582.7125Q653.9844 583.4938 653.3125 584.35315Q652.8594 584.9313 651.6875 586.0094Q650.5156 587.0719 650.2031 587.4313Q649.8906 587.775 649.7031 588.10315L654.6094 588.10315ZM656.3125 587.41565L658.7031 587.15Q658.7969 587.8844 659.15625 588.2438Q659.53125 588.5875 660.1406 588.5875Q660.90625 588.5875 661.4375 587.8844Q661.9844 587.1813 662.125 584.9625Q661.2031 586.0563 659.7969 586.0563Q658.28125 586.0563 657.1719 584.8844Q656.0781 583.6969 656.0781 581.8219Q656.0781 579.8688 657.2344 578.66565Q658.40625 577.4625 660.2031 577.4625Q662.15625 577.4625 663.40625 578.97815Q664.6719 580.4938 664.6719 583.9625Q664.6719 587.4938 663.3594 589.0719Q662.0625 590.6344 659.9531 590.6344Q658.4375 590.6344 657.5 589.8375Q656.5781 589.025 656.3125 587.41565ZM661.90625 582.025Q661.90625 580.8219 661.3594 580.16565Q660.8125 579.5094 660.09375 579.5094Q659.40625 579.5094 658.9531 580.0563Q658.5 580.5875 658.5 581.8219Q658.5 583.0719 658.9844 583.66565Q659.4844 584.2438 660.21875 584.2438Q660.9375 584.2438 661.4219 583.6813Q661.90625 583.1188 661.90625 582.025ZM666.28125 580.6969Q666.28125 578.9625 667.03125 578.1344Q667.7969 577.29065 669.1094 577.29065Q670.4531 577.29065 671.2031 578.1344Q671.96875 578.9625 671.96875 580.6969Q671.96875 582.4313 671.2031 583.275Q670.4531 584.10315 669.1406 584.10315Q667.7969 584.10315 667.03125 583.275Q666.28125 582.4313 666.28125 580.6969ZM668.2031 580.6813Q668.2031 581.9313 668.5 582.3688Q668.71875 582.6813 669.1094 582.6813Q669.5 582.6813 669.71875 582.3688Q670.0 581.9313 670.0 580.6813Q670.0 579.41565 669.71875 578.9938Q669.5 578.6813 669.1094 578.6813Q668.71875 578.6813 668.5 578.9938Q668.2031 579.41565 668.2031 580.6813ZM670.9844 590.9L669.15625 590.9L676.0156 577.29065L677.7969 577.29065L670.9844 590.9ZM674.96875 587.5094Q674.96875 585.775 675.7344 584.9469Q676.5 584.10315 677.8125 584.10315Q679.1406 584.10315 679.8906 584.9469Q680.65625 585.775 680.65625 587.5094Q680.65625 589.2438 679.8906 590.0875Q679.1406 590.91565 677.84375 590.91565Q676.5 590.91565 675.7344 590.0875Q674.96875 589.2438 674.96875 587.5094ZM676.90625 587.4938Q676.90625 588.7594 677.1875 589.1813Q677.40625 589.5094 677.7969 589.5094Q678.1875 589.5094 678.40625 589.1813Q678.6875 588.7594 678.6875 587.4938Q678.6875 586.2438 678.40625 585.8063Q678.1875 585.4938 677.7969 585.4938Q677.40625 585.4938 677.1875 585.8063Q676.90625 586.2438 676.90625 587.4938ZM683.1094 594.1813Q683.84375 592.6188 684.1406 591.775Q684.4375 590.9469 684.6875 589.8688Q684.9375 588.775 685.0625 587.79065Q685.1875 586.8063 685.1875 585.79065Q685.1875 583.6969 684.7344 581.8375Q684.2969 579.9625 683.09375 577.29065L684.7656 577.29065Q686.09375 579.1813 686.8281 581.3063Q687.5625 583.41565 687.5625 585.60315Q687.5625 587.4313 686.9844 589.54065Q686.3281 591.9 684.8125 594.1813L683.1094 594.1813Z" fill-rule="nonzero"/><path fill="#1470e8" d="M133.5 608.9C133.5 612.2137 130.8137 614.9 127.5 614.9C124.186295 614.9 121.5 612.2137 121.5 608.9C121.5 605.5863 124.186295 602.9 127.5 602.9C130.8137 602.9 133.5 605.5863 133.5 608.9Z" fill-rule="nonzero"/><path fill="#ffffff" d="M142.82812 615.4L142.82812 602.5094L151.65625 602.5094L151.65625 604.6969L145.42188 604.6969L145.42188 607.7438L150.8125 607.7438L150.8125 609.9313L145.42188 609.9313L145.42188 615.4L142.82812 615.4ZM156.70312 615.4L156.70312 604.6969L152.89062 604.6969L152.89062 602.5094L163.125 602.5094L163.125 604.6969L159.3125 604.6969L159.3125 615.4L156.70312 615.4ZM164.875 615.4L164.875 602.6188L167.48438 602.6188L167.48438 613.22815L173.95312 613.22815L173.95312 615.4L164.875 615.4ZM180.875 615.4L180.875 602.6188L183.48438 602.6188L183.48438 613.22815L189.95312 613.22815L189.95312 615.4L180.875 615.4ZM193.64062 608.91565L191.39062 608.5094Q191.78125 607.15 192.70312 606.5094Q193.625 605.85315 195.4375 605.85315Q197.09375 605.85315 197.89062 606.2438Q198.70312 606.6344 199.03125 607.2438Q199.375 607.8375 199.375 609.4469L199.34375 612.3375Q199.34375 613.5563 199.45312 614.15Q199.57812 614.72815 199.90625 615.4L197.46875 615.4Q197.35938 615.15 197.21875 614.66565Q197.15625 614.4469 197.14062 614.3844Q196.5 614.9938 195.78125 615.3063Q195.0625 615.6188 194.25 615.6188Q192.79688 615.6188 191.96875 614.8375Q191.14062 614.04065 191.14062 612.85315Q191.14062 612.0563 191.51562 611.4469Q191.89062 610.8219 192.57812 610.4938Q193.26562 610.16565 194.54688 609.91565Q196.28125 609.5875 196.9375 609.3063L196.9375 609.0563Q196.9375 608.35315 196.57812 608.0563Q196.23438 607.7438 195.26562 607.7438Q194.60938 607.7438 194.23438 608.0094Q193.85938 608.2594 193.64062 608.91565ZM196.9375 610.91565Q196.46875 611.0719 195.4375 611.29065Q194.40625 611.5094 194.09375 611.72815Q193.60938 612.0719 193.60938 612.60315Q193.60938 613.1188 194.0 613.4938Q194.39062 613.8688 194.98438 613.8688Q195.65625 613.8688 196.25 613.4313Q196.70312 613.10315 196.84375 612.6188Q196.9375 612.29065 196.9375 611.41565L196.9375 610.91565ZM201.6875 615.4L201.6875 602.5094L204.15625 602.5094L204.15625 607.15Q205.29688 605.85315 206.85938 605.85315Q208.5625 605.85315 209.67188 607.0875Q210.79688 608.3219 210.79688 610.6344Q210.79688 613.025 209.65625 614.3219Q208.53125 615.6188 206.90625 615.6188Q206.09375 615.6188 205.3125 615.2125Q204.54688 614.8063 203.98438 614.025L203.98438 615.4L201.6875 615.4ZM204.14062 610.525Q204.14062 611.97815 204.59375 612.6813Q205.23438 613.66565 206.29688 613.66565Q207.125 613.66565 207.6875 612.9625Q208.26562 612.2594 208.26562 610.7594Q208.26562 609.16565 207.6875 608.4625Q207.10938 607.7438 206.20312 607.7438Q205.3125 607.7438 204.71875 608.4313Q204.14062 609.1188 204.14062 610.525ZM211.92188 612.7438L214.40625 612.35315Q214.5625 613.0719 215.04688 613.4469Q215.53125 613.8219 216.39062 613.8219Q217.35938 613.8219 217.84375 613.47815Q218.15625 613.22815 218.15625 612.8219Q218.15625 612.54065 217.98438 612.35315Q217.79688 612.1813 217.15625 612.025Q214.17188 611.3688 213.375 610.8219Q212.26562 610.0719 212.26562 608.7125Q212.26562 607.5094 213.21875 606.6813Q214.1875 605.85315 216.1875 605.85315Q218.10938 605.85315 219.03125 606.47815Q219.96875 607.10315 220.32812 608.3219L218.0 608.7594Q217.84375 608.2125 217.42188 607.9313Q217.01562 607.6344 216.23438 607.6344Q215.26562 607.6344 214.84375 607.9Q214.5625 608.10315 214.5625 608.4Q214.5625 608.66565 214.8125 608.85315Q215.14062 609.10315 217.10938 609.5563Q219.07812 609.9938 219.875 610.65Q220.64062 611.3063 220.64062 612.47815Q220.64062 613.7594 219.5625 614.6969Q218.5 615.6188 216.39062 615.6188Q214.48438 615.6188 213.375 614.8375Q212.26562 614.0563 211.92188 612.7438ZM227.51562 611.9625L227.51562 609.4938L232.35938 609.4938L232.35938 611.9625L227.51562 611.9625ZM238.15625 611.2125L240.6875 610.9625Q240.90625 612.22815 241.60938 612.8375Q242.3125 613.4313 243.5 613.4313Q244.75 613.4313 245.39062 612.9Q246.03125 612.3688 246.03125 611.65Q246.03125 611.1969 245.75 610.8844Q245.48438 610.5563 244.82812 610.3219Q244.35938 610.16565 242.73438 609.7594Q240.64062 609.2438 239.79688 608.47815Q238.60938 607.41565 238.60938 605.8844Q238.60938 604.9 239.17188 604.0563Q239.73438 603.1969 240.78125 602.7438Q241.82812 602.29065 243.3125 602.29065Q245.75 602.29065 246.96875 603.35315Q248.20312 604.41565 248.26562 606.1969L245.65625 606.3063Q245.48438 605.3219 244.9375 604.8844Q244.39062 604.4469 243.29688 604.4469Q242.15625 604.4469 241.51562 604.91565Q241.10938 605.2125 241.10938 605.7125Q241.10938 606.16565 241.48438 606.4938Q241.98438 606.91565 243.875 607.3688Q245.78125 607.8063 246.6875 608.29065Q247.59375 608.7594 248.10938 609.60315Q248.625 610.4313 248.625 611.65Q248.625 612.7594 248.0 613.72815Q247.39062 614.6813 246.26562 615.16565Q245.14062 615.6344 243.46875 615.6344Q241.03125 615.6344 239.71875 614.5094Q238.40625 613.3688 238.15625 611.2125ZM262.42188 615.4L259.59375 615.4L258.46875 612.47815L253.32812 612.47815L252.26562 615.4L249.5 615.4L254.51562 602.5094L257.26562 602.5094L262.42188 615.4ZM257.64062 610.3063L255.85938 605.525L254.125 610.3063L257.64062 610.3063ZM263.82812 615.4L263.82812 602.5094L272.65625 602.5094L272.65625 604.6969L266.42188 604.6969L266.42188 607.7438L271.8125 607.7438L271.8125 609.9313L266.42188 609.9313L266.42188 615.4L263.82812 615.4ZM277.70312 615.4L277.70312 604.6969L273.89062 604.6969L273.89062 602.5094L284.125 602.5094L284.125 604.6969L280.3125 604.6969L280.3125 615.4L277.70312 615.4ZM290.8125 615.4L290.8125 602.5094L294.98438 602.5094Q297.35938 602.5094 298.07812 602.7125Q299.1875 602.9938 299.9375 603.97815Q300.6875 604.9469 300.6875 606.47815Q300.6875 607.66565 300.25 608.47815Q299.8125 609.275 299.14062 609.7438Q298.48438 610.2125 297.8125 610.35315Q296.875 610.54065 295.10938 610.54065L293.40625 610.54065L293.40625 615.4L290.8125 615.4ZM293.40625 604.6969L293.40625 608.35315L294.82812 608.35315Q296.375 608.35315 296.89062 608.15Q297.40625 607.9469 297.70312 607.525Q298.0 607.0875 298.0 606.5094Q298.0 605.8063 297.57812 605.35315Q297.17188 604.9 296.54688 604.775Q296.07812 604.6969 294.67188 604.6969L293.40625 604.6969ZM308.9375 615.4L308.9375 614.0094Q308.42188 614.7438 307.59375 615.1813Q306.76562 615.6188 305.84375 615.6188Q304.90625 615.6188 304.15625 615.2125Q303.40625 614.79065 303.0625 614.04065Q302.73438 613.29065 302.73438 611.97815L302.73438 606.0719L305.20312 606.0719L305.20312 610.35315Q305.20312 612.3219 305.34375 612.775Q305.48438 613.2125 305.84375 613.47815Q306.20312 613.72815 306.75 613.72815Q307.39062 613.72815 307.89062 613.3844Q308.39062 613.04065 308.57812 612.525Q308.76562 612.0094 308.76562 610.0094L308.76562 606.0719L311.23438 606.0719L311.23438 615.4L308.9375 615.4ZM316.15625 615.4L313.6875 615.4L313.6875 606.0719L315.98438 606.0719L315.98438 607.4Q316.5625 606.4469 317.03125 606.15Q317.51562 605.85315 318.10938 605.85315Q318.95312 605.85315 319.73438 606.3219L318.96875 608.47815Q318.34375 608.0719 317.8125 608.0719Q317.29688 608.0719 316.92188 608.35315Q316.5625 608.6344 316.35938 609.3844Q316.15625 610.1344 316.15625 612.5094L316.15625 615.4ZM328.9375 608.8219L326.5 609.2594Q326.375 608.54065 325.9375 608.16565Q325.5 607.79065 324.8125 607.79065Q323.89062 607.79065 323.32812 608.4313Q322.78125 609.0719 322.78125 610.5719Q322.78125 612.22815 323.34375 612.91565Q323.90625 613.60315 324.84375 613.60315Q325.54688 613.60315 325.98438 613.1969Q326.4375 612.79065 326.625 611.8219L329.04688 612.22815Q328.67188 613.9 327.59375 614.7594Q326.53125 615.6188 324.73438 615.6188Q322.6875 615.6188 321.46875 614.3219Q320.25 613.025 320.25 610.7438Q320.25 608.4313 321.46875 607.15Q322.6875 605.85315 324.78125 605.85315Q326.48438 605.85315 327.48438 606.5875Q328.48438 607.3219 328.9375 608.8219ZM333.25 602.5094L333.25 607.2594Q334.45312 605.85315 336.10938 605.85315Q336.96875 605.85315 337.64062 606.1813Q338.32812 606.4938 338.67188 606.9938Q339.03125 607.47815 339.15625 608.0719Q339.28125 608.66565 339.28125 609.9313L339.28125 615.4L336.8125 615.4L336.8125 610.4625Q336.8125 608.9938 336.67188 608.60315Q336.53125 608.2125 336.17188 607.97815Q335.8125 607.7438 335.28125 607.7438Q334.67188 607.7438 334.1875 608.04065Q333.70312 608.3375 333.46875 608.9469Q333.25 609.54065 333.25 610.72815L333.25 615.4L330.78125 615.4L330.78125 602.5094L333.25 602.5094ZM343.64062 608.91565L341.39062 608.5094Q341.78125 607.15 342.70312 606.5094Q343.625 605.85315 345.4375 605.85315Q347.09375 605.85315 347.89062 606.2438Q348.70312 606.6344 349.03125 607.2438Q349.375 607.8375 349.375 609.4469L349.34375 612.3375Q349.34375 613.5563 349.45312 614.15Q349.57812 614.72815 349.90625 615.4L347.46875 615.4Q347.35938 615.15 347.21875 614.66565Q347.15625 614.4469 347.14062 614.3844Q346.5 614.9938 345.78125 615.3063Q345.0625 615.6188 344.25 615.6188Q342.79688 615.6188 341.96875 614.8375Q341.14062 614.04065 341.14062 612.85315Q341.14062 612.0563 341.51562 611.4469Q341.89062 610.8219 342.57812 610.4938Q343.26562 610.16565 344.54688 609.91565Q346.28125 609.5875 346.9375 609.3063L346.9375 609.0563Q346.9375 608.35315 346.57812 608.0563Q346.23438 607.7438 345.26562 607.7438Q344.60938 607.7438 344.23438 608.0094Q343.85938 608.2594 343.64062 608.91565ZM346.9375 610.91565Q346.46875 611.0719 345.4375 611.29065Q344.40625 611.5094 344.09375 611.72815Q343.60938 612.0719 343.60938 612.60315Q343.60938 613.1188 344.0 613.4938Q344.39062 613.8688 344.98438 613.8688Q345.65625 613.8688 346.25 613.4313Q346.70312 613.10315 346.84375 612.6188Q346.9375 612.29065 346.9375 611.41565L346.9375 610.91565ZM350.92188 612.7438L353.40625 612.35315Q353.5625 613.0719 354.04688 613.4469Q354.53125 613.8219 355.39062 613.8219Q356.35938 613.8219 356.84375 613.47815Q357.15625 613.22815 357.15625 612.8219Q357.15625 612.54065 356.98438 612.35315Q356.79688 612.1813 356.15625 612.025Q353.17188 611.3688 352.375 610.8219Q351.26562 610.0719 351.26562 608.7125Q351.26562 607.5094 352.21875 606.6813Q353.1875 605.85315 355.1875 605.85315Q357.10938 605.85315 358.03125 606.47815Q358.96875 607.10315 359.32812 608.3219L357.0 608.7594Q356.84375 608.2125 356.42188 607.9313Q356.01562 607.6344 355.23438 607.6344Q354.26562 607.6344 353.84375 607.9Q353.5625 608.10315 353.5625 608.4Q353.5625 608.66565 353.8125 608.85315Q354.14062 609.10315 356.10938 609.5563Q358.07812 609.9938 358.875 610.65Q359.64062 611.3063 359.64062 612.47815Q359.64062 613.7594 358.5625 614.6969Q357.5 615.6188 355.39062 615.6188Q353.48438 615.6188 352.375 614.8375Q351.26562 614.0563 350.92188 612.7438ZM367.20312 612.4313L369.65625 612.8375Q369.1875 614.1969 368.15625 614.91565Q367.14062 615.6188 365.59375 615.6188Q363.15625 615.6188 362.0 614.025Q361.07812 612.7438 361.07812 610.8063Q361.07812 608.47815 362.28125 607.16565Q363.5 605.85315 365.35938 605.85315Q367.4375 605.85315 368.64062 607.22815Q369.84375 608.60315 369.79688 611.4469L363.60938 611.4469Q363.625 612.54065 364.1875 613.15Q364.76562 613.7594 365.625 613.7594Q366.20312 613.7594 366.59375 613.4469Q367.0 613.1344 367.20312 612.4313ZM367.34375 609.9313Q367.3125 608.85315 366.78125 608.3063Q366.25 607.7438 365.5 607.7438Q364.6875 607.7438 364.17188 608.3375Q363.64062 608.91565 363.64062 609.9313L367.34375 609.9313ZM375.15625 615.4L372.6875 615.4L372.6875 606.0719L374.98438 606.0719L374.98438 607.4Q375.5625 606.4469 376.03125 606.15Q376.51562 605.85315 377.10938 605.85315Q377.95312 605.85315 378.73438 606.3219L377.96875 608.47815Q377.34375 608.0719 376.8125 608.0719Q376.29688 608.0719 375.92188 608.35315Q375.5625 608.6344 375.35938 609.3844Q375.15625 610.1344 375.15625 612.5094L375.15625 615.4ZM378.92188 612.7438L381.40625 612.35315Q381.5625 613.0719 382.04688 613.4469Q382.53125 613.8219 383.39062 613.8219Q384.35938 613.8219 384.84375 613.47815Q385.15625 613.22815 385.15625 612.8219Q385.15625 612.54065 384.98438 612.35315Q384.79688 612.1813 384.15625 612.025Q381.17188 611.3688 380.375 610.8219Q379.26562 610.0719 379.26562 608.7125Q379.26562 607.5094 380.21875 606.6813Q381.1875 605.85315 383.1875 605.85315Q385.10938 605.85315 386.03125 606.47815Q386.96875 607.10315 387.32812 608.3219L385.0 608.7594Q384.84375 608.2125 384.42188 607.9313Q384.01562 607.6344 383.23438 607.6344Q382.26562 607.6344 381.84375 607.9Q381.5625 608.10315 381.5625 608.4Q381.5625 608.66565 381.8125 608.85315Q382.14062 609.10315 384.10938 609.5563Q386.07812 609.9938 386.875 610.65Q387.64062 611.3063 387.64062 612.47815Q387.64062 613.7594 386.5625 614.6969Q385.5 615.6188 383.39062 615.6188Q381.48438 615.6188 380.375 614.8375Q379.26562 614.0563 378.92188 612.7438ZM398.89062 619.1813L397.1875 619.1813Q395.84375 617.16565 395.14062 614.97815Q394.4375 612.775 394.4375 610.72815Q394.4375 608.1969 395.3125 605.9313Q396.0625 603.9625 397.23438 602.29065L398.92188 602.29065Q397.70312 604.9625 397.25 606.8375Q396.8125 608.6969 396.8125 610.79065Q396.8125 612.22815 397.07812 613.7438Q397.34375 615.2438 397.8125 616.6188Q398.10938 617.5094 398.89062 619.1813ZM405.10938 615.4L405.10938 612.8063L399.82812 612.8063L399.82812 610.65L405.42188 602.4625L407.5 602.4625L407.5 610.6344L409.09375 610.6344L409.09375 612.8063L407.5 612.8063L407.5 615.4L405.10938 615.4ZM405.10938 610.6344L405.10938 606.22815L402.14062 610.6344L405.10938 610.6344ZM410.79688 615.4L410.79688 612.9313L413.26562 612.9313L413.26562 615.4L410.79688 615.4ZM420.10938 615.4L420.10938 612.8063L414.82812 612.8063L414.82812 610.65L420.42188 602.4625L422.5 602.4625L422.5 610.6344L424.09375 610.6344L424.09375 612.8063L422.5 612.8063L422.5 615.4L420.10938 615.4ZM420.10938 610.6344L420.10938 606.22815L417.14062 610.6344L420.10938 610.6344ZM425.26562 604.97815L425.26562 602.6969L433.71875 602.6969L433.71875 604.47815Q432.67188 605.5094 431.57812 607.4469Q430.5 609.3688 429.9375 611.54065Q429.375 613.6969 429.375 615.4L427.0 615.4Q427.0625 612.72815 428.09375 609.9469Q429.14062 607.16565 430.875 604.97815L425.26562 604.97815ZM435.28125 605.6969Q435.28125 603.9625 436.03125 603.1344Q436.79688 602.29065 438.10938 602.29065Q439.45312 602.29065 440.20312 603.1344Q440.96875 603.9625 440.96875 605.6969Q440.96875 607.4313 440.20312 608.275Q439.45312 609.10315 438.14062 609.10315Q436.79688 609.10315 436.03125 608.275Q435.28125 607.4313 435.28125 605.6969ZM437.20312 605.6813Q437.20312 606.9313 437.5 607.3688Q437.71875 607.6813 438.10938 607.6813Q438.5 607.6813 438.71875 607.3688Q439.0 606.9313 439.0 605.6813Q439.0 604.41565 438.71875 603.9938Q438.5 603.6813 438.10938 603.6813Q437.71875 603.6813 437.5 603.9938Q437.20312 604.41565 437.20312 605.6813ZM439.98438 615.9L438.15625 615.9L445.01562 602.29065L446.79688 602.29065L439.98438 615.9ZM443.96875 612.5094Q443.96875 610.775 444.73438 609.9469Q445.5 609.10315 446.8125 609.10315Q448.14062 609.10315 448.89062 609.9469Q449.65625 610.775 449.65625 612.5094Q449.65625 614.2438 448.89062 615.0875Q448.14062 615.91565 446.84375 615.91565Q445.5 615.91565 444.73438 615.0875Q443.96875 614.2438 443.96875 612.5094ZM445.90625 612.4938Q445.90625 613.7594 446.1875 614.1813Q446.40625 614.5094 446.79688 614.5094Q447.1875 614.5094 447.40625 614.1813Q447.6875 613.7594 447.6875 612.4938Q447.6875 611.2438 447.40625 610.8063Q447.1875 610.4938 446.79688 610.4938Q446.40625 610.4938 446.1875 610.8063Q445.90625 611.2438 445.90625 612.4938ZM452.10938 619.1813Q452.84375 617.6188 453.14062 616.775Q453.4375 615.9469 453.6875 614.8688Q453.9375 613.775 454.0625 612.79065Q454.1875 611.8063 454.1875 610.79065Q454.1875 608.6969 453.73438 606.8375Q453.29688 604.9625 452.09375 602.29065L453.76562 602.29065Q455.09375 604.1813 455.82812 606.3063Q456.5625 608.41565 456.5625 610.60315Q456.5625 612.4313 455.98438 614.54065Q455.32812 616.9 453.8125 619.1813L452.10938 619.1813Z" fill-rule="nonzero"/><path fill="#91f5f5" d="M485.5 608.9C485.5 612.2137 482.81372 614.9 479.5 614.9C476.18628 614.9 473.5 612.2137 473.5 608.9C473.5 605.5863 476.18628 602.9 479.5 602.9C482.81372 602.9 485.5 605.5863 485.5 608.9Z" fill-rule="nonzero"/><path fill="#ffffff" d="M494.82812 615.4L494.82812 602.5094L503.65625 602.5094L503.65625 604.6969L497.42188 604.6969L497.42188 607.7438L502.8125 607.7438L502.8125 609.9313L497.42188 609.9313L497.42188 615.4L494.82812 615.4ZM508.70312 615.4L508.70312 604.6969L504.89062 604.6969L504.89062 602.5094L515.125 602.5094L515.125 604.6969L511.3125 604.6969L511.3125 615.4L508.70312 615.4ZM516.875 615.4L516.875 602.6188L519.4844 602.6188L519.4844 613.22815L525.9531 613.22815L525.9531 615.4L516.875 615.4ZM532.875 615.4L532.875 602.6188L535.4844 602.6188L535.4844 613.22815L541.9531 613.22815L541.9531 615.4L532.875 615.4ZM545.6406 608.91565L543.3906 608.5094Q543.78125 607.15 544.7031 606.5094Q545.625 605.85315 547.4375 605.85315Q549.09375 605.85315 549.8906 606.2438Q550.7031 606.6344 551.03125 607.2438Q551.375 607.8375 551.375 609.4469L551.34375 612.3375Q551.34375 613.5563 551.4531 614.15Q551.5781 614.72815 551.90625 615.4L549.46875 615.4Q549.3594 615.15 549.21875 614.66565Q549.15625 614.4469 549.1406 614.3844Q548.5 614.9938 547.78125 615.3063Q547.0625 615.6188 546.25 615.6188Q544.7969 615.6188 543.96875 614.8375Q543.1406 614.04065 543.1406 612.85315Q543.1406 612.0563 543.5156 611.4469Q543.8906 610.8219 544.5781 610.4938Q545.2656 610.16565 546.5469 609.91565Q548.28125 609.5875 548.9375 609.3063L548.9375 609.0563Q548.9375 608.35315 548.5781 608.0563Q548.2344 607.7438 547.2656 607.7438Q546.6094 607.7438 546.2344 608.0094Q545.8594 608.2594 545.6406 608.91565ZM548.9375 610.91565Q548.46875 611.0719 547.4375 611.29065Q546.40625 611.5094 546.09375 611.72815Q545.6094 612.0719 545.6094 612.60315Q545.6094 613.1188 546.0 613.4938Q546.3906 613.8688 546.9844 613.8688Q547.65625 613.8688 548.25 613.4313Q548.7031 613.10315 548.84375 612.6188Q548.9375 612.29065 548.9375 611.41565L548.9375 610.91565ZM553.6875 615.4L553.6875 602.5094L556.15625 602.5094L556.15625 607.15Q557.2969 605.85315 558.8594 605.85315Q560.5625 605.85315 561.6719 607.0875Q562.7969 608.3219 562.7969 610.6344Q562.7969 613.025 561.65625 614.3219Q560.53125 615.6188 558.90625 615.6188Q558.09375 615.6188 557.3125 615.2125Q556.5469 614.8063 555.9844 614.025L555.9844 615.4L553.6875 615.4ZM556.1406 610.525Q556.1406 611.97815 556.59375 612.6813Q557.2344 613.66565 558.2969 613.66565Q559.125 613.66565 559.6875 612.9625Q560.2656 612.2594 560.2656 610.7594Q560.2656 609.16565 559.6875 608.4625Q559.1094 607.7438 558.2031 607.7438Q557.3125 607.7438 556.71875 608.4313Q556.1406 609.1188 556.1406 610.525ZM563.9219 612.7438L566.40625 612.35315Q566.5625 613.0719 567.0469 613.4469Q567.53125 613.8219 568.3906 613.8219Q569.3594 613.8219 569.84375 613.47815Q570.15625 613.22815 570.15625 612.8219Q570.15625 612.54065 569.9844 612.35315Q569.7969 612.1813 569.15625 612.025Q566.1719 611.3688 565.375 610.8219Q564.2656 610.0719 564.2656 608.7125Q564.2656 607.5094 565.21875 606.6813Q566.1875 605.85315 568.1875 605.85315Q570.1094 605.85315 571.03125 606.47815Q571.96875 607.10315 572.3281 608.3219L570.0 608.7594Q569.84375 608.2125 569.4219 607.9313Q569.0156 607.6344 568.2344 607.6344Q567.2656 607.6344 566.84375 607.9Q566.5625 608.10315 566.5625 608.4Q566.5625 608.66565 566.8125 608.85315Q567.1406 609.10315 569.1094 609.5563Q571.0781 609.9938 571.875 610.65Q572.6406 611.3063 572.6406 612.47815Q572.6406 613.7594 571.5625 614.6969Q570.5 615.6188 568.3906 615.6188Q566.4844 615.6188 565.375 614.8375Q564.2656 614.0563 563.9219 612.7438ZM583.8906 619.1813L582.1875 619.1813Q580.84375 617.16565 580.1406 614.97815Q579.4375 612.775 579.4375 610.72815Q579.4375 608.1969 580.3125 605.9313Q581.0625 603.9625 582.2344 602.29065L583.9219 602.29065Q582.7031 604.9625 582.25 606.8375Q581.8125 608.6969 581.8125 610.79065Q581.8125 612.22815 582.0781 613.7438Q582.34375 615.2438 582.8125 616.6188Q583.1094 617.5094 583.8906 619.1813ZM585.1719 611.97815L587.5625 611.6969Q587.6875 612.60315 588.1875 613.0875Q588.6875 613.5719 589.3906 613.5719Q590.15625 613.5719 590.6719 612.9938Q591.2031 612.41565 591.2031 611.4313Q591.2031 610.4938 590.7031 609.9469Q590.2031 609.4 589.4844 609.4Q589.0156 609.4 588.34375 609.5875L588.625 607.5719Q589.625 607.60315 590.1406 607.15Q590.6719 606.6813 590.6719 605.91565Q590.6719 605.2594 590.28125 604.8844Q589.90625 604.4938 589.2656 604.4938Q588.625 604.4938 588.1719 604.9313Q587.7344 605.3688 587.6406 606.2125L585.3594 605.8219Q585.59375 604.66565 586.0781 603.9625Q586.5625 603.2594 587.40625 602.8688Q588.2656 602.4625 589.3281 602.4625Q591.15625 602.4625 592.25 603.6188Q593.15625 604.5719 593.15625 605.7594Q593.15625 607.4625 591.2969 608.47815Q592.40625 608.7125 593.0625 609.54065Q593.7344 610.3688 593.7344 611.525Q593.7344 613.22815 592.5 614.4313Q591.2656 615.6188 589.40625 615.6188Q587.6719 615.6188 586.5156 614.6188Q585.3594 613.60315 585.1719 611.97815ZM599.4375 602.4625Q601.3125 602.4625 602.3594 603.79065Q603.625 605.3844 603.625 609.04065Q603.625 612.6969 602.3594 614.3063Q601.3125 615.6188 599.4375 615.6188Q597.5625 615.6188 596.40625 614.1813Q595.25 612.72815 595.25 609.025Q595.25 605.3844 596.5156 603.775Q597.5625 602.4625 599.4375 602.4625ZM599.4375 604.5094Q598.9844 604.5094 598.625 604.8063Q598.28125 605.0875 598.09375 605.8219Q597.84375 606.775 597.84375 609.04065Q597.84375 611.3063 598.0625 612.16565Q598.2969 613.0094 598.6406 613.29065Q598.9844 613.5719 599.4375 613.5719Q599.8906 613.5719 600.2344 613.29065Q600.59375 612.9938 600.78125 612.2594Q601.0469 611.3063 601.0469 609.04065Q601.0469 606.775 600.8125 605.9313Q600.5781 605.0875 600.2344 604.8063Q599.8906 604.5094 599.4375 604.5094ZM605.7969 615.4L605.7969 612.9313L608.2656 612.9313L608.2656 615.4L605.7969 615.4ZM610.2969 612.0875L612.7656 611.8375Q612.8594 612.66565 613.375 613.15Q613.90625 613.6344 614.5781 613.6344Q615.3594 613.6344 615.8906 613.0094Q616.4219 612.3844 616.4219 611.1188Q616.4219 609.9313 615.8906 609.3375Q615.3594 608.7438 614.5156 608.7438Q613.4531 608.7438 612.6094 609.6813L610.59375 609.4L611.8594 602.6969L618.3906 602.6969L618.3906 605.0094L613.7344 605.0094L613.34375 607.1969Q614.1719 606.775 615.03125 606.775Q616.6875 606.775 617.8281 607.97815Q618.96875 609.16565 618.96875 611.0719Q618.96875 612.66565 618.0469 613.91565Q616.78125 615.6188 614.5469 615.6188Q612.7656 615.6188 611.6406 614.66565Q610.5156 613.6969 610.2969 612.0875ZM620.1719 611.97815L622.5625 611.6969Q622.6875 612.60315 623.1875 613.0875Q623.6875 613.5719 624.3906 613.5719Q625.15625 613.5719 625.6719 612.9938Q626.2031 612.41565 626.2031 611.4313Q626.2031 610.4938 625.7031 609.9469Q625.2031 609.4 624.4844 609.4Q624.0156 609.4 623.34375 609.5875L623.625 607.5719Q624.625 607.60315 625.1406 607.15Q625.6719 606.6813 625.6719 605.91565Q625.6719 605.2594 625.28125 604.8844Q624.90625 604.4938 624.2656 604.4938Q623.625 604.4938 623.1719 604.9313Q622.7344 605.3688 622.6406 606.2125L620.3594 605.8219Q620.59375 604.66565 621.0781 603.9625Q621.5625 603.2594 622.40625 602.8688Q623.2656 602.4625 624.3281 602.4625Q626.15625 602.4625 627.25 603.6188Q628.15625 604.5719 628.15625 605.7594Q628.15625 607.4625 626.2969 608.47815Q627.40625 608.7125 628.0625 609.54065Q628.7344 610.3688 628.7344 611.525Q628.7344 613.22815 627.5 614.4313Q626.2656 615.6188 624.40625 615.6188Q622.6719 615.6188 621.5156 614.6188Q620.3594 613.60315 620.1719 611.97815ZM630.28125 605.6969Q630.28125 603.9625 631.03125 603.1344Q631.7969 602.29065 633.1094 602.29065Q634.4531 602.29065 635.2031 603.1344Q635.96875 603.9625 635.96875 605.6969Q635.96875 607.4313 635.2031 608.275Q634.4531 609.10315 633.1406 609.10315Q631.7969 609.10315 631.03125 608.275Q630.28125 607.4313 630.28125 605.6969ZM632.2031 605.6813Q632.2031 606.9313 632.5 607.3688Q632.71875 607.6813 633.1094 607.6813Q633.5 607.6813 633.71875 607.3688Q634.0 606.9313 634.0 605.6813Q634.0 604.41565 633.71875 603.9938Q633.5 603.6813 633.1094 603.6813Q632.71875 603.6813 632.5 603.9938Q632.2031 604.41565 632.2031 605.6813ZM634.9844 615.9L633.15625 615.9L640.0156 602.29065L641.7969 602.29065L634.9844 615.9ZM638.96875 612.5094Q638.96875 610.775 639.7344 609.9469Q640.5 609.10315 641.8125 609.10315Q643.1406 609.10315 643.8906 609.9469Q644.65625 610.775 644.65625 612.5094Q644.65625 614.2438 643.8906 615.0875Q643.1406 615.91565 641.84375 615.91565Q640.5 615.91565 639.7344 615.0875Q638.96875 614.2438 638.96875 612.5094ZM640.90625 612.4938Q640.90625 613.7594 641.1875 614.1813Q641.40625 614.5094 641.7969 614.5094Q642.1875 614.5094 642.40625 614.1813Q642.6875 613.7594 642.6875 612.4938Q642.6875 611.2438 642.40625 610.8063Q642.1875 610.4938 641.7969 610.4938Q641.40625 610.4938 641.1875 610.8063Q640.90625 611.2438 640.90625 612.4938ZM647.1094 619.1813Q647.84375 617.6188 648.1406 616.775Q648.4375 615.9469 648.6875 614.8688Q648.9375 613.775 649.0625 612.79065Q649.1875 611.8063 649.1875 610.79065Q649.1875 608.6969 648.7344 606.8375Q648.2969 604.9625 647.09375 602.29065L648.7656 602.29065Q650.09375 604.1813 650.8281 606.3063Q651.5625 608.41565 651.5625 610.60315Q651.5625 612.4313 650.9844 614.54065Q650.3281 616.9 648.8125 619.1813L647.1094 619.1813Z" fill-rule="nonzero"/></svg>