<svg version="1.1" viewBox="0.0 0.0 694.0 497.0" fill="none" stroke="none" stroke-linecap="square" stroke-miterlimit="10" width="694" height="497" xmlns:xlink="http://www.w3.org/1999/xlink" xmlns="http://www.w3.org/2000/svg"><path fill="#ffffff" d="M0 0L694.0 0L694.0 497.0L0 497.0L0 0Z" fill-rule="nonzero"/><path fill="#9d009d" d="M347.0 24.85C363.85916 24.85 380.63464 27.220297 396.8338 31.891296L347.0 204.71666Z" fill-rule="nonzero"/><path fill="#f0ff9b" d="M396.8338 31.891296C453.17545 48.137276 498.06122 90.827095 517.11053 146.28368C536.1599 201.74026 526.9812 263.00122 492.5152 310.43964L347.0 204.71666Z" fill-rule="nonzero"/><path fill="#14bf51" d="M492.5152 310.43964C487.53104 317.29974 482.06802 323.7988 476.167 329.88818L347.0 204.71666Z" fill-rule="nonzero"/><path fill="#ffb4ff" d="M476.167 329.88818C446.18927 360.82278 406.105 379.9714 363.20337 383.852L347.0 204.71666Z" fill-rule="nonzero"/><path fill="#91f5f5" d="M211.60056 323.11856C165.14891 269.9984 154.05016 194.6229 183.21878 130.36795C212.3874 66.11301 276.4344 24.85 347.0 24.85L347.0 204.71666Z" fill-rule="nonzero"/><path fill="#1470e8" d="M363.20337 383.852C305.86124 389.0388 249.5016 366.4606 211.60056 323.11856L347.0 204.71666Z" fill-rule="nonzero"/><path fill="#9d009d" d="M36.85 411.65C36.85 414.9637 34.163708 417.65 30.85 417.65C27.536291 417.65 24.85 414.9637 24.85 411.65C24.85 408.3363 27.536291 405.65 30.85 405.65C34.163708 405.65 36.85 408.3363 36.85 411.65Z" fill-rule="nonzero"/><path fill="#1a1a1a" d="M46.178123 418.15L46.178123 405.25937L55.00625 405.25937L55.00625 407.44687L48.771873 407.44687L48.771873 410.49374L54.1625 410.49374L54.1625 412.68124L48.771873 412.68124L48.771873 418.15L46.178123 418.15ZM60.053123 418.15L60.053123 407.44687L56.240623 407.44687L56.240623 405.25937L66.475 405.25937L66.475 407.44687L62.6625 407.44687L62.6625 418.15L60.053123 418.15ZM68.225 418.15L68.225 405.36874L70.83437 405.36874L70.83437 415.97812L77.30312 415.97812L77.30312 418.15L68.225 418.15ZM84.225 418.15L84.225 405.36874L86.83437 405.36874L86.83437 415.97812L93.30312 415.97812L93.30312 418.15L84.225 418.15ZM96.99062 411.66562L94.74062 411.25937Q95.13125 409.9 96.05312 409.25937Q96.975 408.60312 98.7875 408.60312Q100.44375 408.60312 101.24062 408.99374Q102.05312 409.38437 102.38125 409.99374Q102.725 410.5875 102.725 412.19687L102.69375 415.0875Q102.69375 416.30624 102.80312 416.9Q102.92812 417.47812 103.25625 418.15L100.81875 418.15Q100.70937 417.9 100.56875 417.41562Q100.50625 417.19687 100.49062 417.13437Q99.85 417.74374 99.13125 418.05624Q98.4125 418.36874 97.6 418.36874Q96.14687 418.36874 95.31875 417.5875Q94.49062 416.79062 94.49062 415.60312Q94.49062 414.80624 94.86562 414.19687Q95.24062 413.57187 95.92812 413.24374Q96.61562 412.91562 97.89687 412.66562Q99.63125 412.3375 100.2875 412.05624L100.2875 411.80624Q100.2875 411.10312 99.92812 410.80624Q99.58437 410.49374 98.61562 410.49374Q97.95937 410.49374 97.58437 410.75937Q97.20937 411.00937 96.99062 411.66562ZM100.2875 413.66562Q99.81875 413.82187 98.7875 414.04062Q97.75625 414.25937 97.44375 414.47812Q96.95937 414.82187 96.95937 415.35312Q96.95937 415.86874 97.35 416.24374Q97.74062 416.61874 98.33437 416.61874Q99.00625 416.61874 99.6 416.18124Q100.05312 415.85312 100.19375 415.36874Q100.2875 415.04062 100.2875 414.16562L100.2875 413.66562ZM105.0375 418.15L105.0375 405.25937L107.50625 405.25937L107.50625 409.9Q108.64687 408.60312 110.20937 408.60312Q111.9125 408.60312 113.02187 409.8375Q114.14687 411.07187 114.14687 413.38437Q114.14687 415.775 113.00625 417.07187Q111.88125 418.36874 110.25625 418.36874Q109.44375 418.36874 108.6625 417.9625Q107.89687 417.55624 107.33437 416.775L107.33437 418.15L105.0375 418.15ZM107.49062 413.275Q107.49062 414.72812 107.94375 415.43124Q108.58437 416.41562 109.64687 416.41562Q110.475 416.41562 111.0375 415.7125Q111.61562 415.00937 111.61562 413.50937Q111.61562 411.91562 111.0375 411.2125Q110.45937 410.49374 109.55312 410.49374Q108.6625 410.49374 108.06875 411.18124Q107.49062 411.86874 107.49062 413.275ZM115.27187 415.49374L117.75625 415.10312Q117.9125 415.82187 118.39687 416.19687Q118.88125 416.57187 119.74062 416.57187Q120.70937 416.57187 121.19375 416.22812Q121.50625 415.97812 121.50625 415.57187Q121.50625 415.29062 121.33437 415.10312Q121.14687 414.93124 120.50625 414.775Q117.52187 414.11874 116.725 413.57187Q115.61562 412.82187 115.61562 411.4625Q115.61562 410.25937 116.56875 409.43124Q117.5375 408.60312 119.5375 408.60312Q121.45937 408.60312 122.38125 409.22812Q123.31875 409.85312 123.67812 411.07187L121.35 411.50937Q121.19375 410.9625 120.77187 410.68124Q120.36562 410.38437 119.58437 410.38437Q118.61562 410.38437 118.19375 410.65Q117.9125 410.85312 117.9125 411.15Q117.9125 411.41562 118.1625 411.60312Q118.49062 411.85312 120.45937 412.30624Q122.42812 412.74374 123.225 413.4Q123.99062 414.05624 123.99062 415.22812Q123.99062 416.50937 122.9125 417.44687Q121.85 418.36874 119.74062 418.36874Q117.83437 418.36874 116.725 417.5875Q115.61562 416.80624 115.27187 415.49374ZM130.86563 414.7125L130.86563 412.24374L135.70938 412.24374L135.70938 414.7125L130.86563 414.7125ZM142.08438 418.15L142.08438 405.25937L144.67813 405.25937L144.67813 418.15L142.08438 418.15ZM155.63126 418.15L153.1625 418.15L153.1625 413.38437Q153.1625 411.86874 153.00626 411.43124Q152.85 410.99374 152.49063 410.74374Q152.13126 410.49374 151.63126 410.49374Q150.99063 410.49374 150.475 410.85312Q149.975 411.19687 149.7875 411.775Q149.6 412.35312 149.6 413.91562L149.6 418.15L147.13126 418.15L147.13126 408.82187L149.4125 408.82187L149.4125 410.18124Q150.64688 408.60312 152.49063 408.60312Q153.31876 408.60312 153.99063 408.9Q154.6625 409.19687 155.00626 409.65Q155.36563 410.10312 155.49063 410.69687Q155.63126 411.275 155.63126 412.35312L155.63126 418.15ZM160.70938 418.15L156.94376 408.82187L159.5375 408.82187L161.30313 413.57187L161.80313 415.16562Q162.00626 414.55624 162.06876 414.36874Q162.17813 413.97812 162.31876 413.57187L164.1 408.82187L166.64688 408.82187L162.92813 418.15L160.70938 418.15ZM174.55313 415.18124L177.00626 415.5875Q176.5375 416.94687 175.50626 417.66562Q174.49063 418.36874 172.94376 418.36874Q170.50626 418.36874 169.35 416.775Q168.42813 415.49374 168.42813 413.55624Q168.42813 411.22812 169.63126 409.91562Q170.85 408.60312 172.70938 408.60312Q174.7875 408.60312 175.99063 409.97812Q177.19376 411.35312 177.14688 414.19687L170.95938 414.19687Q170.975 415.29062 171.5375 415.9Q172.11563 416.50937 172.975 416.50937Q173.55313 416.50937 173.94376 416.19687Q174.35 415.88437 174.55313 415.18124ZM174.69376 412.68124Q174.6625 411.60312 174.13126 411.05624Q173.6 410.49374 172.85 410.49374Q172.0375 410.49374 171.52188 411.0875Q170.99063 411.66562 170.99063 412.68124L174.69376 412.68124ZM179.27188 415.49374L181.75626 415.10312Q181.9125 415.82187 182.39688 416.19687Q182.88126 416.57187 183.74063 416.57187Q184.70938 416.57187 185.19376 416.22812Q185.50626 415.97812 185.50626 415.57187Q185.50626 415.29062 185.33438 415.10312Q185.14688 414.93124 184.50626 414.775Q181.52188 414.11874 180.725 413.57187Q179.61563 412.82187 179.61563 411.4625Q179.61563 410.25937 180.56876 409.43124Q181.5375 408.60312 183.5375 408.60312Q185.45938 408.60312 186.38126 409.22812Q187.31876 409.85312 187.67813 411.07187L185.35 411.50937Q185.19376 410.9625 184.77188 410.68124Q184.36563 410.38437 183.58438 410.38437Q182.61563 410.38437 182.19376 410.65Q181.9125 410.85312 181.9125 411.15Q181.9125 411.41562 182.1625 411.60312Q182.49063 411.85312 184.45938 412.30624Q186.42813 412.74374 187.225 413.4Q187.99063 414.05624 187.99063 415.22812Q187.99063 416.50937 186.9125 417.44687Q185.85 418.36874 183.74063 418.36874Q181.83438 418.36874 180.725 417.5875Q179.61563 416.80624 179.27188 415.49374ZM194.42813 408.82187L194.42813 410.79062L192.74063 410.79062L192.74063 414.54062Q192.74063 415.68124 192.7875 415.88437Q192.83438 416.07187 193.00626 416.19687Q193.17813 416.30624 193.42813 416.30624Q193.75626 416.30624 194.4125 416.07187L194.63126 417.99374Q193.75626 418.36874 192.67813 418.36874Q192.00626 418.36874 191.45938 418.15Q190.92813 417.91562 190.67813 417.55624Q190.42813 417.19687 190.33438 416.5875Q190.25626 416.16562 190.25626 414.85312L190.25626 410.79062L189.11563 410.79062L189.11563 408.82187L190.25626 408.82187L190.25626 406.9625L192.74063 405.525L192.74063 408.82187L194.42813 408.82187ZM195.56876 413.35312Q195.56876 412.11874 196.17813 410.97812Q196.7875 409.82187 197.89688 409.2125Q199.00626 408.60312 200.38126 408.60312Q202.49063 408.60312 203.85 409.97812Q205.20938 411.35312 205.20938 413.4625Q205.20938 415.57187 203.83438 416.97812Q202.475 418.36874 200.39688 418.36874Q199.11563 418.36874 197.94376 417.79062Q196.7875 417.19687 196.17813 416.0875Q195.56876 414.9625 195.56876 413.35312ZM198.1 413.47812Q198.1 414.86874 198.75626 415.61874Q199.42813 416.35312 200.38126 416.35312Q201.35 416.35312 202.00626 415.61874Q202.6625 414.86874 202.6625 413.4625Q202.6625 412.0875 202.00626 411.35312Q201.35 410.61874 200.38126 410.61874Q199.42813 410.61874 198.75626 411.35312Q198.1 412.0875 198.1 413.47812ZM209.50626 418.15L207.0375 418.15L207.0375 408.82187L209.33438 408.82187L209.33438 410.15Q209.9125 409.19687 210.38126 408.9Q210.86563 408.60312 211.45938 408.60312Q212.30313 408.60312 213.08438 409.07187L212.31876 411.22812Q211.69376 410.82187 211.1625 410.82187Q210.64688 410.82187 210.27188 411.10312Q209.9125 411.38437 209.70938 412.13437Q209.50626 412.88437 209.50626 415.25937L209.50626 418.15ZM213.27188 415.49374L215.75626 415.10312Q215.9125 415.82187 216.39688 416.19687Q216.88126 416.57187 217.74063 416.57187Q218.70938 416.57187 219.19376 416.22812Q219.50626 415.97812 219.50626 415.57187Q219.50626 415.29062 219.33438 415.10312Q219.14688 414.93124 218.50626 414.775Q215.52188 414.11874 214.725 413.57187Q213.61563 412.82187 213.61563 411.4625Q213.61563 410.25937 214.56876 409.43124Q215.5375 408.60312 217.5375 408.60312Q219.45938 408.60312 220.38126 409.22812Q221.31876 409.85312 221.67813 411.07187L219.35 411.50937Q219.19376 410.9625 218.77188 410.68124Q218.36563 410.38437 217.58438 410.38437Q216.61563 410.38437 216.19376 410.65Q215.9125 410.85312 215.9125 411.15Q215.9125 411.41562 216.1625 411.60312Q216.49063 411.85312 218.45938 412.30624Q220.42813 412.74374 221.225 413.4Q221.99063 414.05624 221.99063 415.22812Q221.99063 416.50937 220.9125 417.44687Q219.85 418.36874 217.74063 418.36874Q215.83438 418.36874 214.725 417.5875Q213.61563 416.80624 213.27188 415.49374ZM233.24063 421.93124L231.5375 421.93124Q230.19376 419.91562 229.49063 417.72812Q228.7875 415.525 228.7875 413.47812Q228.7875 410.94687 229.6625 408.68124Q230.4125 406.7125 231.58438 405.04062L233.27188 405.04062Q232.05313 407.7125 231.6 409.5875Q231.1625 411.44687 231.1625 413.54062Q231.1625 414.97812 231.42813 416.49374Q231.69376 417.99374 232.1625 419.36874Q232.45938 420.25937 233.24063 421.93124ZM239.45938 418.15L239.45938 415.55624L234.17813 415.55624L234.17813 413.4L239.77188 405.2125L241.85 405.2125L241.85 413.38437L243.44376 413.38437L243.44376 415.55624L241.85 415.55624L241.85 418.15L239.45938 418.15ZM239.45938 413.38437L239.45938 408.97812L236.49063 413.38437L239.45938 413.38437ZM245.14688 418.15L245.14688 415.68124L247.61563 415.68124L247.61563 418.15L245.14688 418.15ZM254.45938 418.15L254.45938 415.55624L249.17813 415.55624L249.17813 413.4L254.77188 405.2125L256.85 405.2125L256.85 413.38437L258.44376 413.38437L258.44376 415.55624L256.85 415.55624L256.85 418.15L254.45938 418.15ZM254.45938 413.38437L254.45938 408.97812L251.49063 413.38437L254.45938 413.38437ZM259.61563 407.72812L259.61563 405.44687L268.06876 405.44687L268.06876 407.22812Q267.02188 408.25937 265.92813 410.19687Q264.85 412.11874 264.2875 414.29062Q263.725 416.44687 263.725 418.15L261.35 418.15Q261.4125 415.47812 262.44376 412.69687Q263.49063 409.91562 265.225 407.72812L259.61563 407.72812ZM269.63126 408.44687Q269.63126 406.7125 270.38126 405.88437Q271.14688 405.04062 272.45938 405.04062Q273.80313 405.04062 274.55313 405.88437Q275.31876 406.7125 275.31876 408.44687Q275.31876 410.18124 274.55313 411.025Q273.80313 411.85312 272.49063 411.85312Q271.14688 411.85312 270.38126 411.025Q269.63126 410.18124 269.63126 408.44687ZM271.55313 408.43124Q271.55313 409.68124 271.85 410.11874Q272.06876 410.43124 272.45938 410.43124Q272.85 410.43124 273.06876 410.11874Q273.35 409.68124 273.35 408.43124Q273.35 407.16562 273.06876 406.74374Q272.85 406.43124 272.45938 406.43124Q272.06876 406.43124 271.85 406.74374Q271.55313 407.16562 271.55313 408.43124ZM274.33438 418.65L272.50626 418.65L279.36563 405.04062L281.14688 405.04062L274.33438 418.65ZM278.31876 415.25937Q278.31876 413.525 279.08438 412.69687Q279.85 411.85312 281.1625 411.85312Q282.49063 411.85312 283.24063 412.69687Q284.00626 413.525 284.00626 415.25937Q284.00626 416.99374 283.24063 417.8375Q282.49063 418.66562 281.19376 418.66562Q279.85 418.66562 279.08438 417.8375Q278.31876 416.99374 278.31876 415.25937ZM280.25626 415.24374Q280.25626 416.50937 280.5375 416.93124Q280.75626 417.25937 281.14688 417.25937Q281.5375 417.25937 281.75626 416.93124Q282.0375 416.50937 282.0375 415.24374Q282.0375 413.99374 281.75626 413.55624Q281.5375 413.24374 281.14688 413.24374Q280.75626 413.24374 280.5375 413.55624Q280.25626 413.99374 280.25626 415.24374ZM286.45938 421.93124Q287.19376 420.36874 287.49063 419.525Q287.7875 418.69687 288.0375 417.61874Q288.2875 416.525 288.4125 415.54062Q288.5375 414.55624 288.5375 413.54062Q288.5375 411.44687 288.08438 409.5875Q287.64688 407.7125 286.44376 405.04062L288.11563 405.04062Q289.44376 406.93124 290.17813 409.05624Q290.9125 411.16562 290.9125 413.35312Q290.9125 415.18124 290.33438 417.29062Q289.67813 419.65 288.1625 421.93124L286.45938 421.93124Z" fill-rule="nonzero"/><path fill="#f0ff9b" d="M319.85 411.65C319.85 414.9637 317.1637 417.65 313.85 417.65C310.5363 417.65 307.85 414.9637 307.85 411.65C307.85 408.3363 310.5363 405.65 313.85 405.65C317.1637 405.65 319.85 408.3363 319.85 411.65Z" fill-rule="nonzero"/><path fill="#1a1a1a" d="M329.17813 418.15L329.17813 405.25937L338.00626 405.25937L338.00626 407.44687L331.77188 407.44687L331.77188 410.49374L337.1625 410.49374L337.1625 412.68124L331.77188 412.68124L331.77188 418.15L329.17813 418.15ZM343.05313 418.15L343.05313 407.44687L339.24063 407.44687L339.24063 405.25937L349.475 405.25937L349.475 407.44687L345.6625 407.44687L345.6625 418.15L343.05313 418.15ZM351.225 418.15L351.225 405.36874L353.83438 405.36874L353.83438 415.97812L360.30313 415.97812L360.30313 418.15L351.225 418.15ZM367.225 418.15L367.225 405.36874L369.83438 405.36874L369.83438 415.97812L376.30313 415.97812L376.30313 418.15L367.225 418.15ZM379.99063 411.66562L377.74063 411.25937Q378.13126 409.9 379.05313 409.25937Q379.975 408.60312 381.7875 408.60312Q383.44376 408.60312 384.24063 408.99374Q385.05313 409.38437 385.38126 409.99374Q385.725 410.5875 385.725 412.19687L385.69376 415.0875Q385.69376 416.30624 385.80313 416.9Q385.92813 417.47812 386.25626 418.15L383.81876 418.15Q383.70938 417.9 383.56876 417.41562Q383.50626 417.19687 383.49063 417.13437Q382.85 417.74374 382.13126 418.05624Q381.4125 418.36874 380.6 418.36874Q379.14688 418.36874 378.31876 417.5875Q377.49063 416.79062 377.49063 415.60312Q377.49063 414.80624 377.86563 414.19687Q378.24063 413.57187 378.92813 413.24374Q379.61563 412.91562 380.89688 412.66562Q382.63126 412.3375 383.2875 412.05624L383.2875 411.80624Q383.2875 411.10312 382.92813 410.80624Q382.58438 410.49374 381.61563 410.49374Q380.95938 410.49374 380.58438 410.75937Q380.20938 411.00937 379.99063 411.66562ZM383.2875 413.66562Q382.81876 413.82187 381.7875 414.04062Q380.75626 414.25937 380.44376 414.47812Q379.95938 414.82187 379.95938 415.35312Q379.95938 415.86874 380.35 416.24374Q380.74063 416.61874 381.33438 416.61874Q382.00626 416.61874 382.6 416.18124Q383.05313 415.85312 383.19376 415.36874Q383.2875 415.04062 383.2875 414.16562L383.2875 413.66562ZM388.0375 418.15L388.0375 405.25937L390.50626 405.25937L390.50626 409.9Q391.64688 408.60312 393.20938 408.60312Q394.9125 408.60312 396.02188 409.8375Q397.14688 411.07187 397.14688 413.38437Q397.14688 415.775 396.00626 417.07187Q394.88126 418.36874 393.25626 418.36874Q392.44376 418.36874 391.6625 417.9625Q390.89688 417.55624 390.33438 416.775L390.33438 418.15L388.0375 418.15ZM390.49063 413.275Q390.49063 414.72812 390.94376 415.43124Q391.58438 416.41562 392.64688 416.41562Q393.475 416.41562 394.0375 415.7125Q394.61563 415.00937 394.61563 413.50937Q394.61563 411.91562 394.0375 411.2125Q393.45938 410.49374 392.55313 410.49374Q391.6625 410.49374 391.06876 411.18124Q390.49063 411.86874 390.49063 413.275ZM398.27188 415.49374L400.75626 415.10312Q400.9125 415.82187 401.39688 416.19687Q401.88126 416.57187 402.74063 416.57187Q403.70938 416.57187 404.19376 416.22812Q404.50626 415.97812 404.50626 415.57187Q404.50626 415.29062 404.33438 415.10312Q404.14688 414.93124 403.50626 414.775Q400.52188 414.11874 399.725 413.57187Q398.61563 412.82187 398.61563 411.4625Q398.61563 410.25937 399.56876 409.43124Q400.5375 408.60312 402.5375 408.60312Q404.45938 408.60312 405.38126 409.22812Q406.31876 409.85312 406.67813 411.07187L404.35 411.50937Q404.19376 410.9625 403.77188 410.68124Q403.36563 410.38437 402.58438 410.38437Q401.61563 410.38437 401.19376 410.65Q400.9125 410.85312 400.9125 411.15Q400.9125 411.41562 401.1625 411.60312Q401.49063 411.85312 403.45938 412.30624Q405.42813 412.74374 406.225 413.4Q406.99063 414.05624 406.99063 415.22812Q406.99063 416.50937 405.9125 417.44687Q404.85 418.36874 402.74063 418.36874Q400.83438 418.36874 399.725 417.5875Q398.61563 416.80624 398.27188 415.49374ZM413.86563 414.7125L413.86563 412.24374L418.70938 412.24374L418.70938 414.7125L413.86563 414.7125ZM428.05313 418.15L428.05313 407.44687L424.24063 407.44687L424.24063 405.25937L434.475 405.25937L434.475 407.44687L430.6625 407.44687L430.6625 418.15L428.05313 418.15ZM441.55313 415.18124L444.00626 415.5875Q443.5375 416.94687 442.50626 417.66562Q441.49063 418.36874 439.94376 418.36874Q437.50626 418.36874 436.35 416.775Q435.42813 415.49374 435.42813 413.55624Q435.42813 411.22812 436.63126 409.91562Q437.85 408.60312 439.70938 408.60312Q441.7875 408.60312 442.99063 409.97812Q444.19376 411.35312 444.14688 414.19687L437.95938 414.19687Q437.975 415.29062 438.5375 415.9Q439.11563 416.50937 439.975 416.50937Q440.55313 416.50937 440.94376 416.19687Q441.35 415.88437 441.55313 415.18124ZM441.69376 412.68124Q441.6625 411.60312 441.13126 411.05624Q440.6 410.49374 439.85 410.49374Q439.0375 410.49374 438.52188 411.0875Q437.99063 411.66562 437.99063 412.68124L441.69376 412.68124ZM448.99063 411.66562L446.74063 411.25937Q447.13126 409.9 448.05313 409.25937Q448.975 408.60312 450.7875 408.60312Q452.44376 408.60312 453.24063 408.99374Q454.05313 409.38437 454.38126 409.99374Q454.725 410.5875 454.725 412.19687L454.69376 415.0875Q454.69376 416.30624 454.80313 416.9Q454.92813 417.47812 455.25626 418.15L452.81876 418.15Q452.70938 417.9 452.56876 417.41562Q452.50626 417.19687 452.49063 417.13437Q451.85 417.74374 451.13126 418.05624Q450.4125 418.36874 449.6 418.36874Q448.14688 418.36874 447.31876 417.5875Q446.49063 416.79062 446.49063 415.60312Q446.49063 414.80624 446.86563 414.19687Q447.24063 413.57187 447.92813 413.24374Q448.61563 412.91562 449.89688 412.66562Q451.63126 412.3375 452.2875 412.05624L452.2875 411.80624Q452.2875 411.10312 451.92813 410.80624Q451.58438 410.49374 450.61563 410.49374Q449.95938 410.49374 449.58438 410.75937Q449.20938 411.00937 448.99063 411.66562ZM452.2875 413.66562Q451.81876 413.82187 450.7875 414.04062Q449.75626 414.25937 449.44376 414.47812Q448.95938 414.82187 448.95938 415.35312Q448.95938 415.86874 449.35 416.24374Q449.74063 416.61874 450.33438 416.61874Q451.00626 416.61874 451.6 416.18124Q452.05313 415.85312 452.19376 415.36874Q452.2875 415.04062 452.2875 414.16562L452.2875 413.66562ZM456.95938 408.82187L459.24063 408.82187L459.24063 410.0875Q460.45938 408.60312 462.14688 408.60312Q463.0375 408.60312 463.69376 408.97812Q464.36563 409.3375 464.7875 410.0875Q465.39688 409.3375 466.1 408.97812Q466.81876 408.60312 467.63126 408.60312Q468.6625 408.60312 469.36563 409.025Q470.08438 409.44687 470.42813 410.24374Q470.69376 410.85312 470.69376 412.18124L470.69376 418.15L468.20938 418.15L468.20938 412.82187Q468.20938 411.43124 467.95938 411.025Q467.61563 410.49374 466.9125 410.49374Q466.38126 410.49374 465.92813 410.82187Q465.475 411.13437 465.27188 411.74374Q465.06876 412.35312 465.06876 413.66562L465.06876 418.15L462.6 418.15L462.6 413.04062Q462.6 411.66562 462.45938 411.275Q462.33438 410.88437 462.05313 410.69687Q461.7875 410.49374 461.30313 410.49374Q460.74063 410.49374 460.27188 410.80624Q459.81876 411.10312 459.61563 411.69687Q459.42813 412.275 459.42813 413.61874L459.42813 418.15L456.95938 418.15L456.95938 408.82187ZM490.55313 416.57187L489.06876 418.47812Q487.95938 417.94687 486.95938 417.00937Q486.17813 417.7125 485.2875 418.05624Q484.4125 418.38437 483.20938 418.38437Q480.7875 418.38437 479.58438 417.025Q478.64688 415.97812 478.64688 414.61874Q478.64688 413.38437 479.38126 412.4Q480.11563 411.4 481.58438 410.66562Q480.92813 409.88437 480.58438 409.18124Q480.25626 408.47812 480.25626 407.8375Q480.25626 406.66562 481.19376 405.85312Q482.13126 405.04062 483.86563 405.04062Q485.5375 405.04062 486.475 405.9Q487.4125 406.74374 487.4125 407.97812Q487.4125 408.75937 486.94376 409.4625Q486.475 410.16562 485.06876 411.05624L486.86563 413.41562Q487.17813 412.85312 487.39688 411.94687L489.63126 412.4625Q489.30313 413.65 489.05313 414.19687Q488.80313 414.74374 488.52188 415.11874Q488.94376 415.50937 489.6 415.97812Q490.25626 416.43124 490.55313 416.57187ZM483.83438 409.57187L484.50626 409.05624Q485.24063 408.49374 485.24063 407.93124Q485.24063 407.44687 484.88126 407.11874Q484.5375 406.79062 483.92813 406.79062Q483.33438 406.79062 482.99063 407.0875Q482.6625 407.36874 482.6625 407.75937Q482.6625 408.2125 483.225 408.86874L483.83438 409.57187ZM482.86563 412.25937Q482.02188 412.68124 481.6 413.29062Q481.17813 413.9 481.17813 414.525Q481.17813 415.32187 481.69376 415.8375Q482.225 416.3375 483.1 416.3375Q483.67813 416.3375 484.20938 416.11874Q484.75626 415.88437 485.38126 415.35312L482.86563 412.25937ZM497.1625 418.15L497.1625 405.25937L502.64688 405.25937Q504.70938 405.25937 505.64688 405.61874Q506.58438 405.9625 507.14688 406.85312Q507.70938 407.72812 507.70938 408.88437Q507.70938 410.32187 506.85 411.275Q506.00626 412.2125 504.30313 412.4625Q505.14688 412.9625 505.69376 413.55624Q506.24063 414.13437 507.17813 415.63437L508.75626 418.15L505.64688 418.15L503.75626 415.35312Q502.75626 413.8375 502.38126 413.44687Q502.02188 413.05624 501.6 412.91562Q501.19376 412.775 500.30313 412.775L499.77188 412.775L499.77188 418.15L497.1625 418.15ZM499.77188 410.7125L501.69376 410.7125Q503.56876 410.7125 504.0375 410.55624Q504.50626 410.4 504.75626 410.00937Q505.02188 409.61874 505.02188 409.04062Q505.02188 408.4 504.67813 407.99374Q504.33438 407.5875 503.69376 407.49374Q503.38126 407.44687 501.80313 407.44687L499.77188 407.44687L499.77188 410.7125ZM515.5531 415.18124L518.0062 415.5875Q517.5375 416.94687 516.5062 417.66562Q515.4906 418.36874 513.9437 418.36874Q511.50626 418.36874 510.35 416.775Q509.42813 415.49374 509.42813 413.55624Q509.42813 411.22812 510.63126 409.91562Q511.85 408.60312 513.70935 408.60312Q515.7875 408.60312 516.9906 409.97812Q518.1937 411.35312 518.14685 414.19687L511.95938 414.19687Q511.975 415.29062 512.5375 415.9Q513.1156 416.50937 513.975 416.50937Q514.5531 416.50937 514.9437 416.19687Q515.35 415.88437 515.5531 415.18124ZM515.6937 412.68124Q515.6625 411.60312 515.1312 411.05624Q514.6 410.49374 513.85 410.49374Q513.0375 410.49374 512.52185 411.0875Q511.99063 411.66562 511.99063 412.68124L515.6937 412.68124ZM520.27185 415.49374L522.7562 415.10312Q522.9125 415.82187 523.39685 416.19687Q523.8812 416.57187 524.7406 416.57187Q525.70935 416.57187 526.1937 416.22812Q526.5062 415.97812 526.5062 415.57187Q526.5062 415.29062 526.33435 415.10312Q526.14685 414.93124 525.5062 414.775Q522.52185 414.11874 521.725 413.57187Q520.6156 412.82187 520.6156 411.4625Q520.6156 410.25937 521.5687 409.43124Q522.5375 408.60312 524.5375 408.60312Q526.45935 408.60312 527.3812 409.22812Q528.3187 409.85312 528.6781 411.07187L526.35 411.50937Q526.1937 410.9625 525.77185 410.68124Q525.3656 410.38437 524.58435 410.38437Q523.6156 410.38437 523.1937 410.65Q522.9125 410.85312 522.9125 411.15Q522.9125 411.41562 523.1625 411.60312Q523.4906 411.85312 525.45935 412.30624Q527.4281 412.74374 528.225 413.4Q528.9906 414.05624 528.9906 415.22812Q528.9906 416.50937 527.9125 417.44687Q526.85 418.36874 524.7406 418.36874Q522.83435 418.36874 521.725 417.5875Q520.6156 416.80624 520.27185 415.49374ZM536.5531 415.18124L539.0062 415.5875Q538.5375 416.94687 537.5062 417.66562Q536.4906 418.36874 534.9437 418.36874Q532.5062 418.36874 531.35 416.775Q530.4281 415.49374 530.4281 413.55624Q530.4281 411.22812 531.6312 409.91562Q532.85 408.60312 534.70935 408.60312Q536.7875 408.60312 537.9906 409.97812Q539.1937 411.35312 539.14685 414.19687L532.95935 414.19687Q532.975 415.29062 533.5375 415.9Q534.1156 416.50937 534.975 416.50937Q535.5531 416.50937 535.9437 416.19687Q536.35 415.88437 536.5531 415.18124ZM536.6937 412.68124Q536.6625 411.60312 536.1312 411.05624Q535.6 410.49374 534.85 410.49374Q534.0375 410.49374 533.52185 411.0875Q532.9906 411.66562 532.9906 412.68124L536.6937 412.68124ZM544.5062 418.15L542.0375 418.15L542.0375 408.82187L544.33435 408.82187L544.33435 410.15Q544.9125 409.19687 545.3812 408.9Q545.8656 408.60312 546.45935 408.60312Q547.3031 408.60312 548.08435 409.07187L547.3187 411.22812Q546.6937 410.82187 546.1625 410.82187Q545.64685 410.82187 545.27185 411.10312Q544.9125 411.38437 544.70935 412.13437Q544.5062 412.88437 544.5062 415.25937L544.5062 418.15ZM551.70935 418.15L547.9437 408.82187L550.5375 408.82187L552.3031 413.57187L552.8031 415.16562Q553.0062 414.55624 553.0687 414.36874Q553.1781 413.97812 553.3187 413.57187L555.1 408.82187L557.64685 408.82187L553.9281 418.15L551.70935 418.15ZM565.5531 415.18124L568.0062 415.5875Q567.5375 416.94687 566.5062 417.66562Q565.4906 418.36874 563.9437 418.36874Q561.5062 418.36874 560.35 416.775Q559.4281 415.49374 559.4281 413.55624Q559.4281 411.22812 560.6312 409.91562Q561.85 408.60312 563.70935 408.60312Q565.7875 408.60312 566.9906 409.97812Q568.1937 411.35312 568.14685 414.19687L561.95935 414.19687Q561.975 415.29062 562.5375 415.9Q563.1156 416.50937 563.975 416.50937Q564.5531 416.50937 564.9437 416.19687Q565.35 415.88437 565.5531 415.18124ZM565.6937 412.68124Q565.6625 411.60312 565.1312 411.05624Q564.6 410.49374 563.85 410.49374Q563.0375 410.49374 562.52185 411.0875Q561.9906 411.66562 561.9906 412.68124L565.6937 412.68124ZM580.2406 421.93124L578.5375 421.93124Q577.1937 419.91562 576.4906 417.72812Q575.7875 415.525 575.7875 413.47812Q575.7875 410.94687 576.6625 408.68124Q577.4125 406.7125 578.58435 405.04062L580.27185 405.04062Q579.0531 407.7125 578.6 409.5875Q578.1625 411.44687 578.1625 413.54062Q578.1625 414.97812 578.4281 416.49374Q578.6937 417.99374 579.1625 419.36874Q579.45935 420.25937 580.2406 421.93124ZM581.52185 414.72812L583.9125 414.44687Q584.0375 415.35312 584.5375 415.8375Q585.0375 416.32187 585.7406 416.32187Q586.5062 416.32187 587.02185 415.74374Q587.5531 415.16562 587.5531 414.18124Q587.5531 413.24374 587.0531 412.69687Q586.5531 412.15 585.83435 412.15Q585.3656 412.15 584.6937 412.3375L584.975 410.32187Q585.975 410.35312 586.4906 409.9Q587.02185 409.43124 587.02185 408.66562Q587.02185 408.00937 586.6312 407.63437Q586.2562 407.24374 585.6156 407.24374Q584.975 407.24374 584.52185 407.68124Q584.08435 408.11874 583.9906 408.9625L581.70935 408.57187Q581.9437 407.41562 582.4281 406.7125Q582.9125 406.00937 583.7562 405.61874Q584.6156 405.2125 585.6781 405.2125Q587.5062 405.2125 588.6 406.36874Q589.5062 407.32187 589.5062 408.50937Q589.5062 410.2125 587.64685 411.22812Q588.7562 411.4625 589.4125 412.29062Q590.08435 413.11874 590.08435 414.275Q590.08435 415.97812 588.85 417.18124Q587.6156 418.36874 585.7562 418.36874Q584.02185 418.36874 582.8656 417.36874Q581.70935 416.35312 581.52185 414.72812ZM595.7875 405.2125Q597.6625 405.2125 598.70935 406.54062Q599.975 408.13437 599.975 411.79062Q599.975 415.44687 598.70935 417.05624Q597.6625 418.36874 595.7875 418.36874Q593.9125 418.36874 592.7562 416.93124Q591.6 415.47812 591.6 411.775Q591.6 408.13437 592.8656 406.525Q593.9125 405.2125 595.7875 405.2125ZM595.7875 407.25937Q595.33435 407.25937 594.975 407.55624Q594.6312 407.8375 594.4437 408.57187Q594.1937 409.525 594.1937 411.79062Q594.1937 414.05624 594.4125 414.91562Q594.64685 415.75937 594.9906 416.04062Q595.33435 416.32187 595.7875 416.32187Q596.2406 416.32187 596.58435 416.04062Q596.9437 415.74374 597.1312 415.00937Q597.39685 414.05624 597.39685 411.79062Q597.39685 409.525 597.1625 408.68124Q596.9281 407.8375 596.58435 407.55624Q596.2406 407.25937 595.7875 407.25937ZM602.14685 418.15L602.14685 415.68124L604.6156 415.68124L604.6156 418.15L602.14685 418.15ZM606.64685 414.8375L609.1156 414.5875Q609.20935 415.41562 609.725 415.9Q610.2562 416.38437 610.9281 416.38437Q611.70935 416.38437 612.2406 415.75937Q612.77185 415.13437 612.77185 413.86874Q612.77185 412.68124 612.2406 412.0875Q611.70935 411.49374 610.8656 411.49374Q609.8031 411.49374 608.95935 412.43124L606.9437 412.15L608.20935 405.44687L614.7406 405.44687L614.7406 407.75937L610.08435 407.75937L609.6937 409.94687Q610.52185 409.525 611.3812 409.525Q613.0375 409.525 614.1781 410.72812Q615.3187 411.91562 615.3187 413.82187Q615.3187 415.41562 614.39685 416.66562Q613.1312 418.36874 610.89685 418.36874Q609.1156 418.36874 607.9906 417.41562Q606.8656 416.44687 606.64685 414.8375ZM616.52185 414.72812L618.9125 414.44687Q619.0375 415.35312 619.5375 415.8375Q620.0375 416.32187 620.7406 416.32187Q621.5062 416.32187 622.02185 415.74374Q622.5531 415.16562 622.5531 414.18124Q622.5531 413.24374 622.0531 412.69687Q621.5531 412.15 620.83435 412.15Q620.3656 412.15 619.6937 412.3375L619.975 410.32187Q620.975 410.35312 621.4906 409.9Q622.02185 409.43124 622.02185 408.66562Q622.02185 408.00937 621.6312 407.63437Q621.2562 407.24374 620.6156 407.24374Q619.975 407.24374 619.52185 407.68124Q619.08435 408.11874 618.9906 408.9625L616.70935 408.57187Q616.9437 407.41562 617.4281 406.7125Q617.9125 406.00937 618.7562 405.61874Q619.6156 405.2125 620.6781 405.2125Q622.5062 405.2125 623.6 406.36874Q624.5062 407.32187 624.5062 408.50937Q624.5062 410.2125 622.64685 411.22812Q623.7562 411.4625 624.4125 412.29062Q625.08435 413.11874 625.08435 414.275Q625.08435 415.97812 623.85 417.18124Q622.6156 418.36874 620.7562 418.36874Q619.02185 418.36874 617.8656 417.36874Q616.70935 416.35312 616.52185 414.72812ZM626.6312 408.44687Q626.6312 406.7125 627.3812 405.88437Q628.14685 405.04062 629.45935 405.04062Q630.8031 405.04062 631.5531 405.88437Q632.3187 406.7125 632.3187 408.44687Q632.3187 410.18124 631.5531 411.025Q630.8031 411.85312 629.4906 411.85312Q628.14685 411.85312 627.3812 411.025Q626.6312 410.18124 626.6312 408.44687ZM628.5531 408.43124Q628.5531 409.68124 628.85 410.11874Q629.0687 410.43124 629.45935 410.43124Q629.85 410.43124 630.0687 410.11874Q630.35 409.68124 630.35 408.43124Q630.35 407.16562 630.0687 406.74374Q629.85 406.43124 629.45935 406.43124Q629.0687 406.43124 628.85 406.74374Q628.5531 407.16562 628.5531 408.43124ZM631.33435 418.65L629.5062 418.65L636.3656 405.04062L638.14685 405.04062L631.33435 418.65ZM635.3187 415.25937Q635.3187 413.525 636.08435 412.69687Q636.85 411.85312 638.1625 411.85312Q639.4906 411.85312 640.2406 412.69687Q641.0062 413.525 641.0062 415.25937Q641.0062 416.99374 640.2406 417.8375Q639.4906 418.66562 638.1937 418.66562Q636.85 418.66562 636.08435 417.8375Q635.3187 416.99374 635.3187 415.25937ZM637.2562 415.24374Q637.2562 416.50937 637.5375 416.93124Q637.7562 417.25937 638.14685 417.25937Q638.5375 417.25937 638.7562 416.93124Q639.0375 416.50937 639.0375 415.24374Q639.0375 413.99374 638.7562 413.55624Q638.5375 413.24374 638.14685 413.24374Q637.7562 413.24374 637.5375 413.55624Q637.2562 413.99374 637.2562 415.24374ZM643.45935 421.93124Q644.1937 420.36874 644.4906 419.525Q644.7875 418.69687 645.0375 417.61874Q645.2875 416.525 645.4125 415.54062Q645.5375 414.55624 645.5375 413.54062Q645.5375 411.44687 645.08435 409.5875Q644.64685 407.7125 643.4437 405.04062L645.1156 405.04062Q646.4437 406.93124 647.1781 409.05624Q647.9125 411.16562 647.9125 413.35312Q647.9125 415.18124 647.33435 417.29062Q646.6781 419.65 645.1625 421.93124L643.45935 421.93124Z" fill-rule="nonzero"/><path fill="#14bf51" d="M38.0 436.65C38.0 439.9637 35.31371 442.65 32.0 442.65C28.68629 442.65 26.0 439.9637 26.0 436.65C26.0 433.3363 28.68629 430.65 32.0 430.65C35.31371 430.65 38.0 433.3363 38.0 436.65Z" fill-rule="nonzero"/><path fill="#1a1a1a" d="M47.296875 430.25937L52.0625 430.25937Q53.671875 430.25937 54.515625 430.50937Q55.640625 430.8375 56.453125 431.69687Q57.265625 432.55624 57.6875 433.79062Q58.109375 435.025 58.109375 436.8375Q58.109375 438.41562 57.703125 439.57187Q57.21875 440.97812 56.328125 441.85312Q55.65625 442.50937 54.5 442.88437Q53.640625 443.15 52.203125 443.15L47.296875 443.15L47.296875 430.25937ZM49.90625 432.44687L49.90625 440.97812L51.84375 440.97812Q52.9375 440.97812 53.421875 440.85312Q54.046875 440.69687 54.46875 440.32187Q54.890625 439.94687 55.140625 439.0875Q55.40625 438.2125 55.40625 436.7125Q55.40625 435.22812 55.140625 434.43124Q54.890625 433.61874 54.40625 433.18124Q53.9375 432.72812 53.203125 432.57187Q52.65625 432.44687 51.078125 432.44687L49.90625 432.44687ZM71.921875 443.15L69.09375 443.15L67.96875 440.22812L62.828125 440.22812L61.765625 443.15L59.0 443.15L64.015625 430.25937L66.765625 430.25937L71.921875 443.15ZM67.140625 438.05624L65.359375 433.275L63.625 438.05624L67.140625 438.05624ZM72.78125 436.79062Q72.78125 434.82187 73.375 433.47812Q73.8125 432.49374 74.5625 431.7125Q75.328125 430.93124 76.234375 430.55624Q77.4375 430.04062 79.015625 430.04062Q81.859375 430.04062 83.5625 431.80624Q85.28125 433.57187 85.28125 436.72812Q85.28125 439.8375 83.578125 441.60312Q81.890625 443.36874 79.046875 443.36874Q76.171875 443.36874 74.46875 441.61874Q72.78125 439.86874 72.78125 436.79062ZM75.46875 436.69687Q75.46875 438.88437 76.46875 440.025Q77.484375 441.15 79.046875 441.15Q80.59375 441.15 81.59375 440.025Q82.59375 438.9 82.59375 436.66562Q82.59375 434.44687 81.625 433.36874Q80.65625 432.275 79.046875 432.275Q77.4375 432.275 76.453125 433.38437Q75.46875 434.47812 75.46875 436.69687ZM92.015625 439.7125L92.015625 437.24374L96.859375 437.24374L96.859375 439.7125L92.015625 439.7125ZM103.234375 443.15L103.234375 430.25937L105.828125 430.25937L105.828125 443.15L103.234375 443.15ZM116.78125 443.15L114.3125 443.15L114.3125 438.38437Q114.3125 436.86874 114.15625 436.43124Q114.0 435.99374 113.640625 435.74374Q113.28125 435.49374 112.78125 435.49374Q112.140625 435.49374 111.625 435.85312Q111.125 436.19687 110.9375 436.775Q110.75 437.35312 110.75 438.91562L110.75 443.15L108.28125 443.15L108.28125 433.82187L110.5625 433.82187L110.5625 435.18124Q111.796875 433.60312 113.640625 433.60312Q114.46875 433.60312 115.140625 433.9Q115.8125 434.19687 116.15625 434.65Q116.515625 435.10312 116.640625 435.69687Q116.78125 436.275 116.78125 437.35312L116.78125 443.15ZM119.296875 432.55624L119.296875 430.25937L121.765625 430.25937L121.765625 432.55624L119.296875 432.55624ZM119.296875 443.15L119.296875 433.82187L121.765625 433.82187L121.765625 443.15L119.296875 443.15ZM128.57812 433.82187L128.57812 435.79062L126.890625 435.79062L126.890625 439.54062Q126.890625 440.68124 126.9375 440.88437Q126.984375 441.07187 127.15625 441.19687Q127.328125 441.30624 127.578125 441.30624Q127.90625 441.30624 128.5625 441.07187L128.78125 442.99374Q127.90625 443.36874 126.828125 443.36874Q126.15625 443.36874 125.609375 443.15Q125.078125 442.91562 124.828125 442.55624Q124.578125 442.19687 124.484375 441.5875Q124.40625 441.16562 124.40625 439.85312L124.40625 435.79062L123.265625 435.79062L123.265625 433.82187L124.40625 433.82187L124.40625 431.9625L126.890625 430.525L126.890625 433.82187L128.57812 433.82187ZM130.29688 432.55624L130.29688 430.25937L132.76562 430.25937L132.76562 432.55624L130.29688 432.55624ZM130.29688 443.15L130.29688 433.82187L132.76562 433.82187L132.76562 443.15L130.29688 443.15ZM137.14062 436.66562L134.89062 436.25937Q135.28125 434.9 136.20312 434.25937Q137.125 433.60312 138.9375 433.60312Q140.59375 433.60312 141.39062 433.99374Q142.20312 434.38437 142.53125 434.99374Q142.875 435.5875 142.875 437.19687L142.84375 440.0875Q142.84375 441.30624 142.95312 441.9Q143.07812 442.47812 143.40625 443.15L140.96875 443.15Q140.85938 442.9 140.71875 442.41562Q140.65625 442.19687 140.64062 442.13437Q140.0 442.74374 139.28125 443.05624Q138.5625 443.36874 137.75 443.36874Q136.29688 443.36874 135.46875 442.5875Q134.64062 441.79062 134.64062 440.60312Q134.64062 439.80624 135.01562 439.19687Q135.39062 438.57187 136.07812 438.24374Q136.76562 437.91562 138.04688 437.66562Q139.78125 437.3375 140.4375 437.05624L140.4375 436.80624Q140.4375 436.10312 140.07812 435.80624Q139.73438 435.49374 138.76562 435.49374Q138.10938 435.49374 137.73438 435.75937Q137.35938 436.00937 137.14062 436.66562ZM140.4375 438.66562Q139.96875 438.82187 138.9375 439.04062Q137.90625 439.25937 137.59375 439.47812Q137.10938 439.82187 137.10938 440.35312Q137.10938 440.86874 137.5 441.24374Q137.89062 441.61874 138.48438 441.61874Q139.15625 441.61874 139.75 441.18124Q140.20312 440.85312 140.34375 440.36874Q140.4375 440.04062 140.4375 439.16562L140.4375 438.66562ZM145.29688 443.15L145.29688 430.25937L147.76562 430.25937L147.76562 443.15L145.29688 443.15ZM154.65625 438.9625L157.1875 438.7125Q157.40625 439.97812 158.10938 440.5875Q158.8125 441.18124 160.0 441.18124Q161.25 441.18124 161.89062 440.65Q162.53125 440.11874 162.53125 439.4Q162.53125 438.94687 162.25 438.63437Q161.98438 438.30624 161.32812 438.07187Q160.85938 437.91562 159.23438 437.50937Q157.14062 436.99374 156.29688 436.22812Q155.10938 435.16562 155.10938 433.63437Q155.10938 432.65 155.67188 431.80624Q156.23438 430.94687 157.28125 430.49374Q158.32812 430.04062 159.8125 430.04062Q162.25 430.04062 163.46875 431.10312Q164.70312 432.16562 164.76562 433.94687L162.15625 434.05624Q161.98438 433.07187 161.4375 432.63437Q160.89062 432.19687 159.79688 432.19687Q158.65625 432.19687 158.01562 432.66562Q157.60938 432.9625 157.60938 433.4625Q157.60938 433.91562 157.98438 434.24374Q158.48438 434.66562 160.375 435.11874Q162.28125 435.55624 163.1875 436.04062Q164.09375 436.50937 164.60938 437.35312Q165.125 438.18124 165.125 439.4Q165.125 440.50937 164.5 441.47812Q163.89062 442.43124 162.76562 442.91562Q161.64062 443.38437 159.96875 443.38437Q157.53125 443.38437 156.21875 442.25937Q154.90625 441.11874 154.65625 438.9625ZM172.70312 440.18124L175.15625 440.5875Q174.6875 441.94687 173.65625 442.66562Q172.64062 443.36874 171.09375 443.36874Q168.65625 443.36874 167.5 441.775Q166.57812 440.49374 166.57812 438.55624Q166.57812 436.22812 167.78125 434.91562Q169.0 433.60312 170.85938 433.60312Q172.9375 433.60312 174.14062 434.97812Q175.34375 436.35312 175.29688 439.19687L169.10938 439.19687Q169.125 440.29062 169.6875 440.9Q170.26562 441.50937 171.125 441.50937Q171.70312 441.50937 172.09375 441.19687Q172.5 440.88437 172.70312 440.18124ZM172.84375 437.68124Q172.8125 436.60312 172.28125 436.05624Q171.75 435.49374 171.0 435.49374Q170.1875 435.49374 169.67188 436.0875Q169.14062 436.66562 169.14062 437.68124L172.84375 437.68124ZM180.65625 443.15L178.1875 443.15L178.1875 433.82187L180.48438 433.82187L180.48438 435.15Q181.0625 434.19687 181.53125 433.9Q182.01562 433.60312 182.60938 433.60312Q183.45312 433.60312 184.23438 434.07187L183.46875 436.22812Q182.84375 435.82187 182.3125 435.82187Q181.79688 435.82187 181.42188 436.10312Q181.0625 436.38437 180.85938 437.13437Q180.65625 437.88437 180.65625 440.25937L180.65625 443.15ZM187.85938 443.15L184.09375 433.82187L186.6875 433.82187L188.45312 438.57187L188.95312 440.16562Q189.15625 439.55624 189.21875 439.36874Q189.32812 438.97812 189.46875 438.57187L191.25 433.82187L193.79688 433.82187L190.07812 443.15L187.85938 443.15ZM196.29688 432.55624L196.29688 430.25937L198.76562 430.25937L198.76562 432.55624L196.29688 432.55624ZM196.29688 443.15L196.29688 433.82187L198.76562 433.82187L198.76562 443.15L196.29688 443.15ZM209.4375 436.57187L207.0 437.00937Q206.875 436.29062 206.4375 435.91562Q206.0 435.54062 205.3125 435.54062Q204.39062 435.54062 203.82812 436.18124Q203.28125 436.82187 203.28125 438.32187Q203.28125 439.97812 203.84375 440.66562Q204.40625 441.35312 205.34375 441.35312Q206.04688 441.35312 206.48438 440.94687Q206.9375 440.54062 207.125 439.57187L209.54688 439.97812Q209.17188 441.65 208.09375 442.50937Q207.03125 443.36874 205.23438 443.36874Q203.1875 443.36874 201.96875 442.07187Q200.75 440.775 200.75 438.49374Q200.75 436.18124 201.96875 434.9Q203.1875 433.60312 205.28125 433.60312Q206.98438 433.60312 207.98438 434.3375Q208.98438 435.07187 209.4375 436.57187ZM216.70312 440.18124L219.15625 440.5875Q218.6875 441.94687 217.65625 442.66562Q216.64062 443.36874 215.09375 443.36874Q212.65625 443.36874 211.5 441.775Q210.57812 440.49374 210.57812 438.55624Q210.57812 436.22812 211.78125 434.91562Q213.0 433.60312 214.85938 433.60312Q216.9375 433.60312 218.14062 434.97812Q219.34375 436.35312 219.29688 439.19687L213.10938 439.19687Q213.125 440.29062 213.6875 440.9Q214.26562 441.50937 215.125 441.50937Q215.70312 441.50937 216.09375 441.19687Q216.5 440.88437 216.70312 440.18124ZM216.84375 437.68124Q216.8125 436.60312 216.28125 436.05624Q215.75 435.49374 215.0 435.49374Q214.1875 435.49374 213.67188 436.0875Q213.14062 436.66562 213.14062 437.68124L216.84375 437.68124ZM227.3125 443.15L227.3125 430.25937L231.48438 430.25937Q233.85938 430.25937 234.57812 430.4625Q235.6875 430.74374 236.4375 431.72812Q237.1875 432.69687 237.1875 434.22812Q237.1875 435.41562 236.75 436.22812Q236.3125 437.025 235.64062 437.49374Q234.98438 437.9625 234.3125 438.10312Q233.375 438.29062 231.60938 438.29062L229.90625 438.29062L229.90625 443.15L227.3125 443.15ZM229.90625 432.44687L229.90625 436.10312L231.32812 436.10312Q232.875 436.10312 233.39062 435.9Q233.90625 435.69687 234.20312 435.275Q234.5 434.8375 234.5 434.25937Q234.5 433.55624 234.07812 433.10312Q233.67188 432.65 233.04688 432.525Q232.57812 432.44687 231.17188 432.44687L229.90625 432.44687ZM241.65625 443.15L239.1875 443.15L239.1875 433.82187L241.48438 433.82187L241.48438 435.15Q242.0625 434.19687 242.53125 433.9Q243.01562 433.60312 243.60938 433.60312Q244.45312 433.60312 245.23438 434.07187L244.46875 436.22812Q243.84375 435.82187 243.3125 435.82187Q242.79688 435.82187 242.42188 436.10312Q242.0625 436.38437 241.85938 437.13437Q241.65625 437.88437 241.65625 440.25937L241.65625 443.15ZM245.71875 438.35312Q245.71875 437.11874 246.32812 435.97812Q246.9375 434.82187 248.04688 434.2125Q249.15625 433.60312 250.53125 433.60312Q252.64062 433.60312 254.0 434.97812Q255.35938 436.35312 255.35938 438.4625Q255.35938 440.57187 253.98438 441.97812Q252.625 443.36874 250.54688 443.36874Q249.26562 443.36874 248.09375 442.79062Q246.9375 442.19687 246.32812 441.0875Q245.71875 439.9625 245.71875 438.35312ZM248.25 438.47812Q248.25 439.86874 248.90625 440.61874Q249.57812 441.35312 250.53125 441.35312Q251.5 441.35312 252.15625 440.61874Q252.8125 439.86874 252.8125 438.4625Q252.8125 437.0875 252.15625 436.35312Q251.5 435.61874 250.53125 435.61874Q249.57812 435.61874 248.90625 436.35312Q248.25 437.0875 248.25 438.47812ZM259.85938 443.15L256.09375 433.82187L258.6875 433.82187L260.45312 438.57187L260.95312 440.16562Q261.15625 439.55624 261.21875 439.36874Q261.32812 438.97812 261.46875 438.57187L263.25 433.82187L265.79688 433.82187L262.07812 443.15L259.85938 443.15ZM268.29688 432.55624L268.29688 430.25937L270.76562 430.25937L270.76562 432.55624L268.29688 432.55624ZM268.29688 443.15L268.29688 433.82187L270.76562 433.82187L270.76562 443.15L268.29688 443.15ZM281.85938 443.15L279.5625 443.15L279.5625 441.775Q278.98438 442.57187 278.20312 442.97812Q277.4375 443.36874 276.64062 443.36874Q275.03125 443.36874 273.875 442.07187Q272.73438 440.775 272.73438 438.44687Q272.73438 436.07187 273.84375 434.8375Q274.96875 433.60312 276.67188 433.60312Q278.23438 433.60312 279.39062 434.9L279.39062 430.25937L281.85938 430.25937L281.85938 443.15ZM275.26562 438.275Q275.26562 439.775 275.67188 440.44687Q276.26562 441.41562 277.34375 441.41562Q278.20312 441.41562 278.79688 440.69687Q279.39062 439.9625 279.39062 438.525Q279.39062 436.91562 278.8125 436.2125Q278.23438 435.49374 277.32812 435.49374Q276.45312 435.49374 275.85938 436.19687Q275.26562 436.88437 275.26562 438.275ZM289.70312 440.18124L292.15625 440.5875Q291.6875 441.94687 290.65625 442.66562Q289.64062 443.36874 288.09375 443.36874Q285.65625 443.36874 284.5 441.775Q283.57812 440.49374 283.57812 438.55624Q283.57812 436.22812 284.78125 434.91562Q286.0 433.60312 287.85938 433.60312Q289.9375 433.60312 291.14062 434.97812Q292.34375 436.35312 292.29688 439.19687L286.10938 439.19687Q286.125 440.29062 286.6875 440.9Q287.26562 441.50937 288.125 441.50937Q288.70312 441.50937 289.09375 441.19687Q289.5 440.88437 289.70312 440.18124ZM289.84375 437.68124Q289.8125 436.60312 289.28125 436.05624Q288.75 435.49374 288.0 435.49374Q287.1875 435.49374 286.67188 436.0875Q286.14062 436.66562 286.14062 437.68124L289.84375 437.68124ZM297.65625 443.15L295.1875 443.15L295.1875 433.82187L297.48438 433.82187L297.48438 435.15Q298.0625 434.19687 298.53125 433.9Q299.01562 433.60312 299.60938 433.60312Q300.45312 433.60312 301.23438 434.07187L300.46875 436.22812Q299.84375 435.82187 299.3125 435.82187Q298.79688 435.82187 298.42188 436.10312Q298.0625 436.38437 297.85938 437.13437Q297.65625 437.88437 297.65625 440.25937L297.65625 443.15ZM301.42188 440.49374L303.90625 440.10312Q304.0625 440.82187 304.54688 441.19687Q305.03125 441.57187 305.89062 441.57187Q306.85938 441.57187 307.34375 441.22812Q307.65625 440.97812 307.65625 440.57187Q307.65625 440.29062 307.48438 440.10312Q307.29688 439.93124 306.65625 439.775Q303.67188 439.11874 302.875 438.57187Q301.76562 437.82187 301.76562 436.4625Q301.76562 435.25937 302.71875 434.43124Q303.6875 433.60312 305.6875 433.60312Q307.60938 433.60312 308.53125 434.22812Q309.46875 434.85312 309.82812 436.07187L307.5 436.50937Q307.34375 435.9625 306.92188 435.68124Q306.51562 435.38437 305.73438 435.38437Q304.76562 435.38437 304.34375 435.65Q304.0625 435.85312 304.0625 436.15Q304.0625 436.41562 304.3125 436.60312Q304.64062 436.85312 306.60938 437.30624Q308.57812 437.74374 309.375 438.4Q310.14062 439.05624 310.14062 440.22812Q310.14062 441.50937 309.0625 442.44687Q308.0 443.36874 305.89062 443.36874Q303.98438 443.36874 302.875 442.5875Q301.76562 441.80624 301.42188 440.49374ZM321.39062 446.93124L319.6875 446.93124Q318.34375 444.91562 317.64062 442.72812Q316.9375 440.525 316.9375 438.47812Q316.9375 435.94687 317.8125 433.68124Q318.5625 431.7125 319.73438 430.04062L321.42188 430.04062Q320.20312 432.7125 319.75 434.5875Q319.3125 436.44687 319.3125 438.54062Q319.3125 439.97812 319.57812 441.49374Q319.84375 442.99374 320.3125 444.36874Q320.60938 445.25937 321.39062 446.93124ZM331.10938 440.85312L331.10938 443.15L322.45312 443.15Q322.59375 441.85312 323.29688 440.69687Q324.0 439.525 326.0625 437.5875Q327.73438 436.04062 328.125 435.47812Q328.625 434.72812 328.625 433.97812Q328.625 433.15 328.17188 432.7125Q327.73438 432.25937 326.95312 432.25937Q326.1875 432.25937 325.71875 432.72812Q325.26562 433.19687 325.20312 434.275L322.73438 434.025Q322.95312 431.99374 324.10938 431.10312Q325.28125 430.2125 327.01562 430.2125Q328.92188 430.2125 330.01562 431.24374Q331.10938 432.275 331.10938 433.79062Q331.10938 434.66562 330.79688 435.4625Q330.48438 436.24374 329.8125 437.10312Q329.35938 437.68124 328.1875 438.75937Q327.01562 439.82187 326.70312 440.18124Q326.39062 440.525 326.20312 440.85312L331.10938 440.85312ZM333.29688 443.15L333.29688 440.68124L335.76562 440.68124L335.76562 443.15L333.29688 443.15ZM346.10938 440.85312L346.10938 443.15L337.45312 443.15Q337.59375 441.85312 338.29688 440.69687Q339.0 439.525 341.0625 437.5875Q342.73438 436.04062 343.125 435.47812Q343.625 434.72812 343.625 433.97812Q343.625 433.15 343.17188 432.7125Q342.73438 432.25937 341.95312 432.25937Q341.1875 432.25937 340.71875 432.72812Q340.26562 433.19687 340.20312 434.275L337.73438 434.025Q337.95312 431.99374 339.10938 431.10312Q340.28125 430.2125 342.01562 430.2125Q343.92188 430.2125 345.01562 431.24374Q346.10938 432.275 346.10938 433.79062Q346.10938 434.66562 345.79688 435.4625Q345.48438 436.24374 344.8125 437.10312Q344.35938 437.68124 343.1875 438.75937Q342.01562 439.82187 341.70312 440.18124Q341.39062 440.525 341.20312 440.85312L346.10938 440.85312ZM347.79688 439.8375L350.26562 439.5875Q350.35938 440.41562 350.875 440.9Q351.40625 441.38437 352.07812 441.38437Q352.85938 441.38437 353.39062 440.75937Q353.92188 440.13437 353.92188 438.86874Q353.92188 437.68124 353.39062 437.0875Q352.85938 436.49374 352.01562 436.49374Q350.95312 436.49374 350.10938 437.43124L348.09375 437.15L349.35938 430.44687L355.89062 430.44687L355.89062 432.75937L351.23438 432.75937L350.84375 434.94687Q351.67188 434.525 352.53125 434.525Q354.1875 434.525 355.32812 435.72812Q356.46875 436.91562 356.46875 438.82187Q356.46875 440.41562 355.54688 441.66562Q354.28125 443.36874 352.04688 443.36874Q350.26562 443.36874 349.14062 442.41562Q348.01562 441.44687 347.79688 439.8375ZM357.78125 433.44687Q357.78125 431.7125 358.53125 430.88437Q359.29688 430.04062 360.60938 430.04062Q361.95312 430.04062 362.70312 430.88437Q363.46875 431.7125 363.46875 433.44687Q363.46875 435.18124 362.70312 436.025Q361.95312 436.85312 360.64062 436.85312Q359.29688 436.85312 358.53125 436.025Q357.78125 435.18124 357.78125 433.44687ZM359.70312 433.43124Q359.70312 434.68124 360.0 435.11874Q360.21875 435.43124 360.60938 435.43124Q361.0 435.43124 361.21875 435.11874Q361.5 434.68124 361.5 433.43124Q361.5 432.16562 361.21875 431.74374Q361.0 431.43124 360.60938 431.43124Q360.21875 431.43124 360.0 431.74374Q359.70312 432.16562 359.70312 433.43124ZM362.48438 443.65L360.65625 443.65L367.51562 430.04062L369.29688 430.04062L362.48438 443.65ZM366.46875 440.25937Q366.46875 438.525 367.23438 437.69687Q368.0 436.85312 369.3125 436.85312Q370.64062 436.85312 371.39062 437.69687Q372.15625 438.525 372.15625 440.25937Q372.15625 441.99374 371.39062 442.8375Q370.64062 443.66562 369.34375 443.66562Q368.0 443.66562 367.23438 442.8375Q366.46875 441.99374 366.46875 440.25937ZM368.40625 440.24374Q368.40625 441.50937 368.6875 441.93124Q368.90625 442.25937 369.29688 442.25937Q369.6875 442.25937 369.90625 441.93124Q370.1875 441.50937 370.1875 440.24374Q370.1875 438.99374 369.90625 438.55624Q369.6875 438.24374 369.29688 438.24374Q368.90625 438.24374 368.6875 438.55624Q368.40625 438.99374 368.40625 440.24374ZM374.60938 446.93124Q375.34375 445.36874 375.64062 444.525Q375.9375 443.69687 376.1875 442.61874Q376.4375 441.525 376.5625 440.54062Q376.6875 439.55624 376.6875 438.54062Q376.6875 436.44687 376.23438 434.5875Q375.79688 432.7125 374.59375 430.04062L376.26562 430.04062Q377.59375 431.93124 378.32812 434.05624Q379.0625 436.16562 379.0625 438.35312Q379.0625 440.18124 378.48438 442.29062Q377.82812 444.65 376.3125 446.93124L374.60938 446.93124Z" fill-rule="nonzero"/><path fill="#ffb4ff" d="M408.0 436.65C408.0 439.9637 405.31372 442.65 402.0 442.65C398.68628 442.65 396.0 439.9637 396.0 436.65C396.0 433.3363 398.68628 430.65 402.0 430.65C405.31372 430.65 408.0 433.3363 408.0 436.65Z" fill-rule="nonzero"/><path fill="#1a1a1a" d="M417.29688 430.25937L422.0625 430.25937Q423.67188 430.25937 424.51562 430.50937Q425.64062 430.8375 426.45312 431.69687Q427.26562 432.55624 427.6875 433.79062Q428.10938 435.025 428.10938 436.8375Q428.10938 438.41562 427.70312 439.57187Q427.21875 440.97812 426.32812 441.85312Q425.65625 442.50937 424.5 442.88437Q423.64062 443.15 422.20312 443.15L417.29688 443.15L417.29688 430.25937ZM419.90625 432.44687L419.90625 440.97812L421.84375 440.97812Q422.9375 440.97812 423.42188 440.85312Q424.04688 440.69687 424.46875 440.32187Q424.89062 439.94687 425.14062 439.0875Q425.40625 438.2125 425.40625 436.7125Q425.40625 435.22812 425.14062 434.43124Q424.89062 433.61874 424.40625 433.18124Q423.9375 432.72812 423.20312 432.57187Q422.65625 432.44687 421.07812 432.44687L419.90625 432.44687ZM441.92188 443.15L439.09375 443.15L437.96875 440.22812L432.82812 440.22812L431.76562 443.15L429.0 443.15L434.01562 430.25937L436.76562 430.25937L441.92188 443.15ZM437.14062 438.05624L435.35938 433.275L433.625 438.05624L437.14062 438.05624ZM442.78125 436.79062Q442.78125 434.82187 443.375 433.47812Q443.8125 432.49374 444.5625 431.7125Q445.32812 430.93124 446.23438 430.55624Q447.4375 430.04062 449.01562 430.04062Q451.85938 430.04062 453.5625 431.80624Q455.28125 433.57187 455.28125 436.72812Q455.28125 439.8375 453.57812 441.60312Q451.89062 443.36874 449.04688 443.36874Q446.17188 443.36874 444.46875 441.61874Q442.78125 439.86874 442.78125 436.79062ZM445.46875 436.69687Q445.46875 438.88437 446.46875 440.025Q447.48438 441.15 449.04688 441.15Q450.59375 441.15 451.59375 440.025Q452.59375 438.9 452.59375 436.66562Q452.59375 434.44687 451.625 433.36874Q450.65625 432.275 449.04688 432.275Q447.4375 432.275 446.45312 433.38437Q445.46875 434.47812 445.46875 436.69687ZM462.01562 439.7125L462.01562 437.24374L466.85938 437.24374L466.85938 439.7125L462.01562 439.7125ZM473.23438 443.15L473.23438 430.25937L475.82812 430.25937L475.82812 443.15L473.23438 443.15ZM486.78125 443.15L484.3125 443.15L484.3125 438.38437Q484.3125 436.86874 484.15625 436.43124Q484.0 435.99374 483.64062 435.74374Q483.28125 435.49374 482.78125 435.49374Q482.14062 435.49374 481.625 435.85312Q481.125 436.19687 480.9375 436.775Q480.75 437.35312 480.75 438.91562L480.75 443.15L478.28125 443.15L478.28125 433.82187L480.5625 433.82187L480.5625 435.18124Q481.79688 433.60312 483.64062 433.60312Q484.46875 433.60312 485.14062 433.9Q485.8125 434.19687 486.15625 434.65Q486.51562 435.10312 486.64062 435.69687Q486.78125 436.275 486.78125 437.35312L486.78125 443.15ZM489.29688 432.55624L489.29688 430.25937L491.76562 430.25937L491.76562 432.55624L489.29688 432.55624ZM489.29688 443.15L489.29688 433.82187L491.76562 433.82187L491.76562 443.15L489.29688 443.15ZM498.57812 433.82187L498.57812 435.79062L496.89062 435.79062L496.89062 439.54062Q496.89062 440.68124 496.9375 440.88437Q496.98438 441.07187 497.15625 441.19687Q497.32812 441.30624 497.57812 441.30624Q497.90625 441.30624 498.5625 441.07187L498.78125 442.99374Q497.90625 443.36874 496.82812 443.36874Q496.15625 443.36874 495.60938 443.15Q495.07812 442.91562 494.82812 442.55624Q494.57812 442.19687 494.48438 441.5875Q494.40625 441.16562 494.40625 439.85312L494.40625 435.79062L493.26562 435.79062L493.26562 433.82187L494.40625 433.82187L494.40625 431.9625L496.89062 430.525L496.89062 433.82187L498.57812 433.82187ZM500.29688 432.55624L500.29688 430.25937L502.76562 430.25937L502.76562 432.55624L500.29688 432.55624ZM500.29688 443.15L500.29688 433.82187L502.76562 433.82187L502.76562 443.15L500.29688 443.15ZM507.14062 436.66562L504.89062 436.25937Q505.28125 434.9 506.20312 434.25937Q507.125 433.60312 508.9375 433.60312Q510.59375 433.60312 511.39062 433.99374Q512.2031 434.38437 512.53125 434.99374Q512.875 435.5875 512.875 437.19687L512.84375 440.0875Q512.84375 441.30624 512.9531 441.9Q513.0781 442.47812 513.40625 443.15L510.96875 443.15Q510.85938 442.9 510.71875 442.41562Q510.65625 442.19687 510.64062 442.13437Q510.0 442.74374 509.28125 443.05624Q508.5625 443.36874 507.75 443.36874Q506.29688 443.36874 505.46875 442.5875Q504.64062 441.79062 504.64062 440.60312Q504.64062 439.80624 505.01562 439.19687Q505.39062 438.57187 506.07812 438.24374Q506.76562 437.91562 508.04688 437.66562Q509.78125 437.3375 510.4375 437.05624L510.4375 436.80624Q510.4375 436.10312 510.07812 435.80624Q509.73438 435.49374 508.76562 435.49374Q508.10938 435.49374 507.73438 435.75937Q507.35938 436.00937 507.14062 436.66562ZM510.4375 438.66562Q509.96875 438.82187 508.9375 439.04062Q507.90625 439.25937 507.59375 439.47812Q507.10938 439.82187 507.10938 440.35312Q507.10938 440.86874 507.5 441.24374Q507.89062 441.61874 508.48438 441.61874Q509.15625 441.61874 509.75 441.18124Q510.20312 440.85312 510.34375 440.36874Q510.4375 440.04062 510.4375 439.16562L510.4375 438.66562ZM515.2969 443.15L515.2969 430.25937L517.7656 430.25937L517.7656 443.15L515.2969 443.15ZM536.9219 443.15L534.09375 443.15L532.96875 440.22812L527.8281 440.22812L526.7656 443.15L524.0 443.15L529.0156 430.25937L531.7656 430.25937L536.9219 443.15ZM532.1406 438.05624L530.3594 433.275L528.625 438.05624L532.1406 438.05624ZM538.2969 432.55624L538.2969 430.25937L540.7656 430.25937L540.7656 432.55624L538.2969 432.55624ZM538.2969 443.15L538.2969 433.82187L540.7656 433.82187L540.7656 443.15L538.2969 443.15ZM545.65625 443.15L543.1875 443.15L543.1875 433.82187L545.4844 433.82187L545.4844 435.15Q546.0625 434.19687 546.53125 433.9Q547.0156 433.60312 547.6094 433.60312Q548.4531 433.60312 549.2344 434.07187L548.46875 436.22812Q547.84375 435.82187 547.3125 435.82187Q546.7969 435.82187 546.4219 436.10312Q546.0625 436.38437 545.8594 437.13437Q545.65625 437.88437 545.65625 440.25937L545.65625 443.15ZM558.8594 443.15L556.5625 443.15L556.5625 441.775Q555.9844 442.57187 555.2031 442.97812Q554.4375 443.36874 553.6406 443.36874Q552.03125 443.36874 550.875 442.07187Q549.7344 440.775 549.7344 438.44687Q549.7344 436.07187 550.84375 434.8375Q551.96875 433.60312 553.6719 433.60312Q555.2344 433.60312 556.3906 434.9L556.3906 430.25937L558.8594 430.25937L558.8594 443.15ZM552.2656 438.275Q552.2656 439.775 552.6719 440.44687Q553.2656 441.41562 554.34375 441.41562Q555.2031 441.41562 555.7969 440.69687Q556.3906 439.9625 556.3906 438.525Q556.3906 436.91562 555.8125 436.2125Q555.2344 435.49374 554.3281 435.49374Q553.4531 435.49374 552.8594 436.19687Q552.2656 436.88437 552.2656 438.275ZM563.65625 443.15L561.1875 443.15L561.1875 433.82187L563.4844 433.82187L563.4844 435.15Q564.0625 434.19687 564.53125 433.9Q565.0156 433.60312 565.6094 433.60312Q566.4531 433.60312 567.2344 434.07187L566.46875 436.22812Q565.84375 435.82187 565.3125 435.82187Q564.7969 435.82187 564.4219 436.10312Q564.0625 436.38437 563.8594 437.13437Q563.65625 437.88437 563.65625 440.25937L563.65625 443.15ZM567.71875 438.35312Q567.71875 437.11874 568.3281 435.97812Q568.9375 434.82187 570.0469 434.2125Q571.15625 433.60312 572.53125 433.60312Q574.6406 433.60312 576.0 434.97812Q577.3594 436.35312 577.3594 438.4625Q577.3594 440.57187 575.9844 441.97812Q574.625 443.36874 572.5469 443.36874Q571.2656 443.36874 570.09375 442.79062Q568.9375 442.19687 568.3281 441.0875Q567.71875 439.9625 567.71875 438.35312ZM570.25 438.47812Q570.25 439.86874 570.90625 440.61874Q571.5781 441.35312 572.53125 441.35312Q573.5 441.35312 574.15625 440.61874Q574.8125 439.86874 574.8125 438.4625Q574.8125 437.0875 574.15625 436.35312Q573.5 435.61874 572.53125 435.61874Q571.5781 435.61874 570.90625 436.35312Q570.25 437.0875 570.25 438.47812ZM579.21875 433.82187L581.53125 433.82187L581.53125 435.18124Q581.96875 434.47812 582.7344 434.04062Q583.5 433.60312 584.4375 433.60312Q586.0625 433.60312 587.1875 434.88437Q588.3281 436.15 588.3281 438.43124Q588.3281 440.775 587.1875 442.07187Q586.0469 443.36874 584.4219 443.36874Q583.6406 443.36874 583.0156 443.05624Q582.3906 442.74374 581.6875 441.99374L581.6875 446.69687L579.21875 446.69687L579.21875 433.82187ZM581.6719 438.32187Q581.6719 439.9 582.28125 440.65Q582.90625 441.4 583.8125 441.4Q584.6719 441.4 585.2344 440.7125Q585.8125 440.025 585.8125 438.44687Q585.8125 436.97812 585.21875 436.275Q584.6406 435.55624 583.7656 435.55624Q582.8594 435.55624 582.2656 436.25937Q581.6719 436.94687 581.6719 438.32187ZM599.3906 446.93124L597.6875 446.93124Q596.34375 444.91562 595.6406 442.72812Q594.9375 440.525 594.9375 438.47812Q594.9375 435.94687 595.8125 433.68124Q596.5625 431.7125 597.7344 430.04062L599.4219 430.04062Q598.2031 432.7125 597.75 434.5875Q597.3125 436.44687 597.3125 438.54062Q597.3125 439.97812 597.5781 441.49374Q597.84375 442.99374 598.3125 444.36874Q598.6094 445.25937 599.3906 446.93124ZM607.0781 443.15L604.6094 443.15L604.6094 433.8375Q603.2656 435.10312 601.4219 435.7125L601.4219 433.47812Q602.3906 433.15 603.5156 432.275Q604.65625 431.38437 605.0781 430.2125L607.0781 430.2125L607.0781 443.15ZM617.0781 443.15L614.6094 443.15L614.6094 433.8375Q613.2656 435.10312 611.4219 435.7125L611.4219 433.47812Q612.3906 433.15 613.5156 432.275Q614.65625 431.38437 615.0781 430.2125L617.0781 430.2125L617.0781 443.15ZM621.2969 443.15L621.2969 440.68124L623.7656 440.68124L623.7656 443.15L621.2969 443.15ZM625.6719 439.72812L628.0625 439.44687Q628.1875 440.35312 628.6875 440.8375Q629.1875 441.32187 629.8906 441.32187Q630.65625 441.32187 631.1719 440.74374Q631.7031 440.16562 631.7031 439.18124Q631.7031 438.24374 631.2031 437.69687Q630.7031 437.15 629.9844 437.15Q629.5156 437.15 628.84375 437.3375L629.125 435.32187Q630.125 435.35312 630.6406 434.9Q631.1719 434.43124 631.1719 433.66562Q631.1719 433.00937 630.78125 432.63437Q630.40625 432.24374 629.7656 432.24374Q629.125 432.24374 628.6719 432.68124Q628.2344 433.11874 628.1406 433.9625L625.8594 433.57187Q626.09375 432.41562 626.5781 431.7125Q627.0625 431.00937 627.90625 430.61874Q628.7656 430.2125 629.8281 430.2125Q631.65625 430.2125 632.75 431.36874Q633.65625 432.32187 633.65625 433.50937Q633.65625 435.2125 631.7969 436.22812Q632.90625 436.4625 633.5625 437.29062Q634.2344 438.11874 634.2344 439.275Q634.2344 440.97812 633.0 442.18124Q631.7656 443.36874 629.90625 443.36874Q628.1719 443.36874 627.0156 442.36874Q625.8594 441.35312 625.6719 439.72812ZM642.0781 443.15L639.6094 443.15L639.6094 433.8375Q638.2656 435.10312 636.4219 435.7125L636.4219 433.47812Q637.3906 433.15 638.5156 432.275Q639.65625 431.38437 640.0781 430.2125L642.0781 430.2125L642.0781 443.15ZM645.78125 433.44687Q645.78125 431.7125 646.53125 430.88437Q647.2969 430.04062 648.6094 430.04062Q649.9531 430.04062 650.7031 430.88437Q651.46875 431.7125 651.46875 433.44687Q651.46875 435.18124 650.7031 436.025Q649.9531 436.85312 648.6406 436.85312Q647.2969 436.85312 646.53125 436.025Q645.78125 435.18124 645.78125 433.44687ZM647.7031 433.43124Q647.7031 434.68124 648.0 435.11874Q648.21875 435.43124 648.6094 435.43124Q649.0 435.43124 649.21875 435.11874Q649.5 434.68124 649.5 433.43124Q649.5 432.16562 649.21875 431.74374Q649.0 431.43124 648.6094 431.43124Q648.21875 431.43124 648.0 431.74374Q647.7031 432.16562 647.7031 433.43124ZM650.4844 443.65L648.65625 443.65L655.5156 430.04062L657.2969 430.04062L650.4844 443.65ZM654.46875 440.25937Q654.46875 438.525 655.2344 437.69687Q656.0 436.85312 657.3125 436.85312Q658.6406 436.85312 659.3906 437.69687Q660.15625 438.525 660.15625 440.25937Q660.15625 441.99374 659.3906 442.8375Q658.6406 443.66562 657.34375 443.66562Q656.0 443.66562 655.2344 442.8375Q654.46875 441.99374 654.46875 440.25937ZM656.40625 440.24374Q656.40625 441.50937 656.6875 441.93124Q656.90625 442.25937 657.2969 442.25937Q657.6875 442.25937 657.90625 441.93124Q658.1875 441.50937 658.1875 440.24374Q658.1875 438.99374 657.90625 438.55624Q657.6875 438.24374 657.2969 438.24374Q656.90625 438.24374 656.6875 438.55624Q656.40625 438.99374 656.40625 440.24374ZM662.6094 446.93124Q663.34375 445.36874 663.6406 444.525Q663.9375 443.69687 664.1875 442.61874Q664.4375 441.525 664.5625 440.54062Q664.6875 439.55624 664.6875 438.54062Q664.6875 436.44687 664.2344 434.5875Q663.7969 432.7125 662.59375 430.04062L664.2656 430.04062Q665.59375 431.93124 666.3281 434.05624Q667.0625 436.16562 667.0625 438.35312Q667.0625 440.18124 666.4844 442.29062Q665.8281 444.65 664.3125 446.93124L662.6094 446.93124Z" fill-rule="nonzero"/><path fill="#1470e8" d="M57.5 461.65C57.5 464.9637 54.81371 467.65 51.5 467.65C48.18629 467.65 45.5 464.9637 45.5 461.65C45.5 458.3363 48.18629 455.65 51.5 455.65C54.81371 455.65 57.5 458.3363 57.5 461.65Z" fill-rule="nonzero"/><path fill="#1a1a1a" d="M66.796875 455.25937L71.5625 455.25937Q73.171875 455.25937 74.015625 455.50937Q75.140625 455.8375 75.953125 456.69687Q76.765625 457.55624 77.1875 458.79062Q77.609375 460.025 77.609375 461.8375Q77.609375 463.41562 77.203125 464.57187Q76.71875 465.97812 75.828125 466.85312Q75.15625 467.50937 74.0 467.88437Q73.140625 468.15 71.703125 468.15L66.796875 468.15L66.796875 455.25937ZM69.40625 457.44687L69.40625 465.97812L71.34375 465.97812Q72.4375 465.97812 72.921875 465.85312Q73.546875 465.69687 73.96875 465.32187Q74.390625 464.94687 74.640625 464.0875Q74.90625 463.2125 74.90625 461.7125Q74.90625 460.22812 74.640625 459.43124Q74.390625 458.61874 73.90625 458.18124Q73.4375 457.72812 72.703125 457.57187Q72.15625 457.44687 70.578125 457.44687L69.40625 457.44687ZM91.421875 468.15L88.59375 468.15L87.46875 465.22812L82.328125 465.22812L81.265625 468.15L78.5 468.15L83.515625 455.25937L86.265625 455.25937L91.421875 468.15ZM86.640625 463.05624L84.859375 458.275L83.125 463.05624L86.640625 463.05624ZM92.28125 461.79062Q92.28125 459.82187 92.875 458.47812Q93.3125 457.49374 94.0625 456.7125Q94.828125 455.93124 95.734375 455.55624Q96.9375 455.04062 98.515625 455.04062Q101.359375 455.04062 103.0625 456.80624Q104.78125 458.57187 104.78125 461.72812Q104.78125 464.8375 103.078125 466.60312Q101.390625 468.36874 98.546875 468.36874Q95.671875 468.36874 93.96875 466.61874Q92.28125 464.86874 92.28125 461.79062ZM94.96875 461.69687Q94.96875 463.88437 95.96875 465.025Q96.984375 466.15 98.546875 466.15Q100.09375 466.15 101.09375 465.025Q102.09375 463.9 102.09375 461.66562Q102.09375 459.44687 101.125 458.36874Q100.15625 457.275 98.546875 457.275Q96.9375 457.275 95.953125 458.38437Q94.96875 459.47812 94.96875 461.69687ZM111.515625 464.7125L111.515625 462.24374L116.359375 462.24374L116.359375 464.7125L111.515625 464.7125ZM128.79688 463.41562L128.79688 461.24374L134.40625 461.24374L134.40625 466.36874Q133.59375 467.16562 132.03125 467.775Q130.48438 468.36874 128.90625 468.36874Q126.875 468.36874 125.375 467.525Q123.875 466.66562 123.109375 465.10312Q122.359375 463.525 122.359375 461.66562Q122.359375 459.65 123.203125 458.0875Q124.046875 456.525 125.671875 455.68124Q126.921875 455.04062 128.76562 455.04062Q131.15625 455.04062 132.5 456.05624Q133.85938 457.05624 134.25 458.8375L131.65625 459.32187Q131.39062 458.36874 130.64062 457.82187Q129.89062 457.275 128.76562 457.275Q127.0625 457.275 126.046875 458.35312Q125.046875 459.43124 125.046875 461.55624Q125.046875 463.85312 126.0625 465.00937Q127.078125 466.15 128.73438 466.15Q129.54688 466.15 130.35938 465.8375Q131.1875 465.50937 131.78125 465.04062L131.78125 463.41562L128.79688 463.41562ZM135.625 458.82187L138.25 458.82187L140.48438 465.44687L142.65625 458.82187L145.21875 458.82187L141.92188 467.79062L141.34375 469.43124Q141.01562 470.24374 140.71875 470.66562Q140.42188 471.10312 140.03125 471.36874Q139.65625 471.63437 139.09375 471.775Q138.54688 471.93124 137.84375 471.93124Q137.125 471.93124 136.4375 471.79062L136.21875 469.85312Q136.79688 469.9625 137.26562 469.9625Q138.125 469.9625 138.53125 469.4625Q138.95312 468.9625 139.17188 468.18124L135.625 458.82187ZM150.15625 468.15L147.6875 468.15L147.6875 458.82187L149.98438 458.82187L149.98438 460.15Q150.5625 459.19687 151.03125 458.9Q151.51562 458.60312 152.10938 458.60312Q152.95312 458.60312 153.73438 459.07187L152.96875 461.22812Q152.34375 460.82187 151.8125 460.82187Q151.29688 460.82187 150.92188 461.10312Q150.5625 461.38437 150.35938 462.13437Q150.15625 462.88437 150.15625 465.25937L150.15625 468.15ZM154.21875 463.35312Q154.21875 462.11874 154.82812 460.97812Q155.4375 459.82187 156.54688 459.2125Q157.65625 458.60312 159.03125 458.60312Q161.14062 458.60312 162.5 459.97812Q163.85938 461.35312 163.85938 463.4625Q163.85938 465.57187 162.48438 466.97812Q161.125 468.36874 159.04688 468.36874Q157.76562 468.36874 156.59375 467.79062Q155.4375 467.19687 154.82812 466.0875Q154.21875 464.9625 154.21875 463.35312ZM156.75 463.47812Q156.75 464.86874 157.40625 465.61874Q158.07812 466.35312 159.03125 466.35312Q160.0 466.35312 160.65625 465.61874Q161.3125 464.86874 161.3125 463.4625Q161.3125 462.0875 160.65625 461.35312Q160.0 460.61874 159.03125 460.61874Q158.07812 460.61874 157.40625 461.35312Q156.75 462.0875 156.75 463.47812ZM164.92188 465.49374L167.40625 465.10312Q167.5625 465.82187 168.04688 466.19687Q168.53125 466.57187 169.39062 466.57187Q170.35938 466.57187 170.84375 466.22812Q171.15625 465.97812 171.15625 465.57187Q171.15625 465.29062 170.98438 465.10312Q170.79688 464.93124 170.15625 464.775Q167.17188 464.11874 166.375 463.57187Q165.26562 462.82187 165.26562 461.4625Q165.26562 460.25937 166.21875 459.43124Q167.1875 458.60312 169.1875 458.60312Q171.10938 458.60312 172.03125 459.22812Q172.96875 459.85312 173.32812 461.07187L171.0 461.50937Q170.84375 460.9625 170.42188 460.68124Q170.01562 460.38437 169.23438 460.38437Q168.26562 460.38437 167.84375 460.65Q167.5625 460.85312 167.5625 461.15Q167.5625 461.41562 167.8125 461.60312Q168.14062 461.85312 170.10938 462.30624Q172.07812 462.74374 172.875 463.4Q173.64062 464.05624 173.64062 465.22812Q173.64062 466.50937 172.5625 467.44687Q171.5 468.36874 169.39062 468.36874Q167.48438 468.36874 166.375 467.5875Q165.26562 466.80624 164.92188 465.49374ZM183.9375 461.57187L181.5 462.00937Q181.375 461.29062 180.9375 460.91562Q180.5 460.54062 179.8125 460.54062Q178.89062 460.54062 178.32812 461.18124Q177.78125 461.82187 177.78125 463.32187Q177.78125 464.97812 178.34375 465.66562Q178.90625 466.35312 179.84375 466.35312Q180.54688 466.35312 180.98438 465.94687Q181.4375 465.54062 181.625 464.57187L184.04688 464.97812Q183.67188 466.65 182.59375 467.50937Q181.53125 468.36874 179.73438 468.36874Q177.6875 468.36874 176.46875 467.07187Q175.25 465.775 175.25 463.49374Q175.25 461.18124 176.46875 459.9Q177.6875 458.60312 179.78125 458.60312Q181.48438 458.60312 182.48438 459.3375Q183.48438 460.07187 183.9375 461.57187ZM185.21875 463.35312Q185.21875 462.11874 185.82812 460.97812Q186.4375 459.82187 187.54688 459.2125Q188.65625 458.60312 190.03125 458.60312Q192.14062 458.60312 193.5 459.97812Q194.85938 461.35312 194.85938 463.4625Q194.85938 465.57187 193.48438 466.97812Q192.125 468.36874 190.04688 468.36874Q188.76562 468.36874 187.59375 467.79062Q186.4375 467.19687 185.82812 466.0875Q185.21875 464.9625 185.21875 463.35312ZM187.75 463.47812Q187.75 464.86874 188.40625 465.61874Q189.07812 466.35312 190.03125 466.35312Q191.0 466.35312 191.65625 465.61874Q192.3125 464.86874 192.3125 463.4625Q192.3125 462.0875 191.65625 461.35312Q191.0 460.61874 190.03125 460.61874Q189.07812 460.61874 188.40625 461.35312Q187.75 462.0875 187.75 463.47812ZM196.71875 458.82187L199.03125 458.82187L199.03125 460.18124Q199.46875 459.47812 200.23438 459.04062Q201.0 458.60312 201.9375 458.60312Q203.5625 458.60312 204.6875 459.88437Q205.82812 461.15 205.82812 463.43124Q205.82812 465.775 204.6875 467.07187Q203.54688 468.36874 201.92188 468.36874Q201.14062 468.36874 200.51562 468.05624Q199.89062 467.74374 199.1875 466.99374L199.1875 471.69687L196.71875 471.69687L196.71875 458.82187ZM199.17188 463.32187Q199.17188 464.9 199.78125 465.65Q200.40625 466.4 201.3125 466.4Q202.17188 466.4 202.73438 465.7125Q203.3125 465.025 203.3125 463.44687Q203.3125 461.97812 202.71875 461.275Q202.14062 460.55624 201.26562 460.55624Q200.35938 460.55624 199.76562 461.25937Q199.17188 461.94687 199.17188 463.32187ZM213.20312 465.18124L215.65625 465.5875Q215.1875 466.94687 214.15625 467.66562Q213.14062 468.36874 211.59375 468.36874Q209.15625 468.36874 208.0 466.775Q207.07812 465.49374 207.07812 463.55624Q207.07812 461.22812 208.28125 459.91562Q209.5 458.60312 211.35938 458.60312Q213.4375 458.60312 214.64062 459.97812Q215.84375 461.35312 215.79688 464.19687L209.60938 464.19687Q209.625 465.29062 210.1875 465.9Q210.76562 466.50937 211.625 466.50937Q212.20312 466.50937 212.59375 466.19687Q213.0 465.88437 213.20312 465.18124ZM213.34375 462.68124Q213.3125 461.60312 212.78125 461.05624Q212.25 460.49374 211.5 460.49374Q210.6875 460.49374 210.17188 461.0875Q209.64062 461.66562 209.64062 462.68124L213.34375 462.68124ZM223.82812 468.15L223.82812 455.25937L232.65625 455.25937L232.65625 457.44687L226.42188 457.44687L226.42188 460.49374L231.8125 460.49374L231.8125 462.68124L226.42188 462.68124L226.42188 468.15L223.82812 468.15ZM234.21875 463.35312Q234.21875 462.11874 234.82812 460.97812Q235.4375 459.82187 236.54688 459.2125Q237.65625 458.60312 239.03125 458.60312Q241.14062 458.60312 242.5 459.97812Q243.85938 461.35312 243.85938 463.4625Q243.85938 465.57187 242.48438 466.97812Q241.125 468.36874 239.04688 468.36874Q237.76562 468.36874 236.59375 467.79062Q235.4375 467.19687 234.82812 466.0875Q234.21875 464.9625 234.21875 463.35312ZM236.75 463.47812Q236.75 464.86874 237.40625 465.61874Q238.07812 466.35312 239.03125 466.35312Q240.0 466.35312 240.65625 465.61874Q241.3125 464.86874 241.3125 463.4625Q241.3125 462.0875 240.65625 461.35312Q240.0 460.61874 239.03125 460.61874Q238.07812 460.61874 237.40625 461.35312Q236.75 462.0875 236.75 463.47812ZM251.9375 468.15L251.9375 466.75937Q251.42188 467.49374 250.59375 467.93124Q249.76562 468.36874 248.84375 468.36874Q247.90625 468.36874 247.15625 467.9625Q246.40625 467.54062 246.0625 466.79062Q245.73438 466.04062 245.73438 464.72812L245.73438 458.82187L248.20312 458.82187L248.20312 463.10312Q248.20312 465.07187 248.34375 465.525Q248.48438 465.9625 248.84375 466.22812Q249.20312 466.47812 249.75 466.47812Q250.39062 466.47812 250.89062 466.13437Q251.39062 465.79062 251.57812 465.275Q251.76562 464.75937 251.76562 462.75937L251.76562 458.82187L254.23438 458.82187L254.23438 468.15L251.9375 468.15ZM265.28125 468.15L262.8125 468.15L262.8125 463.38437Q262.8125 461.86874 262.65625 461.43124Q262.5 460.99374 262.14062 460.74374Q261.78125 460.49374 261.28125 460.49374Q260.64062 460.49374 260.125 460.85312Q259.625 461.19687 259.4375 461.775Q259.25 462.35312 259.25 463.91562L259.25 468.15L256.78125 468.15L256.78125 458.82187L259.0625 458.82187L259.0625 460.18124Q260.29688 458.60312 262.14062 458.60312Q262.96875 458.60312 263.64062 458.9Q264.3125 459.19687 264.65625 459.65Q265.01562 460.10312 265.14062 460.69687Q265.28125 461.275 265.28125 462.35312L265.28125 468.15ZM276.35938 468.15L274.0625 468.15L274.0625 466.775Q273.48438 467.57187 272.70312 467.97812Q271.9375 468.36874 271.14062 468.36874Q269.53125 468.36874 268.375 467.07187Q267.23438 465.775 267.23438 463.44687Q267.23438 461.07187 268.34375 459.8375Q269.46875 458.60312 271.17188 458.60312Q272.73438 458.60312 273.89062 459.9L273.89062 455.25937L276.35938 455.25937L276.35938 468.15ZM269.76562 463.275Q269.76562 464.775 270.17188 465.44687Q270.76562 466.41562 271.84375 466.41562Q272.70312 466.41562 273.29688 465.69687Q273.89062 464.9625 273.89062 463.525Q273.89062 461.91562 273.3125 461.2125Q272.73438 460.49374 271.82812 460.49374Q270.95312 460.49374 270.35938 461.19687Q269.76562 461.88437 269.76562 463.275ZM280.64062 461.66562L278.39062 461.25937Q278.78125 459.9 279.70312 459.25937Q280.625 458.60312 282.4375 458.60312Q284.09375 458.60312 284.89062 458.99374Q285.70312 459.38437 286.03125 459.99374Q286.375 460.5875 286.375 462.19687L286.34375 465.0875Q286.34375 466.30624 286.45312 466.9Q286.57812 467.47812 286.90625 468.15L284.46875 468.15Q284.35938 467.9 284.21875 467.41562Q284.15625 467.19687 284.14062 467.13437Q283.5 467.74374 282.78125 468.05624Q282.0625 468.36874 281.25 468.36874Q279.79688 468.36874 278.96875 467.5875Q278.14062 466.79062 278.14062 465.60312Q278.14062 464.80624 278.51562 464.19687Q278.89062 463.57187 279.57812 463.24374Q280.26562 462.91562 281.54688 462.66562Q283.28125 462.3375 283.9375 462.05624L283.9375 461.80624Q283.9375 461.10312 283.57812 460.80624Q283.23438 460.49374 282.26562 460.49374Q281.60938 460.49374 281.23438 460.75937Q280.85938 461.00937 280.64062 461.66562ZM283.9375 463.66562Q283.46875 463.82187 282.4375 464.04062Q281.40625 464.25937 281.09375 464.47812Q280.60938 464.82187 280.60938 465.35312Q280.60938 465.86874 281.0 466.24374Q281.39062 466.61874 281.98438 466.61874Q282.65625 466.61874 283.25 466.18124Q283.70312 465.85312 283.84375 465.36874Q283.9375 465.04062 283.9375 464.16562L283.9375 463.66562ZM293.07812 458.82187L293.07812 460.79062L291.39062 460.79062L291.39062 464.54062Q291.39062 465.68124 291.4375 465.88437Q291.48438 466.07187 291.65625 466.19687Q291.82812 466.30624 292.07812 466.30624Q292.40625 466.30624 293.0625 466.07187L293.28125 467.99374Q292.40625 468.36874 291.32812 468.36874Q290.65625 468.36874 290.10938 468.15Q289.57812 467.91562 289.32812 467.55624Q289.07812 467.19687 288.98438 466.5875Q288.90625 466.16562 288.90625 464.85312L288.90625 460.79062L287.76562 460.79062L287.76562 458.82187L288.90625 458.82187L288.90625 456.9625L291.39062 455.525L291.39062 458.82187L293.07812 458.82187ZM294.79688 457.55624L294.79688 455.25937L297.26562 455.25937L297.26562 457.55624L294.79688 457.55624ZM294.79688 468.15L294.79688 458.82187L297.26562 458.82187L297.26562 468.15L294.79688 468.15ZM299.21875 463.35312Q299.21875 462.11874 299.82812 460.97812Q300.4375 459.82187 301.54688 459.2125Q302.65625 458.60312 304.03125 458.60312Q306.14062 458.60312 307.5 459.97812Q308.85938 461.35312 308.85938 463.4625Q308.85938 465.57187 307.48438 466.97812Q306.125 468.36874 304.04688 468.36874Q302.76562 468.36874 301.59375 467.79062Q300.4375 467.19687 299.82812 466.0875Q299.21875 464.9625 299.21875 463.35312ZM301.75 463.47812Q301.75 464.86874 302.40625 465.61874Q303.07812 466.35312 304.03125 466.35312Q305.0 466.35312 305.65625 465.61874Q306.3125 464.86874 306.3125 463.4625Q306.3125 462.0875 305.65625 461.35312Q305.0 460.61874 304.03125 460.61874Q303.07812 460.61874 302.40625 461.35312Q301.75 462.0875 301.75 463.47812ZM319.28125 468.15L316.8125 468.15L316.8125 463.38437Q316.8125 461.86874 316.65625 461.43124Q316.5 460.99374 316.14062 460.74374Q315.78125 460.49374 315.28125 460.49374Q314.64062 460.49374 314.125 460.85312Q313.625 461.19687 313.4375 461.775Q313.25 462.35312 313.25 463.91562L313.25 468.15L310.78125 468.15L310.78125 458.82187L313.0625 458.82187L313.0625 460.18124Q314.29688 458.60312 316.14062 458.60312Q316.96875 458.60312 317.64062 458.9Q318.3125 459.19687 318.65625 459.65Q319.01562 460.10312 319.14062 460.69687Q319.28125 461.275 319.28125 462.35312L319.28125 468.15ZM330.89062 471.93124L329.1875 471.93124Q327.84375 469.91562 327.14062 467.72812Q326.4375 465.525 326.4375 463.47812Q326.4375 460.94687 327.3125 458.68124Q328.0625 456.7125 329.23438 455.04062L330.92188 455.04062Q329.70312 457.7125 329.25 459.5875Q328.8125 461.44687 328.8125 463.54062Q328.8125 464.97812 329.07812 466.49374Q329.34375 467.99374 329.8125 469.36874Q330.10938 470.25937 330.89062 471.93124ZM338.57812 468.15L336.10938 468.15L336.10938 458.8375Q334.76562 460.10312 332.92188 460.7125L332.92188 458.47812Q333.89062 458.15 335.01562 457.275Q336.15625 456.38437 336.57812 455.2125L338.57812 455.2125L338.57812 468.15ZM342.29688 464.8375L344.76562 464.5875Q344.85938 465.41562 345.375 465.9Q345.90625 466.38437 346.57812 466.38437Q347.35938 466.38437 347.89062 465.75937Q348.42188 465.13437 348.42188 463.86874Q348.42188 462.68124 347.89062 462.0875Q347.35938 461.49374 346.51562 461.49374Q345.45312 461.49374 344.60938 462.43124L342.59375 462.15L343.85938 455.44687L350.39062 455.44687L350.39062 457.75937L345.73438 457.75937L345.34375 459.94687Q346.17188 459.525 347.03125 459.525Q348.6875 459.525 349.82812 460.72812Q350.96875 461.91562 350.96875 463.82187Q350.96875 465.41562 350.04688 466.66562Q348.78125 468.36874 346.54688 468.36874Q344.76562 468.36874 343.64062 467.41562Q342.51562 466.44687 342.29688 464.8375ZM352.79688 468.15L352.79688 465.68124L355.26562 465.68124L355.26562 468.15L352.79688 468.15ZM361.4375 455.2125Q363.3125 455.2125 364.35938 456.54062Q365.625 458.13437 365.625 461.79062Q365.625 465.44687 364.35938 467.05624Q363.3125 468.36874 361.4375 468.36874Q359.5625 468.36874 358.40625 466.93124Q357.25 465.47812 357.25 461.775Q357.25 458.13437 358.51562 456.525Q359.5625 455.2125 361.4375 455.2125ZM361.4375 457.25937Q360.98438 457.25937 360.625 457.55624Q360.28125 457.8375 360.09375 458.57187Q359.84375 459.525 359.84375 461.79062Q359.84375 464.05624 360.0625 464.91562Q360.29688 465.75937 360.64062 466.04062Q360.98438 466.32187 361.4375 466.32187Q361.89062 466.32187 362.23438 466.04062Q362.59375 465.74374 362.78125 465.00937Q363.04688 464.05624 363.04688 461.79062Q363.04688 459.525 362.8125 458.68124Q362.57812 457.8375 362.23438 457.55624Q361.89062 457.25937 361.4375 457.25937ZM371.4375 455.2125Q373.3125 455.2125 374.35938 456.54062Q375.625 458.13437 375.625 461.79062Q375.625 465.44687 374.35938 467.05624Q373.3125 468.36874 371.4375 468.36874Q369.5625 468.36874 368.40625 466.93124Q367.25 465.47812 367.25 461.775Q367.25 458.13437 368.51562 456.525Q369.5625 455.2125 371.4375 455.2125ZM371.4375 457.25937Q370.98438 457.25937 370.625 457.55624Q370.28125 457.8375 370.09375 458.57187Q369.84375 459.525 369.84375 461.79062Q369.84375 464.05624 370.0625 464.91562Q370.29688 465.75937 370.64062 466.04062Q370.98438 466.32187 371.4375 466.32187Q371.89062 466.32187 372.23438 466.04062Q372.59375 465.74374 372.78125 465.00937Q373.04688 464.05624 373.04688 461.79062Q373.04688 459.525 372.8125 458.68124Q372.57812 457.8375 372.23438 457.55624Q371.89062 457.25937 371.4375 457.25937ZM377.28125 458.44687Q377.28125 456.7125 378.03125 455.88437Q378.79688 455.04062 380.10938 455.04062Q381.45312 455.04062 382.20312 455.88437Q382.96875 456.7125 382.96875 458.44687Q382.96875 460.18124 382.20312 461.025Q381.45312 461.85312 380.14062 461.85312Q378.79688 461.85312 378.03125 461.025Q377.28125 460.18124 377.28125 458.44687ZM379.20312 458.43124Q379.20312 459.68124 379.5 460.11874Q379.71875 460.43124 380.10938 460.43124Q380.5 460.43124 380.71875 460.11874Q381.0 459.68124 381.0 458.43124Q381.0 457.16562 380.71875 456.74374Q380.5 456.43124 380.10938 456.43124Q379.71875 456.43124 379.5 456.74374Q379.20312 457.16562 379.20312 458.43124ZM381.98438 468.65L380.15625 468.65L387.01562 455.04062L388.79688 455.04062L381.98438 468.65ZM385.96875 465.25937Q385.96875 463.525 386.73438 462.69687Q387.5 461.85312 388.8125 461.85312Q390.14062 461.85312 390.89062 462.69687Q391.65625 463.525 391.65625 465.25937Q391.65625 466.99374 390.89062 467.8375Q390.14062 468.66562 388.84375 468.66562Q387.5 468.66562 386.73438 467.8375Q385.96875 466.99374 385.96875 465.25937ZM387.90625 465.24374Q387.90625 466.50937 388.1875 466.93124Q388.40625 467.25937 388.79688 467.25937Q389.1875 467.25937 389.40625 466.93124Q389.6875 466.50937 389.6875 465.24374Q389.6875 463.99374 389.40625 463.55624Q389.1875 463.24374 388.79688 463.24374Q388.40625 463.24374 388.1875 463.55624Q387.90625 463.99374 387.90625 465.24374ZM394.10938 471.93124Q394.84375 470.36874 395.14062 469.525Q395.4375 468.69687 395.6875 467.61874Q395.9375 466.525 396.0625 465.54062Q396.1875 464.55624 396.1875 463.54062Q396.1875 461.44687 395.73438 459.5875Q395.29688 457.7125 394.09375 455.04062L395.76562 455.04062Q397.09375 456.93124 397.82812 459.05624Q398.5625 461.16562 398.5625 463.35312Q398.5625 465.18124 397.98438 467.29062Q397.32812 469.65 395.8125 471.93124L394.10938 471.93124Z" fill-rule="nonzero"/><path fill="#91f5f5" d="M427.5 461.65C427.5 464.9637 424.81372 467.65 421.5 467.65C418.18628 467.65 415.5 464.9637 415.5 461.65C415.5 458.3363 418.18628 455.65 421.5 455.65C424.81372 455.65 427.5 458.3363 427.5 461.65Z" fill-rule="nonzero"/><path fill="#1a1a1a" d="M436.79688 455.25937L441.5625 455.25937Q443.17188 455.25937 444.01562 455.50937Q445.14062 455.8375 445.95312 456.69687Q446.76562 457.55624 447.1875 458.79062Q447.60938 460.025 447.60938 461.8375Q447.60938 463.41562 447.20312 464.57187Q446.71875 465.97812 445.82812 466.85312Q445.15625 467.50937 444.0 467.88437Q443.14062 468.15 441.70312 468.15L436.79688 468.15L436.79688 455.25937ZM439.40625 457.44687L439.40625 465.97812L441.34375 465.97812Q442.4375 465.97812 442.92188 465.85312Q443.54688 465.69687 443.96875 465.32187Q444.39062 464.94687 444.64062 464.0875Q444.90625 463.2125 444.90625 461.7125Q444.90625 460.22812 444.64062 459.43124Q444.39062 458.61874 443.90625 458.18124Q443.4375 457.72812 442.70312 457.57187Q442.15625 457.44687 440.57812 457.44687L439.40625 457.44687ZM461.42188 468.15L458.59375 468.15L457.46875 465.22812L452.32812 465.22812L451.26562 468.15L448.5 468.15L453.51562 455.25937L456.26562 455.25937L461.42188 468.15ZM456.64062 463.05624L454.85938 458.275L453.125 463.05624L456.64062 463.05624ZM462.28125 461.79062Q462.28125 459.82187 462.875 458.47812Q463.3125 457.49374 464.0625 456.7125Q464.82812 455.93124 465.73438 455.55624Q466.9375 455.04062 468.51562 455.04062Q471.35938 455.04062 473.0625 456.80624Q474.78125 458.57187 474.78125 461.72812Q474.78125 464.8375 473.07812 466.60312Q471.39062 468.36874 468.54688 468.36874Q465.67188 468.36874 463.96875 466.61874Q462.28125 464.86874 462.28125 461.79062ZM464.96875 461.69687Q464.96875 463.88437 465.96875 465.025Q466.98438 466.15 468.54688 466.15Q470.09375 466.15 471.09375 465.025Q472.09375 463.9 472.09375 461.66562Q472.09375 459.44687 471.125 458.36874Q470.15625 457.275 468.54688 457.275Q466.9375 457.275 465.95312 458.38437Q464.96875 459.47812 464.96875 461.69687ZM481.51562 464.7125L481.51562 462.24374L486.35938 462.24374L486.35938 464.7125L481.51562 464.7125ZM495.70312 468.15L495.70312 457.44687L491.89062 457.44687L491.89062 455.25937L502.125 455.25937L502.125 457.44687L498.3125 457.44687L498.3125 468.15L495.70312 468.15ZM506.15625 468.15L503.6875 468.15L503.6875 458.82187L505.98438 458.82187L505.98438 460.15Q506.5625 459.19687 507.03125 458.9Q507.51562 458.60312 508.10938 458.60312Q508.95312 458.60312 509.73438 459.07187L508.96875 461.22812Q508.34375 460.82187 507.8125 460.82187Q507.29688 460.82187 506.92188 461.10312Q506.5625 461.38437 506.35938 462.13437Q506.15625 462.88437 506.15625 465.25937L506.15625 468.15ZM516.2031 465.18124L518.65625 465.5875Q518.1875 466.94687 517.15625 467.66562Q516.1406 468.36874 514.59375 468.36874Q512.15625 468.36874 511.0 466.775Q510.07812 465.49374 510.07812 463.55624Q510.07812 461.22812 511.28125 459.91562Q512.5 458.60312 514.3594 458.60312Q516.4375 458.60312 517.6406 459.97812Q518.84375 461.35312 518.7969 464.19687L512.6094 464.19687Q512.625 465.29062 513.1875 465.9Q513.7656 466.50937 514.625 466.50937Q515.2031 466.50937 515.59375 466.19687Q516.0 465.88437 516.2031 465.18124ZM516.34375 462.68124Q516.3125 461.60312 515.78125 461.05624Q515.25 460.49374 514.5 460.49374Q513.6875 460.49374 513.1719 461.0875Q512.6406 461.66562 512.6406 462.68124L516.34375 462.68124ZM523.6406 461.66562L521.3906 461.25937Q521.78125 459.9 522.7031 459.25937Q523.625 458.60312 525.4375 458.60312Q527.09375 458.60312 527.8906 458.99374Q528.7031 459.38437 529.03125 459.99374Q529.375 460.5875 529.375 462.19687L529.34375 465.0875Q529.34375 466.30624 529.4531 466.9Q529.5781 467.47812 529.90625 468.15L527.46875 468.15Q527.3594 467.9 527.21875 467.41562Q527.15625 467.19687 527.1406 467.13437Q526.5 467.74374 525.78125 468.05624Q525.0625 468.36874 524.25 468.36874Q522.7969 468.36874 521.96875 467.5875Q521.1406 466.79062 521.1406 465.60312Q521.1406 464.80624 521.5156 464.19687Q521.8906 463.57187 522.5781 463.24374Q523.2656 462.91562 524.5469 462.66562Q526.28125 462.3375 526.9375 462.05624L526.9375 461.80624Q526.9375 461.10312 526.5781 460.80624Q526.2344 460.49374 525.2656 460.49374Q524.6094 460.49374 524.2344 460.75937Q523.8594 461.00937 523.6406 461.66562ZM526.9375 463.66562Q526.46875 463.82187 525.4375 464.04062Q524.40625 464.25937 524.09375 464.47812Q523.6094 464.82187 523.6094 465.35312Q523.6094 465.86874 524.0 466.24374Q524.3906 466.61874 524.9844 466.61874Q525.65625 466.61874 526.25 466.18124Q526.7031 465.85312 526.84375 465.36874Q526.9375 465.04062 526.9375 464.16562L526.9375 463.66562ZM530.9219 465.49374L533.40625 465.10312Q533.5625 465.82187 534.0469 466.19687Q534.53125 466.57187 535.3906 466.57187Q536.3594 466.57187 536.84375 466.22812Q537.15625 465.97812 537.15625 465.57187Q537.15625 465.29062 536.9844 465.10312Q536.7969 464.93124 536.15625 464.775Q533.1719 464.11874 532.375 463.57187Q531.2656 462.82187 531.2656 461.4625Q531.2656 460.25937 532.21875 459.43124Q533.1875 458.60312 535.1875 458.60312Q537.1094 458.60312 538.03125 459.22812Q538.96875 459.85312 539.3281 461.07187L537.0 461.50937Q536.84375 460.9625 536.4219 460.68124Q536.0156 460.38437 535.2344 460.38437Q534.2656 460.38437 533.84375 460.65Q533.5625 460.85312 533.5625 461.15Q533.5625 461.41562 533.8125 461.60312Q534.1406 461.85312 536.1094 462.30624Q538.0781 462.74374 538.875 463.4Q539.6406 464.05624 539.6406 465.22812Q539.6406 466.50937 538.5625 467.44687Q537.5 468.36874 535.3906 468.36874Q533.4844 468.36874 532.375 467.5875Q531.2656 466.80624 530.9219 465.49374ZM547.9375 468.15L547.9375 466.75937Q547.4219 467.49374 546.59375 467.93124Q545.7656 468.36874 544.84375 468.36874Q543.90625 468.36874 543.15625 467.9625Q542.40625 467.54062 542.0625 466.79062Q541.7344 466.04062 541.7344 464.72812L541.7344 458.82187L544.2031 458.82187L544.2031 463.10312Q544.2031 465.07187 544.34375 465.525Q544.4844 465.9625 544.84375 466.22812Q545.2031 466.47812 545.75 466.47812Q546.3906 466.47812 546.8906 466.13437Q547.3906 465.79062 547.5781 465.275Q547.7656 464.75937 547.7656 462.75937L547.7656 458.82187L550.2344 458.82187L550.2344 468.15L547.9375 468.15ZM555.15625 468.15L552.6875 468.15L552.6875 458.82187L554.9844 458.82187L554.9844 460.15Q555.5625 459.19687 556.03125 458.9Q556.5156 458.60312 557.1094 458.60312Q557.9531 458.60312 558.7344 459.07187L557.96875 461.22812Q557.34375 460.82187 556.8125 460.82187Q556.2969 460.82187 555.9219 461.10312Q555.5625 461.38437 555.3594 462.13437Q555.15625 462.88437 555.15625 465.25937L555.15625 468.15ZM558.625 458.82187L561.25 458.82187L563.4844 465.44687L565.65625 458.82187L568.21875 458.82187L564.9219 467.79062L564.34375 469.43124Q564.0156 470.24374 563.71875 470.66562Q563.4219 471.10312 563.03125 471.36874Q562.65625 471.63437 562.09375 471.775Q561.5469 471.93124 560.84375 471.93124Q560.125 471.93124 559.4375 471.79062L559.21875 469.85312Q559.7969 469.9625 560.2656 469.9625Q561.125 469.9625 561.53125 469.4625Q561.9531 468.9625 562.1719 468.18124L558.625 458.82187ZM579.8906 471.93124L578.1875 471.93124Q576.84375 469.91562 576.1406 467.72812Q575.4375 465.525 575.4375 463.47812Q575.4375 460.94687 576.3125 458.68124Q577.0625 456.7125 578.2344 455.04062L579.9219 455.04062Q578.7031 457.7125 578.25 459.5875Q577.8125 461.44687 577.8125 463.54062Q577.8125 464.97812 578.0781 466.49374Q578.34375 467.99374 578.8125 469.36874Q579.1094 470.25937 579.8906 471.93124ZM581.1719 464.72812L583.5625 464.44687Q583.6875 465.35312 584.1875 465.8375Q584.6875 466.32187 585.3906 466.32187Q586.15625 466.32187 586.6719 465.74374Q587.2031 465.16562 587.2031 464.18124Q587.2031 463.24374 586.7031 462.69687Q586.2031 462.15 585.4844 462.15Q585.0156 462.15 584.34375 462.3375L584.625 460.32187Q585.625 460.35312 586.1406 459.9Q586.6719 459.43124 586.6719 458.66562Q586.6719 458.00937 586.28125 457.63437Q585.90625 457.24374 585.2656 457.24374Q584.625 457.24374 584.1719 457.68124Q583.7344 458.11874 583.6406 458.9625L581.3594 458.57187Q581.59375 457.41562 582.0781 456.7125Q582.5625 456.00937 583.40625 455.61874Q584.2656 455.2125 585.3281 455.2125Q587.15625 455.2125 588.25 456.36874Q589.15625 457.32187 589.15625 458.50937Q589.15625 460.2125 587.2969 461.22812Q588.40625 461.4625 589.0625 462.29062Q589.7344 463.11874 589.7344 464.275Q589.7344 465.97812 588.5 467.18124Q587.2656 468.36874 585.40625 468.36874Q583.6719 468.36874 582.5156 467.36874Q581.3594 466.35312 581.1719 464.72812ZM599.625 458.41562L597.2344 458.68124Q597.15625 457.94687 596.78125 457.60312Q596.4219 457.24374 595.8281 457.24374Q595.0469 457.24374 594.5 457.94687Q593.96875 458.65 593.8281 460.86874Q594.75 459.775 596.1094 459.775Q597.65625 459.775 598.7656 460.9625Q599.875 462.13437 599.875 463.99374Q599.875 465.97812 598.7031 467.18124Q597.5469 468.36874 595.7344 468.36874Q593.78125 468.36874 592.5156 466.85312Q591.2656 465.3375 591.2656 461.88437Q591.2656 458.3375 592.5781 456.775Q593.8906 455.2125 595.96875 455.2125Q597.4375 455.2125 598.40625 456.04062Q599.375 456.85312 599.625 458.41562ZM594.03125 463.80624Q594.03125 465.00937 594.5781 465.66562Q595.1406 466.32187 595.8594 466.32187Q596.53125 466.32187 596.9844 465.79062Q597.4531 465.24374 597.4531 464.025Q597.4531 462.775 596.9531 462.19687Q596.46875 461.60312 595.7344 461.60312Q595.0156 461.60312 594.5156 462.16562Q594.03125 462.7125 594.03125 463.80624ZM601.7969 468.15L601.7969 465.68124L604.2656 465.68124L604.2656 468.15L601.7969 468.15ZM611.1094 468.15L611.1094 465.55624L605.8281 465.55624L605.8281 463.4L611.4219 455.2125L613.5 455.2125L613.5 463.38437L615.09375 463.38437L615.09375 465.55624L613.5 465.55624L613.5 468.15L611.1094 468.15ZM611.1094 463.38437L611.1094 458.97812L608.1406 463.38437L611.1094 463.38437ZM621.1094 468.15L621.1094 465.55624L615.8281 465.55624L615.8281 463.4L621.4219 455.2125L623.5 455.2125L623.5 463.38437L625.09375 463.38437L625.09375 465.55624L623.5 465.55624L623.5 468.15L621.1094 468.15ZM621.1094 463.38437L621.1094 458.97812L618.1406 463.38437L621.1094 463.38437ZM626.28125 458.44687Q626.28125 456.7125 627.03125 455.88437Q627.7969 455.04062 629.1094 455.04062Q630.4531 455.04062 631.2031 455.88437Q631.96875 456.7125 631.96875 458.44687Q631.96875 460.18124 631.2031 461.025Q630.4531 461.85312 629.1406 461.85312Q627.7969 461.85312 627.03125 461.025Q626.28125 460.18124 626.28125 458.44687ZM628.2031 458.43124Q628.2031 459.68124 628.5 460.11874Q628.71875 460.43124 629.1094 460.43124Q629.5 460.43124 629.71875 460.11874Q630.0 459.68124 630.0 458.43124Q630.0 457.16562 629.71875 456.74374Q629.5 456.43124 629.1094 456.43124Q628.71875 456.43124 628.5 456.74374Q628.2031 457.16562 628.2031 458.43124ZM630.9844 468.65L629.15625 468.65L636.0156 455.04062L637.7969 455.04062L630.9844 468.65ZM634.96875 465.25937Q634.96875 463.525 635.7344 462.69687Q636.5 461.85312 637.8125 461.85312Q639.1406 461.85312 639.8906 462.69687Q640.65625 463.525 640.65625 465.25937Q640.65625 466.99374 639.8906 467.8375Q639.1406 468.66562 637.84375 468.66562Q636.5 468.66562 635.7344 467.8375Q634.96875 466.99374 634.96875 465.25937ZM636.90625 465.24374Q636.90625 466.50937 637.1875 466.93124Q637.40625 467.25937 637.7969 467.25937Q638.1875 467.25937 638.40625 466.93124Q638.6875 466.50937 638.6875 465.24374Q638.6875 463.99374 638.40625 463.55624Q638.1875 463.24374 637.7969 463.24374Q637.40625 463.24374 637.1875 463.55624Q636.90625 463.99374 636.90625 465.24374ZM643.1094 471.93124Q643.84375 470.36874 644.1406 469.525Q644.4375 468.69687 644.6875 467.61874Q644.9375 466.525 645.0625 465.54062Q645.1875 464.55624 645.1875 463.54062Q645.1875 461.44687 644.7344 459.5875Q644.2969 457.7125 643.09375 455.04062L644.7656 455.04062Q646.09375 456.93124 646.8281 459.05624Q647.5625 461.16562 647.5625 463.35312Q647.5625 465.18124 646.9844 467.29062Q646.3281 469.65 644.8125 471.93124L643.1094 471.93124Z" fill-rule="nonzero"/></svg>